<svg width="559" height="661" viewBox="0 0 559 661" fill="none" xmlns="http://www.w3.org/2000/svg">
<g filter="url(#filter0_d_454_18)">
<path d="M300 90H110C98.9543 90 90 98.9543 90 110V551C90 562.046 98.9543 571 110 571H300C311.046 571 320 562.046 320 551V110C320 98.9543 311.046 90 300 90Z" fill="white"/>
</g>
<path d="M110.188 90.6C107.623 90.597 105.083 91.0992 102.713 92.0779C100.343 93.0566 98.1882 94.4927 96.3729 96.3042C94.5575 98.1156 93.1168 100.267 92.133 102.635C91.1492 105.004 90.6415 107.542 90.639 110.107V550.893C90.6459 556.071 92.7093 561.034 96.3754 564.691C100.041 568.348 105.01 570.399 110.188 570.393H299.812C304.99 570.399 309.959 568.348 313.625 564.691C317.291 561.034 319.354 556.071 319.361 550.893V110.107C319.358 107.542 318.851 105.004 317.867 102.635C316.883 100.267 315.442 98.1156 313.627 96.3042C311.812 94.4927 309.657 93.0566 307.287 92.0779C304.917 91.0992 302.377 90.597 299.812 90.6H110.188ZM110.188 75H299.812C309.13 74.9997 318.069 78.6958 324.665 85.2774C331.262 91.859 334.979 100.789 335 110.107V550.893C334.979 560.211 331.262 569.141 324.665 575.723C318.069 582.304 309.13 586 299.812 586H110.188C100.869 586 91.9314 582.304 85.3346 575.723C78.7379 569.141 75.0212 560.211 75 550.893V110.107C75.0212 100.789 78.7379 91.859 85.3346 85.2774C91.9314 78.6958 100.869 74.9997 110.188 75Z" fill="#F3F5F7"/>
<path d="M520 34H278C266.954 34 258 42.9543 258 54V606C258 617.046 266.954 626 278 626H520C531.046 626 540 617.046 540 606V54C540 42.9543 531.046 34 520 34Z" fill="white"/>
<path d="M282.308 34.237C275.929 34.2352 269.81 36.7674 265.298 41.2767C260.786 45.786 258.25 51.9029 258.248 58.282V601.718C258.249 604.877 258.872 608.004 260.082 610.922C261.291 613.84 263.064 616.491 265.298 618.724C267.532 620.957 270.184 622.728 273.103 623.936C276.021 625.144 279.149 625.765 282.308 625.764H515.692C518.851 625.765 521.979 625.144 524.897 623.936C527.816 622.728 530.468 620.957 532.702 618.724C534.936 616.491 536.709 613.84 537.918 610.922C539.128 608.004 539.751 604.877 539.752 601.718V58.282C539.751 55.1233 539.128 51.9958 537.918 49.0779C536.709 46.16 534.936 43.5089 532.702 41.276C530.468 39.0432 527.816 37.2722 524.897 36.0643C521.979 34.8563 518.851 34.2351 515.692 34.236L282.308 34.237ZM282.308 14.999H515.692C527.171 15.0085 538.177 19.571 546.296 27.6853C554.415 35.7997 558.984 46.8033 559 58.282V601.718C558.984 613.197 554.415 624.2 546.296 632.314C538.177 640.428 527.171 644.99 515.692 645H282.308C270.829 644.99 259.823 640.428 251.704 632.314C243.585 624.2 239.016 613.197 239 601.718V58.282C239.016 46.8035 243.585 35.8001 251.704 27.686C259.823 19.5718 270.829 15.0085 282.308 14.999Z" fill="#F3F5F7"/>
<defs>
<filter id="filter0_d_454_18" x="0" y="0" width="410" height="661" filterUnits="userSpaceOnUse" color-interpolation-filters="sRGB">
<feFlood flood-opacity="0" result="BackgroundImageFix"/>
<feColorMatrix in="SourceAlpha" type="matrix" values="0 0 0 0 0 0 0 0 0 0 0 0 0 0 0 0 0 0 127 0" result="hardAlpha"/>
<feOffset/>
<feGaussianBlur stdDeviation="45"/>
<feColorMatrix type="matrix" values="0 0 0 0 0.952941 0 0 0 0 0.960784 0 0 0 0 0.968627 0 0 0 0.584 0"/>
<feBlend mode="normal" in2="BackgroundImageFix" result="effect1_dropShadow_454_18"/>
<feBlend mode="normal" in="SourceGraphic" in2="effect1_dropShadow_454_18" result="shape"/>
</filter>
</defs>
</svg>
