<svg width="250" height="63" viewBox="0 0 250 63" fill="none" xmlns="http://www.w3.org/2000/svg">
<g clip-path="url(#clip0_455_53)">
<path d="M67.3688 62.602C64.8919 62.639 62.424 62.2964 60.0508 61.586C58.0715 60.9864 56.1955 60.0877 54.4879 58.921C52.9689 57.87 51.6259 56.5851 50.5089 55.114C49.4845 53.7831 48.6492 52.3169 48.0269 50.757L58.0399 46.527C58.842 48.4671 60.1959 50.1292 61.9338 51.307C63.5535 52.349 65.4431 52.8931 67.3688 52.872C69.0647 52.9572 70.7516 52.5768 72.2468 51.7719C72.7543 51.536 73.1891 51.1682 73.5057 50.7068C73.8224 50.2453 74.0092 49.7073 74.0468 49.149C74.05 48.6012 73.914 48.0617 73.6517 47.5808C73.3893 47.1 73.0091 46.6938 72.5468 46.4C70.947 45.465 69.1937 44.8216 67.3688 44.5L61.4628 43.23C60.0647 42.9208 58.7024 42.4674 57.3979 41.877C56.0229 41.2714 54.7408 40.4737 53.5898 39.508C52.4395 38.5388 51.4815 37.362 50.7658 36.039C49.9984 34.5802 49.6153 32.9499 49.6528 31.302C49.6174 29.4124 50.0748 27.5461 50.9799 25.887C51.8775 24.293 53.1201 22.9198 54.6169 21.868C56.2687 20.7157 58.107 19.8572 60.0508 19.33C62.2382 18.7239 64.4992 18.425 66.7688 18.442C70.4676 18.3768 74.1309 19.1732 77.4689 20.768C80.6 22.3131 83.0633 24.9427 84.4008 28.1679L74.7299 32.06C74.009 30.5037 72.7686 29.2471 71.2219 28.506C69.7831 27.7976 68.2035 27.4216 66.5999 27.406C65.1427 27.3735 63.7008 27.7081 62.4068 28.3789C61.8994 28.5803 61.4603 28.9228 61.1413 29.3658C60.8224 29.8088 60.6369 30.3339 60.6068 30.8789C60.6148 31.3627 60.76 31.8342 61.0255 32.2386C61.2911 32.6429 61.6661 32.9635 62.1068 33.163C63.3936 33.8376 64.7595 34.3492 66.1729 34.6859L72.5898 36.208C76.8692 37.2226 80.0502 38.844 82.1329 41.072C84.1731 43.1953 85.295 46.0366 85.2559 48.981C85.2574 50.7803 84.8165 52.5523 83.9719 54.141C83.0736 55.8287 81.8355 57.3121 80.3358 58.498C78.6482 59.829 76.7347 60.8452 74.6868 61.498C72.3228 62.2575 69.8517 62.6303 67.3688 62.602Z" fill="white"/>
<path d="M92.0148 29.271H84.6548V19.797H92.0148V7.107H103.224V19.797H113.494V29.271H103.224V45.835C103.216 46.7589 103.317 47.6805 103.524 48.581C103.703 49.3869 104.103 50.1269 104.68 50.718C105.109 51.1925 105.64 51.5642 106.233 51.8055C106.826 52.0468 107.465 52.1516 108.104 52.112C109.502 52.1951 110.887 51.8078 112.04 51.012L115.206 60.741C113.854 61.375 112.432 61.8451 110.969 62.141C109.32 62.4639 107.643 62.62 105.963 62.607C104.02 62.6364 102.089 62.2996 100.271 61.614C98.6836 61.0141 97.2404 60.087 96.0348 58.893C93.3521 56.303 92.0111 52.619 92.0118 47.841L92.0148 29.271Z" fill="white"/>
<path d="M142.425 56.849H141.741C140.394 58.4573 138.788 59.8294 136.99 60.909C134.809 62.1188 132.337 62.7046 129.845 62.602C127.758 62.6162 125.686 62.2579 123.725 61.544C121.892 60.8855 120.195 59.8965 118.719 58.626C117.295 57.39 116.156 55.8602 115.381 54.142C114.569 52.3339 114.159 50.371 114.181 48.389C114.15 46.3838 114.59 44.3993 115.465 42.595C116.324 40.8698 117.551 39.3538 119.059 38.153C120.674 36.8729 122.518 35.9112 124.493 35.319C126.697 34.6531 128.99 34.3251 131.293 34.346C133.563 34.2996 135.832 34.5126 138.054 34.981C139.537 35.3175 140.995 35.7555 142.419 36.292V35.023C142.434 33.9697 142.201 32.9275 141.741 31.9802C141.28 31.0328 140.603 30.2067 139.766 29.568C137.892 28.0943 135.558 27.3299 133.176 27.41C131.275 27.4029 129.398 27.8345 127.691 28.671C125.984 29.5075 124.493 30.7264 123.334 32.233L115.203 26.733C119.653 21.207 125.73 18.4437 133.432 18.443C139.936 18.443 144.9 19.9517 148.323 22.969C151.745 25.9863 153.457 30.4557 153.458 36.377V61.248H142.418L142.425 56.849ZM142.425 44.412C141.118 43.7953 139.757 43.3002 138.36 42.933C136.863 42.5543 135.324 42.3694 133.781 42.383C131.577 42.2434 129.392 42.8546 127.581 44.117C126.905 44.6055 126.355 45.2476 125.975 45.9902C125.596 46.7329 125.398 47.555 125.399 48.389C125.381 49.1875 125.564 49.9777 125.931 50.6872C126.298 51.3967 126.837 52.0028 127.499 52.45C128.903 53.4679 130.6 54.0024 132.334 53.973C133.744 53.9892 135.142 53.7169 136.443 53.173C137.637 52.6779 138.726 51.9602 139.652 51.058C140.529 50.1885 141.227 49.1542 141.704 48.0146C142.181 46.875 142.429 45.6525 142.433 44.417L142.425 44.412Z" fill="white"/>
<path d="M158.084 0.678001H169.296V24.787C170.472 22.8978 172.125 21.3516 174.089 20.304C176.561 18.99 179.335 18.3483 182.133 18.443C184.775 18.4345 187.388 18.9973 189.793 20.093C192.208 21.1863 194.388 22.7376 196.212 24.661C198.114 26.6839 199.61 29.0531 200.619 31.64C202.788 37.3634 202.788 43.6826 200.619 49.406C199.61 51.9934 198.114 54.3629 196.212 56.386C194.388 58.3094 192.208 59.8607 189.793 60.954C187.388 62.0495 184.775 62.6124 182.133 62.604C179.335 62.6981 176.561 62.0564 174.089 60.743C172.125 59.6957 170.472 58.149 169.296 56.259H168.612V61.25H158.084V0.678001ZM179.823 52.366C181.277 52.3718 182.718 52.084 184.059 51.52C185.384 50.9661 186.59 50.1614 187.61 49.15C188.672 48.0831 189.515 46.8191 190.093 45.429C191.348 42.2779 191.348 38.7661 190.093 35.615C189.515 34.225 188.671 32.9608 187.61 31.893C186.589 30.8827 185.384 30.0784 184.059 29.524C182.718 28.9609 181.277 28.6735 179.823 28.679C178.372 28.6717 176.934 28.9433 175.586 29.479C174.258 30.0078 173.05 30.7992 172.035 31.806C170.973 32.8727 170.13 34.1372 169.554 35.528C168.298 38.7368 168.298 42.3011 169.554 45.51C170.13 46.9012 170.973 48.1661 172.035 49.233C173.049 50.2406 174.257 51.0323 175.586 51.56C176.933 52.0982 178.372 52.3718 179.823 52.366Z" fill="white"/>
<path d="M205.411 61.248V19.801H216.622V61.253L205.411 61.248Z" fill="white"/>
<path d="M226.812 29.271H219.452V19.797H226.812V7.107H238.024V19.797H248.294V29.271H238.024V45.835C238.016 46.7589 238.117 47.6805 238.324 48.581C238.503 49.387 238.903 50.1271 239.48 50.718C239.909 51.1925 240.44 51.5641 241.032 51.8054C241.625 52.0468 242.264 52.1516 242.903 52.112C244.301 52.1952 245.687 51.8079 246.84 51.012L250.006 60.741C248.654 61.3749 247.232 61.845 245.769 62.141C244.119 62.4639 242.442 62.6201 240.762 62.607C238.819 62.6364 236.888 62.2995 235.071 61.614C233.483 61.0142 232.04 60.0871 230.834 58.893C228.151 56.303 226.81 52.619 226.811 47.841L226.812 29.271Z" fill="white"/>
<path d="M210.974 14.296C209.565 14.3008 208.186 13.8922 207.007 13.1207C205.828 12.3493 204.902 11.2489 204.342 9.95598C203.6 8.15758 203.6 6.13841 204.342 4.34001C204.708 3.49721 205.231 2.73186 205.883 2.08501C207.249 0.748431 209.085 -1.52588e-05 210.996 -1.52588e-05C212.908 -1.52588e-05 214.743 0.748431 216.11 2.08501C216.787 2.74306 217.325 3.53019 217.692 4.39983C218.06 5.26946 218.249 6.20392 218.249 7.14799C218.249 8.09207 218.06 9.02659 217.692 9.89622C217.325 10.7659 216.787 11.5529 216.11 12.211C215.438 12.8855 214.636 13.4178 213.754 13.776C212.872 14.1342 211.926 14.3111 210.974 14.296Z" fill="white"/>
<path d="M18.727 33.216C18.8055 33.569 18.9305 33.91 19.0989 34.23C20.2729 36.503 25.964 48.053 22.331 51.73C18.556 55.551 3.807 59.797 4.856 61.551C5.905 63.305 24.8359 63.631 31.4679 54.99C35.5699 49.643 17.35 26.785 18.727 33.216Z" fill="white"/>
<path d="M24.4681 17.345C24.1659 17.5507 23.838 17.7161 23.493 17.837C21.06 18.71 8.89297 23.332 9.00397 28.46C9.11597 33.789 16.957 46.802 14.976 47.38C12.995 47.958 -1.07302 35.48 0.0659823 24.705C0.770982 18.039 29.9301 13.568 24.4681 17.345Z" fill="white"/>
</g>
<defs>
<clipPath id="clip0_455_53">
<rect width="250" height="62.603" fill="white"/>
</clipPath>
</defs>
</svg>
