<svg width="457" height="455" viewBox="0 0 457 455" fill="none" xmlns="http://www.w3.org/2000/svg">
<g clip-path="url(#clip0_474_2)">
<path d="M269.368 16.829C263.676 20.298 238.896 34.797 221.014 48.434C218.169 50.6025 216.048 53.5826 214.932 56.981C212.614 64.061 210.533 71.918 209.944 74.201C209.804 74.7268 209.876 75.2866 210.144 75.76C211.82 78.707 220.985 88.853 270.921 106.518L282.642 81.161C282.642 81.161 275.242 33.986 272.967 18.229C272.893 17.8508 272.725 17.4975 272.477 17.2019C272.23 16.9063 271.912 16.678 271.553 16.5383C271.194 16.3985 270.805 16.3519 270.423 16.4028C270.041 16.4536 269.678 16.6003 269.368 16.829Z" fill="white"/>
<path d="M382.149 300.367L320.68 307.588C315.771 308.165 311.082 309.952 307.034 312.788C302.986 315.624 299.705 319.421 297.486 323.838L269.973 379.118C269.403 380.253 268.471 381.165 267.324 381.711C266.178 382.257 264.882 382.406 263.642 382.133L253.865 379.979C250.561 379.25 247.103 379.805 244.194 381.532C241.284 383.26 239.141 386.029 238.199 389.279L236.668 394.567C236.256 395.988 236.35 397.507 236.933 398.866C237.517 400.226 238.554 401.34 239.868 402.02L285.002 425.412C286.443 426.158 288.114 426.329 289.677 425.888C291.239 425.448 292.575 424.429 293.414 423.04L338.772 349.167L401.466 345.216L382.149 300.367Z" fill="#244CA8"/>
<path d="M347.359 253.163L351.842 241.918L388.928 243.907L375.459 294.823L347.359 253.163Z" fill="#244CA8"/>
<path d="M342.677 225.985C342.677 225.985 346.752 215.437 346.69 209.707C346.611 202.084 347.438 186.57 342.581 187.301C339.622 187.743 338.738 194.919 338.375 198.001C338.248 199.221 337.75 200.373 336.947 201.301C335.785 202.61 334.136 203.115 333.268 197.18C331.857 187.51 332.163 168.902 326.546 172.309C323.701 174.038 325.225 190.934 323.616 190.186C322.007 189.438 322.204 163.926 315.357 166.709C313.095 167.627 313.606 179.819 314.07 186.638C314.074 186.716 314.049 186.792 314 186.852C313.951 186.912 313.88 186.952 313.803 186.962C313.726 186.973 313.648 186.954 313.584 186.91C313.52 186.866 313.475 186.799 313.458 186.723C312.531 182.602 311.117 176.597 309.984 173.08C308.765 169.288 305.931 171.272 305.931 174.038C305.931 179.989 306.94 192.521 306.94 192.521L342.677 225.985Z" fill="#244CA8"/>
<path d="M437.872 259.84L448.072 277.411L424.268 353.929C422.035 361.689 413.159 366.529 405.189 365.203L374.548 361.803C370.614 361.146 369.203 363.163 370.58 366.903L383.803 427.579C384.334 429.021 384.558 430.559 384.461 432.093C384.364 433.627 383.949 435.124 383.241 436.488C382.533 437.853 381.549 439.055 380.351 440.017C379.153 440.98 377.767 441.682 376.282 442.079L330.689 454.264C329.652 454.541 328.567 454.589 327.51 454.402C326.454 454.216 325.45 453.801 324.571 453.186C323.692 452.57 322.957 451.77 322.42 450.841C321.883 449.912 321.555 448.877 321.461 447.808L318.838 432.148C318.73 430.948 318.39 426.148 321.105 424.213C325.073 421.379 331.305 417.413 331.305 417.413C333.405 416.285 333.623 412.913 333.005 410.613L315.686 343.25C312.858 332.713 319.416 324.55 330.179 322.75C343.779 320.483 366.454 315.382 366.454 315.382L376.163 252.042C376.783 249.602 378.227 247.452 380.251 245.955C382.275 244.458 384.754 243.707 387.268 243.828L402.168 244.537L437.872 259.84Z" fill="#E9EBEF"/>
<path d="M432.012 243.204C435.112 230.092 426.995 216.95 413.883 213.851C400.771 210.751 387.629 218.868 384.53 231.98C381.431 245.092 389.547 258.234 402.659 261.333C415.771 264.432 428.913 256.316 432.012 243.204Z" fill="#E9EBEF"/>
<path d="M186.682 237.248L267.769 163.892C271.958 160.1 278.085 160.401 283.044 163.104C293.071 168.574 310.267 178.351 325.605 194.97C338.483 208.925 359.88 231.081 362.405 249.836C362.541 250.898 362.435 251.976 362.095 252.991C361.755 254.006 361.191 254.931 360.444 255.697C335.727 281.311 285.427 328.486 279.808 333.281C266.499 344.634 231.987 319.003 212.327 296.15C204.111 286.61 176.406 246.94 186.682 237.248Z" fill="white"/>
<path d="M450.848 264.33C443.321 256.922 430.454 257.364 422.519 264.166L394.392 289.785C393.652 290.4 392.699 290.699 391.739 290.616C390.78 290.533 389.892 290.076 389.268 289.343L369.339 266.043C366.133 262.288 364.193 257.617 363.796 252.695L363.076 243.813C363.027 243.212 362.881 242.622 362.645 242.067L359.013 232.724C358.9 232.435 358.708 232.182 358.461 231.995C358.213 231.808 357.918 231.693 357.608 231.663C357.299 231.633 356.988 231.689 356.708 231.826C356.429 231.962 356.193 232.173 356.026 232.435C354.937 234.345 354.392 236.517 354.45 238.715C354.45 243.249 355.516 248.147 353.815 248.147C351.548 248.147 348.855 243.692 347.705 239.509C346.384 234.692 345.727 230.854 343.397 228.724C343.122 228.506 342.795 228.365 342.448 228.314C342.101 228.263 341.746 228.304 341.42 228.433C341.094 228.562 340.808 228.775 340.59 229.049C340.372 229.324 340.23 229.651 340.178 229.998C339.504 233.698 340.278 240.654 340.342 244.604C340.359 245.738 339.342 245.715 339.033 244.338C338.075 240.07 335.462 227.024 335.462 227.024C335.372 226.649 335.165 226.312 334.872 226.061C334.579 225.81 334.215 225.659 333.83 225.627C333.446 225.596 333.061 225.687 332.731 225.887C332.401 226.087 332.143 226.386 331.993 226.741C330.032 231.428 330.763 241.625 331.12 245.417C331.127 245.487 331.11 245.558 331.071 245.617C331.032 245.676 330.974 245.719 330.906 245.74C330.839 245.761 330.766 245.758 330.701 245.731C330.636 245.704 330.582 245.655 330.548 245.593C328.922 242.517 327.642 239.27 326.733 235.912C326.675 235.692 326.554 235.493 326.384 235.341C326.214 235.189 326.004 235.091 325.778 235.058C325.553 235.025 325.323 235.059 325.116 235.156C324.91 235.254 324.737 235.409 324.619 235.604C323.119 238.304 323.882 244.764 324.285 247.416C324.293 247.469 324.282 247.522 324.254 247.568C324.226 247.613 324.184 247.648 324.133 247.665C324.083 247.682 324.028 247.682 323.978 247.663C323.929 247.644 323.887 247.609 323.86 247.563C323.221 246.433 322.667 245.256 322.205 244.043C321.548 242.372 320.148 243.33 320.034 244.39C319.451 249.485 319.761 254.642 320.948 259.631C321.498 261.995 323.487 269.085 332.403 279.747L380.018 332.459C388.518 343.228 399.418 340.389 405.524 335.859C420.824 324.523 449.077 296.597 449.077 296.597C459.824 287.524 457.574 270.944 450.848 264.33Z" fill="#E9EBEF"/>
<path d="M237.938 280.988C209.484 250.577 194.651 241.805 187.407 240.994C187.03 240.951 186.648 240.988 186.287 241.103C185.926 241.219 185.593 241.409 185.311 241.663C185.029 241.917 184.805 242.228 184.652 242.575C184.499 242.922 184.422 243.298 184.426 243.677C184.511 258.497 205.381 288.09 212.318 296.161C228.155 314.577 253.644 334.795 269.911 336.013C270.203 336.032 270.496 335.986 270.769 335.879C271.042 335.772 271.288 335.607 271.49 335.394C271.691 335.182 271.844 334.928 271.937 334.65C272.029 334.372 272.06 334.077 272.026 333.786C271.039 325.091 264.169 309.028 237.938 280.988Z" fill="#4285F4"/>
<path d="M210.391 76.1739C212.641 81.5919 238.499 98.2619 270.908 106.52L271.872 104.44C259.291 93.4159 237.552 82.3519 221.41 78.1859C215.491 76.6609 212.267 75.9529 210.391 76.1739Z" fill="#4285F4"/>
<path d="M272.456 27.7549C269.437 25.2546 265.826 23.5712 261.97 22.8659L262.185 21.7549C266.229 22.4967 270.016 24.2606 273.185 26.8789L272.456 27.7549Z" fill="#4285F4"/>
<path d="M214.988 79.207C222.135 84.835 240.817 95.072 263.888 102.559L264.648 100.966C255.117 92.866 233.403 82.806 215.452 78.26C215.332 78.2298 215.206 78.2417 215.093 78.2937C214.981 78.3457 214.891 78.4346 214.836 78.5455C214.782 78.6564 214.767 78.7827 214.795 78.9031C214.822 79.0235 214.891 79.1308 214.988 79.207Z" fill="#091445"/>
<path d="M189.278 246.883C192.52 242.783 221.166 269.504 230.878 279.406C247.494 296.348 271.629 329.137 265.813 330.668C262.191 331.62 239.785 319.068 216.133 292.335C198.142 271.987 187.277 249.417 189.278 246.883Z" fill="#091445"/>
<path d="M380.669 10.4129L379.83 5.32286C379.133 1.08986 374.948 -0.985139 370.898 0.454861C365.593 2.33686 358.712 4.56986 354.982 7.47186C354.253 8.03599 353.676 8.77281 353.304 9.61575C352.931 10.4587 352.775 11.3812 352.848 12.2999C354.214 28.8679 355.778 41.7789 356.521 47.4809C356.65 48.4798 356.554 49.4951 356.238 50.4517C355.922 51.4082 355.395 52.2814 354.696 53.0069L338.148 70.2219L354.931 78.7999L386.348 49.5279L380.669 10.4129Z" fill="#244CA8"/>
<path d="M270.914 106.52L282.914 80.551C283.935 78.3466 285.536 76.4611 287.546 75.0964C289.555 73.7316 291.898 72.9389 294.324 72.803L319.201 71.426C325.325 71.0864 331.284 69.3179 336.601 66.262C338.739 65.0333 341.164 64.3923 343.63 64.4043C346.096 64.4162 348.515 65.0806 350.641 66.33C352.03 67.1456 353.638 67.5089 355.242 67.3697C356.847 67.2305 358.368 66.5956 359.596 65.553L368.58 57.924C369.088 57.4917 369.488 56.9469 369.748 56.3329C370.009 55.7189 370.122 55.0526 370.08 54.387C369.604 47.166 368.091 23.519 367.898 11.987C367.885 11.2024 368.097 10.4304 368.507 9.7613C368.917 9.09225 369.509 8.55383 370.214 8.20903C377.278 5.07591 385.082 3.99534 392.731 5.09103C393.597 5.22879 394.392 5.65447 394.986 6.29933C395.58 6.94418 395.94 7.77056 396.007 8.64503C396.489 16.512 391.116 24.945 391.116 24.945L395.849 60.523C396.361 64.3729 395.82 68.2894 394.286 71.857C392.751 75.4246 390.279 78.5101 387.132 80.786L357.244 102.388C354.976 104.029 352.618 105.543 350.182 106.922C344.396 110.204 338.207 112.719 331.772 114.404L308.872 120.395L270.914 106.52Z" fill="#E9EBEF"/>
<path d="M281.213 83.191L295.128 81.082L305.943 92.571L284.983 112.517L273.896 99.991L281.213 83.191Z" fill="#244CA8"/>
<path d="M315.255 76.6867C317.978 66.2683 311.74 55.6149 301.321 52.8916C290.903 50.1683 280.25 56.4064 277.526 66.8248C274.803 77.2432 281.041 87.8966 291.459 90.6199C301.878 93.3433 312.531 87.1051 315.255 76.6867Z" fill="#E9EBEF"/>
<path d="M329.721 81.5309C327.097 79.1881 323.67 77.9477 320.154 78.0681C316.638 78.1884 313.304 79.6601 310.846 82.1769L295.667 97.7179C295.085 98.3134 294.356 98.744 293.554 98.9661C292.751 99.1881 291.904 99.1936 291.099 98.9819L268.534 93.0599C266.976 92.6515 265.563 91.8129 264.459 90.6399L257.98 83.7699C257.857 83.6349 257.703 83.5314 257.531 83.4682C257.359 83.405 257.175 83.3839 256.994 83.4066C256.812 83.4293 256.639 83.4953 256.488 83.5988C256.337 83.7024 256.213 83.8406 256.127 84.0019C255.644 85.2148 255.57 86.5523 255.917 87.8109C256.733 92.0599 254.268 92.0499 251.759 90.0439C250.47 89.0119 248.469 87.4029 246.837 86.0819C246.558 85.8581 246.222 85.7178 245.866 85.6773C245.511 85.6368 245.152 85.6978 244.83 85.8532C244.507 86.0085 244.236 86.252 244.047 86.5553C243.857 86.8586 243.757 87.2093 243.759 87.5669C243.748 89.5049 244.025 91.7269 245.142 92.9669C242.859 99.8039 246.69 107.921 252.749 111.197C259.743 114.978 297.441 126.625 297.441 126.625C299.239 127.156 301.147 127.192 302.963 126.728C304.779 126.264 306.436 125.318 307.759 123.99L330.299 101.352C331.609 100.037 332.638 98.4696 333.321 96.7442C334.005 95.0188 334.33 93.1722 334.276 91.317C334.222 89.4619 333.79 87.6372 333.007 85.9546C332.224 84.272 331.106 82.7668 329.721 81.5309Z" fill="#E9EBEF"/>
<path d="M284.602 58.8361C282.119 60.6749 280.236 63.2072 279.189 66.1141C278.019 69.336 277.888 72.8437 278.814 76.144C279.74 79.4443 281.678 82.3715 284.353 84.5141C287.21 86.8551 291.568 87.4141 295.899 84.7351C298.776 82.8732 300.952 80.1064 302.082 76.8711C303.1 74.1448 303.344 71.1899 302.786 68.3337C302.227 65.4776 300.89 62.8317 298.92 60.6891C295.746 57.1471 288.627 55.9111 284.602 58.8361Z" fill="black"/>
<path d="M143.453 278.387C141.288 270.134 138.879 259.501 137.609 255.887C137.533 255.659 137.412 255.449 137.252 255.269C132.488 252.715 127.024 251.778 121.682 252.599C119.282 252.999 111.054 252.236 107.761 254.736C107.287 255.156 106.908 255.672 106.65 256.249C106.391 256.827 106.258 257.453 106.261 258.086C105.8 264.965 104.655 286.208 104.848 293.378C104.855 294.008 105.074 294.617 105.47 295.107C105.866 295.597 106.415 295.939 107.03 296.078C120.979 298.918 137.201 297.608 144.43 292.15C144.825 291.855 145.138 291.465 145.341 291.016C145.543 290.566 145.627 290.073 145.586 289.582C145.176 285.799 144.463 282.055 143.453 278.387Z" fill="white"/>
<path d="M63.7448 223.333L40.6988 216.133C40.1195 215.95 39.6239 215.568 39.3001 215.054C38.9763 214.54 38.8454 213.928 38.9308 213.327L42.4908 188.427C42.612 187.583 42.3932 186.725 41.8825 186.042C41.3718 185.359 40.6109 184.906 39.7668 184.784L25.3708 182.585C25.0692 182.574 24.7688 182.628 24.4906 182.745C24.2124 182.863 23.9633 183.039 23.7607 183.263C23.558 183.487 23.4068 183.752 23.3177 184.04C23.2286 184.329 23.2037 184.633 23.2448 184.932C23.2274 185.306 23.284 185.68 23.4115 186.032C23.539 186.384 23.7349 186.708 23.9878 186.984L26.5878 190.118C26.8283 190.406 27.0038 190.743 27.1025 191.106C27.2012 191.468 27.2208 191.847 27.1598 192.218L24.0838 211.265L34.6208 233.705L60.2208 236.443L63.7448 223.333Z" fill="#244CA8"/>
<path d="M18.2171 191.206L38.2481 222.714C38.7895 223.564 39.6456 224.165 40.6291 224.386L45.1181 225.386C46.6064 225.714 48.1642 225.454 49.4651 224.66L51.2001 223.596C52.8995 222.554 54.805 221.894 56.7848 221.661C58.7645 221.428 60.7712 221.628 62.6661 222.247L90.1451 231.208L82.1131 256.258L55.0201 249.649C52.6696 249.077 50.3533 248.373 48.0821 247.541C44.7041 246.305 39.7611 244.418 36.7521 242.941C28.9921 239.126 26.4521 236.156 25.1841 233.787C21.1651 226.254 11.2351 209.187 9.98406 207.164C8.35706 204.545 4.78406 204.319 2.88406 203.826C2.33668 203.737 1.82016 203.512 1.38109 203.173C0.942026 202.835 0.594223 202.392 0.369062 201.885L0.125062 201.318C-0.0147991 200.991 -0.0376536 200.626 0.0603533 200.284C0.15836 199.942 0.371231 199.645 0.663062 199.442L13.8241 190.248C14.1702 190.006 14.5627 189.838 14.9767 189.756C15.3908 189.673 15.8175 189.676 16.23 189.766C16.6426 189.856 17.0321 190.031 17.374 190.278C17.716 190.526 18.003 190.842 18.2171 191.206Z" fill="#E9EBEF"/>
<path d="M102.399 248.357L126.646 248.34C128.624 248.329 130.665 248.918 131.708 250.114C132.331 250.828 133.442 252.37 134.032 253.114C134.44 253.635 134.293 254.314 133.703 254.168L130.761 253.113L131.282 254.913C131.639 255.888 130.749 256.33 129.995 255.95L127.065 254.567C127.081 254.753 127.047 254.94 126.966 255.108C126.886 255.277 126.761 255.42 126.606 255.524C126.45 255.628 126.27 255.688 126.084 255.698C125.897 255.708 125.712 255.668 125.546 255.582C124.25 254.857 123.004 254.046 121.816 253.156C121.352 252.842 120.799 252.687 120.24 252.714C115.24 252.963 111.715 253.587 108.666 254.834C106.404 255.758 106.348 258.11 106.308 258.847C106.24 260.088 104.562 263.807 104.562 263.807L88.7779 260.56L85.9839 250.052L102.399 248.357Z" fill="#244CA8"/>
<path d="M93.1819 251.156C100.056 251.156 105.629 245.35 105.629 238.188C105.629 231.026 100.056 225.22 93.1819 225.22C86.3076 225.22 80.7349 231.026 80.7349 238.188C80.7349 245.35 86.3076 251.156 93.1819 251.156Z" fill="#E9EBEF"/>
<path d="M98.5952 268.807C98.5952 268.807 90.9412 282.334 89.7872 290.323C89.7056 290.937 89.7472 291.561 89.9096 292.158C90.0719 292.756 90.3518 293.315 90.7328 293.803C91.1138 294.292 91.5883 294.699 92.1285 295.002C92.6688 295.304 93.2639 295.496 93.8792 295.566C97.5923 295.912 101.33 295.901 105.041 295.534C104.27 293.125 106.027 271.711 106.781 263.056C106.801 262.803 106.741 262.55 106.61 262.333C106.48 262.115 106.284 261.944 106.052 261.842C105.819 261.741 105.561 261.715 105.312 261.767C105.064 261.819 104.838 261.947 104.666 262.134L98.5952 268.807Z" fill="white"/>
<path d="M124.736 262.363C126.374 265.775 132.558 278.795 133.879 284.021C133.917 284.17 133.92 284.327 133.886 284.478C133.852 284.628 133.784 284.769 133.685 284.888C133.587 285.006 133.462 285.1 133.32 285.162C133.178 285.223 133.024 285.25 132.87 285.24C128.059 284.991 123.235 285.304 118.496 286.175C118.348 286.202 118.196 286.195 118.051 286.154C117.906 286.113 117.773 286.039 117.661 285.938C117.55 285.837 117.463 285.712 117.408 285.572C117.352 285.432 117.33 285.281 117.342 285.131L119.034 264.279C119.048 264.098 119.113 263.925 119.22 263.778C119.328 263.632 119.474 263.519 119.642 263.451L123.478 261.887C123.709 261.791 123.968 261.787 124.201 261.876C124.435 261.964 124.626 262.138 124.736 262.363Z" fill="white"/>
<path d="M132.456 279.809C129.656 272.486 124.334 261.535 124.334 261.535L123.081 262.045L129.021 285.135C130.724 285.129 132.427 285.212 134.121 285.384C133.784 283.467 133.227 281.596 132.46 279.807" fill="#93B4F6"/>
<path d="M134.123 285.386C134.117 285.286 129.549 281.586 129.549 281.586C129.169 281.294 128.712 281.118 128.234 281.08C127.756 281.043 127.277 281.145 126.856 281.374L117.929 286.274C123.265 285.266 128.71 284.968 134.123 285.386Z" fill="#274D76"/>
<path d="M88.9601 241.994C88.7542 244.136 89.2078 246.289 90.2601 248.166C90.5908 248.758 91.0722 249.252 91.6555 249.597C92.2388 249.943 92.9032 250.127 93.5811 250.133H93.6041C96.6441 250.069 99.5344 248.801 101.64 246.607C103.745 244.413 104.893 241.473 104.832 238.433V238.394C104.836 237.094 104.384 235.835 103.554 234.835C102.723 233.835 101.568 233.158 100.29 232.923C99.4791 232.79 98.6546 232.759 97.8361 232.832C95.5239 233.094 93.3744 234.15 91.7554 235.822C90.1363 237.493 89.1482 239.675 88.9601 241.994Z" fill="black"/>
<path d="M129.118 264.018L126.443 264.33C126.397 264.335 126.351 264.325 126.311 264.301C126.271 264.277 126.241 264.241 126.223 264.198C126.206 264.155 126.203 264.107 126.215 264.063C126.227 264.018 126.254 263.978 126.29 263.95L128.535 262.255C128.723 262.112 128.86 261.911 128.925 261.684C128.991 261.456 128.981 261.214 128.897 260.993C128.814 260.771 128.661 260.583 128.462 260.455C128.263 260.327 128.028 260.267 127.792 260.283C125.36 260.47 122.226 260.731 119.992 260.969C119.913 260.977 119.834 260.957 119.768 260.914C119.702 260.87 119.653 260.805 119.628 260.73C119.604 260.655 119.606 260.574 119.634 260.5C119.662 260.426 119.714 260.363 119.782 260.323C120.782 259.751 121.312 259.473 122.355 258.889C123.846 258.05 122.378 256.871 120.672 256.934C117.481 257.059 114.301 258.98 111.881 258.98C107.505 258.98 95.3931 258.391 95.3931 258.391C94.9191 258.375 94.4554 258.248 94.0398 258.02C93.6241 257.791 93.2683 257.468 93.0011 257.076L83.1611 242.513C81.8732 240.802 79.9646 239.666 77.8468 239.35C75.729 239.033 73.5716 239.562 71.8399 240.821C70.1081 242.081 68.9407 243.97 68.5892 246.083C68.2378 248.195 68.7305 250.361 69.9611 252.113L84.3691 270.57C85.0285 271.414 85.8649 272.103 86.8195 272.589C87.7741 273.075 88.8237 273.345 89.8941 273.381L121.266 272.905C122.776 272.837 124.229 272.306 125.428 271.386C126.627 270.465 127.515 269.199 127.971 267.758C128.79 267.209 129.514 266.529 130.114 265.746C130.242 265.576 130.318 265.373 130.331 265.16C130.344 264.948 130.295 264.736 130.188 264.552C130.082 264.368 129.924 264.219 129.734 264.124C129.543 264.029 129.329 263.992 129.118 264.018Z" fill="#E9EBEF"/>
<path d="M90.5131 129.889C92.923 138.015 96.062 145.907 99.8921 153.468C109.414 172.7 114.062 180.402 118.959 188.661C124.922 198.716 143.127 208.913 178.252 187.153C214.646 164.611 209.097 149.761 206.683 144.592C205.255 141.531 193.664 119.868 184.045 103.425C180.292 97.0091 176.751 91.5281 174.392 87.9911C173.424 86.5409 172.15 85.32 170.66 84.414C169.17 83.508 167.5 82.9387 165.767 82.7461C156.192 81.6601 135.892 81.7681 115.032 96.8841C86.2671 117.731 90.5131 129.889 90.5131 129.889Z" fill="white"/>
<path d="M208.147 155.6C208.601 153.226 208.351 150.77 207.429 148.536C206.507 146.302 204.952 144.386 202.955 143.023C192.651 135.915 172.467 135.609 146.876 151.776C118.757 169.538 118.102 184.569 122.288 192.896C130.488 200.984 148.157 205.796 178.248 187.154C199.815 173.8 206.651 163.144 208.147 155.6Z" fill="#4285F4"/>
<path d="M127.553 192.346C124.053 187.346 123.988 171.663 150.236 154.778C176.695 137.757 199.906 142.598 203.321 151.774C206.736 160.95 187.721 177.756 166.544 188.514C147.386 198.252 131.43 197.895 127.553 192.346Z" fill="#091445"/>
<path d="M104.821 291.898C102.521 291.893 100.086 292.017 97.6549 292.21C92.1789 292.646 91.4429 294.369 91.9579 294.898C92.4861 295.385 93.1626 295.681 93.8789 295.737C97.8905 296.101 101.929 296.044 105.929 295.567C104.821 294.347 104.83 293.757 104.821 291.898Z" fill="black"/>
<path d="M143.327 258.151C141.689 256.132 140.754 256.377 137.761 256.332C139.031 260.719 141.241 269.964 143.452 278.392C145.663 286.82 145.674 291.1 145.674 291.1C148.451 290.732 150.69 290.318 156.126 289.405C160.564 288.657 160.961 284.984 158.665 281.583L143.327 258.151Z" fill="white"/>
<path d="M143.503 292.8C143.82 292 143.303 291.19 141.967 290.533C139.32 289.218 134.139 288.186 124.044 288.753C114.738 289.274 110.013 291.576 107.641 293.605C106.372 294.694 106.457 295.532 107.579 296.212C121.567 299.607 136.038 297.714 143.503 292.8Z" fill="#4285F4"/>
<path d="M156.703 289.507C157.825 289.218 158.003 288.016 157.417 287.597C157.13 287.397 156.829 287.217 156.517 287.059C153.762 285.642 149.352 285.659 145.135 286.163C145.668 289.439 145.764 290.227 145.163 291.338C148.598 291.1 156.369 289.592 156.703 289.507Z" fill="black"/>
<path d="M312.002 110.653C309.225 109.037 304.214 105.88 301.862 102.953C301.539 102.54 301.368 102.029 301.377 101.505C301.386 100.981 301.576 100.477 301.913 100.076L309.277 91.1999C309.652 90.7474 310.185 90.4558 310.768 90.3851C311.352 90.3144 311.939 90.47 312.411 90.8199C314.724 92.5369 318.935 95.7109 321.174 97.6949C321.608 98.0735 321.883 98.6019 321.944 99.1745C322.005 99.747 321.848 100.321 321.503 100.783C318.93 104.263 316.362 108.027 315.064 109.954C314.738 110.437 314.24 110.778 313.672 110.908C313.104 111.037 312.507 110.947 312.003 110.654L312.002 110.653Z" fill="black"/>
<path d="M419.854 312.723C419.275 312.669 418.713 312.5 418.201 312.225C417.689 311.951 417.238 311.576 416.873 311.123L404.657 295.957C403.959 295.088 403.619 293.985 403.706 292.874C403.794 291.762 404.302 290.726 405.127 289.977L418.627 277.777C419.062 277.384 419.572 277.082 420.126 276.89C420.68 276.698 421.268 276.62 421.853 276.66C422.438 276.701 423.009 276.858 423.532 277.124C424.054 277.39 424.518 277.759 424.895 278.208L437.818 293.608C438.559 294.493 438.92 295.635 438.822 296.785C438.723 297.935 438.174 299 437.293 299.746L423.093 311.706C422.315 312.377 421.321 312.746 420.293 312.743C420.147 312.745 420 312.739 419.854 312.723Z" fill="black"/>
<path d="M353.56 286.157L352.676 285.448L359.041 277.462C359.186 277.281 359.264 277.056 359.263 276.825C359.261 276.593 359.18 276.369 359.034 276.19C358.887 276.011 358.683 275.887 358.457 275.841C358.23 275.794 357.994 275.826 357.788 275.932L350.595 279.632C350.154 279.858 349.648 279.925 349.164 279.82C348.679 279.716 348.246 279.447 347.938 279.058C347.629 278.67 347.465 278.187 347.472 277.692C347.48 277.196 347.659 276.718 347.979 276.34L354.379 268.785C354.538 268.609 354.628 268.382 354.631 268.145C354.634 267.908 354.551 267.678 354.396 267.498C354.255 267.308 354.049 267.176 353.817 267.128C353.585 267.08 353.343 267.119 353.138 267.237L334.595 276.67L334.079 275.67L352.613 266.229C353.05 265.988 353.56 265.911 354.049 266.013C354.538 266.115 354.974 266.388 355.279 266.784C355.6 267.169 355.773 267.655 355.767 268.156C355.761 268.657 355.576 269.14 355.245 269.516L348.845 277.071C348.692 277.249 348.605 277.475 348.6 277.71C348.595 277.945 348.673 278.175 348.819 278.359C348.965 278.543 349.171 278.67 349.401 278.719C349.631 278.767 349.871 278.734 350.079 278.625L357.266 274.925C357.702 274.7 358.203 274.632 358.683 274.732C359.164 274.831 359.596 275.093 359.907 275.473C360.217 275.853 360.388 276.328 360.391 276.819C360.393 277.31 360.227 277.787 359.92 278.17L353.56 286.157Z" fill="black"/>
<path d="M384.424 297.9L376.144 320.219L377.208 320.614L385.488 298.295L384.424 297.9Z" fill="black"/>
<path d="M397.398 302.755L396.328 303.132L405.871 330.245L406.94 329.868L397.398 302.755Z" fill="black"/>
<path d="M397.003 321.525L395.881 321.691L397.849 335.019L398.971 334.854L397.003 321.525Z" fill="black"/>
<path d="M384.248 316.387L382.21 327.066L383.324 327.279L385.362 316.599L384.248 316.387Z" fill="black"/>
<path d="M293.524 102.31L292.527 102.851L302.812 121.801L303.808 121.26L293.524 102.31Z" fill="black"/>
<path d="M293.588 112.381L292.498 112.694L295.674 123.742L296.764 123.428L293.588 112.381Z" fill="black"/>
<path d="M288.462 104.107L287.479 120.709L288.611 120.776L289.594 104.174L288.462 104.107Z" fill="black"/>
<path d="M258.502 110.544L257.408 110.25L260.321 99.3559C260.408 99.0322 260.607 98.7501 260.883 98.5602C261.159 98.3703 261.494 98.2851 261.828 98.3199C262.161 98.3548 262.471 98.5073 262.702 98.7502C262.933 98.993 263.069 99.3103 263.087 99.6449L263.408 106.169C263.408 106.23 263.43 106.289 263.469 106.336C263.509 106.382 263.563 106.414 263.623 106.424C263.682 106.441 263.745 106.435 263.8 106.409C263.855 106.383 263.899 106.338 263.923 106.282L268.132 97.9839L269.141 98.4939L264.941 106.794C264.8 107.07 264.572 107.291 264.293 107.424C264.013 107.557 263.698 107.594 263.395 107.53C263.092 107.465 262.819 107.302 262.618 107.067C262.417 106.831 262.299 106.536 262.283 106.227L261.959 99.7009C261.956 99.636 261.931 99.5743 261.886 99.5269C261.842 99.4795 261.782 99.4497 261.717 99.4428C261.653 99.4359 261.588 99.4524 261.534 99.4893C261.481 99.5262 261.443 99.5811 261.426 99.6439L258.502 110.544Z" fill="black"/>
<path d="M375.032 53.5003L374.853 54.6201L391.443 57.2643L391.621 56.1444L375.032 53.5003Z" fill="black"/>
<path d="M376.17 58.5777L375.758 59.634L391.333 65.7169L391.746 64.6606L376.17 58.5777Z" fill="black"/>
<path d="M376.389 62.9557L375.53 63.6951L386.539 76.4947L387.399 75.7553L376.389 62.9557Z" fill="black"/>
<path d="M359.511 366.847L359.445 366.841L327.039 363.135L327.169 362.007L359.545 365.707C359.855 365.701 360.154 365.593 360.398 365.402C360.641 365.21 360.816 364.944 360.895 364.644C360.974 364.345 360.953 364.027 360.836 363.74C360.719 363.453 360.511 363.213 360.245 363.054L322.945 345.454C322.402 345.153 321.987 344.664 321.777 344.079C321.568 343.494 321.578 342.853 321.807 342.275C322.035 341.697 322.466 341.222 323.019 340.939C323.572 340.656 324.209 340.583 324.812 340.735L354.393 347.316C354.71 347.394 355.044 347.361 355.34 347.222C355.635 347.084 355.875 346.848 356.018 346.554C356.161 346.261 356.199 345.927 356.126 345.609C356.053 345.291 355.873 345.007 355.617 344.805L330.837 332.556L331.345 331.541L356.252 343.863C356.729 344.212 357.07 344.716 357.218 345.289C357.365 345.861 357.311 346.467 357.062 347.003C356.814 347.54 356.388 347.974 355.856 348.232C355.325 348.491 354.72 348.557 354.145 348.42L324.562 341.841C324.228 341.747 323.871 341.782 323.562 341.94C323.254 342.097 323.015 342.366 322.896 342.691C322.755 343.005 322.737 343.361 322.846 343.688C322.955 344.014 323.183 344.288 323.485 344.454L360.785 362.054C361.277 362.333 361.663 362.768 361.883 363.29C362.102 363.811 362.143 364.391 361.997 364.938C361.852 365.486 361.53 365.969 361.081 366.314C360.632 366.659 360.081 366.845 359.515 366.843L359.511 366.847Z" fill="black"/>
<path d="M80.0249 259.875C79.6746 259.824 79.3391 259.699 79.0409 259.509C78.7428 259.318 78.4888 259.066 78.2959 258.769L75.3249 254.218C74.9697 253.668 74.844 253.002 74.9748 252.361C75.1057 251.719 75.4827 251.155 76.0249 250.789L79.9869 248.131C80.5323 247.767 81.1991 247.632 81.843 247.756C82.4869 247.88 83.0559 248.253 83.4269 248.794L86.1769 252.818C86.5241 253.325 86.6709 253.944 86.5891 254.553C86.5073 255.162 86.2026 255.72 85.7339 256.118L81.9989 259.303C81.5496 259.689 80.9763 259.9 80.3839 259.898C80.2639 259.899 80.1439 259.891 80.0249 259.875Z" fill="black"/>
<path d="M91.1262 260.324L84.9238 266.832L85.7448 267.614L91.9473 261.106L91.1262 260.324Z" fill="black"/>
<path d="M89.2382 266.289L87.584 269.632L88.6004 270.135L90.2546 266.792L89.2382 266.289Z" fill="black"/>
<path d="M93.7734 260.206L91.46 271.245L92.5699 271.478L94.8833 260.438L93.7734 260.206Z" fill="black"/>
<path d="M106.678 269.119H106.598C106.233 269.105 105.881 268.98 105.589 268.76C105.298 268.54 105.08 268.236 104.966 267.889L103.957 264.84L105.034 264.483L106.043 267.532C106.083 267.661 106.162 267.774 106.27 267.856C106.377 267.937 106.508 267.982 106.643 267.985C106.778 267.992 106.911 267.957 107.026 267.886C107.14 267.814 107.23 267.709 107.283 267.585L108.264 265.285C108.38 265.013 108.562 264.774 108.793 264.589C109.024 264.404 109.297 264.278 109.588 264.224C109.879 264.17 110.179 264.188 110.461 264.277C110.743 264.366 110.999 264.523 111.206 264.735L114.17 267.773C114.269 267.881 114.402 267.951 114.546 267.973C114.69 267.994 114.838 267.966 114.964 267.892C115.094 267.825 115.198 267.715 115.258 267.581C115.317 267.447 115.33 267.297 115.293 267.155L113.916 261.263L115.021 261.008L116.398 266.903C116.485 267.285 116.445 267.686 116.284 268.043C116.123 268.401 115.85 268.696 115.506 268.884C115.161 269.072 114.765 269.142 114.378 269.084C113.99 269.026 113.631 268.843 113.357 268.563L110.396 265.525C110.321 265.445 110.226 265.385 110.121 265.353C110.016 265.32 109.904 265.315 109.796 265.338C109.689 265.357 109.588 265.403 109.502 265.471C109.417 265.54 109.351 265.628 109.309 265.729L108.328 268.029C108.191 268.353 107.961 268.63 107.668 268.824C107.374 269.018 107.03 269.12 106.678 269.119Z" fill="black"/>
<path d="M33.6115 223.676L25.4941 226.462L25.8622 227.535L33.9796 224.749L33.6115 223.676Z" fill="black"/>
<path d="M31.3646 227.29L27.001 230.924L27.7267 231.795L32.0904 228.161L31.3646 227.29Z" fill="black"/>
<path d="M34.5968 227.51L31.207 236.237L32.2639 236.648L35.6537 227.92L34.5968 227.51Z" fill="black"/>
<path d="M4.19398 202.077C4.06623 202.078 3.93878 202.064 3.81398 202.037L2.83398 201.822L3.07798 200.717L4.05898 200.932C4.14726 200.952 4.23861 200.953 4.32737 200.936C4.41613 200.918 4.50041 200.883 4.57498 200.832C4.65 200.78 4.71309 200.713 4.76 200.635C4.80691 200.557 4.83657 200.47 4.84698 200.379L4.94698 199.585C4.97974 199.336 5.06466 199.096 5.19622 198.881C5.32778 198.667 5.50303 198.482 5.71057 198.34C5.9181 198.198 6.15326 198.101 6.40075 198.056C6.64823 198.01 6.9025 198.018 7.14698 198.077L9.09698 198.559C9.19852 198.585 9.30485 198.585 9.40666 198.561C9.50847 198.536 9.60266 198.487 9.68098 198.417C9.76082 198.348 9.82308 198.262 9.86257 198.164C9.90206 198.066 9.91763 197.961 9.90798 197.856L9.80798 196.768C9.78138 196.486 9.82248 196.201 9.92787 195.938C10.0333 195.675 10.1999 195.441 10.414 195.255C10.6266 195.067 10.8814 194.934 11.1566 194.866C11.4318 194.798 11.7194 194.797 11.995 194.864L13.27 195.164C13.372 195.189 13.4784 195.188 13.5801 195.162C13.6818 195.137 13.7758 195.087 13.854 195.017C13.933 194.948 13.9943 194.861 14.0328 194.763C14.0712 194.666 14.0857 194.56 14.075 194.456C14.0439 194.151 14.0919 193.842 14.2145 193.561C14.337 193.28 14.5299 193.034 14.7746 192.849C15.0194 192.664 15.3076 192.545 15.6117 192.503C15.9159 192.462 16.2255 192.499 16.511 192.612L17.973 193.173L17.565 194.233L16.103 193.672C15.9982 193.632 15.8847 193.619 15.7735 193.635C15.6622 193.651 15.557 193.695 15.4677 193.763C15.3784 193.831 15.3081 193.921 15.2635 194.024C15.2189 194.127 15.2015 194.24 15.213 194.352C15.2421 194.635 15.2027 194.92 15.0983 195.185C14.9939 195.449 14.8274 195.684 14.613 195.871C14.4006 196.061 14.1453 196.197 13.8688 196.267C13.5924 196.336 13.3031 196.338 13.026 196.271L11.751 195.971C11.6493 195.948 11.5437 195.949 11.4424 195.974C11.3411 195.998 11.2469 196.046 11.167 196.113C11.0881 196.181 11.0268 196.267 10.9884 196.363C10.9499 196.46 10.9353 196.565 10.946 196.668L11.046 197.756C11.0723 198.04 11.0299 198.327 10.9223 198.591C10.8148 198.855 10.6452 199.09 10.428 199.275C10.2107 199.461 9.95216 199.592 9.67392 199.658C9.39567 199.724 9.10569 199.723 8.82798 199.655L6.87798 199.173C6.78794 199.151 6.69434 199.149 6.60325 199.166C6.51216 199.182 6.42559 199.218 6.34916 199.27C6.27272 199.323 6.20811 199.39 6.15951 199.469C6.1109 199.548 6.07938 199.636 6.06698 199.728L5.96698 200.522C5.93365 200.767 5.85001 201.003 5.7213 201.215C5.59259 201.427 5.42159 201.609 5.21898 201.752C4.92067 201.967 4.56155 202.081 4.19398 202.077Z" fill="black"/>
<path d="M374.22 17.2439H374.175C373.896 17.237 373.625 17.15 373.395 16.9932C373.164 16.8365 372.984 16.6166 372.875 16.3599L371.955 14.2279C371.93 14.1678 371.887 14.1167 371.833 14.081C371.778 14.0454 371.714 14.0269 371.649 14.0279H371.641C371.574 14.0268 371.509 14.0464 371.454 14.084C371.399 14.1217 371.358 14.1755 371.335 14.2379L370.309 16.7959L369.255 16.3759L370.281 13.8149C370.388 13.5453 370.573 13.3135 370.812 13.149C371.051 12.9846 371.334 12.8947 371.624 12.8909H371.641C371.928 12.8899 372.208 12.9731 372.448 13.1302C372.688 13.2874 372.876 13.5116 372.99 13.7749L373.908 15.9059C373.934 15.9645 373.975 16.0144 374.029 16.0499C374.082 16.0853 374.144 16.1048 374.208 16.1059C374.271 16.1092 374.334 16.0935 374.389 16.0609C374.444 16.0284 374.488 15.9803 374.515 15.9229L375.178 14.5969C375.285 14.3798 375.446 14.1929 375.644 14.0532C375.842 13.9136 376.071 13.8255 376.312 13.7969C376.552 13.7647 376.796 13.7937 377.022 13.8811C377.248 13.9685 377.448 14.1115 377.604 14.2969L378.698 15.5769C378.737 15.6227 378.787 15.6569 378.844 15.676C378.901 15.695 378.962 15.6981 379.021 15.6849C379.08 15.6736 379.135 15.6458 379.179 15.6048C379.223 15.5637 379.254 15.5111 379.27 15.4529L379.933 13.2369C380.004 12.9964 380.136 12.7782 380.316 12.6032C380.495 12.4281 380.717 12.302 380.959 12.2369C381.2 12.1697 381.454 12.1663 381.696 12.2269C381.939 12.2876 382.161 12.4103 382.342 12.5829L384.485 14.5909C384.527 14.633 384.581 14.6622 384.639 14.6753C384.697 14.6884 384.758 14.6848 384.814 14.6649C384.87 14.6486 384.921 14.6173 384.961 14.5744C385.001 14.5314 385.029 14.4783 385.041 14.4209L385.455 12.6069C385.511 12.361 385.629 12.1336 385.799 11.9469C385.969 11.7602 386.184 11.6204 386.423 11.5412C386.663 11.4619 386.918 11.4459 387.166 11.4945C387.413 11.5432 387.644 11.6549 387.836 11.8189L389.372 13.1279C389.417 13.166 389.472 13.1915 389.53 13.2018C389.589 13.2121 389.649 13.2069 389.705 13.1866C389.76 13.1663 389.81 13.1318 389.848 13.0864C389.886 13.041 389.912 12.9863 389.922 12.9279L390.211 11.1279C390.253 10.866 390.366 10.6206 390.537 10.4177C390.708 10.2148 390.931 10.0621 391.181 9.97601C391.432 9.88987 391.702 9.87348 391.961 9.9286C392.221 9.98371 392.461 10.1083 392.655 10.2889C392.702 10.3341 392.762 10.364 392.827 10.3751C392.892 10.3861 392.958 10.3777 393.018 10.3509C393.078 10.3263 393.13 10.2839 393.166 10.2292C393.201 10.1745 393.22 10.1102 393.218 10.0449V8.75293H394.355V10.0449C394.355 10.3304 394.271 10.6095 394.115 10.8483C393.958 11.087 393.735 11.275 393.474 11.3893C393.212 11.5035 392.923 11.5391 392.642 11.4916C392.36 11.4441 392.099 11.3157 391.889 11.1219C391.846 11.0791 391.792 11.0498 391.732 11.0376C391.673 11.0253 391.611 11.0306 391.555 11.0529C391.497 11.0714 391.446 11.1056 391.407 11.1518C391.368 11.1979 391.343 11.2541 391.334 11.3139L391.045 13.1139C391.004 13.3707 390.894 13.6117 390.729 13.8119C390.563 14.0122 390.346 14.1645 390.102 14.2529C389.858 14.3457 389.594 14.3704 389.337 14.3245C389.081 14.2785 388.841 14.1635 388.645 13.9919L387.109 12.6869C387.065 12.6498 387.012 12.6246 386.956 12.6138C386.899 12.6029 386.841 12.6068 386.786 12.6249C386.732 12.6431 386.683 12.675 386.644 12.7175C386.605 12.7601 386.578 12.8119 386.565 12.8679L386.146 14.6819C386.088 14.9338 385.965 15.166 385.789 15.3551C385.613 15.5442 385.39 15.6834 385.142 15.7588C384.895 15.8342 384.633 15.843 384.381 15.7844C384.129 15.7257 383.897 15.6018 383.709 15.4249L381.566 13.4179C381.524 13.3797 381.473 13.3524 381.417 13.3387C381.362 13.3249 381.304 13.325 381.249 13.3389C381.194 13.3535 381.144 13.382 381.103 13.4218C381.062 13.4616 381.033 13.5113 381.017 13.5659L380.355 15.7809C380.28 16.0334 380.138 16.261 379.944 16.4396C379.751 16.6183 379.513 16.7414 379.255 16.7959C378.997 16.8505 378.73 16.8345 378.48 16.7497C378.231 16.6649 378.009 16.5143 377.838 16.3139L376.742 15.0389C376.706 14.9967 376.661 14.9642 376.609 14.9444C376.557 14.9247 376.502 14.9183 376.447 14.9259C376.392 14.9328 376.34 14.9529 376.294 14.9844C376.249 15.0159 376.212 15.058 376.186 15.1069L375.524 16.4329C375.405 16.6774 375.22 16.8834 374.989 17.0269C374.758 17.1704 374.492 17.2457 374.22 17.2439Z" fill="black"/>
<path d="M372.561 8.62618L371.989 9.60596L377.4 12.7625L377.972 11.7827L372.561 8.62618Z" fill="black"/>
<path d="M377.655 6.54163L377.104 7.53296L384.135 11.4385L384.686 10.4472L377.655 6.54163Z" fill="black"/>
<path d="M384.083 5.84434L383.597 6.8689L389.384 9.61411L389.87 8.58954L384.083 5.84434Z" fill="black"/>
<path d="M325.571 447.816L324.528 447.378L326.262 443.297C326.468 442.813 326.779 442.381 327.174 442.033C327.568 441.685 328.036 441.43 328.542 441.286C329.048 441.142 329.58 441.113 330.098 441.202C330.617 441.29 331.109 441.494 331.539 441.797L333.339 443.067C333.646 443.283 333.999 443.424 334.37 443.478C334.742 443.532 335.12 443.498 335.476 443.379C335.832 443.26 336.155 443.059 336.419 442.792C336.682 442.525 336.88 442.2 336.995 441.843L337.307 440.874C337.481 440.33 337.784 439.837 338.19 439.437C338.597 439.036 339.095 438.741 339.641 438.576C340.187 438.41 340.765 438.38 341.325 438.487C341.886 438.595 342.412 438.837 342.858 439.193L344.689 440.65C344.993 440.892 345.352 441.056 345.735 441.128C346.117 441.2 346.511 441.178 346.883 441.064C347.254 440.949 347.593 440.746 347.868 440.471C348.144 440.197 348.348 439.859 348.464 439.488L348.934 437.975C349.103 437.435 349.399 436.944 349.797 436.542C350.196 436.141 350.685 435.841 351.224 435.669C351.763 435.496 352.335 435.456 352.893 435.551C353.45 435.646 353.977 435.874 354.428 436.216L356.528 437.809C356.836 438.044 357.197 438.2 357.579 438.264C357.961 438.328 358.354 438.299 358.722 438.178C359.09 438.056 359.423 437.848 359.693 437.569C359.962 437.291 360.16 436.951 360.269 436.579L361.057 433.898C361.225 433.324 361.537 432.802 361.962 432.382C362.388 431.962 362.913 431.656 363.489 431.495C364.065 431.333 364.672 431.321 365.254 431.459C365.836 431.597 366.374 431.88 366.816 432.283L368.512 433.816C368.818 434.099 369.193 434.296 369.6 434.388C370.007 434.479 370.43 434.461 370.828 434.336C371.225 434.215 371.583 433.993 371.868 433.692C372.153 433.39 372.354 433.019 372.451 432.616C372.596 432.015 372.897 431.462 373.324 431.014C373.75 430.566 374.287 430.238 374.88 430.064C375.474 429.889 376.102 429.873 376.704 430.018C377.305 430.163 377.858 430.464 378.306 430.89L380.936 433.39L380.154 434.212L377.528 431.716C377.224 431.427 376.848 431.223 376.44 431.124C376.032 431.026 375.605 431.037 375.203 431.156C374.8 431.275 374.436 431.497 374.147 431.802C373.857 432.106 373.653 432.481 373.555 432.889C373.411 433.484 373.115 434.031 372.695 434.477C372.275 434.923 371.746 435.251 371.161 435.43C370.575 435.609 369.953 435.633 369.356 435.498C368.759 435.364 368.207 435.076 367.755 434.663L366.063 433.123C365.763 432.851 365.399 432.659 365.004 432.566C364.61 432.472 364.198 432.481 363.808 432.59C363.418 432.699 363.062 432.906 362.773 433.19C362.485 433.474 362.273 433.827 362.158 434.216L361.37 436.897C361.209 437.445 360.917 437.946 360.52 438.356C360.123 438.767 359.632 439.075 359.09 439.254C358.547 439.433 357.969 439.477 357.406 439.384C356.843 439.29 356.31 439.061 355.855 438.716L353.752 437.116C353.446 436.882 353.089 436.726 352.709 436.661C352.33 436.596 351.941 436.624 351.575 436.742C351.208 436.856 350.874 437.058 350.603 437.33C350.332 437.603 350.133 437.938 350.022 438.306L349.552 439.819C349.382 440.366 349.081 440.864 348.676 441.269C348.27 441.674 347.771 441.974 347.224 442.142C346.676 442.311 346.095 442.344 345.532 442.237C344.969 442.13 344.44 441.888 343.992 441.531L342.161 440.074C341.858 439.833 341.501 439.669 341.12 439.596C340.74 439.523 340.347 439.544 339.977 439.656C339.606 439.768 339.268 439.969 338.992 440.241C338.716 440.512 338.51 440.847 338.392 441.216L338.08 442.185C337.911 442.712 337.62 443.191 337.231 443.585C336.842 443.979 336.366 444.275 335.841 444.45C335.316 444.626 334.757 444.675 334.21 444.594C333.662 444.513 333.142 444.304 332.69 443.985L330.888 442.716C330.596 442.51 330.262 442.372 329.91 442.313C329.558 442.253 329.197 442.273 328.853 442.37C328.51 442.468 328.193 442.642 327.925 442.878C327.657 443.114 327.446 443.407 327.306 443.736L325.571 447.816Z" fill="black"/>
<path d="M288.53 419.736H287.397V414.3C287.397 413.937 287.302 413.581 287.122 413.265C286.942 412.95 286.683 412.687 286.371 412.503C286.059 412.318 285.704 412.218 285.341 412.212C284.978 412.206 284.62 412.294 284.302 412.469L281.902 413.79C281.412 414.059 280.859 414.196 280.3 414.187C279.741 414.178 279.193 414.023 278.712 413.738C278.23 413.454 277.831 413.048 277.554 412.562C277.276 412.076 277.13 411.526 277.13 410.967V409.097C277.132 408.752 277.048 408.413 276.886 408.109C276.723 407.805 276.488 407.547 276.2 407.357C275.916 407.163 275.587 407.043 275.244 407.011C274.901 406.978 274.555 407.033 274.239 407.17L271.164 408.456C270.674 408.661 270.142 408.741 269.614 408.691C269.086 408.64 268.578 408.46 268.136 408.166C267.694 407.872 267.332 407.474 267.081 407.006C266.83 406.539 266.699 406.017 266.698 405.486V404.868C266.698 404.525 266.614 404.188 266.452 403.885C266.291 403.583 266.058 403.325 265.773 403.134C265.489 402.943 265.161 402.825 264.82 402.791C264.479 402.756 264.135 402.806 263.818 402.936L260.871 404.143C260.382 404.343 259.851 404.42 259.325 404.367C258.799 404.313 258.294 404.131 257.855 403.837C257.415 403.542 257.056 403.144 256.807 402.678C256.558 402.211 256.427 401.691 256.427 401.162C256.427 400.818 256.341 400.479 256.178 400.175C256.015 399.872 255.779 399.614 255.492 399.424C255.205 399.234 254.875 399.118 254.533 399.086C254.19 399.054 253.844 399.107 253.527 399.241L251.235 400.206C250.801 400.389 250.332 400.475 249.861 400.458C249.389 400.441 248.928 400.32 248.508 400.105C248.089 399.89 247.722 399.586 247.433 399.213C247.143 398.841 246.939 398.41 246.835 397.95L246.545 396.661C246.477 396.361 246.344 396.079 246.154 395.837C245.964 395.594 245.723 395.397 245.448 395.258C245.173 395.12 244.871 395.045 244.563 395.037C244.255 395.03 243.949 395.091 243.668 395.216L239.598 397.006L239.145 395.964L243.215 394.178C243.65 393.987 244.122 393.895 244.597 393.908C245.073 393.92 245.539 394.038 245.963 394.252C246.388 394.466 246.76 394.771 247.053 395.145C247.346 395.519 247.552 395.954 247.658 396.417L247.953 397.706C248.019 398.005 248.151 398.285 248.338 398.527C248.525 398.769 248.764 398.967 249.036 399.106C249.308 399.245 249.607 399.324 249.913 399.335C250.218 399.347 250.522 399.292 250.804 399.174L253.094 398.205C253.584 397.998 254.118 397.915 254.648 397.964C255.178 398.013 255.687 398.193 256.131 398.487C256.574 398.781 256.938 399.181 257.19 399.65C257.441 400.119 257.572 400.643 257.572 401.175C257.572 401.517 257.657 401.855 257.818 402.157C257.979 402.459 258.212 402.717 258.497 402.908C258.781 403.098 259.108 403.216 259.449 403.251C259.79 403.286 260.134 403.236 260.451 403.106L263.398 401.899C263.887 401.698 264.419 401.621 264.945 401.674C265.472 401.727 265.977 401.909 266.417 402.203C266.856 402.498 267.216 402.896 267.465 403.363C267.715 403.83 267.845 404.351 267.845 404.88V405.498C267.843 405.842 267.927 406.182 268.09 406.486C268.252 406.79 268.488 407.048 268.775 407.238C269.059 407.432 269.388 407.552 269.731 407.584C270.074 407.617 270.42 407.562 270.736 407.425L273.814 406.138C274.303 405.933 274.836 405.852 275.364 405.902C275.892 405.953 276.399 406.133 276.841 406.427C277.282 406.721 277.644 407.12 277.895 407.587C278.145 408.055 278.276 408.577 278.275 409.108V410.978C278.276 411.34 278.371 411.696 278.551 412.01C278.731 412.324 278.99 412.586 279.301 412.77C279.613 412.955 279.967 413.055 280.329 413.061C280.691 413.067 281.048 412.979 281.366 412.806L283.766 411.485C284.257 411.216 284.809 411.079 285.368 411.088C285.928 411.097 286.475 411.252 286.957 411.537C287.438 411.821 287.837 412.227 288.114 412.713C288.392 413.199 288.538 413.748 288.538 414.308V419.736H288.53Z" fill="black"/>
<path d="M415.988 245.965C410.751 254.465 396.807 258.922 390.017 249.785C382.473 239.629 387.852 218.028 403.552 217.121C407.175 216.921 410.739 218.1 413.528 220.421C420.692 226.354 421.86 236.432 415.988 245.965Z" fill="black"/>
<path d="M398.082 234.709C396.155 240.666 393.944 247.252 391.173 243.874C389.45 241.771 388.401 236.715 389.631 231.909C390.67 228.184 392.909 224.906 396.002 222.585C396.532 222.12 397.184 221.816 397.88 221.708C398.577 221.599 399.29 221.691 399.936 221.972C402.815 223.497 400.242 228.026 398.082 234.709Z" fill="#4285F4"/>
<path d="M289.233 69.2499C286.325 72.3619 283.055 75.7679 281.712 72.2199C281.288 70.7345 281.216 69.1706 281.504 67.6528C281.791 66.135 282.429 64.7054 283.367 63.4779C284.256 62.4532 285.351 61.6273 286.581 61.0539C287.811 60.4805 289.147 60.1725 290.504 60.1499C291.11 60.1196 291.714 60.2309 292.27 60.475C292.825 60.719 293.316 61.0891 293.704 61.5559C295.559 63.9079 292.493 65.7619 289.233 69.2499Z" fill="#4285F4"/>
<path d="M99.2589 240.127C99.2989 238.088 99.3779 235.836 100.94 236.664C101.909 237.18 103.774 241.264 101.64 243.764C101.452 243.98 101.21 244.142 100.94 244.234C100.669 244.326 100.378 244.345 100.098 244.288C98.7319 244.049 99.2139 242.405 99.2589 240.127Z" fill="#4285F4"/>
<path d="M140.039 293.004C140.283 292.477 139.846 291.961 138.758 291.559C136.587 290.759 132.364 290.187 124.174 290.759C116.625 291.276 112.833 292.868 110.934 294.234C109.92 294.966 110.002 295.515 110.928 295.926C122.344 297.868 134.06 296.349 140.039 293.004Z" fill="black"/>
<path d="M338.455 244.463C337.508 240.241 334.906 227.266 334.878 227.136L335.989 226.915C336.017 227.045 338.613 240.002 339.56 244.215L338.455 244.463Z" fill="black"/>
<path d="M349.943 245.84C348.684 243.942 347.738 241.854 347.143 239.656C346.928 238.874 346.729 238.114 346.543 237.383C345.585 233.716 344.831 230.814 343 229.142L343.765 228.303C345.845 230.203 346.639 233.246 347.642 237.094C347.829 237.82 348.027 238.573 348.242 239.35C348.803 241.427 349.695 243.4 350.883 245.194L349.943 245.84Z" fill="black"/>
<path d="M355.322 246.101L354.189 246.067C354.217 245.177 354.132 244.015 354.047 242.785C353.96 241.518 353.86 240.093 353.86 238.71C353.804 236.402 354.38 234.122 355.526 232.118L356.478 232.736C355.449 234.555 354.936 236.621 354.994 238.71C354.994 240.048 355.085 241.402 355.175 242.71C355.266 243.964 355.351 245.154 355.322 246.101Z" fill="black"/>
<path d="M392.046 291.184C391.435 291.185 390.831 291.054 390.275 290.8C389.719 290.545 389.225 290.174 388.827 289.71L379.389 278.681L380.251 277.944L389.689 288.974C390.219 289.591 390.97 289.976 391.781 290.045C392.591 290.115 393.397 289.865 394.025 289.348L422.138 263.748C423.697 262.415 425.435 261.308 427.301 260.458L427.771 261.49C426.007 262.292 424.363 263.338 422.889 264.596L394.766 290.204C394.001 290.838 393.039 291.184 392.046 291.184Z" fill="black"/>
<path d="M393.916 340.49C389.07 340.49 383.963 338.399 379.553 332.81L368.693 320.788L369.532 320.028L380.42 332.074C388.393 342.174 398.734 340.174 405.167 335.406C410.313 331.591 417.478 325.493 426.461 317.274L427.226 318.113C418.214 326.354 411.016 332.481 405.841 336.319C402.406 338.933 398.231 340.393 393.916 340.49Z" fill="black"/>
<path d="M323.344 247.84C322.691 246.687 322.126 245.486 321.655 244.248L322.715 243.84C323.162 245.027 323.702 246.178 324.33 247.28L323.344 247.84Z" fill="black"/>
<path d="M330.021 245.858C328.376 242.743 327.08 239.457 326.155 236.058L327.249 235.763C328.147 239.078 329.411 242.283 331.018 245.319L330.021 245.858Z" fill="black"/>
<path d="M408.256 262.499C403.76 262.501 399.346 261.287 395.482 258.988C391.618 256.688 388.447 253.387 386.304 249.434L387.304 248.89C389.35 252.663 392.377 255.814 396.064 258.009C399.752 260.205 403.964 261.364 408.256 261.365V262.499Z" fill="black"/>
<path d="M254.596 91.925C253.408 91.8086 252.292 91.3071 251.416 90.497C250.124 89.465 248.123 87.852 246.485 86.535L247.199 85.652C248.837 86.971 250.832 88.581 252.125 89.613C253.332 90.582 254.506 91.013 255.044 90.684C255.531 90.389 255.644 89.384 255.367 87.924C255.002 86.5415 255.094 85.0782 255.628 83.752L256.643 84.252C256.217 85.3547 256.159 86.5658 256.479 87.704C256.869 89.752 256.585 91.075 255.628 91.652C255.315 91.836 254.958 91.9304 254.596 91.925Z" fill="black"/>
<path d="M296.075 98.115L295.264 97.322L310.443 81.783C313 79.1566 316.473 77.62 320.136 77.4944C323.799 77.3688 327.369 78.6639 330.1 81.109L329.346 81.954C326.835 79.7044 323.551 78.5122 320.182 78.6266C316.812 78.741 313.617 80.1532 311.264 82.568L296.075 98.115Z" fill="black"/>
<path d="M329.895 100.958L314.494 116.433L315.298 117.233L330.699 101.758L329.895 100.958Z" fill="black"/>
<path d="M86.1539 247.954L82.6959 242.836C82.0856 242.037 81.3228 241.368 80.4518 240.866C79.5808 240.364 78.6189 240.039 77.6218 239.912C76.6247 239.784 75.6122 239.856 74.6429 240.122C73.6735 240.389 72.7667 240.845 71.9749 241.464L71.2749 240.575C72.1867 239.86 73.2318 239.334 74.3491 239.027C75.4664 238.72 76.6337 238.639 77.7827 238.788C78.9318 238.937 80.0397 239.313 81.0419 239.894C82.0441 240.476 82.9204 241.251 83.6199 242.175L87.0939 247.316L86.1539 247.954Z" fill="black"/>
<path d="M105.08 275.383L104.408 288.584L105.541 288.642L106.212 275.441L105.08 275.383Z" fill="black"/>
<path d="M139.195 259.199L138.095 259.476L143.627 281.469L144.727 281.192L139.195 259.199Z" fill="black"/>
<path d="M245.428 69.0171C243.447 68.2961 241.814 67.289 240.528 65.9957C239.252 64.7057 238.393 63.2558 237.953 61.6459C237.512 60.0359 237.575 58.3973 238.139 56.7299L244.026 58.8723C243.686 60.008 243.825 61.0797 244.443 62.0874C245.06 63.0951 245.966 63.8166 247.162 64.2519C248.115 64.5988 249.033 64.6946 249.915 64.5394C250.809 64.3783 251.6 63.9941 252.286 63.3869C252.986 62.7738 253.516 61.972 253.876 60.9816C254.243 59.9725 254.352 59.0066 254.201 58.084C254.059 57.1648 253.693 56.3543 253.102 55.6524C252.511 54.9506 251.736 54.4198 250.777 54.0602C249.936 53.7541 249.055 53.6294 248.135 53.6861C247.225 53.7461 246.441 53.9952 245.784 54.4333L240.74 51.5023L247.609 36.8606L265.156 43.2473L263.35 48.2087L250.806 43.6432L247.447 50.5627L247.615 50.6239C248.378 50.0974 249.354 49.7859 250.542 49.6894C251.731 49.5929 252.956 49.7742 254.217 50.2333C255.946 50.8625 257.339 51.8301 258.398 53.1361C259.457 54.4421 260.121 55.948 260.389 57.6539C260.66 59.3504 260.456 61.1173 259.777 62.9546C259.082 64.8921 258.008 66.4481 256.554 67.6225C255.113 68.791 253.428 69.5109 251.498 69.7822C249.582 70.0475 247.558 69.7925 245.428 69.0171Z" fill="#4285F4"/>
<path d="M251.409 260.808C247.067 256.867 244.283 252.419 243.058 247.462C241.849 242.521 242.218 237.271 244.163 231.714C246.126 226.172 249.671 220.571 254.797 214.911C259.892 209.253 265.069 205.184 270.331 202.703C275.608 200.238 280.745 199.373 285.74 200.109C290.767 200.844 295.451 203.165 299.792 207.073C304.133 210.982 306.922 215.39 308.161 220.297C309.417 225.22 309.095 230.435 307.195 235.942C305.31 241.432 301.812 246.998 296.7 252.641C291.575 258.333 286.351 262.437 281.028 264.952C275.721 267.483 270.547 268.406 265.507 267.721C260.466 267.036 255.767 264.731 251.409 260.808ZM259.598 251.713C262.571 254.389 266.29 255.031 270.755 253.638C275.22 252.246 280.136 248.552 285.503 242.558C289.046 238.623 291.591 234.981 293.137 231.634C294.701 228.301 295.341 225.314 295.058 222.674C294.791 220.049 293.67 217.846 291.694 216.067C288.738 213.406 285.043 212.755 280.608 214.113C276.174 215.472 271.294 219.091 265.97 224.971C262.381 228.957 259.782 232.641 258.173 236.025C256.596 239.406 255.941 242.426 256.209 245.083C256.493 247.724 257.622 249.933 259.598 251.713Z" fill="#4285F4"/>
<path d="M146.374 136.878C143.723 138.395 141.072 139.058 138.419 138.867C135.777 138.671 133.236 137.643 130.796 135.785C128.367 133.921 126.163 131.264 124.185 127.813C122.202 124.379 121.02 121.159 120.638 118.154C120.266 115.143 120.664 112.459 121.833 110.104C123.006 107.732 124.909 105.785 127.544 104.264C130.179 102.743 132.811 102.07 135.441 102.247C138.082 102.417 140.613 103.416 143.035 105.243C145.451 107.061 147.645 109.689 149.618 113.129C151.612 116.584 152.804 119.832 153.194 122.874C153.594 125.91 153.218 128.621 152.067 131.008C150.917 133.395 149.019 135.351 146.374 136.878ZM143.187 131.358C144.991 130.316 145.907 128.578 145.936 126.142C145.965 123.706 144.927 120.676 142.821 117.053C141.442 114.665 140.048 112.818 138.639 111.513C137.239 110.202 135.863 109.405 134.51 109.12C133.166 108.829 131.895 109.03 130.696 109.723C128.902 110.759 127.984 112.484 127.944 114.9C127.903 117.315 128.91 120.314 130.966 123.898C132.363 126.317 133.769 128.198 135.186 129.539C136.608 130.865 137.998 131.675 139.357 131.97C140.711 132.254 141.987 132.051 143.187 131.358Z" fill="#4285F4"/>
</g>
<defs>
<clipPath id="clip0_474_2">
<rect width="456.516" height="454.517" fill="white"/>
</clipPath>
</defs>
</svg>
