<svg xmlns="http://www.w3.org/2000/svg" width="45" height="45" viewBox="0 0 45 45">
  <g id="Group_604" data-name="Group 604" transform="translate(242)">
    <circle id="Ellipse_13" data-name="Ellipse 13" cx="22.5" cy="22.5" r="22.5" transform="translate(-242)" fill="#fff"/>
    <g id="eth" transform="translate(-242)">
      <path id="Path_146" data-name="Path 146" d="M22.5,45A22.5,22.5,0,1,1,45,22.5,22.5,22.5,0,0,1,22.5,45ZM33.742,22.808,23.2,5.625,12.656,22.809,23.2,28.931l10.541-6.123Zm.008,1.965L23.2,30.891,12.656,24.774,23.2,39.368Z" fill="#4285f4" fill-rule="evenodd"/>
      <g id="Group_563" data-name="Group 563" transform="translate(12.656 5.625)">
        <path id="Path_147" data-name="Path 147" d="M16.5,4V16.473l10.543,4.711Zm0,25.267v8.475l10.55-14.6Z" transform="translate(-5.954 -4)" fill="rgba(66,133,244,0.3)"/>
        <path id="Path_148" data-name="Path 148" d="M16.5,23.7,27.041,17.58,16.5,12.872Z" transform="translate(-5.954 -0.396)" fill="rgba(66,133,244,0.8)"/>
        <path id="Path_149" data-name="Path 149" d="M9,17.58,19.544,23.7V12.872Z" transform="translate(-9 -0.396)" fill="rgba(66,133,244,0.5)"/>
      </g>
    </g>
  </g>
</svg>
