<svg xmlns="http://www.w3.org/2000/svg" width="45" height="45" viewBox="0 0 45 45">
  <path id="usdt" d="M22.5,45A22.5,22.5,0,1,1,45,22.5,22.5,22.5,0,0,1,22.5,45Zm2.7-25.6V16.069h7.613V11H12.087v5.074H19.7V19.4c-6.187.284-10.841,1.51-10.841,2.978s4.653,2.693,10.841,2.978V36.014h5.5V25.349c6.178-.284,10.82-1.509,10.82-2.976S31.38,19.682,25.2,19.4Zm0,5.048v0c-.155.011-.952.059-2.731.059-1.42,0-2.42-.042-2.772-.059v0c-5.468-.24-9.548-1.192-9.548-2.332s4.081-2.09,9.548-2.334V23.5c.357.025,1.381.086,2.8.086,1.7,0,2.548-.07,2.707-.084V19.783c5.456.243,9.527,1.2,9.527,2.332S30.659,24.2,25.2,24.445Z" fill="#4285f4" fill-rule="evenodd"/>
</svg>
