<svg width="38" height="55" viewBox="0 0 38 55" fill="none" xmlns="http://www.w3.org/2000/svg">
<path d="M21.8018 20.0878C21.8934 20.4989 22.0389 20.896 22.2348 21.2688C23.6018 23.9148 30.2278 37.3688 25.9978 41.6458C21.5978 46.0948 4.42979 51.0388 5.64979 53.0808C6.86979 55.1228 28.9148 55.5028 36.6358 45.4408C41.4148 39.2148 20.1998 12.5998 21.8018 20.0878Z" fill="url(#paint0_linear_439_18)"/>
<path d="M28.4883 1.60783C28.1365 1.84733 27.7549 2.04003 27.3533 2.18083C24.5203 3.19683 10.3533 8.58083 10.4833 14.5498C10.6143 20.7548 19.7443 35.9068 17.4363 36.5798C15.1283 37.2528 -1.25064 22.7218 0.0763526 10.1798C0.896352 2.41683 34.8483 -2.79017 28.4883 1.60783Z" fill="url(#paint1_linear_439_18)"/>
<defs>
<linearGradient id="paint0_linear_439_18" x1="21.4633" y1="18.771" x2="21.4633" y2="54.2439" gradientUnits="userSpaceOnUse">
<stop stop-color="#00C4FF"/>
<stop offset="1" stop-color="#0062FF"/>
</linearGradient>
<linearGradient id="paint1_linear_439_18" x1="14.6407" y1="2.75776e-05" x2="14.6407" y2="36.6023" gradientUnits="userSpaceOnUse">
<stop stop-color="#00C4FF"/>
<stop offset="1" stop-color="#0062FF"/>
</linearGradient>
</defs>
</svg>
