<svg width="1640" height="371" viewBox="0 0 1640 371" fill="none" xmlns="http://www.w3.org/2000/svg">
<g clip-path="url(#clip0_474_182)">
<mask id="mask0_474_182" style="mask-type:luminance" maskUnits="userSpaceOnUse" x="0" y="0" width="1640" height="371">
<path d="M1620 0H20C8.9543 0 0 8.9543 0 20V351C0 362.046 8.9543 371 20 371H1620C1631.05 371 1640 362.046 1640 351V20C1640 8.9543 1631.05 0 1620 0Z" fill="white"/>
</mask>
<g mask="url(#mask0_474_182)">
<mask id="mask1_474_182" style="mask-type:luminance" maskUnits="userSpaceOnUse" x="-76" y="-534" width="2223" height="1332">
<path d="M-75.312 -41.8611L2146.68 -533.537L2146.94 260.241L-75.312 797.589V-41.8611Z" fill="white"/>
</mask>
<g mask="url(#mask1_474_182)">
<path d="M665.351 324.813V-207.228H850.603V324.813H665.351ZM665.351 -207.228V-384.575H850.603V-207.228H665.351Z" fill="#22469A"/>
<path fill-rule="evenodd" clip-rule="evenodd" d="M1035.85 -29.8812H1406.35V324.814H1035.85V-29.8812Z" fill="#3166CB"/>
<path fill-rule="evenodd" clip-rule="evenodd" d="M850.603 -384.575H1221.11L1406.36 -207.228L1221.11 -29.8812L1035.85 147.467V-29.8812H850.603V-384.575Z" fill="#14296E"/>
<path d="M665.351 618.703V324.746H665.423L850.601 147.469V-207.231L1035.85 -29.8802V324.814H850.601V618.703H665.351Z" fill="#3165C9"/>
<path fill-rule="evenodd" clip-rule="evenodd" d="M1406.36 309.868H1236.72L1221.11 324.814H1406.36V309.868Z" fill="#22469A"/>
<path fill-rule="evenodd" clip-rule="evenodd" d="M1406.36 281.623H1266.22L1250.61 296.569H1406.36V281.623Z" fill="#22469A"/>
<path fill-rule="evenodd" clip-rule="evenodd" d="M1406.36 253.378H1295.72L1280.11 268.326H1406.36V253.378Z" fill="#22469A"/>
<path fill-rule="evenodd" clip-rule="evenodd" d="M1406.36 225.135H1325.23L1309.62 240.08H1406.36V225.135Z" fill="#22469A"/>
<path fill-rule="evenodd" clip-rule="evenodd" d="M1406.36 196.89H1354.73L1339.12 211.835H1406.36V196.89H1406.36Z" fill="#22469A"/>
<path fill-rule="evenodd" clip-rule="evenodd" d="M1406.36 168.645H1384.23L1368.62 183.591H1406.36V168.645Z" fill="#22469A"/>
<path fill-rule="evenodd" clip-rule="evenodd" d="M1398.13 155.346H1406.36V147.467L1398.13 155.346Z" fill="#22469A"/>
<path fill-rule="evenodd" clip-rule="evenodd" d="M1035.85 309.868H866.209L850.603 324.814H1035.85V309.868Z" fill="#4582E8"/>
<path fill-rule="evenodd" clip-rule="evenodd" d="M1035.85 281.623H895.719L880.106 296.569H1035.85V281.623Z" fill="#4582E8"/>
<path fill-rule="evenodd" clip-rule="evenodd" d="M1035.85 253.378H925.222L909.609 268.326H1035.85V253.378Z" fill="#4582E8"/>
<path fill-rule="evenodd" clip-rule="evenodd" d="M1035.86 225.135H954.721L939.113 240.08H1035.86V225.135Z" fill="#4582E8"/>
<path fill-rule="evenodd" clip-rule="evenodd" d="M1035.85 196.89H984.228L968.617 211.835H1035.85V196.89Z" fill="#4582E8"/>
<path fill-rule="evenodd" clip-rule="evenodd" d="M1035.86 168.645H1013.73L998.121 183.591H1035.86V168.645Z" fill="#4582E8"/>
<path fill-rule="evenodd" clip-rule="evenodd" d="M1027.62 155.346H1035.85V147.467L1027.62 155.346Z" fill="#4582E8"/>
<path fill-rule="evenodd" clip-rule="evenodd" d="M904.172 8.31377C903.599 8.33846 903.045 8.53116 902.58 8.86793C902.115 9.2047 901.759 9.67068 901.556 10.208C901.354 10.7453 901.314 11.3303 901.441 11.8902C901.568 12.4501 901.857 12.9603 902.272 13.3574C902.687 13.7545 903.209 14.021 903.774 14.1238C904.339 14.2265 904.921 14.161 905.449 13.9354C905.977 13.7098 906.428 13.3341 906.744 12.8548C907.06 12.3756 907.228 11.814 907.228 11.2398C907.21 10.4467 906.879 9.69314 906.306 9.14453C905.733 8.59593 904.965 8.29714 904.172 8.31377ZM904.172 37.9478C903.599 37.9725 903.045 38.1652 902.58 38.5019C902.115 38.8387 901.759 39.3047 901.556 39.842C901.354 40.3793 901.314 40.9643 901.441 41.5242C901.568 42.0841 901.857 42.5943 902.272 42.9914C902.687 43.3885 903.209 43.655 903.774 43.7577C904.339 43.8605 904.921 43.795 905.449 43.5694C905.977 43.3438 906.428 42.9681 906.744 42.4888C907.06 42.0096 907.228 41.448 907.228 40.8738C907.21 40.0807 906.879 39.3271 906.306 38.7785C905.733 38.2299 904.965 37.9311 904.172 37.9478ZM878.178 37.9478C877.605 37.9725 877.051 38.1652 876.586 38.5019C876.121 38.8387 875.765 39.3047 875.562 39.842C875.36 40.3793 875.32 40.9643 875.447 41.5242C875.574 42.0841 875.863 42.5943 876.278 42.9914C876.693 43.3885 877.215 43.655 877.78 43.7577C878.345 43.8605 878.927 43.795 879.455 43.5694C879.983 43.3438 880.434 42.9681 880.75 42.4888C881.066 42.0096 881.234 41.448 881.234 40.8738C881.216 40.0807 880.885 39.3271 880.312 38.7785C879.739 38.2299 878.971 37.9311 878.178 37.9478ZM904.172 67.5818C903.599 67.6065 903.045 67.7992 902.58 68.1359C902.115 68.4727 901.759 68.9387 901.556 69.476C901.354 70.0133 901.314 70.5983 901.441 71.1582C901.568 71.7181 901.857 72.2283 902.272 72.6254C902.687 73.0225 903.209 73.289 903.774 73.3917C904.339 73.4945 904.921 73.429 905.449 73.2034C905.977 72.9778 906.428 72.6021 906.744 72.1228C907.06 71.6436 907.228 71.082 907.228 70.5078C907.21 69.7147 906.879 68.9611 906.306 68.4125C905.733 67.8639 904.965 67.5651 904.172 67.5818ZM878.178 67.5818C877.605 67.6065 877.051 67.7992 876.586 68.1359C876.121 68.4727 875.765 68.9387 875.562 69.476C875.36 70.0133 875.32 70.5983 875.447 71.1582C875.574 71.7181 875.863 72.2283 876.278 72.6254C876.693 73.0225 877.215 73.289 877.78 73.3917C878.345 73.4945 878.927 73.429 879.455 73.2034C879.983 72.9778 880.434 72.6021 880.75 72.1228C881.066 71.6436 881.234 71.082 881.234 70.5078C881.216 69.7151 880.885 68.9618 880.312 68.4132C879.74 67.8647 878.973 67.5657 878.18 67.5818H878.178ZM852.178 67.5818C851.605 67.6067 851.051 67.7995 850.586 68.1363C850.121 68.4732 849.766 68.9392 849.563 69.4764C849.361 70.0137 849.321 70.5985 849.448 71.1584C849.575 71.7182 849.864 72.2283 850.279 72.6253C850.694 73.0224 851.216 73.2889 851.781 73.3917C852.345 73.4945 852.928 73.4291 853.456 73.2036C853.984 72.9781 854.434 72.6025 854.75 72.1234C855.067 71.6443 855.235 71.0829 855.235 70.5088C855.218 69.7157 854.886 68.962 854.313 68.4132C853.74 67.8645 852.973 67.5654 852.18 67.5818H852.178ZM904.168 97.2158C903.595 97.2405 903.041 97.4332 902.576 97.7699C902.111 98.1067 901.755 98.5727 901.552 99.11C901.35 99.6473 901.31 100.232 901.437 100.792C901.564 101.352 901.853 101.862 902.268 102.259C902.683 102.657 903.205 102.923 903.77 103.026C904.335 103.129 904.917 103.063 905.445 102.837C905.973 102.612 906.424 102.236 906.74 101.757C907.056 101.278 907.224 100.716 907.224 100.142C907.206 99.3487 906.875 98.5951 906.302 98.0465C905.729 97.4979 904.961 97.1991 904.168 97.2158ZM878.174 97.2158C877.601 97.2405 877.047 97.4332 876.582 97.7699C876.117 98.1067 875.761 98.5727 875.558 99.11C875.356 99.6473 875.316 100.232 875.443 100.792C875.57 101.352 875.859 101.862 876.274 102.259C876.689 102.657 877.211 102.923 877.776 103.026C878.341 103.129 878.923 103.063 879.451 102.837C879.979 102.612 880.43 102.236 880.746 101.757C881.062 101.278 881.23 100.716 881.23 100.142C881.212 99.3487 880.881 98.5951 880.308 98.0465C879.735 97.4979 878.967 97.1991 878.174 97.2158ZM852.174 97.2158C851.601 97.2407 851.047 97.4335 850.582 97.7703C850.117 98.1072 849.762 98.5731 849.559 99.1104C849.357 99.6477 849.317 100.233 849.444 100.792C849.571 101.352 849.86 101.862 850.275 102.259C850.69 102.656 851.212 102.923 851.777 103.026C852.341 103.128 852.924 103.063 853.452 102.838C853.98 102.612 854.43 102.237 854.746 101.757C855.063 101.278 855.231 100.717 855.231 100.143C855.214 99.3494 854.882 98.5954 854.309 98.0465C853.735 97.4977 852.968 97.1989 852.174 97.2158ZM826.18 97.2158C825.607 97.2407 825.053 97.4335 824.588 97.7703C824.123 98.1072 823.768 98.5731 823.565 99.1104C823.363 99.6477 823.323 100.233 823.45 100.792C823.577 101.352 823.866 101.862 824.281 102.259C824.696 102.656 825.218 102.923 825.783 103.026C826.347 103.128 826.93 103.063 827.458 102.838C827.986 102.612 828.436 102.237 828.752 101.757C829.069 101.278 829.237 100.717 829.237 100.143C829.22 99.3494 828.888 98.5954 828.315 98.0465C827.741 97.4977 826.974 97.1989 826.18 97.2158ZM904.164 126.85C903.591 126.875 903.038 127.068 902.574 127.404C902.109 127.741 901.754 128.207 901.552 128.744C901.35 129.28 901.31 129.865 901.437 130.424C901.564 130.983 901.853 131.493 902.267 131.89C902.682 132.287 903.203 132.553 903.768 132.656C904.332 132.758 904.914 132.693 905.442 132.468C905.969 132.243 906.419 131.868 906.735 131.389C907.051 130.91 907.22 130.349 907.22 129.776C907.203 128.984 906.872 128.232 906.301 127.683C905.729 127.135 904.964 126.835 904.172 126.85H904.164ZM878.17 126.85C877.597 126.875 877.044 127.068 876.58 127.404C876.115 127.741 875.76 128.207 875.558 128.744C875.356 129.28 875.316 129.865 875.443 130.424C875.57 130.983 875.859 131.493 876.273 131.89C876.688 132.287 877.209 132.553 877.774 132.656C878.338 132.758 878.92 132.693 879.448 132.468C879.975 132.243 880.425 131.868 880.741 131.389C881.057 130.91 881.226 130.349 881.226 129.776C881.209 128.984 880.878 128.232 880.307 127.684C879.737 127.135 878.972 126.836 878.18 126.85H878.17ZM852.17 126.85C851.597 126.875 851.044 127.068 850.58 127.405C850.116 127.742 849.761 128.207 849.559 128.744C849.357 129.281 849.317 129.865 849.444 130.425C849.572 130.984 849.86 131.494 850.275 131.89C850.689 132.287 851.211 132.553 851.775 132.656C852.339 132.758 852.921 132.693 853.449 132.468C853.976 132.243 854.426 131.867 854.742 131.389C855.058 130.91 855.227 130.349 855.227 129.776C855.21 128.982 854.878 128.229 854.304 127.68C853.731 127.131 852.964 126.833 852.17 126.85ZM826.176 126.85C825.603 126.875 825.05 127.068 824.586 127.405C824.122 127.742 823.767 128.207 823.565 128.744C823.363 129.281 823.323 129.865 823.45 130.425C823.578 130.984 823.866 131.494 824.281 131.89C824.695 132.287 825.217 132.553 825.781 132.656C826.345 132.758 826.927 132.693 827.455 132.468C827.982 132.243 828.432 131.867 828.748 131.389C829.064 130.91 829.233 130.349 829.233 129.776C829.216 128.982 828.884 128.229 828.31 127.68C827.737 127.131 826.97 126.833 826.176 126.85ZM800.176 126.85C799.603 126.875 799.05 127.068 798.586 127.405C798.122 127.742 797.767 128.207 797.565 128.744C797.363 129.281 797.323 129.865 797.45 130.425C797.578 130.984 797.866 131.494 798.281 131.89C798.695 132.287 799.217 132.553 799.781 132.656C800.345 132.758 800.927 132.693 801.455 132.468C801.982 132.243 802.432 131.867 802.748 131.389C803.064 130.91 803.233 130.349 803.233 129.776C803.216 128.982 802.884 128.229 802.31 127.68C801.737 127.131 800.97 126.833 800.176 126.85ZM904.155 156.484C903.582 156.508 903.028 156.701 902.563 157.038C902.098 157.375 901.742 157.841 901.539 158.378C901.337 158.915 901.297 159.5 901.424 160.06C901.551 160.62 901.84 161.13 902.255 161.527C902.67 161.925 903.192 162.191 903.757 162.294C904.322 162.397 904.904 162.331 905.432 162.105C905.96 161.88 906.411 161.504 906.727 161.025C907.043 160.546 907.211 159.984 907.211 159.41C907.193 158.617 906.862 157.863 906.289 157.315C905.716 156.766 904.948 156.467 904.155 156.484ZM878.161 156.484C877.588 156.508 877.034 156.701 876.569 157.038C876.104 157.375 875.748 157.841 875.545 158.378C875.343 158.915 875.303 159.5 875.43 160.06C875.557 160.62 875.846 161.13 876.261 161.527C876.676 161.925 877.198 162.191 877.763 162.294C878.328 162.397 878.91 162.331 879.438 162.105C879.966 161.88 880.417 161.504 880.733 161.025C881.049 160.546 881.217 159.984 881.217 159.41C881.199 158.617 880.868 157.863 880.295 157.315C879.722 156.766 878.954 156.467 878.161 156.484ZM852.161 156.484C851.588 156.509 851.034 156.701 850.569 157.038C850.104 157.375 849.749 157.841 849.546 158.378C849.344 158.916 849.304 159.501 849.431 160.06C849.558 160.62 849.847 161.13 850.262 161.527C850.677 161.924 851.199 162.191 851.764 162.294C852.328 162.396 852.911 162.331 853.439 162.106C853.967 161.88 854.417 161.505 854.733 161.025C855.05 160.546 855.218 159.985 855.218 159.411C855.201 158.617 854.869 157.863 854.296 157.315C853.722 156.766 852.955 156.467 852.161 156.484ZM826.167 156.484C825.594 156.509 825.04 156.701 824.575 157.038C824.11 157.375 823.755 157.841 823.552 158.378C823.35 158.916 823.31 159.501 823.437 160.06C823.564 160.62 823.853 161.13 824.268 161.527C824.683 161.924 825.205 162.191 825.77 162.294C826.334 162.396 826.917 162.331 827.445 162.106C827.973 161.88 828.423 161.505 828.739 161.025C829.056 160.546 829.224 159.985 829.224 159.411C829.207 158.617 828.875 157.863 828.302 157.315C827.728 156.766 826.961 156.467 826.167 156.484ZM800.167 156.484C799.594 156.509 799.04 156.701 798.575 157.038C798.11 157.375 797.755 157.841 797.552 158.378C797.35 158.916 797.31 159.501 797.437 160.06C797.564 160.62 797.853 161.13 798.268 161.527C798.683 161.924 799.205 162.191 799.77 162.294C800.334 162.396 800.917 162.331 801.445 162.106C801.973 161.88 802.423 161.505 802.739 161.025C803.056 160.546 803.224 159.985 803.224 159.411C803.207 158.617 802.875 157.863 802.302 157.315C801.728 156.766 800.961 156.467 800.167 156.484ZM774.173 156.484C773.6 156.508 773.046 156.701 772.581 157.038C772.116 157.375 771.76 157.841 771.557 158.378C771.355 158.915 771.315 159.5 771.442 160.06C771.569 160.62 771.858 161.13 772.273 161.527C772.688 161.925 773.21 162.191 773.775 162.294C774.34 162.397 774.922 162.331 775.45 162.105C775.978 161.88 776.429 161.504 776.745 161.025C777.061 160.546 777.229 159.984 777.229 159.41C777.211 158.617 776.88 157.863 776.307 157.315C775.734 156.766 774.966 156.467 774.173 156.484ZM904.146 186.117C903.573 186.141 903.019 186.334 902.554 186.671C902.089 187.008 901.733 187.474 901.53 188.011C901.328 188.548 901.288 189.133 901.415 189.693C901.542 190.253 901.831 190.763 902.246 191.16C902.661 191.558 903.183 191.824 903.748 191.927C904.313 192.03 904.895 191.964 905.423 191.738C905.951 191.513 906.402 191.137 906.718 190.658C907.034 190.179 907.202 189.617 907.202 189.043C907.184 188.25 906.853 187.496 906.28 186.948C905.707 186.399 904.939 186.1 904.146 186.117ZM878.152 186.117C877.579 186.141 877.025 186.334 876.56 186.671C876.095 187.008 875.739 187.474 875.536 188.011C875.334 188.548 875.294 189.133 875.421 189.693C875.548 190.253 875.837 190.763 876.252 191.16C876.667 191.558 877.189 191.824 877.754 191.927C878.319 192.03 878.901 191.964 879.429 191.738C879.957 191.513 880.408 191.137 880.724 190.658C881.04 190.179 881.208 189.617 881.208 189.043C881.19 188.25 880.859 187.496 880.286 186.948C879.713 186.399 878.945 186.1 878.152 186.117ZM852.152 186.117C851.579 186.142 851.025 186.334 850.56 186.671C850.095 187.008 849.74 187.474 849.537 188.011C849.335 188.549 849.295 189.134 849.422 189.693C849.549 190.253 849.838 190.763 850.253 191.16C850.668 191.557 851.19 191.824 851.755 191.927C852.319 192.029 852.902 191.964 853.43 191.739C853.958 191.513 854.408 191.138 854.724 190.658C855.041 190.179 855.209 189.618 855.209 189.044C855.192 188.25 854.86 187.496 854.287 186.948C853.713 186.399 852.946 186.1 852.152 186.117ZM826.158 186.117C825.585 186.142 825.031 186.334 824.566 186.671C824.101 187.008 823.746 187.474 823.543 188.011C823.341 188.549 823.301 189.134 823.428 189.693C823.555 190.253 823.844 190.763 824.259 191.16C824.674 191.557 825.196 191.824 825.761 191.927C826.325 192.029 826.908 191.964 827.436 191.739C827.964 191.513 828.414 191.138 828.73 190.658C829.047 190.179 829.215 189.618 829.215 189.044C829.198 188.25 828.866 187.496 828.293 186.948C827.719 186.399 826.952 186.1 826.158 186.117ZM800.158 186.117C799.585 186.142 799.031 186.334 798.566 186.671C798.101 187.008 797.746 187.474 797.543 188.011C797.341 188.549 797.301 189.134 797.428 189.693C797.555 190.253 797.844 190.763 798.259 191.16C798.674 191.557 799.196 191.824 799.761 191.927C800.325 192.029 800.908 191.964 801.436 191.739C801.964 191.513 802.414 191.138 802.73 190.658C803.047 190.179 803.215 189.618 803.215 189.044C803.198 188.25 802.866 187.496 802.293 186.948C801.719 186.399 800.952 186.1 800.158 186.117ZM774.164 186.117C773.591 186.141 773.037 186.334 772.572 186.671C772.107 187.008 771.751 187.474 771.548 188.011C771.346 188.548 771.306 189.133 771.433 189.693C771.56 190.253 771.849 190.763 772.264 191.16C772.679 191.558 773.201 191.824 773.766 191.927C774.331 192.03 774.913 191.964 775.441 191.738C775.969 191.513 776.42 191.137 776.736 190.658C777.052 190.179 777.22 189.617 777.22 189.043C777.202 188.25 776.871 187.496 776.298 186.948C775.725 186.399 774.957 186.1 774.164 186.117ZM748.17 186.117C747.597 186.141 747.043 186.334 746.578 186.671C746.113 187.008 745.757 187.474 745.554 188.011C745.352 188.548 745.312 189.133 745.439 189.693C745.566 190.253 745.855 190.763 746.27 191.16C746.685 191.558 747.207 191.824 747.772 191.927C748.337 192.03 748.919 191.964 749.447 191.738C749.975 191.513 750.426 191.137 750.742 190.658C751.058 190.179 751.226 189.617 751.226 189.043C751.208 188.25 750.877 187.496 750.304 186.948C749.731 186.399 748.963 186.1 748.17 186.117Z" fill="#14296E"/>
<path fill-rule="evenodd" clip-rule="evenodd" d="M1313.73 -29.8752H1360.04V14.4558H1406.35V58.7868H1360.04V103.118H1406.36V147.449H1360.04V103.118H1313.74V58.7918H1360.04V14.4608H1313.74V-29.8702L1313.73 -29.8752Z" fill="#14296E"/>
<path fill-rule="evenodd" clip-rule="evenodd" d="M1099.55 107.378C1099.85 107.391 1100.13 107.489 1100.36 107.66C1100.6 107.832 1100.78 108.069 1100.88 108.343C1100.99 108.616 1101.01 108.914 1100.94 109.199C1100.88 109.484 1100.73 109.744 1100.52 109.946C1100.31 110.148 1100.04 110.284 1099.76 110.336C1099.47 110.389 1099.17 110.355 1098.9 110.241C1098.63 110.126 1098.4 109.935 1098.24 109.691C1098.08 109.447 1098 109.161 1098 108.869C1098.01 108.465 1098.17 108.081 1098.47 107.801C1098.76 107.521 1099.15 107.369 1099.55 107.378ZM1112.8 107.378C1113.09 107.391 1113.37 107.489 1113.61 107.661C1113.85 107.833 1114.03 108.07 1114.13 108.344C1114.23 108.618 1114.25 108.916 1114.19 109.201C1114.13 109.486 1113.98 109.746 1113.77 109.948C1113.56 110.15 1113.29 110.286 1113 110.338C1112.71 110.391 1112.42 110.357 1112.15 110.242C1111.88 110.128 1111.65 109.936 1111.49 109.692C1111.33 109.448 1111.24 109.162 1111.24 108.87C1111.25 108.465 1111.42 108.081 1111.71 107.801C1112 107.521 1112.4 107.369 1112.8 107.378ZM1126.05 107.378C1126.34 107.391 1126.62 107.489 1126.86 107.66C1127.09 107.832 1127.28 108.069 1127.38 108.343C1127.48 108.616 1127.5 108.914 1127.44 109.199C1127.37 109.484 1127.23 109.744 1127.01 109.946C1126.8 110.148 1126.54 110.284 1126.25 110.336C1125.96 110.389 1125.67 110.355 1125.4 110.241C1125.13 110.126 1124.9 109.935 1124.74 109.691C1124.58 109.447 1124.49 109.161 1124.49 108.869C1124.5 108.465 1124.67 108.081 1124.96 107.801C1125.25 107.521 1125.64 107.369 1126.05 107.378ZM1139.29 107.378C1139.59 107.391 1139.87 107.489 1140.1 107.66C1140.34 107.832 1140.52 108.069 1140.63 108.343C1140.73 108.616 1140.75 108.914 1140.68 109.199C1140.62 109.484 1140.47 109.744 1140.26 109.946C1140.05 110.148 1139.78 110.284 1139.5 110.336C1139.21 110.389 1138.91 110.355 1138.64 110.241C1138.37 110.126 1138.15 109.935 1137.98 109.691C1137.82 109.447 1137.74 109.161 1137.74 108.869C1137.75 108.465 1137.92 108.081 1138.21 107.801C1138.5 107.521 1138.89 107.369 1139.29 107.378ZM1152.54 107.378C1152.83 107.39 1153.12 107.488 1153.35 107.66C1153.59 107.832 1153.77 108.069 1153.87 108.343C1153.98 108.616 1154 108.914 1153.93 109.2C1153.87 109.485 1153.72 109.745 1153.51 109.947C1153.3 110.15 1153.03 110.286 1152.75 110.338C1152.46 110.391 1152.16 110.357 1151.89 110.243C1151.62 110.128 1151.39 109.937 1151.23 109.693C1151.07 109.448 1150.98 109.162 1150.98 108.87C1150.99 108.466 1151.16 108.081 1151.45 107.802C1151.75 107.522 1152.14 107.369 1152.54 107.378ZM1165.79 107.378C1166.08 107.39 1166.36 107.488 1166.6 107.66C1166.84 107.832 1167.02 108.069 1167.12 108.343C1167.22 108.616 1167.24 108.914 1167.18 109.2C1167.12 109.485 1166.97 109.745 1166.76 109.947C1166.55 110.15 1166.28 110.286 1165.99 110.338C1165.7 110.391 1165.41 110.357 1165.14 110.243C1164.87 110.128 1164.64 109.937 1164.48 109.693C1164.32 109.448 1164.23 109.162 1164.23 108.87C1164.24 108.466 1164.41 108.081 1164.7 107.802C1164.99 107.522 1165.38 107.369 1165.79 107.378ZM1179.04 107.378C1179.33 107.391 1179.61 107.489 1179.85 107.66C1180.08 107.832 1180.26 108.069 1180.37 108.343C1180.47 108.616 1180.49 108.914 1180.43 109.199C1180.36 109.484 1180.21 109.744 1180 109.946C1179.79 110.148 1179.53 110.284 1179.24 110.336C1178.95 110.389 1178.65 110.355 1178.38 110.241C1178.12 110.126 1177.89 109.935 1177.73 109.691C1177.56 109.447 1177.48 109.161 1177.48 108.869C1177.49 108.465 1177.66 108.081 1177.95 107.801C1178.24 107.521 1178.63 107.369 1179.04 107.378ZM1192.28 107.378C1192.57 107.39 1192.86 107.488 1193.09 107.66C1193.33 107.832 1193.51 108.069 1193.62 108.343C1193.72 108.616 1193.74 108.914 1193.67 109.2C1193.61 109.485 1193.46 109.745 1193.25 109.947C1193.04 110.15 1192.77 110.286 1192.49 110.338C1192.2 110.391 1191.9 110.357 1191.63 110.243C1191.36 110.128 1191.13 109.937 1190.97 109.693C1190.81 109.448 1190.73 109.162 1190.73 108.87C1190.73 108.466 1190.9 108.081 1191.2 107.802C1191.49 107.522 1191.88 107.369 1192.28 107.378ZM1205.53 107.378C1205.82 107.39 1206.1 107.488 1206.34 107.66C1206.58 107.832 1206.76 108.069 1206.86 108.343C1206.97 108.616 1206.99 108.914 1206.92 109.2C1206.86 109.485 1206.71 109.745 1206.5 109.947C1206.29 110.15 1206.02 110.286 1205.73 110.338C1205.45 110.391 1205.15 110.357 1204.88 110.243C1204.61 110.128 1204.38 109.937 1204.22 109.693C1204.06 109.448 1203.97 109.162 1203.97 108.87C1203.98 108.466 1204.15 108.081 1204.44 107.802C1204.73 107.522 1205.12 107.369 1205.53 107.378ZM1218.78 107.378C1219.07 107.39 1219.35 107.488 1219.59 107.66C1219.82 107.832 1220.01 108.069 1220.11 108.343C1220.21 108.616 1220.23 108.914 1220.17 109.2C1220.1 109.485 1219.96 109.745 1219.75 109.947C1219.53 110.15 1219.27 110.286 1218.98 110.338C1218.69 110.391 1218.4 110.357 1218.13 110.243C1217.86 110.128 1217.63 109.937 1217.47 109.693C1217.31 109.448 1217.22 109.162 1217.22 108.87C1217.23 108.466 1217.4 108.081 1217.69 107.802C1217.98 107.522 1218.37 107.369 1218.78 107.378ZM1099.55 122.478C1099.85 122.491 1100.13 122.589 1100.36 122.76C1100.6 122.932 1100.78 123.169 1100.88 123.443C1100.99 123.716 1101.01 124.014 1100.94 124.299C1100.88 124.584 1100.73 124.844 1100.52 125.046C1100.31 125.248 1100.04 125.384 1099.76 125.436C1099.47 125.489 1099.17 125.455 1098.9 125.341C1098.63 125.226 1098.4 125.035 1098.24 124.791C1098.08 124.547 1098 124.261 1098 123.969C1098.01 123.565 1098.17 123.181 1098.47 122.901C1098.76 122.621 1099.15 122.469 1099.55 122.478ZM1112.8 122.478C1113.09 122.491 1113.37 122.589 1113.61 122.761C1113.85 122.933 1114.03 123.17 1114.13 123.444C1114.23 123.718 1114.25 124.015 1114.19 124.3C1114.12 124.585 1113.98 124.845 1113.76 125.047C1113.55 125.249 1113.29 125.384 1113 125.436C1112.71 125.488 1112.42 125.455 1112.15 125.34C1111.88 125.226 1111.65 125.034 1111.49 124.791C1111.33 124.547 1111.24 124.261 1111.24 123.969C1111.25 123.768 1111.29 123.571 1111.37 123.388C1111.45 123.204 1111.57 123.039 1111.71 122.9C1111.86 122.762 1112.03 122.653 1112.22 122.581C1112.4 122.509 1112.6 122.474 1112.8 122.479L1112.8 122.478ZM1126.05 122.478C1126.34 122.491 1126.62 122.589 1126.86 122.76C1127.09 122.932 1127.28 123.169 1127.38 123.443C1127.48 123.716 1127.5 124.014 1127.44 124.299C1127.37 124.584 1127.23 124.844 1127.01 125.046C1126.8 125.248 1126.54 125.384 1126.25 125.436C1125.96 125.489 1125.67 125.455 1125.4 125.341C1125.13 125.226 1124.9 125.035 1124.74 124.791C1124.58 124.547 1124.49 124.261 1124.49 123.969C1124.49 123.769 1124.54 123.571 1124.62 123.388C1124.7 123.205 1124.82 123.039 1124.96 122.901C1125.11 122.762 1125.28 122.654 1125.46 122.581C1125.65 122.509 1125.85 122.474 1126.05 122.479L1126.05 122.478ZM1139.29 122.478C1139.59 122.491 1139.87 122.589 1140.1 122.76C1140.34 122.932 1140.52 123.169 1140.63 123.443C1140.73 123.716 1140.75 124.014 1140.68 124.299C1140.62 124.584 1140.47 124.844 1140.26 125.046C1140.05 125.248 1139.78 125.384 1139.5 125.436C1139.21 125.489 1138.91 125.455 1138.64 125.341C1138.37 125.226 1138.15 125.035 1137.98 124.791C1137.82 124.547 1137.74 124.261 1137.74 123.969C1137.75 123.565 1137.92 123.181 1138.21 122.901C1138.5 122.621 1138.89 122.469 1139.29 122.478ZM1152.54 122.478C1152.83 122.491 1153.11 122.589 1153.35 122.761C1153.59 122.933 1153.77 123.17 1153.87 123.444C1153.97 123.718 1153.99 124.015 1153.93 124.3C1153.86 124.585 1153.72 124.845 1153.51 125.047C1153.29 125.249 1153.03 125.384 1152.74 125.436C1152.45 125.488 1152.16 125.455 1151.89 125.34C1151.62 125.226 1151.39 125.034 1151.23 124.791C1151.07 124.547 1150.98 124.261 1150.98 123.969C1150.99 123.768 1151.03 123.571 1151.11 123.387C1151.19 123.204 1151.31 123.038 1151.45 122.9C1151.6 122.761 1151.77 122.653 1151.96 122.581C1152.14 122.509 1152.34 122.474 1152.54 122.479L1152.54 122.478ZM1165.79 122.478C1166.08 122.491 1166.36 122.589 1166.6 122.761C1166.84 122.932 1167.02 123.17 1167.12 123.443C1167.22 123.717 1167.24 124.015 1167.18 124.3C1167.11 124.585 1166.96 124.844 1166.75 125.046C1166.54 125.248 1166.28 125.384 1165.99 125.436C1165.7 125.489 1165.41 125.455 1165.14 125.341C1164.87 125.226 1164.64 125.035 1164.48 124.791C1164.32 124.547 1164.23 124.261 1164.23 123.969C1164.24 123.565 1164.41 123.18 1164.7 122.901C1164.99 122.621 1165.38 122.469 1165.79 122.478ZM1179.04 122.478C1179.33 122.491 1179.61 122.589 1179.85 122.76C1180.08 122.932 1180.26 123.169 1180.37 123.443C1180.47 123.716 1180.49 124.014 1180.43 124.299C1180.36 124.584 1180.21 124.844 1180 125.046C1179.79 125.248 1179.53 125.384 1179.24 125.436C1178.95 125.489 1178.65 125.455 1178.38 125.341C1178.12 125.226 1177.89 125.035 1177.73 124.791C1177.56 124.547 1177.48 124.261 1177.48 123.969C1177.48 123.768 1177.53 123.571 1177.61 123.388C1177.69 123.204 1177.8 123.039 1177.95 122.9C1178.09 122.762 1178.27 122.653 1178.45 122.581C1178.64 122.509 1178.84 122.474 1179.04 122.479L1179.04 122.478ZM1192.28 122.478C1192.57 122.491 1192.86 122.589 1193.09 122.761C1193.33 122.933 1193.51 123.17 1193.61 123.444C1193.71 123.718 1193.73 124.015 1193.67 124.3C1193.6 124.585 1193.46 124.845 1193.25 125.047C1193.04 125.249 1192.77 125.384 1192.48 125.436C1192.19 125.488 1191.9 125.455 1191.63 125.34C1191.36 125.226 1191.13 125.034 1190.97 124.791C1190.81 124.547 1190.72 124.261 1190.72 123.969C1190.73 123.768 1190.77 123.571 1190.85 123.387C1190.93 123.204 1191.05 123.038 1191.2 122.9C1191.34 122.761 1191.51 122.653 1191.7 122.581C1191.89 122.508 1192.09 122.474 1192.29 122.479L1192.28 122.478ZM1205.53 122.478C1205.82 122.491 1206.1 122.589 1206.34 122.76C1206.58 122.932 1206.76 123.169 1206.86 123.443C1206.96 123.716 1206.98 124.014 1206.92 124.299C1206.85 124.584 1206.71 124.844 1206.5 125.046C1206.29 125.248 1206.02 125.384 1205.73 125.436C1205.44 125.489 1205.15 125.455 1204.88 125.341C1204.61 125.226 1204.38 125.035 1204.22 124.791C1204.06 124.547 1203.97 124.261 1203.97 123.969C1203.98 123.565 1204.15 123.181 1204.44 122.901C1204.73 122.621 1205.13 122.469 1205.53 122.478ZM1218.78 122.478C1219.07 122.491 1219.35 122.589 1219.59 122.76C1219.82 122.932 1220 123.169 1220.11 123.443C1220.21 123.716 1220.23 124.014 1220.17 124.299C1220.1 124.584 1219.95 124.844 1219.74 125.046C1219.53 125.248 1219.27 125.384 1218.98 125.436C1218.69 125.489 1218.39 125.455 1218.13 125.341C1217.86 125.226 1217.63 125.035 1217.47 124.791C1217.31 124.547 1217.22 124.261 1217.22 123.969C1217.22 123.768 1217.27 123.571 1217.35 123.387C1217.43 123.204 1217.55 123.038 1217.69 122.9C1217.84 122.761 1218.01 122.653 1218.19 122.581C1218.38 122.509 1218.58 122.474 1218.78 122.479L1218.78 122.478ZM1099.56 137.58C1099.85 137.593 1100.13 137.691 1100.37 137.862C1100.61 138.034 1100.79 138.271 1100.89 138.545C1100.99 138.818 1101.01 139.116 1100.95 139.401C1100.88 139.686 1100.74 139.946 1100.53 140.148C1100.31 140.35 1100.05 140.486 1099.76 140.538C1099.47 140.591 1099.18 140.557 1098.91 140.443C1098.64 140.328 1098.41 140.137 1098.25 139.893C1098.09 139.649 1098 139.363 1098 139.071C1098.01 138.667 1098.18 138.283 1098.47 138.003C1098.76 137.723 1099.15 137.571 1099.56 137.58ZM1112.81 137.58C1113.1 137.594 1113.38 137.693 1113.61 137.865C1113.85 138.037 1114.03 138.275 1114.13 138.549C1114.24 138.822 1114.25 139.12 1114.19 139.405C1114.12 139.69 1113.98 139.949 1113.76 140.15C1113.55 140.352 1113.29 140.487 1113 140.539C1112.71 140.59 1112.41 140.556 1112.15 140.441C1111.88 140.326 1111.65 140.134 1111.49 139.89C1111.33 139.646 1111.24 139.36 1111.24 139.068C1111.25 138.868 1111.29 138.67 1111.37 138.487C1111.45 138.304 1111.57 138.138 1111.72 138C1111.86 137.862 1112.03 137.754 1112.22 137.682C1112.41 137.609 1112.6 137.575 1112.81 137.58ZM1126.05 137.58C1126.34 137.593 1126.63 137.691 1126.86 137.862C1127.1 138.034 1127.28 138.271 1127.38 138.545C1127.49 138.818 1127.51 139.116 1127.44 139.401C1127.38 139.686 1127.23 139.946 1127.02 140.148C1126.81 140.35 1126.54 140.486 1126.25 140.538C1125.97 140.591 1125.67 140.557 1125.4 140.443C1125.13 140.328 1124.9 140.137 1124.74 139.893C1124.58 139.649 1124.5 139.363 1124.5 139.071C1124.5 138.667 1124.67 138.283 1124.97 138.003C1125.26 137.723 1125.65 137.571 1126.05 137.58ZM1139.3 137.58C1139.59 137.593 1139.87 137.691 1140.11 137.862C1140.35 138.034 1140.53 138.271 1140.63 138.545C1140.73 138.818 1140.75 139.116 1140.69 139.401C1140.62 139.686 1140.48 139.946 1140.27 140.148C1140.06 140.35 1139.79 140.486 1139.5 140.538C1139.21 140.591 1138.92 140.557 1138.65 140.443C1138.38 140.328 1138.15 140.137 1137.99 139.893C1137.83 139.649 1137.74 139.363 1137.74 139.071C1137.75 138.667 1137.92 138.283 1138.21 138.003C1138.5 137.723 1138.9 137.571 1139.3 137.58ZM1152.55 137.58C1152.84 137.593 1153.12 137.691 1153.36 137.862C1153.59 138.034 1153.77 138.271 1153.88 138.545C1153.98 138.818 1154 139.116 1153.94 139.401C1153.87 139.686 1153.72 139.946 1153.51 140.148C1153.3 140.35 1153.04 140.486 1152.75 140.538C1152.46 140.591 1152.16 140.557 1151.9 140.443C1151.63 140.328 1151.4 140.137 1151.24 139.893C1151.08 139.649 1150.99 139.363 1150.99 139.071C1151 138.666 1151.17 138.282 1151.46 138.003C1151.75 137.723 1152.14 137.571 1152.55 137.58H1152.55ZM1165.79 137.58C1166.21 137.581 1166.6 137.745 1166.89 138.037C1167.18 138.33 1167.35 138.726 1167.35 139.138C1167.35 139.551 1167.18 139.947 1166.89 140.238C1166.6 140.53 1166.2 140.694 1165.79 140.694C1165.38 140.694 1164.98 140.53 1164.69 140.238C1164.4 139.947 1164.23 139.551 1164.23 139.138C1164.23 138.726 1164.4 138.33 1164.69 138.037C1164.98 137.745 1165.37 137.581 1165.79 137.58H1165.79ZM1179.04 137.58C1179.33 137.593 1179.61 137.691 1179.85 137.862C1180.09 138.034 1180.27 138.271 1180.37 138.545C1180.47 138.818 1180.49 139.116 1180.43 139.401C1180.37 139.686 1180.22 139.946 1180.01 140.148C1179.8 140.35 1179.53 140.486 1179.24 140.538C1178.96 140.591 1178.66 140.557 1178.39 140.443C1178.12 140.328 1177.89 140.137 1177.73 139.893C1177.57 139.649 1177.48 139.363 1177.48 139.071C1177.49 138.666 1177.66 138.282 1177.95 138.003C1178.25 137.723 1178.64 137.571 1179.04 137.58ZM1192.29 137.58C1192.58 137.593 1192.86 137.691 1193.1 137.863C1193.33 138.035 1193.51 138.272 1193.62 138.546C1193.72 138.82 1193.74 139.117 1193.67 139.402C1193.61 139.687 1193.46 139.947 1193.25 140.149C1193.04 140.351 1192.77 140.486 1192.49 140.538C1192.2 140.591 1191.9 140.557 1191.63 140.442C1191.37 140.328 1191.14 140.136 1190.98 139.893C1190.81 139.649 1190.73 139.363 1190.73 139.071C1190.73 138.87 1190.78 138.673 1190.86 138.489C1190.94 138.306 1191.05 138.14 1191.2 138.002C1191.34 137.863 1191.52 137.755 1191.7 137.682C1191.89 137.61 1192.09 137.575 1192.29 137.58H1192.29ZM1205.53 137.58C1205.83 137.593 1206.11 137.691 1206.34 137.862C1206.58 138.034 1206.76 138.271 1206.87 138.545C1206.97 138.818 1206.99 139.116 1206.92 139.401C1206.86 139.686 1206.71 139.946 1206.5 140.148C1206.29 140.35 1206.02 140.486 1205.74 140.538C1205.45 140.591 1205.15 140.557 1204.88 140.443C1204.61 140.328 1204.39 140.137 1204.22 139.893C1204.06 139.649 1203.98 139.363 1203.98 139.071C1203.99 138.667 1204.16 138.283 1204.45 138.003C1204.74 137.723 1205.13 137.571 1205.53 137.58ZM1218.78 137.58C1219.07 137.593 1219.35 137.691 1219.59 137.863C1219.83 138.035 1220.01 138.272 1220.11 138.546C1220.21 138.82 1220.23 139.117 1220.17 139.402C1220.1 139.687 1219.96 139.947 1219.75 140.149C1219.53 140.351 1219.27 140.486 1218.98 140.538C1218.69 140.591 1218.4 140.557 1218.13 140.442C1217.86 140.328 1217.63 140.136 1217.47 139.893C1217.31 139.649 1217.22 139.363 1217.22 139.071C1217.23 138.871 1217.27 138.673 1217.35 138.49C1217.43 138.306 1217.55 138.141 1217.69 138.002C1217.84 137.864 1218.01 137.755 1218.19 137.683C1218.38 137.61 1218.58 137.575 1218.78 137.58ZM1099.56 152.68C1099.85 152.693 1100.13 152.791 1100.37 152.962C1100.61 153.134 1100.79 153.371 1100.89 153.645C1100.99 153.918 1101.01 154.216 1100.95 154.501C1100.88 154.786 1100.74 155.046 1100.53 155.248C1100.31 155.45 1100.05 155.586 1099.76 155.638C1099.47 155.691 1099.18 155.657 1098.91 155.543C1098.64 155.428 1098.41 155.237 1098.25 154.993C1098.09 154.749 1098 154.463 1098 154.171C1098.01 153.767 1098.18 153.383 1098.47 153.103C1098.76 152.823 1099.15 152.671 1099.56 152.68ZM1112.81 152.68C1113.1 152.693 1113.38 152.791 1113.62 152.963C1113.85 153.135 1114.03 153.372 1114.14 153.646C1114.24 153.92 1114.26 154.217 1114.19 154.502C1114.13 154.787 1113.98 155.047 1113.77 155.249C1113.56 155.451 1113.29 155.586 1113 155.638C1112.72 155.691 1112.42 155.657 1112.15 155.542C1111.88 155.428 1111.65 155.236 1111.49 154.993C1111.33 154.749 1111.25 154.463 1111.25 154.171C1111.25 153.97 1111.29 153.773 1111.38 153.59C1111.46 153.406 1111.57 153.241 1111.72 153.102C1111.86 152.964 1112.03 152.855 1112.22 152.783C1112.41 152.711 1112.61 152.676 1112.81 152.681L1112.81 152.68ZM1126.05 152.68C1126.34 152.693 1126.63 152.791 1126.86 152.962C1127.1 153.134 1127.28 153.371 1127.38 153.645C1127.49 153.918 1127.51 154.216 1127.44 154.501C1127.38 154.786 1127.23 155.046 1127.02 155.248C1126.81 155.45 1126.54 155.586 1126.25 155.638C1125.97 155.691 1125.67 155.657 1125.4 155.543C1125.13 155.428 1124.9 155.237 1124.74 154.993C1124.58 154.749 1124.5 154.463 1124.5 154.171C1124.5 153.971 1124.54 153.773 1124.62 153.59C1124.71 153.407 1124.82 153.241 1124.97 153.103C1125.11 152.964 1125.28 152.856 1125.47 152.783C1125.66 152.711 1125.85 152.676 1126.06 152.681L1126.05 152.68ZM1139.3 152.68C1139.59 152.693 1139.87 152.791 1140.11 152.962C1140.35 153.134 1140.53 153.371 1140.63 153.645C1140.73 153.918 1140.75 154.216 1140.69 154.501C1140.62 154.786 1140.48 155.046 1140.27 155.248C1140.06 155.45 1139.79 155.586 1139.5 155.638C1139.21 155.691 1138.92 155.657 1138.65 155.543C1138.38 155.428 1138.15 155.237 1137.99 154.993C1137.83 154.749 1137.74 154.463 1137.74 154.171C1137.75 153.971 1137.79 153.773 1137.87 153.59C1137.95 153.407 1138.07 153.241 1138.21 153.103C1138.36 152.964 1138.53 152.856 1138.72 152.783C1138.9 152.711 1139.1 152.676 1139.3 152.681L1139.3 152.68ZM1152.55 152.68C1152.84 152.693 1153.12 152.791 1153.36 152.963C1153.59 153.135 1153.77 153.372 1153.88 153.646C1153.98 153.92 1154 154.217 1153.93 154.502C1153.87 154.787 1153.72 155.047 1153.51 155.249C1153.3 155.451 1153.03 155.586 1152.75 155.638C1152.46 155.691 1152.16 155.657 1151.89 155.542C1151.62 155.428 1151.4 155.236 1151.23 154.993C1151.07 154.749 1150.99 154.463 1150.99 154.171C1150.99 153.97 1151.04 153.773 1151.12 153.589C1151.2 153.406 1151.31 153.24 1151.46 153.102C1151.6 152.963 1151.78 152.855 1151.96 152.783C1152.15 152.711 1152.35 152.676 1152.55 152.681L1152.55 152.68ZM1165.79 152.68C1166.09 152.693 1166.37 152.791 1166.6 152.963C1166.84 153.135 1167.02 153.372 1167.12 153.646C1167.23 153.92 1167.25 154.217 1167.18 154.502C1167.12 154.787 1166.97 155.047 1166.76 155.249C1166.55 155.451 1166.28 155.586 1165.99 155.638C1165.71 155.691 1165.41 155.657 1165.14 155.542C1164.87 155.428 1164.64 155.236 1164.48 154.993C1164.32 154.749 1164.23 154.463 1164.23 154.171C1164.24 153.97 1164.28 153.773 1164.36 153.589C1164.44 153.406 1164.56 153.24 1164.71 153.102C1164.85 152.963 1165.02 152.855 1165.21 152.783C1165.4 152.71 1165.6 152.676 1165.8 152.681L1165.79 152.68ZM1179.04 152.68C1179.33 152.693 1179.61 152.791 1179.85 152.962C1180.09 153.134 1180.27 153.371 1180.37 153.645C1180.47 153.918 1180.49 154.216 1180.43 154.501C1180.37 154.786 1180.22 155.046 1180.01 155.248C1179.8 155.45 1179.53 155.586 1179.24 155.638C1178.96 155.691 1178.66 155.657 1178.39 155.543C1178.12 155.428 1177.89 155.237 1177.73 154.993C1177.57 154.749 1177.48 154.463 1177.48 154.171C1177.49 153.97 1177.53 153.773 1177.61 153.59C1177.69 153.406 1177.81 153.241 1177.95 153.102C1178.1 152.964 1178.27 152.855 1178.46 152.783C1178.64 152.711 1178.84 152.676 1179.04 152.681L1179.04 152.68ZM1192.29 152.68C1192.58 152.693 1192.86 152.791 1193.1 152.963C1193.33 153.135 1193.51 153.372 1193.62 153.646C1193.72 153.92 1193.74 154.217 1193.67 154.502C1193.61 154.787 1193.46 155.047 1193.25 155.249C1193.04 155.451 1192.77 155.586 1192.49 155.638C1192.2 155.691 1191.9 155.657 1191.63 155.542C1191.37 155.428 1191.14 155.236 1190.98 154.993C1190.81 154.749 1190.73 154.463 1190.73 154.171C1190.73 153.97 1190.78 153.773 1190.86 153.589C1190.94 153.406 1191.06 153.24 1191.2 153.102C1191.35 152.963 1191.52 152.855 1191.7 152.783C1191.89 152.71 1192.09 152.676 1192.29 152.681L1192.29 152.68ZM1205.53 152.68C1205.83 152.693 1206.11 152.791 1206.34 152.962C1206.58 153.134 1206.76 153.371 1206.87 153.645C1206.97 153.918 1206.99 154.216 1206.92 154.501C1206.86 154.786 1206.71 155.046 1206.5 155.248C1206.29 155.45 1206.02 155.586 1205.74 155.638C1205.45 155.691 1205.15 155.657 1204.88 155.543C1204.61 155.428 1204.39 155.237 1204.22 154.993C1204.06 154.749 1203.98 154.463 1203.98 154.171C1203.98 153.97 1204.03 153.773 1204.11 153.59C1204.19 153.406 1204.3 153.241 1204.45 153.102C1204.59 152.964 1204.76 152.855 1204.95 152.783C1205.14 152.711 1205.34 152.676 1205.54 152.681L1205.53 152.68ZM1218.78 152.68C1219.07 152.693 1219.36 152.791 1219.59 152.962C1219.83 153.134 1220.01 153.371 1220.11 153.645C1220.22 153.918 1220.24 154.216 1220.17 154.501C1220.11 154.786 1219.96 155.046 1219.75 155.248C1219.54 155.45 1219.27 155.586 1218.98 155.638C1218.7 155.691 1218.4 155.657 1218.13 155.543C1217.86 155.428 1217.63 155.237 1217.47 154.993C1217.31 154.749 1217.22 154.463 1217.22 154.171C1217.23 153.97 1217.27 153.773 1217.35 153.589C1217.43 153.406 1217.55 153.24 1217.7 153.102C1217.84 152.963 1218.01 152.855 1218.2 152.783C1218.39 152.711 1218.59 152.676 1218.79 152.681L1218.78 152.68ZM1099.55 167.788C1099.85 167.801 1100.13 167.899 1100.36 168.07C1100.6 168.242 1100.78 168.479 1100.88 168.753C1100.99 169.026 1101.01 169.324 1100.94 169.609C1100.88 169.894 1100.73 170.154 1100.52 170.356C1100.31 170.558 1100.04 170.694 1099.76 170.746C1099.47 170.799 1099.17 170.765 1098.9 170.651C1098.63 170.536 1098.4 170.345 1098.24 170.101C1098.08 169.857 1098 169.571 1098 169.279C1098.01 168.875 1098.17 168.491 1098.47 168.211C1098.76 167.931 1099.15 167.779 1099.55 167.788ZM1112.8 167.788C1113.09 167.801 1113.37 167.899 1113.61 168.071C1113.85 168.243 1114.03 168.48 1114.13 168.754C1114.23 169.028 1114.25 169.325 1114.19 169.61C1114.12 169.895 1113.98 170.155 1113.76 170.357C1113.55 170.559 1113.29 170.694 1113 170.746C1112.71 170.799 1112.42 170.765 1112.15 170.65C1111.88 170.536 1111.65 170.344 1111.49 170.101C1111.33 169.857 1111.24 169.571 1111.24 169.279C1111.24 169.081 1111.28 168.886 1111.36 168.705C1111.44 168.523 1111.55 168.36 1111.7 168.224C1112 167.942 1112.39 167.786 1112.8 167.788ZM1126.05 167.788C1126.34 167.801 1126.62 167.899 1126.86 168.07C1127.09 168.242 1127.28 168.479 1127.38 168.753C1127.48 169.026 1127.5 169.324 1127.44 169.609C1127.37 169.894 1127.23 170.154 1127.01 170.356C1126.8 170.558 1126.54 170.694 1126.25 170.746C1125.96 170.799 1125.67 170.765 1125.4 170.651C1125.13 170.536 1124.9 170.345 1124.74 170.101C1124.58 169.857 1124.49 169.571 1124.49 169.279C1124.5 168.875 1124.67 168.491 1124.96 168.211C1125.25 167.931 1125.64 167.779 1126.05 167.788ZM1139.29 167.788C1139.59 167.801 1139.87 167.899 1140.1 168.07C1140.34 168.242 1140.52 168.479 1140.63 168.753C1140.73 169.026 1140.75 169.324 1140.68 169.609C1140.62 169.894 1140.47 170.154 1140.26 170.356C1140.05 170.558 1139.78 170.694 1139.5 170.746C1139.21 170.799 1138.91 170.765 1138.64 170.651C1138.37 170.536 1138.15 170.345 1137.98 170.101C1137.82 169.857 1137.74 169.571 1137.74 169.279C1137.75 168.875 1137.92 168.491 1138.21 168.211C1138.5 167.931 1138.89 167.779 1139.29 167.788ZM1152.54 167.788C1152.83 167.801 1153.12 167.899 1153.35 168.07C1153.59 168.242 1153.77 168.479 1153.87 168.753C1153.98 169.026 1154 169.324 1153.93 169.609C1153.87 169.894 1153.72 170.154 1153.51 170.356C1153.3 170.558 1153.03 170.694 1152.74 170.746C1152.46 170.799 1152.16 170.765 1151.89 170.651C1151.62 170.536 1151.39 170.345 1151.23 170.101C1151.07 169.857 1150.98 169.571 1150.98 169.279C1150.99 168.874 1151.16 168.49 1151.45 168.211C1151.75 167.931 1152.14 167.779 1152.54 167.788H1152.54ZM1165.79 167.788C1166.08 167.801 1166.36 167.899 1166.6 168.071C1166.83 168.243 1167.02 168.48 1167.12 168.754C1167.22 169.028 1167.24 169.325 1167.18 169.61C1167.11 169.895 1166.96 170.155 1166.75 170.357C1166.54 170.559 1166.28 170.694 1165.99 170.746C1165.7 170.799 1165.4 170.765 1165.14 170.65C1164.87 170.536 1164.64 170.344 1164.48 170.101C1164.32 169.857 1164.23 169.571 1164.23 169.279C1164.23 169.081 1164.27 168.886 1164.35 168.705C1164.43 168.523 1164.54 168.36 1164.69 168.224C1164.98 167.943 1165.38 167.787 1165.79 167.788H1165.79ZM1179.04 167.788C1179.33 167.801 1179.61 167.899 1179.85 168.07C1180.08 168.242 1180.26 168.479 1180.37 168.753C1180.47 169.026 1180.49 169.324 1180.43 169.609C1180.36 169.894 1180.21 170.154 1180 170.356C1179.79 170.558 1179.53 170.694 1179.24 170.746C1178.95 170.799 1178.65 170.765 1178.38 170.651C1178.12 170.536 1177.89 170.345 1177.73 170.101C1177.56 169.857 1177.48 169.571 1177.48 169.279C1177.49 168.874 1177.66 168.49 1177.95 168.211C1178.24 167.931 1178.63 167.779 1179.04 167.788H1179.04ZM1192.28 167.788C1192.57 167.801 1192.86 167.899 1193.09 168.071C1193.33 168.243 1193.51 168.48 1193.61 168.754C1193.71 169.028 1193.73 169.325 1193.67 169.61C1193.6 169.895 1193.46 170.155 1193.25 170.357C1193.04 170.559 1192.77 170.694 1192.48 170.746C1192.19 170.799 1191.9 170.765 1191.63 170.65C1191.36 170.536 1191.13 170.344 1190.97 170.101C1190.81 169.857 1190.72 169.571 1190.72 169.279C1190.73 169.079 1190.77 168.881 1190.85 168.698C1190.93 168.514 1191.05 168.349 1191.19 168.21C1191.34 168.072 1191.51 167.963 1191.7 167.891C1191.88 167.818 1192.08 167.783 1192.28 167.788ZM1205.53 167.788C1205.82 167.801 1206.1 167.899 1206.34 168.07C1206.58 168.242 1206.76 168.479 1206.86 168.753C1206.96 169.026 1206.98 169.324 1206.92 169.609C1206.85 169.894 1206.71 170.154 1206.5 170.356C1206.29 170.558 1206.02 170.694 1205.73 170.746C1205.44 170.799 1205.15 170.765 1204.88 170.651C1204.61 170.536 1204.38 170.345 1204.22 170.101C1204.06 169.857 1203.97 169.571 1203.97 169.279C1203.98 168.875 1204.15 168.491 1204.44 168.211C1204.73 167.931 1205.13 167.779 1205.53 167.788ZM1218.78 167.788C1219.07 167.801 1219.35 167.899 1219.59 168.07C1219.82 168.242 1220 168.479 1220.11 168.753C1220.21 169.026 1220.23 169.324 1220.17 169.609C1220.1 169.894 1219.95 170.154 1219.74 170.356C1219.53 170.558 1219.27 170.694 1218.98 170.746C1218.69 170.799 1218.39 170.765 1218.13 170.651C1217.86 170.536 1217.63 170.345 1217.47 170.101C1217.31 169.857 1217.22 169.571 1217.22 169.279C1217.22 169.079 1217.27 168.881 1217.35 168.698C1217.43 168.514 1217.55 168.349 1217.69 168.21C1217.83 168.072 1218.01 167.963 1218.19 167.891C1218.38 167.818 1218.58 167.783 1218.78 167.788H1218.78ZM1099.55 182.888C1099.85 182.901 1100.13 182.999 1100.36 183.17C1100.6 183.342 1100.78 183.579 1100.88 183.853C1100.99 184.126 1101.01 184.424 1100.94 184.709C1100.88 184.994 1100.73 185.254 1100.52 185.456C1100.31 185.658 1100.04 185.794 1099.76 185.846C1099.47 185.899 1099.17 185.865 1098.9 185.751C1098.63 185.636 1098.4 185.445 1098.24 185.201C1098.08 184.957 1098 184.671 1098 184.379C1098.01 183.975 1098.17 183.591 1098.47 183.311C1098.76 183.031 1099.15 182.879 1099.55 182.888ZM1112.8 182.888C1113.09 182.901 1113.37 182.999 1113.61 183.171C1113.85 183.343 1114.03 183.58 1114.13 183.854C1114.23 184.128 1114.25 184.425 1114.19 184.71C1114.12 184.995 1113.98 185.255 1113.76 185.457C1113.55 185.659 1113.29 185.794 1113 185.846C1112.71 185.899 1112.42 185.865 1112.15 185.75C1111.88 185.636 1111.65 185.444 1111.49 185.201C1111.33 184.957 1111.24 184.671 1111.24 184.379C1111.25 184.178 1111.29 183.981 1111.37 183.798C1111.45 183.614 1111.57 183.449 1111.71 183.31C1111.86 183.172 1112.03 183.063 1112.22 182.991C1112.4 182.919 1112.6 182.884 1112.8 182.889L1112.8 182.888ZM1126.05 182.888C1126.34 182.901 1126.62 182.999 1126.86 183.17C1127.09 183.342 1127.28 183.579 1127.38 183.853C1127.48 184.126 1127.5 184.424 1127.44 184.709C1127.37 184.994 1127.23 185.254 1127.01 185.456C1126.8 185.658 1126.54 185.794 1126.25 185.846C1125.96 185.899 1125.67 185.865 1125.4 185.751C1125.13 185.636 1124.9 185.445 1124.74 185.201C1124.58 184.957 1124.49 184.671 1124.49 184.379C1124.5 183.975 1124.67 183.591 1124.96 183.311C1125.25 183.031 1125.64 182.879 1126.05 182.888ZM1139.29 182.888C1139.59 182.901 1139.87 182.999 1140.1 183.17C1140.34 183.342 1140.52 183.579 1140.63 183.853C1140.73 184.126 1140.75 184.424 1140.68 184.709C1140.62 184.994 1140.47 185.254 1140.26 185.456C1140.05 185.658 1139.78 185.794 1139.5 185.846C1139.21 185.899 1138.91 185.865 1138.64 185.751C1138.37 185.636 1138.15 185.445 1137.98 185.201C1137.82 184.957 1137.74 184.671 1137.74 184.379C1137.75 183.975 1137.92 183.591 1138.21 183.311C1138.5 183.031 1138.89 182.879 1139.29 182.888ZM1152.54 182.888C1152.83 182.901 1153.12 182.999 1153.35 183.17C1153.59 183.342 1153.77 183.579 1153.87 183.853C1153.98 184.126 1154 184.424 1153.93 184.709C1153.87 184.994 1153.72 185.254 1153.51 185.456C1153.3 185.658 1153.03 185.794 1152.74 185.846C1152.46 185.899 1152.16 185.865 1151.89 185.751C1151.62 185.636 1151.39 185.445 1151.23 185.201C1151.07 184.957 1150.98 184.671 1150.98 184.379C1150.99 184.179 1151.03 183.981 1151.11 183.798C1151.19 183.615 1151.31 183.449 1151.46 183.311C1151.6 183.172 1151.77 183.064 1151.96 182.991C1152.14 182.919 1152.34 182.884 1152.54 182.889L1152.54 182.888ZM1165.79 182.888C1166.08 182.901 1166.36 182.999 1166.6 183.171C1166.84 183.342 1167.02 183.58 1167.12 183.853C1167.22 184.127 1167.24 184.425 1167.18 184.71C1167.11 184.995 1166.96 185.254 1166.75 185.456C1166.54 185.658 1166.28 185.794 1165.99 185.846C1165.7 185.899 1165.41 185.865 1165.14 185.751C1164.87 185.636 1164.64 185.445 1164.48 185.201C1164.32 184.957 1164.23 184.671 1164.23 184.379C1164.23 184.178 1164.28 183.981 1164.36 183.797C1164.44 183.614 1164.56 183.448 1164.7 183.31C1164.85 183.171 1165.02 183.063 1165.21 182.991C1165.39 182.919 1165.59 182.884 1165.79 182.889L1165.79 182.888ZM1179.04 182.888C1179.33 182.901 1179.61 182.999 1179.85 183.17C1180.08 183.342 1180.26 183.579 1180.37 183.853C1180.47 184.126 1180.49 184.424 1180.43 184.709C1180.36 184.994 1180.21 185.254 1180 185.456C1179.79 185.658 1179.53 185.794 1179.24 185.846C1178.95 185.899 1178.65 185.865 1178.38 185.751C1178.12 185.636 1177.89 185.445 1177.73 185.201C1177.56 184.957 1177.48 184.671 1177.48 184.379C1177.48 184.178 1177.53 183.981 1177.61 183.798C1177.69 183.614 1177.8 183.449 1177.95 183.31C1178.09 183.172 1178.27 183.063 1178.45 182.991C1178.64 182.919 1178.84 182.884 1179.04 182.889L1179.04 182.888ZM1192.28 182.888C1192.57 182.901 1192.86 182.999 1193.09 183.171C1193.33 183.343 1193.51 183.58 1193.61 183.854C1193.71 184.128 1193.73 184.425 1193.67 184.71C1193.6 184.995 1193.46 185.255 1193.25 185.457C1193.04 185.659 1192.77 185.794 1192.48 185.846C1192.19 185.899 1191.9 185.865 1191.63 185.75C1191.36 185.636 1191.13 185.444 1190.97 185.201C1190.81 184.957 1190.72 184.671 1190.72 184.379C1190.73 184.178 1190.77 183.981 1190.85 183.797C1190.93 183.614 1191.05 183.448 1191.2 183.31C1191.34 183.171 1191.51 183.063 1191.7 182.991C1191.89 182.918 1192.09 182.884 1192.29 182.889L1192.28 182.888ZM1205.53 182.888C1205.82 182.901 1206.1 182.999 1206.34 183.17C1206.58 183.342 1206.76 183.579 1206.86 183.853C1206.96 184.126 1206.98 184.424 1206.92 184.709C1206.85 184.994 1206.71 185.254 1206.5 185.456C1206.29 185.658 1206.02 185.794 1205.73 185.846C1205.44 185.899 1205.15 185.865 1204.88 185.751C1204.61 185.636 1204.38 185.445 1204.22 185.201C1204.06 184.957 1203.97 184.671 1203.97 184.379C1203.98 183.975 1204.15 183.591 1204.44 183.311C1204.73 183.031 1205.13 182.879 1205.53 182.888ZM1218.78 182.888C1219.07 182.901 1219.35 182.999 1219.59 183.171C1219.82 183.343 1220 183.58 1220.11 183.854C1220.21 184.128 1220.23 184.425 1220.16 184.71C1220.1 184.995 1219.95 185.255 1219.74 185.457C1219.53 185.659 1219.26 185.794 1218.98 185.846C1218.69 185.899 1218.39 185.865 1218.12 185.75C1217.85 185.636 1217.63 185.444 1217.46 185.201C1217.3 184.957 1217.22 184.671 1217.22 184.379C1217.22 184.178 1217.27 183.98 1217.35 183.797C1217.43 183.613 1217.54 183.448 1217.69 183.309C1217.84 183.171 1218.01 183.062 1218.19 182.99C1218.38 182.918 1218.58 182.884 1218.78 182.889L1218.78 182.888ZM1099.55 197.988C1099.84 198.001 1100.12 198.099 1100.36 198.27C1100.6 198.442 1100.78 198.679 1100.88 198.953C1100.98 199.226 1101 199.524 1100.94 199.809C1100.87 200.094 1100.73 200.354 1100.52 200.556C1100.3 200.758 1100.04 200.894 1099.75 200.946C1099.46 200.999 1099.17 200.965 1098.9 200.851C1098.63 200.736 1098.4 200.545 1098.24 200.301C1098.08 200.057 1097.99 199.771 1097.99 199.479C1098 199.075 1098.17 198.691 1098.46 198.411C1098.75 198.131 1099.14 197.979 1099.55 197.988ZM1112.8 197.988C1113.09 198.001 1113.37 198.099 1113.61 198.27C1113.84 198.442 1114.02 198.679 1114.13 198.953C1114.23 199.226 1114.25 199.524 1114.19 199.809C1114.12 200.094 1113.97 200.354 1113.76 200.556C1113.55 200.758 1113.29 200.894 1113 200.946C1112.71 200.999 1112.41 200.965 1112.14 200.851C1111.88 200.736 1111.65 200.545 1111.49 200.301C1111.32 200.057 1111.24 199.771 1111.24 199.479C1111.25 199.075 1111.42 198.691 1111.71 198.411C1112 198.131 1112.39 197.979 1112.8 197.988ZM1126.04 197.988C1126.33 198.001 1126.62 198.099 1126.85 198.27C1127.09 198.442 1127.27 198.679 1127.37 198.953C1127.48 199.226 1127.5 199.524 1127.43 199.809C1127.37 200.094 1127.22 200.354 1127.01 200.556C1126.8 200.758 1126.53 200.894 1126.24 200.946C1125.96 200.999 1125.66 200.965 1125.39 200.851C1125.12 200.736 1124.89 200.545 1124.73 200.301C1124.57 200.057 1124.49 199.771 1124.49 199.479C1124.49 199.075 1124.66 198.691 1124.96 198.411C1125.25 198.131 1125.64 197.979 1126.04 197.988ZM1139.29 197.988C1139.58 198.001 1139.86 198.099 1140.1 198.27C1140.34 198.442 1140.52 198.679 1140.62 198.953C1140.72 199.226 1140.74 199.524 1140.68 199.809C1140.61 200.094 1140.47 200.354 1140.26 200.556C1140.05 200.758 1139.78 200.894 1139.49 200.946C1139.2 200.999 1138.91 200.965 1138.64 200.851C1138.37 200.736 1138.14 200.545 1137.98 200.301C1137.82 200.057 1137.73 199.771 1137.73 199.479C1137.74 199.075 1137.91 198.691 1138.2 198.411C1138.49 198.131 1138.89 197.979 1139.29 197.988ZM1152.54 197.988C1152.83 198.001 1153.11 198.099 1153.35 198.27C1153.58 198.442 1153.76 198.679 1153.87 198.953C1153.97 199.226 1153.99 199.524 1153.93 199.809C1153.86 200.094 1153.71 200.354 1153.5 200.556C1153.29 200.758 1153.03 200.894 1152.74 200.946C1152.45 200.999 1152.15 200.965 1151.89 200.851C1151.62 200.736 1151.39 200.545 1151.23 200.301C1151.07 200.057 1150.98 199.771 1150.98 199.479C1150.99 199.075 1151.16 198.691 1151.45 198.411C1151.74 198.131 1152.13 197.979 1152.54 197.988ZM1165.78 197.988C1166.08 198.001 1166.36 198.099 1166.59 198.27C1166.83 198.442 1167.01 198.679 1167.11 198.953C1167.22 199.226 1167.24 199.524 1167.17 199.809C1167.11 200.094 1166.96 200.354 1166.75 200.556C1166.54 200.758 1166.27 200.894 1165.99 200.946C1165.7 200.999 1165.4 200.965 1165.13 200.851C1164.86 200.736 1164.63 200.545 1164.47 200.301C1164.31 200.057 1164.23 199.771 1164.23 199.479C1164.24 199.075 1164.4 198.691 1164.7 198.411C1164.99 198.131 1165.38 197.979 1165.78 197.988ZM1179.03 197.988C1179.32 198.001 1179.6 198.099 1179.84 198.27C1180.08 198.442 1180.26 198.679 1180.36 198.953C1180.46 199.226 1180.48 199.524 1180.42 199.809C1180.36 200.094 1180.21 200.354 1180 200.556C1179.79 200.758 1179.52 200.894 1179.23 200.946C1178.95 200.999 1178.65 200.965 1178.38 200.851C1178.11 200.736 1177.88 200.545 1177.72 200.301C1177.56 200.057 1177.47 199.771 1177.47 199.479C1177.48 199.075 1177.65 198.691 1177.94 198.411C1178.24 198.131 1178.63 197.979 1179.03 197.988ZM1192.28 197.988C1192.57 198.001 1192.85 198.099 1193.09 198.27C1193.32 198.442 1193.51 198.679 1193.61 198.953C1193.71 199.226 1193.73 199.524 1193.67 199.809C1193.6 200.094 1193.46 200.354 1193.24 200.556C1193.03 200.758 1192.77 200.894 1192.48 200.946C1192.19 200.999 1191.9 200.965 1191.63 200.851C1191.36 200.736 1191.13 200.545 1190.97 200.301C1190.81 200.057 1190.72 199.771 1190.72 199.479C1190.73 199.075 1190.9 198.691 1191.19 198.411C1191.48 198.131 1191.87 197.979 1192.28 197.988ZM1205.52 197.988C1205.82 198.001 1206.1 198.099 1206.33 198.27C1206.57 198.442 1206.75 198.679 1206.86 198.953C1206.96 199.226 1206.98 199.524 1206.91 199.809C1206.85 200.094 1206.7 200.354 1206.49 200.556C1206.28 200.758 1206.01 200.894 1205.73 200.946C1205.44 200.999 1205.14 200.965 1204.87 200.851C1204.6 200.736 1204.38 200.545 1204.21 200.301C1204.05 200.057 1203.97 199.771 1203.97 199.479C1203.98 199.075 1204.15 198.691 1204.44 198.411C1204.73 198.131 1205.12 197.979 1205.52 197.988ZM1218.77 197.988C1219.06 198.001 1219.35 198.099 1219.58 198.27C1219.82 198.442 1220 198.679 1220.1 198.953C1220.21 199.226 1220.23 199.524 1220.16 199.809C1220.1 200.094 1219.95 200.354 1219.74 200.556C1219.53 200.758 1219.26 200.894 1218.97 200.946C1218.69 200.999 1218.39 200.965 1218.12 200.851C1217.85 200.736 1217.62 200.545 1217.46 200.301C1217.3 200.057 1217.21 199.771 1217.21 199.479C1217.22 199.075 1217.39 198.691 1217.68 198.411C1217.98 198.131 1218.37 197.979 1218.77 197.988ZM1099.55 213.088C1099.84 213.101 1100.12 213.199 1100.36 213.37C1100.6 213.542 1100.78 213.779 1100.88 214.053C1100.98 214.326 1101 214.624 1100.94 214.909C1100.87 215.194 1100.73 215.454 1100.52 215.656C1100.3 215.858 1100.04 215.994 1099.75 216.046C1099.46 216.099 1099.17 216.065 1098.9 215.951C1098.63 215.836 1098.4 215.645 1098.24 215.401C1098.08 215.157 1097.99 214.871 1097.99 214.579C1098 214.378 1098.04 214.18 1098.12 213.996C1098.2 213.812 1098.32 213.646 1098.46 213.508C1098.61 213.369 1098.78 213.261 1098.97 213.188C1099.15 213.116 1099.35 213.082 1099.56 213.087L1099.55 213.088ZM1112.8 213.088C1113.09 213.101 1113.37 213.199 1113.61 213.371C1113.84 213.543 1114.02 213.78 1114.13 214.054C1114.23 214.328 1114.25 214.625 1114.18 214.91C1114.12 215.195 1113.97 215.455 1113.76 215.657C1113.55 215.859 1113.28 215.994 1112.99 216.046C1112.71 216.098 1112.41 216.065 1112.14 215.95C1111.87 215.836 1111.64 215.644 1111.48 215.401C1111.32 215.157 1111.24 214.871 1111.24 214.579C1111.24 214.381 1111.28 214.186 1111.36 214.005C1111.43 213.823 1111.55 213.66 1111.69 213.524C1111.99 213.24 1112.39 213.083 1112.8 213.087L1112.8 213.088ZM1126.04 213.088C1126.33 213.101 1126.62 213.199 1126.85 213.37C1127.09 213.542 1127.27 213.779 1127.37 214.053C1127.48 214.326 1127.5 214.624 1127.43 214.909C1127.37 215.194 1127.22 215.454 1127.01 215.656C1126.8 215.858 1126.53 215.994 1126.24 216.046C1125.96 216.099 1125.66 216.065 1125.39 215.951C1125.12 215.836 1124.89 215.645 1124.73 215.401C1124.57 215.157 1124.49 214.871 1124.49 214.579C1124.49 214.378 1124.53 214.18 1124.61 213.996C1124.7 213.812 1124.81 213.646 1124.96 213.507C1125.1 213.369 1125.27 213.26 1125.46 213.188C1125.65 213.116 1125.85 213.081 1126.05 213.087L1126.04 213.088ZM1139.29 213.088C1139.58 213.101 1139.86 213.199 1140.1 213.37C1140.34 213.542 1140.52 213.779 1140.62 214.053C1140.72 214.326 1140.74 214.624 1140.68 214.909C1140.61 215.194 1140.47 215.454 1140.26 215.656C1140.05 215.858 1139.78 215.994 1139.49 216.046C1139.2 216.099 1138.91 216.065 1138.64 215.951C1138.37 215.836 1138.14 215.645 1137.98 215.401C1137.82 215.157 1137.73 214.871 1137.73 214.579C1137.74 214.378 1137.78 214.18 1137.86 213.996C1137.94 213.812 1138.06 213.646 1138.2 213.507C1138.35 213.369 1138.52 213.26 1138.71 213.188C1138.9 213.116 1139.1 213.081 1139.3 213.087L1139.29 213.088ZM1152.54 213.088C1152.83 213.101 1153.11 213.199 1153.35 213.37C1153.58 213.542 1153.76 213.779 1153.87 214.053C1153.97 214.326 1153.99 214.624 1153.93 214.909C1153.86 215.194 1153.71 215.454 1153.5 215.656C1153.29 215.858 1153.03 215.994 1152.74 216.046C1152.45 216.099 1152.15 216.065 1151.89 215.951C1151.62 215.836 1151.39 215.645 1151.23 215.401C1151.07 215.157 1150.98 214.871 1150.98 214.579C1150.98 214.378 1151.03 214.18 1151.11 213.996C1151.19 213.812 1151.31 213.646 1151.45 213.507C1151.6 213.369 1151.77 213.26 1151.96 213.188C1152.14 213.116 1152.34 213.081 1152.54 213.087L1152.54 213.088ZM1165.78 213.088C1166.08 213.101 1166.36 213.199 1166.59 213.37C1166.83 213.542 1167.01 213.779 1167.11 214.053C1167.22 214.326 1167.24 214.624 1167.17 214.909C1167.11 215.194 1166.96 215.454 1166.75 215.656C1166.54 215.858 1166.27 215.994 1165.99 216.046C1165.7 216.099 1165.4 216.065 1165.13 215.951C1164.86 215.836 1164.63 215.645 1164.47 215.401C1164.31 215.157 1164.23 214.871 1164.23 214.579C1164.24 214.175 1164.4 213.791 1164.7 213.511C1164.99 213.231 1165.38 213.079 1165.78 213.088ZM1179.03 213.088C1179.32 213.101 1179.6 213.199 1179.84 213.37C1180.08 213.542 1180.26 213.779 1180.36 214.053C1180.46 214.326 1180.48 214.624 1180.42 214.909C1180.36 215.194 1180.21 215.454 1180 215.656C1179.79 215.858 1179.52 215.994 1179.23 216.046C1178.95 216.099 1178.65 216.065 1178.38 215.951C1178.11 215.836 1177.88 215.645 1177.72 215.401C1177.56 215.157 1177.47 214.871 1177.47 214.579C1177.48 214.378 1177.52 214.18 1177.6 213.996C1177.68 213.812 1177.8 213.646 1177.95 213.507C1178.09 213.368 1178.26 213.26 1178.45 213.188C1178.64 213.116 1178.84 213.081 1179.04 213.087L1179.03 213.088ZM1192.28 213.088C1192.57 213.101 1192.85 213.199 1193.09 213.37C1193.32 213.542 1193.51 213.779 1193.61 214.053C1193.71 214.326 1193.73 214.624 1193.67 214.909C1193.6 215.194 1193.46 215.454 1193.24 215.656C1193.03 215.858 1192.77 215.994 1192.48 216.046C1192.19 216.099 1191.9 216.065 1191.63 215.951C1191.36 215.836 1191.13 215.645 1190.97 215.401C1190.81 215.157 1190.72 214.871 1190.72 214.579C1190.73 214.175 1190.9 213.791 1191.19 213.511C1191.48 213.231 1191.87 213.079 1192.28 213.088ZM1205.52 213.088C1205.82 213.101 1206.1 213.199 1206.33 213.37C1206.57 213.542 1206.75 213.779 1206.86 214.053C1206.96 214.326 1206.98 214.624 1206.91 214.909C1206.85 215.194 1206.7 215.454 1206.49 215.656C1206.28 215.858 1206.01 215.994 1205.73 216.046C1205.44 216.099 1205.14 216.065 1204.87 215.951C1204.6 215.836 1204.38 215.645 1204.21 215.401C1204.05 215.157 1203.97 214.871 1203.97 214.579C1203.98 214.175 1204.15 213.791 1204.44 213.511C1204.73 213.231 1205.12 213.079 1205.52 213.088ZM1218.77 213.088C1219.06 213.101 1219.35 213.199 1219.58 213.37C1219.82 213.542 1220 213.779 1220.1 214.053C1220.21 214.326 1220.23 214.624 1220.16 214.909C1220.1 215.194 1219.95 215.454 1219.74 215.656C1219.53 215.858 1219.26 215.994 1218.97 216.046C1218.69 216.099 1218.39 216.065 1218.12 215.951C1217.85 215.836 1217.62 215.645 1217.46 215.401C1217.3 215.157 1217.21 214.871 1217.21 214.579C1217.22 214.378 1217.26 214.18 1217.34 213.996C1217.42 213.812 1217.54 213.645 1217.69 213.507C1217.83 213.368 1218 213.26 1218.19 213.188C1218.38 213.115 1218.58 213.081 1218.78 213.087L1218.77 213.088Z" fill="#22469A"/>
<path fill-rule="evenodd" clip-rule="evenodd" d="M850.601 324.743H1221.11V618.702H850.601V324.743Z" fill="#14296E"/>
<path fill-rule="evenodd" clip-rule="evenodd" d="M1221.1 324.743H1406.36V618.702H1221.1V324.743Z" fill="#22469A"/>
<path fill-rule="evenodd" clip-rule="evenodd" d="M1221.1 339.689H1390.74L1406.36 324.744H1221.1V339.689Z" fill="#14296E"/>
<path fill-rule="evenodd" clip-rule="evenodd" d="M1221.1 367.933H1361.24L1376.85 352.988H1221.1V367.933Z" fill="#14296E"/>
<path d="M357.374 797.458V503.568H-75.313V-28.473L109.94 148.874H480.44V503.501H665.693V797.458H357.374Z" fill="#3166CB"/>
<path fill-rule="evenodd" clip-rule="evenodd" d="M-75.312 -205.82H295.188V148.874H-75.312V-205.82Z" fill="#14296E"/>
<path fill-rule="evenodd" clip-rule="evenodd" d="M295.191 -205.82H480.446V148.874H109.94L295.191 -28.4731V-205.82Z" fill="#22469A"/>
<path fill-rule="evenodd" clip-rule="evenodd" d="M480.443 -205.82H665.695V326.222H480.443V148.874H295.191L480.443 -28.4731V-205.82Z" fill="#14296E"/>
<path fill-rule="evenodd" clip-rule="evenodd" d="M665.695 503.569H480.443V326.221L665.695 148.874V503.569Z" fill="#254CA4"/>
<path fill-rule="evenodd" clip-rule="evenodd" d="M480.443 326.221V503.569L295.191 326.221L480.443 148.874V326.221Z" fill="#2D5EBF"/>
<path fill-rule="evenodd" clip-rule="evenodd" d="M-63.0352 370.365H97.6698C99.6607 373.682 101.428 377.128 102.959 380.68H-68.3262C-66.7947 377.128 -65.0264 373.682 -63.0352 370.365Z" fill="#14296E"/>
<path fill-rule="evenodd" clip-rule="evenodd" d="M-47.1798 350.872H81.8092C85.2427 354.059 88.4239 357.508 91.3242 361.187H-56.6958C-53.7956 357.508 -50.6144 354.059 -47.1808 350.872H-47.1798Z" fill="#14296E"/>
<path fill-rule="evenodd" clip-rule="evenodd" d="M-14.9809 331.378H49.6091C56.8625 333.96 63.7707 337.424 70.1781 341.693H-35.5459C-29.1385 337.424 -22.2303 333.96 -14.9769 331.378H-14.9809Z" fill="#14296E"/>
<path fill-rule="evenodd" clip-rule="evenodd" d="M109.94 148.874H202.566V503.569H109.94V148.874Z" fill="#1D3C8A"/>
<path fill-rule="evenodd" clip-rule="evenodd" d="M201.838 148.874H240.682V503.569H201.838V148.874Z" fill="#14296E"/>
<path fill-rule="evenodd" clip-rule="evenodd" d="M480.443 133.933H650.082L665.694 148.878H480.443V133.933Z" fill="#3166CB"/>
<path fill-rule="evenodd" clip-rule="evenodd" d="M480.443 105.686H620.579L636.191 120.632H480.443V105.686Z" fill="#3166CB"/>
<path fill-rule="evenodd" clip-rule="evenodd" d="M480.443 77.439H591.076L606.688 92.384H480.443V77.439Z" fill="#3166CB"/>
<path fill-rule="evenodd" clip-rule="evenodd" d="M480.443 49.194H561.572L577.183 64.139H480.443V49.194Z" fill="#3166CB"/>
<path fill-rule="evenodd" clip-rule="evenodd" d="M480.443 20.9509H532.069L547.68 35.8959H480.443V20.9509Z" fill="#3166CB"/>
<path fill-rule="evenodd" clip-rule="evenodd" d="M480.443 -7.29407H502.562L518.173 7.65093H480.443V-7.29407Z" fill="#3166CB"/>
<path fill-rule="evenodd" clip-rule="evenodd" d="M220.868 382.284C220.827 381.366 221.062 380.457 221.542 379.674C222.022 378.891 222.726 378.269 223.563 377.89C224.4 377.51 225.331 377.39 226.236 377.544C227.142 377.699 227.981 378.121 228.644 378.756C229.308 379.391 229.766 380.211 229.96 381.109C230.154 382.007 230.074 382.942 229.731 383.795C229.389 384.647 228.798 385.378 228.037 385.892C227.276 386.406 226.378 386.68 225.459 386.679C224.268 386.703 223.115 386.254 222.255 385.43C221.394 384.607 220.895 383.475 220.868 382.284ZM220.868 344.91C220.827 343.992 221.062 343.083 221.542 342.3C222.022 341.517 222.726 340.895 223.563 340.516C224.4 340.136 225.331 340.016 226.236 340.17C227.142 340.325 227.981 340.747 228.644 341.382C229.308 342.017 229.766 342.837 229.96 343.735C230.154 344.633 230.074 345.568 229.731 346.421C229.389 347.273 228.798 348.004 228.037 348.518C227.276 349.032 226.378 349.306 225.459 349.305C224.268 349.329 223.115 348.88 222.255 348.056C221.394 347.233 220.895 346.101 220.868 344.91ZM220.868 307.535C220.827 306.617 221.062 305.708 221.542 304.925C222.022 304.142 222.726 303.52 223.563 303.141C224.4 302.761 225.331 302.641 226.236 302.795C227.142 302.95 227.981 303.372 228.644 304.007C229.308 304.642 229.766 305.462 229.96 306.36C230.154 307.258 230.074 308.193 229.731 309.046C229.389 309.898 228.798 310.629 228.037 311.143C227.276 311.657 226.378 311.931 225.459 311.93C224.268 311.954 223.115 311.505 222.255 310.681C221.394 309.858 220.895 308.726 220.868 307.535ZM220.868 270.16C220.827 269.242 221.062 268.333 221.542 267.55C222.022 266.767 222.726 266.145 223.563 265.766C224.4 265.386 225.331 265.266 226.236 265.42C227.142 265.575 227.981 265.997 228.644 266.632C229.308 267.267 229.766 268.087 229.96 268.985C230.154 269.883 230.074 270.818 229.731 271.671C229.389 272.523 228.798 273.254 228.037 273.768C227.276 274.282 226.378 274.556 225.459 274.555C224.268 274.579 223.115 274.13 222.255 273.306C221.394 272.483 220.895 271.351 220.868 270.16ZM267.357 419.66C267.316 418.742 267.551 417.833 268.031 417.05C268.511 416.267 269.215 415.645 270.052 415.266C270.889 414.886 271.82 414.766 272.725 414.92C273.631 415.075 274.47 415.497 275.133 416.132C275.797 416.767 276.255 417.587 276.449 418.485C276.643 419.383 276.563 420.318 276.22 421.171C275.878 422.023 275.287 422.754 274.526 423.268C273.765 423.782 272.867 424.056 271.948 424.055C270.757 424.079 269.604 423.63 268.744 422.806C267.883 421.983 267.384 420.851 267.357 419.66ZM267.357 382.286C267.316 381.368 267.551 380.459 268.031 379.676C268.511 378.893 269.215 378.271 270.052 377.892C270.889 377.512 271.82 377.392 272.725 377.546C273.631 377.701 274.47 378.123 275.133 378.758C275.797 379.393 276.255 380.213 276.449 381.111C276.643 382.009 276.563 382.944 276.22 383.797C275.878 384.649 275.287 385.38 274.526 385.894C273.765 386.408 272.867 386.682 271.948 386.681C270.756 386.706 269.603 386.256 268.742 385.432C267.882 384.608 267.383 383.476 267.356 382.284L267.357 382.286ZM267.357 344.912C267.316 343.994 267.551 343.085 268.031 342.302C268.511 341.519 269.215 340.897 270.052 340.518C270.889 340.138 271.82 340.018 272.725 340.172C273.631 340.327 274.47 340.749 275.133 341.384C275.797 342.019 276.255 342.839 276.449 343.737C276.643 344.635 276.563 345.57 276.22 346.423C275.878 347.275 275.287 348.006 274.526 348.52C273.765 349.034 272.867 349.308 271.948 349.307C270.756 349.332 269.603 348.882 268.742 348.058C267.882 347.234 267.383 346.102 267.356 344.91L267.357 344.912ZM267.357 307.537C267.316 306.619 267.551 305.71 268.031 304.927C268.511 304.144 269.215 303.522 270.052 303.143C270.889 302.763 271.82 302.643 272.725 302.797C273.631 302.952 274.47 303.374 275.133 304.009C275.797 304.644 276.255 305.464 276.449 306.362C276.643 307.26 276.563 308.195 276.22 309.048C275.878 309.9 275.287 310.631 274.526 311.145C273.765 311.659 272.867 311.933 271.948 311.932C270.756 311.957 269.603 311.507 268.742 310.683C267.882 309.859 267.383 308.727 267.356 307.535L267.357 307.537ZM267.357 270.162C267.316 269.244 267.551 268.335 268.031 267.552C268.511 266.769 269.215 266.147 270.052 265.768C270.889 265.388 271.82 265.268 272.725 265.422C273.631 265.577 274.47 265.999 275.133 266.634C275.797 267.269 276.255 268.089 276.449 268.987C276.643 269.885 276.563 270.82 276.22 271.673C275.878 272.525 275.287 273.256 274.526 273.77C273.765 274.284 272.867 274.558 271.948 274.557C270.757 274.582 269.605 274.133 268.744 273.31C267.883 272.486 267.384 271.355 267.356 270.164L267.357 270.162ZM267.357 232.788C267.317 231.87 267.553 230.962 268.034 230.179C268.515 229.397 269.219 228.776 270.056 228.397C270.892 228.018 271.823 227.899 272.729 228.054C273.634 228.209 274.472 228.631 275.135 229.267C275.799 229.902 276.256 230.722 276.449 231.62C276.643 232.518 276.563 233.453 276.22 234.305C275.877 235.157 275.287 235.887 274.526 236.401C273.764 236.915 272.866 237.189 271.948 237.188C270.755 237.213 269.601 236.763 268.74 235.937C267.879 235.111 267.381 233.978 267.356 232.785L267.357 232.788ZM313.846 419.661C313.805 418.743 314.04 417.834 314.52 417.051C315 416.268 315.704 415.646 316.541 415.267C317.378 414.887 318.309 414.767 319.214 414.921C320.12 415.076 320.959 415.498 321.622 416.133C322.286 416.768 322.744 417.588 322.938 418.486C323.132 419.384 323.052 420.319 322.709 421.172C322.367 422.024 321.776 422.755 321.015 423.269C320.254 423.783 319.356 424.057 318.437 424.056C317.246 424.08 316.093 423.631 315.233 422.807C314.372 421.984 313.873 420.852 313.846 419.661ZM313.846 382.287C313.805 381.369 314.04 380.46 314.52 379.677C315 378.894 315.704 378.272 316.541 377.893C317.378 377.513 318.309 377.393 319.214 377.547C320.12 377.702 320.959 378.124 321.622 378.759C322.286 379.394 322.744 380.214 322.938 381.112C323.132 382.01 323.052 382.945 322.709 383.798C322.367 384.65 321.776 385.381 321.015 385.895C320.254 386.409 319.356 386.683 318.437 386.682C317.245 386.707 316.092 386.257 315.231 385.433C314.37 384.608 313.872 383.476 313.845 382.284L313.846 382.287ZM313.846 344.913C313.805 343.995 314.04 343.086 314.52 342.303C315 341.52 315.704 340.898 316.541 340.519C317.378 340.139 318.309 340.019 319.214 340.173C320.12 340.328 320.959 340.75 321.622 341.385C322.286 342.02 322.744 342.84 322.938 343.738C323.132 344.636 323.052 345.571 322.709 346.424C322.367 347.276 321.776 348.007 321.015 348.521C320.254 349.035 319.356 349.309 318.437 349.308C317.245 349.333 316.092 348.883 315.231 348.059C314.37 347.234 313.872 346.102 313.845 344.91L313.846 344.913ZM313.846 307.538C313.805 306.62 314.04 305.711 314.52 304.928C315 304.145 315.704 303.523 316.541 303.144C317.378 302.764 318.309 302.644 319.214 302.798C320.12 302.953 320.959 303.375 321.622 304.01C322.286 304.645 322.744 305.465 322.938 306.363C323.132 307.261 323.052 308.196 322.709 309.049C322.367 309.901 321.776 310.632 321.015 311.146C320.254 311.66 319.356 311.934 318.437 311.933C317.245 311.958 316.092 311.508 315.231 310.684C314.37 309.859 313.872 308.727 313.845 307.535L313.846 307.538ZM313.846 270.163C313.805 269.245 314.04 268.336 314.52 267.553C315 266.77 315.704 266.148 316.541 265.769C317.378 265.389 318.309 265.269 319.214 265.423C320.12 265.578 320.959 266 321.622 266.635C322.286 267.27 322.744 268.09 322.938 268.988C323.132 269.886 323.052 270.821 322.709 271.674C322.367 272.526 321.776 273.257 321.015 273.771C320.254 274.285 319.356 274.559 318.437 274.558C317.246 274.583 316.093 274.134 315.233 273.31C314.372 272.486 313.873 271.355 313.845 270.164L313.846 270.163ZM313.846 232.789C313.806 231.871 314.042 230.963 314.523 230.18C315.004 229.398 315.708 228.777 316.545 228.398C317.381 228.019 318.312 227.9 319.218 228.055C320.123 228.21 320.961 228.632 321.624 229.268C322.288 229.903 322.745 230.723 322.938 231.621C323.132 232.519 323.052 233.454 322.709 234.306C322.366 235.158 321.776 235.888 321.015 236.402C320.253 236.916 319.355 237.19 318.437 237.189C317.244 237.214 316.09 236.764 315.229 235.938C314.368 235.112 313.87 233.978 313.845 232.785L313.846 232.789ZM360.335 382.289C360.294 381.371 360.529 380.462 361.009 379.679C361.489 378.896 362.193 378.274 363.03 377.895C363.867 377.515 364.798 377.395 365.703 377.549C366.609 377.704 367.448 378.126 368.111 378.761C368.775 379.396 369.233 380.216 369.427 381.114C369.621 382.012 369.541 382.947 369.198 383.8C368.856 384.652 368.265 385.383 367.504 385.897C366.743 386.411 365.845 386.685 364.926 386.684C363.735 386.708 362.582 386.259 361.722 385.435C360.861 384.612 360.362 383.48 360.335 382.289ZM360.335 344.915C360.294 343.997 360.529 343.088 361.009 342.305C361.489 341.522 362.193 340.9 363.03 340.521C363.867 340.141 364.798 340.021 365.703 340.175C366.609 340.33 367.448 340.752 368.111 341.387C368.775 342.022 369.233 342.842 369.427 343.74C369.621 344.638 369.541 345.573 369.198 346.426C368.856 347.278 368.265 348.009 367.504 348.523C366.743 349.037 365.845 349.311 364.926 349.31C363.734 349.335 362.58 348.885 361.719 348.06C360.858 347.235 360.36 346.102 360.334 344.91L360.335 344.915ZM360.335 307.54C360.294 306.622 360.529 305.713 361.009 304.93C361.489 304.147 362.193 303.525 363.03 303.146C363.867 302.766 364.798 302.646 365.703 302.8C366.609 302.955 367.448 303.377 368.111 304.012C368.775 304.647 369.233 305.467 369.427 306.365C369.621 307.263 369.541 308.198 369.198 309.051C368.856 309.903 368.265 310.634 367.504 311.148C366.743 311.662 365.845 311.936 364.926 311.935C363.734 311.96 362.58 311.51 361.719 310.685C360.858 309.86 360.36 308.727 360.334 307.535L360.335 307.54ZM360.335 270.165C360.294 269.247 360.529 268.338 361.009 267.555C361.489 266.772 362.193 266.15 363.03 265.771C363.867 265.391 364.798 265.271 365.703 265.425C366.609 265.58 367.448 266.002 368.111 266.637C368.775 267.272 369.233 268.092 369.427 268.99C369.621 269.888 369.541 270.823 369.198 271.676C368.856 272.528 368.265 273.259 367.504 273.773C366.743 274.287 365.845 274.561 364.926 274.56C363.734 274.585 362.582 274.136 361.721 273.311C360.86 272.487 360.361 271.355 360.334 270.164L360.335 270.165Z" fill="#254CA4"/>
<path fill-rule="evenodd" clip-rule="evenodd" d="M1406.02 353.127H1838.7V469.741H1406.02V353.127Z" fill="#264FA8"/>
<path d="M1838.7 469.741V175.852H1406.02V-356.189L1591.27 -178.842H1961.77V175.784H2147.02V469.741H1838.7Z" fill="#3166CB"/>
<path fill-rule="evenodd" clip-rule="evenodd" d="M1776.52 175.781L1961.77 353.127H1591.27L1469.46 469.741H1406.02V175.781H1776.52Z" fill="#14296E"/>
<path fill-rule="evenodd" clip-rule="evenodd" d="M1591.27 190.726H1760.91L1776.52 175.78H1591.27V190.726Z" fill="#23499F"/>
<path fill-rule="evenodd" clip-rule="evenodd" d="M1591.27 218.969H1731.4L1747.01 204.024H1591.27V218.969Z" fill="#23499F"/>
<path fill-rule="evenodd" clip-rule="evenodd" d="M1591.27 247.214H1701.9L1717.51 232.269H1591.27V247.214Z" fill="#23499F"/>
<path fill-rule="evenodd" clip-rule="evenodd" d="M1591.27 275.462H1672.39L1688.01 260.516H1591.27V275.462Z" fill="#23499F"/>
<path fill-rule="evenodd" clip-rule="evenodd" d="M1591.27 303.704H1642.89L1658.5 288.759H1591.27V303.704Z" fill="#23499F"/>
<path fill-rule="evenodd" clip-rule="evenodd" d="M1591.27 331.949H1613.39L1629 317.004H1591.27V331.949Z" fill="#23499F"/>
<path fill-rule="evenodd" clip-rule="evenodd" d="M1599.5 345.248H1591.27V353.128L1599.5 345.248Z" fill="#23499F"/>
<path fill-rule="evenodd" clip-rule="evenodd" d="M1445.78 159.606H1551.5C1545.1 163.874 1538.19 167.338 1530.94 169.921H1466.35C1459.09 167.338 1452.19 163.874 1445.78 159.606Z" fill="#14296E"/>
<path fill-rule="evenodd" clip-rule="evenodd" d="M1424.63 140.114H1572.65C1569.75 143.793 1566.57 147.242 1563.14 150.429H1434.15C1430.72 147.242 1427.54 143.793 1424.64 140.114H1424.63Z" fill="#14296E"/>
<path fill-rule="evenodd" clip-rule="evenodd" d="M1413 120.622H1584.28C1582.75 124.174 1580.98 127.62 1578.99 130.937H1418.29C1416.3 127.62 1414.53 124.174 1413 120.622H1413Z" fill="#14296E"/>
<path fill-rule="evenodd" clip-rule="evenodd" d="M1407.23 101.127H1590.06C1589.46 104.612 1588.66 108.057 1587.64 111.442H1409.65C1408.63 108.057 1407.82 104.612 1407.23 101.127Z" fill="#14296E"/>
<path fill-rule="evenodd" clip-rule="evenodd" d="M1406.17 81.6289H1591.11C1591.21 83.3369 1591.27 85.0549 1591.27 86.7869C1591.27 88.5189 1591.21 90.2429 1591.11 91.9449H1406.17C1406.08 90.2949 1406.02 88.6309 1406.02 86.9569V86.6379C1406.02 84.9569 1406.08 83.2879 1406.17 81.6289Z" fill="#14296E"/>
<path fill-rule="evenodd" clip-rule="evenodd" d="M1409.65 62.1418H1587.63C1588.65 65.5266 1589.46 68.9716 1590.05 72.4568H1407.23C1407.82 68.9716 1408.63 65.5266 1409.65 62.1418Z" fill="#14296E"/>
<path fill-rule="evenodd" clip-rule="evenodd" d="M1418.29 42.6479H1579C1580.99 45.9646 1582.75 49.4106 1584.29 52.963H1413C1414.53 49.4106 1416.3 45.9646 1418.29 42.6479Z" fill="#14296E"/>
<path fill-rule="evenodd" clip-rule="evenodd" d="M1434.15 23.1549H1563.14C1566.57 26.3422 1569.75 29.7908 1572.65 33.4699H1424.63C1427.53 29.7907 1430.71 26.3421 1434.15 23.1549H1434.15Z" fill="#14296E"/>
<path fill-rule="evenodd" clip-rule="evenodd" d="M1466.35 3.66089H1530.94C1538.19 6.24279 1545.1 9.70713 1551.51 13.9759H1445.78C1452.19 9.70703 1459.1 6.24269 1466.35 3.66089H1466.35Z" fill="#14296E"/>
<path fill-rule="evenodd" clip-rule="evenodd" d="M1591.27 -178.843H1683.89V175.852H1591.27V-178.843Z" fill="#1D3C8A"/>
<path fill-rule="evenodd" clip-rule="evenodd" d="M1625.39 469.741V353.127H1634.41V469.741H1625.39Z" fill="#3166CB"/>
<path fill-rule="evenodd" clip-rule="evenodd" d="M1608.33 469.741V353.127H1617.35V469.741H1608.33Z" fill="#3166CB"/>
<path fill-rule="evenodd" clip-rule="evenodd" d="M1591.27 469.741V353.127H1600.29V469.741H1591.27Z" fill="#3166CB"/>
<path d="M1504.04 263.353C1504.2 264.061 1504.45 264.745 1504.78 265.387C1507.14 269.944 1518.55 293.101 1511.26 300.472C1503.7 308.132 1474.13 316.645 1476.23 320.161C1478.33 323.677 1516.29 324.332 1529.58 307.006C1537.81 296.283 1501.28 250.453 1504.04 263.353Z" fill="#4285F4" fill-opacity="0.51"/>
<path d="M1515.55 231.53C1514.94 231.942 1514.28 232.274 1513.59 232.516C1508.71 234.266 1484.33 243.532 1484.54 253.816C1484.77 264.5 1500.49 290.589 1496.52 291.748C1492.54 292.907 1464.34 267.886 1466.62 246.287C1468.04 232.922 1526.5 223.957 1515.55 231.53Z" fill="#4285F4" fill-opacity="0.51"/>
</g>
</g>
</g>
<defs>
<clipPath id="clip0_474_182">
<rect width="1640" height="371" fill="white"/>
</clipPath>
</defs>
</svg>
