<svg width="188" height="53" viewBox="0 0 188 53" fill="none" xmlns="http://www.w3.org/2000/svg">
<g clip-path="url(#clip0_2804_445)">
<path d="M186.246 46.8877C186.246 49.7121 183.871 52 180.933 52H7.07425C4.13801 52 1.75464 49.7121 1.75464 46.8877V6.11897C1.75464 3.29587 4.13801 1.00001 7.07425 1.00001H180.932C183.871 1.00001 186.245 3.29587 186.245 6.11897L186.246 46.8877Z" fill="black"/>
<path d="M180.372 1.06166C183.571 1.06166 186.174 3.55763 186.174 6.625V46.375C186.174 49.4424 183.571 51.9383 180.372 51.9383H7.62735C4.4281 51.9383 1.82482 49.4424 1.82482 46.375V6.625C1.82482 3.55763 4.4281 1.06166 7.62735 1.06166H180.372ZM180.372 3.8147e-06H7.62735C3.82867 3.8147e-06 0.717529 2.98291 0.717529 6.625V46.375C0.717529 50.0171 3.82867 53 7.62735 53H180.372C184.171 53 187.282 50.0171 187.282 46.375V6.625C187.282 2.98291 184.171 3.8147e-06 180.372 3.8147e-06Z" fill="black"/>
<path d="M42.3536 26.2138C42.3136 21.9433 46.0006 19.8657 46.1692 19.769C44.0811 16.85 40.8445 16.4512 39.7071 16.4194C36.9889 16.1451 34.352 17.9789 32.9673 17.9789C31.555 17.9789 29.4225 16.4459 27.1243 16.491C24.167 16.5347 21.4003 18.1764 19.8829 20.7257C16.7513 25.9236 19.0868 33.5623 22.0871 37.7638C23.5879 39.8216 25.3416 42.1191 27.6371 42.0383C29.8828 41.9495 30.7216 40.6656 33.4317 40.6656C36.1168 40.6656 36.9045 42.0383 39.2456 41.9866C41.6557 41.9495 43.1731 39.9196 44.6214 37.8433C46.3557 35.4848 47.0523 33.1621 47.0799 33.0429C47.0232 33.0243 42.3993 31.3323 42.3536 26.2138Z" fill="white"/>
<path d="M37.9314 13.6555C39.1392 12.2072 39.9657 10.237 39.7362 8.23753C37.9881 8.31173 35.8018 9.39692 34.5428 10.8133C33.429 12.0615 32.4339 14.1073 32.6909 16.0312C34.6547 16.1716 36.6711 15.0812 37.9314 13.6555Z" fill="white"/>
<path d="M68.5031 13.2619C68.5031 14.8215 68.0152 15.9954 67.0409 16.7838C66.1385 17.5112 64.8561 17.8756 63.1949 17.8756C62.3713 17.8756 61.6665 17.8411 61.0764 17.7722V9.25115C61.8462 9.1319 62.6753 9.07095 63.5708 9.07095C65.1531 9.07095 66.3459 9.40087 67.1501 10.0607C68.0512 10.8067 68.5031 11.8733 68.5031 13.2619ZM66.976 13.3003C66.976 12.2894 66.6969 11.5142 66.1385 10.9736C65.5802 10.4344 64.7648 10.1641 63.6911 10.1641C63.235 10.1641 62.8468 10.1932 62.5247 10.2542V16.7321C62.703 16.7586 63.0292 16.7705 63.5032 16.7705C64.6115 16.7705 65.4669 16.4751 66.0695 15.8841C66.6719 15.2932 66.976 14.4319 66.976 13.3003Z" fill="white"/>
<path d="M76.6002 14.624C76.6002 15.5847 76.3142 16.3717 75.742 16.9892C75.1423 17.6238 74.3477 17.9405 73.3555 17.9405C72.3991 17.9405 71.6376 17.6371 71.0696 17.0276C70.503 16.4194 70.2197 15.6522 70.2197 14.7274C70.2197 13.7601 70.5113 12.9665 71.0973 12.3503C71.6833 11.7342 72.471 11.4255 73.4632 11.4255C74.4194 11.4255 75.1878 11.7289 75.7696 12.3371C76.3224 12.928 76.6002 13.6912 76.6002 14.624ZM75.098 14.6691C75.098 14.0927 74.9681 13.5985 74.7098 13.1864C74.4057 12.6882 73.9731 12.4391 73.4107 12.4391C72.8289 12.4391 72.3866 12.6882 72.0826 13.1864C71.8227 13.5985 71.6943 14.1007 71.6943 14.6943C71.6943 15.2706 71.8242 15.7649 72.0826 16.1769C72.3964 16.6751 72.8331 16.9242 73.3968 16.9242C73.9496 16.9242 74.3836 16.6712 74.6958 16.1637C74.9639 15.7437 75.098 15.2455 75.098 14.6691Z" fill="white"/>
<path d="M87.4563 11.5527L85.4179 17.7987H84.0913L83.2468 15.0864C83.0327 14.4094 82.8585 13.7363 82.7232 13.0685H82.6969C82.5711 13.7548 82.397 14.4266 82.1731 15.0864L81.2761 17.7987H79.9343L78.0176 11.5527H79.5059L80.2424 14.522C80.4208 15.2242 80.5672 15.8934 80.6847 16.5267H80.711C80.8188 16.0047 80.997 15.3395 81.2486 14.5352L82.1731 11.554H83.3533L84.2391 14.4716C84.4534 15.1832 84.6274 15.8682 84.7615 16.528H84.8017C84.8997 15.8854 85.0476 15.2004 85.2438 14.4716L86.0343 11.554L87.4563 11.5527Z" fill="white"/>
<path d="M94.9648 17.7987H93.5165V14.2212C93.5165 13.1188 93.0798 12.5676 92.2037 12.5676C91.7738 12.5676 91.427 12.7187 91.1576 13.0221C90.8908 13.3255 90.7553 13.6833 90.7553 14.0927V17.7974H89.307V13.3375C89.307 12.7889 89.2891 12.194 89.2546 11.55H90.5273L90.595 12.5266H90.6352C90.8037 12.2231 91.0553 11.9727 91.3855 11.7726C91.778 11.5394 92.2174 11.4215 92.6985 11.4215C93.3065 11.4215 93.8123 11.6097 94.2144 11.9873C94.7147 12.4497 94.9648 13.14 94.9648 14.0569V17.7987Z" fill="white"/>
<path d="M98.9591 17.7987H97.5122V8.6867H98.9591V17.7987Z" fill="white"/>
<path d="M107.486 14.624C107.486 15.5847 107.2 16.3717 106.628 16.9892C106.028 17.6238 105.232 17.9405 104.241 17.9405C103.284 17.9405 102.522 17.6371 101.955 17.0276C101.389 16.4194 101.106 15.6522 101.106 14.7274C101.106 13.7601 101.397 12.9665 101.983 12.3503C102.569 11.7342 103.357 11.4255 104.348 11.4255C105.305 11.4255 106.072 11.7289 106.655 12.3371C107.208 12.928 107.486 13.6912 107.486 14.624ZM105.983 14.6691C105.983 14.0927 105.853 13.5985 105.594 13.1864C105.292 12.6882 104.858 12.4391 104.297 12.4391C103.713 12.4391 103.271 12.6882 102.968 13.1864C102.709 13.5985 102.58 14.1007 102.58 14.6943C102.58 15.2706 102.71 15.7649 102.968 16.1769C103.282 16.6751 103.719 16.9242 104.283 16.9242C104.835 16.9242 105.268 16.6712 105.58 16.1637C105.85 15.7437 105.983 15.2455 105.983 14.6691Z" fill="white"/>
<path d="M114.495 17.7987H113.195L113.087 17.0793H113.047C112.602 17.653 111.968 17.9405 111.144 17.9405C110.529 17.9405 110.032 17.751 109.657 17.3747C109.317 17.0329 109.147 16.6076 109.147 16.1027C109.147 15.3395 109.479 14.7579 110.146 14.3551C110.813 13.9523 111.749 13.7548 112.956 13.7641V13.6475C112.956 12.8247 112.505 12.4139 111.603 12.4139C110.96 12.4139 110.394 12.569 109.905 12.8764L109.61 11.9648C110.216 11.6057 110.963 11.4255 111.845 11.4255C113.547 11.4255 114.401 12.2867 114.401 14.0092V16.3094C114.401 16.9335 114.433 17.4304 114.495 17.7987ZM112.992 15.6522V14.689C111.394 14.6625 110.596 15.0825 110.596 15.9477C110.596 16.2737 110.687 16.5175 110.873 16.6804C111.06 16.8434 111.298 16.9242 111.581 16.9242C111.899 16.9242 112.196 16.8275 112.467 16.6354C112.739 16.4419 112.906 16.1968 112.968 15.896C112.984 15.8285 112.992 15.7463 112.992 15.6522Z" fill="white"/>
<path d="M122.724 17.7987H121.439L121.371 16.7957H121.331C120.92 17.5589 120.221 17.9405 119.238 17.9405C118.453 17.9405 117.8 17.645 117.282 17.0541C116.763 16.4631 116.505 15.696 116.505 14.7539C116.505 13.7429 116.785 12.924 117.349 12.2986C117.895 11.7156 118.564 11.4241 119.36 11.4241C120.235 11.4241 120.847 11.7064 121.195 12.2721H121.223V8.6867H122.673V16.116C122.673 16.7242 122.689 17.2846 122.724 17.7987ZM121.223 15.1646V14.1232C121.223 13.943 121.209 13.7972 121.183 13.6859C121.101 13.352 120.926 13.0711 120.659 12.8445C120.39 12.618 120.065 12.504 119.69 12.504C119.15 12.504 118.727 12.7094 118.416 13.1215C118.108 13.5335 117.952 14.0596 117.952 14.7022C117.952 15.3196 118.1 15.8205 118.397 16.2061C118.711 16.6168 119.133 16.8222 119.663 16.8222C120.138 16.8222 120.518 16.6513 120.807 16.3081C121.086 15.9914 121.223 15.6098 121.223 15.1646Z" fill="white"/>
<path d="M135.111 14.624C135.111 15.5847 134.825 16.3717 134.252 16.9892C133.653 17.6238 132.859 17.9405 131.866 17.9405C130.911 17.9405 130.149 17.6371 129.58 17.0276C129.013 16.4194 128.73 15.6522 128.73 14.7274C128.73 13.7601 129.022 12.9665 129.608 12.3503C130.194 11.7342 130.981 11.4255 131.975 11.4255C132.93 11.4255 133.7 11.7289 134.28 12.3371C134.833 12.928 135.111 13.6912 135.111 14.624ZM133.61 14.6691C133.61 14.0927 133.48 13.5985 133.221 13.1864C132.916 12.6882 132.485 12.4391 131.921 12.4391C131.341 12.4391 130.898 12.6882 130.593 13.1864C130.333 13.5985 130.205 14.1007 130.205 14.6943C130.205 15.2706 130.335 15.7649 130.593 16.1769C130.907 16.6751 131.343 16.9242 131.907 16.9242C132.46 16.9242 132.895 16.6712 133.208 16.1637C133.474 15.7437 133.61 15.2455 133.61 14.6691Z" fill="white"/>
<path d="M142.898 17.7987H141.451V14.2212C141.451 13.1188 141.015 12.5676 140.137 12.5676C139.707 12.5676 139.36 12.7187 139.092 13.0221C138.824 13.3255 138.69 13.6833 138.69 14.0927V17.7974H137.241V13.3375C137.241 12.7889 137.224 12.194 137.189 11.55H138.461L138.528 12.5266H138.569C138.739 12.2231 138.99 11.9727 139.319 11.7726C139.713 11.5394 140.151 11.4215 140.633 11.4215C141.24 11.4215 141.746 11.6097 142.148 11.9873C142.65 12.4497 142.898 13.14 142.898 14.0569V17.7987Z" fill="white"/>
<path d="M152.645 12.5928H151.05V15.6271C151.05 16.3982 151.333 16.7838 151.894 16.7838C152.154 16.7838 152.37 16.7626 152.54 16.7189L152.577 17.7722C152.291 17.8756 151.915 17.9273 151.452 17.9273C150.881 17.9273 150.434 17.7603 150.113 17.4264C149.79 17.0925 149.629 16.5307 149.629 15.7423V12.5928H148.678V11.5527H149.629V10.4079L151.049 9.99713V11.5513H152.643L152.645 12.5928Z" fill="white"/>
<path d="M160.312 17.7987H158.863V14.2477C158.863 13.1281 158.427 12.5676 157.551 12.5676C156.88 12.5676 156.42 12.8922 156.169 13.5415C156.126 13.678 156.102 13.8449 156.102 14.041V17.7974H154.655V8.6867H156.102V12.451H156.129C156.585 11.766 157.238 11.4241 158.087 11.4241C158.686 11.4241 159.182 11.6123 159.576 11.9899C160.067 12.4603 160.312 13.1599 160.312 14.0847V17.7987Z" fill="white"/>
<path d="M168.221 14.3802C168.221 14.6293 168.203 14.8387 168.168 15.0096H163.824C163.844 15.6271 164.051 16.0974 164.453 16.4234C164.821 16.7149 165.295 16.8606 165.875 16.8606C166.518 16.8606 167.103 16.7626 167.631 16.5652L167.858 17.5298C167.241 17.7868 166.513 17.9153 165.672 17.9153C164.664 17.9153 163.869 17.6305 163.293 17.0607C162.716 16.491 162.431 15.7264 162.431 14.7671C162.431 13.8251 162.696 13.0407 163.234 12.4153C163.795 11.7475 164.555 11.4136 165.512 11.4136C166.449 11.4136 167.161 11.7475 167.641 12.4153C168.03 12.9453 168.221 13.6011 168.221 14.3802ZM166.839 14.0212C166.851 13.6091 166.756 13.254 166.559 12.9545C166.308 12.569 165.925 12.3755 165.407 12.3755C164.935 12.3755 164.549 12.5637 164.255 12.9413C164.013 13.2421 163.871 13.6011 163.824 14.0212H166.839Z" fill="white"/>
<path d="M74.8524 41.7428H71.714L69.9947 36.5633H64.0192L62.3815 41.7428H59.326L65.2463 24.1097H68.903L74.8524 41.7428ZM69.4765 34.3903L67.9218 29.786C67.7573 29.3156 67.4492 28.2079 66.9944 26.4642H66.9392C66.7582 27.2141 66.4666 28.3218 66.0658 29.786L64.5388 34.3903H69.4765Z" fill="white"/>
<path d="M90.0777 35.2291C90.0777 37.3915 89.4682 39.1007 88.2493 40.3555C87.1576 41.4725 85.8019 42.0303 84.1836 42.0303C82.4368 42.0303 81.182 41.4288 80.4178 40.2257H80.3625V46.9235H77.4161V33.2138C77.4161 31.8543 77.3788 30.4591 77.307 29.0281H79.8981L80.0626 31.0434H80.1178C81.1004 29.525 82.5915 28.7671 84.5927 28.7671C86.1571 28.7671 87.463 29.3593 88.5078 30.5452C89.5553 31.7324 90.0777 33.2933 90.0777 35.2291ZM87.076 35.3324C87.076 34.0949 86.7858 33.0746 86.2027 32.2717C85.5655 31.4343 84.7102 31.0156 83.6377 31.0156C82.9108 31.0156 82.2503 31.2488 81.6601 31.7086C81.0686 32.1723 80.6817 32.7778 80.5007 33.5278C80.4094 33.8776 80.3638 34.1638 80.3638 34.389V36.509C80.3638 37.4339 80.6596 38.2143 81.2511 38.8516C81.8425 39.489 82.6109 39.807 83.5562 39.807C84.6658 39.807 85.5296 39.3962 86.1473 38.5774C86.7664 37.7572 87.076 36.676 87.076 35.3324Z" fill="white"/>
<path d="M105.33 35.2291C105.33 37.3915 104.721 39.1007 103.5 40.3555C102.41 41.4725 101.054 42.0303 99.4359 42.0303C97.6891 42.0303 96.4343 41.4288 95.6714 40.2257H95.6162V46.9235H92.6697V33.2138C92.6697 31.8543 92.6324 30.4591 92.5607 29.0281H95.1518L95.3162 31.0434H95.3715C96.3527 29.525 97.8439 28.7671 99.8463 28.7671C101.409 28.7671 102.715 29.3593 103.763 30.5452C104.806 31.7324 105.33 33.2933 105.33 35.2291ZM102.328 35.3324C102.328 34.0949 102.037 33.0746 101.454 32.2717C100.816 31.4343 99.9639 31.0156 98.89 31.0156C98.1618 31.0156 97.5025 31.2488 96.9111 31.7086C96.3195 32.1723 95.934 32.7778 95.7529 33.5278C95.6631 33.8776 95.6162 34.1638 95.6162 34.389V36.509C95.6162 37.4339 95.9119 38.2143 96.5006 38.8516C97.092 39.4876 97.8604 39.807 98.8084 39.807C99.9182 39.807 100.782 39.3962 101.4 38.5774C102.019 37.7572 102.328 36.676 102.328 35.3324Z" fill="white"/>
<path d="M122.384 36.7979C122.384 38.2978 121.841 39.5181 120.751 40.4602C119.553 41.4897 117.885 42.0038 115.741 42.0038C113.762 42.0038 112.176 41.6381 110.975 40.9054L111.657 38.5509C112.951 39.3008 114.37 39.6771 115.917 39.6771C117.026 39.6771 117.89 39.436 118.511 38.9563C119.128 38.4767 119.436 37.8327 119.436 37.0298C119.436 36.3143 119.182 35.7114 118.672 35.2225C118.165 34.7335 117.318 34.2791 116.135 33.859C112.915 32.7076 111.306 31.0209 111.306 28.8028C111.306 27.3533 111.87 26.1648 112.999 25.2399C114.124 24.3137 115.625 23.8513 117.502 23.8513C119.175 23.8513 120.566 24.1309 121.675 24.6887L120.939 26.9916C119.902 26.451 118.73 26.1807 117.419 26.1807C116.382 26.1807 115.573 26.4258 114.992 26.9134C114.502 27.3493 114.256 27.8806 114.256 28.51C114.256 29.207 114.536 29.7833 115.1 30.2365C115.59 30.6552 116.482 31.1083 117.775 31.5973C119.358 32.2081 120.52 32.9223 121.268 33.7411C122.012 34.5573 122.384 35.5789 122.384 36.7979Z" fill="white"/>
<path d="M132.125 31.1481H128.878V37.3212C128.878 38.8914 129.45 39.6758 130.597 39.6758C131.123 39.6758 131.56 39.632 131.906 39.5446L131.987 41.6898C131.407 41.8978 130.643 42.0025 129.696 42.0025C128.532 42.0025 127.623 41.6619 126.966 40.9822C126.313 40.3012 125.984 39.159 125.984 37.5544V31.1454H124.049V29.0254H125.984V26.6974L128.878 25.86V29.0254H132.125V31.1481Z" fill="white"/>
<path d="M146.778 35.2808C146.778 37.2351 146.195 38.8397 145.031 40.0945C143.811 41.3864 142.192 42.0303 140.173 42.0303C138.227 42.0303 136.678 41.4115 135.522 40.174C134.367 38.9364 133.789 37.3743 133.789 35.4914C133.789 33.5212 134.384 31.9073 135.576 30.6525C136.766 29.3964 138.372 28.7684 140.391 28.7684C142.337 28.7684 143.903 29.3872 145.084 30.626C146.215 31.8278 146.778 33.3794 146.778 35.2808ZM143.721 35.3722C143.721 34.1996 143.46 33.1939 142.931 32.3552C142.313 31.3402 141.43 30.8341 140.286 30.8341C139.102 30.8341 138.202 31.3415 137.584 32.3552C137.055 33.1952 136.794 34.2168 136.794 35.4252C136.794 36.5978 137.055 37.6035 137.584 38.4409C138.221 39.4558 139.111 39.962 140.26 39.962C141.385 39.962 142.268 39.4452 142.905 38.4144C143.448 37.5598 143.721 36.5435 143.721 35.3722Z" fill="white"/>
<path d="M156.356 31.5125C156.064 31.4608 155.753 31.4343 155.427 31.4343C154.39 31.4343 153.589 31.8093 153.025 32.5605C152.534 33.223 152.289 34.0604 152.289 35.0714V41.7428H149.344L149.371 33.0322C149.371 31.5668 149.334 30.2325 149.26 29.0294H151.826L151.934 31.4621H152.016C152.327 30.626 152.818 29.9529 153.49 29.4481C154.146 28.9936 154.855 28.7671 155.618 28.7671C155.891 28.7671 156.138 28.7856 156.356 28.8187V31.5125Z" fill="white"/>
<path d="M169.531 34.7839C169.531 35.29 169.497 35.7167 169.424 36.0652H160.585C160.619 37.3213 161.046 38.2819 161.867 38.9444C162.613 39.5367 163.576 39.8335 164.758 39.8335C166.067 39.8335 167.261 39.6334 168.335 39.2319L168.797 41.1929C167.541 41.7176 166.06 41.9786 164.351 41.9786C162.294 41.9786 160.68 41.3983 159.506 40.2389C158.333 39.0795 157.746 37.5227 157.746 35.5696C157.746 33.6523 158.292 32.0557 159.385 30.7824C160.529 29.4229 162.076 28.7432 164.022 28.7432C165.934 28.7432 167.38 29.4229 168.362 30.7824C169.141 31.8623 169.531 33.1979 169.531 34.7839ZM166.722 34.0512C166.742 33.2138 166.549 32.4903 166.15 31.8795C165.639 31.0938 164.856 30.7016 163.803 30.7016C162.838 30.7016 162.055 31.0845 161.458 31.853C160.967 32.4638 160.674 33.1965 160.585 34.0498H166.722V34.0512Z" fill="white"/>
</g>
<defs>
<clipPath id="clip0_2804_445">
<rect width="188" height="53" fill="white"/>
</clipPath>
</defs>
</svg>
