<svg width="188" height="53" viewBox="0 0 188 53" fill="none" xmlns="http://www.w3.org/2000/svg">
<g clip-path="url(#clip0_2804_471)">
<path d="M180.107 0H7.8931C3.93014 0 0.717529 3.20661 0.717529 7.16216V45.8378C0.717529 49.7934 3.93014 53 7.8931 53H180.107C184.07 53 187.282 49.7934 187.282 45.8378V7.16216C187.282 3.20661 184.07 0 180.107 0Z" fill="black"/>
<path d="M94.8784 28.8203C91.628 28.8203 88.9788 31.1906 88.9788 34.4554C88.9788 37.7003 91.628 40.0906 94.8784 40.0906C98.1302 40.0906 100.779 37.7003 100.779 34.4554C100.778 31.1906 98.1288 28.8203 94.8784 28.8203ZM94.8784 37.8727C93.097 37.8727 91.5617 36.4641 91.5617 34.4567C91.5617 32.4283 93.0984 31.041 94.8784 31.041C96.6598 31.041 98.1951 32.4283 98.1951 34.4567C98.1951 36.4629 96.6598 37.8727 94.8784 37.8727ZM82.0069 28.8203C78.7565 28.8203 76.1072 31.1906 76.1072 34.4554C76.1072 37.7003 78.7565 40.0906 82.0069 40.0906C85.2585 40.0906 87.9078 37.7003 87.9078 34.4554C87.9078 31.1906 85.2585 28.8203 82.0069 28.8203ZM82.0069 37.8727C80.2255 37.8727 78.6902 36.4641 78.6902 34.4567C78.6902 32.4283 80.2269 31.041 82.0069 31.041C83.7881 31.041 85.3236 32.4283 85.3236 34.4567C85.3248 36.4629 83.7881 37.8727 82.0069 37.8727ZM66.6975 30.5506V32.9409H72.6647C72.4865 34.2858 72.0193 35.2676 71.3062 35.95C70.4384 36.7821 69.0799 37.7003 66.6975 37.7003C63.0242 37.7003 60.1525 34.861 60.1525 31.339C60.1525 27.8173 63.0242 24.9778 66.6975 24.9778C68.6792 24.9778 70.1261 25.7251 71.1943 26.6856L72.9536 24.999C71.4611 23.6328 69.4808 22.5875 66.6975 22.5875C61.6657 22.5875 57.4355 26.5148 57.4355 31.339C57.4355 36.1633 61.6657 40.0906 66.6975 40.0906C69.413 40.0906 71.4625 39.236 73.0641 37.6354C74.7115 36.056 75.2241 33.8353 75.2241 32.0427C75.2241 31.4887 75.1799 30.9761 75.09 30.5493L66.6975 30.5506ZM129.311 32.4071C128.822 31.1482 127.33 28.8203 124.28 28.8203C121.252 28.8203 118.735 31.1046 118.735 34.4554C118.735 37.6142 121.23 40.0906 124.568 40.0906C127.262 40.0906 128.821 38.5112 129.468 37.593L127.464 36.3117C126.796 37.2513 125.883 37.8699 124.568 37.8699C123.256 37.8699 122.32 37.2937 121.719 36.162L129.578 33.0456L129.311 32.4071ZM121.296 34.2858C121.23 32.1075 123.055 30.9986 124.369 30.9986C125.394 30.9986 126.261 31.4902 126.552 32.1936L121.296 34.2858ZM114.907 39.7501H117.489V23.1864H114.907V39.7501ZM110.676 30.0804H110.587C110.008 29.4179 108.894 28.8203 107.493 28.8203C104.554 28.8203 101.86 31.2966 101.86 34.4779C101.86 37.6367 104.554 40.0921 107.493 40.0921C108.896 40.0921 110.008 39.4945 110.587 38.812H110.676V39.6229C110.676 41.7788 109.473 42.9314 107.537 42.9314C105.956 42.9314 104.976 41.8436 104.576 40.9255L102.327 41.8224C102.973 43.3158 104.686 45.1521 107.537 45.1521C110.565 45.1521 113.126 43.4442 113.126 39.2812V29.1635H110.677L110.676 30.0804ZM107.715 37.8727C105.934 37.8727 104.443 36.4417 104.443 34.4779C104.443 32.4919 105.934 31.041 107.715 31.041C109.473 31.041 110.854 32.4919 110.854 34.4779C110.854 36.4417 109.473 37.8727 107.715 37.8727ZM141.409 23.1864H135.23V39.7501H137.808V33.4749H141.408C144.265 33.4749 147.076 31.4915 147.076 28.3314C147.076 25.1711 144.266 23.1864 141.409 23.1864ZM141.475 31.1694H137.808V25.4919H141.475C143.403 25.4919 144.497 27.0223 144.497 28.3314C144.497 29.614 143.403 31.1694 141.475 31.1694ZM157.412 28.791C155.545 28.791 153.612 29.5794 152.811 31.3272L155.1 32.2428C155.589 31.3272 156.501 31.0276 157.457 31.0276C158.79 31.0276 160.146 31.7948 160.168 33.1582V33.3293C159.701 33.0734 158.701 32.6905 157.478 32.6905C155.011 32.6905 152.5 33.9903 152.5 36.4192C152.5 38.6359 154.523 40.0628 156.789 40.0628C158.521 40.0628 159.479 39.3168 160.079 38.4423H160.166V39.7211H162.657V33.3702C162.657 30.4315 160.367 28.791 157.412 28.791ZM157.099 37.8686C156.257 37.8686 155.079 37.4633 155.079 36.4616C155.079 35.1828 156.545 34.6927 157.812 34.6927C158.945 34.6927 159.48 34.9271 160.168 35.2464C159.968 36.7821 158.59 37.8686 157.099 37.8686ZM171.724 29.1529L168.77 36.3344H168.681L165.612 29.1529H162.835L167.435 39.1896L164.813 44.7733H167.502L174.593 29.1529H171.724ZM148.5 39.7501H151.077V23.1864H148.5V39.7501Z" fill="white"/>
<path d="M66.2472 13.5719C66.2472 14.6823 65.9045 15.5661 65.2176 16.2259C64.4382 17.0103 63.4212 17.4025 62.1719 17.4025C60.975 17.4025 59.9565 17.005 59.1204 16.21C58.283 15.4137 57.8643 14.4279 57.8643 13.2513C57.8643 12.0733 58.283 11.0875 59.1204 10.2925C59.9565 9.49621 60.975 9.09872 62.1719 9.09872C62.766 9.09872 63.3341 9.21002 63.8731 9.43129C64.4134 9.65389 64.8459 9.94937 65.1693 10.319L64.4411 11.0186C63.8925 10.3893 63.1364 10.0752 62.1705 10.0752C61.297 10.0752 60.5425 10.3694 59.9054 10.9577C59.2684 11.546 58.9505 12.3105 58.9505 13.2499C58.9505 14.1894 59.2684 14.9539 59.9054 15.5422C60.5425 16.1305 61.297 16.4247 62.1705 16.4247C63.0964 16.4247 63.8689 16.1292 64.4866 15.5369C64.8874 15.1513 65.1196 14.6147 65.1818 13.927H62.1705V12.9717H66.1878C66.2293 13.1797 66.2472 13.3798 66.2472 13.5719Z" fill="white"/>
<path d="M72.6182 10.2515H68.8427V12.7717H72.2478V13.727H68.8427V16.2472H72.6182V17.225H67.7771V9.27501H72.6182V10.2515Z" fill="white"/>
<path d="M77.111 17.225H76.0454V10.2515H73.7292V9.27501H79.4271V10.2515H77.111V17.225Z" fill="white"/>
<path d="M83.5493 17.225V9.27501H84.6147V17.225H83.5493Z" fill="white"/>
<path d="M89.34 17.225H88.2744V10.2515H85.9583V9.27501H91.6561V10.2515H89.34V17.225Z" fill="white"/>
<path d="M102.442 16.1981C101.627 17.0011 100.614 17.4026 99.4017 17.4026C98.1896 17.4026 97.1767 17.0011 96.3627 16.1981C95.5474 15.3952 95.1411 14.412 95.1411 13.25C95.1411 12.088 95.5474 11.1048 96.3627 10.3019C97.1767 9.49893 98.1896 9.09613 99.4017 9.09613C100.607 9.09613 101.618 9.50025 102.436 10.3072C103.255 11.1141 103.664 12.0946 103.664 13.25C103.664 14.412 103.256 15.3952 102.442 16.1981ZM97.149 15.5317C97.7626 16.1279 98.5131 16.4247 99.4017 16.4247C100.29 16.4247 101.042 16.1266 101.654 15.5317C102.268 14.9354 102.576 14.1748 102.576 13.25C102.576 12.3251 102.268 11.5646 101.654 10.9683C101.042 10.3721 100.29 10.0753 99.4017 10.0753C98.5131 10.0753 97.7626 10.3734 97.149 10.9683C96.5368 11.5646 96.2287 12.3251 96.2287 13.25C96.2287 14.1748 96.5368 14.9354 97.149 15.5317Z" fill="white"/>
<path d="M105.159 17.225V9.27501H106.455L110.485 15.4588H110.531L110.485 13.9271V9.27501H111.551V17.225H110.438L106.222 10.7405H106.176L106.222 12.2722V17.225H105.159Z" fill="white"/>
<path d="M66.2472 13.5719C66.2472 14.6823 65.9045 15.5661 65.2176 16.2259C64.4382 17.0103 63.4212 17.4025 62.1719 17.4025C60.975 17.4025 59.9565 17.005 59.1204 16.21C58.283 15.4137 57.8643 14.4279 57.8643 13.2513C57.8643 12.0733 58.283 11.0875 59.1204 10.2925C59.9565 9.49621 60.975 9.09872 62.1719 9.09872C62.766 9.09872 63.3341 9.21002 63.8731 9.43129C64.4134 9.65389 64.8459 9.94937 65.1693 10.319L64.4411 11.0186C63.8925 10.3893 63.1364 10.0752 62.1705 10.0752C61.297 10.0752 60.5425 10.3694 59.9054 10.9577C59.2684 11.546 58.9505 12.3105 58.9505 13.2499C58.9505 14.1894 59.2684 14.9539 59.9054 15.5422C60.5425 16.1305 61.297 16.4247 62.1705 16.4247C63.0964 16.4247 63.8689 16.1292 64.4866 15.5369C64.8874 15.1513 65.1196 14.6147 65.1818 13.927H62.1705V12.9717H66.1878C66.2293 13.1797 66.2472 13.3798 66.2472 13.5719Z" stroke="white" stroke-width="0.2" stroke-miterlimit="10"/>
<path d="M72.6182 10.2515H68.8427V12.7717H72.2478V13.727H68.8427V16.2472H72.6182V17.225H67.7771V9.27501H72.6182V10.2515Z" stroke="white" stroke-width="0.2" stroke-miterlimit="10"/>
<path d="M77.111 17.225H76.0454V10.2515H73.7292V9.27501H79.4271V10.2515H77.111V17.225Z" stroke="white" stroke-width="0.2" stroke-miterlimit="10"/>
<path d="M83.5493 17.225V9.27501H84.6147V17.225H83.5493Z" stroke="white" stroke-width="0.2" stroke-miterlimit="10"/>
<path d="M89.34 17.225H88.2744V10.2515H85.9583V9.27501H91.6561V10.2515H89.34V17.225Z" stroke="white" stroke-width="0.2" stroke-miterlimit="10"/>
<path d="M102.442 16.1981C101.627 17.0011 100.614 17.4026 99.4017 17.4026C98.1896 17.4026 97.1767 17.0011 96.3627 16.1981C95.5474 15.3952 95.1411 14.412 95.1411 13.25C95.1411 12.088 95.5474 11.1048 96.3627 10.3019C97.1767 9.49893 98.1896 9.09613 99.4017 9.09613C100.607 9.09613 101.618 9.50025 102.436 10.3072C103.255 11.1141 103.664 12.0946 103.664 13.25C103.664 14.412 103.256 15.3952 102.442 16.1981ZM97.149 15.5317C97.7626 16.1279 98.5131 16.4247 99.4017 16.4247C100.29 16.4247 101.042 16.1266 101.654 15.5317C102.268 14.9354 102.576 14.1748 102.576 13.25C102.576 12.3251 102.268 11.5646 101.654 10.9683C101.042 10.3721 100.29 10.0753 99.4017 10.0753C98.5131 10.0753 97.7626 10.3734 97.149 10.9683C96.5368 11.5646 96.2287 12.3251 96.2287 13.25C96.2287 14.1748 96.5368 14.9354 97.149 15.5317Z" stroke="white" stroke-width="0.2" stroke-miterlimit="10"/>
<path d="M105.159 17.225V9.27501H106.455L110.485 15.4588H110.531L110.485 13.9271V9.27501H111.551V17.225H110.438L106.222 10.7405H106.176L106.222 12.2722V17.225H105.159Z" stroke="white" stroke-width="0.2" stroke-miterlimit="10"/>
<g filter="url(#filter0_dd_2804_471)">
<path d="M15.1397 9.98785C14.7374 10.396 14.4998 11.0293 14.4998 11.8495V41.1532C14.4998 41.9747 14.7374 42.6067 15.1397 43.0148L15.2419 43.1102L32.3631 26.6948V26.5013V26.3079L15.2419 9.89112L15.1397 9.98785Z" fill="url(#paint0_linear_2804_471)"/>
<path d="M38.0692 32.1683L32.363 26.6948V26.5013V26.3079L38.0705 20.8356L38.1991 20.9058L44.961 24.5893C46.8916 25.6414 46.8916 27.3626 44.961 28.4159L38.1991 32.0994L38.0692 32.1683Z" fill="url(#paint1_linear_2804_471)"/>
<g filter="url(#filter1_d_2804_471)">
<path d="M38.1996 32.0981L32.3621 26.5013L15.1401 43.0148C15.7759 43.6614 16.8275 43.7409 18.0118 43.0969L38.1996 32.0981Z" fill="url(#paint2_linear_2804_471)"/>
</g>
<path d="M38.1996 20.9045L18.0118 9.90702C16.8275 9.26174 15.7759 9.34257 15.1401 9.98917L32.3635 26.5026L38.1996 20.9045Z" fill="url(#paint3_linear_2804_471)"/>
</g>
</g>
<defs>
<filter id="filter0_dd_2804_471" x="14.4998" y="9.31172" width="31.9092" height="34.38" filterUnits="userSpaceOnUse" color-interpolation-filters="sRGB">
<feFlood flood-opacity="0" result="BackgroundImageFix"/>
<feColorMatrix in="SourceAlpha" type="matrix" values="0 0 0 0 0 0 0 0 0 0 0 0 0 0 0 0 0 0 127 0" result="hardAlpha"/>
<feOffset dy="-0.15"/>
<feComposite in2="hardAlpha" operator="out"/>
<feColorMatrix type="matrix" values="0 0 0 0 0 0 0 0 0 0 0 0 0 0 0 0 0 0 0.12 0"/>
<feBlend mode="normal" in2="BackgroundImageFix" result="effect1_dropShadow_2804_471"/>
<feColorMatrix in="SourceAlpha" type="matrix" values="0 0 0 0 0 0 0 0 0 0 0 0 0 0 0 0 0 0 127 0" result="hardAlpha"/>
<feOffset dy="0.15"/>
<feComposite in2="hardAlpha" operator="out"/>
<feColorMatrix type="matrix" values="0 0 0 0 1 0 0 0 0 1 0 0 0 0 1 0 0 0 0.25 0"/>
<feBlend mode="normal" in2="effect1_dropShadow_2804_471" result="effect2_dropShadow_2804_471"/>
<feBlend mode="normal" in="SourceGraphic" in2="effect2_dropShadow_2804_471" result="shape"/>
</filter>
<filter id="filter1_d_2804_471" x="15.1401" y="26.3513" width="23.0593" height="17.1904" filterUnits="userSpaceOnUse" color-interpolation-filters="sRGB">
<feFlood flood-opacity="0" result="BackgroundImageFix"/>
<feColorMatrix in="SourceAlpha" type="matrix" values="0 0 0 0 0 0 0 0 0 0 0 0 0 0 0 0 0 0 127 0" result="hardAlpha"/>
<feOffset dy="-0.15"/>
<feComposite in2="hardAlpha" operator="out"/>
<feColorMatrix type="matrix" values="0 0 0 0 0 0 0 0 0 0 0 0 0 0 0 0 0 0 0.08 0"/>
<feBlend mode="normal" in2="BackgroundImageFix" result="effect1_dropShadow_2804_471"/>
<feBlend mode="normal" in="SourceGraphic" in2="effect1_dropShadow_2804_471" result="shape"/>
</filter>
<linearGradient id="paint0_linear_2804_471" x1="30.8453" y1="11.5394" x2="8.62889" y2="34.711" gradientUnits="userSpaceOnUse">
<stop stop-color="#00A0FF"/>
<stop offset="0.0066" stop-color="#00A1FF"/>
<stop offset="0.2601" stop-color="#00BEFF"/>
<stop offset="0.5122" stop-color="#00D2FF"/>
<stop offset="0.7604" stop-color="#00DFFF"/>
<stop offset="1" stop-color="#00E3FF"/>
</linearGradient>
<linearGradient id="paint1_linear_2804_471" x1="47.4741" y1="26.5013" x2="14.0363" y2="26.5013" gradientUnits="userSpaceOnUse">
<stop stop-color="#FFE000"/>
<stop offset="0.4087" stop-color="#FFBD00"/>
<stop offset="0.7754" stop-color="#FFA500"/>
<stop offset="1" stop-color="#FF9C00"/>
</linearGradient>
<linearGradient id="paint2_linear_2804_471" x1="35.0295" y1="29.5408" x2="4.90117" y2="60.9643" gradientUnits="userSpaceOnUse">
<stop stop-color="#FF3A44"/>
<stop offset="1" stop-color="#C31162"/>
</linearGradient>
<linearGradient id="paint3_linear_2804_471" x1="10.8027" y1="0.234249" x2="24.2559" y2="14.2657" gradientUnits="userSpaceOnUse">
<stop stop-color="#32A071"/>
<stop offset="0.0685" stop-color="#2DA771"/>
<stop offset="0.4762" stop-color="#15CF74"/>
<stop offset="0.8009" stop-color="#06E775"/>
<stop offset="1" stop-color="#00F076"/>
</linearGradient>
<clipPath id="clip0_2804_471">
<rect width="188" height="53" fill="white"/>
</clipPath>
</defs>
</svg>
