<svg width="40" height="40" viewBox="0 0 40 40" fill="none" xmlns="http://www.w3.org/2000/svg">
<path d="M39.611 16.083H38V16H20V24H31.303C29.654 28.657 25.223 32 20 32C13.373 32 8 26.627 8 20C8 13.373 13.373 8 20 8C23.059 8 25.842 9.154 27.961 11.039L33.618 5.382C30.046 2.053 25.268 0 20 0C8.955 0 0 8.955 0 20C0 31.045 8.955 40 20 40C31.045 40 40 31.045 40 20C40 18.659 39.862 17.35 39.611 16.083Z" fill="#FBC02D"/>
<path d="M2.306 10.691L8.877 15.51C10.655 11.108 14.961 8 20 8C23.059 8 25.842 9.154 27.961 11.039L33.618 5.382C30.046 2.053 25.268 0 20 0C12.318 0 5.656 4.337 2.306 10.691Z" fill="#E53935"/>
<path d="M20 40C25.166 40 29.86 38.023 33.409 34.808L27.219 29.57C25.211 31.091 22.715 32 20 32C14.798 32 10.381 28.683 8.71701 24.054L2.19501 29.079C5.50501 35.556 12.227 40 20 40Z" fill="#4CAF50"/>
<path d="M39.611 16.083L39.595 16H38H20V24H31.303C30.511 26.237 29.072 28.166 27.216 29.571L27.219 29.569L33.409 34.807C32.971 35.205 40 30 40 20C40 18.659 39.862 17.35 39.611 16.083Z" fill="#1565C0"/>
</svg>
