<svg width="60" height="60" viewBox="0 0 60 60" fill="none" xmlns="http://www.w3.org/2000/svg">
<rect width="60" height="60" rx="30" fill="#4285F4"/>
<g clip-path="url(#clip0_783_62)">
<path d="M13.8333 17.75C13.8333 16.7112 14.246 15.715 14.9805 14.9805C15.715 14.246 16.7112 13.8333 17.75 13.8333H41.25C42.2887 13.8333 43.285 14.246 44.0195 14.9805C44.754 15.715 45.1666 16.7112 45.1666 17.75V41.25C45.1666 42.2888 44.754 43.285 44.0195 44.0195C43.285 44.754 42.2887 45.1667 41.25 45.1667H17.75C16.7112 45.1667 15.715 44.754 14.9805 44.0195C14.246 43.285 13.8333 42.2888 13.8333 41.25V17.75Z" stroke="white" stroke-width="2" stroke-linecap="round" stroke-linejoin="round"/>
<path d="M21.6667 27.5417V37.3333" stroke="white" stroke-width="2" stroke-linecap="round" stroke-linejoin="round"/>
<path d="M21.6667 21.6667V21.6862" stroke="white" stroke-width="2" stroke-linecap="round" stroke-linejoin="round"/>
<path d="M29.5 37.3333V27.5417" stroke="white" stroke-width="2" stroke-linecap="round" stroke-linejoin="round"/>
<path d="M37.3333 37.3333V31.4583C37.3333 30.4196 36.9207 29.4233 36.1862 28.6888C35.4517 27.9543 34.4554 27.5417 33.4167 27.5417C32.3779 27.5417 31.3817 27.9543 30.6472 28.6888C29.9126 29.4233 29.5 30.4196 29.5 31.4583" stroke="white" stroke-width="2" stroke-linecap="round" stroke-linejoin="round"/>
</g>
<defs>
<clipPath id="clip0_783_62">
<rect width="47" height="47" fill="white" transform="translate(6 6)"/>
</clipPath>
</defs>
</svg>
