<svg width="64" height="64" viewBox="0 0 64 64" fill="none" xmlns="http://www.w3.org/2000/svg">
<g clip-path="url(#clip0_218_448)">
<mask id="mask0_218_448" style="mask-type:luminance" maskUnits="userSpaceOnUse" x="0" y="0" width="64" height="64">
<path d="M32 64C49.6731 64 64 49.6731 64 32C64 14.3269 49.6731 0 32 0C14.3269 0 0 14.3269 0 32C0 49.6731 14.3269 64 32 64Z" fill="white"/>
</mask>
<g mask="url(#mask0_218_448)">
<path d="M0 0H18.0875L22.5875 31.825L18.0875 64H0V0Z" fill="#0052B4"/>
<path d="M45.9125 0H64V64H45.9125L42.2 31.8375L45.9125 0Z" fill="#D80027"/>
<path d="M18.0875 0H45.9125V64H18.0875V0Z" fill="#FFDA44"/>
<path d="M32 44.3125V32H40.35V37.9125L32 44.3125ZM23.65 23.65H32V32H23.65V23.65Z" fill="#D80027"/>
<path d="M36.175 20.875C36.1741 20.3867 36.045 19.9073 35.8005 19.4846C35.5561 19.0619 35.2049 18.7109 34.7822 18.4666C34.3594 18.2223 33.8799 18.0934 33.3916 18.0926C32.9034 18.0919 32.4235 18.2195 32 18.4625C31.5787 18.2173 31.1 18.0879 30.6125 18.0875C29.075 18.0875 27.825 19.3375 27.825 20.875H20.875V34.7875C20.875 39.9625 24.9875 42.9625 28.2125 44.5125C27.9651 44.9375 27.8357 45.4208 27.8375 45.9125C27.8396 46.3989 27.969 46.8763 28.2128 47.2973C28.4566 47.7182 28.8063 48.068 29.2272 48.3119C29.6481 48.5559 30.1254 48.6854 30.6119 48.6877C31.0983 48.69 31.5769 48.5649 32 48.325C32.4213 48.5702 32.9 48.6996 33.3875 48.7C33.8765 48.6982 34.3565 48.5677 34.7792 48.3217C35.2018 48.0758 35.5524 47.7229 35.7955 47.2986C36.0387 46.8743 36.166 46.3935 36.1646 45.9045C36.1632 45.4154 36.0331 44.9354 35.7875 44.5125C39.0125 42.9625 43.125 39.9625 43.125 34.7875V20.875H36.175ZM38.9625 34.7875C38.9625 35.5125 38.9625 37.7125 35.525 39.9C34.4174 40.587 33.2346 41.1448 32 41.5625C31.125 41.2625 29.775 40.725 28.475 39.9C25.0375 37.7125 25.0375 35.5125 25.0375 34.775V25.0375H38.9625V34.7875Z" fill="#FF9811"/>
</g>
</g>
<defs>
<clipPath id="clip0_218_448">
<rect width="64" height="64" fill="white"/>
</clipPath>
</defs>
</svg>
