<svg width="64" height="64" viewBox="0 0 64 64" fill="none" xmlns="http://www.w3.org/2000/svg">
<g clip-path="url(#clip0_218_257)">
<mask id="mask0_218_257" style="mask-type:luminance" maskUnits="userSpaceOnUse" x="0" y="0" width="64" height="64">
<path d="M32 64C49.6731 64 64 49.6731 64 32C64 14.3269 49.6731 0 32 0C14.3269 0 0 14.3269 0 32C0 49.6731 14.3269 64 32 64Z" fill="white"/>
</mask>
<g mask="url(#mask0_218_257)">
<path d="M0 0H64V32L32.375 36.575L0 32V0Z" fill="#D80027"/>
<path d="M0 32H64V64H0V32Z" fill="#333333"/>
<path d="M27.6125 25.45L30.325 27.425L29.2875 30.6125L32 28.625L34.7125 30.5875L33.675 27.4L36.3875 25.4375H33.0375L32 22.25L30.9625 25.4375L27.6125 25.45Z" fill="#FFDA44"/>
<path d="M40 18.1375C37.5677 16.7353 34.8075 16.0021 32 16.0125V20.175C34.0765 20.1724 36.1166 20.7202 37.9125 21.7625C40.4603 23.4122 42.2771 25.9776 42.9875 28.9286C43.6979 31.8796 43.2475 34.9907 41.7295 37.6191C40.2115 40.2475 37.7418 42.1924 34.8308 43.0519C31.9197 43.9114 28.7897 43.6199 26.0875 42.2375C24.4981 41.3212 23.1453 40.0455 22.1375 38.5125L18.65 40.8125C20.1544 43.0865 22.2146 44.9387 24.6353 46.1936C27.056 47.4484 29.7571 48.0644 32.4825 47.983C35.2079 47.9016 37.8674 47.1256 40.2089 45.7286C42.5504 44.3316 44.4964 42.3597 45.8625 40C47.9823 36.323 48.5555 31.9548 47.4562 27.8554C46.357 23.7559 43.6751 20.2606 40 18.1375Z" fill="#FFDA44"/>
<path d="M22.775 29.2125C22.5107 29.6941 22.344 30.2231 22.2845 30.7692C22.225 31.3154 22.2739 31.8679 22.4283 32.3951C22.5828 32.9223 22.8398 33.4138 23.1845 33.8415C23.5293 34.2692 23.9551 34.6247 24.4375 34.8875L37.9875 42.2875C37.0625 43.975 37.5625 46.0375 39.2375 46.95L42.9 48.95C43.3004 49.1706 43.7404 49.31 44.1947 49.3603C44.6491 49.4105 45.1089 49.3707 45.5478 49.2429C45.9867 49.1152 46.3961 48.9021 46.7526 48.6159C47.109 48.3297 47.4055 47.976 47.625 47.575L49.625 43.9125L22.775 29.2125Z" fill="#FFDA44"/>
</g>
</g>
<defs>
<clipPath id="clip0_218_257">
<rect width="64" height="64" fill="white"/>
</clipPath>
</defs>
</svg>
