<svg width="64" height="64" viewBox="0 0 64 64" fill="none" xmlns="http://www.w3.org/2000/svg">
<g clip-path="url(#clip0_224_12)">
<mask id="mask0_224_12" style="mask-type:luminance" maskUnits="userSpaceOnUse" x="0" y="0" width="64" height="64">
<path d="M32 64C49.6731 64 64 49.6731 64 32C64 14.3269 49.6731 0 32 0C14.3269 0 0 14.3269 0 32C0 49.6731 14.3269 64 32 64Z" fill="white"/>
</mask>
<g mask="url(#mask0_224_12)">
<path d="M0 20.8625L31.625 16.8875L64 20.8625V43.1125L31.8125 47.7875L0 43.125V20.8625Z" fill="#D80027"/>
<path d="M0 0H64V20.8625H0V0Z" fill="#338AF3"/>
<path d="M0 43.1125H64V64H0V43.1125Z" fill="#6DA544"/>
<path d="M32.7 41.025C31.3266 41.0212 29.9721 40.7044 28.7395 40.0987C27.5069 39.4931 26.4285 38.6144 25.5863 37.5296C24.7441 36.4447 24.1602 35.1822 23.879 33.8379C23.5979 32.4936 23.6268 31.1029 23.9635 29.7714C24.3003 28.4399 24.9361 27.2027 25.8227 26.1538C26.7092 25.1049 27.8231 24.2718 29.0799 23.7178C30.3366 23.1639 31.703 22.9036 33.0754 22.9568C34.4477 23.0101 35.7899 23.3754 37 24.025C35.4341 22.4947 33.4516 21.4604 31.3006 21.0518C29.1496 20.6431 26.9259 20.8782 24.9079 21.7277C22.89 22.5771 21.1675 24.0031 19.9563 25.8271C18.7452 27.651 18.0991 29.7918 18.0991 31.9813C18.0991 34.1707 18.7452 36.3115 19.9563 38.1354C21.1675 39.9594 22.89 41.3854 24.9079 42.2348C26.9259 43.0843 29.1496 43.3194 31.3006 42.9108C33.4516 42.5021 35.4341 41.4678 37 39.9375C35.6798 40.6531 34.2016 41.0269 32.7 41.025Z" fill="#EEEEEE"/>
<path d="M39.65 25.75L40.8499 29.1L44.075 27.5625L42.5499 30.7875L45.9124 31.9875L42.5374 33.1875L44.075 36.4125L40.8499 34.875L39.65 38.25L38.45 34.875L35.2249 36.4125L36.7625 33.1875L33.3875 31.9875L36.7625 30.7875L35.2249 27.5625L38.45 29.1L39.65 25.75Z" fill="#EEEEEE"/>
</g>
</g>
<defs>
<clipPath id="clip0_224_12">
<rect width="64" height="64" fill="white"/>
</clipPath>
</defs>
</svg>
