<svg width="64" height="64" viewBox="0 0 64 64" fill="none" xmlns="http://www.w3.org/2000/svg">
<g clip-path="url(#clip0_224_74)">
<mask id="mask0_224_74" style="mask-type:luminance" maskUnits="userSpaceOnUse" x="0" y="0" width="64" height="64">
<path d="M32 64C49.6731 64 64 49.6731 64 32C64 14.3269 49.6731 0 32 0C14.3269 0 0 14.3269 0 32C0 49.6731 14.3269 64 32 64Z" fill="white"/>
</mask>
<g mask="url(#mask0_224_74)">
<path d="M0 0H64L35.125 36.65L0 64V0Z" fill="#FFDA44"/>
<path d="M63.3375 0L0 63.3375V64H64V0H63.3375Z" fill="#FF9811"/>
<path d="M49.775 17.75V12.2125H39.1124L38.2999 13.025C35.3999 15.925 35.8874 19.3 36.2374 21.775C36.5749 24.0625 36.6125 24.9375 35.7625 25.775C34.9125 26.65 34.0124 26.6 31.7374 26.275C29.2749 25.9 25.8875 25.425 22.9875 28.325C20.0875 31.225 20.575 34.6125 20.9375 37.075C21.2625 39.3625 21.3125 40.25 20.4375 41.1C19.6 41.95 18.725 41.9125 16.4375 41.575C15.5375 41.45 14.625 41.325 13.6375 41.3L13.575 46.875C14.2 46.875 14.9 46.975 15.6375 47.0875C16.5125 47.2125 17.5125 47.3625 18.575 47.3625C19.6625 47.3625 20.825 47.2 21.95 46.7125V51.1625H30.2999V46.9875H26.125V44.2125H28.9125V40.0375H26.6625C26.775 38.6875 26.5875 37.3875 26.4125 36.2875C26.1 33.9875 26.0375 33.1125 26.9125 32.2625C27.7625 31.4125 28.6375 31.45 30.9375 31.7875C32.725 32.0375 35.0124 32.375 37.2374 31.4125V35.8625H45.5875V31.6875H41.4249V28.875H44.2125V24.7H41.9874C42.0494 23.4446 41.9655 22.1861 41.7374 20.95C41.5124 19.35 41.425 18.45 41.6875 17.75H49.775Z" fill="#EEEEEE"/>
</g>
</g>
<defs>
<clipPath id="clip0_224_74">
<rect width="64" height="64" fill="white"/>
</clipPath>
</defs>
</svg>
