<svg width="64" height="64" viewBox="0 0 64 64" fill="none" xmlns="http://www.w3.org/2000/svg">
<g clip-path="url(#clip0_240_19)">
<mask id="mask0_240_19" style="mask-type:luminance" maskUnits="userSpaceOnUse" x="0" y="0" width="64" height="64">
<path d="M32 64C49.6731 64 64 49.6731 64 32C64 14.3269 49.6731 0 32 0C14.3269 0 0 14.3269 0 32C0 49.6731 14.3269 64 32 64Z" fill="white"/>
</mask>
<g mask="url(#mask0_240_19)">
<path d="M0 0H64V22.25L60.125 31.8625L64 41.75V64H0V41.75L4.625 31.6625L0 22.25V0Z" fill="#338AF3"/>
<path d="M0 26.4371L32 24.0371L64 26.4371V37.5621L32.175 40.1496L0 37.5621V26.4371Z" fill="#333333"/>
<path d="M0 22.25H64V26.4375H0V22.25ZM0 37.5625H64V41.75H0V37.5625Z" fill="#EEEEEE"/>
</g>
</g>
<defs>
<clipPath id="clip0_240_19">
<rect width="64" height="64" fill="white"/>
</clipPath>
</defs>
</svg>
