<svg width="64" height="64" viewBox="0 0 64 64" fill="none" xmlns="http://www.w3.org/2000/svg">
<g clip-path="url(#clip0_233_10)">
<mask id="mask0_233_10" style="mask-type:luminance" maskUnits="userSpaceOnUse" x="0" y="0" width="64" height="64">
<path d="M32 64C49.6731 64 64 49.6731 64 32C64 14.3269 49.6731 0 32 0C14.3269 0 0 14.3269 0 32C0 49.6731 14.3269 64 32 64Z" fill="white"/>
</mask>
<g mask="url(#mask0_233_10)">
<path d="M0 0H50.2375L64 13.7875V64H13.7875L0 50.2375V0Z" fill="#338AF3"/>
<path d="M50.2375 0L0 50.2375V56.125L7.875 64H13.7875L64 13.7875V7.875L56.125 0H50.2375Z" fill="#FFDA44"/>
<path d="M56.125 0L0 56.125V64H7.875L64 7.875V0H56.125Z" fill="#D80027"/>
<path d="M17.05 9.75L18.775 15.05H24.375L19.875 18.3375L21.5875 23.65L17.0625 20.3625L12.5625 23.65L14.275 18.3375L9.75 15.05H15.3375L17.05 9.75Z" fill="#FFDA44"/>
</g>
</g>
<defs>
<clipPath id="clip0_233_10">
<rect width="64" height="64" fill="white"/>
</clipPath>
</defs>
</svg>
