<svg width="65" height="65" viewBox="0 0 65 65" fill="none" xmlns="http://www.w3.org/2000/svg">
<path d="M32.4066 64.4066C50.0797 64.4066 64.4066 50.0797 64.4066 32.4066C64.4066 14.7335 50.0797 0.406601 32.4066 0.406601C14.7335 0.406601 0.406593 14.7335 0.406593 32.4066C0.406593 50.0797 14.7335 64.4066 32.4066 64.4066Z" fill="#C60C30"/>
<path d="M26.3045 0.99469C23.0555 1.6226 19.9799 2.73478 17.1618 4.26438V27.8349H0.73726C0.523216 29.3289 0.406593 30.8535 0.406593 32.4066C0.406593 33.959 0.523216 35.4843 0.736549 36.9776H17.1618V60.5481C19.9799 62.0777 23.0555 63.1906 26.3045 63.8178V36.9776H64.0766C64.29 35.4843 64.4066 33.959 64.4066 32.4066C64.4066 30.8535 64.29 29.3289 64.0759 27.8349H26.3045V0.99469Z" fill="#F3F4F5"/>
</svg>
