<svg width="64" height="64" viewBox="0 0 64 64" fill="none" xmlns="http://www.w3.org/2000/svg">
<g clip-path="url(#clip0_224_899)">
<mask id="mask0_224_899" style="mask-type:luminance" maskUnits="userSpaceOnUse" x="0" y="0" width="64" height="64">
<path d="M32 64C49.6731 64 64 49.6731 64 32C64 14.3269 49.6731 0 32 0C14.3269 0 0 14.3269 0 32C0 49.6731 14.3269 64 32 64Z" fill="white"/>
</mask>
<g mask="url(#mask0_224_899)">
<path d="M0 43.1249L32.0375 39.2124L64 43.1249V63.9999H0V43.1249Z" fill="#D80027"/>
<path d="M0 0H64V43.125H0V0Z" fill="#EEEEEE"/>
<path d="M44.525 26.4376V22.2501H45.9125V19.4626H43.125V20.8751H40.35V19.4751H37.5625V22.2626H38.9625V26.4376H36.175V16.6876H37.5625V13.9126H34.7875V15.3001H33.375V13.9251H30.625V15.3001H29.225V13.9251H26.45V16.7001H27.8375V26.4376H25.05V22.2501H26.45V19.4626H23.6625V20.8751H20.875V19.4751H18.0875V22.2626H19.475V26.4376H16.7V37.5626H47.3V26.4376H44.525Z" fill="#D80027"/>
<path d="M32 36.175C31.0149 36.1752 30.0615 36.5237 29.3085 37.1589C28.5555 37.7941 28.0514 38.6752 27.8853 39.6462C27.7192 40.6173 27.9019 41.6157 28.401 42.4651C28.9 43.3145 29.6834 43.96 30.6125 44.2875V50.0876H26.4375V55.6501H33.375V44.2751C34.2954 43.9415 35.0694 43.295 35.5615 42.4487C36.0537 41.6023 36.2327 40.61 36.0674 39.645C35.9022 38.68 35.403 37.8038 34.6572 37.1696C33.9114 36.5353 32.9665 36.1833 31.9875 36.175H32ZM32 41.7375C31.8178 41.7375 31.6374 41.7017 31.469 41.6319C31.3007 41.5622 31.1477 41.46 31.0189 41.3312C30.89 41.2023 30.7878 41.0494 30.7181 40.881C30.6484 40.7127 30.6125 40.5323 30.6125 40.35C30.6125 40.1678 30.6484 39.9874 30.7181 39.8191C30.7878 39.6507 30.89 39.4978 31.0189 39.3689C31.1477 39.2401 31.3007 39.1379 31.469 39.0682C31.6374 38.9984 31.8178 38.9626 32 38.9626C32.368 38.9626 32.7209 39.1087 32.9811 39.3689C33.2413 39.6291 33.3875 39.9821 33.3875 40.35C33.3875 40.718 33.2413 41.071 32.9811 41.3312C32.7209 41.5914 32.368 41.7375 32 41.7375Z" fill="#FFDA44"/>
</g>
</g>
<defs>
<clipPath id="clip0_224_899">
<rect width="64" height="64" fill="white"/>
</clipPath>
</defs>
</svg>
