<svg width="64" height="64" viewBox="0 0 64 64" fill="none" xmlns="http://www.w3.org/2000/svg">
<g clip-path="url(#clip0_224_908)">
<mask id="mask0_224_908" style="mask-type:luminance" maskUnits="userSpaceOnUse" x="0" y="0" width="64" height="64">
<path d="M32 64C49.6731 64 64 49.6731 64 32C64 14.3269 49.6731 0 32 0C14.3269 0 0 14.3269 0 32C0 49.6731 14.3269 64 32 64Z" fill="white"/>
</mask>
<g mask="url(#mask0_224_908)">
<path d="M0 0H12.375L16 4L19.5 0H64V7.125L60 10.625L64 14.25V21.375L60 24.875L64 28.5V35.625L60 39.125L64 42.625V49.75L60 53.375L64 56.875V64H0V56.875L4 53.375L0 49.75V42.75L4 39.125L0 35.625V21.375L4 17.75L0 14.25V0Z" fill="#0052B4"/>
<path d="M12.375 0V14.25H0V21.375H12.375V35.625H0V42.75H64V35.625H19.5V21.375H32V14.25H19.5V0H12.375ZM32 7.125V14.25H64V7.125H32ZM32 21.375V28.5H64V21.375H32ZM0 49.75V56.875H64V49.75H0Z" fill="#EEEEEE"/>
</g>
</g>
<defs>
<clipPath id="clip0_224_908">
<rect width="64" height="64" fill="white"/>
</clipPath>
</defs>
</svg>
