<svg width="64" height="64" viewBox="0 0 64 64" fill="none" xmlns="http://www.w3.org/2000/svg">
<g clip-path="url(#clip0_224_172)">
<mask id="mask0_224_172" style="mask-type:luminance" maskUnits="userSpaceOnUse" x="0" y="0" width="64" height="64">
<path d="M32 64C49.6731 64 64 49.6731 64 32C64 14.3269 49.6731 0 32 0C14.3269 0 0 14.3269 0 32C0 49.6731 14.3269 64 32 64Z" fill="white"/>
</mask>
<g mask="url(#mask0_224_172)">
<path d="M0 0H64V5.575L58.85 31.475L64 58.45V64H0V58.45L4.75 31.075L0 5.575V0Z" fill="#D80027"/>
<path d="M0 5.57501H64V58.45H0V5.57501Z" fill="#0052B4"/>
<path d="M30.1875 52.2125C29.75 51.8375 19.475 42.9 19.475 32.0125C19.475 21.1375 29.75 12.1875 30.1875 11.8125L32 10.2625L33.8125 11.8125C34.25 12.1875 44.525 21.1125 44.525 32.0125C44.525 42.9125 34.25 51.8375 33.8125 52.2125L32 53.7625L30.1875 52.2125Z" fill="#D80027"/>
<path d="M41.75 32.0125C41.75 22.2625 32 13.925 32 13.925C32 13.925 22.25 22.275 22.25 32.0125C22.3199 34.9281 23.0689 37.7872 24.4375 40.3625H39.5625C40.9268 37.7861 41.6715 34.9271 41.7375 32.0125H41.75Z" fill="#338AF3"/>
<path d="M41.75 32.0125C41.6801 34.9281 40.9311 37.7872 39.5625 40.3625L32 41.75L24.4375 40.375C23.0713 37.7949 22.3265 34.9313 22.2625 32.0125H41.7374H41.75Z" fill="#0052B4"/>
<path d="M32 50.1C32 50.1 36.6875 46.075 39.5625 40.35H24.4375C27.3125 46.075 32 50.1 32 50.1Z" fill="#FFDA44"/>
<path d="M25.75 26.45H38.25L32 32.7L25.75 26.45Z" fill="#6DA544"/>
<path d="M29.9125 30.625H34.0875V43.1375H29.9125V30.625Z" fill="#A2001D"/>
</g>
</g>
<defs>
<clipPath id="clip0_224_172">
<rect width="64" height="64" fill="white"/>
</clipPath>
</defs>
</svg>
