<svg width="64" height="64" viewBox="0 0 64 64" fill="none" xmlns="http://www.w3.org/2000/svg">
<g clip-path="url(#clip0_224_185)">
<mask id="mask0_224_185" style="mask-type:luminance" maskUnits="userSpaceOnUse" x="0" y="0" width="64" height="64">
<path d="M32 64C49.6731 64 64 49.6731 64 32C64 14.3269 49.6731 0 32 0C14.3269 0 0 14.3269 0 32C0 49.6731 14.3269 64 32 64Z" fill="white"/>
</mask>
<g mask="url(#mask0_224_185)">
<path d="M9.71252 0H64V64H9.72503L9.71252 0Z" fill="#6DA544"/>
<path d="M53.175 31.8375L3.92505 64H9.72505L64 32L9.71255 0H3.92505L53.175 31.8375Z" fill="#EEEEEE"/>
<path d="M32 32L3.92505 64L58.5251 32L3.92505 0L32 32Z" fill="#FFDA44"/>
<path d="M0 0V0.225L27.45 31.95L0 63.75V64H3.925L35.925 32L3.925 0H0Z" fill="#333333"/>
<path d="M0 0V64L32 32L0 0Z" fill="#D80027"/>
</g>
</g>
<defs>
<clipPath id="clip0_224_185">
<rect width="64" height="64" fill="white"/>
</clipPath>
</defs>
</svg>
