<svg width="64" height="64" viewBox="0 0 64 64" fill="none" xmlns="http://www.w3.org/2000/svg">
<g clip-path="url(#clip0_224_915)">
<mask id="mask0_224_915" style="mask-type:luminance" maskUnits="userSpaceOnUse" x="0" y="0" width="64" height="64">
<path d="M32 64C49.6731 64 64 49.6731 64 32C64 14.3269 49.6731 0 32 0C14.3269 0 0 14.3269 0 32C0 49.6731 14.3269 64 32 64Z" fill="white"/>
</mask>
<g mask="url(#mask0_224_915)">
<path d="M0 20.8749L31.725 18.4624L64 20.8749V43.1249L32.1375 47.1624L0 43.1249V20.8749Z" fill="#EEEEEE"/>
<path d="M0 0H64V20.875H0V0Z" fill="#D80027"/>
<path d="M0 43.125H64V64H0V43.125Z" fill="#0052B4"/>
<path d="M40.35 22.25H34.7875L35.7125 15.2875L39.425 12.5125L43.125 15.2875V20.875L40.35 22.25ZM23.65 22.25H29.2125L28.2875 15.2875L24.575 12.5125L20.875 15.2875V20.875L23.65 22.25Z" fill="#338AF3"/>
<path d="M35.7125 22.25H28.2875V15.2875L32 12.5125L35.7125 15.2875V22.25Z" fill="#0052B4"/>
<path d="M20.875 20.875V36.1625C20.876 37.8938 21.281 39.601 22.0579 41.1483C22.8348 42.6955 23.962 44.0401 25.35 45.075L27.2875 44.5875L29.75 47.0625C30.4904 47.2136 31.2443 47.289 32 47.2875C32.7515 47.2883 33.5012 47.2129 34.2375 47.0625L37.0375 44.725L38.6625 45.075C40.0482 44.0388 41.173 42.6936 41.9477 41.1465C42.7224 39.5993 43.1255 37.8928 43.125 36.1625V20.875H20.875Z" fill="#EEEEEE"/>
<path d="M20.875 20.875H25.325V25.3125H20.875V20.875ZM29.775 20.875H34.225V25.3125H29.775V20.875ZM38.675 20.875H43.125V25.3125H38.675V20.875ZM25.325 25.3125H29.775V29.7625H25.325V25.3125ZM34.225 25.3125H38.675V29.7625H34.225V25.3125ZM20.875 29.7625H25.325V34.2125H20.875V29.7625ZM25.325 34.2125H29.775V38.6625H25.325V34.2125ZM29.775 29.7625H34.225V34.2125H29.775V29.7625ZM38.675 29.7625H43.125V34.2125H38.675V29.7625ZM34.225 34.2125H38.675V38.6625H34.225V34.2125ZM29.775 38.6625H34.225V43.125H29.775V38.6625ZM25.325 38.6625H21.1625C21.5375 40.325 22.2875 41.8375 23.325 43.1125H25.325V38.6625ZM38.675 43.125H40.675C41.7214 41.8233 42.4606 40.3021 42.8375 38.675H38.675V43.125ZM25.325 43.125V45.075C26.6414 46.0638 28.1616 46.747 29.775 47.075V43.125H25.325ZM34.225 43.125V47.075C35.8384 46.747 37.3586 46.0638 38.675 45.075V43.125H34.225Z" fill="#D80027"/>
</g>
</g>
<defs>
<clipPath id="clip0_224_915">
<rect width="64" height="64" fill="white"/>
</clipPath>
</defs>
</svg>
