<svg width="64" height="64" viewBox="0 0 64 64" fill="none" xmlns="http://www.w3.org/2000/svg">
<g clip-path="url(#clip0_218_397)">
<mask id="mask0_218_397" style="mask-type:luminance" maskUnits="userSpaceOnUse" x="0" y="0" width="64" height="64">
<path d="M32 64C49.6731 64 64 49.6731 64 32C64 14.3269 49.6731 0 32 0C14.3269 0 0 14.3269 0 32C0 49.6731 14.3269 64 32 64Z" fill="white"/>
</mask>
<g mask="url(#mask0_218_397)">
<path d="M0 32L31.85 26.775L64 32V64H0V32Z" fill="#A2001D"/>
<path d="M0 0H64V32H0V0Z" fill="#0052B4"/>
<path d="M43.125 40.35L32 38.9625L20.875 40.3375V23.6625H43.125V40.35Z" fill="#EEEEEE"/>
<path d="M32 38.95C35.0721 38.95 37.5625 36.4596 37.5625 33.3875C37.5625 30.3154 35.0721 27.825 32 27.825C28.9279 27.825 26.4375 30.3154 26.4375 33.3875C26.4375 36.4596 28.9279 38.95 32 38.95Z" fill="#0052B4"/>
<path d="M32 36.175C33.5395 36.175 34.7875 34.927 34.7875 33.3875C34.7875 31.848 33.5395 30.6 32 30.6C30.4605 30.6 29.2125 31.848 29.2125 33.3875C29.2125 34.927 30.4605 36.175 32 36.175Z" fill="#A2001D"/>
<path d="M27.825 26.4375H36.175L32 30.6125L27.825 26.4375Z" fill="#6DA544"/>
<path d="M30.6125 29.2125H33.375V37.5625H30.625L30.6125 29.2125Z" fill="#FFDA44"/>
<path d="M36.45 36.725H27.55L20.875 40.35H43.125L36.45 36.725Z" fill="#6DA544"/>
</g>
</g>
<defs>
<clipPath id="clip0_218_397">
<rect width="64" height="64" fill="white"/>
</clipPath>
</defs>
</svg>
