<svg width="64" height="64" viewBox="0 0 64 64" fill="none" xmlns="http://www.w3.org/2000/svg">
<g clip-path="url(#clip0_218_388)">
<mask id="mask0_218_388" style="mask-type:luminance" maskUnits="userSpaceOnUse" x="0" y="0" width="64" height="64">
<path d="M32 64C49.6731 64 64 49.6731 64 32C64 14.3269 49.6731 0 32 0C14.3269 0 0 14.3269 0 32C0 49.6731 14.3269 64 32 64Z" fill="white"/>
</mask>
<g mask="url(#mask0_218_388)">
<path d="M0 20.875L31.725 18.4625L64 20.875V43.125L32.1375 47.1625L0 43.125V20.875Z" fill="#EEEEEE"/>
<path d="M0 0H64V20.875H0V0Z" fill="#A2001D"/>
<path d="M0 43.125H64V64H0V43.125Z" fill="#333333"/>
<path d="M24.35 29.9125H18.175C18.3301 29.3146 18.6795 28.7851 19.1682 28.4072C19.6569 28.0294 20.2573 27.8246 20.875 27.825V23.65C17.0375 23.65 13.9125 26.775 13.9125 30.6125V34.0875H24.35C24.5335 34.0908 24.7083 34.166 24.8369 34.2969C24.9655 34.4278 25.0375 34.604 25.0375 34.7875V36.1625H11.125V40.35H29.2125V34.7875C29.2125 33.4946 28.6989 32.2546 27.7846 31.3404C26.8704 30.4261 25.6304 29.9125 24.3375 29.9125H24.35ZM34.7875 36.1625V23.6625H30.6125V40.35H37.5625V36.175L34.7875 36.1625ZM48.7 36.1625V23.6625H44.525V36.1625H43.125V32H38.9625V40.35H51.475V36.175L48.7 36.1625Z" fill="#496E2D"/>
</g>
</g>
<defs>
<clipPath id="clip0_218_388">
<rect width="64" height="64" fill="white"/>
</clipPath>
</defs>
</svg>
