<svg width="64" height="64" viewBox="0 0 64 64" fill="none" xmlns="http://www.w3.org/2000/svg">
<g clip-path="url(#clip0_514_26)">
<path d="M32 64C49.6731 64 64 49.6731 64 32C64 14.3269 49.6731 0 32 0C14.3269 0 0 14.3269 0 32C0 49.6731 14.3269 64 32 64Z" fill="#F0F0F0"/>
<path d="M63.7291 27.8261H36.174V0.270875C34.8076 0.093 33.4146 0 32 0C30.5854 0 29.1924 0.093 27.8261 0.270875V27.826H0.270875C0.0905506 29.21 6.95258e-05 30.6043 0 32C0 33.4149 0.093 34.8076 0.270875 36.1739H27.826V63.7291C30.5969 64.0903 33.403 64.0903 36.1739 63.7291V36.174H63.7291C63.9095 34.79 63.9999 33.3957 64 32C64 30.5854 63.907 29.1924 63.7291 27.8261Z" fill="#D80027"/>
<path d="M19.4787 15.3044V11.1304H15.3049V15.3044H11.1309V19.4782H15.3049V23.6521H19.4787V19.4782H23.6526V15.3044H19.4787ZM48.6961 15.3044V11.1304H44.5222V15.3044H40.3484V19.4782H44.5222V23.6521H48.6961V19.4782H52.8701V15.3044H48.6961ZM19.4787 44.5217V40.3479H15.3049V44.5217H11.1309V48.6956H15.3049V52.8696H19.4787V48.6956H23.6526V44.5217H19.4787ZM48.6961 44.5217V40.3479H44.5222V44.5217H40.3484V48.6956H44.5222V52.8696H48.6961V48.6956H52.8701V44.5217H48.6961Z" fill="#D80027"/>
</g>
<defs>
<clipPath id="clip0_514_26">
<rect width="64" height="64" fill="white"/>
</clipPath>
</defs>
</svg>
