<svg width="64" height="64" viewBox="0 0 64 64" fill="none" xmlns="http://www.w3.org/2000/svg">
<g clip-path="url(#clip0_224_219)">
<mask id="mask0_224_219" style="mask-type:luminance" maskUnits="userSpaceOnUse" x="0" y="0" width="64" height="64">
<path d="M32 64C49.6731 64 64 49.6731 64 32C64 14.3269 49.6731 0 32 0C14.3269 0 0 14.3269 0 32C0 49.6731 14.3269 64 32 64Z" fill="white"/>
</mask>
<g mask="url(#mask0_224_219)">
<path d="M0 18.0875L31.675 14.5625L64 18.0875V22.25L59.5 31.8L64 41.75V45.9125L31.8375 50L0 45.9125V41.75L4.875 32L0 22.25V18.0875Z" fill="#EEEEEE"/>
<path d="M0 0H64V18.0875H0V0Z" fill="#333333"/>
<path d="M0 22.25H64V41.75H0V22.25Z" fill="#A2001D"/>
<path d="M0 45.9125H64V64H0V45.9125Z" fill="#496E2D"/>
<path d="M41.9875 14.7875L38.2 13.0375L32.025 27.025L25.85 13.0375L22.0625 14.7875L29.725 32L22.0625 49.2125L25.85 50.9625L32.025 36.975L38.2 50.9625L41.9875 49.2125L34.325 32L41.9875 14.7875Z" fill="#EEEEEE"/>
<path d="M32.025 13.9125C32.025 13.9125 31.15 14.6375 29.9375 15.9125L27.9375 31.8625L29.9375 48.0875C31.15 49.3625 32.025 50.0875 32.025 50.0875C32.025 50.0875 32.9 49.3625 34.1125 48.0875L35.9875 31.75L34.1125 15.9125C32.9 14.6375 32.025 13.9125 32.025 13.9125Z" fill="#EEEEEE"/>
<path d="M38.9875 22.4L37.7375 31.8375L38.9875 41.6C40.7126 38.6883 41.6637 35.3834 41.75 32C41.75 28.475 40.5375 25.1875 38.975 22.4H38.9875ZM25.0625 22.4L26.175 31.6875L25.05 41.6C23.3248 38.6883 22.3738 35.3834 22.2875 32C22.2875 28.475 23.5 25.1875 25.0625 22.4Z" fill="#333333"/>
<path d="M25.0625 22.4V41.6C26.4196 43.9514 28.0566 46.1297 29.9375 48.0875V15.9125C28.5125 17.4125 26.6125 19.6625 25.0625 22.4125V22.4ZM38.9875 22.4C37.6304 20.0486 35.9934 17.8702 34.1125 15.9125V48.0875C35.5375 46.5875 37.425 44.3375 38.9875 41.5875V22.4125V22.4Z" fill="#A2001D"/>
</g>
</g>
<defs>
<clipPath id="clip0_224_219">
<rect width="64" height="64" fill="white"/>
</clipPath>
</defs>
</svg>
