<svg width="64" height="64" viewBox="0 0 64 64" fill="none" xmlns="http://www.w3.org/2000/svg">
<g clip-path="url(#clip0_240_577)">
<mask id="mask0_240_577" style="mask-type:luminance" maskUnits="userSpaceOnUse" x="0" y="0" width="64" height="64">
<path d="M32 64C49.6731 64 64 49.6731 64 32C64 14.3269 49.6731 0 32 0C14.3269 0 0 14.3269 0 32C0 49.6731 14.3269 64 32 64Z" fill="white"/>
</mask>
<g mask="url(#mask0_240_577)">
<path d="M0 0H64V5.5625L58.55 31.775L64 58.4375V64H0V58.4375L5.825 31.9375L0 5.5625V0Z" fill="#FFDA44"/>
<path d="M0 5.5625H64V58.4375H0V5.5625Z" fill="#A2001D"/>
<path d="M25.0391 23.6498H38.9641V18.0873L36.1766 19.4748L32.0016 15.2998L27.8266 19.4748L25.0391 18.0873V23.6498ZM44.5266 31.9998H37.5641C37.8485 31.5144 37.9995 30.9624 38.0016 30.3998C37.9978 29.6866 37.7568 28.9948 37.3165 28.4337C36.8762 27.8726 36.2616 27.4739 35.5698 27.3006C34.8779 27.1272 34.148 27.1891 33.4952 27.4764C32.8423 27.7637 32.3036 28.2601 31.9641 28.8873C31.7597 28.518 31.4846 28.1925 31.1544 27.9295C30.8243 27.6664 30.4455 27.471 30.0399 27.3544C29.6342 27.2377 29.2095 27.2021 28.7901 27.2496C28.3706 27.2971 27.9647 27.4267 27.5953 27.6311C27.226 27.8354 26.9005 28.1105 26.6375 28.4407C26.3745 28.7708 26.179 29.1496 26.0624 29.5553C25.9457 29.9609 25.9101 30.3856 25.9576 30.805C26.0051 31.2245 26.1347 31.6305 26.3391 31.9998H19.4766C19.4766 34.1248 21.3391 35.8498 23.4641 35.8498H23.3391C23.3391 37.5998 24.4891 39.0748 26.0891 39.5498L22.9641 42.6748L25.9141 45.6248L30.1016 41.4373C30.2641 41.4998 30.4266 41.5498 30.6016 41.5748L28.0766 47.2873C29.3224 47.7972 30.6554 48.0604 32.0016 48.0623C33.3477 48.0604 34.6807 47.7972 35.9266 47.2873L33.4016 41.5748C33.5717 41.5427 33.7389 41.4967 33.9016 41.4373L38.0891 45.6248L41.0391 42.6748L37.9141 39.5498C38.7103 39.3124 39.4084 38.8238 39.9041 38.1569C40.3997 37.49 40.6663 36.6807 40.6641 35.8498H40.5391C42.6641 35.8498 44.5266 34.1248 44.5266 31.9998Z" fill="#FFDA44"/>
<path d="M32.0016 34.0879L27.4766 36.1754V40.3504L32.0016 43.1254L36.5266 40.3504V36.1754L32.0016 34.0879Z" fill="#6DA544"/>
<path d="M27.4766 32H36.5266V37.5625H27.4766V32Z" fill="#0052B4"/>
</g>
</g>
<defs>
<clipPath id="clip0_240_577">
<rect width="64" height="64" fill="white"/>
</clipPath>
</defs>
</svg>
