<svg width="64" height="64" viewBox="0 0 64 64" fill="none" xmlns="http://www.w3.org/2000/svg">
<g clip-path="url(#clip0_224_1221)">
<mask id="mask0_224_1221" style="mask-type:luminance" maskUnits="userSpaceOnUse" x="0" y="0" width="64" height="64">
<path d="M32 64C49.6731 64 64 49.6731 64 32C64 14.3269 49.6731 0 32 0C14.3269 0 0 14.3269 0 32C0 49.6731 14.3269 64 32 64Z" fill="white"/>
</mask>
<g mask="url(#mask0_224_1221)">
<path d="M0 47.2874L31.75 42.6499L64 47.2749V63.9999H0V47.2874Z" fill="#6DA544"/>
<path d="M0 32.0126L31.525 27.8501L64 32.0001V47.3001H0V32.0126Z" fill="#FFDA44"/>
<path d="M0 16.7125L31.2125 12.125L64 16.7125V32.0125H0V16.7125Z" fill="#0052B4"/>
<path d="M0 0H64V16.7125H0V0Z" fill="#D80027"/>
</g>
</g>
<defs>
<clipPath id="clip0_224_1221">
<rect width="64" height="64" fill="white"/>
</clipPath>
</defs>
</svg>
