<svg width="64" height="64" viewBox="0 0 64 64" fill="none" xmlns="http://www.w3.org/2000/svg">
<g clip-path="url(#clip0_224_1137)">
<mask id="mask0_224_1137" style="mask-type:luminance" maskUnits="userSpaceOnUse" x="0" y="0" width="64" height="64">
<path d="M32 64C49.6731 64 64 49.6731 64 32C64 14.3269 49.6731 0 32 0C14.3269 0 0 14.3269 0 32C0 49.6731 14.3269 64 32 64Z" fill="white"/>
</mask>
<g mask="url(#mask0_224_1137)">
<path d="M0 0H64V64H0V0Z" fill="#D80027"/>
<path d="M11.125 16.7002H52.875V47.3002H11.125V16.7002Z" fill="#6DA544"/>
<path d="M37.1497 41.0374C35.7763 41.0336 34.4218 40.7168 33.1892 40.1111C31.9566 39.5055 30.8782 38.6268 30.036 37.542C29.1938 36.4571 28.6099 35.1946 28.3287 33.8503C28.0476 32.506 28.0765 31.1152 28.4132 29.7838C28.75 28.4523 29.3858 27.2151 30.2724 26.1662C31.1589 25.1173 32.2728 24.2842 33.5296 23.7302C34.7863 23.1763 36.1527 22.916 37.5251 22.9692C38.8975 23.0225 40.2396 23.3878 41.4497 24.0374C39.8838 22.5071 37.9013 21.4728 35.7503 21.0642C33.5993 20.6555 31.3756 20.8906 29.3576 21.7401C27.3397 22.5895 25.6172 24.0155 24.406 25.8395C23.1949 27.6634 22.5488 29.8042 22.5488 31.9937C22.5488 34.1831 23.1949 36.3239 24.406 38.1478C25.6172 39.9718 27.3397 41.3978 29.3576 42.2472C31.3756 43.0967 33.5993 43.3318 35.7503 42.9232C37.9013 42.5145 39.8838 41.4802 41.4497 39.9499C40.1295 40.6655 38.6513 41.0393 37.1497 41.0374Z" fill="#EEEEEE"/>
</g>
</g>
<defs>
<clipPath id="clip0_224_1137">
<rect width="64" height="64" fill="white"/>
</clipPath>
</defs>
</svg>
