<svg width="64" height="64" viewBox="0 0 64 64" fill="none" xmlns="http://www.w3.org/2000/svg">
<g clip-path="url(#clip0_233_237)">
<mask id="mask0_233_237" style="mask-type:luminance" maskUnits="userSpaceOnUse" x="0" y="0" width="64" height="64">
<path d="M32 64C49.6731 64 64 49.6731 64 32C64 14.3269 49.6731 0 32 0C14.3269 0 0 14.3269 0 32C0 49.6731 14.3269 64 32 64Z" fill="white"/>
</mask>
<g mask="url(#mask0_233_237)">
<path d="M0 20.8749L31.725 18.4624L64 20.8749V43.1249L32.1375 47.1624L0 43.1249V20.8749Z" fill="#D80027"/>
<path d="M0 0H64V20.875H0V0Z" fill="#333333"/>
<path d="M0 43.125H64V64H0V43.125Z" fill="#496E2D"/>
<path d="M41.5633 15.3002L37.6633 13.4627L39.7383 9.6752L35.4883 10.4877L34.9508 6.2002L32.0008 9.3752L29.0508 6.2127L28.5008 10.5002L24.2508 9.6877L26.3383 13.4752L22.4258 15.3127L41.5633 15.3002Z" fill="#D80027"/>
</g>
</g>
<defs>
<clipPath id="clip0_233_237">
<rect width="64" height="64" fill="white"/>
</clipPath>
</defs>
</svg>
