<svg width="64" height="64" viewBox="0 0 64 64" fill="none" xmlns="http://www.w3.org/2000/svg">
<g clip-path="url(#clip0_240_382)">
<mask id="mask0_240_382" style="mask-type:luminance" maskUnits="userSpaceOnUse" x="0" y="0" width="64" height="64">
<path d="M32 64C49.6731 64 64 49.6731 64 32C64 14.3269 49.6731 0 32 0C14.3269 0 0 14.3269 0 32C0 49.6731 14.3269 64 32 64Z" fill="white"/>
</mask>
<g mask="url(#mask0_240_382)">
<path d="M18 0H45.875L50 32L45.875 64H18L14 32L18 0Z" fill="#EEEEEE"/>
<path d="M0 0H18V64H0V0Z" fill="#496E2D"/>
<path d="M46 0H64V64H46V0Z" fill="#D80027"/>
<path d="M32 34.625V35.875H33.5L34.75 33.125L32 34.625Z" fill="#FFDA44"/>
<path d="M20 30.25C20 33.4326 21.2643 36.4848 23.5147 38.7353C25.7652 40.9857 28.8174 42.25 32 42.25C35.1826 42.25 38.2348 40.9857 40.4853 38.7353C42.7357 36.4848 44 33.4326 44 30.25H42.625C42.625 33.0679 41.5056 35.7704 39.513 37.763C37.5204 39.7556 34.8179 40.875 32 40.875C29.1821 40.875 26.4796 39.7556 24.487 37.763C22.4944 35.7704 21.375 33.0679 21.375 30.25H20ZM24.875 32.375L24.375 32.625C24.125 32.875 24.125 33.375 24.5 33.625C26.375 35.375 28.75 36.375 31.25 36.625V38.75H32.75V36.625C35.25 36.375 37.625 35.375 39.5 33.625C39.875 33.375 39.875 32.875 39.625 32.625C39.375 32.375 38.875 32.375 38.625 32.625C36.827 34.3046 34.4604 35.2423 32 35.25C29.625 35.25 27.25 34.25 25.375 32.625L24.875 32.375Z" fill="#496E2D"/>
<path d="M32 39.5C30.25 39.5 28.5 38.875 27 37.875L27.75 36.75C30.25 38.375 33.75 38.375 36.25 36.75L37.125 37.875C35.625 38.875 33.875 39.5 32 39.5Z" fill="#338AF3"/>
<path d="M32 21.75C34.75 23.125 33.5 25.875 33.375 26L33.125 25.5C32.5 24.125 30.875 23.25 29.25 23.25V24.625C30 24.625 30.625 25.25 30.625 26C29.75 26.875 29.5 28.125 30.125 29.25L30.625 30.25L29 33.125L32.625 32.25L34.875 34.5V33.125L36.25 34.5L39.125 33.125L34.75 30.5L34.125 27.875L37.625 29.875C38.125 31.25 39.125 32.5 40.5 33.125C41.625 22.75 35.25 21.75 32.875 21.75H32Z" fill="#751A46"/>
<path d="M27.75 33.875C25.875 33.875 23.625 32.375 23 28.875L24.375 28.625C24.875 31.5 26.625 32.5 27.75 32.5C28.125 32.5 28.375 32.375 28.5 32.125C28.5 31.875 28.5 31.75 27.75 31.5C27.375 31.375 26.875 31.25 26.5 30.875C25.25 29.375 27 27.875 27.875 27.125C28 27 28.125 26.875 28 26.75C28 26.75 27.75 26.5 27.375 26.5C26.5 26.5 25.875 26 25.625 25.125C25.375 24.375 25.875 23.5 26.625 23L27.25 24.375C27 24.375 27 24.625 27 24.875C27 24.875 27.125 25.125 27.375 25.125C28.25 25.125 29.125 25.625 29.375 26.25C29.5 26.625 29.625 27.375 28.75 28.125C27.875 29 27.375 29.625 27.625 30L28.25 30.125C28.875 30.375 30 30.75 29.875 32.25C29.75 33.25 28.875 33.875 27.75 33.875Z" fill="#6DA544"/>
<path d="M29.25 23.25L27.75 24.625V26L30 24.875C30.375 24.75 30.375 24.25 30.125 24L29.25 23.25Z" fill="#FFDA44"/>
<path d="M21.5 35.375C22.0523 35.375 22.5 34.9273 22.5 34.375C22.5 33.8227 22.0523 33.375 21.5 33.375C20.9477 33.375 20.5 33.8227 20.5 34.375C20.5 34.9273 20.9477 35.375 21.5 35.375Z" fill="#FFDA44"/>
<path d="M23.625 38.75C24.1773 38.75 24.625 38.3023 24.625 37.75C24.625 37.1977 24.1773 36.75 23.625 36.75C23.0727 36.75 22.625 37.1977 22.625 37.75C22.625 38.3023 23.0727 38.75 23.625 38.75Z" fill="#FFDA44"/>
<path d="M27 41.375C27.5523 41.375 28 40.9273 28 40.375C28 39.8227 27.5523 39.375 27 39.375C26.4477 39.375 26 39.8227 26 40.375C26 40.9273 26.4477 41.375 27 41.375Z" fill="#FFDA44"/>
<path d="M37.125 41.375C37.6773 41.375 38.125 40.9273 38.125 40.375C38.125 39.8227 37.6773 39.375 37.125 39.375C36.5727 39.375 36.125 39.8227 36.125 40.375C36.125 40.9273 36.5727 41.375 37.125 41.375Z" fill="#FFDA44"/>
<path d="M40.5 38.75C41.0523 38.75 41.5 38.3023 41.5 37.75C41.5 37.1977 41.0523 36.75 40.5 36.75C39.9477 36.75 39.5 37.1977 39.5 37.75C39.5 38.3023 39.9477 38.75 40.5 38.75Z" fill="#FFDA44"/>
<path d="M42.625 35.375C43.1773 35.375 43.625 34.9273 43.625 34.375C43.625 33.8227 43.1773 33.375 42.625 33.375C42.0727 33.375 41.625 33.8227 41.625 34.375C41.625 34.9273 42.0727 35.375 42.625 35.375Z" fill="#FFDA44"/>
<path d="M32.75 37.375H31.25C30.4906 37.375 29.875 37.9906 29.875 38.75C29.875 39.5094 30.4906 40.125 31.25 40.125H32.75C33.5094 40.125 34.125 39.5094 34.125 38.75C34.125 37.9906 33.5094 37.375 32.75 37.375Z" fill="#FF9811"/>
</g>
</g>
<defs>
<clipPath id="clip0_240_382">
<rect width="64" height="64" fill="white"/>
</clipPath>
</defs>
</svg>
