<svg width="64" height="64" viewBox="0 0 64 64" fill="none" xmlns="http://www.w3.org/2000/svg">
<g clip-path="url(#clip0_240_422)">
<mask id="mask0_240_422" style="mask-type:luminance" maskUnits="userSpaceOnUse" x="0" y="0" width="64" height="64">
<path d="M32 64C49.6731 64 64 49.6731 64 32C64 14.3269 49.6731 0 32 0C14.3269 0 0 14.3269 0 32C0 49.6731 14.3269 64 32 64Z" fill="white"/>
</mask>
<g mask="url(#mask0_240_422)">
<path d="M3.375 7.91211L64 12.7996V25.5996L59.6625 32.3746L64 38.3996V51.1996L3.425 55.8621L3.375 7.91211Z" fill="#EEEEEE"/>
<path d="M0 0L6.4 12.8H64V0H0ZM0 64H64V51.2H6.4L0 64ZM22.5 38.4H64V25.6H22.5V38.4Z" fill="#D80027"/>
<path d="M0 0V64L32 32L0 0Z" fill="#0052B4"/>
<path d="M12.9508 23.6504L15.0258 30.0254H21.7258L16.3008 33.9754L18.3758 40.3504L12.9508 36.4129L7.52578 40.3504L9.60078 33.9754L4.17578 30.0254H10.8758L12.9508 23.6504Z" fill="#EEEEEE"/>
</g>
</g>
<defs>
<clipPath id="clip0_240_422">
<rect width="64" height="64" fill="white"/>
</clipPath>
</defs>
</svg>
