<svg width="64" height="64" viewBox="0 0 64 64" fill="none" xmlns="http://www.w3.org/2000/svg">
<g clip-path="url(#clip0_514_43)">
<path d="M0 32C0 45.7587 8.684 57.4881 20.8694 62.0095L23.6521 31.9999L20.8694 1.99036C8.684 6.51186 0 18.2411 0 32Z" fill="#6DA544"/>
<path d="M63.9998 32C63.9998 14.327 49.6728 0 31.9998 0C28.0855 0 24.3359 0.704125 20.8691 1.99038V62.0096C24.3359 63.296 28.0855 64 31.9998 64C49.6728 64 63.9998 49.673 63.9998 32Z" fill="#D80027"/>
<path d="M20.8696 43.1304C27.0168 43.1304 32 38.1471 32 32C32 25.8529 27.0168 20.8696 20.8696 20.8696C14.7225 20.8696 9.73926 25.8529 9.73926 32C9.73926 38.1471 14.7225 43.1304 20.8696 43.1304Z" fill="#FFDA44"/>
<path d="M14.6084 26.4347V33.3912C14.6084 36.8489 17.4114 39.6521 20.8693 39.6521C24.3271 39.6521 27.1301 36.8491 27.1301 33.3912V26.4347H14.6084Z" fill="#D80027"/>
<path d="M20.8692 35.4783C19.7185 35.4783 18.7822 34.542 18.7822 33.3913V30.6088H22.9561V33.3914C22.9561 34.542 22.0199 35.4783 20.8692 35.4783Z" fill="#F0F0F0"/>
</g>
<defs>
<clipPath id="clip0_514_43">
<rect width="64" height="64" fill="white"/>
</clipPath>
</defs>
</svg>
