<svg width="64" height="64" viewBox="0 0 64 64" fill="none" xmlns="http://www.w3.org/2000/svg">
<g clip-path="url(#clip0_240_255)">
<mask id="mask0_240_255" style="mask-type:luminance" maskUnits="userSpaceOnUse" x="0" y="0" width="64" height="64">
<path d="M32 64C49.6731 64 64 49.6731 64 32C64 14.3269 49.6731 0 32 0C14.3269 0 0 14.3269 0 32C0 49.6731 14.3269 64 32 64Z" fill="white"/>
</mask>
<g mask="url(#mask0_240_255)">
<path d="M5.44922 13.6748L63.9992 18.0873V45.9123L5.47422 49.6498L5.44922 13.6748Z" fill="#EEEEEE"/>
<path d="M0 0H64V18.0875H13.875L0 0Z" fill="#D80027"/>
<path d="M13.875 45.9121H64V63.9996H0L13.875 45.9121Z" fill="#333333"/>
<path d="M0 0V64L32 32L0 0Z" fill="#496E2D"/>
</g>
</g>
<defs>
<clipPath id="clip0_240_255">
<rect width="64" height="64" fill="white"/>
</clipPath>
</defs>
</svg>
