<svg width="64" height="64" viewBox="0 0 64 64" fill="none" xmlns="http://www.w3.org/2000/svg">
<g clip-path="url(#clip0_240_431)">
<mask id="mask0_240_431" style="mask-type:luminance" maskUnits="userSpaceOnUse" x="0" y="0" width="64" height="64">
<path d="M32 64C49.6731 64 64 49.6731 64 32C64 14.3269 49.6731 0 32 0C14.3269 0 0 14.3269 0 32C0 49.6731 14.3269 64 32 64Z" fill="white"/>
</mask>
<g mask="url(#mask0_240_431)">
<path d="M0 0H64V20.875L57.425 31.35L64 43.125V64H0L9 30.9625L0 0Z" fill="#6DA544"/>
<path d="M14.3633 20.8623H64.0008V43.1123H14.3633V20.8623Z" fill="#FFDA44"/>
<path d="M0 0V64L32 32L0 0Z" fill="#D80027"/>
<path d="M40.6258 26.4375L42.0133 30.6875H46.5008L42.8758 33.3125L44.2633 37.5625L40.6383 34.9375L37.0258 37.5625L38.4008 33.3125L34.8008 30.6875H39.2508L40.6258 26.4375ZM54.5508 26.4375L55.9258 30.6875H60.4008L56.7758 33.3125L58.1633 37.5625L54.5383 34.9375L50.9258 37.5625L52.3133 33.3125L48.6883 30.6875H53.1633L54.5508 26.4375Z" fill="#333333"/>
</g>
</g>
<defs>
<clipPath id="clip0_240_431">
<rect width="64" height="64" fill="white"/>
</clipPath>
</defs>
</svg>
