<svg width="64" height="64" viewBox="0 0 64 64" fill="none" xmlns="http://www.w3.org/2000/svg">
<g clip-path="url(#clip0_240_264)">
<mask id="mask0_240_264" style="mask-type:luminance" maskUnits="userSpaceOnUse" x="0" y="0" width="64" height="64">
<path d="M32 64C49.6731 64 64 49.6731 64 32C64 14.3269 49.6731 0 32 0C14.3269 0 0 14.3269 0 32C0 49.6731 14.3269 64 32 64Z" fill="white"/>
</mask>
<g mask="url(#mask0_240_264)">
<path d="M0 0H64V18.0875L58.9375 32.1625L64 45.9125V64H0V45.9125L5.275 31.6625L0 18.0875V0Z" fill="#0052B4"/>
<path d="M0 18.0879H64V45.9129H0V18.0879Z" fill="#EEEEEE"/>
<path d="M25.5742 33.3877L31.9992 22.2627L38.4242 33.3877H25.5742Z" fill="#FFDA44"/>
<path d="M40.3484 37.0625L31.9984 41.25L23.6484 37.075V31.5H40.3484V37.0625Z" fill="#6DA544"/>
<path d="M39.875 22.75L36.925 25.6875C37.9075 26.6572 38.5784 27.8979 38.8518 29.2509C39.1253 30.604 38.9889 32.0078 38.46 33.2829C37.9312 34.558 37.034 35.6464 35.8832 36.4087C34.7324 37.1711 33.3804 37.5728 32 37.5625C30.6261 37.5583 29.2841 37.1476 28.1431 36.3823C27.002 35.617 26.1129 34.5312 25.5877 33.2616C25.0625 31.992 24.9246 30.5954 25.1915 29.2476C25.4584 27.8998 26.1181 26.6611 27.0875 25.6875L24.125 22.75C22.5715 24.3068 21.5144 26.2891 21.087 28.4465C20.6597 30.6039 20.8814 32.8395 21.7241 34.871C22.5669 36.9024 23.9928 38.6385 25.8218 39.8599C27.6507 41.0812 29.8007 41.7331 32 41.7331C34.1993 41.7331 36.3493 41.0812 38.1782 39.8599C40.0072 38.6385 41.4332 36.9024 42.2759 34.871C43.1186 32.8395 43.3403 30.6039 42.913 28.4465C42.4857 26.2891 41.4285 24.3068 39.875 22.75Z" fill="#FFDA44"/>
</g>
</g>
<defs>
<clipPath id="clip0_240_264">
<rect width="64" height="64" fill="white"/>
</clipPath>
</defs>
</svg>
