<svg width="64" height="64" viewBox="0 0 64 64" fill="none" xmlns="http://www.w3.org/2000/svg">
<g clip-path="url(#clip0_262_18)">
<path d="M29.2174 34.7826C29.2174 34.7826 9.39125 9.36813 9.3725 9.37263C15.1632 3.58175 23.1634 0 32 0C49.673 0 64 14.327 64 32L29.2174 34.7826Z" fill="#D80027"/>
<path d="M29.2174 32C29.2174 32 9.39125 54.6319 9.3725 54.6274C15.1632 60.4183 23.1634 64 32 64C49.673 64 64 49.673 64 32H29.2174Z" fill="#0052B4"/>
<path d="M9.3725 9.37256C-3.12425 21.8693 -3.12425 42.1307 9.3725 54.6276L32 32.0001L9.3725 9.37256Z" fill="#F0F0F0"/>
<path d="M3.50765 32.0001C3.48903 32.2315 3.47923 32.4635 3.47827 32.6956C3.47827 37.6901 7.52727 41.7391 12.5218 41.7391C17.5163 41.7391 21.5653 37.6901 21.5653 32.6956C21.5653 32.4614 21.5534 32.2297 21.5359 32.0001H3.50765Z" fill="#FFDA44"/>
<path d="M12.5218 27.8261C14.0586 27.8261 15.3044 26.5803 15.3044 25.0435C15.3044 23.5067 14.0586 22.2609 12.5218 22.2609C10.985 22.2609 9.73914 23.5067 9.73914 25.0435C9.73914 26.5803 10.985 27.8261 12.5218 27.8261Z" fill="#FFDA44"/>
<path d="M6.26086 24.3479V33.3914C6.26086 38.1839 12.5217 39.6523 12.5217 39.6523C12.5217 39.6523 18.7826 38.1839 18.7826 33.3914V24.3479H6.26086Z" fill="#D80027"/>
<path d="M12.5248 36.74C11.3633 36.322 9.0434 35.2537 9.0434 33.3912V27.1304H16V33.3912C16 35.2599 13.6804 36.3255 12.5248 36.74Z" fill="#338AF3"/>
<path d="M13.913 30.6087V29.2174L12.5218 28.5217L11.1304 29.2174V30.6087L10.4348 31.3044V34.087H14.6088V31.3044L13.913 30.6087Z" fill="#F3F3F3"/>
</g>
<defs>
<clipPath id="clip0_262_18">
<rect width="64" height="64" fill="white"/>
</clipPath>
</defs>
</svg>
