<svg width="64" height="64" viewBox="0 0 64 64" fill="none" xmlns="http://www.w3.org/2000/svg">
<g clip-path="url(#clip0_240_467)">
<mask id="mask0_240_467" style="mask-type:luminance" maskUnits="userSpaceOnUse" x="0" y="0" width="64" height="64">
<path d="M32 64C49.6731 64 64 49.6731 64 32C64 14.3269 49.6731 0 32 0C14.3269 0 0 14.3269 0 32C0 49.6731 14.3269 64 32 64Z" fill="white"/>
</mask>
<g mask="url(#mask0_240_467)">
<path d="M0 0H64V64H0V0Z" fill="#D80027"/>
<path d="M31.9992 47.3002C40.4492 47.3002 47.2992 40.4502 47.2992 32.0002C47.2992 23.5502 40.4492 16.7002 31.9992 16.7002C23.5493 16.7002 16.6992 23.5502 16.6992 32.0002C16.6992 40.4502 23.5493 47.3002 31.9992 47.3002Z" fill="#EEEEEE"/>
<path d="M33.875 26.1504L36.5 29.7754L40.7625 28.3879L38.1375 32.0129L40.7625 35.6254L36.5125 34.2379L33.8875 37.8629V33.3754L29.625 32.0004L33.875 30.6254V26.1504Z" fill="#D80027"/>
<path d="M35.4758 41.0379C34.1024 41.0341 32.748 40.7173 31.5154 40.1116C30.2827 39.5059 29.2044 38.6273 28.3622 37.5424C27.52 36.4576 26.9361 35.195 26.6549 33.8507C26.3737 32.5064 26.4026 31.1157 26.7394 29.7843C27.0762 28.4528 27.712 27.2156 28.5985 26.1667C29.4851 25.1177 30.599 24.2846 31.8557 23.7307C33.1125 23.1767 34.4789 22.9165 35.8513 22.9697C37.2236 23.023 38.5658 23.3883 39.7758 24.0379C38.21 22.5076 36.2274 21.4733 34.0765 21.0646C31.9255 20.656 29.7017 20.8911 27.6838 21.7406C25.6658 22.59 23.9434 24.016 22.7322 25.84C21.521 27.6639 20.875 29.8047 20.875 31.9941C20.875 34.1836 21.521 36.3244 22.7322 38.1483C23.9434 39.9723 25.6658 41.3983 27.6838 42.2477C29.7017 43.0972 31.9255 43.3323 34.0765 42.9236C36.2274 42.515 38.21 41.4807 39.7758 39.9504C38.4557 40.6659 36.9775 41.0398 35.4758 41.0379Z" fill="#D80027"/>
</g>
</g>
<defs>
<clipPath id="clip0_240_467">
<rect width="64" height="64" fill="white"/>
</clipPath>
</defs>
</svg>
