<svg width="64" height="64" viewBox="0 0 64 64" fill="none" xmlns="http://www.w3.org/2000/svg">
<g clip-path="url(#clip0_224_1182)">
<mask id="mask0_224_1182" style="mask-type:luminance" maskUnits="userSpaceOnUse" x="0" y="0" width="64" height="64">
<path d="M32 64C49.6731 64 64 49.6731 64 32C64 14.3269 49.6731 0 32 0C14.3269 0 0 14.3269 0 32C0 49.6731 14.3269 64 32 64Z" fill="white"/>
</mask>
<g mask="url(#mask0_224_1182)">
<path d="M0 13.775L13.775 0H64V50.225L50.225 64H0V13.775Z" fill="#D80027"/>
<path d="M13.775 0H7.875L0 7.875V13.775L50.225 64H56.125L64 56.125V50.225L13.775 0Z" fill="#EEEEEE"/>
<path d="M64 64V56.125L7.875 0H0V7.875L56.125 64H64Z" fill="#333333"/>
</g>
</g>
<defs>
<clipPath id="clip0_224_1182">
<rect width="64" height="64" fill="white"/>
</clipPath>
</defs>
</svg>
