<svg width="64" height="64" viewBox="0 0 64 64" fill="none" xmlns="http://www.w3.org/2000/svg">
<g clip-path="url(#clip0_240_679)">
<mask id="mask0_240_679" style="mask-type:luminance" maskUnits="userSpaceOnUse" x="0" y="0" width="64" height="64">
<path d="M32 64C49.6731 64 64 49.6731 64 32C64 14.3269 49.6731 0 32 0C14.3269 0 0 14.3269 0 32C0 49.6731 14.3269 64 32 64Z" fill="white"/>
</mask>
<g mask="url(#mask0_240_679)">
<path d="M32 0H64V64H0V32L32 0Z" fill="#0052B4"/>
<path d="M45.9117 32L37.2617 40.65C38.0819 42.2366 39.3227 43.5671 40.8484 44.4958C42.374 45.4245 44.1256 45.9158 45.9117 45.9158C47.6978 45.9158 49.4495 45.4245 50.9751 44.4958C52.5007 43.5671 53.7415 42.2366 54.5617 40.65L45.9117 32Z" fill="#FFDA44"/>
<path d="M36.1766 16.7002V32.0002C36.1766 39.4502 45.9141 41.7502 45.9141 41.7502C45.9141 41.7502 55.6641 39.4502 55.6641 32.0002V16.7002H36.1641H36.1766Z" fill="#6DA544"/>
<path d="M38.9609 19.4746H41.7359V22.2621H38.9609V19.4746ZM38.9609 25.7371H41.7359V28.5246H38.9609V25.7371ZM38.9609 31.9996H41.7359V34.7871H38.9609V31.9996ZM50.0859 19.4746H52.8734V22.2621H50.0859V19.4746ZM50.0859 25.7371H52.8734V28.5246H50.0859V25.7371ZM50.0859 31.9996H52.8734V34.7871H50.0859V31.9996Z" fill="#FFDA44"/>
<path d="M0 0V4L4 8L0 12V32H4L8 28L12 32H16V21.625L26.375 32H32L31 30L32 28.125V26.375L21.625 16H32V12L28 8L32 4V0H12L8 4L4 0H0Z" fill="#EEEEEE"/>
<path d="M4 0V4H0V12H4V32H12V12H32V4H12V0H4ZM16 16L32 32V28.125L19.875 16H16Z" fill="#D80027"/>
<path d="M43.8242 23.6504H47.9992V34.7754H43.8242V23.6504Z" fill="#EEEEEE"/>
<path d="M45.9117 25.7375C47.0646 25.7375 47.9992 24.8029 47.9992 23.65C47.9992 22.4971 47.0646 21.5625 45.9117 21.5625C44.7588 21.5625 43.8242 22.4971 43.8242 23.65C43.8242 24.8029 44.7588 25.7375 45.9117 25.7375Z" fill="#A2001D"/>
</g>
</g>
<defs>
<clipPath id="clip0_240_679">
<rect width="64" height="64" fill="white"/>
</clipPath>
</defs>
</svg>
