<svg width="64" height="64" viewBox="0 0 64 64" fill="none" xmlns="http://www.w3.org/2000/svg">
<g clip-path="url(#clip0_240_327)">
<mask id="mask0_240_327" style="mask-type:luminance" maskUnits="userSpaceOnUse" x="0" y="0" width="64" height="64">
<path d="M32 64C49.6731 64 64 49.6731 64 32C64 14.3269 49.6731 0 32 0C14.3269 0 0 14.3269 0 32C0 49.6731 14.3269 64 32 64Z" fill="white"/>
</mask>
<g mask="url(#mask0_240_327)">
<path d="M0 0H64V64H0V0Z" fill="#EEEEEE"/>
<path d="M37.4375 22.3496C37.4375 20.9075 36.8646 19.5244 35.8449 18.5047C34.8252 17.485 33.4421 16.9121 32 16.9121C30.5579 16.9121 29.1748 17.485 28.1551 18.5047C27.1354 19.5244 26.5625 20.9075 26.5625 22.3496H14.625C14.661 23.7887 15.2597 25.1563 16.2927 26.1589C17.3256 27.1615 18.7105 27.7191 20.15 27.7121H19.975C19.975 29.131 20.5387 30.4918 21.542 31.4951C22.5453 32.4985 23.9061 33.0621 25.325 33.0621L32.0125 38.3121L38.7 33.0621C39.4026 33.0621 40.0983 32.9237 40.7474 32.6549C41.3964 32.386 41.9862 31.9919 42.483 31.4951C42.9798 30.9983 43.3739 30.4086 43.6428 29.7595C43.9116 29.1104 44.05 28.4147 44.05 27.7121H43.875C45.3145 27.7191 46.6994 27.1615 47.7323 26.1589C48.7653 25.1563 49.364 23.7887 49.4 22.3496H37.45H37.4375Z" fill="#FFDA44"/>
<path d="M29.6133 37.7871L26.2383 45.3996C28.0681 46.1443 30.0252 46.5264 32.0008 46.5246C33.9721 46.5248 35.9248 46.1427 37.7508 45.3996L34.3883 37.7871H29.6258H29.6133Z" fill="#FFDA44"/>
<path d="M31.9141 26.75L25.0391 29.4375V34.4C25.0624 35.3972 25.3285 36.3737 25.8142 37.2449C26.2999 38.1161 26.9906 38.8558 27.8266 39.4L29.2391 39.1125L30.6141 40.9C31.0672 41.0774 31.5306 41.2276 32.0016 41.35C32.0016 41.35 32.5766 41.2125 33.3891 40.9L34.5641 39.1375L36.1891 39.4C37.0237 38.8524 37.7124 38.1099 38.1959 37.2366C38.6794 36.3633 38.943 35.3855 38.9641 34.3875V29.4375L31.9141 26.75Z" fill="#EEEEEE"/>
<path d="M7.75156 32.2246L11.5391 42.7496L15.2641 32.2246H18.1016L12.6766 46.1371H10.3766L4.91406 32.2246H7.76406H7.75156ZM51.4766 46.1371V32.2246H54.1891V46.1371H51.4766Z" fill="#338AF3"/>
<path d="M27.8242 28.0496V39.3996C28.6831 40.0205 29.6204 40.5249 30.6117 40.8996V28.0371L27.8242 28.0496ZM36.1742 28.0496V39.3996C35.3138 40.0181 34.3768 40.5223 33.3867 40.8996V28.0371L36.1742 28.0496Z" fill="#D80027"/>
<path d="M25.0391 25.0254H38.9641V29.4379H25.0391V25.0254Z" fill="#0052B4"/>
</g>
</g>
<defs>
<clipPath id="clip0_240_327">
<rect width="64" height="64" fill="white"/>
</clipPath>
</defs>
</svg>
