<svg width="64" height="64" viewBox="0 0 64 64" fill="none" xmlns="http://www.w3.org/2000/svg">
<g clip-path="url(#clip0_224_1190)">
<mask id="mask0_224_1190" style="mask-type:luminance" maskUnits="userSpaceOnUse" x="0" y="0" width="64" height="64">
<path d="M32 64C49.6731 64 64 49.6731 64 32C64 14.3269 49.6731 0 32 0C14.3269 0 0 14.3269 0 32C0 49.6731 14.3269 64 32 64Z" fill="white"/>
</mask>
<g mask="url(#mask0_224_1190)">
<path d="M0 0H64V64H0V0Z" fill="#EEEEEE"/>
<path d="M14.1246 17.375C13.6246 17.375 12.7496 17.625 11.2496 18.375C10.6599 18.6754 10.1133 19.0538 9.62456 19.5C6.12456 22.875 7.12456 28 8.24956 29.375C8.62456 29.875 10.2496 32.25 12.2496 33.125C14.9996 34.125 16.7496 36.625 16.8746 39.5C16.8746 42.5 14.9996 45 12.6246 45.25H12.1246C9.74956 45.25 7.62456 42.875 7.49956 39.875V40.125C7.62456 43.75 9.99956 46.625 12.8746 46.625C15.7496 46.625 18.3746 45.125 19.7496 42.625L20.3746 41.625C20.6395 41.0743 20.8086 40.4825 20.8746 39.875C21.3746 37.5 21.6246 31.125 14.9996 28C9.99956 25.5 9.37456 23.5 9.99956 22.625C10.0503 22.5798 10.1097 22.5454 10.1742 22.5239C10.2387 22.5024 10.3068 22.4943 10.3746 22.5C10.3737 23.1088 10.6067 23.6947 11.0254 24.1367C11.4441 24.5787 12.0166 24.843 12.6246 24.875C13.0888 24.8688 13.5342 24.6907 13.8746 24.375C13.8746 24.375 16.1246 26.625 16.8746 25.75C17.6246 24.875 16.8746 24.875 16.1246 24C15.4996 23.125 16.1246 21.375 14.7496 20.5C13.2496 19.625 12.4996 19.625 13.2496 18.625C13.4177 18.3758 13.6399 18.1677 13.8996 18.0162C14.1593 17.8647 14.4498 17.7737 14.7496 17.75C14.7496 17.75 14.7496 17.375 14.1246 17.375ZM49.9996 17.375C49.3746 17.375 49.3746 17.75 49.3746 17.75C49.9996 17.875 50.4996 18.125 50.8746 18.625C51.4996 19.625 50.8746 19.625 49.3746 20.5C47.8746 21.375 48.6246 23.125 47.8746 24C47.2496 24.875 46.4996 24.875 47.2496 25.75C47.8746 26.625 50.2496 24.375 50.2496 24.375C50.59 24.6907 51.0354 24.8688 51.4996 24.875C52.1075 24.843 52.68 24.5787 53.0987 24.1367C53.5174 23.6947 53.7504 23.1088 53.7496 22.5C53.8431 22.5171 53.9298 22.5604 53.9996 22.625C54.7496 23.5 54.1246 25.5 48.9996 28C42.4996 31.125 42.7496 37.5 43.1246 39.875L43.7496 41.625C43.9495 41.9635 44.1579 42.2969 44.3746 42.625C45.6246 45.125 48.3746 46.75 51.1246 46.625C54.1246 46.625 56.4996 43.75 56.6246 40.125V39.875C56.3746 42.875 54.3746 45.25 51.8746 45.25H51.3746C48.9996 45 47.2496 42.5 47.2496 39.5C47.3746 36.625 49.1246 34.125 51.7496 33.125C53.7496 32.25 55.3746 29.875 55.8746 29.375C56.8746 28 57.9996 22.875 54.4996 19.5C53.9723 19.0442 53.3831 18.6654 52.7496 18.375C51.2496 17.625 50.4996 17.375 49.9996 17.375ZM3.24956 24.875C3.12456 24.875 2.99956 25 2.99956 25.25C2.74956 27.25 2.87456 31.75 7.12456 33.25C7.15627 33.2712 7.19241 33.2849 7.23022 33.29C7.26803 33.2951 7.30651 33.2915 7.34271 33.2794C7.3789 33.2674 7.41186 33.2472 7.43905 33.2204C7.46623 33.1936 7.48693 33.161 7.49956 33.125L8.24956 32.125V31.625C7.62456 30.75 5.49956 27.75 5.49956 26.125L5.24956 25.875C4.89127 25.88 4.53648 25.804 4.21177 25.6524C3.88705 25.5009 3.60084 25.2778 3.37456 25L3.24956 24.875ZM60.7496 24.875L60.6246 25C60.3983 25.2778 60.1121 25.5009 59.7874 25.6524C59.4626 25.804 59.1079 25.88 58.7496 25.875L58.4996 26.125C58.4996 27.75 56.3746 30.75 55.8746 31.625V32.125L56.4996 33.125C56.5122 33.161 56.5329 33.1936 56.5601 33.2204C56.5873 33.2472 56.6202 33.2674 56.6564 33.2794C56.6926 33.2915 56.7311 33.2951 56.7689 33.29C56.8067 33.2849 56.8429 33.2712 56.8746 33.25C61.1246 31.75 61.2496 27.25 61.1246 25.25L60.7496 24.875Z" fill="#ACABB1"/>
<path d="M26.375 18.375C25.6291 18.375 24.9137 18.6713 24.3863 19.1988C23.8588 19.7262 23.5625 20.4416 23.5625 21.1875C23.5625 21.9334 23.8588 22.6488 24.3863 23.1762C24.9137 23.7037 25.6291 24 26.375 24C25.6291 24 24.9137 24.2963 24.3863 24.8238C23.8588 25.3512 23.5625 26.0666 23.5625 26.8125C23.5625 27.5584 23.8588 28.2738 24.3863 28.8012C24.9137 29.3287 25.6291 29.625 26.375 29.625L32 33.625L37.625 29.625C38.3709 29.625 39.0863 29.3287 39.6137 28.8012C40.1412 28.2738 40.4375 27.5584 40.4375 26.8125C40.4375 26.0666 40.1412 25.3512 39.6137 24.8238C39.0863 24.2963 38.3709 24 37.625 24C38.1813 24 38.725 23.8351 39.1875 23.526C39.6501 23.217 40.0105 22.7777 40.2234 22.2638C40.4363 21.7499 40.492 21.1844 40.3835 20.6388C40.2749 20.0932 40.0071 19.5921 39.6137 19.1988C39.2204 18.8054 38.7193 18.5376 38.1737 18.429C37.6281 18.3205 37.0626 18.3762 36.5487 18.5891C36.0348 18.802 35.5955 19.1624 35.2865 19.625C34.9774 20.0875 34.8125 20.6312 34.8125 21.1875C34.8125 20.4416 34.5162 19.7262 33.9887 19.1988C33.4613 18.6713 32.7459 18.375 32 18.375C31.2541 18.375 30.5387 18.6713 30.0113 19.1988C29.4838 19.7262 29.1875 20.4416 29.1875 21.1875C29.1875 20.4416 28.8912 19.7262 28.3637 19.1988C27.8363 18.6713 27.1209 18.375 26.375 18.375Z" fill="#0052B4"/>
<path d="M26.375 40.875C25.6291 40.875 24.9137 40.5787 24.3863 40.0512C23.8588 39.5238 23.5625 38.8084 23.5625 38.0625C23.5625 37.3166 23.8588 36.6012 24.3863 36.0738C24.9137 35.5463 25.6291 35.25 26.375 35.25C25.6291 35.25 24.9137 34.9537 24.3863 34.4262C23.8588 33.8988 23.5625 33.1834 23.5625 32.4375C23.5625 31.6916 23.8588 30.9762 24.3863 30.4488C24.9137 29.9213 25.6291 29.625 26.375 29.625H37.625C38.3709 29.625 39.0863 29.9213 39.6137 30.4488C40.1412 30.9762 40.4375 31.6916 40.4375 32.4375C40.4375 33.1834 40.1412 33.8988 39.6137 34.4262C39.0863 34.9537 38.3709 35.25 37.625 35.25C38.3709 35.25 39.0863 35.5463 39.6137 36.0738C40.1412 36.6012 40.4375 37.3166 40.4375 38.0625C40.4375 38.8084 40.1412 39.5238 39.6137 40.0512C39.0863 40.5787 38.3709 40.875 37.625 40.875C36.8791 40.875 36.1637 40.5787 35.6363 40.0512C35.1088 39.5238 34.8125 38.8084 34.8125 38.0625C34.8125 38.8084 34.5162 39.5238 33.9887 40.0512C33.4613 40.5787 32.7459 40.875 32 40.875C31.2541 40.875 30.5387 40.5787 30.0113 40.0512C29.4838 39.5238 29.1875 38.8084 29.1875 38.0625C29.1875 38.8084 28.8912 39.5238 28.3637 40.0512C27.8363 40.5787 27.1209 40.875 26.375 40.875Z" fill="#D80027"/>
<path d="M29 23.5C28.9371 23.7035 28.8953 23.913 28.875 24.125C28.875 24.5354 28.9558 24.9417 29.1129 25.3209C29.2699 25.7 29.5001 26.0445 29.7903 26.3347C30.0805 26.6249 30.425 26.8551 30.8041 27.0121C31.1833 27.1692 31.5896 27.25 32 27.25C32.4104 27.25 32.8167 27.1692 33.1959 27.0121C33.575 26.8551 33.9195 26.6249 34.2097 26.3347C34.4999 26.0445 34.7301 25.7 34.8871 25.3209C35.0442 24.9417 35.125 24.5354 35.125 24.125C35.1047 23.913 35.0629 23.7035 35 23.5C34.8338 24.1723 34.449 24.7704 33.906 25.2003C33.363 25.6302 32.6925 25.8675 32 25.875C31.3075 25.8675 30.637 25.6302 30.094 25.2003C29.551 24.7704 29.1662 24.1723 29 23.5Z" fill="#EEEEEE"/>
<path d="M35.375 31.75C35.2424 31.75 35.1152 31.8027 35.0214 31.8964C34.9276 31.9902 34.875 32.1174 34.875 32.25V33.25L34 32.75C33.9302 32.6854 33.8435 32.6421 33.75 32.625C33.6723 32.6344 33.5978 32.6619 33.5327 32.7054C33.4676 32.7488 33.4135 32.8069 33.375 32.875C33.3285 32.9303 33.2946 32.9951 33.2755 33.0648C33.2564 33.1345 33.2527 33.2075 33.2646 33.2788C33.2765 33.3501 33.3037 33.418 33.3443 33.4777C33.385 33.5375 33.4381 33.5877 33.5 33.625L34.375 34.125L33.5 34.5C33.4381 34.5373 33.385 34.5875 33.3443 34.6473C33.3037 34.707 33.2765 34.7749 33.2646 34.8462C33.2527 34.9175 33.2564 34.9905 33.2755 35.0602C33.2946 35.1299 33.3285 35.1947 33.375 35.25C33.4483 35.3403 33.5509 35.4022 33.665 35.425C33.7791 35.4478 33.8975 35.4301 34 35.375L34.875 35V35.875C34.875 36.0076 34.9276 36.1348 35.0214 36.2286C35.1152 36.3223 35.2424 36.375 35.375 36.375C35.5076 36.375 35.6348 36.3223 35.7285 36.2286C35.8223 36.1348 35.875 36.0076 35.875 35.875V35L36.75 35.375C36.8524 35.4301 36.9709 35.4478 37.085 35.425C37.1991 35.4022 37.3016 35.3403 37.375 35.25C37.4215 35.1947 37.4554 35.1299 37.4744 35.0602C37.4935 34.9905 37.4972 34.9175 37.4853 34.8462C37.4734 34.7749 37.4463 34.707 37.4056 34.6473C37.365 34.5875 37.3119 34.5373 37.25 34.5L36.375 34.125L37.25 33.625C37.3119 33.5877 37.365 33.5375 37.4056 33.4777C37.4463 33.418 37.4734 33.3501 37.4853 33.2788C37.4972 33.2075 37.4935 33.1345 37.4744 33.0648C37.4554 32.9951 37.4215 32.9303 37.375 32.875C37.3364 32.8069 37.2824 32.7488 37.2172 32.7054C37.1521 32.6619 37.0777 32.6344 37 32.625C36.9064 32.6421 36.8197 32.6854 36.75 32.75L35.875 33.25V32.25C35.875 32.1174 35.8223 31.9902 35.7285 31.8964C35.6348 31.8027 35.5076 31.75 35.375 31.75ZM28.625 31.75C28.4924 31.75 28.3652 31.8027 28.2714 31.8964C28.1776 31.9902 28.125 32.1174 28.125 32.25V33.25L27.25 32.75C27.1802 32.6854 27.0935 32.6421 27 32.625C26.9223 32.6344 26.8478 32.6619 26.7827 32.7054C26.7176 32.7488 26.6635 32.8069 26.625 32.875C26.5785 32.9303 26.5446 32.9951 26.5255 33.0648C26.5064 33.1345 26.5027 33.2075 26.5146 33.2788C26.5265 33.3501 26.5537 33.418 26.5943 33.4777C26.6349 33.5375 26.6881 33.5877 26.75 33.625L27.625 34.125L26.75 34.5C26.6881 34.5373 26.6349 34.5875 26.5943 34.6473C26.5537 34.707 26.5265 34.7749 26.5146 34.8462C26.5027 34.9175 26.5064 34.9905 26.5255 35.0602C26.5446 35.1299 26.5785 35.1947 26.625 35.25C26.6983 35.3403 26.8009 35.4022 26.915 35.425C27.0291 35.4478 27.1475 35.4301 27.25 35.375L28.125 35V35.875C28.125 36.0076 28.1776 36.1348 28.2714 36.2286C28.3652 36.3223 28.4924 36.375 28.625 36.375C28.7576 36.375 28.8848 36.3223 28.9785 36.2286C29.0723 36.1348 29.125 36.0076 29.125 35.875V35L30 35.375C30.1024 35.4301 30.2209 35.4478 30.335 35.425C30.4491 35.4022 30.5516 35.3403 30.625 35.25C30.6715 35.1947 30.7054 35.1299 30.7244 35.0602C30.7435 34.9905 30.7472 34.9175 30.7353 34.8462C30.7234 34.7749 30.6963 34.707 30.6556 34.6473C30.615 34.5875 30.5619 34.5373 30.5 34.5L29.625 34.125L30.5 33.625C30.5619 33.5877 30.615 33.5375 30.6556 33.4777C30.6963 33.418 30.7234 33.3501 30.7353 33.2788C30.7472 33.2075 30.7435 33.1345 30.7244 33.0648C30.7054 32.9951 30.6715 32.9303 30.625 32.875C30.5864 32.8069 30.5324 32.7488 30.4672 32.7054C30.4021 32.6619 30.3277 32.6344 30.25 32.625C30.1564 32.6421 30.0697 32.6854 30 32.75L29.125 33.25V32.25C29.125 32.1174 29.0723 31.9902 28.9785 31.8964C28.8848 31.8027 28.7576 31.75 28.625 31.75Z" fill="#FFDA44"/>
</g>
</g>
<defs>
<clipPath id="clip0_224_1190">
<rect width="64" height="64" fill="white"/>
</clipPath>
</defs>
</svg>
