<svg width="64" height="64" viewBox="0 0 64 64" fill="none" xmlns="http://www.w3.org/2000/svg">
<g clip-path="url(#clip0_513_2)">
<path d="M32 64C49.6731 64 64 49.6731 64 32C64 14.3269 49.6731 0 32 0C14.3269 0 0 14.3269 0 32C0 49.6731 14.3269 64 32 64Z" fill="#F0F0F0"/>
<path d="M62.0096 20.8696H27.8261V12.5217H11.1304V20.8696H1.99038C0.704125 24.3361 0 28.0857 0 32C0 35.9142 0.704125 39.6637 1.99038 43.1304L32 45.913L62.0096 43.1304C63.2959 39.6637 64 35.9142 64 32C64 28.0857 63.2959 24.3361 62.0096 20.8696Z" fill="#0052B4"/>
<path d="M31.9999 64C45.7587 64 57.4881 55.316 62.0095 43.1304H1.99023C6.51161 55.316 18.241 64 31.9999 64Z" fill="#D80027"/>
<path d="M11.1309 20.8696V23.6521C11.1309 30.0423 19.4787 32.0001 19.4787 32.0001C19.4787 32.0001 27.8266 30.0423 27.8266 23.6521V20.8696L25.044 23.6523L19.4787 19.4784L13.9135 23.6523L11.1309 20.8696Z" fill="#F0F0F0"/>
</g>
<defs>
<clipPath id="clip0_513_2">
<rect width="64" height="64" fill="white"/>
</clipPath>
</defs>
</svg>
