<svg width="64" height="64" viewBox="0 0 64 64" fill="none" xmlns="http://www.w3.org/2000/svg">
<g clip-path="url(#clip0_40_27338)">
<mask id="mask0_40_27338" style="mask-type:luminance" maskUnits="userSpaceOnUse" x="0" y="0" width="64" height="64">
<path d="M32 64C49.6731 64 64 49.6731 64 32C64 14.3269 49.6731 0 32 0C14.3269 0 0 14.3269 0 32C0 49.6731 14.3269 64 32 64Z" fill="white"/>
</mask>
<g mask="url(#mask0_40_27338)">
<path d="M32 64C49.6731 64 64 49.6731 64 32C64 14.3269 49.6731 0 32 0C14.3269 0 0 14.3269 0 32C0 49.6731 14.3269 64 32 64Z" fill="#988430"/>
<path d="M32 62.9749C49.107 62.9749 62.975 49.1069 62.975 31.9999C62.975 14.8929 49.107 1.0249 32 1.0249C14.893 1.0249 1.02502 14.8929 1.02502 31.9999C1.02502 49.1069 14.893 62.9749 32 62.9749Z" fill="#7A6A2A"/>
<path d="M32 62.322C48.7464 62.322 62.322 48.7464 62.322 32C62.322 15.2536 48.7464 1.67798 32 1.67798C15.2536 1.67798 1.67798 15.2536 1.67798 32C1.67798 48.7464 15.2536 62.322 32 62.322Z" fill="#BA9F33"/>
<path fill-rule="evenodd" clip-rule="evenodd" d="M13.991 28.5831C13.81 28.4171 13.618 28.2521 13.442 28.0831C13.266 27.9141 13.085 27.7521 12.904 27.5831L12.365 27.0711C12.277 26.9831 12.184 26.9051 12.096 26.8171C12.008 26.7291 11.905 26.6511 11.816 26.5741C11.101 25.8961 10.382 25.2181 9.678 24.5391C10.408 25.2071 11.123 25.8701 11.853 26.5481L12.107 26.8021C12.195 26.8901 12.288 26.9681 12.376 27.0561L12.914 27.5561C13.095 27.7221 13.271 27.8871 13.453 28.0681C13.635 28.2491 13.81 28.4151 13.992 28.5801L13.991 28.5831ZM4.5 28.4801C4.5 28.4801 7.1 28.7491 8.368 28.9301C9.543 29.0961 13.22 29.6601 13.22 29.6601L4.5 28.4801ZM4.5 28.4801C5.23 28.5421 5.96 28.6201 6.69 28.6971C7.063 28.7331 7.42 28.7741 7.777 28.8111L8.326 28.8731L8.865 28.9501L11.04 29.2971L12.127 29.4781C12.484 29.5401 12.842 29.6081 13.214 29.6701C12.857 29.6341 12.484 29.5821 12.127 29.5301L11.04 29.3751L8.87 29.0551C8.689 29.0291 8.513 28.9931 8.331 28.9671L7.782 28.9001C7.425 28.8641 7.052 28.8121 6.695 28.7701C5.965 28.6821 5.235 28.5891 4.505 28.4751L4.5 28.4801ZM12.961 30.3381C12.961 30.3381 10.186 31.0381 9.248 31.3121C8.326 31.5661 5.535 32.4121 5.535 32.4121L12.96 30.3361L12.961 30.3381Z" fill="#CFB66C"/>
<path fill-rule="evenodd" clip-rule="evenodd" d="M12.966 30.3379C12.35 30.5189 11.737 30.6949 11.112 30.8609L9.25804 31.3609C8.64204 31.5419 8.02904 31.7179 7.41504 31.8999L6.49304 32.1539C6.18804 32.2419 5.87704 32.3199 5.56104 32.4079C5.86604 32.3079 6.17704 32.2009 6.48304 32.1079L7.40504 31.8129C8.02104 31.6209 8.63404 31.4399 9.24804 31.2479C9.87404 31.0929 10.491 30.9269 11.117 30.7769C11.717 30.6269 12.339 30.4779 12.966 30.3379ZM5.92904 34.1229C6.23404 34.0089 9.75504 32.3679 10.574 31.9849C10.984 31.7929 12.174 31.3709 12.174 31.3709L5.92904 34.1229Z" fill="#CFB66C"/>
<path fill-rule="evenodd" clip-rule="evenodd" d="M5.92896 34.1229C6.19796 34.0229 6.45196 33.8949 6.71096 33.7759L7.47696 33.4189L9.01496 32.6789C9.52696 32.4359 10.025 32.1669 10.553 31.9379C10.822 31.8239 11.092 31.7309 11.361 31.6429L11.771 31.5139C11.911 31.4779 12.04 31.4359 12.181 31.3999C11.669 31.6429 11.13 31.8509 10.617 32.0879C10.105 32.3419 9.58096 32.5489 9.05296 32.7769L7.48896 33.4649C6.96396 33.6779 6.45196 33.9049 5.92896 34.1229ZM6.26996 35.5569C6.26996 35.5569 9.45896 33.6879 10.557 33.0869C11.132 32.7659 12.991 31.8439 12.991 31.8439L6.26996 35.5569Z" fill="#CFB66C"/>
<path fill-rule="evenodd" clip-rule="evenodd" d="M6.271 35.557C6.809 35.226 7.358 34.889 7.907 34.547L8.726 34.047C9.006 33.881 9.275 33.726 9.56 33.561C9.845 33.396 10.109 33.23 10.394 33.074C10.5297 32.9905 10.6718 32.9179 10.819 32.857L11.254 32.64C11.829 32.36 12.404 32.075 13.009 31.832C12.46 32.179 11.896 32.474 11.331 32.78C11.051 32.935 10.766 33.08 10.487 33.231C10.208 33.382 9.938 33.552 9.653 33.702C9.373 33.868 9.104 34.023 8.819 34.173L7.975 34.634L6.275 35.556L6.271 35.557ZM12.966 32.257C12.966 32.257 10.983 33.779 10.341 34.266C9.699 34.753 7.809 36.12 7.809 36.12L12.966 32.257Z" fill="#CFB66C"/>
<path fill-rule="evenodd" clip-rule="evenodd" d="M24.347 44.531L23.332 42.61L23.922 40.21L28.132 38.584L26.34 34.905L27.225 31.192L28.887 27.867L34.024 27.059L37.798 23.459L45.948 24.075L47.548 32.79L44.469 43.764L42.714 49.444L35.599 49.713L32.299 47.424L28.427 45.81L24.347 44.531Z" fill="#E2CC85"/>
<path fill-rule="evenodd" clip-rule="evenodd" d="M36.826 44.4689C35.9762 44.7838 35.0661 44.9025 34.164 44.8159C33.678 44.1639 30.277 43.8579 30.277 43.8579C29.8757 43.7908 29.4635 43.8542 29.101 44.0389C28.4017 44.2432 27.6865 44.3887 26.963 44.4739C26.295 44.6399 25.632 43.7739 25.12 43.5889C24.7033 43.4096 24.3045 43.1913 23.929 42.9369L22.495 42.7969L19.616 41.5799L15.042 37.0239L13.8 38.9679L13.417 41.3759L14.8 44.2289L18.523 47.6199L25.782 49.4629L30.082 48.1949L35.472 45.9169L36.824 44.4669L36.826 44.4689Z" fill="#F1D789"/>
<path fill-rule="evenodd" clip-rule="evenodd" d="M11.034 28.3651L11.956 25.5741L13.056 23.7741L16.592 23.4741L15.53 26.5741L12.574 31.8351L13.801 36.5351L11.626 37.6221L10.958 36.5971L10.42 34.2461L10.382 31.6001L11.034 28.3651Z" fill="#F4ECB4"/>
<path fill-rule="evenodd" clip-rule="evenodd" d="M15 44.2769L14.322 43.3289C14.2187 43.0602 14.192 42.768 14.245 42.4849C14.345 42.0849 14.333 42.0599 14.281 41.9099C14.229 41.7599 13.794 41.2419 13.82 40.7969C13.846 40.3519 13.784 40.1969 14.115 39.8389C14.2198 39.7069 14.2956 39.5542 14.3375 39.3908C14.3794 39.2275 14.3864 39.0572 14.358 38.8909L14.809 39.1709L14.909 39.0159C14.958 39.0566 14.9981 39.1071 15.0267 39.164C15.0553 39.221 15.0717 39.2833 15.075 39.3469C15.111 39.0669 14.961 37.7729 15.303 37.4779C15.645 37.1829 16.251 38.8599 16.251 38.8599L15.878 36.4259L14.92 33.9259L13.22 31.6479L13.12 29.1359V28.9189C12.6873 29.5851 12.3506 30.3088 12.12 31.0689C11.965 31.7209 12.337 32.5139 12.26 33.4509C12.198 34.3829 12.12 34.3099 12.348 34.6799C12.576 35.0499 13.13 35.8089 12.913 36.3579C12.722 36.8289 12.069 36.4979 12.069 36.4979C12.0062 36.6922 11.9021 36.8706 11.764 37.0209C11.7234 36.8318 11.6361 36.6557 11.51 36.5089C11.499 36.5969 11.474 36.7159 11.474 36.7159C11.474 36.7159 11.36 36.3589 11.246 35.9079C11.091 35.3079 10.925 34.5149 10.775 34.0909C10.713 34.3339 10.558 35.0749 10.558 35.0749L10.646 36.2139L11.071 37.7779L11.481 38.8019L11.881 40.0549L12.227 40.8969L12.507 41.5389L12.75 42.9839L13.925 44.2259L14.552 44.5059L15 44.2769Z" fill="#F3E19D"/>
<path fill-rule="evenodd" clip-rule="evenodd" d="M11.65 26.0869C11.139 26.9836 10.7722 27.9552 10.563 28.9659C10.2462 30.5922 10.143 32.2529 10.256 33.9059C10.3479 35.2823 10.5788 36.6459 10.945 37.9759C11.3388 39.1659 11.8305 40.3212 12.4151 41.4299L12.4511 41.3519C12.2726 41.0138 12.1301 40.6578 12.0261 40.2899C11.8861 39.7409 11.8341 39.0899 11.7051 38.7899C11.5507 38.4959 11.417 38.1915 11.3051 37.8789C11.2575 37.4271 11.1313 36.9871 10.9321 36.5789C10.762 36.2578 10.6598 35.9052 10.6321 35.5429C10.5801 34.8899 10.658 34.1599 10.596 33.5599C10.4652 32.8342 10.4355 32.0938 10.5081 31.3599C10.6081 30.8369 11.1501 29.3509 11.4821 28.1709C11.6991 27.4149 11.5701 26.7779 11.9681 26.1199C12.2938 25.6188 12.5401 25.0703 12.6981 24.4939C12.7981 24.1319 11.6421 26.0889 11.6421 26.0889L11.65 26.0869Z" fill="#F2E8B0"/>
<path fill-rule="evenodd" clip-rule="evenodd" d="M15.653 25.512C15.4154 25.5825 15.1963 25.7044 15.011 25.869C14.8063 26.1143 14.6144 26.37 14.436 26.635C14.2231 26.9922 14.0478 27.3706 13.913 27.764C13.685 28.215 13.183 28.893 13.121 29.136C13.059 29.379 12.955 30.518 12.826 31.057C12.7737 31.4615 12.8179 31.8727 12.955 32.257L13.25 32.195C13.2613 32.4402 13.3692 32.6709 13.55 32.837C13.845 33.091 13.897 31.977 13.897 31.977L15 28.256L16.662 27.127L16.843 26.216L15.657 25.516L15.653 25.512Z" fill="#F5EEC0"/>
<path fill-rule="evenodd" clip-rule="evenodd" d="M16.461 27.1999C16.053 27.2234 15.6553 27.3364 15.296 27.5309C15.141 27.6449 15.079 27.7379 14.913 27.8779C14.5996 28.0902 14.3379 28.3701 14.147 28.6969C13.8897 29.2594 13.7304 29.8618 13.676 30.4779C13.624 30.8779 13.624 31.2439 13.588 31.5649C13.5198 31.9021 13.4903 32.246 13.5 32.5899C13.552 33.0899 14.065 33.3459 14.114 33.9099L15.176 33.3719L16.176 29.4309L18.3 28.0999L17.1 26.7539L16.463 27.1979L16.461 27.1999Z" fill="#E6DB9D"/>
<path fill-rule="evenodd" clip-rule="evenodd" d="M10.861 53.7361L10.874 53.6181C11.029 52.2871 11.055 51.2781 11.169 50.6461C11.3066 50.1347 11.3917 49.6107 11.423 49.0821C11.3714 48.6353 11.3626 48.1845 11.397 47.7361C11.474 47.1871 12.013 46.5361 11.997 46.0841C11.9711 45.7845 11.8495 45.5012 11.65 45.2761C11.495 45.0591 11.37 44.8761 11.37 44.8761C11.37 44.8761 12.432 44.1461 12.421 41.2051C12.4427 41.2112 12.4635 41.2199 12.483 41.2311L13.006 42.7171L13.363 43.1521L14.735 45.7101L16.5 47.4251L19.109 49.1801L20.745 50.9611L20.911 55.7091L18.773 58.4841L18.423 59.1181C15.6407 57.7215 13.0894 55.906 10.858 53.7351L10.861 53.7361Z" fill="#E5CB7A"/>
<path fill-rule="evenodd" clip-rule="evenodd" d="M17.393 58.2779C17.4335 57.8977 17.6212 57.5485 17.916 57.3049C17.9903 57.4053 18.0303 57.527 18.03 57.6519C18.2608 57.2823 18.5673 56.9658 18.9292 56.7231C19.2912 56.4804 19.7004 56.3171 20.13 56.2439C20.504 56.202 20.8604 56.0629 21.164 55.8405C21.4675 55.618 21.7074 55.3199 21.86 54.9759L24.816 52.2889L28.197 49.1769L32.308 47.7319L34.229 47.2609C34.2495 47.4121 34.2372 47.5659 34.193 47.7119C34.8669 47.6176 35.5285 47.4499 36.166 47.2119C36.497 47.0829 36.808 47.0309 36.974 47.2019C37.1877 47.5226 37.2913 47.9042 37.269 48.2889C37.669 48.2009 38.128 47.8179 38.498 47.8539C39.089 47.9159 39.611 48.6099 40.212 48.6099C41.004 48.6099 41.361 48.1229 41.912 47.7399C42.243 47.5119 42.72 47.2279 42.989 47.0399C43.631 46.5689 50.425 44.4919 50.425 44.4919L52.807 44.6469L53.19 47.1999L52.99 53.8869L52.914 53.9609L42.08 59.6189L27.068 61.9189C23.7043 61.3702 20.4582 60.2543 17.468 58.6189L17.391 58.2779H17.393Z" fill="#D8C173"/>
<path fill-rule="evenodd" clip-rule="evenodd" d="M11.771 54.5861C11.984 54.1401 12.176 53.7671 12.21 53.6331C12.237 53.9021 12.285 54.4921 12.384 55.1201C12.1773 54.9447 11.973 54.7667 11.771 54.5861Z" fill="#F1D789"/>
<path fill-rule="evenodd" clip-rule="evenodd" d="M22.7371 60.8789L24.6791 60.3389L24.8451 60.3909C24.8451 60.3909 24.9331 60.4429 24.9331 60.6189C25.1761 60.4789 25.3841 60.5049 25.5331 60.4119C25.6101 60.5779 25.6881 61.1259 26.0331 61.1939C26.2421 61.2006 26.4502 61.1641 26.6445 61.0867C26.8388 61.0093 27.015 60.8926 27.1621 60.7439C27.5175 60.4269 27.9022 60.1443 28.3111 59.8999C28.4321 60.1225 28.5393 60.3522 28.6321 60.5879C29.0671 60.2409 29.8231 58.8329 30.9001 58.8579C31.2125 58.1218 31.734 57.4935 32.4001 57.0509C32.7376 56.7864 33.1242 56.5913 33.5374 56.4766C33.9506 56.362 34.3825 56.3302 34.8081 56.3829C35.1187 55.9793 35.5015 55.6369 35.9371 55.3729C36.0768 55.4552 36.2339 55.5037 36.3957 55.5144C36.5575 55.5252 36.7196 55.498 36.8691 55.4349C37.3201 55.2279 37.8271 54.4249 38.4951 54.3219C38.8551 54.2722 39.2213 54.3489 39.5311 54.5389C40.5164 53.5483 41.6209 52.6837 42.8191 51.9649C42.7671 51.8099 42.6641 51.2249 44.2381 49.9299C44.3261 50.0079 44.2641 50.2299 44.3261 50.2369C44.6504 50.1015 44.9535 49.9199 45.2261 49.6979C45.7587 49.2668 46.3495 48.913 46.9811 48.6469C47.556 48.527 48.1549 48.6172 48.6691 48.9009C48.7428 48.8491 48.8251 48.8106 48.9121 48.7869C49.0713 48.7655 49.2288 48.732 49.3831 48.6869C49.4484 49.0604 49.4484 49.4424 49.3831 49.8159C49.5452 49.907 49.7169 49.9797 49.8951 50.0329C49.7705 50.3801 49.5648 50.6924 49.2951 50.9439C49.5641 51.0729 49.6001 51.2239 49.9831 51.3539C49.7914 51.6155 49.6167 51.8891 49.4601 52.1729C49.3461 52.4159 48.9371 53.4259 48.7601 53.8089C48.5831 54.1919 48.3101 54.8959 48.1851 55.0379C47.9024 55.4042 47.5943 55.75 47.2631 56.0729C47.5701 55.9589 48.8271 55.5729 49.3631 55.4309C49.2041 55.6639 48.4001 56.8569 47.6261 58.0049C43.9227 60.2245 39.7889 61.6294 35.4999 62.1258C31.211 62.6223 26.8655 62.1989 22.7531 60.8839L22.7371 60.8789Z" fill="#E0CD81"/>
<path fill-rule="evenodd" clip-rule="evenodd" d="M16.589 27.0601C16.4076 27.0546 16.2264 27.0755 16.051 27.1221C15.963 27.1841 16.502 27.3141 16.667 27.3761C16.926 27.5008 17.1409 27.7013 17.283 27.9511C18.3268 28.5191 19.408 29.0155 20.519 29.4371L22.746 29.3231L23.514 28.2621L22.054 26.9831L23.078 23.9641L21.722 24.1811L18.46 26.1271L16.824 26.7541L16.591 27.0601H16.589Z" fill="#DFC57C"/>
<path fill-rule="evenodd" clip-rule="evenodd" d="M21.4779 28.06C21.51 28.1122 21.5553 28.155 21.6092 28.1842C21.6631 28.2133 21.7237 28.2278 21.7849 28.226C21.9762 28.2067 22.1694 28.2275 22.3522 28.2873C22.5349 28.3471 22.7031 28.4444 22.8459 28.573C23.1459 28.946 23.9589 30.137 23.9589 30.137L25.9159 30.837L26.0419 28.5371L23.9049 27.05L21.4709 27.9501V28.064H21.4759L21.4779 28.06Z" fill="#E5CC7C"/>
<path fill-rule="evenodd" clip-rule="evenodd" d="M21.094 28.914C21.3699 28.9201 21.6443 28.8726 21.902 28.774C22.353 28.608 23.093 28.251 23.414 28.391C23.864 28.582 23.771 29.183 24.258 29.722C24.553 30.053 25.092 30.043 25.397 30.401C25.702 30.759 26.753 30.592 26.753 30.592L27.153 32.742L25.553 34.793L25.03 37.34H22.866L20.89 36.556L19.916 34.2L20.4 31.82L21.092 28.914H21.094Z" fill="#D2C281"/>
<path fill-rule="evenodd" clip-rule="evenodd" d="M25.279 29.0171C25.3328 29.0336 25.3888 29.0424 25.445 29.0431C25.3782 29.097 25.3292 29.1699 25.3042 29.252C25.2793 29.3342 25.2795 29.422 25.305 29.5041C25.357 29.8041 25.522 30.1721 25.383 30.4041C25.4944 30.5261 25.5774 30.6712 25.626 30.8291C25.714 31.0831 25.74 31.3161 26.314 31.3521C26.231 31.403 26.1545 31.4638 26.086 31.5331C26.3119 31.7311 26.5133 31.9554 26.686 32.2011C26.9424 32.161 27.1952 32.1008 27.442 32.0211L27.556 32.0991L27.799 31.9991C27.799 31.9991 27.571 31.9111 27.737 31.3571C27.892 30.8701 28.037 30.8961 28.044 30.8571C28.1009 30.6083 28.1391 30.3556 28.158 30.1011C28.2266 29.7419 28.2733 29.3789 28.298 29.0141L28.134 27.2001L27.202 26.6351L26.444 25.9041L25.729 27.2501L25.258 27.7191L25.222 28.8841L25.279 29.0141V29.0171Z" fill="#E2C270"/>
<path fill-rule="evenodd" clip-rule="evenodd" d="M27.521 27.5059C27.6159 27.7784 27.6921 28.0571 27.749 28.3399C27.7709 28.2696 27.783 28.1966 27.785 28.1229C27.785 28.1229 27.914 28.8379 27.94 29.1329C27.992 29.1219 28.04 29.1069 28.054 29.1589C28.1224 29.4703 28.1559 29.7882 28.154 30.1069C28.3697 29.7511 28.6681 29.4526 29.024 29.2369C29.2301 29.0863 29.4709 28.9901 29.724 28.9569C30.124 28.9469 30.412 29.2109 30.889 29.2109C32.038 29.2109 33.079 28.3669 33.846 28.1109C34.3482 27.991 34.8216 27.7728 35.239 27.4689C35.5298 27.2065 35.7763 26.8989 35.969 26.5579C36.326 25.9439 36.699 25.4089 37.069 25.3409C36.9002 25.3719 36.7285 25.384 36.557 25.3769C36.557 25.3769 36.671 25.2629 36.864 25.1079C37.0663 24.9054 37.3345 24.7823 37.62 24.7609C38.211 24.7609 38.505 24.8489 38.837 24.8489C39.0149 24.8479 39.1915 24.8182 39.36 24.7609C39.7096 24.9473 40.105 25.0303 40.5 24.9999C41.282 25.0099 41.8 25.0769 42.214 25.1139C42.628 25.1509 43.995 24.9999 44.389 25.0139C44.6457 25.0237 44.8977 25.0853 45.13 25.1949L43.861 21.5089L39.3 17.5229L36.587 19.4439L32.413 23.6169L28.374 25.1169L27.53 26.0649V27.5099L27.521 27.5059Z" fill="#CCB360"/>
<path fill-rule="evenodd" clip-rule="evenodd" d="M36.583 25.3931C36.583 25.3931 36.697 25.2791 36.888 25.1241C37.0901 24.9212 37.3585 24.798 37.644 24.7771C38.234 24.7771 38.529 24.8651 38.861 24.8651C39.039 24.8642 39.2156 24.8344 39.384 24.7771C39.73 24.9626 40.1213 25.0468 40.513 25.0201C41.295 25.0301 41.813 25.0971 42.227 25.1341C42.641 25.1711 44.008 25.0201 44.402 25.0341C44.6584 25.0438 44.9101 25.1054 45.142 25.2151L44.567 23.5531L43.9 22.2821L41.994 20.1951L39.694 18.8391C39.684 18.8291 38.902 18.6221 38.902 18.6221L36.831 19.8751L34.952 24.7371L34.91 25.7601L36.127 26.3351C36.432 25.8231 36.769 25.4131 37.085 25.3621C36.8 25.3931 36.585 25.3931 36.585 25.3931H36.583Z" fill="#D5B457"/>
<path fill-rule="evenodd" clip-rule="evenodd" d="M36.557 25.7401C36.376 25.7501 36.226 25.7141 36.184 25.5851C36.029 25.1501 35.904 25.0851 35.774 25.0851C35.644 25.0851 35.469 25.3651 35.364 25.3901C35.259 25.4151 35.136 25.0691 35.136 25.0691L35.022 25.0171C34.6096 25.2915 34.2277 25.6093 33.883 25.9651C33.415 26.5382 32.8813 27.0544 32.293 27.5031C31.6506 27.6403 31.0009 27.7404 30.347 27.8031C30.012 27.8886 29.6982 28.0421 29.425 28.2541C29.363 28.3211 29.607 28.3941 29.643 28.4611C29.679 28.5281 29.243 28.4971 29.208 28.5611C29.2366 28.7355 29.2926 28.9042 29.374 29.0611C29.4851 29.0059 29.607 28.9758 29.731 28.9731C30.131 28.9631 30.42 29.2271 30.896 29.2271C32.046 29.2271 33.086 28.3831 33.853 28.1271C34.3552 28.0072 34.8286 27.789 35.246 27.4851C35.5365 27.2224 35.783 26.9148 35.976 26.5741C36.1475 26.2834 36.3414 26.0066 36.556 25.7461L36.557 25.7401Z" fill="#D2B257"/>
<path fill-rule="evenodd" clip-rule="evenodd" d="M20.07 51.3661C19.8154 50.8427 19.458 50.3761 19.019 49.9941C18.75 49.7141 18.584 49.4821 18.403 49.3161C18.0786 49.0288 17.7322 48.7673 17.367 48.5341C16.667 48.0111 15.897 48.0111 15.306 47.3691C14.5496 46.4339 13.956 45.3782 13.55 44.2461C13.079 42.9931 12.95 42.5941 12.95 42.5581C12.95 42.5221 13.08 42.2781 13.25 42.3151C13.42 42.3521 13.416 42.6721 13.457 42.7501C13.5396 42.8771 13.6333 42.9966 13.737 43.1071C14.0631 43.4234 14.3225 43.8018 14.5 44.2201C14.4672 43.9152 14.4066 43.6139 14.319 43.3201C14.319 43.3201 15.23 43.8951 16.007 44.4951C16.784 45.0951 17.107 45.3031 17.338 45.6861C17.6489 46.2667 17.9907 46.8301 18.362 47.3741C19.5907 47.9308 20.8568 48.4013 22.151 48.7821L23.831 50.0341L24.665 51.8621L24.012 52.8861L22.759 53.1551L20.724 52.2441L20.072 51.3601L20.07 51.3661Z" fill="#D2B159"/>
<path fill-rule="evenodd" clip-rule="evenodd" d="M15.549 45.069C15.938 45.6062 16.4354 46.0559 17.009 46.389C18.178 47.0245 19.4316 47.4902 20.732 47.772C21.4481 47.9598 22.1823 48.0708 22.922 48.103C24.4848 47.9961 26.0374 47.7728 27.567 47.435C28.5607 47.3645 29.5486 47.2275 30.524 47.025C31.6725 46.7468 32.7847 46.3357 33.838 45.8C34.646 45.427 35.386 45.148 35.987 44.79C36.653 44.2869 37.3848 43.8774 38.162 43.573C38.0973 43.8107 37.9857 44.0331 37.8337 44.227C37.6817 44.4209 37.4924 44.5824 37.277 44.702C37.65 44.691 38.162 44.666 38.162 44.666C37.6888 44.9621 37.2309 45.2818 36.79 45.624C36.251 46.034 35.537 46.724 34.807 47.188C34.336 47.488 33.823 47.7 33.486 47.877C32.8562 48.1819 32.2854 48.596 31.8 49.1C31.8686 49.0902 31.9383 49.0902 32.007 49.1C31.6033 49.1562 31.2106 49.2732 30.842 49.447C30.6435 49.4267 30.4429 49.4444 30.251 49.499C30.008 49.576 29.686 49.753 29.351 49.846C29.154 49.931 28.9368 49.9581 28.725 49.924L28.802 50.079C28.802 50.079 28.188 50.068 27.983 50.089C28.019 50.099 28.009 50.115 28.009 50.115C27.9738 50.1212 27.94 50.1334 27.909 50.151C27.8104 50.215 27.7019 50.2623 27.588 50.291C27.526 50.301 27.474 50.301 27.396 50.317C27.422 50.379 27.624 50.727 27.717 50.931C27.64 50.983 26.474 51.863 26.474 51.863C26.5101 51.9198 26.5396 51.9805 26.562 52.044C26.598 52.158 26.614 52.324 26.65 52.401C26.738 52.556 26.79 52.582 26.79 52.582C26.79 52.582 26.65 52.608 26.407 52.67C26.1382 52.7507 25.8647 52.8145 25.588 52.861C25.4782 52.8753 25.3677 52.884 25.257 52.887C25.3479 53.0544 25.3833 53.2464 25.3582 53.4353C25.333 53.6242 25.2486 53.8002 25.117 53.938C24.698 54.438 24.568 54.513 24.439 54.838C24.3739 54.7887 24.3047 54.7452 24.232 54.708C24.0746 54.6548 23.9358 54.5576 23.832 54.428C23.7929 54.5941 23.7411 54.7569 23.677 54.915C23.5317 55.2205 23.4123 55.5376 23.32 55.863C23.18 55.708 22.92 55.402 22.564 55.463C22.208 55.524 21.922 56.012 21.864 56.152C21.864 56.064 21.802 55.997 21.787 56.1C21.6248 56.982 21.1661 57.7822 20.487 58.368C20.477 58.125 20.477 57.586 20.451 57.41C20.1746 57.6731 19.8418 57.8698 19.478 57.985C18.748 58.306 18.864 58.627 18.864 58.627C18.8468 58.2486 18.9641 57.8763 19.195 57.576C19.595 57.038 19.837 56.784 19.837 56.742C19.8305 56.6999 19.8125 56.6604 19.785 56.628C19.733 56.576 19.63 56.514 19.63 56.473C19.8155 56.3961 19.9748 56.2672 20.0887 56.1019C20.2026 55.9365 20.2663 55.7417 20.272 55.541C20.2522 55.1558 20.0984 54.7896 19.837 54.506C19.811 54.48 20.081 54.289 20.044 54.226C20.018 54.19 19.687 53.946 19.644 53.816C19.6538 53.7385 19.6712 53.6621 19.696 53.588C19.7323 53.5031 19.7501 53.4113 19.748 53.319C19.7021 53.1364 19.6325 52.9605 19.541 52.796C19.6392 52.8012 19.7377 52.8012 19.836 52.796C19.738 52.6427 19.6565 52.4795 19.593 52.309C19.5526 52.0924 19.5008 51.8781 19.438 51.667C19.526 51.677 19.743 51.693 19.743 51.667C19.754 51.589 19.552 51.46 19.643 51.36C19.7628 51.3916 19.8675 51.465 19.938 51.567C19.8779 51.3267 19.7439 51.1112 19.555 50.951C19.6759 50.9078 19.8044 50.8899 19.9325 50.8984C20.0607 50.9068 20.1857 50.9414 20.3 51C20.4772 51.1006 20.62 51.2522 20.71 51.435C20.71 51.435 20.891 51.575 21.171 51.782C21.5811 52.1454 22.0479 52.4393 22.553 52.652C22.7981 52.7282 23.0592 52.7372 23.309 52.678C23.4218 52.6512 23.53 52.6078 23.63 52.549C23.6661 52.5277 23.7043 52.5103 23.744 52.497C23.6885 52.3854 23.6246 52.278 23.553 52.176C23.641 52.176 23.744 52.187 23.744 52.187C23.744 52.187 23.806 52.047 23.527 51.777C23.589 51.715 23.667 51.677 23.667 51.57C23.5575 51.534 23.4605 51.4678 23.387 51.379C23.439 51.343 23.516 51.224 23.604 51.188C23.526 51.126 23.335 50.867 23.247 50.841C23.331 50.8097 23.4123 50.7716 23.49 50.727C23.2917 50.6779 23.099 50.6085 22.915 50.52C22.7676 50.3966 22.61 50.2859 22.444 50.189C22.314 50.137 22.087 50.112 21.993 50.008C22.1029 50.021 22.214 50.021 22.324 50.008C22.401 50.008 22.438 50.018 22.464 50.018C22.454 49.982 22.454 49.904 22.656 49.878C22.7533 49.8634 22.8478 49.8337 22.936 49.79C22.779 49.7652 22.6347 49.6889 22.526 49.573C22.3814 49.4047 22.2032 49.2685 22.003 49.173C21.874 49.147 21.63 49.261 21.48 49.25C21.3678 49.2441 21.2614 49.1983 21.18 49.121C20.3746 49.0436 19.6069 48.7423 18.964 48.251C18.255 47.8461 17.6139 47.3325 17.064 46.729C16.9404 46.6841 16.8209 46.6286 16.707 46.563C16.207 46.304 15.521 45.763 15.542 45.063L15.549 45.069Z" fill="#C2A44D"/>
<path fill-rule="evenodd" clip-rule="evenodd" d="M34.6 13.9909C34.7197 14.0298 34.8261 14.1015 34.907 14.1979C34.9897 14.297 35.0515 14.4118 35.0886 14.5354C35.1256 14.659 35.1373 14.7888 35.1228 14.9171C35.1083 15.0453 35.068 15.1692 35.0043 15.2815C34.9405 15.3937 34.8547 15.4918 34.752 15.5699C34.9077 15.6437 35.0814 15.6705 35.252 15.6469C34.9339 15.9593 34.7083 16.3535 34.6 16.7859C34.5828 16.8716 34.5918 16.9605 34.6258 17.0409C34.6599 17.1214 34.7175 17.1897 34.791 17.2369C34.5685 17.5322 34.4468 17.8912 34.444 18.2609C34.6005 18.0843 34.7718 17.9214 34.956 17.7739C35.3623 17.4602 35.786 17.1697 36.225 16.9039C36.2201 16.9951 36.2323 17.0863 36.261 17.1729C36.261 17.1729 36.929 16.6239 37.49 16.8679C37.744 16.9819 37.63 17.3389 37.63 17.3389C37.7297 17.3034 37.8372 17.2952 37.9411 17.3152C38.045 17.3353 38.1417 17.3828 38.221 17.4529C38.4982 17.8083 38.7534 18.1803 38.985 18.5669C39.1582 18.7812 39.3204 19.0042 39.471 19.2349C39.7521 19.7064 39.9865 20.204 40.171 20.7209C40.181 20.4519 40.248 20.0329 41.015 20.2959C41.9989 20.6621 42.8318 21.3472 43.381 22.2419C44.111 23.3539 44.292 24.6089 44.66 25.0869C45.0293 25.5405 45.2961 26.0686 45.442 26.6349C45.4416 28.0464 45.6616 29.4493 46.094 30.7929C46.311 29.9229 46.643 27.9929 46.643 27.9929L46.824 26.2929L47.031 21.0219L41.531 16.4489L37.231 13.3259L34.431 13.5949L34.607 13.9949L34.6 13.9909Z" fill="#CAA13E"/>
<path fill-rule="evenodd" clip-rule="evenodd" d="M44.826 21.8351C44.826 21.8351 44.748 21.3231 43.454 20.4531C42.16 19.5831 41.154 19.5941 40.218 18.8631C39.503 18.2881 38.758 16.9631 38.272 16.5331C37.9348 16.0384 37.7445 15.4584 37.723 14.8601L39.313 13.5291L41.677 10.1121L43.677 7.91211L44.635 9.24311L45.966 10.8071L46.706 13.9451L46.975 18.5381L44.825 21.8381L44.826 21.8351Z" fill="#B59544"/>
<path fill-rule="evenodd" clip-rule="evenodd" d="M46.426 27.3411C46.4652 26.6444 46.3792 25.9464 46.172 25.2801C45.7573 24.0389 45.2786 22.8199 44.738 21.6281C44.598 20.8461 44.702 20.7841 44.852 20.6961C45.1202 20.525 45.3498 20.2998 45.5261 20.035C45.7024 19.7702 45.8216 19.4716 45.876 19.1581C45.9365 18.8544 46.0921 18.5778 46.3202 18.3683C46.5483 18.1589 46.8372 18.0275 47.145 17.9931L47.735 17.5581L48.635 19.8001L49.417 21.8251L49.66 23.3731L49.841 24.6931L49.416 27.4841L47.316 29.3841L46.425 27.3451L46.426 27.3411Z" fill="#C89D3A"/>
<path fill-rule="evenodd" clip-rule="evenodd" d="M17.165 58.45V58.393C17.2085 58.3665 17.2471 58.3327 17.279 58.293C17.315 58.241 17.341 58.179 17.367 58.164C17.5011 58.1065 17.6463 58.0799 17.792 58.086C18.0038 58.1599 18.2226 58.2119 18.445 58.241C18.9313 58.0973 19.4392 58.0411 19.945 58.075C20.981 58.266 21.224 58.975 21.825 59.369C21.9575 59.4528 22.1051 59.5097 22.2596 59.5363C22.414 59.5629 22.5722 59.5587 22.725 59.524H22.865C22.891 59.524 23.082 59.307 23.186 59.317C23.393 59.327 23.414 59.498 23.543 59.508C23.9385 59.462 24.336 59.4363 24.734 59.431C24.8216 59.4583 24.9012 59.5065 24.9662 59.5712C25.0311 59.636 25.0795 59.7155 25.107 59.803C25.138 59.9025 25.1414 60.0086 25.1167 60.1099C25.092 60.2112 25.0403 60.3038 24.967 60.378C24.6763 60.5929 24.4405 60.8735 24.279 61.197C24.358 61.2574 24.4337 61.3218 24.506 61.39C21.9442 60.7373 19.4794 59.7506 17.175 58.455L17.165 58.45Z" fill="#CEB052"/>
<path fill-rule="evenodd" clip-rule="evenodd" d="M44.738 48.1001C45.1292 47.5835 45.4921 47.0461 45.825 46.4901C46.105 45.9401 44.94 38.9771 44.94 38.9771L47.281 31.3091L47.219 28.8091C47.2668 27.7013 47.3948 26.5984 47.602 25.5091C47.923 26.0841 48.923 26.7781 49.14 27.1451C49.3987 25.9032 49.5327 24.6386 49.54 23.3701C49.8212 24.4437 50.0389 25.5329 50.192 26.6321L50.653 28.6321L51.253 30.7551L51.92 33.0001L52.32 34.5481L52.548 34.9211L52.74 35.5731L52.921 36.2731L53.444 37.9251L53.751 39.2811L53.994 41.7411C54.047 41.9295 54.0851 42.1218 54.108 42.3161C54.1116 42.4739 54.0995 42.6317 54.072 42.7871C54.1189 43.1183 54.1363 43.4529 54.124 43.7871C54.133 43.974 54.1047 44.1608 54.0406 44.3367C53.9766 44.5125 53.8781 44.6738 53.751 44.8111C53.4605 45.4594 53.2836 46.1529 53.228 46.8611L52.653 46.4781C52.7139 46.1368 52.6594 45.785 52.498 45.4781C52.3938 45.2898 52.2321 45.1398 52.0365 45.0498C51.841 44.9599 51.6219 44.9348 51.411 44.9781C51.0363 45.0224 50.6719 45.131 50.334 45.2991C50.0232 45.6399 49.6758 45.9454 49.298 46.2101C48.7259 46.443 48.1223 46.5896 47.507 46.6451C46.9758 46.8128 46.478 47.072 46.036 47.4111C45.6259 47.6768 45.1928 47.9054 44.742 48.0941L44.738 48.1001Z" fill="#CCA847"/>
<path fill-rule="evenodd" clip-rule="evenodd" d="M44.738 59.4179C44.738 59.4179 44.772 59.4399 44.838 59.4759C48.5168 57.7524 51.813 55.3093 54.532 52.2909C54.502 51.2429 54.464 50.1689 54.421 49.7709C54.333 48.9269 54.395 48.0709 54.369 47.5709C54.343 47.0709 54.064 45.0489 53.934 44.5259C53.8799 44.2205 53.7203 43.9437 53.483 43.7439C53.3573 44.144 53.2722 44.5557 53.229 44.9729C53.229 45.2179 53.177 45.8069 53.177 45.9569C53.141 45.9459 53.125 45.8569 53.125 45.8169C53.073 45.9459 53.011 46.1739 52.985 46.1999C52.959 46.2259 53.021 45.9829 52.985 45.9309C52.949 45.8789 52.885 45.9049 52.897 45.7759C52.9031 45.6991 52.9151 45.6228 52.933 45.5479C52.7954 45.7988 52.7042 46.0725 52.664 46.3559C52.55 46.9309 52.55 46.9469 52.509 46.9979C52.468 47.0489 52.266 47.2669 52.255 47.3449C52.245 47.4849 52.447 47.6249 52.462 47.7019C52.472 47.8319 52.281 48.4319 52.219 48.7259C52.157 49.0199 52.183 49.5959 52.119 49.8909C52.067 50.1599 52.019 50.3159 51.839 50.4289C51.968 50.4549 52.093 50.4909 52.093 50.4909C52.1889 50.9823 52.0884 51.4917 51.813 51.9099C51.647 52.1379 51.606 52.2409 51.43 52.4489C51.1201 52.7504 50.8981 53.1307 50.788 53.5489C50.7702 53.4652 50.7582 53.3803 50.752 53.2949C50.4801 53.6097 50.2245 53.9381 49.986 54.2789C49.691 54.7399 49.286 54.7139 49.167 54.8279C49.1129 54.8953 49.0757 54.9747 49.0583 55.0593C49.0409 55.144 49.0439 55.2316 49.067 55.3149C48.967 55.3409 48.772 55.3769 48.642 55.7759C48.5642 56.0111 48.3992 56.2076 48.181 56.3249C47.9633 56.4309 47.7312 56.504 47.492 56.5419C47.5765 56.555 47.6585 56.581 47.735 56.6189C47.4827 56.8499 47.2026 57.0484 46.901 57.2099C46.5887 57.4078 46.3474 57.6999 46.212 58.0439C46.1724 58.1478 46.1046 58.2386 46.0163 58.3063C45.928 58.3739 45.8227 58.4157 45.712 58.4269C45.812 58.4889 45.966 58.6339 46.043 58.6809C45.7968 58.7148 45.5681 58.8274 45.391 59.0019C45.029 59.3019 44.904 59.3899 44.738 59.4159V59.4179Z" fill="#C39D3C"/>
<path fill-rule="evenodd" clip-rule="evenodd" d="M37.533 61.8169C37.7312 61.6779 37.9458 61.5641 38.172 61.4779C38.8255 61.2658 39.494 61.1033 40.172 60.9919C40.4884 60.8622 40.8135 60.755 41.145 60.6709C41.134 60.7619 41.126 60.8469 41.116 60.9279C39.9406 61.2975 38.7437 61.5947 37.532 61.8179L37.533 61.8169Z" fill="#D2BA6B"/>
<path fill-rule="evenodd" clip-rule="evenodd" d="M52.429 40.575C52.3346 41.0784 52.1798 41.5686 51.968 42.035C51.668 42.6 51.354 43.381 51.354 43.381C51.3559 43.2049 51.3767 43.0296 51.416 42.858C50.8844 43.1503 50.3714 43.4753 49.88 43.831C49.6013 44.0645 49.3479 44.3266 49.124 44.613C49.3341 44.0727 49.5141 43.5212 49.663 42.961C48.6042 43.783 47.596 44.6683 46.644 45.612L43.821 47.9C43.4968 48.0754 43.1629 48.2323 42.821 48.37C42.335 48.577 41.76 48.753 41.335 48.919C41.4562 48.6049 41.6434 48.3205 41.884 48.085C42.3637 47.6405 42.7688 47.1219 43.084 46.549C43.2132 46.2151 43.2097 45.8443 43.074 45.513C42.934 45.549 42.613 45.565 42.396 45.627C42.227 45.6934 42.0735 45.7938 41.945 45.922C42.0633 45.2931 42.2384 44.6763 42.468 44.079C42.199 44.089 41.738 44.167 41.738 44.167C42.1948 43.4512 42.786 42.8307 43.479 42.34C43.1424 42.4115 42.813 42.5136 42.495 42.645C41.853 42.914 41.149 43.313 40.626 43.53C41.9999 41.5974 43.2044 39.5498 44.226 37.41C45.455 34.661 45.914 33.956 46.183 32.481C46.2868 31.5597 46.3336 30.633 46.323 29.706C46.4002 28.9111 46.4263 28.1121 46.401 27.314C47.4334 28.4001 47.9955 29.8498 47.965 31.348C47.8642 34.0933 47.033 36.762 45.557 39.079C45.864 39.167 46.657 39.271 47.478 37.85C47.9076 37.0776 48.2755 36.2724 48.578 35.442C48.5991 35.5742 48.6079 35.7081 48.604 35.842C49.3717 34.8633 49.9653 33.7599 50.359 32.58C50.655 33.5303 50.6275 34.5519 50.281 35.485C50.1165 36.1315 49.7322 36.7007 49.194 37.095C49.4623 37.0313 49.7179 36.9228 49.95 36.774C50.028 36.965 50.012 37.184 50.142 37.261C50.272 37.338 50.447 37.468 50.473 37.592C50.6376 37.3847 50.78 37.1609 50.898 36.924C50.8178 37.9599 50.852 39.0015 51 40.03C51.2437 40.0459 51.4855 39.9767 51.6838 39.834C51.8821 39.6913 52.0246 39.4842 52.087 39.248C51.9078 39.808 51.8863 40.4066 52.025 40.978C52.1763 40.8639 52.3109 40.7293 52.425 40.578L52.429 40.575Z" fill="#C0993A"/>
<path fill-rule="evenodd" clip-rule="evenodd" d="M38.9751 12.0339C38.6296 12.1532 38.2654 12.2094 37.9001 12.1999C37.3101 12.1999 37.4751 11.9719 36.5541 11.9719C35.1351 11.9719 30.1801 12.7909 29.3101 12.7799C29.9406 12.8928 30.5764 12.9739 31.2151 13.0229L37.5271 13.1109L38.7951 13.0109L39.2661 12.0519L38.9751 12.0339Z" fill="#A88F33"/>
<path fill-rule="evenodd" clip-rule="evenodd" d="M22.607 24.3731C22.185 24.6921 21.7993 25.0567 21.457 25.4601C21.1899 25.8757 20.8849 26.2657 20.546 26.6251C20.6371 26.6285 20.7281 26.6163 20.815 26.5891C20.815 26.5891 20.815 26.6891 20.753 26.7181C20.8065 26.7118 20.8608 26.7174 20.9118 26.7347C20.9629 26.752 21.0094 26.7805 21.048 26.8181C20.9861 26.8536 20.932 26.9012 20.8891 26.9583C20.8462 27.0153 20.8154 27.0804 20.7984 27.1497C20.7815 27.2191 20.7789 27.2911 20.7906 27.3615C20.8024 27.4318 20.8284 27.4991 20.867 27.5591C20.935 27.6462 21.0203 27.7183 21.1176 27.7708C21.2148 27.8233 21.3219 27.855 21.432 27.8641C21.432 27.8641 21.344 28.1181 21.712 28.0921C22.4022 27.9571 23.0988 27.857 23.799 27.7921C23.9967 27.809 24.1866 27.8771 24.3501 27.9897C24.5135 28.1022 24.6448 28.2554 24.731 28.4341C25.038 28.9341 25.306 29.0091 25.306 29.0091C25.4285 28.6388 25.4761 28.2479 25.446 27.8591C25.5945 27.488 25.6767 27.0937 25.689 26.6941L25.42 24.7111L24.245 23.2251L22.723 24.0691L22.609 24.3641L22.607 24.3731Z" fill="#E3C571"/>
<path fill-rule="evenodd" clip-rule="evenodd" d="M24.052 24.0779C24.052 24.0779 24.166 24.3469 24.643 24.3729C24.622 24.4045 24.6079 24.4402 24.6017 24.4776C24.5955 24.515 24.5973 24.5533 24.607 24.5899C24.617 24.6779 24.633 24.8069 24.633 24.8069C24.6853 24.7823 24.7327 24.7484 24.773 24.7069C24.799 24.8209 24.747 25.0019 24.773 25.1319C24.7888 25.2109 24.8147 25.2875 24.85 25.3599C24.8576 25.3421 24.8662 25.3247 24.876 25.3079C24.968 25.4959 25.0884 25.6686 25.233 25.8199C25.2333 25.785 25.2422 25.7506 25.259 25.7199C25.2629 25.7848 25.2843 25.8473 25.321 25.9009C25.3018 25.8919 25.2842 25.8798 25.269 25.8649C25.2801 26.284 25.3358 26.7006 25.435 27.1079C25.4583 27.0806 25.4791 27.0511 25.497 27.0199C25.497 26.9939 25.487 27.2479 25.461 27.4299C25.44 27.574 25.4366 27.7201 25.451 27.8649C25.5443 27.7915 25.6469 27.7307 25.756 27.6839C25.8921 27.615 26.0125 27.5186 26.1095 27.4009C26.2066 27.2832 26.2783 27.1467 26.32 26.9999C26.4098 26.7596 26.4791 26.512 26.527 26.2599C26.5762 26.3564 26.61 26.46 26.627 26.5669C26.638 26.6959 26.881 26.6289 26.881 26.6289L26.933 26.0639L27.24 24.7849L27.52 23.9929L28.866 21.8929L31.3 20.0229L33.423 20.5099L35.214 18.0759L32.128 16.2219L29.208 16.5269L26.558 20.1999L24.435 23.5299L24.052 24.0789V24.0779Z" fill="#D8B65B"/>
<path fill-rule="evenodd" clip-rule="evenodd" d="M39.348 18.7651C39.1038 18.8405 38.869 18.9435 38.648 19.0721C38.125 19.3431 37.763 19.4291 37.561 19.8281C37.4435 20.0503 37.3698 20.293 37.344 20.5431C37.528 20.4627 37.7167 20.3935 37.909 20.3361C38.126 20.2841 38.37 20.3001 38.344 20.3881C38.3199 20.4484 38.2861 20.5045 38.244 20.5541C38.244 20.5541 38.654 20.5441 38.644 20.7461C38.6385 20.9309 38.5851 21.1111 38.489 21.2691C38.411 21.3691 38.089 21.5231 38.054 21.6421C37.966 21.8851 38.09 21.8961 38.043 22.0921C37.8861 22.5519 37.6238 22.9687 37.277 23.3091C36.9654 23.6501 36.6909 24.0231 36.458 24.4221C36.2923 24.1088 36.1502 23.7835 36.033 23.4491C35.933 23.5011 35.381 23.8061 35.381 23.8061L34.1 19.3681L34.126 19.0681C34.2082 18.9499 34.2566 18.8116 34.266 18.6681C34.075 18.6061 34.049 18.5541 33.795 18.3111C33.5479 18.0119 33.2479 17.7608 32.91 17.5701C32.8702 17.4804 32.8077 17.4026 32.7285 17.3446C32.6494 17.2865 32.5565 17.2501 32.459 17.2391C32.148 17.1771 31.959 17.1251 31.959 17.1251C32.057 17.0861 32.1414 17.0193 32.202 16.9331C31.9508 16.9897 31.6936 17.0159 31.436 17.0111C31.203 16.9888 30.9683 16.9922 30.736 17.0211C30.503 17.0571 30.224 17.1611 30.12 16.8041C30.006 16.7161 29.763 16.7941 29.555 17.0991C29.347 17.4041 29.275 17.6481 28.877 17.7671C28.8494 17.9438 28.788 18.1136 28.696 18.2671C28.5334 18.503 28.3533 18.7263 28.157 18.9351C27.774 19.3861 27.836 20.1261 27.225 20.6901C26.614 21.2541 27.325 19.1261 27.325 19.1261L28.309 16.7711L31.109 14.0321L35.459 13.7371L35.884 15.9901L38.007 16.7201L39.348 18.7651Z" fill="#D3AE4D"/>
<path fill-rule="evenodd" clip-rule="evenodd" d="M40.0359 19.262L38.2079 16.627L36.9289 15.643C36.9289 15.643 36.0179 13.966 35.9559 13.914C35.4731 13.8291 34.9855 13.7736 34.4959 13.748L34.5959 14.002C34.7156 14.0409 34.822 14.1127 34.9029 14.209C34.9856 14.3081 35.0474 14.4229 35.0845 14.5465C35.1215 14.6701 35.1332 14.8 35.1187 14.9282C35.1042 15.0564 35.0639 15.1804 35.0002 15.2926C34.9365 15.4048 34.8506 15.5029 34.7479 15.581C34.9036 15.6548 35.0773 15.6816 35.2479 15.658C34.9298 15.9704 34.7042 16.3646 34.5959 16.797C34.5787 16.8826 34.5878 16.9713 34.6219 17.0516C34.6559 17.1319 34.7135 17.2 34.7869 17.247C34.5645 17.5423 34.4428 17.9013 34.4399 18.271C34.5964 18.0944 34.7677 17.9315 34.9519 17.784C35.3578 17.4698 35.7815 17.1793 36.2209 16.914C36.216 17.0052 36.2283 17.0964 36.2569 17.183C36.2569 17.183 36.9249 16.634 37.4859 16.878C37.7399 16.992 37.6259 17.349 37.6259 17.349C37.7256 17.3135 37.8331 17.3053 37.937 17.3253C38.041 17.3454 38.1376 17.3929 38.2169 17.463C38.4949 17.8179 38.7507 18.1896 38.9829 18.576C39.1561 18.7904 39.3183 19.0133 39.4689 19.244C39.75 19.7154 39.9845 20.2131 40.1689 20.73C40.1789 20.523 40.2209 20.23 40.5789 20.23L40.0349 19.257L40.0359 19.262Z" fill="#CAA13E"/>
<path fill-rule="evenodd" clip-rule="evenodd" d="M12.634 26.7501C12.5486 26.4399 12.5486 26.1123 12.634 25.8021C12.8279 25.2025 12.9619 24.5851 13.034 23.9591C13.1401 23.2364 13.3658 22.5365 13.702 21.8881L15.364 21.1321L16.54 21.4531L16.887 23.0271L15.401 23.8461C15.3155 24.1083 15.1379 24.3307 14.901 24.4721C14.482 24.7521 13.901 24.9721 13.762 25.2541C13.6786 25.4287 13.6178 25.6131 13.581 25.8031C13.461 25.7793 13.337 25.7843 13.2192 25.8175C13.1014 25.8506 12.9931 25.9112 12.903 25.9941C12.8081 26.0945 12.7352 26.2136 12.6889 26.3437C12.6425 26.4739 12.6239 26.6123 12.634 26.7501Z" fill="#F4EFC8"/>
<path fill-rule="evenodd" clip-rule="evenodd" d="M15.99 26.33C15.8834 26.4092 15.7996 26.5151 15.747 26.637C15.5157 25.9833 15.395 25.2955 15.39 24.602C15.38 23.717 15.327 23.502 15.532 23.192C15.737 22.882 16.54 22.565 16.426 22.016C16.3968 21.8941 16.3414 21.7801 16.2635 21.6819C16.1856 21.5837 16.0873 21.5037 15.9752 21.4475C15.8632 21.3912 15.7403 21.3602 15.615 21.3565C15.4897 21.3528 15.3651 21.3765 15.25 21.426C14.84 21.526 14.536 22.399 14.111 22.834C13.79 23.165 13.411 23.114 13.303 23.295C13.163 23.538 13.292 23.782 13.251 23.937C13.1547 24.1742 13.0294 24.3986 12.878 24.605C12.2462 25.33 11.7782 26.1827 11.506 27.105C11.51 26.7553 11.5571 26.4073 11.646 26.069L11.568 25.94L12.08 24.262L12.411 22.88L13.152 20.565L14.452 18.199L15.721 16.78L17.041 16.868L17.196 18.851L17.952 22.574L19.542 24.531L17 26.242L15.99 26.33Z" fill="#EBCC73"/>
<path fill-rule="evenodd" clip-rule="evenodd" d="M16.782 27.034C16.6843 27.0612 16.5815 27.065 16.482 27.045C16.404 27.004 16.327 26.957 16.353 26.905C16.379 26.853 16.519 26.765 16.519 26.724C16.5219 26.6865 16.51 26.6493 16.4859 26.6204C16.4618 26.5915 16.4275 26.573 16.39 26.569C16.361 26.5615 16.3303 26.5634 16.3024 26.5746C16.2745 26.5857 16.2509 26.6055 16.235 26.631C16.1733 26.5843 16.103 26.5503 16.028 26.531C16.0831 26.5241 16.1385 26.5204 16.194 26.52C16.0508 26.4553 15.8989 26.4118 15.743 26.391C15.872 26.314 16.126 26.086 16.292 26.086C16.458 26.086 16.561 26.06 16.535 25.972C16.4757 25.8472 16.3698 25.7506 16.24 25.703C16.292 25.641 16.328 25.548 16.204 25.293C16.1564 25.2221 16.128 25.14 16.1216 25.0548C16.1153 24.9695 16.1313 24.8841 16.168 24.807C16.2393 24.7002 16.3168 24.5977 16.4 24.5C16.4528 24.3962 16.5267 24.3045 16.617 24.231C16.7402 24.1653 16.8683 24.1091 17 24.063C17.181 24.001 17.331 23.923 17.435 24.001C17.4661 24.018 17.4896 24.046 17.5011 24.0795C17.5126 24.113 17.5111 24.1495 17.497 24.182C17.7196 24.1085 17.9616 24.1214 18.175 24.218C18.5313 24.3428 18.9001 24.428 19.275 24.472L19.555 25.037L17.7 26.626L16.934 27.009L16.779 27.035L16.782 27.034Z" fill="#E5C66B"/>
<path fill-rule="evenodd" clip-rule="evenodd" d="M19.355 24.4349C19.1112 24.5948 18.8774 24.7695 18.655 24.9579C18.732 24.9689 18.862 25.0199 18.81 25.0979C18.5856 25.2865 18.3713 25.4868 18.168 25.6979C17.9746 25.9218 17.8068 26.1667 17.668 26.4279C17.4216 26.6848 17.1256 26.8889 16.798 27.0279C17.223 27.0279 18.077 26.5049 18.398 26.5049C18.3888 26.5864 18.4118 26.6682 18.4621 26.733C18.5123 26.7978 18.5858 26.8404 18.667 26.8519C19.1599 26.9228 19.6615 26.8085 20.075 26.5309C20.775 26.1059 20.546 25.7899 20.841 25.5829C21.406 25.2099 21.633 24.8829 21.941 24.6719C22.086 24.5667 22.2444 24.4813 22.412 24.4179C22.412 24.4179 22.422 24.2629 22.512 24.2779C22.5372 24.2808 22.5612 24.2905 22.5813 24.306C22.6014 24.3215 22.6168 24.3422 22.626 24.3659C22.997 24.1192 23.4157 23.9533 23.855 23.8789C23.839 23.8717 23.8262 23.8589 23.819 23.8429C23.819 23.8429 23.871 23.8169 23.881 23.7909C23.881 23.7909 23.917 23.7389 23.943 23.7649C23.969 23.7909 24.005 23.9819 24.057 24.0649C24.171 24.0129 24.388 23.5259 24.388 23.5259L24.911 22.0259V20.6599L24.501 20.7379L21.429 22.0379L19.565 23.9699L19.348 24.4309L19.355 24.4349Z" fill="#E6BD62"/>
<path fill-rule="evenodd" clip-rule="evenodd" d="M28.2 17.7301C28.3663 17.6897 28.5257 17.625 28.673 17.5381C28.611 17.8039 28.4987 18.0555 28.342 18.2791C28.1528 18.5517 27.9856 18.8389 27.842 19.1381C27.625 19.5631 27.599 20.1741 27.391 20.4381C27.4839 20.3928 27.5835 20.3631 27.686 20.3501C27.5666 20.4562 27.4668 20.5825 27.391 20.7231C27.2708 21.0576 27.0527 21.3482 26.765 21.5571C26.2484 21.7992 25.7772 22.1284 25.372 22.5301C24.849 23.0941 24.31 23.8091 24.041 24.0661C24.2194 23.7363 24.3484 23.3822 24.424 23.0151C24.476 22.6941 24.413 22.3151 24.501 21.8861C24.565 21.3649 24.7396 20.8634 25.013 20.4151C25.4729 19.3385 25.8572 18.2311 26.163 17.1011L27.727 16.6011L28.198 17.7201L28.2 17.7301Z" fill="#B6933F"/>
<path fill-rule="evenodd" clip-rule="evenodd" d="M27.07 16.7821C26.8018 17.1729 26.5991 17.6049 26.47 18.0611C26.341 18.6611 26.459 18.6101 26.382 18.9051C26.3356 19.0851 26.3356 19.274 26.382 19.4541C26.5453 19.1913 26.7688 18.9713 27.034 18.8121C27.4007 18.623 27.7443 18.3922 28.058 18.1241C28.2916 17.7606 28.5858 17.4399 28.928 17.1761C28.737 17.1501 28.467 17.0621 28.416 17.0761C28.8416 16.7285 29.2914 16.4117 29.762 16.1281C30.1924 15.7183 30.69 15.3855 31.233 15.1441C30.9998 15.1569 30.7661 15.1569 30.533 15.1441C30.633 14.9271 30.994 14.8231 31.352 14.4661C31.71 14.1091 31.124 13.5811 31.124 13.5811L28.389 15.2301L27.069 16.7831L27.07 16.7821Z" fill="#C49937"/>
<path fill-rule="evenodd" clip-rule="evenodd" d="M19.661 15.549L19.723 15.049L20.5 13.8L21.318 11.6V8.58998L21.256 6.84998L21.385 5.71098L21.485 5.34898L21.585 5.20898L22.253 5.55598L23.175 6.80898L23.263 9.22698L22.363 13.043L19.805 15.834L19.661 15.549Z" fill="#DFC068"/>
<path fill-rule="evenodd" clip-rule="evenodd" d="M21.7 5.06902C21.7 5.06902 21.29 5.08002 21.2 6.78302C21.11 8.48602 21.07 9.38302 21.008 10.226C20.9461 10.8484 20.8526 11.4671 20.728 12.08C20.6982 12.6252 20.5811 13.162 20.381 13.67C20.1918 14.1374 19.9078 14.5607 19.547 14.913C19.0806 15.2923 18.5512 15.5867 17.983 15.783C17.3504 15.8511 16.7281 15.9938 16.129 16.208C15.8491 16.3279 15.5904 16.4924 15.363 16.695C14.5145 17.4946 13.8159 18.4395 13.3 19.485C12.378 21.303 11.457 26.434 11.457 26.434L11.664 26.087C11.7363 25.6347 11.9021 25.2025 12.151 24.818C12.602 24.01 12.472 23.104 13.099 21.556C13.3644 20.8679 13.6723 20.1969 14.021 19.547C14.5098 18.5871 15.2006 17.7445 16.046 17.077C16.7914 16.5797 17.6329 16.2445 18.516 16.093L19.909 15.171C19.909 15.171 20.152 14.7 20.474 14.161C21.0746 13.3225 21.4683 12.3538 21.623 11.334C21.6486 9.96843 21.5674 8.60294 21.38 7.25002C21.406 6.17302 21.416 5.38102 21.634 5.18902C21.852 4.99702 21.696 5.07002 21.696 5.07002L21.7 5.06902Z" fill="#A88F33"/>
<path fill-rule="evenodd" clip-rule="evenodd" d="M21.7 13.1999C22.0716 12.273 22.3724 11.3192 22.6 10.3469C22.652 10.0779 22.755 9.80888 22.781 9.59088C22.933 8.76919 22.933 7.92657 22.781 7.10488C22.569 6.61131 22.2691 6.16033 21.896 5.77388C21.642 5.40088 21.523 5.26188 21.575 5.18288C21.6313 5.11988 21.7008 5.0701 21.7786 5.03708C21.8564 5.00406 21.9405 4.98863 22.025 4.99188C22.2334 4.9984 22.4384 5.04714 22.6275 5.13514C22.8165 5.22315 22.9858 5.34859 23.125 5.50388C23.4707 6.13593 23.7118 6.81978 23.839 7.52888L24.171 9.59288L25.015 12.1929L21.7 13.1999Z" fill="#C99E3D"/>
<path fill-rule="evenodd" clip-rule="evenodd" d="M27.469 11.6251C27.3646 11.6585 27.2523 11.6585 27.148 11.6251C27.1568 11.7096 27.1422 11.795 27.1056 11.8717C27.0691 11.9485 27.0121 12.0136 26.941 12.0601C26.1889 12.0409 25.4363 12.0703 24.688 12.1481C24.3657 12.0572 24.0767 11.8748 23.856 11.6229C23.6354 11.371 23.4926 11.0605 23.445 10.7291C23.238 9.8951 23.6 8.7461 23.481 7.9901C23.3564 7.42316 23.2026 6.86308 23.02 6.3121C22.994 5.9661 22.968 5.8771 22.968 5.6601C22.8726 5.62711 22.7735 5.60628 22.673 5.5981C22.647 5.4981 22.699 5.4061 22.585 5.2251C22.9576 5.31309 23.2984 5.50321 23.569 5.7741C23.7659 5.93927 23.9263 6.1436 24.04 6.3741C24.4226 6.70398 24.751 7.09207 25.013 7.5241C25.282 8.0591 25.805 9.7661 25.924 10.0451C26.0004 10.2224 26.1039 10.3867 26.231 10.5321C26.531 10.9051 26.971 11.5221 27.468 11.6241L27.469 11.6251Z" fill="#B58634"/>
<path fill-rule="evenodd" clip-rule="evenodd" d="M24.114 6.3999C24.4278 6.90654 24.7096 7.43222 24.958 7.9739C25.1695 8.58182 25.4621 9.15838 25.828 9.6879C25.621 9.0879 25.253 7.9069 25.036 7.4879C24.7817 7.08342 24.4713 6.71709 24.114 6.3999Z" fill="#A88F33"/>
<path fill-rule="evenodd" clip-rule="evenodd" d="M20.593 14.9131C20.0713 15.0724 19.5684 15.2877 19.093 15.5551C18.772 15.7211 18.467 15.8601 18.171 15.9901C17.4457 16.3268 16.6963 16.6089 15.929 16.8341C15.981 16.8961 16.006 16.9221 16.006 16.9221C16.0068 17.0673 16.0561 17.2081 16.146 17.3221C16.069 17.4001 15.033 18.1041 15.338 20.4601C15.545 20.3831 15.788 20.2791 15.824 20.2791C15.886 20.2901 15.902 20.4601 15.979 20.4601C16.2282 20.3898 16.4422 20.2289 16.579 20.0091C16.4741 20.8972 16.7132 21.7917 17.247 22.5091C17.402 22.3281 17.796 21.7271 17.796 21.7271L17.806 21.5361C17.8367 21.1008 17.922 20.6711 18.06 20.2571C18.207 19.8667 18.4247 19.5067 18.702 19.1951L20.918 16.0311L20.587 14.9181L20.593 14.9131Z" fill="#E6C367"/>
<path fill-rule="evenodd" clip-rule="evenodd" d="M18.522 19.5581C18.4207 19.6299 18.3091 19.6858 18.191 19.7241C18.155 19.5499 18.1558 19.3701 18.1931 19.1962C18.2305 19.0223 18.3037 18.8581 18.408 18.7141C18.9067 18.1717 19.3602 17.5894 19.764 16.9731C19.9048 16.0611 20.3747 15.2322 21.085 14.6431C22.328 13.5301 22.814 13.1431 22.814 13.1431L24.823 12.1331L27.293 13.1061L26.066 17.9201L25.113 20.1731L21.324 19.4591L18.524 19.5591L18.522 19.5581Z" fill="#DCBA5A"/>
<path fill-rule="evenodd" clip-rule="evenodd" d="M19.968 18.2521L20.439 17.6621V17.2421C20.8546 17.0967 21.2279 16.8511 21.526 16.5271C22.09 15.9521 22.872 14.8491 23.561 14.9171C24.25 14.9851 24.317 16.4171 24.343 16.8171C24.3793 17.4175 24.4653 18.0139 24.6 18.6001C24.755 19.0871 22.922 20.9301 22.922 20.9301L21.677 21.8781L19.97 18.2481L19.968 18.2521Z" fill="#E9CE77"/>
<path fill-rule="evenodd" clip-rule="evenodd" d="M21.427 23.1661C21.427 23.1661 21.81 22.5661 21.527 22.4361C21.6583 22.1654 21.8167 21.9087 22 21.6701C22.2254 21.2133 22.5387 20.8055 22.922 20.4701C23.4633 20.0678 23.8943 19.5353 24.175 18.9221C24.2453 18.6322 24.2835 18.3354 24.289 18.0371C24.365 18.0994 24.4463 18.155 24.532 18.2031C24.7466 18.3601 24.9137 18.5731 25.0152 18.8188C25.1166 19.0646 25.1484 19.3335 25.107 19.5961C25.0995 20.0504 24.9567 20.4922 24.697 20.8651C24.524 21.0383 24.3406 21.201 24.148 21.3521C23.904 21.5181 23.817 21.7091 23.407 21.7251C23.4491 21.6916 23.4964 21.6652 23.547 21.6471C23.3178 21.6178 23.0857 21.6729 22.894 21.8021C22.666 22.0091 22.181 22.6461 21.938 22.8381C21.695 22.9931 21.426 23.1691 21.426 23.1691L21.427 23.1661Z" fill="#CDAE50"/>
<path fill-rule="evenodd" clip-rule="evenodd" d="M38.643 13.095C38.0314 12.872 37.3886 12.7461 36.738 12.722C35.651 12.686 34.061 12.748 32.502 12.758C30.824 12.768 29.302 12.183 27.189 12.08C26.842 11.873 25.96 10.967 23.207 12.888C23.373 12.878 25.207 12.463 25.842 13.261C26.0652 13.6252 26.2131 14.0304 26.2772 14.4527C26.3413 14.8751 26.3201 15.3059 26.215 15.72C26.049 16.435 25.515 17.475 25.293 18.206C25.071 18.937 25.127 19.32 24.972 19.832C24.817 20.344 24.472 20.598 24.672 21.188C24.941 21.022 25.082 21.022 25.531 20.013C25.98 19.004 25.888 18.283 26.631 17.429C27.3542 16.5741 28.1609 15.7936 29.039 15.099C30.2485 14.4241 31.5977 14.0384 32.9811 13.9719C34.3645 13.9055 35.7445 14.1602 37.013 14.716C37.94 14.616 38.634 13.095 38.634 13.095H38.643Z" fill="#D2A83E"/>
<path fill-rule="evenodd" clip-rule="evenodd" d="M24.7559 12.3901C24.752 12.3511 24.7433 12.3128 24.7299 12.2761C24.694 12.2004 24.6468 12.1306 24.5899 12.0691C24.1378 11.9837 23.678 11.9455 23.2179 11.9551C22.4099 12.0431 21.6799 13.0421 21.3379 13.5551C20.9941 14.1703 20.5825 14.7452 20.1109 15.2691C20.1159 15.2292 20.1067 15.1888 20.0849 15.1551C20.0849 15.1551 20.1109 15.1911 20.0589 15.2431C20.0069 15.2951 20.0069 15.3201 20.0329 15.3431L20.1109 15.4201C20.7468 15.1089 21.3262 14.6935 21.8249 14.1911C22.4819 13.5412 23.2388 13.001 24.0669 12.5911C24.2879 12.4985 24.5188 12.4314 24.7549 12.3911L24.7559 12.3901Z" fill="#C29637"/>
<path fill-rule="evenodd" clip-rule="evenodd" d="M42.434 8.5C42.434 8.5 42.268 8.707 42.061 8.935C41.6 9.422 40.999 9.97 40.487 10.535C40.001 11.074 39.452 11.493 38.835 12.197C38.218 12.901 37.5 13.68 37.323 13.908C37.1592 14.1427 37.0577 14.4153 37.028 14.7C36.94 14.638 36.837 14.571 36.837 14.571C36.8805 14.6523 36.9324 14.7287 36.992 14.799C37.121 14.98 37.323 15.209 37.427 15.348C37.5543 15.5252 37.6457 15.7257 37.696 15.938C37.758 15.948 38.157 16.026 38.654 15.208C39.151 14.39 39.8 13.494 39.8 13.494L40.836 11.956L41.489 10.656L42.308 9.196L42.433 8.502L42.434 8.5Z" fill="#AC8132"/>
<path fill-rule="evenodd" clip-rule="evenodd" d="M43.5 7.45093C43.1898 7.70155 42.8989 7.97534 42.63 8.26993C42.387 8.57693 41.811 9.38293 41.811 9.38293L42.018 9.35693L43.069 8.42493L43.479 7.69493L43.5 7.45093Z" fill="#A88F33"/>
<path fill-rule="evenodd" clip-rule="evenodd" d="M43.3 48.6001C43.2969 48.3548 43.3773 48.1157 43.528 47.9221C44.1805 47.3837 44.6833 46.6863 44.988 45.8971C45.25 45.3419 45.4732 44.7692 45.656 44.1831C45.1313 44.6417 44.5454 45.025 43.915 45.3221C44.07 45.0011 44.158 44.7731 44.236 44.6071C44.148 44.5301 43.775 44.4411 43.736 44.4001C43.943 44.1931 44.057 43.6851 44.476 43.3491C45.015 42.9391 45.998 42.2361 46.763 41.6081C47.6793 40.8701 48.5072 40.0285 49.23 39.1001C49.291 39.1816 49.3383 39.2724 49.37 39.3691C49.37 39.3691 48.614 40.3531 48.221 40.9791C48.0318 41.2219 47.92 41.5159 47.9 41.8231L48.615 41.5161C48.615 41.5161 48.822 42.2821 47.885 43.4481C48.295 43.2931 48.46 43.3861 48.693 43.2561C48.0909 43.6061 47.6021 44.122 47.285 44.7421C46.7869 45.8131 46.0019 46.7251 45.017 47.3771C44.4222 47.7523 43.849 48.1606 43.3 48.6001Z" fill="#A67A2E"/>
<path fill-rule="evenodd" clip-rule="evenodd" d="M40.5 13.6341C40.2624 14.1325 40.0984 14.6626 40.013 15.2081C40.003 15.3741 39.961 15.5081 39.961 15.6951C40.0023 16.2391 39.9686 16.7862 39.861 17.3211C39.8337 17.2245 39.7897 17.1335 39.731 17.0521C39.654 17.2691 39.514 17.9521 39.4 18.2011C39.2857 17.737 39.2336 17.2598 39.245 16.7821C39.256 16.1041 39.271 15.9741 39.271 15.8341C39.2168 16.057 39.1442 16.2751 39.054 16.4861C38.977 16.3461 38.888 16.1651 38.785 16.0151C38.7234 16.1299 38.6543 16.2405 38.578 16.3461C38.567 16.2841 38.542 16.1181 38.526 15.8851C38.5106 15.6557 38.5072 15.4258 38.516 15.1961C38.6574 14.7518 38.8966 14.3448 39.216 14.0051C39.7284 13.3566 40.158 12.6468 40.495 11.8921C40.661 11.5351 41.365 10.0491 41.365 10.0491H41.9L41.118 11.8301C41.118 11.8301 40.647 12.8031 40.404 13.1611C40.161 13.5191 39.648 14.5441 39.42 14.9421C39.586 14.7251 39.725 14.6111 39.891 14.4031C40.1076 14.1579 40.3099 13.9005 40.497 13.6321L40.5 13.6341Z" fill="#8C6228"/>
<path fill-rule="evenodd" clip-rule="evenodd" d="M43.5061 7.38403C43.418 7.65496 43.2788 7.9065 43.0961 8.12503C42.7751 8.50803 42.0861 9.02503 41.7501 9.42503C41.456 9.81756 41.2471 10.2671 41.1366 10.7449C41.026 11.2227 41.0163 11.7183 41.1081 12.2C41.2872 11.6687 41.561 11.174 41.9161 10.74C42.4246 10.1529 42.8706 9.51447 43.2471 8.83503C43.4039 8.51756 43.507 8.17626 43.5521 7.82503L43.6521 7.69603L43.5901 7.39603L43.5001 7.38403H43.5061Z" fill="#CBA94C"/>
<path fill-rule="evenodd" clip-rule="evenodd" d="M53.991 41.729C53.8662 41.3797 53.7761 41.0189 53.722 40.652C53.66 40.139 53.822 40.038 53.634 39.452C53.52 39.095 53.313 39.145 53.261 39.095C53.1919 38.8054 53.1656 38.5072 53.183 38.21C53.1984 37.9271 53.1776 37.6435 53.121 37.366C53.044 37.304 52.992 37.252 52.878 36.866C52.8087 36.6312 52.7239 36.4014 52.624 36.178C52.562 36.064 52.38 35.961 52.38 35.847C52.38 35.619 52.587 35.5 52.587 35.437C52.577 35.308 52.421 35.411 52.38 35.375C52.328 35.313 52.51 34.94 52.442 34.888C52.416 34.862 52.235 35.08 52.188 35.018C52.141 34.956 52.074 34.339 51.981 33.931C51.888 33.523 51.8 33.243 51.79 33.123C51.78 33.003 51.075 31 50.9 30.514C50.7624 30.1027 50.6465 29.6844 50.553 29.261C50.5274 29.0294 50.4893 28.7994 50.439 28.572C50.413 28.624 50.429 28.877 50.387 28.872C50.345 28.867 50.221 27.972 50.18 27.836C50.0554 27.5242 49.9528 27.2041 49.873 26.878C49.821 26.531 49.707 25.625 49.63 25.009C49.553 24.393 49.516 24.139 49.516 23.985C49.5287 23.6075 49.508 23.2297 49.454 22.856C49.3515 22.2072 49.1884 21.5694 48.967 20.951C48.62 20.081 47.698 17.851 47.533 17.3C47.533 17.16 47.714 17.238 47.714 17.238C47.714 17.238 48.164 18.367 48.496 19.238C48.6895 19.8248 48.9234 20.3975 49.196 20.952C49.5984 21.6723 49.8584 22.4634 49.962 23.282C50.179 24.682 50.257 25.969 50.387 26.829C50.4414 27.2581 50.5259 27.6828 50.64 28.1C50.78 28.571 50.997 29.058 51.282 29.8C51.4959 30.3195 51.6708 30.8543 51.805 31.4C51.919 31.975 51.919 32.41 51.986 32.695C52.048 32.938 52.141 33.425 52.359 34.129C52.577 34.833 52.897 35.739 53.115 36.304C53.4358 37.1342 53.6635 37.9975 53.794 38.878C53.9153 39.8227 53.9821 40.7736 53.994 41.726L53.991 41.729Z" fill="#A88F33"/>
<path fill-rule="evenodd" clip-rule="evenodd" d="M43.532 7.32202L43.506 7.38402C43.5304 7.39444 43.5501 7.41339 43.5615 7.43732C43.573 7.46125 43.5753 7.48852 43.568 7.51402C43.5691 7.65611 43.5604 7.79812 43.542 7.93902C43.516 8.12002 43.465 8.26002 43.454 8.37402C43.4732 8.80101 43.3664 9.22422 43.147 9.59102C43.047 9.78202 42.981 9.94802 42.93 10.062C42.8696 10.228 42.7783 10.381 42.661 10.513C42.842 10.413 43.495 10.001 43.826 10.062C43.5123 10.2387 43.2418 10.4829 43.034 10.777C43.2371 10.8126 43.4449 10.8126 43.648 10.777C44.2311 10.6299 44.8281 10.5448 45.429 10.523C46.045 10.559 45.802 9.78302 45.802 9.78302L45.09 8.21802L43.744 7.27002L43.532 7.32202Z" fill="#BE9C44"/>
<path fill-rule="evenodd" clip-rule="evenodd" d="M47.042 19.0339C46.5026 18.2501 46.2087 17.3234 46.198 16.3719C46.0431 14.6699 45.9793 12.9608 46.007 11.2519L45.52 10.0609C45.4777 9.67775 45.3561 9.30756 45.163 8.97394C44.908 8.67894 44.407 8.18194 44.179 7.93794C43.951 7.69394 43.692 7.36294 43.537 7.31094C43.7119 7.00973 43.9715 6.76663 44.2836 6.61193C44.5957 6.45723 44.9464 6.39776 45.292 6.44094C45.67 6.39512 46.053 6.46645 46.3893 6.64528C46.7255 6.82412 46.9987 7.10184 47.172 7.44094C47.7401 8.58147 48.0798 9.82207 48.172 11.0929C48.3295 12.1345 48.3937 13.188 48.364 14.2409C48.2849 15.0692 48.1479 15.8908 47.954 16.6999C47.827 17.5361 47.5158 18.3337 47.043 19.0349L47.042 19.0339Z" fill="#A17C34"/>
<path fill-rule="evenodd" clip-rule="evenodd" d="M45.158 20.8001C45.3583 20.8145 45.5584 20.7692 45.733 20.6701C46.0008 20.696 46.2708 20.6547 46.5186 20.5499C46.7664 20.4452 46.9841 20.2802 47.152 20.0701C47.1983 20.2276 47.2121 20.3928 47.1925 20.5558C47.1729 20.7188 47.1203 20.876 47.038 21.0181C47.1466 20.935 47.2628 20.8623 47.385 20.8011C47.4671 21.5849 47.2629 22.372 46.81 23.0171C46.899 22.9333 47.0042 22.8686 47.119 22.8268C47.2339 22.785 47.356 22.7671 47.478 22.7741C47.585 23.3381 47.505 23.9217 47.25 24.4361C47.1706 24.532 47.0661 24.6041 46.9482 24.6443C46.8303 24.6846 46.7036 24.6914 46.582 24.6641C46.5881 24.5919 46.5881 24.5193 46.582 24.4471C46.572 24.3071 46.52 24.1671 46.556 24.0741C46.3557 23.9827 46.1732 23.8564 46.017 23.7011C45.4947 23.261 45.119 22.6722 44.94 22.0131C44.919 21.853 44.9567 21.6908 45.0463 21.5565C45.1359 21.4222 45.2712 21.3251 45.427 21.2831C45.3819 21.2427 45.3434 21.1954 45.313 21.1431C45.2896 21.0186 45.2364 20.9016 45.158 20.8021V20.8001Z" fill="#8C6228"/>
<path fill-rule="evenodd" clip-rule="evenodd" d="M41.165 14.286C41.165 14.286 41.139 14.25 40.999 14.415C41.025 14.249 41.051 14.094 41.061 13.944C41.1271 13.8049 41.2126 13.6759 41.315 13.561C41.237 13.716 41.185 13.856 41.185 13.856C41.3063 13.6376 41.4659 13.4429 41.656 13.281C41.847 13.126 42.091 13.053 42.194 12.908C42.2404 12.8439 42.2787 12.7744 42.308 12.701C42.552 12.515 42.7682 12.2951 42.95 12.048C43.002 11.986 43.079 11.919 43.131 11.857C43.219 11.821 43.426 11.728 43.669 11.603C43.923 11.463 44.208 11.272 44.384 11.193C44.731 11.038 45.099 11.053 45.269 10.81C45.398 10.774 45.538 10.385 45.512 10.054C45.8906 10.268 46.2206 10.5585 46.4809 10.907C46.7412 11.2554 46.9261 11.6542 47.024 12.078C47.1252 13.13 46.998 14.1916 46.651 15.19C46.5866 15.7284 46.4307 16.252 46.19 16.738C45.869 17.163 44.834 17.762 44.58 18.059C44.363 18.302 43.71 18.918 43.736 19.359C43.762 19.69 44.171 19.871 44.259 19.934C44.347 19.997 44.347 20.074 44.513 20.034C44.679 19.994 44.741 19.92 44.813 19.92C44.885 19.92 44.89 19.946 44.927 19.946C44.9514 19.9473 44.9758 19.9463 45 19.943C45 19.943 44.974 20.414 43.871 20.557C43.793 20.568 43.716 20.593 43.617 20.609C43.7588 20.5675 43.8816 20.4776 43.964 20.355C43.809 20.329 43.364 20.303 43.249 20.267C43.3185 20.1536 43.4041 20.0508 43.503 19.962C43.591 19.885 43.493 19.862 43.415 19.9C43.2817 19.9908 43.1538 20.0893 43.032 20.195C42.8931 20.3437 42.7423 20.4808 42.581 20.605C42.5419 20.4527 42.5389 20.2934 42.5723 20.1397C42.6056 19.9861 42.6743 19.8423 42.773 19.72C42.711 19.73 42.591 19.911 42.473 19.875C42.4524 19.686 42.4645 19.4948 42.509 19.31C42.6101 19.0775 42.7449 18.8612 42.909 18.668L44.535 15.763L44.882 13.563L41.159 14.286H41.165Z" fill="#92723A"/>
<path fill-rule="evenodd" clip-rule="evenodd" d="M41.077 14.41C41.077 14.41 40.989 14.472 41.165 14.591C41.1162 14.6798 41.0607 14.7647 40.999 14.845C40.911 14.945 40.818 15.011 40.782 15.099C40.717 15.2192 40.6699 15.3482 40.642 15.482C40.6375 15.7976 40.554 16.107 40.399 16.382C40.3137 16.5219 40.2376 16.6672 40.171 16.817C40.0661 16.9792 39.9761 17.1506 39.902 17.329C39.8583 17.5529 39.8289 17.7793 39.814 18.007L39.969 17.816C39.9122 17.9511 39.8353 18.0768 39.741 18.189C39.803 18.137 39.984 18.008 40.29 17.738C40.8802 17.2055 41.516 16.7256 42.19 16.304C41.9896 16.3652 41.783 16.4034 41.574 16.418C41.703 16.289 42.868 14.918 43.479 14.792C43.5161 14.7449 43.5346 14.6858 43.531 14.626L43 14.571L41.938 14.799L41.783 13.98L41.073 14.41H41.077Z" fill="#B18E3E"/>
<path fill-rule="evenodd" clip-rule="evenodd" d="M42.765 19.071C42.6444 19.2143 42.5531 19.3797 42.496 19.558C42.3963 19.4541 42.3109 19.3374 42.242 19.211C42.1989 19.1001 42.134 18.999 42.0512 18.9135C41.9684 18.828 41.8693 18.76 41.7598 18.7134C41.6503 18.6668 41.5326 18.6426 41.4136 18.6422C41.2946 18.6418 41.1768 18.6652 41.067 18.711C41.0487 18.5492 41.0487 18.3859 41.067 18.224C41.3819 18.0432 41.6567 17.8003 41.875 17.51C42.1426 17.2139 42.3543 16.8717 42.5 16.5C42.6 16.422 42.78 16.293 43.012 16.143C43.343 15.915 43.742 15.604 43.804 15.258C43.4961 15.3999 43.1586 15.4657 42.82 15.45C43.012 15.362 43.307 15.269 43.271 14.885C43.349 14.833 43.411 14.797 43.411 14.797C43.3527 14.7776 43.2914 14.7688 43.23 14.771C43.219 14.735 43.204 14.683 43.116 14.709C43.028 14.735 43.016 14.735 43.002 14.771C42.9173 14.7728 42.8341 14.794 42.759 14.833C42.6246 14.9445 42.4826 15.0464 42.334 15.138C42.37 15.076 42.422 14.983 42.422 14.983C42.2734 14.9982 42.1273 15.0318 41.987 15.083C41.609 15.2324 41.2415 15.4072 40.887 15.606C40.923 15.544 40.939 15.506 40.964 15.492C40.989 15.478 41.052 15.466 41.052 15.456C41.0398 15.4104 41.0365 15.3629 41.042 15.316C41.1584 15.0714 41.2956 14.8373 41.452 14.616C41.5691 14.4385 41.6434 14.2362 41.669 14.025L42.461 13.625L44.688 13.113L46.133 13.201L45.952 14.201L45.1 15.948L44.37 17.538L43.536 18.512L42.77 19.071H42.765Z" fill="#543E26"/>
<path fill-rule="evenodd" clip-rule="evenodd" d="M46.374 14.7461C46.0301 15.1839 45.6583 15.5991 45.261 15.9891C45.416 15.6581 46.374 13.6891 46.721 13.1361C46.644 13.0741 46.54 13.0741 46.783 12.1121C46.576 12.5981 46.503 12.8521 46.333 12.9821C46.294 13.0222 46.2451 13.0515 46.1912 13.0669C46.1374 13.0824 46.0804 13.0835 46.026 13.0701C46.0479 13.0308 46.057 12.9857 46.052 12.9411C46.052 12.9411 45.322 12.8531 44.823 12.8531C44.1249 12.9173 43.4396 13.0813 42.788 13.3401C42.505 13.4235 42.2266 13.522 41.954 13.6351C41.799 13.7641 41.711 13.9041 41.633 13.9401C41.571 13.9761 41.276 14.0691 41.208 14.1681C41.14 14.2671 41.042 14.3851 41.042 14.4111C41.042 14.4371 41.016 14.4731 41.094 14.4471C41.12 14.4371 41.311 14.3331 41.529 14.2041C41.824 14.0381 42.181 13.8471 42.44 13.7331C42.8544 13.563 43.2932 13.4601 43.74 13.4281C44.1261 13.3304 44.5188 13.2612 44.915 13.2211C45.2819 13.2092 45.6491 13.2179 46.015 13.2471C45.953 13.2991 45.901 13.3611 45.927 13.5781C45.9023 13.6743 45.8689 13.768 45.827 13.8581C45.672 14.2831 45.377 14.9871 45.213 15.3441C44.985 15.8301 44.727 16.2441 44.599 16.4931C44.4072 16.9385 44.177 17.3665 43.911 17.7721C43.632 18.1291 43.486 18.3471 43.399 18.4251C43.312 18.5031 42.684 18.9631 42.731 19.1251C43.2482 18.9372 43.7131 18.6287 44.087 18.2251C44.4 17.7766 44.7463 17.3524 45.123 16.9561C45.5273 16.6004 45.843 16.1552 46.045 15.6561C46.1278 15.3437 46.2368 15.039 46.371 14.7451L46.374 14.7461Z" fill="#806031"/>
<path fill-rule="evenodd" clip-rule="evenodd" d="M27.625 22.7831C27.5603 23.0436 27.4322 23.2841 27.252 23.4831C26.998 23.7111 26.552 23.9081 26.496 24.2911C26.44 24.6741 26.947 24.8661 26.947 24.8661C26.7963 25.112 26.7008 25.3877 26.667 25.6741C26.6574 25.9297 26.666 26.1857 26.693 26.4401C26.6531 26.4661 26.619 26.5001 26.593 26.5401C26.6166 26.7479 26.7163 26.9396 26.873 27.0781C27.127 27.2851 27.344 27.4091 27.473 27.3581C27.4928 27.4004 27.5102 27.4438 27.525 27.4881C27.525 27.4881 27.717 27.0011 27.846 26.5771C27.975 26.1531 28.089 26.2041 28.141 25.6191C28.2636 25.0609 28.4706 24.5247 28.755 24.0291L29.139 23.1711L28.513 22.6841L27.628 22.7771L27.625 22.7831Z" fill="#B6903C"/>
<path fill-rule="evenodd" clip-rule="evenodd" d="M28.79 23.627C28.6607 23.7597 28.5414 23.9017 28.433 24.052C28.3118 24.2775 28.1239 24.4601 27.895 24.575C27.652 24.663 27.495 24.663 27.512 24.906C27.529 25.149 27.755 25.253 27.885 25.377C27.9674 25.449 28.0287 25.5419 28.0625 25.646C28.0963 25.75 28.1013 25.8613 28.077 25.968C28.1573 25.9372 28.2299 25.8894 28.2899 25.8277C28.3498 25.766 28.3956 25.6921 28.424 25.611C28.553 25.331 29.458 23.628 29.458 23.628L28.79 23.627Z" fill="#685026"/>
<path fill-rule="evenodd" clip-rule="evenodd" d="M32.358 19.6999C32.4009 19.5848 32.4009 19.458 32.358 19.3429C32.28 19.1879 31.809 19.1359 31.576 18.9599C31.4717 18.8648 31.347 18.7948 31.2114 18.7553C31.0759 18.7158 30.9331 18.7078 30.794 18.7319C30.83 18.6439 30.975 18.4519 30.856 18.4109C30.6218 18.436 30.3976 18.5196 30.204 18.6539C30.09 18.7419 29.831 18.8449 29.779 18.9079C29.727 18.9709 29.639 19.0889 29.587 19.0369C29.535 19.0009 29.51 18.9079 29.421 18.9589C29.186 19.1171 28.9853 19.3212 28.831 19.5589C28.6637 20.0023 28.396 20.4011 28.049 20.7239C27.521 21.2359 27.293 21.5679 27.449 21.7599C27.605 21.9519 27.677 21.8119 27.703 21.9769C27.7229 22.1395 27.7141 22.3043 27.677 22.4639C27.615 22.7329 27.511 22.9869 27.651 23.0389C28.008 23.1529 28.351 22.9389 28.433 23.0029C28.588 23.1429 28.345 23.6449 28.713 23.7429C28.9629 23.7973 29.2238 23.7663 29.454 23.6549L30.81 22.9249L32.11 22.2369L32.778 20.9159L32.42 19.8159L32.352 19.7019L32.358 19.6999Z" fill="#D4B968"/>
<path fill-rule="evenodd" clip-rule="evenodd" d="M31.0779 22.851C31.0145 22.7513 30.9853 22.6336 30.9946 22.5158C31.004 22.398 31.0515 22.2864 31.1299 22.198C31.4099 21.892 31.8079 21.763 31.9639 21.572C31.9343 21.5357 31.8947 21.509 31.8499 21.495C31.9531 21.3105 32.1106 21.1621 32.3009 21.07C32.2248 20.9865 32.1188 20.9362 32.0059 20.93C31.7519 20.93 31.5959 21.085 31.3639 21.085C31.1319 21.085 31.1099 20.971 31.1099 20.971C31.1099 20.971 31.4929 20.935 31.4569 20.764C31.4209 20.593 31.3569 20.583 31.3569 20.583C31.6658 20.4637 31.9582 20.3054 32.2269 20.112C32.3084 19.9806 32.3565 19.8313 32.3669 19.677C32.4549 19.677 32.9669 19.408 33.1749 19.522C33.3829 19.636 33.2369 19.947 33.2369 19.947C33.592 19.6783 33.9104 19.3643 34.1839 19.013C34.4639 19.039 34.5939 18.822 34.7979 18.822C35.0519 18.822 35.4509 19.169 35.5279 19.909C35.6178 20.3766 35.6354 20.8551 35.5799 21.328C35.5319 21.9235 35.5655 22.5227 35.6799 23.109C35.7679 23.466 35.9749 23.43 35.9749 23.43C35.9433 23.5391 35.8804 23.6364 35.7939 23.71C35.6752 23.8861 35.6254 24.0996 35.6539 24.31C35.6746 24.4048 35.7007 24.4982 35.7319 24.59C35.6475 24.6862 35.5778 24.7944 35.5249 24.911C35.4966 24.9753 35.4502 25.0299 35.3915 25.0684C35.3328 25.1069 35.2642 25.1276 35.1939 25.128C35.118 25.1226 35.0418 25.1226 34.9659 25.128C34.7999 25.139 34.7489 25.164 34.6449 25.128C34.5409 25.092 34.4639 25.05 34.5049 24.718C34.5459 24.386 33.2259 23.618 33.2259 23.618L31.0759 22.852L31.0779 22.851Z" fill="#CCA849"/>
<path fill-rule="evenodd" clip-rule="evenodd" d="M28.609 26.123C28.609 26.123 29.08 26.75 31.017 26.75C31.4993 26.7747 31.9826 26.7275 32.451 26.61C33.149 26.3597 33.7615 25.9161 34.217 25.331C34.917 24.497 34.766 24.156 34.766 24.156L34.356 24.094L33.025 24.275L29.086 25.953L28.608 26.124L28.609 26.123Z" fill="#585136"/>
<path fill-rule="evenodd" clip-rule="evenodd" d="M30.053 26.278C30.053 26.278 28.375 26.651 28.375 25.59C28.5049 24.6845 28.9664 23.8595 29.67 23.275C29.9588 23.1074 30.2641 22.97 30.581 22.865H32.13L32.425 23.647L32.3 25.335L30.058 26.277L30.053 26.278Z" fill="#252211"/>
<path fill-rule="evenodd" clip-rule="evenodd" d="M31.6 23.182C31.6 23.182 31.279 22.882 30.549 23.282C30.1815 23.4809 29.8667 23.7645 29.6307 24.1094C29.3947 24.4542 29.2443 24.8504 29.192 25.265C29.156 25.933 29.741 26.43 30.652 26.456C31.0862 26.4835 31.5222 26.4498 31.947 26.356C31.895 26.294 31.626 25.956 31.626 25.956L31.6 23.182Z" fill="#C3B378"/>
<path fill-rule="evenodd" clip-rule="evenodd" d="M31.286 23.347C31.286 23.347 31.209 23.285 30.979 23.409C30.7334 23.5767 30.5032 23.7657 30.291 23.974C30.1828 24.0513 30.0802 24.1362 29.984 24.228C29.663 24.611 29.393 25.238 29.549 25.549C29.705 25.86 30.217 26.217 31.522 25.974L31.283 23.349L31.286 23.347Z" fill="#E6D89C"/>
<path fill-rule="evenodd" clip-rule="evenodd" d="M30.8611 23.99C30.7196 24.2448 30.6481 24.5326 30.6541 24.824C30.6478 25.009 30.6791 25.1933 30.746 25.3659C30.8128 25.5385 30.9138 25.6958 31.043 25.8284C31.1722 25.9609 31.3269 26.066 31.4977 26.1372C31.6685 26.2085 31.852 26.2445 32.0371 26.243C32.8711 26.295 33.4301 25.043 34.0371 24.555C34.241 24.3578 34.4983 24.2247 34.7771 24.172C34.2632 23.6953 33.6794 23.3001 33.0461 23C31.8031 22.332 30.4101 22.244 29.6541 23.269C30.0111 23.243 31.1661 22.948 31.1661 22.948L31.7311 23.129L30.8611 23.994V23.99Z" fill="#252211"/>
<path fill-rule="evenodd" clip-rule="evenodd" d="M32.487 24.668C32.451 24.591 32.425 24.487 32.575 24.461C32.725 24.435 32.792 24.45 32.844 24.561C32.896 24.672 32.944 24.768 32.87 24.815C32.7985 24.8324 32.7233 24.8274 32.6548 24.8005C32.5862 24.7737 32.5277 24.7264 32.487 24.665V24.668ZM32.244 23.938C32.244 23.938 32.192 23.974 32.218 23.902C32.228 23.814 32.296 23.659 32.461 23.695C32.626 23.731 32.591 23.912 32.561 23.964C32.5302 24.0044 32.4885 24.0352 32.4409 24.0529C32.3933 24.0706 32.3417 24.0745 32.292 24.064C32.2788 24.0607 32.2666 24.0544 32.2564 24.0455C32.2462 24.0365 32.2382 24.0253 32.2331 24.0128C32.2281 24.0002 32.226 23.9866 32.2272 23.9731C32.2284 23.9596 32.2328 23.9465 32.24 23.935L32.244 23.938Z" fill="#6F674D"/>
<path fill-rule="evenodd" clip-rule="evenodd" d="M18.2271 24.2691C18.4856 24.4549 18.7938 24.5594 19.1121 24.5691C19.6422 24.4603 20.1201 24.1756 20.4681 23.7611C20.6341 23.5801 20.7751 23.3881 20.9291 23.2381C21.029 23.1516 21.1226 23.058 21.2091 22.9581C21.2971 22.8581 21.3901 22.6631 21.4371 22.6011C21.2938 22.7257 21.1432 22.8415 20.9861 22.9481C20.7718 23.0793 20.5486 23.1953 20.3181 23.2951C20.1781 23.3471 18.7281 24.1141 18.7281 24.1141L18.2281 24.2731L18.2271 24.2691Z" fill="#AC924C"/>
<path fill-rule="evenodd" clip-rule="evenodd" d="M18.853 20.4431C19.0594 20.3206 19.2854 20.2347 19.521 20.1891C19.9439 20.1067 20.3709 20.0462 20.8 20.0081L21.5 20.3151L21.78 21.3771L21.268 22.4771L20.616 22.8871L19.879 21.7001L18.855 20.4471L18.853 20.4431Z" fill="#9F8E57"/>
<path fill-rule="evenodd" clip-rule="evenodd" d="M17.932 21.3901L17.688 21.5721C17.749 21.425 17.7874 21.2696 17.802 21.1111C17.9166 20.5068 18.1605 19.9343 18.517 19.4331C18.6359 19.2723 18.7638 19.1184 18.9 18.9721C18.8638 18.9656 18.8266 18.9668 18.7909 18.9758C18.7552 18.9847 18.7218 19.0012 18.693 19.0241C18.8782 18.7341 19.1216 18.4858 19.408 18.2951C19.739 18.0951 19.869 18.0261 20.216 18.1951C20.563 18.3641 20.651 18.4491 20.905 18.4381C21.0908 18.405 21.2582 18.3055 21.376 18.1581C21.376 18.1581 21.428 18.3241 21.236 18.7071C20.9586 19.1253 20.6411 19.5155 20.288 19.8721L18.714 20.9491L17.932 21.3931V21.3901Z" fill="#EAC970"/>
<path fill-rule="evenodd" clip-rule="evenodd" d="M19.0999 20.313C19.0999 20.313 20.2389 20.468 20.5859 20.147C20.5959 20.183 20.6379 20.183 20.6379 20.209C20.6353 20.2287 20.6261 20.247 20.6119 20.261C20.6497 20.255 20.6878 20.2517 20.7259 20.251C20.7716 20.2646 20.8185 20.2733 20.8659 20.277C20.9042 20.276 20.9423 20.2723 20.9799 20.266C20.9763 20.2918 20.9676 20.3166 20.9542 20.3389C20.9408 20.3613 20.923 20.3807 20.9019 20.396C20.9539 20.396 21.0019 20.406 21.0019 20.448C21.0019 20.49 21.0119 20.614 20.9499 20.64C20.8985 20.654 20.8439 20.6501 20.7949 20.629C20.7991 20.7271 20.8258 20.8229 20.8729 20.909C20.9235 21.0258 21.0108 21.123 21.1217 21.1856C21.2325 21.2483 21.3608 21.273 21.4869 21.256C21.4869 21.256 21.6419 21.629 20.9869 22.456C20.8989 22.57 20.8059 22.725 20.6919 22.856C20.6479 22.9538 20.6144 23.0561 20.5919 23.161C20.9086 23.0337 21.1969 22.8451 21.4405 22.6061C21.684 22.367 21.8779 22.0822 22.0109 21.768C22.302 20.8557 22.411 19.8952 22.3319 18.941C22.332 18.7469 22.2932 18.5548 22.2179 18.376C22.1792 18.3125 22.1265 18.2588 22.0639 18.2188C22.0012 18.1787 21.9303 18.1535 21.8564 18.145C21.7826 18.1366 21.7078 18.145 21.6377 18.1698C21.5676 18.1946 21.5041 18.235 21.4519 18.288C21.0731 18.7684 20.6481 19.2105 20.1829 19.608C19.8577 19.8945 19.4913 20.1304 19.0959 20.308L19.0999 20.313Z" fill="#D7BC6B"/>
<path fill-rule="evenodd" clip-rule="evenodd" d="M17.73 21.712C17.5464 21.8678 17.4282 22.0871 17.399 22.326C17.3277 22.7707 17.408 23.2265 17.627 23.62C17.7188 23.817 17.8584 23.9879 18.033 24.1173C18.2076 24.2467 18.4118 24.3305 18.627 24.361C18.7731 24.3602 18.9175 24.3303 19.052 24.273C19.2579 24.1788 19.4511 24.0588 19.627 23.916C19.881 23.725 20.088 23.559 20.062 23.543C20 23.517 18.5 22.274 18.5 22.274L17.935 21.644L17.735 21.712H17.73Z" fill="#585136"/>
<path fill-rule="evenodd" clip-rule="evenodd" d="M19.149 23.7719C19.3189 23.7573 19.4843 23.7097 19.636 23.6319C19.817 23.5179 18.574 22.2859 18.574 22.2859L18.662 23.6169L19.149 23.7719Z" fill="#453A25"/>
<path fill-rule="evenodd" clip-rule="evenodd" d="M17.828 21.618C17.7625 21.7361 17.7105 21.8613 17.673 21.991C17.6675 22.4271 17.7057 22.8626 17.787 23.291C17.8407 23.4754 17.9492 23.639 18.0982 23.7602C18.2472 23.8813 18.4296 23.9541 18.621 23.969C18.8506 23.9639 19.0737 23.892 19.263 23.762C19.263 23.71 18.88 23.662 18.776 23.462C18.7061 23.265 18.6722 23.057 18.676 22.848C18.666 22.682 18.666 22.501 18.728 22.438C18.83 22.254 18.8869 22.0483 18.894 21.838L19.394 20.915H18.74L17.958 21.402L17.828 21.618Z" fill="#84754B"/>
<path fill-rule="evenodd" clip-rule="evenodd" d="M17.636 21.9001C17.8925 21.5516 18.2254 21.2663 18.609 21.0661C18.8179 20.9691 19.0539 20.9472 19.277 21.0041L19.008 21.6931L18.625 22.1181L18.651 22.3351C18.6374 22.5105 18.6587 22.6868 18.7138 22.8538C18.7689 23.0209 18.8567 23.1753 18.972 23.3081C19.0704 23.4339 19.1974 23.5343 19.3425 23.6009C19.4876 23.6676 19.6465 23.6985 19.806 23.6911C20.0052 23.6654 20.1934 23.585 20.3497 23.4588C20.5059 23.3325 20.6241 23.1655 20.691 22.9761C20.8459 22.6784 20.9237 22.3466 20.9174 22.011C20.9111 21.6755 20.8209 21.3468 20.655 21.0551C20.5125 20.8347 20.3168 20.6537 20.0859 20.5288C19.8551 20.4038 19.5965 20.3389 19.334 20.3401C18.9158 20.3685 18.5197 20.5383 18.2108 20.8216C17.9018 21.1049 17.6984 21.4849 17.634 21.8991L17.636 21.9001Z" fill="#252211"/>
<path fill-rule="evenodd" clip-rule="evenodd" d="M30.783 24.207C30.592 24.119 30.773 23.581 30.964 23.415C31.1954 23.1882 31.5007 23.0523 31.824 23.032C31.979 23.022 32.129 23.12 32.104 23.224C31.9861 23.4887 31.7958 23.7147 31.555 23.876C31.218 24.14 31 24.305 30.783 24.207Z" fill="#F7F7E7"/>
<path fill-rule="evenodd" clip-rule="evenodd" d="M20.4269 21.271C20.5057 21.2698 20.5829 21.2938 20.6471 21.3395C20.7113 21.3852 20.7592 21.4502 20.7839 21.525C20.8199 21.691 20.6959 22.025 20.4269 22.025C20.2099 22.025 20.0959 21.756 20.0959 21.678C20.0986 21.6144 20.1165 21.5524 20.1479 21.497C20.1639 21.4343 20.1996 21.3784 20.2499 21.3377C20.3002 21.297 20.3623 21.2736 20.4269 21.271Z" fill="#F8F6DE"/>
<path fill-rule="evenodd" clip-rule="evenodd" d="M18.4079 21.3899C18.1846 21.5019 18.0017 21.6809 17.8849 21.9019C17.7675 22.1579 17.7325 22.4441 17.7849 22.7209C17.8365 22.9203 17.9185 23.1105 18.0279 23.2849C18.0604 23.3364 18.1044 23.3795 18.1565 23.411C18.2086 23.4424 18.2673 23.4612 18.3279 23.4659C18.3995 23.4273 18.461 23.3726 18.5077 23.3062C18.5544 23.2397 18.5849 23.1632 18.5969 23.0829C18.5876 22.7241 18.6491 22.3669 18.7779 22.0319C18.9279 21.7109 18.4159 21.3899 18.4159 21.3899H18.4079Z" fill="#D4C38B"/>
<path fill-rule="evenodd" clip-rule="evenodd" d="M18.46 21.3641C18.398 21.4001 18.294 21.4521 18.32 21.5191C18.346 21.5861 18.563 21.6191 18.641 21.7731C18.7126 21.8934 18.7348 22.0368 18.703 22.1731C18.7706 22.1408 18.8319 22.0968 18.884 22.0431C18.998 21.9141 19.138 21.7381 19.257 21.7381C19.335 21.7381 19.412 21.7741 19.485 21.7741C19.599 21.7741 19.713 21.7381 19.728 21.6191C19.754 21.4641 19.511 21.3191 19.371 21.3501C19.3967 21.2917 19.4055 21.2273 19.3963 21.1641C19.3871 21.101 19.3603 21.0417 19.319 20.9931C19.205 20.8931 18.848 21.0711 18.77 21.1231C18.692 21.1751 18.459 21.3661 18.459 21.3661L18.46 21.3641Z" fill="#E2D59D"/>
<path fill-rule="evenodd" clip-rule="evenodd" d="M26.687 32.2431L27.4529 32.0171L27.67 32.1721C27.67 32.1721 27.825 32.5031 28.07 32.5451C27.992 32.7111 27.79 32.8521 27.801 32.9701C27.8145 33.05 27.8547 33.1229 27.915 33.1771C27.7244 33.5735 27.6872 34.0264 27.8106 34.4486C27.9339 34.8709 28.209 35.2325 28.583 35.4641C28.262 35.5931 27.853 35.7711 27.635 35.8741C27.8568 35.9075 28.0696 35.985 28.261 36.1021C28.401 36.2281 28.401 36.2681 28.53 36.3451C28.659 36.4221 28.737 36.5261 28.711 36.5731C28.623 36.5211 28.3279 36.3661 28.2759 36.5111C28.2239 36.6561 27 36.6001 27 36.6001L24.929 37.0001C24.9488 36.9271 24.9461 36.8498 24.9211 36.7783C24.8961 36.7069 24.85 36.6448 24.7889 36.6001C24.5349 36.3721 24.225 36.6101 23.889 36.3571C23.454 36.0261 23.438 35.6421 23.299 35.4981C23.64 35.3195 24.0148 35.2149 24.399 35.1911C24.3662 35.1402 24.3438 35.0834 24.3331 35.0238C24.3225 34.9642 24.3238 34.9032 24.337 34.8441C24.399 34.6631 24.658 34.5441 24.58 34.3321C24.694 34.3061 24.746 34.3061 25.031 33.9491C25.3 33.5921 25.466 33.5141 25.673 33.4881C25.811 33.4844 25.9465 33.4506 26.07 33.3889C26.1936 33.3272 26.3021 33.2392 26.388 33.1311C26.657 32.8771 26.569 32.6601 26.569 32.6601C26.569 32.6601 26.745 32.6031 26.683 32.2461L26.687 32.2431Z" fill="#CBAC5A"/>
<path fill-rule="evenodd" clip-rule="evenodd" d="M24.425 32.3581C24.435 32.3061 24.477 32.2801 24.756 32.3061C25.035 32.3321 26.806 32.1401 27.288 32.1151C28.3024 32.0732 29.3184 32.1288 30.322 32.2811C31.156 32.4571 32 32.6641 32.409 32.7681C32.818 32.8721 32.948 32.9231 32.932 32.9751C32.919 33.0044 32.8969 33.0288 32.869 33.0446C32.8411 33.0604 32.8089 33.0669 32.777 33.0631C32.725 33.0531 31.369 32.6381 30.95 32.5511C30.0725 32.3769 29.1822 32.2742 28.288 32.2441C27.7333 32.2317 27.1783 32.2524 26.626 32.3061C25.9728 32.4015 25.3133 32.4483 24.653 32.4461C24.346 32.4101 24.409 32.4101 24.425 32.3581Z" fill="#D6BC6F"/>
<path fill-rule="evenodd" clip-rule="evenodd" d="M28.593 36.4171C29.1676 36.727 29.6623 37.1663 30.038 37.7001C30.0799 37.7619 30.1088 37.8315 30.1231 37.9047C30.1374 37.978 30.1368 38.0534 30.1213 38.1264C30.1058 38.1994 30.0757 38.2685 30.0329 38.3296C29.9901 38.3907 29.9354 38.4426 29.872 38.4821C29.872 38.4821 30.472 38.4821 30.395 38.8131C29.9059 39.278 29.3276 39.639 28.695 39.8741C28.391 40.0457 28.0571 40.1581 27.711 40.2051C27.39 40.2571 26.511 40.1051 26.328 40.3601C26.2638 40.4382 26.2245 40.5338 26.2152 40.6346C26.2059 40.7353 26.2271 40.8365 26.276 40.9251C26.4304 40.9672 26.5879 40.9967 26.747 41.0131C26.747 41.0131 26.659 41.2561 25.789 41.2821C24.919 41.3081 24.702 41.3701 24.65 41.4631C24.598 41.5561 24.816 41.4991 25.215 41.5631C25.614 41.6271 26.173 41.6631 26.173 41.6631C25.9769 41.7996 25.7551 41.8948 25.521 41.9431C24.9655 42.0419 24.4185 42.184 23.885 42.3681C24.009 42.465 24.1473 42.5419 24.295 42.5961C24.0959 42.6422 23.9029 42.7117 23.72 42.8031C23.797 42.8551 23.901 42.9171 23.901 42.9171C23.7014 43.1644 23.4697 43.3839 23.212 43.5701C22.5284 43.9473 21.7737 44.1782 20.996 44.2481C19.743 43.9171 19.588 42.5481 19.282 42.4411C18.821 42.2861 18.604 42.5961 18.195 42.3791C18.3409 42.2639 18.4988 42.165 18.666 42.0841C18.459 41.9841 17.387 41.3021 17.387 41.3021C17.2749 41.0579 17.1504 40.8196 17.014 40.5881C16.807 40.2311 16.502 39.7541 16.273 39.3351C16.0141 38.6802 15.688 38.0538 15.3 37.4661C15.378 37.3661 15.647 37.3781 15.647 37.3781L19.422 38.6211L26.116 38.8151L27.857 36.3301L28.597 36.4181L28.593 36.4171Z" fill="#DFC677"/>
<path fill-rule="evenodd" clip-rule="evenodd" d="M18.677 40.2071C18.7175 40.2521 18.7648 40.2906 18.817 40.3211C18.9829 40.415 19.1347 40.5318 19.268 40.6681C19.32 40.5911 19.449 40.4511 19.678 40.6681C19.907 40.8851 20.19 40.7301 20.366 40.7821C20.542 40.8341 20.557 40.8701 20.557 40.8701C20.658 40.794 20.7695 40.733 20.888 40.6891C21.028 40.6371 21.193 40.6011 21.375 40.5491C21.5291 40.506 21.6867 40.4765 21.846 40.4611C21.96 40.5381 22.369 40.9731 24.01 40.3321C25.558 39.7321 25.915 39.6641 26.174 39.7571C26.2 39.6951 26.226 39.5761 26.625 39.5911C26.5469 39.3344 26.4357 39.089 26.294 38.8611L24.466 38.2351H23.466L20.466 38.7841L18.805 39.7321L18.676 40.2101L18.677 40.2071Z" fill="#C4A859"/>
<path fill-rule="evenodd" clip-rule="evenodd" d="M17.678 39.1559C17.7475 39.3991 17.9094 39.6054 18.129 39.7309C18.3292 39.8623 18.5103 40.0208 18.667 40.2019C18.667 40.2019 18.745 40.1019 18.807 39.9949C18.869 39.8879 18.921 39.7519 19.024 39.7149C19.231 39.6269 19.702 39.7919 19.806 39.7669C19.894 39.7409 19.868 39.5599 19.961 39.5599C20.178 39.5489 20.318 39.6999 20.396 39.6999C20.474 39.6999 20.665 39.6899 20.691 39.6479C20.717 39.6059 20.727 39.1769 21.022 38.9689C21.1421 38.8908 21.2794 38.843 21.422 38.8296C21.5647 38.8162 21.7084 38.8375 21.841 38.8919C21.841 38.9689 21.851 39.1609 22.058 39.1719C22.1957 39.1568 22.335 39.1691 22.468 39.2079C22.65 39.2699 22.868 39.1979 22.968 39.5029C23.056 39.4769 23.268 39.4509 23.211 39.1559C23.3755 39.0399 23.5149 38.8919 23.621 38.7209C23.673 38.6439 23.761 38.5549 23.828 38.4409C23.9516 38.424 24.0774 38.4346 24.1964 38.4722C24.3153 38.5097 24.4245 38.5731 24.516 38.6579C24.428 38.7199 24.376 38.7579 24.35 38.8239C24.4258 38.8988 24.4951 38.9801 24.557 39.0669C24.635 39.1669 24.687 39.2949 24.785 39.3209C25.1091 39.3393 25.4339 39.3393 25.758 39.3209C26.055 39.3403 26.3436 39.4272 26.602 39.5749C26.654 39.5489 26.654 39.5389 26.783 39.5649C26.912 39.5909 27.011 39.6009 26.871 39.4359C26.948 39.4719 27.037 39.5499 27.114 39.4719C27.1547 39.4125 27.2076 39.3624 27.2692 39.325C27.3307 39.2876 27.3995 39.2637 27.471 39.2549C27.688 39.2289 27.771 39.2649 27.854 39.0379C27.968 38.7579 27.574 38.7579 27.574 38.7579C27.574 38.7579 27.755 38.5919 27.957 38.3749C28.2409 38.1484 28.4471 37.839 28.547 37.4899C28.5659 37.4045 28.5667 37.3161 28.5493 37.2304C28.5319 37.1447 28.4967 37.0636 28.446 36.9923C28.3953 36.9211 28.3302 36.8612 28.2549 36.8167C28.1797 36.7722 28.0959 36.744 28.009 36.7339L24.845 37.7069L20.977 37.5149L17.678 39.1559Z" fill="#927D49"/>
<path fill-rule="evenodd" clip-rule="evenodd" d="M14.835 30.017C14.7495 30.1486 14.6929 30.2969 14.669 30.452C14.606 30.757 14.633 30.721 14.581 30.939C14.529 31.157 13.892 33.321 14.131 34.051C14.37 34.781 14.784 35.051 15.042 35.641C15.093 35.7446 15.1361 35.8519 15.171 35.962C15.259 36.345 15.182 36.64 15.285 37.024C15.3416 37.187 15.4334 37.3355 15.554 37.459C15.861 37.78 16.362 38.085 16.578 38.303C16.883 38.624 17.318 39.277 17.872 39.339C18.2476 39.3498 18.6177 39.247 18.934 39.044C19.1949 38.8237 19.4683 38.6187 19.753 38.43C19.9734 38.3342 20.2043 38.2647 20.441 38.223C20.8016 38.1405 21.1741 38.1229 21.541 38.171C22.1106 38.335 22.693 38.4511 23.282 38.518C23.6632 38.512 24.0422 38.4599 24.411 38.363C25.151 38.146 26.047 37.772 26.638 37.607C26.985 37.507 27.264 37.478 27.549 37.416C27.9772 37.357 28.374 37.1584 28.678 36.851C28.523 36.67 28.331 36.39 27.295 36.4C26.2069 36.5638 25.1359 36.8255 24.095 37.182C23.5348 37.3406 22.9383 37.3132 22.395 37.104C21.664 36.832 21.64 36.652 21.64 36.652C21.0686 36.1608 20.684 35.4877 20.551 34.746C20.3861 34.1691 20.3764 33.5589 20.5229 32.977C20.6693 32.3951 20.9667 31.8622 21.385 31.432C21.4465 31.3733 21.4935 31.3011 21.5224 31.2211C21.5512 31.1411 21.561 31.0555 21.551 30.971C21.8562 30.5585 21.9986 30.0479 21.951 29.537C21.785 28.848 20.724 28.988 20.724 28.988L14.837 30.018L14.835 30.017Z" fill="#6E6342"/>
<path fill-rule="evenodd" clip-rule="evenodd" d="M15.72 32.321C15.6743 32.407 15.6529 32.5038 15.658 32.601C15.668 32.741 15.71 32.922 16.129 33.331C16.2316 33.4263 16.3104 33.5444 16.359 33.6757C16.4077 33.807 16.4248 33.9479 16.409 34.087C16.6449 34.0845 16.8757 34.0181 17.077 33.895C17.46 33.714 17.589 34.035 17.589 34.035C17.7004 33.9766 17.8212 33.938 17.946 33.921C18.0589 33.9114 18.1685 33.8773 18.267 33.821C18.5207 34.0794 18.804 34.3069 19.111 34.499C19.468 34.691 19.676 34.82 19.852 34.691C19.9141 34.6353 19.9609 34.5646 19.988 34.4857C20.0152 34.4067 20.0217 34.3222 20.007 34.24C19.9659 34.1447 19.9138 34.0544 19.852 33.971C19.738 33.805 19.552 33.614 19.545 33.459C19.519 33.102 19.814 32.677 19.752 32.574C19.69 32.471 19.457 32.445 18.882 32.652C17.8179 32.6738 16.7552 32.5643 15.718 32.326L15.72 32.321Z" fill="#39331F"/>
<path fill-rule="evenodd" clip-rule="evenodd" d="M17.077 34.636C17.077 34.636 16.782 34.356 16.886 33C17.0113 32.998 17.1364 33.0101 17.259 33.036C17.3485 33.5758 17.2854 34.13 17.077 34.636Z" fill="#292311"/>
<path fill-rule="evenodd" clip-rule="evenodd" d="M14.975 28.9809C15.0161 28.9512 15.0542 28.9178 15.089 28.8809C14.901 29.2058 14.7864 29.5678 14.7532 29.9417C14.7201 30.3155 14.7691 30.6921 14.897 31.0449C15.0462 31.6194 15.3698 32.1334 15.8233 32.5163C16.2767 32.8992 16.8377 33.1321 17.429 33.1829C17.9358 33.1891 18.4353 33.0623 18.8778 32.8153C19.3203 32.5682 19.6903 32.2095 19.951 31.7749C20.231 31.4279 20.551 30.9929 20.836 30.6979C21.261 30.2369 21.592 30.1069 21.592 29.6619C21.592 28.7509 20.66 28.3409 19.292 27.9319C18.2439 27.5609 17.1049 27.5332 16.04 27.8529C15.7893 27.9487 15.5634 28.1001 15.3795 28.2956C15.1956 28.4911 15.0583 28.7258 14.978 28.9819L14.975 28.9809Z" fill="#252211"/>
<path fill-rule="evenodd" clip-rule="evenodd" d="M19.3811 35.045L19.4811 34.993C19.4811 34.993 19.5071 34.583 19.6721 34.593C19.7403 34.6135 19.7998 34.6563 19.841 34.7144C19.8823 34.7725 19.9031 34.8427 19.9001 34.914C19.9001 34.9413 19.8944 34.9684 19.8831 34.9934C19.8719 35.0183 19.8555 35.0406 19.8349 35.0587C19.8144 35.0768 19.7902 35.0903 19.764 35.0983C19.7378 35.1062 19.7102 35.1085 19.6831 35.105C19.5774 35.1166 19.4708 35.095 19.3781 35.043L19.3811 35.045Z" fill="#3F3824"/>
<path fill-rule="evenodd" clip-rule="evenodd" d="M18.92 33.3C18.92 33.3 19.02 33.264 19.148 33.388C19.3779 33.3569 19.6116 33.3691 19.837 33.424C19.9097 33.4642 19.9717 33.5211 20.018 33.59C19.7522 33.6513 19.4759 33.6513 19.21 33.59C18.92 33.5 18.92 33.3 18.92 33.3Z" fill="#2D2815"/>
<path fill-rule="evenodd" clip-rule="evenodd" d="M21.225 33.382C21.0601 33.2416 20.8623 33.1453 20.65 33.102C20.598 33.092 20.588 33.128 20.55 33.128C20.512 33.128 20.514 33.04 20.514 33.04L20.346 33.128C20.346 33.128 20.32 33.164 20.408 33.228C20.496 33.292 20.615 33.342 20.651 33.445C20.6635 33.4982 20.6809 33.5501 20.703 33.6C20.7993 33.6074 20.8958 33.5895 20.983 33.548C21.071 33.496 21.237 33.411 21.226 33.377L21.225 33.382Z" fill="#82764F"/>
<path fill-rule="evenodd" clip-rule="evenodd" d="M18.61 34.4339C18.6241 34.3354 18.6715 34.2447 18.7442 34.1769C18.817 34.109 18.9108 34.0681 19.01 34.0609C19.1079 34.0529 19.2053 34.0812 19.2837 34.1404C19.3621 34.1996 19.4159 34.2855 19.435 34.3819L19.228 34.5889C19.228 34.5839 19.073 34.3659 18.614 34.4339H18.61Z" fill="#2D2816"/>
<path fill-rule="evenodd" clip-rule="evenodd" d="M20.862 32.9C20.6904 33.0528 20.4747 33.147 20.246 33.169C20.2072 33.1246 20.1858 33.0675 20.1858 33.0085C20.1858 32.9495 20.2072 32.8925 20.246 32.848C20.36 32.682 20.489 32.631 20.619 32.682C20.6762 32.691 20.7296 32.7164 20.7728 32.7551C20.8159 32.7938 20.8469 32.8441 20.862 32.9Z" fill="#574F35"/>
<path fill-rule="evenodd" clip-rule="evenodd" d="M21.644 33.1499C21.655 33.0979 21.618 33.0879 21.644 33.0619C21.67 33.0359 21.81 32.9849 21.836 33.0099C21.846 33.0209 21.836 33.0619 21.836 33.1099C21.8414 33.1582 21.8323 33.2069 21.81 33.2499C21.7859 33.2755 21.7558 33.2945 21.7224 33.3054C21.6891 33.3162 21.6535 33.3185 21.619 33.3119C21.567 33.2969 21.557 33.2239 21.557 33.2119C21.582 33.1999 21.644 33.1759 21.644 33.1499ZM22.528 32.5909C22.528 32.5649 22.616 32.5129 22.668 32.5129C22.745 32.5129 22.745 32.5749 22.756 32.5909C22.782 32.6009 22.782 32.5799 22.808 32.6269C22.834 32.6739 22.87 32.7559 22.844 32.8079C22.8262 32.8322 22.8028 32.8518 22.7758 32.8652C22.7489 32.8786 22.7191 32.8854 22.689 32.8849C22.6236 32.7938 22.5695 32.6951 22.528 32.5909Z" fill="#82764F"/>
<path fill-rule="evenodd" clip-rule="evenodd" d="M20.7479 33.2691C20.8478 33.3006 20.9396 33.3535 21.0169 33.4241C20.9649 33.4601 20.8869 33.5011 20.8869 33.5011C20.8699 33.4091 20.8202 33.3263 20.7469 33.2681L20.7479 33.2691Z" fill="#6E6342"/>
<path fill-rule="evenodd" clip-rule="evenodd" d="M20.495 32.129C20.469 32.103 20.572 32.041 20.635 32.052C20.698 32.063 20.723 32.104 20.79 32.114C20.857 32.124 20.868 32.088 20.89 32.062C20.912 32.036 21.004 32.052 21.019 32.062C21.0286 32.0733 21.0373 32.0854 21.045 32.098C21.0471 32.0788 21.053 32.0602 21.0625 32.0434C21.0719 32.0265 21.0847 32.0118 21.1 32C21.1199 31.9854 21.1428 31.9754 21.167 31.9709C21.1913 31.9664 21.2162 31.9675 21.24 31.974C21.2655 32.0352 21.283 32.0994 21.292 32.165C21.282 32.191 21.126 32.227 21.1 32.201C21.1464 32.277 21.1982 32.3495 21.255 32.418C21.27 32.444 21.141 32.506 21.089 32.496C20.8703 32.4096 20.6675 32.2872 20.489 32.134L20.495 32.129ZM21.173 31.27C21.1634 31.244 21.145 31.222 21.121 31.208C21.085 31.198 20.966 31.208 20.966 31.27C21.0054 31.4776 21.0787 31.6773 21.183 31.861C21.313 32.042 21.4 32.192 21.488 32.234C21.5156 32.2465 21.547 32.2481 21.5757 32.2385C21.6045 32.2289 21.6285 32.2087 21.643 32.182C21.6755 31.9609 21.6842 31.737 21.669 31.514C21.6743 31.2095 21.6569 30.905 21.617 30.603C21.5903 30.5885 21.5596 30.5831 21.5296 30.5878C21.4996 30.5925 21.472 30.607 21.451 30.629C21.3423 30.836 21.2487 31.0505 21.171 31.271L21.173 31.27Z" fill="#585136"/>
<path fill-rule="evenodd" clip-rule="evenodd" d="M20.712 33.9211C20.6589 33.889 20.5993 33.8692 20.5375 33.863C20.4758 33.8567 20.4134 33.8643 20.355 33.8851C20.189 33.9631 20.2 34.2681 20.2 34.2681C20.2372 34.2827 20.2775 34.288 20.3172 34.2834C20.357 34.2789 20.395 34.2647 20.428 34.2421C20.5543 34.1676 20.6529 34.0553 20.712 33.9211Z" fill="#574F35"/>
<path fill-rule="evenodd" clip-rule="evenodd" d="M21.054 34.3299C21.044 34.2299 20.954 34.2299 20.954 34.1749C20.9603 34.1495 20.975 34.127 20.9957 34.1111C21.0164 34.0951 21.0418 34.0866 21.068 34.0869C21.12 34.0869 21.168 34.1489 21.234 34.1869C21.3 34.2249 21.389 34.2869 21.4 34.3679C21.411 34.4489 21.3 34.6629 21.172 34.6629C21.044 34.6629 21.084 34.4299 21.058 34.3259L21.054 34.3299ZM22.054 34.1899C22.054 34.1899 21.847 34.2519 21.862 34.1899C21.877 34.1279 21.924 34.1129 21.992 34.1129C22.0259 34.077 22.0718 34.0549 22.121 34.0509C22.149 34.0496 22.1765 34.0589 22.198 34.0769C22.198 34.0769 22.338 34.0149 22.379 34.0509C22.42 34.0869 22.39 34.0869 22.415 34.1289C22.4474 34.1751 22.4686 34.2281 22.477 34.2839C22.477 34.3249 22.322 34.4129 22.197 34.3979C22.053 34.3659 22.079 34.2159 22.053 34.1899H22.054ZM23.26 33.9569C23.26 33.9569 23.322 33.9929 23.271 34.0349C23.1573 34.1015 23.0295 34.1406 22.898 34.1489C22.743 34.1489 22.603 34.1749 22.603 34.1229C22.603 34.0709 22.732 33.9679 22.81 33.9419C22.8256 33.9224 22.8453 33.9067 22.8679 33.896C22.8904 33.8852 22.915 33.8797 22.94 33.8799C23.002 33.8799 23.245 33.8539 23.313 33.8439C23.381 33.8339 23.427 33.8699 23.39 33.9209C23.375 33.9569 23.26 33.9569 23.26 33.9569ZM23.617 32.3569C23.617 32.3569 23.539 32.5229 23.451 32.5229C23.363 32.5229 23.363 32.4869 23.363 32.4609C23.363 32.4349 23.451 32.3319 23.44 32.3059C23.414 32.3059 23.352 32.3059 23.363 32.2439C23.374 32.1819 23.451 32.1299 23.529 32.1439C23.5875 32.096 23.6603 32.0689 23.736 32.0669C23.824 32.0669 23.902 32.0929 23.902 32.1439C23.902 32.1949 23.802 32.3099 23.762 32.3359C23.721 32.3769 23.669 32.4039 23.617 32.3619V32.3569ZM22.436 35.4169C22.436 35.4169 22.336 35.4279 22.336 35.4789C22.336 35.5049 22.362 35.5049 22.398 35.4899C22.419 35.4886 22.4398 35.4849 22.46 35.4789C22.47 35.4899 22.47 35.5409 22.548 35.5409C22.6118 35.5323 22.6733 35.5112 22.729 35.4789C22.791 35.4529 22.843 35.4269 22.843 35.3789C22.8372 35.3422 22.8183 35.3088 22.7898 35.2849C22.7613 35.261 22.7252 35.2482 22.688 35.2489C22.6483 35.2464 22.6087 35.2554 22.574 35.2749C22.574 35.2749 22.548 35.2229 22.46 35.2749C22.372 35.3269 22.382 35.3269 22.408 35.3529C22.454 35.3939 22.439 35.4209 22.439 35.4209L22.436 35.4169ZM21.851 35.9559C21.851 35.9299 21.98 35.8779 22.017 35.8939C22.0787 35.9595 22.1264 36.0371 22.157 36.1219C22.157 36.1479 22.028 36.2099 21.976 36.2099C21.9186 36.195 21.8687 36.1594 21.836 36.1099C21.836 36.0999 21.898 36.0839 21.898 36.0739C21.913 36.0479 21.852 35.9859 21.852 35.9599L21.851 35.9559ZM21.441 35.1999C21.467 35.1899 21.467 35.1639 21.503 35.1379C21.5143 35.1304 21.5273 35.1255 21.5408 35.1238C21.5543 35.1221 21.5681 35.1235 21.581 35.1279C21.5902 35.1117 21.6028 35.0977 21.618 35.087C21.6332 35.0763 21.6506 35.0691 21.669 35.0659C21.731 35.0559 21.783 35.0659 21.769 35.0919C21.769 35.1699 21.821 35.2209 21.821 35.2829C21.821 35.3449 21.785 35.4229 21.655 35.4749C21.5472 35.5036 21.435 35.5125 21.324 35.5009C21.3057 35.4778 21.2937 35.4504 21.2892 35.4213C21.2846 35.3922 21.2877 35.3625 21.298 35.3349C21.3338 35.2802 21.3817 35.2343 21.438 35.2009L21.441 35.1999Z" fill="#82764F"/>
<path fill-rule="evenodd" clip-rule="evenodd" d="M21.606 35.2361C21.606 35.2361 21.518 35.2881 21.518 35.3141C21.5103 35.339 21.5069 35.365 21.508 35.3911C21.508 35.4061 21.622 35.3811 21.637 35.3651C21.652 35.3491 21.606 35.2631 21.606 35.2361Z" fill="#6E6342"/>
<path fill-rule="evenodd" clip-rule="evenodd" d="M20.836 34.993C20.9056 34.995 20.975 35.0037 21.043 35.019C21.095 35.045 21.131 35.097 21.079 35.159C21.027 35.221 20.979 35.314 20.862 35.299C20.745 35.284 20.608 35.222 20.608 35.17C20.6058 35.1372 20.6102 35.1044 20.6208 35.0733C20.6314 35.0422 20.6482 35.0136 20.67 34.989C20.722 34.948 20.747 34.973 20.836 34.993Z" fill="#585136"/>
<path fill-rule="evenodd" clip-rule="evenodd" d="M20.774 35.0449C20.699 35.1021 20.6297 35.1664 20.567 35.2369C20.515 35.2989 20.262 35.6199 20.184 35.6869C20.2099 35.6416 20.2393 35.5985 20.272 35.5579C20.1697 35.6236 20.0931 35.7225 20.055 35.8379C19.993 36.0299 20.402 36.1379 20.671 36.2109C20.94 36.2839 21.044 36.3109 21.044 36.3109C20.945 36.1621 20.8599 36.0044 20.79 35.8399C20.69 35.5969 20.635 35.5709 20.702 35.4569C20.754 35.3429 20.832 35.2659 20.832 35.1769C20.8 35.0999 20.774 35.0449 20.774 35.0449Z" fill="#574F35"/>
<path fill-rule="evenodd" clip-rule="evenodd" d="M14.871 35.4541C14.9087 35.461 14.9473 35.461 14.985 35.4541C15.5435 35.2738 16.1282 35.1879 16.715 35.2001C17.3468 35.2382 17.9731 35.3411 18.584 35.5071C19.646 35.7871 20.966 36.3411 21.82 36.6571C22.048 36.7451 22.271 36.9001 22.434 36.9621C22.7709 37.119 23.1285 37.2271 23.496 37.2831C23.9678 37.2991 24.4389 37.2345 24.889 37.0921C25.479 36.9621 26.489 36.9001 27.374 36.7711C27.6602 36.7316 27.9426 36.6677 28.218 36.5801C27.5327 37.1287 26.7004 37.462 25.826 37.5381C25.1435 37.6418 24.4499 37.6505 23.765 37.5641C23.371 37.5319 22.9809 37.4626 22.6 37.3571C22.295 37.2691 21.668 37.0361 20.9 36.8451C20.361 36.7051 19.761 36.6021 19.072 36.4721C17.6416 36.2749 16.2346 35.9348 14.872 35.4571L14.871 35.4541Z" fill="#252211"/>
<path fill-rule="evenodd" clip-rule="evenodd" d="M12.966 32.2539C12.556 32.6009 12.122 32.9319 11.698 33.2539L10.419 34.2369C9.98397 34.5579 9.55997 34.8889 9.12397 35.2099C8.68797 35.5309 8.25397 35.8359 7.79297 36.1319C8.20297 35.7849 8.63697 35.4639 9.07197 35.1479C9.50697 34.8319 9.95797 34.5229 10.377 34.2029L11.656 33.2189C12.096 32.8979 12.521 32.5669 12.966 32.2559V32.2539ZM10.7 35.8789C10.7 35.8789 11.161 35.4959 11.736 34.9569C12.3268 34.363 12.9508 33.8031 13.605 33.2799L10.7 35.8789Z" fill="#CFB66C"/>
<path fill-rule="evenodd" clip-rule="evenodd" d="M10.7 35.8779C10.928 35.6499 11.171 35.4279 11.415 35.2099L11.788 34.889C11.902 34.789 12.032 34.6719 12.145 34.5579C12.373 34.3299 12.596 34.087 12.823 33.858C12.9357 33.741 13.0549 33.6305 13.18 33.527C13.2426 33.4715 13.3122 33.4245 13.387 33.387C13.4508 33.3345 13.5246 33.2957 13.604 33.2729C13.552 33.3509 13.49 33.3869 13.438 33.4539C13.376 33.5059 13.324 33.5679 13.272 33.6199C13.158 33.7339 13.029 33.837 12.915 33.941C12.672 34.148 12.415 34.351 12.175 34.567C11.935 34.783 11.704 35.018 11.46 35.235C11.196 35.458 10.953 35.6749 10.699 35.8839L10.7 35.8779ZM13.8 33.8069C13.8 33.8069 12.112 35.459 11.765 35.728L13.8 33.8069Z" fill="#CFB66C"/>
<path fill-rule="evenodd" clip-rule="evenodd" d="M13.8 33.8069C13.6484 33.9837 13.4857 34.1507 13.313 34.3069L12.801 34.7939C12.635 34.9599 12.48 35.1249 12.301 35.2939C12.122 35.4629 11.954 35.6009 11.762 35.7449L12.262 35.2579C12.428 35.0919 12.609 34.9529 12.785 34.7869L13.285 34.2999C13.452 34.1229 13.618 33.9569 13.8 33.8069ZM13.877 34.7069C13.7213 35.1412 13.538 35.5651 13.328 35.9759C12.893 36.8459 12.241 37.9329 11.956 38.4879L13.877 34.7069Z" fill="#CFB66C"/>
<path fill-rule="evenodd" clip-rule="evenodd" d="M13.8771 34.7C13.8718 34.8798 13.8331 35.0572 13.7631 35.2229C13.7025 35.3887 13.6334 35.5513 13.5561 35.7099C13.4781 35.8649 13.3901 36.031 13.3021 36.181C13.2141 36.331 13.1111 36.4859 13.0331 36.6419L12.5101 37.5639C12.3291 37.8709 12.1531 38.1799 11.9611 38.4749C12.0981 38.1494 12.2554 37.8328 12.4321 37.527C12.6131 37.22 12.7791 36.913 12.9441 36.595C13.0246 36.4367 13.097 36.2745 13.1611 36.109C13.2381 35.943 13.3161 35.788 13.3781 35.638C13.4551 35.472 13.5181 35.317 13.5951 35.167C13.6743 35.0036 13.768 34.8476 13.8751 34.701L13.8771 34.7Z" fill="#CFB66C"/>
<path fill-rule="evenodd" clip-rule="evenodd" d="M15.72 38.949C15.4056 39.399 15.244 39.9382 15.259 40.487C15.4 40.036 15.575 39.348 15.72 38.949ZM16.207 39.629C16.207 39.629 16.026 41.472 15.876 42.378C16.1007 41.479 16.2119 40.5555 16.207 39.629ZM19.6 42.487C19.2661 43.4252 19.0047 44.3877 18.818 45.366C18.984 44.722 19.305 43.407 19.6 42.485V42.487Z" fill="#DEC270"/>
<path fill-rule="evenodd" clip-rule="evenodd" d="M21.39 38.8101C21.39 38.8101 22.633 40.8601 23.565 42.6101C23.1791 41.1773 22.4299 39.8685 21.39 38.8101Z" fill="#CBAF59"/>
<path fill-rule="evenodd" clip-rule="evenodd" d="M24.73 41.8279C25.4123 43.0341 26.0275 44.277 26.573 45.5509C26.4498 44.122 25.7916 42.7923 24.73 41.8279Z" fill="#E3C677"/>
<path fill-rule="evenodd" clip-rule="evenodd" d="M34.548 44.8509C34.755 44.7219 35.164 44.0169 35.521 43.8409C35.8768 43.7242 36.2011 43.5275 36.469 43.2659C36.7338 42.8543 37.124 42.5388 37.582 42.3659C38.566 41.9409 37.889 41.3919 37.889 41.3919C37.9974 41.2854 38.1134 41.1868 38.236 41.0969C38.3888 41.0162 38.5177 40.8966 38.6095 40.7501C38.7013 40.6037 38.7529 40.4356 38.759 40.2629C38.7767 39.448 38.5196 38.6508 38.029 37.9999C38.578 37.8859 39.629 37.8089 40.282 37.6429C40.6741 37.5591 41.0472 37.4027 41.382 37.1819C41.2598 36.9385 41.2199 36.662 41.2684 36.394C41.3169 36.126 41.4512 35.881 41.651 35.6959C42.3179 35.1119 42.8913 34.4289 43.351 33.6709C42.2941 33.4625 41.1982 33.6028 40.228 34.0709C40.3318 34.1189 40.4321 34.1744 40.528 34.2369C39.9673 34.3833 39.4314 34.6121 38.938 34.9159C38.197 35.5419 38.1039 36.0549 37.3019 36.4379C36.4999 36.8209 35.6919 36.7179 35.0239 37.0279C34.6648 37.2226 34.3263 37.4535 34.014 37.7169C34.066 37.7789 34.004 37.8829 34.102 37.9709C34.04 38.0589 33.677 38.6489 33.31 38.6489C33.346 38.7889 33.657 38.8919 33.657 38.8919C33.4095 39.0281 33.1315 39.0993 32.849 39.0989C33.2401 39.5405 33.6956 39.9208 34.2 40.2269C34.138 40.3559 33.879 40.5479 33.983 40.7919C34.087 41.0359 34.393 41.3669 35.573 41.6359C34.8255 41.7292 34.07 41.7413 33.32 41.6719C32.7674 41.531 32.19 41.5187 31.632 41.6359C31.694 41.6979 31.86 41.6979 32.005 41.8639C31.85 41.8739 30.876 41.7499 30.545 42.1849C30.2129 42.6833 30.0479 43.2745 30.074 43.8729C30.0191 43.8922 29.9685 43.9221 29.9253 43.961C29.882 43.9998 29.8469 44.0469 29.8219 44.0994C29.7969 44.1519 29.7825 44.2089 29.7796 44.267C29.7767 44.325 29.7853 44.3831 29.805 44.4379C29.893 44.7589 30.354 44.8629 30.649 45.0639C30.944 45.2809 30.97 45.3589 31.249 45.3069C31.544 45.2449 31.979 44.9499 32.233 44.9499C32.3966 44.9574 32.5516 45.0255 32.668 45.1409C32.668 45.1409 33.357 44.8099 33.424 44.8719C33.491 44.9339 33.434 45.3329 33.501 45.3949C33.8717 45.2562 34.2246 45.0735 34.5519 44.8509H34.548Z" fill="#ECD592"/>
<path fill-rule="evenodd" clip-rule="evenodd" d="M49.5999 24.1301C48.6561 21.7006 47.143 19.5331 45.1879 17.8096C43.2328 16.0861 40.8926 14.8568 38.3639 14.2251H15.5389L15.6269 22.7381H20.1729V41.7451H15.5389V50.2451H37.7319C43.0809 50.2451 47.3679 44.8701 47.3679 44.8701C54.2339 35.1231 49.5999 24.1301 49.5999 24.1301ZM37.8509 39.1401C37.8509 39.1401 36.1099 41.6521 34.2159 41.6521H30.4269L30.3369 22.7571H35.1999C35.1999 22.7571 37.4529 23.2281 39.0269 27.6861C39.0269 27.6861 41.1129 34.0701 37.8509 39.1401Z" fill="white" fill-opacity="0.8"/>
</g>
</g>
<defs>
<clipPath id="clip0_40_27338">
<rect width="64" height="64" fill="white"/>
</clipPath>
</defs>
</svg>
