<svg width="64" height="64" viewBox="0 0 64 64" fill="none" xmlns="http://www.w3.org/2000/svg">
<g clip-path="url(#clip0_40_30707)">
<path d="M32 64C49.6731 64 64 49.6731 64 32C64 14.3269 49.6731 0 32 0C14.3269 0 0 14.3269 0 32C0 49.6731 14.3269 64 32 64Z" fill="#F5F5F5"/>
<path d="M41.85 25.4499C41.4807 25.2528 41.0686 25.1497 40.65 25.1497C40.2314 25.1497 39.8192 25.2528 39.45 25.4499L33.85 28.7499L30.05 30.8499L24.55 34.1499C24.1807 34.3471 23.7686 34.4502 23.35 34.4502C22.9314 34.4502 22.5192 34.3471 22.15 34.1499L17.85 31.5499C17.4845 31.3346 17.1815 31.0276 16.9711 30.6593C16.7606 30.291 16.6499 29.8741 16.65 29.4499V24.4499C16.6529 24.0263 16.7648 23.6106 16.975 23.2428C17.1851 22.875 17.4865 22.5675 17.85 22.3499L22.15 19.8499C22.5192 19.6528 22.9314 19.5497 23.35 19.5497C23.7686 19.5497 24.1807 19.6528 24.55 19.8499L28.85 22.4499C29.2155 22.6652 29.5184 22.9722 29.7289 23.3405C29.9393 23.7089 30.05 24.1257 30.05 24.5499V27.8499L33.85 25.6499V22.2499C33.8471 21.8263 33.7352 21.4106 33.525 21.0428C33.3148 20.675 33.0135 20.3675 32.65 20.1499L24.65 15.4499C24.2807 15.2528 23.8686 15.1497 23.45 15.1497C23.0314 15.1497 22.6192 15.2528 22.25 15.4499L14.05 20.2499C13.6826 20.4373 13.3753 20.7242 13.1631 21.0778C12.9509 21.4314 12.8424 21.8376 12.85 22.2499V31.6499C12.8529 32.0735 12.9648 32.4893 13.175 32.8571C13.3851 33.2249 13.6865 33.5324 14.05 33.7499L22.15 38.4499C22.5192 38.6471 22.9314 38.7502 23.35 38.7502C23.7686 38.7502 24.1807 38.6471 24.55 38.4499L30.05 35.2499L33.85 33.0499L39.35 29.8499C39.7192 29.6528 40.1314 29.5497 40.55 29.5497C40.9686 29.5497 41.3807 29.6528 41.75 29.8499L46.05 32.3499C46.4155 32.5652 46.7184 32.8722 46.9289 33.2405C47.1393 33.6089 47.25 34.0257 47.25 34.4499V39.4499C47.2471 39.8735 47.1352 40.2893 46.925 40.6571C46.7148 41.0249 46.4135 41.3324 46.05 41.5499L41.85 44.0499C41.4807 44.2471 41.0686 44.3502 40.65 44.3502C40.2314 44.3502 39.8192 44.2471 39.45 44.0499L35.15 41.5499C34.7845 41.3346 34.4815 41.0276 34.2711 40.6593C34.0606 40.291 33.9499 39.8741 33.95 39.4499V36.2499L30.15 38.4499V41.7499C30.1529 42.1735 30.2648 42.5893 30.475 42.9571C30.6851 43.3249 30.9865 43.6324 31.35 43.8499L39.45 48.5499C39.8192 48.7471 40.2314 48.8502 40.65 48.8502C41.0686 48.8502 41.4807 48.7471 41.85 48.5499L49.95 43.8499C50.3155 43.6346 50.6184 43.3276 50.8289 42.9593C51.0393 42.591 51.15 42.1741 51.15 41.7499V32.2499C51.1471 31.8263 51.0352 31.4106 50.825 31.0428C50.6148 30.675 50.3135 30.3675 49.95 30.1499L41.85 25.4499Z" fill="#8247E5"/>
</g>
<defs>
<clipPath id="clip0_40_30707">
<rect width="64" height="64" fill="white"/>
</clipPath>
</defs>
</svg>
