<svg width="64" height="64" viewBox="0 0 64 64" fill="none" xmlns="http://www.w3.org/2000/svg">
<g clip-path="url(#clip0_40_32077)">
<path d="M32 64C49.6731 64 64 49.6731 64 32C64 14.3269 49.6731 0 32 0C14.3269 0 0 14.3269 0 32C0 49.6731 14.3269 64 32 64Z" fill="#F5F5F5"/>
<path d="M19.44 39.6759C19.5531 39.563 19.6873 39.4734 19.8351 39.4123C19.9828 39.3512 20.1411 39.3198 20.301 39.3199H50.001C50.1215 39.3197 50.2393 39.3553 50.3395 39.4221C50.4398 39.489 50.5179 39.5841 50.5639 39.6954C50.61 39.8068 50.622 39.9293 50.5983 40.0474C50.5746 40.1655 50.5164 40.274 50.431 40.3589L44.561 46.2199C44.3325 46.448 44.0228 46.5761 43.7 46.5759H14.004C13.8835 46.5762 13.7657 46.5406 13.6655 46.4737C13.5652 46.4069 13.4871 46.3118 13.441 46.2004C13.395 46.0891 13.383 45.9666 13.4067 45.8485C13.4304 45.7303 13.4886 45.6219 13.574 45.5369L19.44 39.6759Z" fill="url(#paint0_linear_40_32077)"/>
<path d="M19.44 17.774C19.6702 17.5491 19.9782 17.4216 20.3 17.418H50C50.1205 17.4177 50.2383 17.4533 50.3385 17.5202C50.4388 17.587 50.5169 17.6821 50.563 17.7935C50.609 17.9048 50.621 18.0273 50.5973 18.1454C50.5736 18.2636 50.5154 18.372 50.43 18.457L44.561 24.318C44.4479 24.431 44.3136 24.5205 44.1659 24.5816C44.0182 24.6427 43.8599 24.6741 43.7 24.674H14.004C13.8835 24.6742 13.7657 24.6386 13.6655 24.5718C13.5652 24.5049 13.4871 24.4098 13.441 24.2985C13.395 24.1871 13.383 24.0646 13.4067 23.9465C13.4304 23.8284 13.4886 23.7199 13.574 23.635L19.44 17.774Z" fill="url(#paint1_linear_40_32077)"/>
<path d="M44.561 28.6549C44.4479 28.542 44.3136 28.4524 44.1659 28.3913C44.0182 28.3302 43.8599 28.2988 43.7 28.299H14.004C13.8835 28.2987 13.7657 28.3343 13.6655 28.4011C13.5652 28.468 13.4871 28.5631 13.441 28.6744C13.395 28.7858 13.383 28.9083 13.4067 29.0264C13.4304 29.1445 13.4886 29.253 13.574 29.3379L19.44 35.1989C19.5531 35.3119 19.6873 35.4015 19.8351 35.4626C19.9828 35.5237 20.1411 35.5551 20.301 35.5549H50.001C50.1215 35.5552 50.2393 35.5196 50.3395 35.4528C50.4398 35.3859 50.5179 35.2908 50.5639 35.1795C50.61 35.0681 50.622 34.9456 50.5983 34.8275C50.5746 34.7094 50.5164 34.6009 50.431 34.5159L44.561 28.6549Z" fill="url(#paint2_linear_40_32077)"/>
</g>
<defs>
<linearGradient id="paint0_linear_40_32077" x1="47.1491" y1="50.291" x2="46.3604" y2="10.5569" gradientUnits="userSpaceOnUse">
<stop stop-color="#00FFA3"/>
<stop offset="1" stop-color="#DC1FFF"/>
</linearGradient>
<linearGradient id="paint1_linear_40_32077" x1="38.1796" y1="54.9678" x2="37.3908" y2="15.2336" gradientUnits="userSpaceOnUse">
<stop stop-color="#00FFA3"/>
<stop offset="1" stop-color="#DC1FFF"/>
</linearGradient>
<linearGradient id="paint2_linear_40_32077" x1="42.6461" y1="52.6501" x2="41.8574" y2="12.9088" gradientUnits="userSpaceOnUse">
<stop stop-color="#00FFA3"/>
<stop offset="1" stop-color="#DC1FFF"/>
</linearGradient>
<clipPath id="clip0_40_32077">
<rect width="64" height="64" fill="white"/>
</clipPath>
</defs>
</svg>
