<svg width="64" height="64" viewBox="0 0 64 64" fill="none" xmlns="http://www.w3.org/2000/svg">
<g clip-path="url(#clip0_240_132)">
<mask id="mask0_240_132" style="mask-type:luminance" maskUnits="userSpaceOnUse" x="0" y="0" width="64" height="64">
<path d="M32 64C49.6731 64 64 49.6731 64 32C64 14.3269 49.6731 0 32 0C14.3269 0 0 14.3269 0 32C0 49.6731 14.3269 64 32 64Z" fill="white"/>
</mask>
<g mask="url(#mask0_240_132)">
<path d="M0 20L32 16L64 20V44L32 48L0 44V20Z" fill="#0052B4"/>
<path d="M0 0H64V20H0V0Z" fill="#EEEEEE"/>
<path d="M0 44H64V64H0V44Z" fill="#D80027"/>
<path d="M8 7.875V35C8 48 26 52.125 26 52.125C26 52.125 44 48 44 35V7.875H8Z" fill="#EEEEEE"/>
<path d="M12 11.875V35C12.0272 36.4785 12.4119 37.9318 13.125 39.25H38.875C39.5968 37.9323 39.9817 36.478 40 35V11.875H12Z" fill="#D80027"/>
<path d="M36 28H28V24H32V20H28V16H24V20H20V24H24V28H16V32H24V36H28V32H36V28Z" fill="#EEEEEE"/>
<path d="M19 44.8753C21.1903 46.1445 23.542 47.1524 26 47.8753C27.5 47.5003 30.25 46.5003 33 44.8753C35.4794 43.5471 37.5138 41.5993 38.875 39.2503C37.6267 38.4414 36.1446 38.0055 34.625 38.0003L32.875 38.2503C32.2916 37.0013 31.3303 35.9384 30.1091 35.192C28.8879 34.4455 27.4598 34.0479 26 34.0479C24.5402 34.0479 23.1121 34.4455 21.8909 35.192C20.6697 35.9384 19.7084 37.0013 19.125 38.2503C18.5543 38.1028 17.9669 38.0188 17.375 38.0003C15.875 38.0003 14.375 38.5003 13.125 39.2503C14.4862 41.5993 16.5206 43.5471 19 44.8753Z" fill="#0052B4"/>
</g>
</g>
<defs>
<clipPath id="clip0_240_132">
<rect width="64" height="64" fill="white"/>
</clipPath>
</defs>
</svg>
