<svg width="64" height="64" viewBox="0 0 64 64" fill="none" xmlns="http://www.w3.org/2000/svg">
<g clip-path="url(#clip0_514_34)">
<path d="M32 64C49.6731 64 64 49.6731 64 32C64 14.3269 49.6731 0 32 0C14.3269 0 0 14.3269 0 32C0 49.6731 14.3269 64 32 64Z" fill="#FFDA44"/>
<path d="M25.0433 27.8261H63.7288C61.6834 12.1253 48.258 1.15681e-06 31.9996 1.15681e-06C29.66 -0.00062683 27.3273 0.254429 25.0431 0.760626L25.0433 27.8261ZM16.6953 27.826V3.89088C7.90851 8.68513 1.61838 17.479 0.270508 27.8261L16.6953 27.826ZM16.6951 36.1739H0.270508C1.61838 46.521 7.90851 55.3149 16.6953 60.109L16.6951 36.1739ZM25.0431 36.174V63.2394C27.3273 63.7456 29.66 64.0006 31.9996 64C48.258 64 61.6834 51.8747 63.7288 36.1739H25.0431V36.174Z" fill="#0052B4"/>
</g>
<defs>
<clipPath id="clip0_514_34">
<rect width="64" height="64" fill="white"/>
</clipPath>
</defs>
</svg>
