<svg width="64" height="64" viewBox="0 0 64 64" fill="none" xmlns="http://www.w3.org/2000/svg">
<g clip-path="url(#clip0_235_41)">
<mask id="mask0_235_41" style="mask-type:luminance" maskUnits="userSpaceOnUse" x="0" y="0" width="64" height="64">
<path d="M64 0H0V64H64V0Z" fill="white"/>
</mask>
<g mask="url(#mask0_235_41)">
<mask id="mask1_235_41" style="mask-type:luminance" maskUnits="userSpaceOnUse" x="0" y="0" width="64" height="64">
<path d="M64 0H0V64H64V0Z" fill="white"/>
</mask>
<g mask="url(#mask1_235_41)">
<path d="M32 64C49.6731 64 64 49.6731 64 32C64 14.3269 49.6731 0 32 0C14.3269 0 0 14.3269 0 32C0 49.6731 14.3269 64 32 64Z" fill="#D80027"/>
<path d="M40.7587 25.1258L43.8467 29.3898L48.8467 27.7578L45.7587 32.0258L48.8467 36.2758L43.8467 34.6438L40.7587 38.9078V33.6258L35.7587 31.9938L40.7587 30.3768V25.1258ZM32.3327 42.6378C30.7181 42.632 29.126 42.2585 27.6773 41.5455C26.2285 40.8326 24.9613 39.799 23.9716 38.5232C22.982 37.2474 22.296 35.7629 21.9657 34.1824C21.6354 32.6019 21.6694 30.9669 22.0653 29.4016C22.4612 27.8362 23.2085 26.3816 24.2504 25.1482C25.2924 23.9147 26.6016 22.9348 28.0788 22.2829C29.556 21.631 31.1622 21.3241 32.7757 21.3856C34.3892 21.4471 35.9674 21.8753 37.3907 22.6378C34.9087 20.2858 31.6048 18.9984 28.1858 19.0509C24.7668 19.1034 21.504 20.4917 19.0954 22.9189C16.6868 25.3461 15.3236 28.6193 15.2973 32.0387C15.271 35.458 16.5837 38.7519 18.9547 41.2158C21.3877 43.6663 24.6905 45.0561 28.1437 45.0826C31.5968 45.109 34.9205 43.7698 37.3907 41.3568C35.8379 42.199 34.0991 42.6393 32.3327 42.6378Z" fill="#EEEEEE"/>
</g>
</g>
</g>
<defs>
<clipPath id="clip0_235_41">
<rect width="64" height="64" fill="white"/>
</clipPath>
</defs>
</svg>
