<svg width="130" height="32" viewBox="0 0 130 32" fill="none" xmlns="http://www.w3.org/2000/svg">
<mask id="mask0_985_205" style="mask-type:luminance" maskUnits="userSpaceOnUse" x="0" y="0" width="130" height="32">
<path d="M130 0H0V32H130V0Z" fill="white"/>
</mask>
<g mask="url(#mask0_985_205)">
<path d="M35.0326 32.0025C33.7448 32.0215 32.4616 31.8464 31.2276 31.4835C30.1983 31.177 29.2227 30.7175 28.3346 30.121C27.5448 29.5839 26.8465 28.9274 26.2656 28.1757C25.7327 27.4953 25.2983 26.7457 24.9746 25.9482L30.1816 23.7855C30.5987 24.7774 31.3028 25.6271 32.2066 26.2293C33.0487 26.7619 34.0313 27.0401 35.0326 27.0295C35.9146 27.0731 36.792 26.8787 37.5696 26.4672C37.8334 26.3465 38.0593 26.1583 38.2237 25.9225C38.3882 25.6866 38.4852 25.4117 38.5046 25.1264C38.5065 24.8464 38.4359 24.5705 38.2997 24.3246C38.1634 24.0788 37.9659 23.871 37.7256 23.7206C36.8939 23.2423 35.9824 22.9132 35.0336 22.7484L31.9626 22.0997C31.2356 21.9427 30.5272 21.7121 29.8486 21.4116C29.1337 21.1018 28.4671 20.6941 27.8686 20.2005C27.2706 19.7062 26.7723 19.106 26.3996 18.4311C26.0004 17.6854 25.8011 16.8521 25.8206 16.0099C25.8022 15.0439 26.04 14.0899 26.5106 13.2417C26.9773 12.4269 27.6234 11.7249 28.4016 11.1872C29.2606 10.598 30.2167 10.1591 31.2276 9.88967C32.3652 9.57969 33.5411 9.42681 34.7216 9.43549C36.6446 9.40218 38.5491 9.80904 40.2846 10.624C41.9112 11.4148 43.1904 12.7594 43.8846 14.4076L38.8556 16.3972C38.4838 15.5998 37.8409 14.9546 37.0376 14.5727C36.2905 14.2111 35.4703 14.0189 34.6376 14.0105C33.88 13.9938 33.1304 14.165 32.4576 14.5079C32.194 14.611 31.9659 14.7861 31.8002 15.0125C31.6345 15.2389 31.5382 15.5073 31.5226 15.7858C31.5266 16.033 31.602 16.2739 31.7399 16.4807C31.8778 16.6874 32.0726 16.8514 32.3016 16.9536C32.9706 17.2984 33.6808 17.5599 34.4156 17.7321L37.7526 18.5107C39.6186 18.8438 41.344 19.7082 42.7146 20.9967C43.7758 22.082 44.3593 23.5347 44.3386 25.0399C44.3393 25.9596 44.1099 26.8652 43.6706 27.6773C43.2035 28.5402 42.5597 29.2986 41.7796 29.9048C40.9023 30.5857 39.9074 31.1059 38.8426 31.4402C37.6117 31.8283 36.3251 32.0182 35.0326 32.0025Z" fill="white"/>
<path d="M47.8485 14.9611H44.0215V10.1188H47.8485V3.63086H53.6785V10.1188H59.0185V14.9611H53.6785V23.4278C53.6745 23.9001 53.7269 24.3712 53.8345 24.8315C53.9275 25.2432 54.1352 25.6214 54.4345 25.9236C54.6577 26.1662 54.9337 26.3561 55.2418 26.4794C55.55 26.6028 55.8824 26.6564 56.2145 26.6363C56.9415 26.6788 57.6621 26.4808 58.2615 26.074L59.9085 31.0471C59.2067 31.3703 58.4681 31.6099 57.7085 31.7608C56.8521 31.9255 55.9811 32.0052 55.1085 31.9987C54.0982 32.0138 53.094 31.8417 52.1485 31.4914C51.3242 31.1843 50.5746 30.7104 49.9485 30.1005C49.2217 29.352 48.6605 28.4636 48.3004 27.4912C47.9404 26.5189 47.7892 25.4836 47.8565 24.4511L47.8485 14.9611Z" fill="white"/>
<path d="M74.0599 29.0589H73.7038C73.0037 29.8809 72.1689 30.5821 71.2339 31.134C70.0995 31.7523 68.8138 32.0516 67.5179 31.9991C66.4329 32.0063 65.3554 31.8233 64.3359 31.4584C63.3837 31.1213 62.5025 30.6156 61.7358 29.9662C60.9949 29.3357 60.4016 28.555 59.9969 27.6777C59.5748 26.7533 59.3622 25.7497 59.3738 24.7366C59.3578 23.7115 59.5866 22.697 60.0419 21.7747C60.4888 20.8928 61.1268 20.1178 61.9109 19.504C62.7511 18.8495 63.71 18.3578 64.7369 18.055C65.8839 17.7144 67.0767 17.5467 68.2748 17.5576C69.4556 17.5338 70.6352 17.6426 71.7908 17.882C72.5622 18.054 73.3207 18.2781 74.0608 18.5524V17.9036C74.0689 17.365 73.9483 16.8321 73.7086 16.3477C73.4689 15.8633 73.1169 15.441 72.6808 15.1147C71.7065 14.3615 70.4927 13.9709 69.2538 14.0119C68.2653 14.0083 67.2893 14.2288 66.4017 14.6564C65.514 15.084 64.7386 15.7071 64.1358 16.4773L59.9078 13.6658C61.0382 12.2773 62.4855 11.17 64.1323 10.4337C65.7792 9.69745 67.5793 9.35294 69.3868 9.42808C72.7695 9.42808 75.3505 10.1991 77.1299 11.7411C78.9092 13.2832 79.7992 15.5677 79.7998 18.5947V31.308H74.0588L74.0599 29.0589ZM74.0599 22.7017C73.3803 22.3865 72.6726 22.1334 71.9458 21.9458C71.1677 21.7522 70.3675 21.6578 69.5649 21.6646C68.4187 21.5923 67.2814 21.9042 66.3388 22.5494C65.9874 22.7989 65.7012 23.1271 65.5039 23.5066C65.3066 23.8862 65.2037 24.3064 65.2038 24.7326C65.1944 25.1407 65.2892 25.5446 65.4796 25.9073C65.67 26.27 65.95 26.5799 66.2939 26.8087C67.024 27.3291 67.9062 27.6023 68.8078 27.5873C69.5412 27.595 70.2685 27.4551 70.9449 27.1764C71.5659 26.9233 72.1323 26.5563 72.6138 26.0951C73.0702 25.6507 73.4328 25.122 73.6809 24.5396C73.9291 23.9571 74.0579 23.3332 74.0599 22.7017Z" fill="white"/>
<path d="M82.2031 0.346191H88.0331V12.6702C88.6447 11.7046 89.5041 10.9142 90.5251 10.3788C91.8106 9.70703 93.253 9.37889 94.7081 9.42723C96.0821 9.42287 97.4408 9.71055 98.6911 10.2707C99.9469 10.8293 101.081 11.6222 102.029 12.6053C103.018 13.6393 103.796 14.8503 104.321 16.1727C105.449 19.0982 105.449 22.3282 104.321 25.2537C103.796 26.5761 103.018 27.7871 102.029 28.8211C101.08 29.8042 99.9469 30.597 98.6911 31.1557C97.4408 31.7157 96.082 32.0034 94.7081 31.9992C93.2531 32.0472 91.8107 31.7192 90.5251 31.0476C89.5038 30.5122 88.6443 29.7214 88.0331 28.7552H87.6771V31.311H82.2031V0.346191ZM93.5031 26.7676C94.2586 26.7701 95.0068 26.6231 95.7031 26.335C96.3924 26.052 97.0195 25.6408 97.5501 25.124C98.1023 24.5786 98.5409 23.9325 98.8411 23.2218C99.4924 21.6121 99.4924 19.8183 98.8411 18.2085C98.5406 17.4977 98.1021 16.8513 97.5501 16.3054C97.0192 15.7889 96.3922 15.3777 95.7031 15.0943C95.0066 14.8071 94.2585 14.6603 93.5031 14.6628C92.7499 14.6597 92.003 14.7989 91.3031 15.0727C90.6123 15.3429 89.9841 15.7475 89.4561 16.2621C88.904 16.8074 88.4658 17.4535 88.1661 18.1642C87.5129 19.8046 87.5129 21.6267 88.1661 23.2671C88.4655 23.9782 88.9038 24.6248 89.4561 25.1702C89.9837 25.6854 90.612 26.0899 91.3031 26.3596C92.0047 26.6317 92.7529 26.7685 93.5071 26.7627L93.5031 26.7676Z" fill="white"/>
<path d="M106.814 31.3078V10.124H112.644V31.3078H106.814Z" fill="white"/>
<path d="M117.94 14.9611H114.113V10.1188H117.94V3.63086H123.77V10.1188H129.11V14.9611H123.77V23.4278C123.766 23.9001 123.819 24.3712 123.926 24.8315C124.019 25.2433 124.227 25.6215 124.526 25.9236C124.749 26.1662 125.025 26.3562 125.334 26.4795C125.642 26.6029 125.974 26.6565 126.306 26.6363C127.033 26.6788 127.754 26.4808 128.353 26.074L129.999 31.0471C129.297 31.3702 128.559 31.6099 127.799 31.7608C126.943 31.9255 126.072 32.0051 125.199 31.9987C124.189 32.0137 123.185 31.8417 122.24 31.4914C121.416 31.1843 120.666 30.7104 120.04 30.1005C119.313 29.352 118.752 28.4635 118.392 27.4912C118.032 26.5189 117.881 25.4836 117.948 24.4511L117.94 14.9611Z" fill="white"/>
<path d="M109.705 7.30753C108.973 7.3099 108.255 7.10095 107.642 6.70658C107.029 6.31223 106.547 5.74976 106.256 5.08885C105.87 4.16968 105.87 3.13765 106.256 2.21847C106.446 1.78762 106.717 1.3963 107.056 1.06542C107.767 0.381581 108.721 -0.00146484 109.715 -0.00146484C110.709 -0.00146484 111.664 0.381581 112.374 1.06542C112.726 1.40176 113.006 1.80408 113.198 2.24865C113.389 2.69323 113.487 3.17103 113.487 3.65369C113.487 4.13635 113.389 4.6141 113.198 5.05867C113.006 5.50325 112.726 5.90563 112.374 6.24196C112.025 6.58648 111.609 6.85837 111.15 7.04144C110.691 7.2245 110.2 7.31499 109.705 7.30753Z" fill="white"/>
<path d="M9.74067 16.9784C9.78126 17.1591 9.84616 17.3336 9.93366 17.4975C10.5447 18.6594 13.5037 24.5634 11.6147 26.4429C9.65169 28.3961 1.98265 30.5666 2.52765 31.4631C3.07265 32.3596 12.9177 32.5268 16.3657 28.1091C18.4967 25.3753 9.02267 13.6913 9.74067 16.9784Z" fill="url(#paint0_linear_985_205)"/>
<path d="M12.7231 8.86553C12.566 8.97073 12.3955 9.05533 12.216 9.11718C10.951 9.56346 4.6261 11.9257 4.6821 14.5474C4.7401 17.2713 8.81808 23.9233 7.78708 24.2183C6.75608 24.5132 -0.557969 18.1344 0.0340314 12.6276C0.400031 9.22039 15.5631 6.93489 12.7231 8.86553Z" fill="url(#paint1_linear_985_205)"/>
</g>
<defs>
<linearGradient id="paint0_linear_985_205" x1="9.58934" y1="16.4004" x2="9.58934" y2="31.9738" gradientUnits="userSpaceOnUse">
<stop stop-color="#009DFF"/>
<stop offset="1" stop-color="#0062FF"/>
</linearGradient>
<linearGradient id="paint1_linear_985_205" x1="6.53863" y1="8.15966" x2="6.53863" y2="24.2281" gradientUnits="userSpaceOnUse">
<stop stop-color="#009DFF"/>
<stop offset="1" stop-color="#0062FF"/>
</linearGradient>
</defs>
</svg>
