<svg width="130" height="33" viewBox="0 0 130 33" fill="none" xmlns="http://www.w3.org/2000/svg">
<g clip-path="url(#clip0_472_16)">
<path d="M35.0321 32.556C33.7443 32.5753 32.4611 32.3972 31.2271 32.028C30.1978 31.7162 29.2222 31.2488 28.3341 30.642C27.5443 30.0956 26.846 29.4277 26.2651 28.663C25.7322 27.9709 25.2978 27.2083 24.9741 26.397L30.1811 24.197C30.5982 25.206 31.3023 26.0704 32.2061 26.683C33.0482 27.2248 34.0308 27.5078 35.0321 27.497C35.9141 27.5414 36.7915 27.3436 37.5691 26.925C37.8329 26.8022 38.0588 26.6108 38.2232 26.3709C38.3877 26.1309 38.4847 25.8513 38.5041 25.561C38.506 25.2762 38.4354 24.9955 38.2992 24.7454C38.1629 24.4953 37.9654 24.2839 37.7251 24.131C36.8934 23.6444 35.9819 23.3096 35.0331 23.142L31.9621 22.482C31.2351 22.3223 30.5267 22.0877 29.8481 21.782C29.1332 21.4669 28.4666 21.0521 27.8681 20.55C27.2701 20.0472 26.7718 19.4366 26.3991 18.75C25.9999 17.9915 25.8006 17.1438 25.8201 16.287C25.8017 15.3043 26.0395 14.3338 26.5101 13.471C26.9768 12.6421 27.6229 11.928 28.4011 11.381C29.2601 10.7816 30.2162 10.3351 31.2271 10.061C32.3647 9.74567 33.5406 9.59014 34.7211 9.59897C36.6441 9.56509 38.5486 9.97898 40.2841 10.808C41.9107 11.6125 43.1899 12.9803 43.8841 14.657L38.8551 16.681C38.4833 15.8698 37.8404 15.2135 37.0371 14.825C36.29 14.4571 35.4698 14.2616 34.6371 14.253C33.8795 14.2361 33.1299 14.4102 32.4571 14.759C32.1935 14.8639 31.9654 15.042 31.7997 15.2724C31.634 15.5027 31.5377 15.7757 31.5221 16.059C31.5261 16.3105 31.6015 16.5556 31.7394 16.7659C31.8773 16.9762 32.0721 17.143 32.3011 17.247C32.9701 17.5978 33.6803 17.8638 34.4151 18.039L37.7521 18.831C39.6181 19.1699 41.3435 20.0492 42.7141 21.36C43.7753 22.464 44.3588 23.9418 44.3381 25.473C44.3388 26.4086 44.1094 27.3299 43.6701 28.156C43.203 29.0338 42.5592 29.8053 41.7791 30.422C40.9018 31.1147 39.9069 31.6439 38.8421 31.984C37.6112 32.3788 36.3246 32.5719 35.0321 32.556Z" fill="white"/>
<path d="M47.848 15.22H44.021V10.294H47.848V3.69397H53.678V10.294H59.018V15.22H53.678V23.833C53.674 24.3135 53.7264 24.7927 53.834 25.261C53.927 25.6798 54.1347 26.0645 54.434 26.372C54.6572 26.6187 54.9332 26.8119 55.2413 26.9374C55.5495 27.0629 55.8819 27.1174 56.214 27.097C56.941 27.1402 57.6616 26.9388 58.261 26.525L59.908 31.584C59.2062 31.9128 58.4676 32.1565 57.708 32.31C56.8516 32.4776 55.9806 32.5587 55.108 32.552C54.0977 32.5674 53.0935 32.3923 52.148 32.036C51.3237 31.7236 50.5741 31.2415 49.948 30.621C49.2212 29.8596 48.66 28.9558 48.2999 27.9666C47.9399 26.9775 47.7887 25.9244 47.856 24.874L47.848 15.22Z" fill="white"/>
<path d="M74.0604 29.561H73.7043C73.0042 30.3972 72.1694 31.1106 71.2344 31.672C70.1 32.301 68.8143 32.6055 67.5184 32.552C66.4334 32.5594 65.3559 32.3732 64.3364 32.002C63.3842 31.6591 62.503 31.1446 61.7363 30.484C60.9954 29.8426 60.4021 29.0484 59.9974 28.156C59.5753 27.2156 59.3627 26.1947 59.3743 25.164C59.3583 24.1212 59.5871 23.0892 60.0424 22.151C60.4893 21.2538 61.1273 20.4654 61.9114 19.841C62.7516 19.1752 63.7105 18.675 64.7374 18.367C65.8844 18.0205 67.0772 17.8499 68.2753 17.861C69.4561 17.8368 70.6357 17.9474 71.7913 18.191C72.5627 18.366 73.3212 18.5939 74.0613 18.873V18.213C74.0694 17.6651 73.9488 17.1229 73.7091 16.6302C73.4694 16.1374 73.1174 15.7078 72.6813 15.3759C71.707 14.6096 70.4932 14.2123 69.2543 14.254C68.2658 14.2503 67.2898 14.4747 66.4022 14.9096C65.5145 15.3446 64.7391 15.9785 64.1363 16.762L59.9083 13.9019C61.0387 12.4894 62.486 11.363 64.1328 10.614C65.7797 9.865 67.5798 9.51453 69.3873 9.59097C72.77 9.59097 75.351 10.3753 77.1304 11.944C78.9097 13.5127 79.7997 15.8367 79.8003 18.916V31.849H74.0593L74.0604 29.561ZM74.0604 23.094C73.3808 22.7733 72.6731 22.5159 71.9463 22.325C71.1682 22.1281 70.368 22.032 69.5654 22.039C68.4192 21.9654 67.2819 22.2827 66.3393 22.939C65.9879 23.1929 65.7017 23.5267 65.5044 23.9128C65.3071 24.2989 65.2042 24.7264 65.2043 25.16C65.1949 25.5751 65.2897 25.986 65.4801 26.355C65.6705 26.7239 65.9505 27.0392 66.2944 27.272C67.0245 27.8013 67.9067 28.0793 68.8083 28.064C69.5417 28.0718 70.269 27.9295 70.9454 27.646C71.5664 27.3885 72.1328 27.0152 72.6143 26.546C73.0707 26.0939 73.4333 25.5561 73.6814 24.9636C73.9296 24.3711 74.0584 23.7364 74.0604 23.094Z" fill="white"/>
<path d="M82.2031 0.351929H88.0331V12.8889C88.6447 11.9066 89.5041 11.1026 90.5251 10.5579C91.8106 9.87453 93.253 9.54072 94.7081 9.5899C96.0821 9.58546 97.4408 9.87812 98.6911 10.4479C99.9469 11.0162 101.081 11.8228 102.029 12.8229C103.018 13.8748 103.796 15.1067 104.321 16.4519C105.449 19.428 105.449 22.7138 104.321 25.6899C103.796 27.0351 103.018 28.2671 102.029 29.3189C101.08 30.319 99.9469 31.1255 98.6911 31.6939C97.4408 32.2635 96.082 32.5562 94.7081 32.5519C93.2531 32.6008 91.8107 32.2671 90.5251 31.5839C89.5038 31.0392 88.6443 30.2348 88.0331 29.2519H87.6771V31.8519H82.2031V0.351929ZM93.5031 27.2299C94.2586 27.2325 95.0068 27.0829 95.7031 26.7899C96.3924 26.502 97.0195 26.0837 97.5501 25.5579C98.1023 25.0031 98.5409 24.3458 98.8411 23.6229C99.4924 21.9853 99.4924 20.1605 98.8411 18.5229C98.5406 17.7998 98.1021 17.1423 97.5501 16.5869C97.0192 16.0615 96.3922 15.6432 95.7031 15.3549C95.0066 15.0627 94.2585 14.9134 93.5031 14.9159C92.7499 14.9128 92.003 15.0544 91.3031 15.3329C90.6123 15.6078 89.9841 16.0194 89.4561 16.5429C88.904 17.0976 88.4658 17.7549 88.1661 18.4779C87.5129 20.1466 87.5129 22.0002 88.1661 23.6689C88.4655 24.3923 88.9038 25.0501 89.4561 25.6049C89.9837 26.129 90.612 26.5405 91.3031 26.8149C92.0047 27.0917 92.7529 27.2309 93.5071 27.2249L93.5031 27.2299Z" fill="white"/>
<path d="M106.814 31.8489V10.299H112.644V31.8489H106.814Z" fill="white"/>
<path d="M117.94 15.22H114.113V10.294H117.94V3.69397H123.77V10.294H129.11V15.22H123.77V23.833C123.766 24.3135 123.819 24.7927 123.926 25.261C124.019 25.6799 124.227 26.0646 124.526 26.372C124.749 26.6187 125.025 26.812 125.334 26.9375C125.642 27.063 125.974 27.1175 126.306 27.097C127.033 27.1402 127.754 26.9388 128.353 26.525L129.999 31.584C129.297 31.9127 128.559 32.1565 127.799 32.31C126.943 32.4776 126.072 32.5586 125.199 32.552C124.189 32.5673 123.185 32.3923 122.24 32.036C121.416 31.7236 120.666 31.2415 120.04 30.621C119.313 29.8596 118.752 28.9558 118.392 27.9666C118.032 26.9775 117.881 25.9244 117.948 24.874L117.94 15.22Z" fill="white"/>
<path d="M109.706 7.43396C108.974 7.43637 108.256 7.22381 107.643 6.82263C107.03 6.42146 106.548 5.84927 106.257 5.17694C105.871 4.24188 105.871 3.19202 106.257 2.25696C106.447 1.81866 106.718 1.42058 107.057 1.08398C107.768 0.388323 108.722 -0.00134277 109.716 -0.00134277C110.71 -0.00134277 111.665 0.388323 112.375 1.08398C112.727 1.42613 113.007 1.8354 113.199 2.28766C113.39 2.73992 113.488 3.22598 113.488 3.71698C113.488 4.20798 113.39 4.69398 113.199 5.14624C113.007 5.5985 112.727 6.00783 112.375 6.34998C112.026 6.70045 111.61 6.97704 111.151 7.16327C110.692 7.3495 110.201 7.44155 109.706 7.43396Z" fill="white"/>
<path d="M9.74018 17.272C9.78077 17.4558 9.84567 17.6333 9.93317 17.8C10.5442 18.982 13.5032 24.988 11.6142 26.9C9.6512 28.887 1.98216 31.095 2.52716 32.007C3.07216 32.919 12.9172 33.089 16.3652 28.595C18.4962 25.814 9.02218 13.928 9.74018 17.272Z" fill="url(#paint0_linear_472_16)"/>
<path d="M12.7231 9.01896C12.566 9.12598 12.3955 9.21204 12.216 9.27496C10.951 9.72896 4.6261 12.132 4.6821 14.799C4.7401 17.57 8.81808 24.337 7.78708 24.637C6.75608 24.937 -0.557969 18.448 0.0340313 12.846C0.400031 9.37996 15.5631 7.05496 12.7231 9.01896Z" fill="url(#paint1_linear_472_16)"/>
</g>
<defs>
<linearGradient id="paint0_linear_472_16" x1="9.58885" y1="16.684" x2="9.58885" y2="32.5265" gradientUnits="userSpaceOnUse">
<stop stop-color="#009DFF"/>
<stop offset="1" stop-color="#0062FF"/>
</linearGradient>
<linearGradient id="paint1_linear_472_16" x1="6.53863" y1="8.3009" x2="6.53863" y2="24.647" gradientUnits="userSpaceOnUse">
<stop stop-color="#009DFF"/>
<stop offset="1" stop-color="#0062FF"/>
</linearGradient>
<clipPath id="clip0_472_16">
<rect width="130" height="32.553" fill="white"/>
</clipPath>
</defs>
</svg>
