<svg width="64" height="64" viewBox="0 0 64 64" fill="none" xmlns="http://www.w3.org/2000/svg">
<g clip-path="url(#clip0_240_892)">
<path d="M13.9648 58.4347C19.1006 61.9454 25.3102 64 32.0007 64C38.6912 64 44.901 61.9454 50.0366 58.4347L32.0007 55.6521L13.9648 58.4347ZM50.0366 5.56525C44.901 2.05463 38.6912 0 32.0007 0C25.3102 0 19.1003 2.05463 13.9648 5.56525L32.0007 8.34787L50.0366 5.56525Z" fill="#D80027"/>
<path d="M13.9648 58.4347C19.1006 61.9454 25.3102 64 32.0007 64C38.6912 64 44.901 61.9454 50.0366 58.4347L32.0007 55.6521L13.9648 58.4347ZM50.0366 5.56525C44.901 2.05463 38.6912 0 32.0007 0C25.3102 0 19.1003 2.05463 13.9648 5.56525L32.0007 8.34787L50.0366 5.56525Z" fill="#D80027"/>
<path d="M63.9177 29.9133C63.1595 20.0371 57.1587 10.4351 50.035 5.56543H13.9633C6.07128 10.9606 0.717906 19.7966 0.0664062 29.9133L31.9992 32.0003L63.9177 29.9133ZM0.0664062 34.0873C0.717906 44.2042 6.07116 53.0401 13.9632 58.4352H50.0349C57.9273 53.0402 63.2803 44.2042 63.9318 34.0873L31.9992 32.0003L0.0664062 34.0873Z" fill="#0052B4"/>
<path d="M63.9185 29.9128H34.087V4.17383H29.9131V29.9128H0.067375C0.0225764 30.6076 0.000106526 31.3037 0 32C0 32.7011 0.022875 33.3968 0.06725 34.0868H29.9131V59.8261H34.087V34.0868H63.9329C63.9771 33.3968 64 32.7011 64 32C64 31.3038 63.9719 30.6077 63.9185 29.9128Z" fill="#D80027"/>
<path d="M12.5234 31.9996L32.0016 19.7568L51.4799 31.9996L32.0016 44.2425L12.5234 31.9996Z" fill="#F0F0F0"/>
<path d="M20.8711 37.5656H45.9145L40.3493 29.2178L37.5667 32.0004L34.7841 30.6091L32.0015 34.783H26.4362L23.6536 32.0004L20.8711 37.5656Z" fill="#6DA544"/>
<path d="M31.9998 23.6523L32.6906 25.778H34.9255L33.1173 27.0918L33.8081 29.2176L31.9998 27.9038L30.1916 29.2176L30.8823 27.0918L29.0742 25.778H31.3091L31.9998 23.6523Z" fill="#FFDA44"/>
<path d="M32.0004 16.2588L6.95703 31.9995L32.0004 47.7403L57.044 31.9995L32.0004 16.2588ZM14.8005 31.9995L32.0004 21.1887L49.2005 31.9995L32.0004 42.8104L14.8005 31.9995Z" fill="#D80027"/>
</g>
<defs>
<clipPath id="clip0_240_892">
<rect width="64" height="64" fill="white"/>
</clipPath>
</defs>
</svg>
