<svg width="64" height="64" viewBox="0 0 64 64" fill="none" xmlns="http://www.w3.org/2000/svg">
<g clip-path="url(#clip0_218_268)">
<mask id="mask0_218_268" style="mask-type:luminance" maskUnits="userSpaceOnUse" x="0" y="0" width="64" height="64">
<path d="M32 64C49.6731 64 64 49.6731 64 32C64 14.3269 49.6731 0 32 0C14.3269 0 0 14.3269 0 32C0 49.6731 14.3269 64 32 64Z" fill="white"/>
</mask>
<g mask="url(#mask0_218_268)">
<path d="M0 0H64V64H0V0Z" fill="#338AF3"/>
<path d="M16.875 42.875L11.75 34.125L13.875 29.375L8.875 23L7.75 18.375L17 24.75L22.625 23.375L25 15L31.25 11.375L40.625 12.75L51.5 18.375L52 27.625L55.5 28.875V38.375L48.875 50.125L40.875 52.625L33.5 50.875L35.375 47.75L34.5 44.5L33.5 45.375L16.875 42.875Z" fill="#EEEEEE"/>
</g>
</g>
<defs>
<clipPath id="clip0_218_268">
<rect width="64" height="64" fill="white"/>
</clipPath>
</defs>
</svg>
