<svg width="64" height="64" viewBox="0 0 64 64" fill="none" xmlns="http://www.w3.org/2000/svg">
<g clip-path="url(#clip0_240_9)">
<mask id="mask0_240_9" style="mask-type:luminance" maskUnits="userSpaceOnUse" x="0" y="0" width="64" height="64">
<path d="M32 64C49.6731 64 64 49.6731 64 32C64 14.3269 49.6731 0 32 0C14.3269 0 0 14.3269 0 32C0 49.6731 14.3269 64 32 64Z" fill="white"/>
</mask>
<g mask="url(#mask0_240_9)">
<path d="M0 0H64V64H0V0Z" fill="#EEEEEE"/>
<path d="M20.875 22.25C19.9467 22.25 19.0565 22.6187 18.4001 23.2751C17.7437 23.9315 17.375 24.8217 17.375 25.75H6.875C6.875 26.6783 7.24375 27.5685 7.90013 28.2249C8.5565 28.8813 9.44674 29.25 10.375 29.25C10.375 30.1783 10.7437 31.0685 11.4001 31.7249C12.0565 32.3813 12.9467 32.75 13.875 32.75C13.875 33.6783 14.2437 34.5685 14.9001 35.2249C15.5565 35.8812 16.4467 36.25 17.375 36.25H46.625C47.5533 36.25 48.4435 35.8812 49.0999 35.2249C49.7562 34.5685 50.125 33.6783 50.125 32.75C51.0533 32.75 51.9435 32.3813 52.5999 31.7249C53.2562 31.0685 53.625 30.1783 53.625 29.25C54.5533 29.25 55.4435 28.8813 56.0999 28.2249C56.7562 27.5685 57.125 26.6783 57.125 25.75H46.625C46.625 24.8217 46.2562 23.9315 45.5999 23.2751C44.9435 22.6187 44.0533 22.25 43.125 22.25H20.875Z" fill="#ACABB1"/>
<path d="M15.375 44.625H20.875V50.125H15.375V44.625ZM43.125 44.625H48.625V50.125H43.125V44.625ZM20.875 46H43.125V51.5H20.875V46ZM29.25 12.5V16.6875L27.875 18.125L26.375 17.375V15.25H20.875V22.25L32 24L43.125 22.25V15.25H37.625V17.375L36.125 18.125L34.75 16.6875V12.5H29.25Z" fill="#FFDA44"/>
<path d="M20.875 22.25V36.25C20.875 44.75 32 47.3125 32 47.3125C32 47.3125 43.125 44.7625 43.125 36.25V22.25H20.875Z" fill="#0052B4"/>
<path d="M20.875 27.7627H43.125V36.3877H20.875V27.7627Z" fill="#D80027"/>
</g>
</g>
<defs>
<clipPath id="clip0_240_9">
<rect width="64" height="64" fill="white"/>
</clipPath>
</defs>
</svg>
