<svg width="64" height="64" viewBox="0 0 64 64" fill="none" xmlns="http://www.w3.org/2000/svg">
<g clip-path="url(#clip0_240_706)">
<mask id="mask0_240_706" style="mask-type:luminance" maskUnits="userSpaceOnUse" x="0" y="0" width="64" height="64">
<path d="M32 64C49.6731 64 64 49.6731 64 32C64 14.3269 49.6731 0 32 0C14.3269 0 0 14.3269 0 32C0 49.6731 14.3269 64 32 64Z" fill="white"/>
</mask>
<g mask="url(#mask0_240_706)">
<path d="M0 47.3002L31.6125 43.7002L64 47.3002V64.0002H40.35L32 60.1252L23.65 64.0002H0V47.3002Z" fill="#FFDA44"/>
<path d="M0 32L31.225 28.5L64 32V47.3H0V32Z" fill="#6DA544"/>
<path d="M0 16.6996L31.9125 13.1621L64 16.6996V31.9996H0V16.6996Z" fill="#EEEEEE"/>
<path d="M0 0H23.65L32 3.75L40.35 0H64V16.7H0V0Z" fill="#0052B4"/>
<path d="M17.2125 6.96289L18.075 9.61289H20.875L18.6125 11.2504L19.475 13.9129L17.2125 12.2754L14.9625 13.9129L15.8125 11.2504L13.5625 9.62539H16.35L17.2125 6.96289Z" fill="#FFDA44"/>
<path d="M23.6484 0H40.3484V64H23.6484V0Z" fill="#D80027"/>
</g>
</g>
<defs>
<clipPath id="clip0_240_706">
<rect width="64" height="64" fill="white"/>
</clipPath>
</defs>
</svg>
