<svg width="64" height="64" viewBox="0 0 64 64" fill="none" xmlns="http://www.w3.org/2000/svg">
<g clip-path="url(#clip0_224_832)">
<mask id="mask0_224_832" style="mask-type:luminance" maskUnits="userSpaceOnUse" x="0" y="0" width="64" height="64">
<path d="M32 64C49.6731 64 64 49.6731 64 32C64 14.3269 49.6731 0 32 0C14.3269 0 0 14.3269 0 32C0 49.6731 14.3269 64 32 64Z" fill="white"/>
</mask>
<g mask="url(#mask0_224_832)">
<path d="M48 0H64V16L44 44L16 64H0V48L20 20L48 0Z" fill="#FFDA44"/>
<path d="M0 48L48 0H0V48Z" fill="#6DA544"/>
<path d="M64 16L16 64H64V16Z" fill="#D80027"/>
</g>
</g>
<defs>
<clipPath id="clip0_224_832">
<rect width="64" height="64" fill="white"/>
</clipPath>
</defs>
</svg>
