<svg width="64" height="64" viewBox="0 0 64 64" fill="none" xmlns="http://www.w3.org/2000/svg">
<g clip-path="url(#clip0_224_840)">
<mask id="mask0_224_840" style="mask-type:luminance" maskUnits="userSpaceOnUse" x="0" y="0" width="64" height="64">
<path d="M32 64C49.6731 64 64 49.6731 64 32C64 14.3269 49.6731 0 32 0C14.3269 0 0 14.3269 0 32C0 49.6731 14.3269 64 32 64Z" fill="white"/>
</mask>
<g mask="url(#mask0_224_840)">
<path d="M32 0H64V64H0V32L32 0Z" fill="#0052B4"/>
<path d="M0 0V4L4 8L0 12V32H4L8 28L12 32H16V21.625L26.375 32H32L31 30L32 28.125V26.375L21.625 16H32V12L28 8L32 4V0H12L8 4L4 0H0Z" fill="#EEEEEE"/>
<path d="M4 0V4H0V12H4V32H12V12H32V4H12V0H4ZM16 16L32 32V28.125L19.875 16H16Z" fill="#D80027"/>
<path d="M43.125 32L43.725 33.825H45.625L44.075 34.95L44.6625 36.775L43.1125 35.65L41.5625 36.775L42.1625 34.95L40.6125 33.825H42.525L43.125 32ZM35.25 35.25L36.9625 36.125L38.325 34.775L38.025 36.6625L39.725 37.5375L37.8375 37.8375L37.5375 39.725L36.6625 38.025L34.775 38.325L36.125 36.9625L35.25 35.25ZM32 43.125L33.825 42.5375V40.625L34.95 42.175L36.775 41.575L35.65 43.125L36.775 44.675L34.95 44.0875L33.825 45.6375V43.725L32 43.125ZM35.25 51L36.125 49.3L34.775 47.9375L36.6625 48.2375L37.5375 46.5375L37.8375 48.4125L39.725 48.725L38.025 49.6L38.325 51.475L36.9625 50.125L35.25 51ZM43.125 54.25L42.5375 52.4375H40.625L42.175 51.3125L41.575 49.4875L43.125 50.6125L44.675 49.4875L44.0875 51.3125L45.6375 52.4375H43.725L43.125 54.25ZM51 51L49.3 50.125L47.9375 51.4875L48.2375 49.5875L46.5375 48.7125L48.4125 48.425L48.725 46.5375L49.6 48.2375L51.475 47.9375L50.125 49.3L51 51ZM54.25 43.125L52.4375 43.725V45.625L51.3125 44.075L49.4875 44.6625L50.6125 43.1125L49.4875 41.5625L51.3125 42.1625L52.4375 40.6125V42.525L54.25 43.125ZM51 35.25L50.125 36.9625L51.4875 38.325L49.5875 38.025L48.7125 39.725L48.425 37.8375L46.5375 37.5375L48.2375 36.6625L47.9375 34.775L49.3 36.125L51 35.25Z" fill="#EEEEEE"/>
</g>
</g>
<defs>
<clipPath id="clip0_224_840">
<rect width="64" height="64" fill="white"/>
</clipPath>
</defs>
</svg>
