<svg width="64" height="64" viewBox="0 0 64 64" fill="none" xmlns="http://www.w3.org/2000/svg">
<g clip-path="url(#clip0_224_104)">
<mask id="mask0_224_104" style="mask-type:luminance" maskUnits="userSpaceOnUse" x="0" y="0" width="64" height="64">
<path d="M32 64C49.6731 64 64 49.6731 64 32C64 14.3269 49.6731 0 32 0C14.3269 0 0 14.3269 0 32C0 49.6731 14.3269 64 32 64Z" fill="white"/>
</mask>
<g mask="url(#mask0_224_104)">
<path d="M0 0L27.1125 37.7L64 64V0H0Z" fill="#6DA544"/>
<path d="M0 0L64 64H0V0Z" fill="#0052B4"/>
<path d="M32 40.35C36.6116 40.35 40.35 36.6116 40.35 32C40.35 27.3884 36.6116 23.65 32 23.65C27.3884 23.65 23.65 27.3884 23.65 32C23.65 36.6116 27.3884 40.35 32 40.35Z" fill="#FFDA44"/>
<path d="M11.9125 45.9125L12.7875 47.75L14.7875 47.2875L13.875 49.125L15.5 50.375L13.5 50.825L13.5125 52.8625L11.925 51.5875L10.325 52.875V50.8375L8.36248 50.375L9.93748 49.125L9.06248 47.2875L11.0375 47.75L11.9125 45.9125ZM6.16248 30.625L7.04998 32.4625L9.03748 32L8.14998 33.825L9.73748 35.1L7.74998 35.5375V37.575L6.17498 36.3L4.58748 37.575V35.5375L2.59998 35.1L4.19998 33.825L3.31248 32L5.28748 32.4625L6.16248 30.625ZM11.9125 18.1L12.7875 19.9375L14.7875 19.475L13.8875 21.3125L15.4875 22.5625L13.4875 23.025L13.5 25.05L11.9125 23.7875L10.325 25.05V23.025L8.34998 22.575L9.93748 21.3125L9.06248 19.475L11.0375 19.9375L11.9125 18.1ZM19.05 27.85L19.925 29.675L21.9125 29.2125L21.025 31.05L22.6125 32.3125L20.6375 32.7625V34.8L19.05 33.5L17.4625 34.775V32.75L15.4875 32.3L17.075 31.0375L16.2 29.2L18.175 29.6625L19.05 27.85ZM13.95 36.1875L14.6375 38.3125H16.875L15.0625 39.625L15.7625 41.75L13.95 40.4375L12.125 41.7375L12.825 39.6125L11.0125 38.3H13.25L13.95 36.1875Z" fill="#EEEEEE"/>
<path d="M32 37.5625H34.7875C34.7875 37.5625 35.9875 35.4375 34.7875 33.3875L37.5625 30.6125L36.175 27.825H34.7875C34.7875 27.825 34.0875 29.9125 31.3 29.9125C28.5125 29.9125 27.825 27.825 27.825 27.825H26.4375L27.825 30.6125L26.4375 33.3875L27.825 34.7875C27.825 34.7875 29.2125 32 32 33.375C32 33.375 33.1875 35.125 32 37.55V37.5625Z" fill="#6DA544"/>
<path d="M52.775 17.525C53.0276 16.1917 52.7864 14.812 52.0964 13.6435C51.4063 12.475 50.3146 11.5975 49.025 11.175C49.9764 13.1067 50.3041 15.2864 49.9625 17.4125C49.6155 16.8582 49.1758 16.3677 48.6625 15.9625C47.7188 15.2097 46.561 14.7751 45.355 14.7212C44.149 14.6673 42.957 14.9968 41.95 15.6625C43.5492 16.0132 45.0463 16.7275 46.325 17.75C47.3625 18.575 48.2 19.6875 48.85 20.7625L40.35 23.425C48.7 24.825 55.65 19.25 55.65 19.25C54.8875 17.7125 53.6875 17.45 52.775 17.525Z" fill="#FFDA44"/>
</g>
</g>
<defs>
<clipPath id="clip0_224_104">
<rect width="64" height="64" fill="white"/>
</clipPath>
</defs>
</svg>
