<svg width="64" height="64" viewBox="0 0 64 64" fill="none" xmlns="http://www.w3.org/2000/svg">
<g clip-path="url(#clip0_224_858)">
<mask id="mask0_224_858" style="mask-type:luminance" maskUnits="userSpaceOnUse" x="0" y="0" width="64" height="64">
<path d="M32 64C49.6731 64 64 49.6731 64 32C64 14.3269 49.6731 0 32 0C14.3269 0 0 14.3269 0 32C0 49.6731 14.3269 64 32 64Z" fill="white"/>
</mask>
<g mask="url(#mask0_224_858)">
<path d="M0 0H26L32 4L38 0H64V26L60 32L64 38V64H38L32 60L26 64H0V38L4 32L0 26V0Z" fill="#496E2D"/>
<path d="M64 30V34L32 38L0 34V30L32 26L64 30Z" fill="#333333"/>
<path d="M64 26V30H0V26H64Z" fill="#FFDA44"/>
<path d="M30 0H34L38 32L34 64H30L26 32L30 0Z" fill="#333333"/>
<path d="M26 0H30V64H26V0Z" fill="#FFDA44"/>
<path d="M34 0H38V64H34V0Z" fill="#EEEEEE"/>
<path d="M64 34V38H0V34H64Z" fill="#EEEEEE"/>
<path d="M32 47.2999C40.45 47.2999 47.3 40.4499 47.3 32C47.3 23.55 40.45 16.7 32 16.7C23.5501 16.7 16.7 23.55 16.7 32C16.7 40.4499 23.5501 47.2999 32 47.2999Z" fill="#D80027"/>
<path d="M35.5 33.75C34.375 31.375 32.875 29.125 32.875 29.125V27.5C32.8043 27.1201 32.6099 26.7743 32.3221 26.5165C32.0342 26.2587 31.6692 26.1034 31.2838 26.0749C30.8985 26.0464 30.5145 26.1462 30.1918 26.3587C29.8691 26.5713 29.6259 26.8847 29.5 27.25C29.1922 27.2655 28.8985 27.3839 28.6661 27.5863C28.4337 27.7887 28.276 28.0632 28.2183 28.366C28.1606 28.6687 28.2064 28.9821 28.3481 29.2557C28.4899 29.5294 28.7194 29.7475 29 29.875C29.1006 29.6205 29.2523 29.3893 29.4458 29.1958C29.6393 29.0023 29.8705 28.8506 30.125 28.75C30.1997 28.8416 30.2834 28.9253 30.375 29H30.625C30.625 29 29.75 31.375 29.75 32.625C29.75 36 32.125 37.125 32.125 37.125L30.875 38.25H33.25V36L34.375 37.125C34.375 37.125 36.5 35.75 35.5 33.75ZM32 19.5L32.5 21.125H34.25L32.875 22.125L33.375 23.625L32 22.625L30.625 23.625L31.125 22.125L29.75 21.125H31.5L32 19.5ZM24.625 21.875L26 22.875L27.375 21.875L26.875 23.5L28.25 24.5H26.5L26 26L25.5 24.5H23.75L25.125 23.5L24.625 21.875ZM20.125 28.125H21.75L22.25 26.5L22.75 28.125H24.5L23.125 29.125L23.625 30.75L22.25 29.75L20.875 30.75L21.5 29.125L20.125 28.125ZM20.125 35.875L21.5 34.875L20.875 33.25L22.25 34.25L23.625 33.25L23.125 34.875L24.5 35.875H22.75L22.25 37.5L21.75 35.875H20.125ZM24.625 42.125L25.125 40.5L23.75 39.5H25.5L26 38L26.5 39.5H28.125L26.875 40.5L27.375 42.125L26 41.125L24.625 42.125ZM32 44.5L31.5 42.875H29.75L31.125 41.875L30.625 40.375L32 41.375L33.375 40.375L32.875 41.875L34.25 43H32.5L32 44.5ZM39.375 42.125L38 41.125L36.625 42.125L37.125 40.5L35.875 39.5H37.5L38 38L38.5 39.5H40.25L38.875 40.5L39.375 42.125ZM43.875 35.875H42.25L41.75 37.5L41.25 35.875H39.5L40.875 34.875L40.375 33.25L41.75 34.25L43.125 33.25L42.5 34.875L43.875 35.875ZM43.875 28.125L42.5 29.125L43.125 30.75L41.75 29.75L40.375 30.75L40.875 29.125L39.5 28.125H41.25L41.75 26.5L42.25 28.125H43.875ZM39.375 21.875L38.875 23.5L40.25 24.5H38.5L38 26L37.5 24.5H35.75L37.125 23.5L36.625 21.875L38 22.875L39.375 21.875Z" fill="#496E2D"/>
</g>
</g>
<defs>
<clipPath id="clip0_224_858">
<rect width="64" height="64" fill="white"/>
</clipPath>
</defs>
</svg>
