<svg width="64" height="64" viewBox="0 0 64 64" fill="none" xmlns="http://www.w3.org/2000/svg">
<g clip-path="url(#clip0_224_143)">
<mask id="mask0_224_143" style="mask-type:luminance" maskUnits="userSpaceOnUse" x="0" y="0" width="64" height="64">
<path d="M32 64C49.6731 64 64 49.6731 64 32C64 14.3269 49.6731 0 32 0C14.3269 0 0 14.3269 0 32C0 49.6731 14.3269 64 32 64Z" fill="white"/>
</mask>
<g mask="url(#mask0_224_143)">
<path d="M0 43.125L31.9625 39.25L64 43.125V64H0V43.125Z" fill="#D80027"/>
<path d="M0 20.875L32.25 15.7875L64 20.875V43.125H0V20.875Z" fill="#FFDA44"/>
<path d="M0 0H64V20.875H0V0Z" fill="#6DA544"/>
<path d="M32 47.3C40.4499 47.3 47.2999 40.45 47.2999 32C47.2999 23.5501 40.4499 16.7 32 16.7C23.55 16.7 16.7 23.5501 16.7 32C16.7 40.45 23.55 47.3 32 47.3Z" fill="#0052B4"/>
<path d="M32 20.15L34.75 28.65H43.7125L36.4625 33.9L39.25 42.4375L32 37.15L24.75 42.425L27.525 33.9125L20.275 28.6625H29.25L32 20.15Z" fill="#FFDA44"/>
<path d="M43.0126 34.125L34.2626 31.2625L39.6625 23.8125L37.4125 22.1875L32 29.625L26.5875 22.1625L24.3375 23.8L29.75 31.2625L20.9875 34.1L21.85 36.75L30.6 33.9V43.125H33.3876V33.9125L42.1501 36.7625L43.0126 34.125Z" fill="#FFDA44"/>
</g>
</g>
<defs>
<clipPath id="clip0_224_143">
<rect width="64" height="64" fill="white"/>
</clipPath>
</defs>
</svg>
