<svg width="64" height="64" viewBox="0 0 64 64" fill="none" xmlns="http://www.w3.org/2000/svg">
<g clip-path="url(#clip0_240_172)">
<mask id="mask0_240_172" style="mask-type:luminance" maskUnits="userSpaceOnUse" x="0" y="0" width="64" height="64">
<path d="M32 64C49.6731 64 64 49.6731 64 32C64 14.3269 49.6731 0 32 0C14.3269 0 0 14.3269 0 32C0 49.6731 14.3269 64 32 64Z" fill="white"/>
</mask>
<g mask="url(#mask0_240_172)">
<path d="M0 0H64V64H0V0Z" fill="#338AF3"/>
<path d="M32.0016 13.9121L33.3766 18.1621H37.8516L34.2266 20.7871L35.6141 25.0371L32.0016 22.4121L28.3766 25.0371L29.7641 20.7871L26.1391 18.1621H30.6266L32.0016 13.9121ZM13.9141 31.9996L18.1641 30.6246V26.1496L20.7891 29.7746L25.0391 28.3871L22.4141 31.9996L25.0391 35.6246L20.7891 34.2371L18.1641 37.8621V33.3746L13.9141 31.9996ZM32.0016 50.0871L30.6266 45.8371H26.1516L29.7766 43.2121L28.3891 38.9621L32.0016 41.5871L35.6266 38.9621L34.2391 43.2121L37.8641 45.8371H33.3766L32.0016 50.0871ZM50.0891 31.9996L45.8391 33.3746V37.8496L43.2141 34.2246L38.9641 35.6121L41.5891 31.9996L38.9641 28.3746L43.2141 29.7621L45.8391 26.1371V30.6246L50.0891 31.9996Z" fill="#EEEEEE"/>
</g>
</g>
<defs>
<clipPath id="clip0_240_172">
<rect width="64" height="64" fill="white"/>
</clipPath>
</defs>
</svg>
