<svg width="64" height="64" viewBox="0 0 64 64" fill="none" xmlns="http://www.w3.org/2000/svg">
<g clip-path="url(#clip0_224_883)">
<mask id="mask0_224_883" style="mask-type:luminance" maskUnits="userSpaceOnUse" x="0" y="0" width="64" height="64">
<path d="M32 64C49.6731 64 64 49.6731 64 32C64 14.3269 49.6731 0 32 0C14.3269 0 0 14.3269 0 32C0 49.6731 14.3269 64 32 64Z" fill="white"/>
</mask>
<g mask="url(#mask0_224_883)">
<path d="M0 0H27.825L31.7 2.925L36.175 0H64V27.825L61.3125 31.7L64 36.175V64H36.175L31.9 61.4375L27.825 64H0V36.175L2.8375 32.1L0 27.825V0Z" fill="#EEEEEE"/>
<path d="M27.825 0V27.825H0V36.175H27.825V64H36.175V36.175H64V27.825H36.175V0H27.825Z" fill="#D80027"/>
<path d="M19.475 15.3V11.125H15.3V15.3H11.125V19.475H15.3V23.65H19.475V19.475H23.65V15.3H19.475ZM48.7 15.3V11.125H44.525V15.3H40.35V19.475H44.525V23.65H48.7V19.475H52.875V15.3H48.7ZM19.475 44.525V40.35H15.3V44.525H11.125V48.7H15.3V52.875H19.475V48.7H23.65V44.525H19.475ZM48.7 44.525V40.35H44.525V44.525H40.35V48.7H44.525V52.875H48.7V48.7H52.875V44.525H48.7Z" fill="#D80027"/>
</g>
</g>
<defs>
<clipPath id="clip0_224_883">
<rect width="64" height="64" fill="white"/>
</clipPath>
</defs>
</svg>
