<svg width="64" height="64" viewBox="0 0 64 64" fill="none" xmlns="http://www.w3.org/2000/svg">
<g clip-path="url(#clip0_224_935)">
<mask id="mask0_224_935" style="mask-type:luminance" maskUnits="userSpaceOnUse" x="0" y="0" width="64" height="64">
<path d="M32 64C49.6731 64 64 49.6731 64 32C64 14.3269 49.6731 0 32 0C14.3269 0 0 14.3269 0 32C0 49.6731 14.3269 64 32 64Z" fill="white"/>
</mask>
<g mask="url(#mask0_224_935)">
<path d="M15.75 19.7499L31.725 18.4624L64 20.8749V43.1249L32.1375 47.1624L15.75 41.9874V19.7499Z" fill="#EEEEEE"/>
<path d="M0 0H64V20.875H13.375L0 0Z" fill="#333333"/>
<path d="M13.375 43.125H64V64H0L13.375 43.125Z" fill="#6DA544"/>
<path d="M0 0V64L32 32L0 0Z" fill="#D80027"/>
<path d="M12.7 25.0376L14.45 28.7126L18.425 27.8001L16.65 31.4626L19.8375 33.9876L15.8625 34.8876L15.875 38.9626L12.7 36.4126L9.525 38.9626V34.8751L5.5625 33.9751L8.75 31.4751L6.975 27.8001L10.95 28.7126L12.7 25.0376Z" fill="#EEEEEE"/>
</g>
</g>
<defs>
<clipPath id="clip0_224_935">
<rect width="64" height="64" fill="white"/>
</clipPath>
</defs>
</svg>
