<svg width="64" height="64" viewBox="0 0 64 64" fill="none" xmlns="http://www.w3.org/2000/svg">
<g clip-path="url(#clip0_240_46)">
<mask id="mask0_240_46" style="mask-type:luminance" maskUnits="userSpaceOnUse" x="0" y="0" width="64" height="64">
<path d="M32 64C49.6731 64 64 49.6731 64 32C64 14.3269 49.6731 0 32 0C14.3269 0 0 14.3269 0 32C0 49.6731 14.3269 64 32 64Z" fill="white"/>
</mask>
<g mask="url(#mask0_240_46)">
<path d="M0 0H64L63.9875 29.35L32.15 61.9625L0.0375 29.35L0 0Z" fill="#D80027"/>
<path d="M43.125 29.7498L38.5875 31.8998L41 36.2998L36.0625 35.3623L35.4375 40.3498L32 36.6748L28.5625 40.3498L27.9375 35.3498L23 36.2998L25.4125 31.8998L20.875 29.7498L25.4125 27.6123L23 23.1998L27.9375 24.1498L28.5625 19.1498L32 22.8248L35.4375 19.1623L36.0625 24.1498L41 23.1998L38.5875 27.6123L43.125 29.7498ZM40.35 10.4498H34.0875C34.0875 9.89616 33.8676 9.3652 33.4761 8.97372C33.0846 8.58224 32.5536 8.3623 32 8.3623C31.4464 8.3623 30.9154 8.58224 30.5239 8.97372C30.1324 9.3652 29.9125 9.89616 29.9125 10.4498H23.6625C23.6625 11.5998 24.6625 12.5373 25.8125 12.5373H25.7375C25.7375 13.6873 26.675 14.6248 27.825 14.6248C27.825 15.7748 28.7625 16.7123 29.9125 16.7123H34.0875C35.2375 16.7123 36.175 15.7748 36.175 14.6248C37.325 14.6248 38.2625 13.6873 38.2625 12.5373H38.1875C39.35 12.5373 40.35 11.5998 40.35 10.4498Z" fill="#FFDA44"/>
<path d="M10.6641 29.3496C8.00156 29.3496 8.00156 31.7871 5.32656 31.7871C2.67656 31.7871 2.66406 29.3746 0.0390625 29.3496V33.6371L1.57656 35.9121L0.0390625 37.9246V41.9996L1.63906 44.2746L0.0390625 46.2871V50.3371L4.92656 56.5121L60.0766 56.8871L63.9891 50.3371V46.2871L62.9641 44.2371L63.9891 41.9996V37.9246L62.7016 36.1746L63.9891 33.6371V29.3496C61.3391 29.3496 61.3391 31.7871 58.6766 31.7871C56.0141 31.7871 56.0016 29.3496 53.3391 29.3496C50.6766 29.3496 50.6766 31.7871 48.0016 31.7871C45.3391 31.7871 45.3391 29.3496 42.6766 29.3496C40.0016 29.3496 40.0016 31.7871 37.3391 31.7871C34.6766 31.7871 34.6766 29.3496 32.0016 29.3496C29.3266 29.3496 29.3266 31.7871 26.6641 31.7871C24.0016 31.7871 24.0016 29.3496 21.3266 29.3496C18.6641 29.3496 18.6641 31.7871 16.0016 31.7871C13.3391 31.7871 13.3266 29.3496 10.6641 29.3496Z" fill="#EEEEEE"/>
<path d="M10.6625 33.6377C8 33.6377 8 36.0752 5.325 36.0752C2.675 36.0752 2.6625 33.6627 0.0375 33.6377V37.9252C2.6625 37.9502 2.675 40.3627 5.325 40.3627C8 40.3627 8 37.9252 10.6625 37.9252C13.325 37.9252 13.325 40.3627 16 40.3627C18.675 40.3627 18.6625 37.9252 21.325 37.9252C24 37.9252 24 40.3627 26.6625 40.3627C29.325 40.3627 29.325 37.9252 32 37.9252C34.675 37.9252 34.675 40.3627 37.3375 40.3627C40 40.3627 40 37.9252 42.675 37.9252C45.3375 37.9252 45.3375 40.3627 48 40.3627C50.675 40.3627 50.675 37.9252 53.3375 37.9252C56 37.9252 56 40.3627 58.675 40.3627C61.35 40.3627 61.3375 37.9377 63.9875 37.9252V33.6377C61.3375 33.6377 61.3375 36.0752 58.675 36.0752C56.0125 36.0752 56 33.6377 53.3375 33.6377C50.675 33.6377 50.675 36.0752 48 36.0752C45.3375 36.0752 45.3375 33.6377 42.675 33.6377C40 33.6377 40 36.0752 37.3375 36.0752C34.675 36.0752 34.675 33.6377 32 33.6377C29.325 33.6377 29.325 36.0752 26.6625 36.0752C24 36.0752 24 33.6377 21.325 33.6377C18.6625 33.6377 18.6625 36.0752 16 36.0752C13.3375 36.0752 13.325 33.6377 10.6625 33.6377ZM10.6625 42.0002C8 42.0002 8 44.4377 5.325 44.4377C2.675 44.4377 2.6625 42.0252 0.0375 42.0002V46.2877C2.6625 46.3127 2.675 48.7252 5.325 48.7252C8 48.7252 8 46.2877 10.6625 46.2877C13.325 46.2877 13.325 48.7252 16 48.7252C18.675 48.7252 18.6625 46.2877 21.325 46.2877C24 46.2877 24 48.7252 26.6625 48.7252C29.325 48.7252 29.325 46.2877 32 46.2877C34.675 46.2877 34.675 48.7252 37.3375 48.7252C40 48.7252 40 46.2877 42.675 46.2877C45.3375 46.2877 45.3375 48.7252 48 48.7252C50.675 48.7252 50.675 46.2877 53.3375 46.2877C56 46.2877 56 48.7252 58.675 48.7252C61.35 48.7252 61.3375 46.3002 63.9875 46.2877V42.0002C61.3375 42.0002 61.3375 44.4377 58.675 44.4377C56.0125 44.4377 56 42.0002 53.3375 42.0002C50.675 42.0002 50.675 44.4377 48 44.4377C45.3375 44.4377 45.3375 42.0002 42.675 42.0002C40 42.0002 40 44.4377 37.3375 44.4377C34.675 44.4377 34.675 42.0002 32 42.0002C29.325 42.0002 29.325 44.4377 26.6625 44.4377C24 44.4377 24 42.0002 21.325 42.0002C18.6625 42.0002 18.6625 44.4377 16 44.4377C13.3375 44.4377 13.325 42.0002 10.6625 42.0002ZM10.6625 50.3377C8 50.3377 8 52.7752 5.325 52.7752C2.675 52.7752 2.6625 50.3627 0.0375 50.3377L0 64.0002H64L63.9875 50.3377C61.3375 50.3377 61.3375 52.7752 58.675 52.7752C56.0125 52.7752 56 50.3377 53.3375 50.3377C50.675 50.3377 50.675 52.7752 48 52.7752C45.3375 52.7752 45.3375 50.3377 42.675 50.3377C40 50.3377 40 52.7752 37.3375 52.7752C34.675 52.7752 34.675 50.3377 32 50.3377C29.325 50.3377 29.325 52.7752 26.6625 52.7752C24 52.7752 24 50.3377 21.325 50.3377C18.6625 50.3377 18.6625 52.7752 16 52.7752C13.3375 52.7752 13.325 50.3377 10.6625 50.3377Z" fill="#0052B4"/>
</g>
</g>
<defs>
<clipPath id="clip0_240_46">
<rect width="64" height="64" fill="white"/>
</clipPath>
</defs>
</svg>
