<svg width="64" height="64" viewBox="0 0 64 64" fill="none" xmlns="http://www.w3.org/2000/svg">
<g clip-path="url(#clip0_233_208)">
<mask id="mask0_233_208" style="mask-type:luminance" maskUnits="userSpaceOnUse" x="0" y="0" width="64" height="64">
<path d="M32 64C49.6731 64 64 49.6731 64 32C64 14.3269 49.6731 0 32 0C14.3269 0 0 14.3269 0 32C0 49.6731 14.3269 64 32 64Z" fill="white"/>
</mask>
<g mask="url(#mask0_233_208)">
<path d="M0 0H8.525L19.275 4.2L27.0625 0H36.9125L44.5625 4.35L55.475 0H64V8.5375L60.075 19.5375L64 27.0625V36.9125L59.675 44.5L64 55.475V64H55.475L45.85 59.3375L36.9375 64H27.0875L19.4625 59.0375L8.525 64H0V55.5L5.0375 44.475L0 36.9375V27.0875L5.0375 19.625L0 8.525V0Z" fill="#FFDA44"/>
<path d="M36.9375 64H55.475L32 32L36.9375 64ZM27.0625 0H8.525L32 32L27.0625 0ZM27.0875 64L32 32L8.525 64H27.0875ZM0 27.0875L32 32L0 8.525V27.0875ZM0 55.4875L32 32L0 36.9375V55.4875ZM64 8.5375L32 32L64 27.0625V8.5375ZM55.475 0H36.9125L32 32L55.475 0ZM64 55.475V36.9125L32 32L64 55.475Z" fill="#D80027"/>
<path d="M32 43.125C38.1442 43.125 43.125 38.1442 43.125 32C43.125 25.8558 38.1442 20.875 32 20.875C25.8558 20.875 20.875 25.8558 20.875 32C20.875 38.1442 25.8558 43.125 32 43.125Z" fill="#D80027"/>
<path d="M31.9984 40.3499C36.61 40.3499 40.3484 36.6115 40.3484 31.9999C40.3484 27.3883 36.61 23.6499 31.9984 23.6499C27.3869 23.6499 23.6484 27.3883 23.6484 31.9999C23.6484 36.6115 27.3869 40.3499 31.9984 40.3499Z" fill="#FFDA44"/>
</g>
</g>
<defs>
<clipPath id="clip0_233_208">
<rect width="64" height="64" fill="white"/>
</clipPath>
</defs>
</svg>
