<svg width="64" height="64" viewBox="0 0 64 64" fill="none" xmlns="http://www.w3.org/2000/svg">
<g clip-path="url(#clip0_233_217)">
<mask id="mask0_233_217" style="mask-type:luminance" maskUnits="userSpaceOnUse" x="0" y="0" width="64" height="64">
<path d="M32 64C49.6731 64 64 49.6731 64 32C64 14.3269 49.6731 0 32 0C14.3269 0 0 14.3269 0 32C0 49.6731 14.3269 64 32 64Z" fill="white"/>
</mask>
<g mask="url(#mask0_233_217)">
<path d="M0 0H20.875L31.4875 5.625L43.125 0H64V64H43.125L32.1625 57.9875L20.875 64H0V0Z" fill="#A2001D"/>
<path d="M20.875 0H43.125V64H20.875V0Z" fill="#0052B4"/>
<path d="M15.3008 32H18.0883V43.125H15.3008V32ZM4.17578 32H6.96328V43.125H4.17578V32Z" fill="#FFDA44"/>
<path d="M11.1273 38.9627C12.6668 38.9627 13.9148 37.7147 13.9148 36.1752C13.9148 34.6357 12.6668 33.3877 11.1273 33.3877C9.58785 33.3877 8.33984 34.6357 8.33984 36.1752C8.33984 37.7147 9.58785 38.9627 11.1273 38.9627Z" fill="#FFDA44"/>
<path d="M11.1258 27.8248C11.8921 27.8248 12.5133 27.2036 12.5133 26.4373C12.5133 25.671 11.8921 25.0498 11.1258 25.0498C10.3595 25.0498 9.73828 25.671 9.73828 26.4373C9.73828 27.2036 10.3595 27.8248 11.1258 27.8248Z" fill="#FFDA44"/>
<path d="M8.35234 40.35H13.9148V43.125H8.35234V40.35ZM8.35234 29.225H13.9148V32H8.35234V29.225ZM11.1273 16.6875L12.1273 19.7125H15.3023L12.7273 21.5875L13.7148 24.625L11.1273 22.75L8.55234 24.625L9.53984 21.5875L6.96484 19.7125H10.1523L11.1273 16.6875Z" fill="#FFDA44"/>
</g>
</g>
<defs>
<clipPath id="clip0_233_217">
<rect width="64" height="64" fill="white"/>
</clipPath>
</defs>
</svg>
