<svg width="64" height="64" viewBox="0 0 64 64" fill="none" xmlns="http://www.w3.org/2000/svg">
<g clip-path="url(#clip0_224_1129)">
<mask id="mask0_224_1129" style="mask-type:luminance" maskUnits="userSpaceOnUse" x="0" y="0" width="64" height="64">
<path d="M32 64C49.6731 64 64 49.6731 64 32C64 14.3269 49.6731 0 32 0C14.3269 0 0 14.3269 0 32C0 49.6731 14.3269 64 32 64Z" fill="white"/>
</mask>
<g mask="url(#mask0_224_1129)">
<path d="M0 0H27.825L31.7 2.925L36.175 0H64V27.825L61.3125 31.7L64 36.175V64H36.175L31.9 61.4375L27.825 64H0V36.175L2.8375 32.1L0 27.825V0Z" fill="#0052B4"/>
<path d="M27.825 0V27.825H0V36.175H27.825V64H36.175V36.175H64V27.825H36.175V0H27.825Z" fill="#EEEEEE"/>
<path d="M42.9248 20.2998C42.9281 20.0964 43.0112 19.9025 43.1562 19.7599C43.3012 19.6172 43.4964 19.5373 43.6998 19.5373H45.3498C46.5658 19.4749 47.7114 18.9478 48.55 18.0651C49.3886 17.1823 49.8562 16.0112 49.8562 14.7936C49.8562 13.5759 49.3886 12.4048 48.55 11.5221C47.7114 10.6393 46.5658 10.1122 45.3498 10.0498H43.7748C43.2748 9.6748 42.5748 9.4248 41.8248 9.4248C40.2373 9.4248 38.9498 10.4623 38.9498 11.7248C38.9498 12.9748 40.2123 13.9998 41.7748 14.0123H45.3498C45.5553 14.0123 45.7525 14.094 45.8978 14.2393C46.0432 14.3846 46.1248 14.5818 46.1248 14.7873C46.1248 14.9928 46.0432 15.19 45.8978 15.3353C45.7525 15.4807 45.5553 15.5623 45.3498 15.5623H43.6998C42.5028 15.6493 41.3831 16.1862 40.5658 17.0651C39.7485 17.944 39.2942 19.0996 39.2942 20.2998C39.2942 21.5 39.7485 22.6556 40.5658 23.5345C41.3831 24.4134 42.5028 24.9503 43.6998 25.0373H50.0873V21.0748H43.6998C43.4943 21.0748 43.2971 20.9932 43.1518 20.8478C43.0065 20.7025 42.9248 20.5053 42.9248 20.2998ZM17.8748 20.2998C17.8781 20.0964 17.9612 19.9025 18.1062 19.7599C18.2512 19.6172 18.4464 19.5373 18.6498 19.5373H20.2998C21.5158 19.4749 22.6614 18.9478 23.5 18.0651C24.3386 17.1823 24.8062 16.0112 24.8062 14.7936C24.8062 13.5759 24.3386 12.4048 23.5 11.5221C22.6614 10.6393 21.5158 10.1122 20.2998 10.0498H18.7498C18.2373 9.6748 17.5498 9.4248 16.7873 9.4248C15.2123 9.4248 13.9248 10.4623 13.9248 11.7248C13.9248 12.9748 15.1748 13.9998 16.7498 14.0123H20.3123C20.5178 14.0123 20.715 14.094 20.8603 14.2393C21.0057 14.3846 21.0873 14.5818 21.0873 14.7873C21.0873 14.9928 21.0057 15.19 20.8603 15.3353C20.715 15.4807 20.5178 15.5623 20.3123 15.5623H18.6623C17.4653 15.6493 16.3456 16.1862 15.5283 17.0651C14.711 17.944 14.2567 19.0996 14.2567 20.2998C14.2567 21.5 14.711 22.6556 15.5283 23.5345C16.3456 24.4134 17.4653 24.9503 18.6623 25.0373H25.0498V21.0748H18.6748C18.572 21.0765 18.4699 21.0576 18.3744 21.0194C18.2789 20.9812 18.192 20.9244 18.1187 20.8523C18.0454 20.7801 17.9872 20.6942 17.9475 20.5993C17.9077 20.5044 17.8873 20.4026 17.8873 20.2998H17.8748ZM42.9248 49.8248C42.9248 49.6193 43.0065 49.4221 43.1518 49.2768C43.2971 49.1315 43.4943 49.0498 43.6998 49.0498H45.3498C46.5468 48.9628 47.6665 48.4259 48.4838 47.547C49.3011 46.6681 49.7554 45.5125 49.7554 44.3123C49.7554 43.1121 49.3011 41.9565 48.4838 41.0776C47.6665 40.1987 46.5468 39.6618 45.3498 39.5748H43.7748C43.2748 39.1998 42.5748 38.9498 41.8248 38.9498C40.2373 38.9498 38.9498 39.9873 38.9498 41.2498C38.9498 42.4998 40.2123 43.5123 41.7748 43.5373H45.3498C45.5553 43.5373 45.7525 43.619 45.8978 43.7643C46.0432 43.9096 46.1248 44.1068 46.1248 44.3123C46.1248 44.5178 46.0432 44.715 45.8978 44.8603C45.7525 45.0057 45.5553 45.0873 45.3498 45.0873H43.6998C42.5028 45.1743 41.3831 45.7112 40.5658 46.5901C39.7485 47.469 39.2942 48.6246 39.2942 49.8248C39.2942 51.025 39.7485 52.1806 40.5658 53.0595C41.3831 53.9384 42.5028 54.4753 43.6998 54.5623H50.0748V50.5998H43.6998C43.4943 50.5998 43.2971 50.5182 43.1518 50.3728C43.0065 50.2275 42.9248 50.0303 42.9248 49.8248ZM17.8748 49.8248C17.8748 49.6193 17.9565 49.4221 18.1018 49.2768C18.2471 49.1315 18.4443 49.0498 18.6498 49.0498H20.2998C21.4968 48.9628 22.6165 48.4259 23.4338 47.547C24.2511 46.6681 24.7054 45.5125 24.7054 44.3123C24.7054 43.1121 24.2511 41.9565 23.4338 41.0776C22.6165 40.1987 21.4968 39.6618 20.2998 39.5748H18.7498C18.2373 39.1998 17.5498 38.9498 16.7873 38.9498C15.2123 38.9498 13.9248 39.9873 13.9248 41.2498C13.9248 42.4998 15.1748 43.5123 16.7498 43.5373H20.3123C20.5178 43.5373 20.715 43.619 20.8603 43.7643C21.0057 43.9096 21.0873 44.1068 21.0873 44.3123C21.0873 44.5178 21.0057 44.715 20.8603 44.8603C20.715 45.0057 20.5178 45.0873 20.3123 45.0873H18.6623C17.4653 45.1743 16.3456 45.7112 15.5283 46.5901C14.711 47.469 14.2567 48.6246 14.2567 49.8248C14.2567 51.025 14.711 52.1806 15.5283 53.0595C16.3456 53.9384 17.4653 54.4753 18.6623 54.5623H25.0498V50.5998H18.6748C18.572 50.6015 18.4699 50.5826 18.3744 50.5444C18.2789 50.5062 18.192 50.4494 18.1187 50.3773C18.0454 50.3051 17.9872 50.2192 17.9475 50.1243C17.9077 50.0295 17.8873 49.9276 17.8873 49.8248H17.8748Z" fill="#EEEEEE"/>
</g>
</g>
<defs>
<clipPath id="clip0_224_1129">
<rect width="64" height="64" fill="white"/>
</clipPath>
</defs>
</svg>
