<svg width="64" height="64" viewBox="0 0 64 64" fill="none" xmlns="http://www.w3.org/2000/svg">
<g clip-path="url(#clip0_224_1210)">
<mask id="mask0_224_1210" style="mask-type:luminance" maskUnits="userSpaceOnUse" x="0" y="0" width="64" height="64">
<path d="M32 64C49.6731 64 64 49.6731 64 32C64 14.3269 49.6731 0 32 0C14.3269 0 0 14.3269 0 32C0 49.6731 14.3269 64 32 64Z" fill="white"/>
</mask>
<g mask="url(#mask0_224_1210)">
<path d="M32 0H64V64H0V32L32 0Z" fill="#0052B4"/>
<path d="M0 0V4L4 8L0 12V32H4L8 28L12 32H16V21.625L26.375 32H32L31 30L32 28.125V26.375L21.625 16H32V12L28 8L32 4V0H12L8 4L4 0H0Z" fill="#EEEEEE"/>
<path d="M4 0V4H0V12H4V32H12V12H32V4H12V0H4ZM16 16L32 32V28.125L19.875 16H16Z" fill="#D80027"/>
<path d="M36.1746 16.7002V32.0002L45.9246 37.0502L55.6621 32.0002V16.7002H36.1621H36.1746Z" fill="#338AF3"/>
<path d="M36.1746 32C36.1746 39.45 45.9121 41.75 45.9121 41.75C45.9121 41.75 55.6621 39.45 55.6621 32H36.1621H36.1746Z" fill="#A2001D"/>
<path d="M50.0873 23.65H47.2998V20.875H44.5248V23.65H41.7373V26.4375H44.5248V34.7875H47.2998V26.4375H50.0873V23.65Z" fill="#333333"/>
</g>
</g>
<defs>
<clipPath id="clip0_224_1210">
<rect width="64" height="64" fill="white"/>
</clipPath>
</defs>
</svg>
