<svg width="64" height="64" viewBox="0 0 64 64" fill="none" xmlns="http://www.w3.org/2000/svg">
<g clip-path="url(#clip0_233_246)">
<mask id="mask0_233_246" style="mask-type:luminance" maskUnits="userSpaceOnUse" x="0" y="0" width="64" height="64">
<path d="M32 64C49.6731 64 64 49.6731 64 32C64 14.3269 49.6731 0 32 0C14.3269 0 0 14.3269 0 32C0 49.6731 14.3269 64 32 64Z" fill="white"/>
</mask>
<g mask="url(#mask0_233_246)">
<path d="M0 32L32 0H64V6.9625L61.5625 11.0875L64 15.3V23.65L61.2375 28.3625L64 32V40.35L61.475 45.1625L64 48.7V57.0375L32.1875 60.5625L0 57.0375V48.7L3.25 44.3125L0 40.35V32Z" fill="#EEEEEE"/>
<path d="M32 31.9999H64V23.6499H27.8625L32 31.9999ZM27.8625 15.2999H64V6.9624H27.8625V15.2999ZM64 63.9999V57.0374H0V63.9999H64ZM0 48.6999H64V40.3499H0V48.6999Z" fill="#D80027"/>
<path d="M0 0H32V32H0V0Z" fill="#0052B4"/>
<path d="M21.2738 27.3876C20.0698 27.3871 18.8818 27.1118 17.8003 26.5828C16.7187 26.0537 15.7722 25.2848 15.0328 24.3346C14.2933 23.3844 13.7805 22.278 13.5333 21.0997C13.2861 19.9213 13.311 18.7021 13.6063 17.5348C13.9015 16.3676 14.4592 15.2831 15.237 14.364C16.0147 13.4449 16.9919 12.7154 18.0942 12.231C19.1965 11.7467 20.3948 11.5203 21.5978 11.5691C22.8009 11.6179 23.9769 11.9406 25.0363 12.5126C23.6652 11.1684 21.9277 10.2591 20.0417 9.89853C18.1557 9.53799 16.2053 9.74233 14.435 10.4859C12.6648 11.2295 11.1535 12.4793 10.0907 14.0785C9.02788 15.6776 8.46094 17.555 8.46094 19.4751C8.46094 21.3952 9.02788 23.2726 10.0907 24.8717C11.1535 26.4709 12.6648 27.7207 14.435 28.4643C16.2053 29.2079 18.1557 29.4122 20.0417 29.0517C21.9277 28.6911 23.6652 27.7818 25.0363 26.4376C23.8848 27.0611 22.5959 27.3877 21.2863 27.3876H21.2738Z" fill="#FFDA44"/>
<path d="M23.5008 13.9126L24.9133 16.8501L28.0883 16.1126L26.6633 19.0501L29.2133 21.0751L26.0383 21.7876L26.0508 25.0376L23.5133 23.0126L20.9633 25.0376L20.9758 21.7876L17.8008 21.0751L20.3508 19.0501L18.9258 16.1126L22.1008 16.8626L23.5008 13.9126Z" fill="#FFDA44"/>
</g>
</g>
<defs>
<clipPath id="clip0_233_246">
<rect width="64" height="64" fill="white"/>
</clipPath>
</defs>
</svg>
