<svg width="64" height="64" viewBox="0 0 64 64" fill="none" xmlns="http://www.w3.org/2000/svg">
<g clip-path="url(#clip0_240_403)">
<mask id="mask0_240_403" style="mask-type:luminance" maskUnits="userSpaceOnUse" x="0" y="0" width="64" height="64">
<path d="M32 64C49.6731 64 64 49.6731 64 32C64 14.3269 49.6731 0 32 0C14.3269 0 0 14.3269 0 32C0 49.6731 14.3269 64 32 64Z" fill="white"/>
</mask>
<g mask="url(#mask0_240_403)">
<path d="M0 0H18.0875L31.6375 5.15L45.9125 0H64V64H45.9125L32.1375 58.825L18.0875 64H0V0Z" fill="#6DA544"/>
<path d="M18.0859 0H45.9109V64H18.0859V0Z" fill="#EEEEEE"/>
<path d="M40.3766 41.7498L32.0016 15.2998L23.6641 41.7498H29.9266V48.7123H34.1016V41.7498H40.3766Z" fill="#6DA544"/>
</g>
</g>
<defs>
<clipPath id="clip0_240_403">
<rect width="64" height="64" fill="white"/>
</clipPath>
</defs>
</svg>
