<svg width="64" height="64" viewBox="0 0 64 64" fill="none" xmlns="http://www.w3.org/2000/svg">
<g clip-path="url(#clip0_240_804)">
<mask id="mask0_240_804" style="mask-type:luminance" maskUnits="userSpaceOnUse" x="0" y="0" width="64" height="64">
<path d="M32 64C49.6731 64 64 49.6731 64 32C64 14.3269 49.6731 0 32 0C14.3269 0 0 14.3269 0 32C0 49.6731 14.3269 64 32 64Z" fill="white"/>
</mask>
<g mask="url(#mask0_240_804)">
<path d="M32 0H64V64H0V32L32 0Z" fill="#0052B4"/>
<path d="M0 0V4L4 8L0 12V32H4L8 28L12 32H16V21.625L26.375 32H32L31 30L32 28.125V26.375L21.625 16H32V12L28 8L32 4V0H12L8 4L4 0H0ZM47.75 11.5L46.375 15.875H41.75L45.5 18.5L44 22.875L47.75 20.125L51.5 22.875L50 18.5L53.75 15.875H49.125L47.75 11.5ZM55.375 20.5L54 24.875H49.375L53.125 27.5L51.75 31.875L55.375 29.25L59.125 31.875L57.625 27.5L61.375 24.875H56.75L55.375 20.5ZM40 21.75L38.625 26.125H34L37.75 28.875L36.375 33.25L40 30.5L43.75 33.25L42.375 28.875L46 26.125H41.5L40 21.75ZM47.375 38L46 42.375H41.375L45.125 45L43.75 49.375L47.375 46.75L51.125 49.375L49.75 45L53.375 42.375H48.875L47.375 38Z" fill="#EEEEEE"/>
<path d="M4 0V4H0V12H4V32H12V12H32V4H12V0H4ZM16 16L32 32V28.125L19.875 16H16ZM47.375 41.125L46.75 43.375H44.375L46.25 44.625L45.5 46.875L47.375 45.5L49.25 46.875L48.625 44.625L50.375 43.375H48.125L47.375 41.125ZM40 25L39.375 27.125H37L38.875 28.5L38.125 30.625L40 29.25L41.875 30.625L41.125 28.5L43 27.125H40.75L40 25ZM55.375 23.625L54.625 25.875H52.375L54.25 27.25L53.5 29.375L55.375 28L57.25 29.375L56.5 27.25L58.375 25.875H56.125L55.375 23.625ZM47.75 14.625L47 16.75H44.75L46.625 18.125L45.875 20.25L47.75 19L49.625 20.25L48.875 18.125L50.75 16.75H48.5L47.75 14.625Z" fill="#D80027"/>
</g>
</g>
<defs>
<clipPath id="clip0_240_804">
<rect width="64" height="64" fill="white"/>
</clipPath>
</defs>
</svg>
