<svg width="64" height="64" viewBox="0 0 64 64" fill="none" xmlns="http://www.w3.org/2000/svg">
<g clip-path="url(#clip0_240_228)">
<mask id="mask0_240_228" style="mask-type:luminance" maskUnits="userSpaceOnUse" x="0" y="0" width="64" height="64">
<path d="M32 64C49.6731 64 64 49.6731 64 32C64 14.3269 49.6731 0 32 0C14.3269 0 0 14.3269 0 32C0 49.6731 14.3269 64 32 64Z" fill="white"/>
</mask>
<g mask="url(#mask0_240_228)">
<path d="M0 0H64V16.7125L57.5 32.4625L64 47.3125V64H0V47.3125L6.625 32.1875L0 16.7V0Z" fill="#D80027"/>
<path d="M0 16.7129H64V47.3129H0V16.7129Z" fill="#EEEEEE"/>
<path d="M43.125 32.0127C43.125 38.1627 38.15 41.7627 32 41.7627C25.85 41.7627 20.875 38.1627 20.875 32.0127C20.875 29.0622 22.0471 26.2325 24.1334 24.1461C26.2198 22.0598 29.0495 20.8877 32 20.8877C34.9505 20.8877 37.7802 22.0598 39.8666 24.1461C41.9529 26.2325 43.125 29.0622 43.125 32.0127Z" fill="#FFDA44"/>
<path d="M43.125 32.0127C43.125 34.9632 41.9529 37.7929 39.8666 39.8793C37.7802 41.9656 34.9505 43.1377 32 43.1377C29.0495 43.1377 26.2198 41.9656 24.1334 39.8793C22.0471 37.7929 20.875 34.9632 20.875 32.0127" fill="#0052B4"/>
<path d="M25.0391 29.2248H27.8266V34.7998H25.0391V29.2248ZM36.1641 29.2248H38.9641V34.7998H36.1766L36.1641 29.2248ZM30.6266 25.0498H33.3766V34.7998H30.6266V25.0498Z" fill="#D80027"/>
</g>
</g>
<defs>
<clipPath id="clip0_240_228">
<rect width="64" height="64" fill="white"/>
</clipPath>
</defs>
</svg>
