<svg width="64" height="64" viewBox="0 0 64 64" fill="none" xmlns="http://www.w3.org/2000/svg">
<g clip-path="url(#clip0_233_309)">
<mask id="mask0_233_309" style="mask-type:luminance" maskUnits="userSpaceOnUse" x="0" y="0" width="64" height="64">
<path d="M32 64C49.6731 64 64 49.6731 64 32C64 14.3269 49.6731 0 32 0C14.3269 0 0 14.3269 0 32C0 49.6731 14.3269 64 32 64Z" fill="white"/>
</mask>
<g mask="url(#mask0_233_309)">
<path d="M0 0H64V32L30.875 37.65L0 0Z" fill="#0052B4"/>
<path d="M26.25 32H64V64H0L26.25 32Z" fill="#D80027"/>
<path d="M0 0V64L32 32L0 0Z" fill="#EEEEEE"/>
<path d="M21.9141 31.9999L18.0016 30.1624L20.0891 26.3749L15.8391 27.1874L15.3016 22.8999L12.3516 26.0499L9.37656 22.8999L8.83906 27.1874L4.58906 26.3749L6.67656 30.1624L2.78906 31.9999L6.68906 33.8374L4.62656 37.6249L8.87656 36.8124L9.40156 41.0999L12.3641 37.9499L15.3141 41.0999L15.8516 36.8124L20.1016 37.6249L18.0141 33.8374L21.9141 31.9999ZM8.53906 12.5249L9.83906 14.3374L11.9641 13.6624L10.6391 15.4624L11.9391 17.2749L9.81406 16.5749L8.50156 18.3749L8.52656 16.1374L6.40156 15.4374L8.52656 14.7624L8.53906 12.5249ZM8.53906 45.6249L9.83906 47.4499L11.9641 46.7749L10.6391 48.5624L11.9391 50.3874L9.81406 49.6749L8.50156 51.4749L8.52656 49.2374L6.40156 48.5374L8.52656 47.8624L8.53906 45.6249ZM27.0891 29.0749L25.7891 30.8749L23.6641 30.1999L24.9766 31.9999L23.6766 33.8249L25.8016 33.1124L27.1266 34.9124L27.1141 32.6749L29.2391 31.9749L27.1016 31.2999L27.0891 29.0749Z" fill="#FFDA44"/>
</g>
</g>
<defs>
<clipPath id="clip0_233_309">
<rect width="64" height="64" fill="white"/>
</clipPath>
</defs>
</svg>
