<svg width="64" height="64" viewBox="0 0 64 64" fill="none" xmlns="http://www.w3.org/2000/svg">
<g clip-path="url(#clip0_240_612)">
<mask id="mask0_240_612" style="mask-type:luminance" maskUnits="userSpaceOnUse" x="0" y="0" width="64" height="64">
<path d="M32 64C49.6731 64 64 49.6731 64 32C64 14.3269 49.6731 0 32 0C14.3269 0 0 14.3269 0 32C0 49.6731 14.3269 64 32 64Z" fill="white"/>
</mask>
<g mask="url(#mask0_240_612)">
<path d="M32 0H64V64H0V32L32 0Z" fill="#0052B4"/>
<path d="M50.125 19.5L45.875 20.875L41.75 19.5L40.375 16L41.75 12.5H50.125L48.75 16L50.125 19.5Z" fill="#ACABB1"/>
<path d="M36.125 19.5V34.75C36.125 42.25 45.875 44.5 45.875 44.5C45.875 44.5 55.625 42.25 55.625 34.75V19.5H36.125Z" fill="#338AF3"/>
<path d="M37 38.375C39.5 43 45.875 44.5 45.875 44.5C45.875 44.5 52.375 43 54.75 38.375L45.875 23.625L37 38.375Z" fill="#6DA544"/>
<path d="M55.6251 34.625L45.8751 19.5L36.1251 34.625V34.75C36.1174 36.0115 36.4178 37.2559 37.0001 38.375L45.8751 24.625L54.7501 38.375C55.3325 37.2559 55.6329 36.0115 55.6251 34.75V34.625Z" fill="#FFDA44"/>
<path d="M0 0V4L4 8L0 12V32H4L8 28L12 32H16V21.625L26.375 32H32L31 30L32 28.125V26.375L21.625 16H32V12L28 8L32 4V0H12L8 4L4 0H0Z" fill="#EEEEEE"/>
<path d="M4 0V4H0V12H4V32H12V12H32V4H12V0H4ZM16 16L32 32V28.125L19.875 16H16Z" fill="#D80027"/>
</g>
</g>
<defs>
<clipPath id="clip0_240_612">
<rect width="64" height="64" fill="white"/>
</clipPath>
</defs>
</svg>
