<svg width="64" height="64" viewBox="0 0 64 64" fill="none" xmlns="http://www.w3.org/2000/svg">
<g clip-path="url(#clip0_240_144)">
<mask id="mask0_240_144" style="mask-type:luminance" maskUnits="userSpaceOnUse" x="0" y="0" width="64" height="64">
<path d="M32 64C49.6731 64 64 49.6731 64 32C64 14.3269 49.6731 0 32 0C14.3269 0 0 14.3269 0 32C0 49.6731 14.3269 64 32 64Z" fill="white"/>
</mask>
<g mask="url(#mask0_240_144)">
<path d="M9.26172 14.375L63.9992 19.6125V23.55L58.6992 32.3375L63.9992 40.3625V44.3L9.26172 48.35V14.375Z" fill="#EEEEEE"/>
<path d="M0 0H64V19.6H6.25L0 0Z" fill="#333333"/>
<path d="M18.8242 23.5371H63.9992V40.3496H18.8242V23.5371Z" fill="#A2001D"/>
<path d="M6.25 44.2871H64V63.9996H0L6.25 44.2871Z" fill="#496E2D"/>
<path d="M0 0V64L32 32L0 0Z" fill="#0052B4"/>
<path d="M10.425 24.0498L14.325 29.4998L20.725 27.4623L16.7375 32.8623L20.65 38.3123L14.275 36.1998L10.3125 41.5998L10.35 34.8873L4 32.7748L10.375 30.7498L10.425 24.0498Z" fill="#FFDA44"/>
</g>
</g>
<defs>
<clipPath id="clip0_240_144">
<rect width="64" height="64" fill="white"/>
</clipPath>
</defs>
</svg>
