<svg width="64" height="64" viewBox="0 0 64 64" fill="none" xmlns="http://www.w3.org/2000/svg">
<g clip-path="url(#clip0_240_286)">
<mask id="mask0_240_286" style="mask-type:luminance" maskUnits="userSpaceOnUse" x="0" y="0" width="64" height="64">
<path d="M32 64C49.6731 64 64 49.6731 64 32C64 14.3269 49.6731 0 32 0C14.3269 0 0 14.3269 0 32C0 49.6731 14.3269 64 32 64Z" fill="white"/>
</mask>
<g mask="url(#mask0_240_286)">
<path d="M0 0H64V11.125L54.1 31.5875L64 52.875V64H0V52.875L10.3375 31.675L0 11.125V0Z" fill="#D80027"/>
<path d="M0 11.125H64V20.875L58.675 32.275L64 43.125V52.875H0V43.125L5 31.5625L0 20.875V11.125Z" fill="#EEEEEE"/>
<path d="M0 20.875H64V43.125H0V20.875Z" fill="#0052B4"/>
</g>
</g>
<defs>
<clipPath id="clip0_240_286">
<rect width="64" height="64" fill="white"/>
</clipPath>
</defs>
</svg>
