<svg width="64" height="64" viewBox="0 0 64 64" fill="none" xmlns="http://www.w3.org/2000/svg">
<g clip-path="url(#clip0_224_1250)">
<mask id="mask0_224_1250" style="mask-type:luminance" maskUnits="userSpaceOnUse" x="0" y="0" width="64" height="64">
<path d="M32 64C49.6731 64 64 49.6731 64 32C64 14.3269 49.6731 0 32 0C14.3269 0 0 14.3269 0 32C0 49.6731 14.3269 64 32 64Z" fill="white"/>
</mask>
<g mask="url(#mask0_224_1250)">
<path d="M0 32L32 0H64V64H0V32Z" fill="#D80027"/>
<path d="M32 32V0H0V32H32Z" fill="#0052B4"/>
<path d="M27.8252 18.725L23.9127 20.5625L26.0002 24.35L21.7502 23.5375L21.2127 27.825L18.2627 24.675L15.3002 27.825L14.7627 23.5375L10.5127 24.35L12.6002 20.5625L8.7002 18.725L12.6002 16.8875L10.5252 13.1L14.7752 13.9125L15.3002 9.625L18.2627 12.7875L21.2127 9.625L21.7502 13.9125L26.0002 13.1L23.9127 16.8875L27.8252 18.725Z" fill="#EEEEEE"/>
<path d="M18.2623 24.6877C21.5553 24.6877 24.2248 22.0182 24.2248 18.7252C24.2248 15.4322 21.5553 12.7627 18.2623 12.7627C14.9693 12.7627 12.2998 15.4322 12.2998 18.7252C12.2998 22.0182 14.9693 24.6877 18.2623 24.6877Z" fill="#0052B4"/>
<path d="M18.2627 23.9126C21.1277 23.9126 23.4502 21.5901 23.4502 18.7251C23.4502 15.8601 21.1277 13.5376 18.2627 13.5376C15.3977 13.5376 13.0752 15.8601 13.0752 18.7251C13.0752 21.5901 15.3977 23.9126 18.2627 23.9126Z" fill="#EEEEEE"/>
</g>
</g>
<defs>
<clipPath id="clip0_224_1250">
<rect width="64" height="64" fill="white"/>
</clipPath>
</defs>
</svg>
