<svg width="64" height="64" viewBox="0 0 64 64" fill="none" xmlns="http://www.w3.org/2000/svg">
<g clip-path="url(#clip0_233_391)">
<mask id="mask0_233_391" style="mask-type:luminance" maskUnits="userSpaceOnUse" x="0" y="0" width="64" height="64">
<path d="M32 64C49.6731 64 64 49.6731 64 32C64 14.3269 49.6731 0 32 0C14.3269 0 0 14.3269 0 32C0 49.6731 14.3269 64 32 64Z" fill="white"/>
</mask>
<g mask="url(#mask0_233_391)">
<path d="M0 32L32 0H64V64H0V32Z" fill="#D80027"/>
<path d="M0 0H32V32H0V0Z" fill="#0052B4"/>
<path d="M25.6258 20.8751L26.1508 22.4626H27.8258L26.4758 23.4501L26.9883 25.0376L25.6383 24.0626L24.2758 25.0376L24.7883 23.4501L23.4383 22.4626H25.1133L25.6258 20.8751ZM17.2258 8.3501L18.1008 11.0001H20.8758L18.6133 12.6501L19.4758 15.3001L17.2133 13.6626L14.9633 15.3001L15.8133 12.6501L13.5633 11.0001H16.3508L17.2258 8.3501ZM25.5633 11.1251L26.4258 13.7876H29.2133L26.9633 15.4251L27.8258 18.0876L25.5633 16.4501L23.3008 18.0876L24.1758 15.4251L21.9008 13.7876H24.7008L25.5633 11.1251ZM18.9633 22.2501L19.8258 24.9126H22.6258L20.3633 26.5626L21.2258 29.2126L18.9633 27.5751L16.7133 29.2126L17.5633 26.5626L15.3133 24.9126H18.1008L18.9633 22.2501ZM11.6508 15.3001L12.5133 17.9626H15.3008L13.0508 19.6001L13.9133 22.2626L11.6508 20.6126L9.37578 22.2626L10.2383 19.6001L7.98828 17.9626H10.7758L11.6508 15.3001Z" fill="#EEEEEE"/>
</g>
</g>
<defs>
<clipPath id="clip0_233_391">
<rect width="64" height="64" fill="white"/>
</clipPath>
</defs>
</svg>
