<svg width="64" height="64" viewBox="0 0 64 64" fill="none" xmlns="http://www.w3.org/2000/svg">
<g clip-path="url(#clip0_262_2)">
<path d="M13.9641 58.4347C19.0999 61.9454 25.3095 64 32 64C38.6905 64 44.9002 61.9454 50.0359 58.4347L32 55.6521L13.9641 58.4347ZM50.0359 5.56525C44.9002 2.05463 38.6905 0 32 0C25.3095 0 19.0996 2.05463 13.9641 5.56525L32 8.34787L50.0359 5.56525Z" fill="#D80027"/>
<path d="M13.9641 58.4347C19.0999 61.9454 25.3095 64 32 64C38.6905 64 44.9002 61.9454 50.0359 58.4347L32 55.6521L13.9641 58.4347ZM50.0359 5.56525C44.9002 2.05463 38.6905 0 32 0C25.3095 0 19.0996 2.05463 13.9641 5.56525L32 8.34787L50.0359 5.56525Z" fill="#D80027"/>
<path d="M63.9185 29.913C63.1604 20.0367 57.1595 10.4347 50.0359 5.56512H13.9641C6.07213 10.9602 0.718761 19.7963 0.0672607 29.913L32 32L63.9185 29.913ZM0.0672607 34.087C0.718761 44.2039 6.07201 53.0398 13.964 58.4349H50.0358C57.9281 53.0399 63.2811 44.2039 63.9326 34.087L32 32L0.0672607 34.087Z" fill="#0052B4"/>
<path d="M63.9185 29.9129H34.087V4.17389H29.9131V29.9129H0.067375C0.0225764 30.6077 0.000106526 31.3038 0 32C0 32.7011 0.022875 33.3969 0.06725 34.0869H29.9131V59.8261H34.087V34.0869H63.9329C63.9771 33.3969 64 32.7011 64 32C64 31.3039 63.9719 30.6078 63.9185 29.9129Z" fill="#D80027"/>
<path d="M12.5217 32L31.9999 19.7573L51.4782 32L31.9999 44.2429L12.5217 32Z" fill="#F0F0F0"/>
<path d="M20.8696 37.5652H45.913L40.3479 29.2173L37.5653 32L34.7826 30.6087L32 34.7826H26.4348L23.6521 32L20.8696 37.5652Z" fill="#6DA544"/>
<path d="M32 23.6521L32.6908 25.7777H34.9257L33.1175 27.0916L33.8083 29.2174L32 27.9036L30.1918 29.2174L30.8825 27.0916L29.0744 25.7777H31.3093L32 23.6521Z" fill="#FFDA44"/>
<path d="M31.9999 16.2593L6.95648 32L31.9999 47.7408L57.0435 32L31.9999 16.2593ZM14.8 32L31.9999 21.1892L49.2 32L31.9999 42.8109L14.8 32Z" fill="#D80027"/>
</g>
<defs>
<clipPath id="clip0_262_2">
<rect width="64" height="64" fill="white"/>
</clipPath>
</defs>
</svg>
