<svg width="64" height="64" viewBox="0 0 64 64" fill="none" xmlns="http://www.w3.org/2000/svg">
<g clip-path="url(#clip0_224_849)">
<mask id="mask0_224_849" style="mask-type:luminance" maskUnits="userSpaceOnUse" x="0" y="0" width="64" height="64">
<path d="M32 64C49.6731 64 64 49.6731 64 32C64 14.3269 49.6731 0 32 0C14.3269 0 0 14.3269 0 32C0 49.6731 14.3269 64 32 64Z" fill="white"/>
</mask>
<g mask="url(#mask0_224_849)">
<path d="M0 0H64V32.025L58.7625 40.0625L64 48.025V64H0V48.025L5.1625 40L0 32.025V0Z" fill="#0052B4"/>
<path d="M0 32.0249H64V37.3874L62.0375 40.0874L64 42.7124V48.0249H0V42.7124L1.8875 40.0249L0 37.3749V32.0249Z" fill="#EEEEEE"/>
<path d="M0 37.3875H64V42.7125H0V37.3875Z" fill="#D80027"/>
<path d="M22.85 23.8L23.5 25.85H25.6375L23.9125 27.1L24.575 29.1376L22.85 27.8876L21.1 29.1376L21.775 27.1L20.0375 25.85H22.175L22.85 23.8ZM22.85 50.4626L23.5 52.5H25.6375L23.9125 53.75L24.575 55.7751L22.85 54.5251L21.1 55.7751L21.75 53.75L20 52.5H22.15L22.85 50.4626ZM10.45 41.4501L11.1 43.475H13.2375L11.5125 44.75L12.1625 46.7751L10.45 45.5251L8.7 46.7751L9.375 44.75L7.625 43.4875H9.775L10.45 41.4501ZM15.1875 26.475L15.8125 28.475H17.9625L16.2375 29.7626L16.8875 31.7875L15.175 30.5375L13.425 31.7875L14.1 29.75L12.35 28.4875H14.5L15.1875 26.475ZM7.6375 34.85H9.7625L10.45 32.8251L11.1 34.85H13.2375L11.5125 36.125L12.1625 38.175L10.45 36.875L8.7 38.1625L9.375 36.1125L7.6375 34.85ZM13.45 52.725L14.1125 50.7001L12.375 49.425H14.5125L15.1875 47.4001L15.8375 49.4375H17.975L16.25 50.7001L16.9125 52.725L15.1875 51.475L13.45 52.725ZM35.25 41.4501L34.575 43.475H32.45L34.175 44.75L33.5125 46.7751L35.25 45.5251L36.975 46.7751L36.325 44.7375L38.0375 43.475H35.9125L35.25 41.4501ZM30.5 26.475L29.8375 28.5H27.7L29.45 29.775L28.775 31.8L30.5125 30.55L32.2375 31.8L31.575 29.7626L33.3 28.5H31.175L30.5 26.475ZM38.0375 34.85H35.9125L35.25 32.8251L34.575 34.85H32.45L34.175 36.1125L33.5125 38.1625L35.25 36.875L36.975 38.1625L36.325 36.1125L38.0375 34.85ZM32.2375 52.725L31.575 50.7001L33.3 49.425H31.175L30.5125 47.4001L29.8375 49.4375H27.7L29.45 50.7001L28.775 52.725L30.5125 51.475L32.2375 52.725Z" fill="#FFDA44"/>
</g>
</g>
<defs>
<clipPath id="clip0_224_849">
<rect width="64" height="64" fill="white"/>
</clipPath>
</defs>
</svg>
