<svg width="64" height="64" viewBox="0 0 64 64" fill="none" xmlns="http://www.w3.org/2000/svg">
<g clip-path="url(#clip0_240_717)">
<mask id="mask0_240_717" style="mask-type:luminance" maskUnits="userSpaceOnUse" x="0" y="0" width="64" height="64">
<path d="M32 64C49.6731 64 64 49.6731 64 32C64 14.3269 49.6731 0 32 0C14.3269 0 0 14.3269 0 32C0 49.6731 14.3269 64 32 64Z" fill="white"/>
</mask>
<g mask="url(#mask0_240_717)">
<path d="M2.94922 2.96289H61.0492V61.0504H2.94922V2.96289Z" fill="#FFDA44"/>
<path d="M0 9.3875L4.75 4.75L59.2875 59.3L64 54.6125V9.375L59.05 4.9375L5.025 58.975L0 54.6V9.3875Z" fill="#496E2D"/>
<path d="M32 43.1377C38.1442 43.1377 43.125 38.1569 43.125 32.0127C43.125 25.8685 38.1442 20.8877 32 20.8877C25.8558 20.8877 20.875 25.8685 20.875 32.0127C20.875 38.1569 25.8558 43.1377 32 43.1377Z" fill="#A2001D"/>
<path d="M32.0008 20.875L34.5008 28.5625H42.5758L36.0383 33.3125L38.5383 40.975L32.0008 36.225L25.4633 40.975L27.9633 33.3125L21.4258 28.5625H29.5008L32.0008 20.875Z" fill="#FFDA44"/>
<path d="M0 0H64V9.3875H0V0ZM0 54.6H64V63.9875H0V54.6Z" fill="#A2001D"/>
<path d="M32.0006 3.5L32.5131 5.0875H34.2006L32.8381 6.0875L33.3631 7.6625L32.0006 6.675L30.6506 7.675L31.1631 6.075L29.8006 5.075H31.5006L32.0006 3.5ZM24.2506 3.5L24.7506 5.0875H26.4381L25.0756 6.0875L25.6006 7.6625L24.2381 6.675L22.8881 7.675L23.4006 6.075L22.0506 5.075H23.7256L24.2506 3.5ZM39.7506 3.5L40.2756 5.0875H41.9506L40.6006 6.0875L41.1131 7.6625L39.7631 6.675L38.4006 7.675L38.9256 6.075L37.5631 5.075H39.2506L39.7506 3.5ZM32.0006 56.35L32.5131 57.9375H34.2006L32.8381 58.9375L33.3631 60.525L32.0006 59.525L30.6506 60.525L31.1631 58.925L29.8006 57.9375H31.5006L32.0006 56.35ZM24.2506 56.35L24.7506 57.9375H26.4381L25.0756 58.9375L25.6006 60.525L24.2381 59.525L22.8881 60.525L23.4006 58.925L22.0506 57.9375H23.7256L24.2506 56.35ZM39.7506 56.35L40.2756 57.9375H41.9506L40.6006 58.9375L41.1131 60.525L39.7631 59.525L38.4006 60.525L38.9256 58.925L37.5631 57.9375H39.2506L39.7506 56.35ZM9.75057 31.475C10.1071 32.0972 10.2101 32.833 10.0381 33.5292C9.86617 34.2254 9.43249 34.8286 8.82727 35.2133C8.22205 35.598 7.49184 35.7346 6.78846 35.5948C6.08508 35.455 5.46265 35.0494 5.05057 34.4625C3.55057 32.1125 4.42557 28.275 4.42557 28.275C4.42557 28.275 8.25057 29.125 9.75057 31.4875V31.475Z" fill="#FFDA44"/>
<path d="M8.1375 35.5377C8.90379 35.5377 9.525 34.9165 9.525 34.1502C9.525 33.3839 8.90379 32.7627 8.1375 32.7627C7.3712 32.7627 6.75 33.3839 6.75 34.1502C6.75 34.9165 7.3712 35.5377 8.1375 35.5377Z" fill="#A2001D"/>
</g>
</g>
<defs>
<clipPath id="clip0_240_717">
<rect width="64" height="64" fill="white"/>
</clipPath>
</defs>
</svg>
