<svg width="64" height="64" viewBox="0 0 64 64" fill="none" xmlns="http://www.w3.org/2000/svg">
<g clip-path="url(#clip0_218_340)">
<mask id="mask0_218_340" style="mask-type:luminance" maskUnits="userSpaceOnUse" x="0" y="0" width="64" height="64">
<path d="M32 64C49.6731 64 64 49.6731 64 32C64 14.3269 49.6731 0 32 0C14.3269 0 0 14.3269 0 32C0 49.6731 14.3269 64 32 64Z" fill="white"/>
</mask>
<g mask="url(#mask0_218_340)">
<path d="M0 19.475L31.875 15.65L64 19.475V23.65L60.5375 32.05L64 40.35V44.525L32 48.575L0 44.525V40.35L3.6 31.7875L0 23.65V19.475Z" fill="#EEEEEE"/>
<path d="M0 0H64V19.475H0V0Z" fill="#A2001D"/>
<path d="M0 23.65H64V40.35H0V23.65Z" fill="#0052B4"/>
<path d="M0 44.525H64V64H0V44.525Z" fill="#496E2D"/>
</g>
</g>
<defs>
<clipPath id="clip0_218_340">
<rect width="64" height="64" fill="white"/>
</clipPath>
</defs>
</svg>
