<svg width="64" height="64" viewBox="0 0 64 64" fill="none" xmlns="http://www.w3.org/2000/svg">
<g clip-path="url(#clip0_233_81)">
<mask id="mask0_233_81" style="mask-type:luminance" maskUnits="userSpaceOnUse" x="0" y="0" width="64" height="64">
<path d="M32 64C49.6731 64 64 49.6731 64 32C64 14.3269 49.6731 0 32 0C14.3269 0 0 14.3269 0 32C0 49.6731 14.3269 64 32 64Z" fill="white"/>
</mask>
<g mask="url(#mask0_233_81)">
<path d="M0 22H64V64H0V22Z" fill="#333333"/>
<path d="M0 0H64V22H0V0Z" fill="#0052B4"/>
<path d="M11.7489 28.5C11.6659 28.4896 11.5819 28.4896 11.4989 28.5C11.3659 28.5358 11.2418 28.5987 11.1342 28.6848C11.0267 28.7708 10.9381 28.8781 10.8739 29C10.7351 29.2238 10.6902 29.4933 10.7489 29.75L11.6239 32.875L6.74894 30C6.6343 29.9333 6.50753 29.8901 6.37602 29.8729C6.24451 29.8556 6.11088 29.8647 5.98292 29.8996C5.85495 29.9345 5.73521 29.9945 5.63066 30.0761C5.52611 30.1578 5.43885 30.2594 5.37394 30.375C5.30724 30.4897 5.26401 30.6164 5.24677 30.748C5.22952 30.8795 5.23862 31.0131 5.27352 31.1411C5.30842 31.269 5.36842 31.3888 5.45004 31.4933C5.53167 31.5979 5.63327 31.6851 5.74894 31.75L10.6239 34.625L7.49894 35.375C7.36595 35.4108 7.24178 35.4737 7.13424 35.5598C7.02669 35.6458 6.93807 35.7531 6.87394 35.875C6.73515 36.0988 6.69023 36.3683 6.74894 36.625C6.77791 36.7585 6.83391 36.8846 6.9135 36.9956C6.99309 37.1066 7.09457 37.2002 7.2117 37.2704C7.32882 37.3407 7.45909 37.3862 7.59449 37.4042C7.72989 37.4222 7.86753 37.4123 7.99894 37.375L13.1239 36L14.1239 36.625L10.8739 37.375C10.6519 37.4752 10.4742 37.653 10.3739 37.875C10.2351 38.0988 10.1902 38.3683 10.2489 38.625C10.2779 38.7585 10.3339 38.8846 10.4135 38.9956C10.4931 39.1066 10.5946 39.2002 10.7117 39.2704C10.8288 39.3407 10.9591 39.3862 11.0945 39.4042C11.2299 39.4222 11.3675 39.4123 11.4989 39.375L16.4989 38L17.4989 38.625L14.3739 39.375C14.1519 39.4752 13.9742 39.653 13.8739 39.875C13.7351 40.0988 13.6902 40.3683 13.7489 40.625C13.7779 40.7585 13.8339 40.8846 13.9135 40.9956C13.9931 41.1066 14.0946 41.2002 14.2117 41.2704C14.3288 41.3407 14.4591 41.3862 14.5945 41.4042C14.7299 41.4222 14.8675 41.4123 14.9989 41.375L19.9989 40L23.1239 41.75C23.2386 41.8167 23.3654 41.86 23.4969 41.8772C23.6284 41.8944 23.762 41.8854 23.89 41.8505C24.0179 41.8156 24.1377 41.7555 24.2422 41.6739C24.3468 41.5923 24.434 41.4907 24.4989 41.375C24.5965 41.1563 24.6123 40.9098 24.5435 40.6804C24.4746 40.451 24.3258 40.254 24.1239 40.125L20.9989 38.25L19.6239 33.25C19.595 33.1166 19.539 32.9904 19.4594 32.8794C19.3798 32.7684 19.2783 32.6749 19.1612 32.6046C19.0441 32.5343 18.9138 32.4888 18.7784 32.4708C18.643 32.4528 18.5053 32.4628 18.3739 32.5C18.2409 32.5358 18.1168 32.5987 18.0092 32.6848C17.9017 32.7708 17.8131 32.8781 17.7489 33C17.6516 33.2406 17.6516 33.5095 17.7489 33.75L18.4989 36.875L17.4989 36.25L16.1239 31.25C16.0643 31.0069 15.9157 30.795 15.7074 30.6561C15.4991 30.5172 15.2463 30.4615 14.9989 30.5C14.8659 30.5358 14.7418 30.5987 14.6342 30.6848C14.5267 30.7708 14.4381 30.8781 14.3739 31C14.2351 31.2238 14.1902 31.4933 14.2489 31.75L15.1239 34.875L14.1239 34.25L12.7489 29.25C12.6923 29.03 12.5623 28.8359 12.3806 28.6995C12.1988 28.5632 11.976 28.4928 11.7489 28.5ZM34.2489 40.5L49.4989 53.875C51.6239 52.25 53.4989 50.125 54.9989 47.875L34.2489 40.5Z" fill="#6DA544"/>
<path d="M32.0004 60L29.3754 56.375L25.5004 58.75L24.5004 54.375L20.0004 55L20.7504 50.625L16.2504 49.5L18.6254 45.625L15.0004 43L18.6254 40.375L16.2504 36.5L20.7504 35.5L20.0004 31L24.5004 31.75L25.5004 27.25L29.3754 29.625L32.0004 26L34.6254 29.625L38.5004 27.25L39.5004 31.75L44.0004 31L43.2504 35.5L47.7504 36.5L45.3754 40.375L49.0004 43L45.3754 45.625L47.7504 49.5L43.2504 50.5L44.0004 55L39.5004 54.375L38.5004 58.75L34.6254 56.375L32.0004 60ZM32.0004 5L30.7504 6.375C29.8754 7.75 29.6254 9.125 30.1254 10.25L31.0004 12.375C30.5004 11.625 29.8754 11.125 29.1254 10.875C28.6254 10.75 27.7504 10.875 27.1254 11.5C26.2504 12.25 25.8754 14.5 28.5004 14.875C28.2504 14.5 28.2504 13.75 28.8754 13.5C29.2504 13.25 29.7504 13.375 29.8754 13.5C30.1254 13.625 30.3754 14 30.5004 14.375H29.8754V15.625H30.6254C30.3754 16.375 29.8754 16.75 28.7504 17.625C29.7504 17.75 30.8754 17 31.1254 16.75L31.3754 16.125L31.2504 18.625C31.3754 19.25 31.5004 19.5 32.0004 20C32.5004 19.5 32.6254 19.25 32.7504 18.625L32.6254 16.125L32.8754 16.625C33.1254 17 34.2504 17.75 35.2504 17.75C34.1254 16.75 33.6254 16.375 33.5004 15.625H34.1254V14.375H33.5004C33.6254 14 33.8754 13.625 34.1254 13.5C34.2504 13.375 34.7504 13.25 35.2504 13.5C35.7504 13.75 35.7504 14.5 35.5004 14.875C38.1254 14.5 37.7504 12.25 36.8754 11.5C36.2504 10.875 35.5004 10.75 34.8754 10.875C34.1254 11.125 33.5004 11.625 33.0004 12.375L33.8754 10.25C34.3754 9.125 34.1254 7.75 33.2504 6.375L32.0004 5ZM44.0004 5L42.7504 6.375C41.8754 7.75 41.6254 9.125 42.1254 10.25L43.0004 12.375C42.5004 11.625 41.8754 11.125 41.1254 10.875C40.5004 10.75 39.7504 10.875 39.0004 11.5C38.2504 12.25 37.8754 14.5 40.5004 14.875C40.2504 14.5 40.2504 13.75 40.8754 13.5C41.2504 13.25 41.7504 13.375 41.8754 13.5C42.1254 13.625 42.3754 14 42.5004 14.375H41.8754V15.625H42.5004C42.3754 16.375 41.8754 16.75 40.7504 17.625C41.7504 17.75 42.8754 17 43.1254 16.75L43.3754 16.125L43.2504 18.625C43.3754 19.25 43.5004 19.5 44.0004 20C44.5004 19.5 44.6254 19.25 44.7504 18.625L44.6254 16.125L44.8754 16.625C45.1254 17 46.2504 17.75 47.2504 17.75C46.1254 16.75 45.6254 16.375 45.3754 15.625H46.1254V14.375H45.5004C45.6254 14 45.8754 13.625 46.1254 13.5C46.2504 13.375 46.7504 13.25 47.1254 13.5C47.7504 13.75 47.7504 14.5 47.5004 14.875C50.1254 14.5 49.7504 12.25 48.8754 11.5C48.2504 10.875 47.5004 10.75 46.8754 10.875C46.1254 11.125 45.5004 11.625 45.0004 12.375L45.8754 10.25C46.3754 9.125 46.1254 7.75 45.2504 6.375L44.0004 5ZM20.0004 5L18.7504 6.375C17.8754 7.75 17.6254 9.125 18.1254 10.25L19.0004 12.375C18.5004 11.625 17.8754 11.125 17.1254 10.875C16.6254 10.75 15.7504 10.875 15.1254 11.5C14.2504 12.25 13.8754 14.5 16.5004 14.875C16.2504 14.5 16.2504 13.75 16.8754 13.5C17.2504 13.25 17.7504 13.375 17.8754 13.5C18.1254 13.625 18.3754 14 18.5004 14.375H17.8754V15.625H18.6254C18.3754 16.375 17.8754 16.75 16.7504 17.625C17.7504 17.75 18.8754 17 19.1254 16.75L19.3754 16.125L19.2504 18.625C19.3754 19.25 19.5004 19.5 20.0004 20C20.5004 19.5 20.6254 19.25 20.7504 18.625L20.6254 16.125L20.8754 16.625C21.1254 17 22.2504 17.75 23.2504 17.75C22.1254 16.75 21.6254 16.375 21.5004 15.625H22.1254V14.375H21.5004C21.6254 14 21.8754 13.625 22.1254 13.5C22.2504 13.375 22.7504 13.25 23.2504 13.5C23.7504 13.75 23.7504 14.5 23.5004 14.875C26.1254 14.5 25.8754 12.25 25.0004 11.5C24.2504 10.875 23.5004 10.75 22.8754 10.875C22.1254 11.125 21.5004 11.625 21.0004 12.375L21.8754 10.25C22.3754 9.125 22.1254 7.75 21.2504 6.375L20.0004 5Z" fill="#FFDA44"/>
</g>
</g>
<defs>
<clipPath id="clip0_233_81">
<rect width="64" height="64" fill="white"/>
</clipPath>
</defs>
</svg>
