<svg width="64" height="64" viewBox="0 0 64 64" fill="none" xmlns="http://www.w3.org/2000/svg">
<g clip-path="url(#clip0_224_195)">
<mask id="mask0_224_195" style="mask-type:luminance" maskUnits="userSpaceOnUse" x="0" y="0" width="64" height="64">
<path d="M32 64C49.6731 64 64 49.6731 64 32C64 14.3269 49.6731 0 32 0C14.3269 0 0 14.3269 0 32C0 49.6731 14.3269 64 32 64Z" fill="white"/>
</mask>
<g mask="url(#mask0_224_195)">
<path d="M0 0H64V64H0V0Z" fill="#D80027"/>
<path d="M35.3 24.2125C34.575 27.2375 33.2875 26.6625 32.65 29.3C30.8871 28.8389 29.3753 27.705 28.4389 26.1418C27.5026 24.5786 27.2164 22.7106 27.6417 20.9388C28.0671 19.1669 29.1701 17.6324 30.7141 16.6647C32.2581 15.6969 34.1199 15.373 35.9 15.7625C34.6375 21.0375 35.95 21.5125 35.3 24.2125ZM25.625 26.45C28.275 28.075 27.325 29.125 29.6375 30.55C28.6395 32.0508 27.0984 33.1061 25.3383 33.494C23.5782 33.8819 21.7363 33.5722 20.1999 32.6299C18.6635 31.6877 17.5523 30.1864 17.1001 28.4417C16.6478 26.697 16.8898 24.8449 17.775 23.275C22.4 26.1125 23.25 25 25.625 26.45ZM24.75 36.3625C27.125 34.3375 27.8375 35.5625 29.9 33.8125C31.0043 35.2271 31.5197 37.0136 31.3387 38.7991C31.1576 40.5846 30.2942 42.2312 28.9284 43.3954C27.5626 44.5596 25.8 45.1515 24.0084 45.0475C22.2168 44.9436 20.5345 44.1518 19.3125 42.8375C23.4375 39.3125 22.6375 38.1625 24.7625 36.3625H24.75ZM33.925 40.2375C32.725 37.3625 34.1125 37.075 33.075 34.575C34.759 33.9681 36.612 34.0331 38.2493 34.7565C39.8866 35.4799 41.1823 36.8061 41.8676 38.4597C42.5529 40.1133 42.5749 41.9673 41.9292 43.6368C41.2835 45.3062 40.0196 46.6628 38.4 47.425C36.325 42.425 34.9875 42.8125 33.925 40.25V40.2375ZM40.45 32.7375C37.3375 32.9875 37.4875 31.575 34.7875 31.7875C34.7053 29.9822 35.3282 28.2157 36.5246 26.8613C37.721 25.5069 39.3971 24.6707 41.1988 24.5295C43.0004 24.3883 44.7863 24.9531 46.1791 26.1046C47.5719 27.256 48.4625 28.9039 48.6625 30.7C43.25 31.125 43.2125 32.5125 40.45 32.7375Z" fill="#EEEEEE"/>
</g>
</g>
<defs>
<clipPath id="clip0_224_195">
<rect width="64" height="64" fill="white"/>
</clipPath>
</defs>
</svg>
