<svg width="64" height="64" viewBox="0 0 64 64" fill="none" xmlns="http://www.w3.org/2000/svg">
<g clip-path="url(#clip0_233_90)">
<mask id="mask0_233_90" style="mask-type:luminance" maskUnits="userSpaceOnUse" x="0" y="0" width="64" height="64">
<path d="M32 64C49.6731 64 64 49.6731 64 32C64 14.3269 49.6731 0 32 0C14.3269 0 0 14.3269 0 32C0 49.6731 14.3269 64 32 64Z" fill="white"/>
</mask>
<g mask="url(#mask0_233_90)">
<path d="M0 0H64V18.0875L58.9375 32.1625L64 45.9125V64H0V45.9125L5.275 31.6625L0 18.0875V0Z" fill="#338AF3"/>
<path d="M0 18.0874H64V45.9124H0V18.0874Z" fill="#EEEEEE"/>
<path d="M19.6883 20.875L20.7258 24.0625H24.0883L21.3758 26.025L22.4008 29.2125L19.6883 27.25L16.9758 29.2125L18.0133 26.025L15.3008 24.0625H18.6633L19.6883 20.875ZM19.6883 34.7875L20.7258 37.975H24.0883L21.3758 39.9375L22.4008 43.125L19.6883 41.1625L16.9758 43.125L18.0133 39.9375L15.3008 37.975H18.6633L19.6883 34.7875ZM44.3133 20.875L45.3383 24.0625H48.7008L45.9883 26.025L47.0258 29.2125L44.3133 27.25L41.6008 29.2125L42.6258 26.025L39.9133 24.0625H43.2758L44.3133 20.875ZM44.3133 34.7875L45.3383 37.975H48.7008L45.9883 39.9375L47.0258 43.125L44.3133 41.1625L41.6008 43.125L42.6258 39.9375L39.9133 37.975H43.2758L44.3133 34.7875ZM32.0008 27.825L33.0383 31.0125H36.3758L33.6758 33L34.7133 36.1875L32.0008 34.2125L29.2883 36.1875L30.3258 33L27.6133 31.025H30.9633L32.0008 27.825Z" fill="#338AF3"/>
</g>
</g>
<defs>
<clipPath id="clip0_233_90">
<rect width="64" height="64" fill="white"/>
</clipPath>
</defs>
</svg>
