<svg width="64" height="64" viewBox="0 0 64 64" fill="none" xmlns="http://www.w3.org/2000/svg">
<g clip-path="url(#clip0_233_122)">
<mask id="mask0_233_122" style="mask-type:luminance" maskUnits="userSpaceOnUse" x="0" y="0" width="64" height="64">
<path d="M32 64C49.6731 64 64 49.6731 64 32C64 14.3269 49.6731 0 32 0C14.3269 0 0 14.3269 0 32C0 49.6731 14.3269 64 32 64Z" fill="white"/>
</mask>
<g mask="url(#mask0_233_122)">
<path d="M0 0H64V6.9625L60.875 11.05L64 15.3V48.7L60.75 53.2L64 57.0375V64H0V57.0375L3.1 52.775L0 48.7V15.3L3.4 11.15L0 6.9625V0Z" fill="#EEEEEE"/>
<path d="M0 6.9624V15.2999H64V6.9624H0ZM0 48.6999V57.0374H64V48.6999H0ZM44.05 25.0374H36L32 18.0874L27.9875 25.0374H19.95L23.9625 31.9999L19.9625 38.9624H27.9875L32 45.9124L36.0125 38.9624H44.05L40.0375 31.9999L44.0375 25.0374H44.05ZM36.925 31.9999L34.4625 36.2749H29.5375L27.0625 31.9999L29.5375 27.7249H34.4625L36.9375 31.9999H36.925ZM32 23.4499L32.9125 25.0374H31.0875L32 23.4499ZM24.6 27.7249H26.4375L25.5125 29.3124L24.6 27.7249ZM24.6 36.2749L25.5125 34.6874L26.4375 36.2749H24.6ZM32 40.5499L31.0875 38.9624H32.9125L32 40.5499ZM39.4 36.2749H37.5625L38.4875 34.6874L39.4 36.2749ZM37.5625 27.7249H39.4L38.4875 29.3124L37.5625 27.7249Z" fill="#0052B4"/>
</g>
</g>
<defs>
<clipPath id="clip0_233_122">
<rect width="64" height="64" fill="white"/>
</clipPath>
</defs>
</svg>
