<svg width="64" height="64" viewBox="0 0 64 64" fill="none" xmlns="http://www.w3.org/2000/svg">
<g clip-path="url(#clip0_233_129)">
<mask id="mask0_233_129" style="mask-type:luminance" maskUnits="userSpaceOnUse" x="0" y="0" width="64" height="64">
<path d="M32 64C49.6731 64 64 49.6731 64 32C64 14.3269 49.6731 0 32 0C14.3269 0 0 14.3269 0 32C0 49.6731 14.3269 64 32 64Z" fill="white"/>
</mask>
<g mask="url(#mask0_233_129)">
<path d="M0 18.0877L32.35 4.9502L64 18.0877V45.9127L32.125 61.6252L0 45.9127V18.0877Z" fill="#EEEEEE"/>
<path d="M0 0V18.0875H13.2V15.3125H17.4V18.0875H21.5625V15.3125H25.7625V18.0875H29.925V15.3125H34.125V18.0875H38.25V15.3125H42.45V18.0875H46.6V15.3125H50.8V18.0875H64V0H0Z" fill="#6DA544"/>
<path d="M0 45.9126V64.0001H64V45.9126H50.8V48.7126H46.6V45.9126H42.45V48.7126H38.25V45.9126H34.125V48.7126H29.925V45.9126H25.7625V48.7126H21.5625V45.9126H17.4V48.7126H13.2V45.9126H0ZM42.3875 23.6626H38.2125C38.2375 24.1251 38.2625 24.5876 38.2625 25.0501C38.2625 28.1501 37.4875 31.1501 36.1375 33.3001C35.725 33.9501 35.0125 34.8751 34.0875 35.5001V23.6626H29.9125V35.5126C28.975 34.8876 28.2875 33.9626 27.8625 33.3001C26.5125 31.1751 25.7375 28.1751 25.7375 25.0626C25.7375 24.6001 25.7625 24.1376 25.7875 23.6876H21.625C21.5951 24.1454 21.5784 24.6039 21.575 25.0626C21.575 33.6501 26.1625 40.3751 32.0125 40.3751C37.8625 40.3751 42.45 33.6501 42.45 25.0626C42.45 24.6001 42.4375 24.1376 42.4 23.6876L42.3875 23.6626Z" fill="#D80027"/>
</g>
</g>
<defs>
<clipPath id="clip0_233_129">
<rect width="64" height="64" fill="white"/>
</clipPath>
</defs>
</svg>
