<svg width="64" height="64" viewBox="0 0 64 64" fill="none" xmlns="http://www.w3.org/2000/svg">
<g clip-path="url(#clip0_224_1109)">
<mask id="mask0_224_1109" style="mask-type:luminance" maskUnits="userSpaceOnUse" x="0" y="0" width="64" height="64">
<path d="M32 64C49.6731 64 64 49.6731 64 32C64 14.3269 49.6731 0 32 0C14.3269 0 0 14.3269 0 32C0 49.6731 14.3269 64 32 64Z" fill="white"/>
</mask>
<g mask="url(#mask0_224_1109)">
<path d="M0 50.2375L21.7 22.075L50.2375 0H56.125L64 7.875L63.9875 13.7875L43.075 41.725L13.7875 64H7.875L0 56.125V50.2375Z" fill="#FFDA44"/>
<path d="M0 0V50.2375L50.2375 0H0Z" fill="#6DA544"/>
<path d="M63.9996 64.0001V13.7876L13.7871 64.0001H63.9996Z" fill="#D80027"/>
<path d="M0 64H7.875L64 7.875V0H56.125L0 56.125V64Z" fill="#333333"/>
<path d="M20.35 37.7498L23.35 39.2748L25.725 36.8998L25.175 40.2123L28.175 41.7373L24.85 42.2623L24.325 45.5748L22.825 42.5748L19.5 43.1248L21.875 40.7498L20.35 37.7498ZM37.75 20.3498L40.75 21.8623L43.125 19.4873L42.5875 22.8123L45.5875 24.3248L42.2625 24.8498L41.7375 28.1623L40.2125 25.1748L36.9 25.6998L39.275 23.3248L37.75 20.3498Z" fill="#EEEEEE"/>
</g>
</g>
<defs>
<clipPath id="clip0_224_1109">
<rect width="64" height="64" fill="white"/>
</clipPath>
</defs>
</svg>
