<svg width="64" height="64" viewBox="0 0 64 64" fill="none" xmlns="http://www.w3.org/2000/svg">
<g clip-path="url(#clip0_218_423)">
<mask id="mask0_218_423" style="mask-type:luminance" maskUnits="userSpaceOnUse" x="0" y="0" width="64" height="64">
<path d="M32 64C49.6731 64 64 49.6731 64 32C64 14.3269 49.6731 0 32 0C14.3269 0 0 14.3269 0 32C0 49.6731 14.3269 64 32 64Z" fill="white"/>
</mask>
<g mask="url(#mask0_218_423)">
<path d="M0 0H64V64H0V0Z" fill="#338AF3"/>
<path d="M50.0875 32.35H13.9125C13.9125 34.85 16.0875 36.875 18.5875 36.875H18.4375C18.4375 39.375 20.4625 41.3875 22.9625 41.3875C22.9625 43.8875 24.975 45.9125 27.475 45.9125H36.525C39.025 45.9125 41.0375 43.8875 41.0375 41.3875C43.5375 41.3875 45.5625 39.3625 45.5625 36.875H45.4125C47.9125 36.875 50.0875 34.85 50.0875 32.35Z" fill="#FFDA44"/>
<path d="M44.525 26.4375C44.525 29.7593 43.2054 32.9451 40.8565 35.294C38.5076 37.6429 35.3218 38.9625 32 38.9625C28.6782 38.9625 25.4924 37.6429 23.1435 35.294C20.7946 32.9451 19.475 29.7593 19.475 26.4375" fill="#338AF3"/>
<path d="M41.5625 26.4375L37.65 28.275L39.7375 32.0625L35.4875 31.25L34.95 35.5375L32 32.375L29.05 35.5375L28.5 31.25L24.25 32.0625L26.325 28.275L22.425 26.4375L26.325 24.6L24.25 20.8125L28.5 21.625L29.0375 17.3375L31.9875 20.4875L34.9375 17.3375L35.5 21.625L39.75 20.8125L37.675 24.6L41.5625 26.4375Z" fill="#FFDA44"/>
</g>
</g>
<defs>
<clipPath id="clip0_218_423">
<rect width="64" height="64" fill="white"/>
</clipPath>
</defs>
</svg>
