<svg width="64" height="64" viewBox="0 0 64 64" fill="none" xmlns="http://www.w3.org/2000/svg">
<g clip-path="url(#clip0_240_568)">
<mask id="mask0_240_568" style="mask-type:luminance" maskUnits="userSpaceOnUse" x="0" y="0" width="64" height="64">
<path d="M32 64C49.6731 64 64 49.6731 64 32C64 14.3269 49.6731 0 32 0C14.3269 0 0 14.3269 0 32C0 49.6731 14.3269 64 32 64Z" fill="white"/>
</mask>
<g mask="url(#mask0_240_568)">
<path d="M0 29.0875L32 0H64L61.6 3L64 5.8V11.6375L61.55 14.4625L64 17.45V23.2625L61.725 26.125L64 29.0875V34.9125L61.625 38L64 40.725V46.55L61.75 49.4875L64 52.3625V58.1875L32.3375 60.8125L0 58.1875V52.3625L2.35 49.6625L0 46.55V40.725L2.45 37.9875L0 34.9125V29.0875Z" fill="#EEEEEE"/>
<path d="M32 0L29.25 5.8125H64V0H32ZM29.8625 11.65V17.4625H64V11.65H29.8625ZM29.25 23.275L32 29.0875H64V23.275H29.25ZM0 34.9125V40.725H64V34.9125H0ZM0 46.55V52.3625H64V46.55H0ZM0 58.1875V64H64V58.1875H0Z" fill="#D80027"/>
<path d="M0 0H32V29.0875H0V0Z" fill="#0052B4"/>
<path d="M19.0484 8.34961L21.1234 14.7246H27.8234L22.3984 18.6621L24.4734 25.0371L19.0484 21.0996L13.6234 25.0371L15.6984 18.6621L10.2734 14.7246H16.9734L19.0484 8.34961Z" fill="#EEEEEE"/>
</g>
</g>
<defs>
<clipPath id="clip0_240_568">
<rect width="64" height="64" fill="white"/>
</clipPath>
</defs>
</svg>
