<svg width="64" height="64" viewBox="0 0 64 64" fill="none" xmlns="http://www.w3.org/2000/svg">
<g clip-path="url(#clip0_233_194)">
<mask id="mask0_233_194" style="mask-type:luminance" maskUnits="userSpaceOnUse" x="0" y="0" width="64" height="64">
<path d="M32 64C49.6731 64 64 49.6731 64 32C64 14.3269 49.6731 0 32 0C14.3269 0 0 14.3269 0 32C0 49.6731 14.3269 64 32 64Z" fill="white"/>
</mask>
<g mask="url(#mask0_233_194)">
<path d="M0 0H64V64H0V0Z" fill="#D80027"/>
<path d="M50.9109 26.2501H36.4609L31.9984 12.5376L27.5359 26.2501H13.0859L24.7734 34.7501L20.3109 48.4751L31.9984 40.0001L43.6859 48.5001L39.2234 34.7501L50.9109 26.2501ZM28.0359 33.6876L29.5609 29.0501H34.4359L35.9484 33.6876L31.9984 36.5626L28.0484 33.6876H28.0359ZM33.5359 26.2626H30.4609L31.9984 21.5251L33.5359 26.2626ZM38.3234 31.9751L37.3609 29.0501H42.3484L38.3234 31.9751ZM26.6234 29.0501L25.6609 31.9751L21.6359 29.0501H26.6234ZM25.5859 41.2126L27.1234 36.4626L29.6234 38.2751L25.5859 41.2126ZM34.3484 38.2876L36.8484 36.4751L38.3859 41.2126L34.3484 38.2876Z" fill="#496E2D"/>
</g>
</g>
<defs>
<clipPath id="clip0_233_194">
<rect width="64" height="64" fill="white"/>
</clipPath>
</defs>
</svg>
