<svg width="64" height="64" viewBox="0 0 64 64" fill="none" xmlns="http://www.w3.org/2000/svg">
<g clip-path="url(#clip0_240_198)">
<mask id="mask0_240_198" style="mask-type:luminance" maskUnits="userSpaceOnUse" x="0" y="0" width="64" height="64">
<path d="M32 64C49.6731 64 64 49.6731 64 32C64 14.3269 49.6731 0 32 0C14.3269 0 0 14.3269 0 32C0 49.6731 14.3269 64 32 64Z" fill="white"/>
</mask>
<g mask="url(#mask0_240_198)">
<path d="M0 0H18.0875L22.5875 31.825L18.0875 64H0V0Z" fill="#0052B4"/>
<path d="M45.9117 0H63.9992V64H45.9117L42.1992 31.8375L45.9117 0Z" fill="#D80027"/>
<path d="M18.0859 0H45.9109V64H18.0859V0Z" fill="#FFDA44"/>
<path d="M43.1359 25.1752H35.4984C35.4984 24.2536 35.1323 23.3697 34.4806 22.718C33.8289 22.0663 32.9451 21.7002 32.0234 21.7002C31.1018 21.7002 30.2179 22.0663 29.5662 22.718C28.9146 23.3697 28.5484 24.2536 28.5484 25.1752H20.8984C20.9245 26.0948 21.3091 26.9678 21.9701 27.6077C22.631 28.2477 23.516 28.6038 24.4359 28.6002H24.3109C24.3109 29.051 24.3999 29.4974 24.5728 29.9138C24.7457 30.3301 24.9991 30.7083 25.3185 31.0265C25.6379 31.3447 26.0169 31.5967 26.4339 31.7681C26.8509 31.9395 27.2976 32.0268 27.7484 32.0252C27.7484 33.7002 28.9484 35.0877 30.5359 35.4002L27.8359 41.4877C29.1661 42.0267 30.5882 42.3026 32.0234 42.3002C33.4587 42.3026 34.8808 42.0267 36.2109 41.4877L33.5109 35.3752C34.2943 35.2268 35.0014 34.8097 35.5102 34.1959C36.0191 33.5821 36.2978 32.81 36.2984 32.0127C37.2068 32.0127 38.078 31.6518 38.7203 31.0095C39.3626 30.3672 39.7234 29.4961 39.7234 28.5877H39.6109C40.5309 28.5913 41.4159 28.2351 42.0768 27.5952C42.7378 26.9553 43.1223 26.0823 43.1484 25.1627L43.1359 25.1752Z" fill="#FF9811"/>
<path d="M32.0125 29.9121L27.5 31.9996V36.1746L32.025 38.9621L36.55 36.1746V31.9996L32.0125 29.9121Z" fill="#0052B4"/>
<path d="M27.5 27.8252H36.5375V32.0002H27.5V27.8252Z" fill="#D80027"/>
</g>
</g>
<defs>
<clipPath id="clip0_240_198">
<rect width="64" height="64" fill="white"/>
</clipPath>
</defs>
</svg>
