<svg width="64" height="64" viewBox="0 0 64 64" fill="none" xmlns="http://www.w3.org/2000/svg">
<g clip-path="url(#clip0_233_229)">
<mask id="mask0_233_229" style="mask-type:luminance" maskUnits="userSpaceOnUse" x="0" y="0" width="64" height="64">
<path d="M32 64C49.6731 64 64 49.6731 64 32C64 14.3269 49.6731 0 32 0C14.3269 0 0 14.3269 0 32C0 49.6731 14.3269 64 32 64Z" fill="white"/>
</mask>
<g mask="url(#mask0_233_229)">
<path d="M0 0H32L38.5 32.4L32 64H0V0Z" fill="#EEEEEE"/>
<path d="M32 0H64V64H32V0Z" fill="#D80027"/>
<path d="M22.2516 12.5251V8.3501H18.0891V12.5251H13.9141V16.7001H18.0891V20.8751H22.2641V16.7001H26.4391V12.5251H22.2516Z" fill="#ACABB1"/>
</g>
</g>
<defs>
<clipPath id="clip0_233_229">
<rect width="64" height="64" fill="white"/>
</clipPath>
</defs>
</svg>
