<svg width="64" height="64" viewBox="0 0 64 64" fill="none" xmlns="http://www.w3.org/2000/svg">
<g clip-path="url(#clip0_240_784)">
<mask id="mask0_240_784" style="mask-type:luminance" maskUnits="userSpaceOnUse" x="0" y="0" width="64" height="64">
<path d="M32 64C49.6731 64 64 49.6731 64 32C64 14.3269 49.6731 0 32 0C14.3269 0 0 14.3269 0 32C0 49.6731 14.3269 64 32 64Z" fill="white"/>
</mask>
<g mask="url(#mask0_240_784)">
<path d="M0 0H64V29.2125L61.7875 32.125L64 34.7875V64H0V34.7875L2.3375 31.925L0 29.2125V0Z" fill="#0052B4"/>
<path d="M26.4375 43.1246L22.85 44.8121L24.7625 48.2871L20.8625 47.5371L20.3625 51.4746L17.6625 48.5871L14.95 51.4746L14.45 47.5496L10.5625 48.2996L12.475 44.8121L8.875 43.1246L12.4625 41.4496L10.55 37.9746L14.4375 38.7246L14.9375 34.7871L17.65 37.6746L20.3625 34.7871L20.8625 38.7121L24.7375 37.9621L22.8375 41.4496L26.4375 43.1246Z" fill="#EEEEEE"/>
<path d="M0 29.2129H64V34.7879H0V29.2129Z" fill="#FFDA44"/>
</g>
</g>
<defs>
<clipPath id="clip0_240_784">
<rect width="64" height="64" fill="white"/>
</clipPath>
</defs>
</svg>
