<svg width="64" height="64" viewBox="0 0 64 64" fill="none" xmlns="http://www.w3.org/2000/svg">
<g clip-path="url(#clip0_240_812)">
<mask id="mask0_240_812" style="mask-type:luminance" maskUnits="userSpaceOnUse" x="0" y="0" width="64" height="64">
<path d="M32 64C49.6731 64 64 49.6731 64 32C64 14.3269 49.6731 0 32 0C14.3269 0 0 14.3269 0 32C0 49.6731 14.3269 64 32 64Z" fill="white"/>
</mask>
<g mask="url(#mask0_240_812)">
<path d="M23.65 0H64V20.875L20.5625 23.95L23.65 0Z" fill="#EEEEEE"/>
<path d="M20.375 40L64 43.125V64H23.65L20.375 40Z" fill="#6DA544"/>
<path d="M0 0H23.65V20.875H64V43.125H23.65V64H0V0Z" fill="#D80027"/>
<path d="M19.575 14.0875L16.625 11.125L14.6625 13.1L12.6875 11.125L9.75 14.0875L11.725 16.05L9.75 18L12.7 20.95L14.675 18.9875L16.6375 20.95L19.5875 18L17.625 16.0375L19.575 14.0875Z" fill="#EEEEEE"/>
</g>
</g>
<defs>
<clipPath id="clip0_240_812">
<rect width="64" height="64" fill="white"/>
</clipPath>
</defs>
</svg>
