<svg width="64" height="64" viewBox="0 0 64 64" fill="none" xmlns="http://www.w3.org/2000/svg">
<g clip-path="url(#clip0_233_327)">
<mask id="mask0_233_327" style="mask-type:luminance" maskUnits="userSpaceOnUse" x="0" y="0" width="64" height="64">
<path d="M32 64C49.6731 64 64 49.6731 64 32C64 14.3269 49.6731 0 32 0C14.3269 0 0 14.3269 0 32C0 49.6731 14.3269 64 32 64Z" fill="white"/>
</mask>
<g mask="url(#mask0_233_327)">
<path d="M0 0H64V64H0V0Z" fill="#338AF3"/>
<path d="M25.0375 45.9124C32.7212 45.9124 38.95 39.6836 38.95 31.9999C38.95 24.3162 32.7212 18.0874 25.0375 18.0874C17.3538 18.0874 11.125 24.3162 11.125 31.9999C11.125 39.6836 17.3538 45.9124 25.0375 45.9124Z" fill="#FFDA44"/>
</g>
</g>
<defs>
<clipPath id="clip0_233_327">
<rect width="64" height="64" fill="white"/>
</clipPath>
</defs>
</svg>
