<svg width="64" height="64" viewBox="0 0 64 64" fill="none" xmlns="http://www.w3.org/2000/svg">
<g clip-path="url(#clip0_240_274)">
<mask id="mask0_240_274" style="mask-type:luminance" maskUnits="userSpaceOnUse" x="0" y="0" width="64" height="64">
<path d="M32 64C49.6731 64 64 49.6731 64 32C64 14.3269 49.6731 0 32 0C14.3269 0 0 14.3269 0 32C0 49.6731 14.3269 64 32 64Z" fill="white"/>
</mask>
<g mask="url(#mask0_240_274)">
<path d="M0 32.0004L32 25.4629L64 32.0004V64.0004H0V32.0004Z" fill="#338AF3"/>
<path d="M0 0H64V32H0V0Z" fill="#EEEEEE"/>
<path d="M44.6993 22.0752L31.9993 34.7877L19.2993 22.0752C17.5985 24.5971 16.6929 27.5709 16.6993 30.6127V34.7877C16.6993 41.4877 21.0243 47.1877 27.0368 49.2627C26.6293 50.0556 26.4598 50.9495 26.5485 51.8365C26.6372 52.7236 26.9804 53.5661 27.5368 54.2627L32.0868 50.6127L36.6368 54.2627C37.2038 53.5588 37.5522 52.7042 37.6388 51.8045C37.7255 50.9047 37.5466 49.9994 37.1243 49.2002C40.0986 48.139 42.6724 46.1848 44.4937 43.605C46.315 41.0251 47.2949 37.9456 47.2993 34.7877V30.6127C47.2993 27.4502 46.3493 24.5252 44.6993 22.0752Z" fill="#6DA544"/>
<path d="M32 45.9129C25.8625 45.9129 20.875 40.9129 20.875 34.7879V30.6129C21.0106 27.7536 22.2419 25.0563 24.3134 23.0807C26.3849 21.1051 29.1375 20.0029 32 20.0029C34.8625 20.0029 37.6151 21.1051 39.6866 23.0807C41.7581 25.0563 42.9894 27.7536 43.125 30.6129V34.7879C43.125 40.9129 38.1375 45.9129 32 45.9129Z" fill="#FFDA44"/>
<path d="M38.9641 34.7879V30.6129C38.9641 28.7663 38.2305 26.9954 36.9248 25.6897C35.6191 24.3839 33.8481 23.6504 32.0016 23.6504C30.155 23.6504 28.3841 24.3839 27.0783 25.6897C25.7726 26.9954 25.0391 28.7663 25.0391 30.6129V34.7879L32.0016 36.1629L38.9641 34.7879Z" fill="#338AF3"/>
<path d="M25.0391 34.7871C25.0391 36.6337 25.7726 38.4046 27.0783 39.7103C28.3841 41.0161 30.155 41.7496 32.0016 41.7496C33.8481 41.7496 35.6191 41.0161 36.9248 39.7103C38.2305 38.4046 38.9641 36.6337 38.9641 34.7871H25.0391Z" fill="#6DA544"/>
<path d="M40.3505 19.475C40.3512 18.6669 40.1172 17.8759 39.6771 17.1982C39.237 16.5204 38.6097 15.9849 37.8712 15.6567C37.1327 15.3285 36.3148 15.2217 35.5168 15.3492C34.7188 15.4767 33.975 15.833 33.3755 16.375V13.925H34.7755V11.125H33.3755V9.75H30.6255V11.125H29.2255V13.9125H30.6255V16.3625C29.7961 15.652 28.7213 15.2947 27.6315 15.3674C26.5418 15.4401 25.5239 15.9369 24.7962 16.7513C24.0685 17.5657 23.6889 18.6328 23.7387 19.7238C23.7886 20.8149 24.264 21.8429 25.063 22.5875V25.0375H38.9755V22.5875C39.8255 21.825 40.3505 20.7125 40.3505 19.475Z" fill="#FFDA44"/>
</g>
</g>
<defs>
<clipPath id="clip0_240_274">
<rect width="64" height="64" fill="white"/>
</clipPath>
</defs>
</svg>
