<svg width="64" height="64" viewBox="0 0 64 64" fill="none" xmlns="http://www.w3.org/2000/svg">
<g clip-path="url(#clip0_240_458)">
<mask id="mask0_240_458" style="mask-type:luminance" maskUnits="userSpaceOnUse" x="0" y="0" width="64" height="64">
<path d="M32 64C49.6731 64 64 49.6731 64 32C64 14.3269 49.6731 0 32 0C14.3269 0 0 14.3269 0 32C0 49.6731 14.3269 64 32 64Z" fill="white"/>
</mask>
<g mask="url(#mask0_240_458)">
<path d="M0 0L26.75 31.475L0 64L52.25 32L0 0Z" fill="#FFDA44"/>
<path d="M64 0H0L45.9125 32L0 64H64V0Z" fill="#D80027"/>
<path d="M0 0V64L32 32L0 0Z" fill="#333333"/>
<path d="M8.87344 24.6748L13.7484 29.2748L19.6234 26.0748L16.7484 32.1248L21.6234 36.7373L14.9734 35.8623L12.0984 41.9248L10.8609 35.3373L4.21094 34.4623L10.0984 31.2623L8.87344 24.6748Z" fill="#EEEEEE"/>
</g>
</g>
<defs>
<clipPath id="clip0_240_458">
<rect width="64" height="64" fill="white"/>
</clipPath>
</defs>
</svg>
