<svg width="64" height="64" viewBox="0 0 64 64" fill="none" xmlns="http://www.w3.org/2000/svg">
<g clip-path="url(#clip0_218_138)">
<mask id="mask0_218_138" style="mask-type:luminance" maskUnits="userSpaceOnUse" x="0" y="0" width="64" height="64">
<path d="M32 64C49.6731 64 64 49.6731 64 32C64 14.3269 49.6731 0 32 0C14.3269 0 0 14.3269 0 32C0 49.6731 14.3269 64 32 64Z" fill="white"/>
</mask>
<g mask="url(#mask0_218_138)">
<path d="M0 32L32 0H64V64H0V32Z" fill="#D80027"/>
<path d="M0 0H32V32H0V0Z" fill="#EEEEEE"/>
<path d="M20.875 16.7V12.525H16.7V16.7H12.525V20.875H16.7V25.0375H20.875V20.875H25.0375V16.7H20.875Z" fill="#D80027"/>
</g>
</g>
<defs>
<clipPath id="clip0_218_138">
<rect width="64" height="64" fill="white"/>
</clipPath>
</defs>
</svg>
