<svg width="64" height="64" viewBox="0 0 64 64" fill="none" xmlns="http://www.w3.org/2000/svg">
<g clip-path="url(#clip0_240_317)">
<mask id="mask0_240_317" style="mask-type:luminance" maskUnits="userSpaceOnUse" x="0" y="0" width="64" height="64">
<path d="M32 64C49.6731 64 64 49.6731 64 32C64 14.3269 49.6731 0 32 0C14.3269 0 0 14.3269 0 32C0 49.6731 14.3269 64 32 64Z" fill="white"/>
</mask>
<g mask="url(#mask0_240_317)">
<path d="M0 22.25L31.775 19.5L64 22.25V25.0375L58.975 31.8L64 38.9625V41.75L32.25 44.675L0 41.75V38.9625L4.5875 31.5375L0 25.0375V22.25Z" fill="#D80027"/>
<path d="M0 0H64V22.25H0V0Z" fill="#338AF3"/>
<path d="M0 25.0371H64V38.9621H0V25.0371Z" fill="#EEEEEE"/>
<path d="M0 41.75H64V64H0V41.75Z" fill="#6DA544"/>
<path d="M14.6517 13.213C14.65 11.7865 15.1364 10.4023 16.03 9.29041C16.9236 8.1785 18.1707 7.40574 19.5642 7.10047C19.1246 7.00686 18.6762 6.96076 18.2267 6.96297C17.3576 6.97653 16.5009 7.17122 15.7113 7.53461C14.9217 7.89799 14.2166 8.42208 13.641 9.07339C13.0654 9.7247 12.632 10.4889 12.3684 11.3172C12.1049 12.1455 12.017 13.0196 12.1104 13.8838C12.2038 14.748 12.4764 15.5832 12.9109 16.336C13.3453 17.0889 13.932 17.7428 14.6335 18.2561C15.3349 18.7694 16.1357 19.1307 16.9847 19.317C17.8337 19.5033 18.7123 19.5104 19.5642 19.338C16.7517 18.713 14.6517 16.213 14.6517 13.213ZM23.2767 16.063L23.6892 17.363H25.0642L23.9392 18.1755L24.3767 19.4755L23.2517 18.6755L22.1642 19.4755L22.5892 18.1755L21.4642 17.363H22.8392L23.2767 16.063ZM27.6517 16.063L28.0767 17.363H29.4517L28.3267 18.1755L28.7517 19.4755L27.6517 18.6755L26.5267 19.4755L26.9642 18.1755L25.8392 17.363H27.2142L27.6517 16.063ZM32.0267 16.063L32.4517 17.363H33.8267L32.7017 18.1755L33.1392 19.4755L32.0142 18.6755L30.9142 19.4755L31.3392 18.1755L30.2142 17.363H31.5892L32.0267 16.063ZM36.4017 16.063L36.8267 17.363H38.2017L37.0767 18.1755L37.5142 19.4755L36.3892 18.6755L35.2892 19.4755L35.7142 18.1755L34.5892 17.363H35.9642L36.4017 16.063ZM40.7767 16.063L41.2017 17.363H42.5767L41.4517 18.1755L41.8892 19.4755L40.7642 18.6755L39.6642 19.4755L40.0892 18.1755L38.9892 17.363H40.3642L40.7767 16.063ZM27.6517 11.513L28.0767 12.813H29.4517L28.3267 13.6255L28.7517 14.9255L27.6517 14.113L26.5267 14.9255L26.9642 13.6255L25.8392 12.813H27.2142L27.6517 11.513ZM32.0267 11.513L32.4517 12.813H33.8267L32.7017 13.6255L33.1392 14.9255L32.0142 14.113L30.9142 14.9255L31.3392 13.6255L30.2142 12.813H31.5892L32.0267 11.513ZM36.4017 11.513L36.8267 12.813H38.2017L37.0767 13.6255L37.5142 14.9255L36.3892 14.113L35.2892 14.9255L35.7142 13.6255L34.5892 12.813H35.9642L36.4017 11.513ZM40.7767 11.513L41.2017 12.813H42.5767L41.4517 13.6255L41.8892 14.9255L40.7642 14.113L39.6642 14.9255L40.0892 13.6255L38.9892 12.813H40.3642L40.7767 11.513ZM32.0267 6.96297L32.4517 8.26297H33.8267L32.7017 9.06297L33.1517 10.3755L32.0267 9.56297L30.9267 10.3755L31.3517 9.06297L30.2267 8.26297H31.6017L32.0267 6.96297ZM36.4017 6.96297L36.8267 8.26297H38.2017L37.0767 9.06297L37.5267 10.3755L36.4017 9.56297L35.3017 10.3755L35.7267 9.06297L34.6017 8.26297H35.9767L36.4017 6.96297ZM40.7767 6.96297L41.2017 8.26297H42.5767L41.4517 9.06297L41.9017 10.3755L40.7767 9.56297L39.6767 10.3755L40.1017 9.06297L39.0017 8.26297H40.3767L40.7767 6.96297Z" fill="#EEEEEE"/>
</g>
</g>
<defs>
<clipPath id="clip0_240_317">
<rect width="64" height="64" fill="white"/>
</clipPath>
</defs>
</svg>
