<svg width="64" height="64" viewBox="0 0 64 64" fill="none" xmlns="http://www.w3.org/2000/svg">
<g clip-path="url(#clip0_240_502)">
<mask id="mask0_240_502" style="mask-type:luminance" maskUnits="userSpaceOnUse" x="0" y="0" width="64" height="64">
<path d="M32 64C49.6731 64 64 49.6731 64 32C64 14.3269 49.6731 0 32 0C14.3269 0 0 14.3269 0 32C0 49.6731 14.3269 64 32 64Z" fill="white"/>
</mask>
<g mask="url(#mask0_240_502)">
<path d="M0 0L24 32L0 64H5.875L64 40.375V36.125L60 32L64 27.875V23.625L5.875 0H0Z" fill="#EEEEEE"/>
<path d="M0 17.75V46.25L17.5 32L0 17.75Z" fill="#333333"/>
<path d="M24 32L0 11.875V17.75L14.25 32L0 46.25V52.125L24 32Z" fill="#FFDA44"/>
<path d="M64 27.875H27.875L0 0V11.75L20.125 32L0 52.25V64L27.875 36.125H64V27.875Z" fill="#6DA544"/>
<path d="M64 0H5.875L29.5 23.625H64V0Z" fill="#D80027"/>
<path d="M64 64H5.875L29.5 40.375H64V64Z" fill="#0052B4"/>
</g>
</g>
<defs>
<clipPath id="clip0_240_502">
<rect width="64" height="64" fill="white"/>
</clipPath>
</defs>
</svg>
