<svg xmlns="http://www.w3.org/2000/svg" width="45" height="45" viewBox="0 0 45 45">
  <g id="Group_600" data-name="Group 600" transform="translate(242)">
    <circle id="Ellipse_13" data-name="Ellipse 13" cx="22.5" cy="22.5" r="22.5" transform="translate(-242)" fill="#4285f4"/>
    <path id="Path_142" data-name="Path 142" d="M4.873,1.049A1.862,1.862,0,0,0,3.951.922,3.422,3.422,0,0,0,3.585.94a.743.743,0,0,0-.4.271.706.706,0,0,0-.235.425.129.129,0,0,0,.018.072q.2.307,1.1.307a2.734,2.734,0,0,0,.515-.045l1.139-.262-.19.877a7.157,7.157,0,0,0-1.1.28,7.952,7.952,0,0,0-1.284.642q-.615.38-.6.38-.118.018-.118-.09a1.522,1.522,0,0,1,.316-.633,2.927,2.927,0,0,1,.335-.425,1.883,1.883,0,0,1-.452-.127q-.416-.145-.434-.262A2.007,2.007,0,0,1,2.848.845,2.023,2.023,0,0,1,4.3.018,1.929,1.929,0,0,1,4.819.1q.416.108.452.108ZM4.656-2.839,2.758,0V-11.727l1.9-2.559ZM8.826.185a1.641,1.641,0,0,1-1.2-.5,1.641,1.641,0,0,1-.5-1.2,1.622,1.622,0,0,1,.5-1.193,1.647,1.647,0,0,1,1.2-.5,1.658,1.658,0,0,1,1.193.5A1.605,1.605,0,0,1,10.53-1.52a1.6,1.6,0,0,1-.238.856,1.826,1.826,0,0,1-.621.618A1.608,1.608,0,0,1,8.826.185Zm11.7-2.12a5.246,5.246,0,0,1-.045.592q-.045.375-.276.448T19.2-.642q-.778.181-1.546.353A10.632,10.632,0,0,1,15.337,0a2.47,2.47,0,0,1-1.646-.542q-.5-.3-.479-1.528,0-.154.009-.493a8.49,8.49,0,0,1,.136-1.076,6.9,6.9,0,0,1,.217-.986q.09-.249.19-.249a.08.08,0,0,1,.036.009l.063.669q.027.967.5,1.2a3.276,3.276,0,0,0,1.284.271q.371,0,.8-.032a7.653,7.653,0,0,0,1.13-.194q1.383-.28,1.383-.434a9.487,9.487,0,0,0-.615-2.179,6.607,6.607,0,0,0-1.212-2l1.239-2.315a7.915,7.915,0,0,1,1.41,2.712A16.248,16.248,0,0,1,20.527-1.935Z" transform="translate(-230 29)" fill="#fff"/>
  </g>
</svg>
