<svg width="64" height="64" viewBox="0 0 64 64" fill="none" xmlns="http://www.w3.org/2000/svg">
<g clip-path="url(#clip0_218_236)">
<mask id="mask0_218_236" style="mask-type:luminance" maskUnits="userSpaceOnUse" x="0" y="0" width="64" height="64">
<path d="M32 64C49.6731 64 64 49.6731 64 32C64 14.3269 49.6731 0 32 0C14.3269 0 0 14.3269 0 32C0 49.6731 14.3269 64 32 64Z" fill="white"/>
</mask>
<g mask="url(#mask0_218_236)">
<path d="M0 0.0500002H64L59.75 28.675H4.5L0 0.0500002Z" fill="#333333"/>
<path d="M45.9125 25.6625L32.2 28.0875L18.0875 25.6625L23.775 23L20.75 17.5L26.9125 18.675L27.7 12.4375L32 17.025L36.3 12.45L37.0875 18.7L43.25 17.5L40.225 23L45.9125 25.6625Z" fill="#FFDA44"/>
<path d="M3.20001 25.6625H61.55L32.125 54.9375L3.20001 25.6625Z" fill="#0052B4"/>
<path d="M4.25 38.425H60L32 63.95L4.25 38.425Z" fill="#EEEEEE"/>
<path d="M0 63.95L32 64L0 0.05V63.95ZM32 64L64 63.95V0L32 64Z" fill="#A2001D"/>
</g>
</g>
<defs>
<clipPath id="clip0_218_236">
<rect width="64" height="64" fill="white"/>
</clipPath>
</defs>
</svg>
