<svg width="64" height="64" viewBox="0 0 64 64" fill="none" xmlns="http://www.w3.org/2000/svg">
<g clip-path="url(#clip0_224_822)">
<mask id="mask0_224_822" style="mask-type:luminance" maskUnits="userSpaceOnUse" x="0" y="0" width="64" height="64">
<path d="M32 64C49.6731 64 64 49.6731 64 32C64 14.3269 49.6731 0 32 0C14.3269 0 0 14.3269 0 32C0 49.6731 14.3269 64 32 64Z" fill="white"/>
</mask>
<g mask="url(#mask0_224_822)">
<path d="M0 0H64V64H0V0Z" fill="#6DA544"/>
<path d="M49.125 45.9125L50 47.75L51.9875 47.2875L51.1 49.125L52.6875 50.375L50.7 50.8375V52.875L49.125 51.6L47.5375 52.875V50.8375L45.55 50.3875L47.15 49.125L46.2625 47.2875L48.25 47.75L49.125 45.9125ZM40.95 26.4375L41.825 28.275L43.825 27.8125L42.925 29.65L44.525 30.9L42.525 31.35L42.5375 33.3875L40.95 32.1125L39.3625 33.3875V31.35L37.3875 30.9125L38.975 29.65L38.1 27.8125L40.075 28.275L40.95 26.4375ZM49.125 15.3125L50 17.1375L51.9875 16.6875L51.1 18.5125L52.6875 19.775L50.7 20.225V22.2625L49.125 20.9875L47.5375 22.2625V20.225L45.55 19.775L47.15 18.525L46.2625 16.6875L48.25 17.125L49.125 15.3125ZM56.25 23.65L57.125 25.4875L59.125 25.025L58.2375 26.8625L59.825 28.125L57.8375 28.575V30.6125L56.2625 29.3375L54.675 30.6125V28.575L52.6875 28.125L54.2875 26.8625L53.4 25.025L55.375 25.5L56.25 23.65ZM51.15 33.4L51.85 35.525H54.0875L52.275 36.825L52.9625 38.95L51.15 37.6375L49.35 38.9625L50.0375 36.8375L48.225 35.5125H50.475L51.15 33.4Z" fill="#FFDA44"/>
<path d="M35.475 41.0375C34.1016 41.0337 32.7472 40.7169 31.5145 40.1113C30.2819 39.5056 29.2035 38.6269 28.3613 37.5421C27.5191 36.4572 26.9353 35.1947 26.6541 33.8504C26.3729 32.5061 26.4018 31.1154 26.7386 29.7839C27.0754 28.4524 27.7112 27.2153 28.5977 26.1663C29.4842 25.1174 30.5982 24.2843 31.8549 23.7303C33.1116 23.1764 34.4781 22.9161 35.8504 22.9694C37.2228 23.0226 38.565 23.3879 39.775 24.0375C38.2092 22.5072 36.2266 21.4729 34.0756 21.0643C31.9246 20.6556 29.7009 20.8908 27.6829 21.7402C25.665 22.5897 23.9425 24.0157 22.7314 25.8396C21.5202 27.6636 20.8742 29.8043 20.8742 31.9938C20.8742 34.1832 21.5202 36.324 22.7314 38.148C23.9425 39.9719 25.665 41.3979 27.6829 42.2474C29.7009 43.0968 31.9246 43.3319 34.0756 42.9233C36.2266 42.5146 38.2092 41.4804 39.775 39.95C38.4548 40.6656 36.9766 41.0394 35.475 41.0375ZM20.125 12.525C19.637 11.6787 18.9347 10.9759 18.0888 10.4872C17.2429 9.9985 16.2832 9.74121 15.3062 9.74121C14.3293 9.74121 13.3696 9.9985 12.5237 10.4872C11.6778 10.9759 10.9755 11.6787 10.4875 12.525H20.1125H20.125ZM20.1375 12.55L15.3 17.3875L10.4625 12.55C9.98555 13.388 9.73564 14.3359 9.7375 15.3C9.7375 16.0305 9.88138 16.7538 10.1609 17.4287C10.4405 18.1036 10.8502 18.7168 11.3667 19.2333C11.8832 19.7498 12.4964 20.1596 13.1713 20.4391C13.8462 20.7187 14.5695 20.8625 15.3 20.8625C16.0305 20.8625 16.7538 20.7187 17.4287 20.4391C18.1035 20.1596 18.7168 19.7498 19.2333 19.2333C19.7498 18.7168 20.1595 18.1036 20.4391 17.4287C20.7186 16.7538 20.8625 16.0305 20.8625 15.3C20.8644 14.3359 20.6145 13.388 20.1375 12.55Z" fill="#FFDA44"/>
<path d="M13.9125 16V20.7C14.3658 20.8163 14.832 20.8751 15.3 20.875C15.7875 20.875 16.25 20.8125 16.7 20.7V16H13.9125Z" fill="#A2001D"/>
</g>
</g>
<defs>
<clipPath id="clip0_224_822">
<rect width="64" height="64" fill="white"/>
</clipPath>
</defs>
</svg>
