<svg width="64" height="64" viewBox="0 0 64 64" fill="none" xmlns="http://www.w3.org/2000/svg">
<g clip-path="url(#clip0_233_2)">
<mask id="mask0_233_2" style="mask-type:luminance" maskUnits="userSpaceOnUse" x="0" y="0" width="64" height="64">
<path d="M32 64C49.6731 64 64 49.6731 64 32C64 14.3269 49.6731 0 32 0C14.3269 0 0 14.3269 0 32C0 49.6731 14.3269 64 32 64Z" fill="white"/>
</mask>
<g mask="url(#mask0_233_2)">
<path d="M0 31.9999L31.8125 25.5874L64 31.9999V63.9999H0V31.9999Z" fill="#D80027"/>
<path d="M0 0H32L38.5875 16.6L32 32H0V0Z" fill="#0052B4"/>
<path d="M31.9984 0H63.9984V32H31.9984V0ZM19.0484 11.125L21.1234 17.5H27.8234L22.3984 21.45L24.4734 27.825L19.0484 23.8875L13.6234 27.825L15.6984 21.45L10.2734 17.5H16.9734L19.0484 11.125Z" fill="#EEEEEE"/>
</g>
</g>
<defs>
<clipPath id="clip0_233_2">
<rect width="64" height="64" fill="white"/>
</clipPath>
</defs>
</svg>
