<svg width="64" height="64" viewBox="0 0 64 64" fill="none" xmlns="http://www.w3.org/2000/svg">
<g clip-path="url(#clip0_516_7)">
<path d="M32 64C49.6731 64 64 49.6731 64 32C64 14.3269 49.6731 0 32 0C14.3269 0 0 14.3269 0 32C0 49.6731 14.3269 64 32 64Z" fill="#F0F0F0"/>
<path d="M29.2174 32C29.2174 32 9.39125 54.6319 9.3725 54.6274C15.1632 60.4183 23.1634 64 32 64C49.673 64 64 49.673 64 32H29.2174Z" fill="#D80027"/>
<path d="M9.3725 9.3725C-3.12425 21.8692 -3.12425 42.1306 9.3725 54.6275L32 32L9.3725 9.3725Z" fill="#0052B4"/>
</g>
<defs>
<clipPath id="clip0_516_7">
<rect width="64" height="64" fill="white"/>
</clipPath>
</defs>
</svg>
