<svg width="64" height="64" viewBox="0 0 64 64" fill="none" xmlns="http://www.w3.org/2000/svg">
<g clip-path="url(#clip0_233_19)">
<mask id="mask0_233_19" style="mask-type:luminance" maskUnits="userSpaceOnUse" x="0" y="0" width="64" height="64">
<path d="M32 64C49.6731 64 64 49.6731 64 32C64 14.3269 49.6731 0 32 0C14.3269 0 0 14.3269 0 32C0 49.6731 14.3269 64 32 64Z" fill="white"/>
</mask>
<g mask="url(#mask0_233_19)">
<path d="M0 0H64V32H7.75L0 0Z" fill="#6DA544"/>
<path d="M7.75 32H64V64H0L7.75 32Z" fill="#338AF3"/>
<path d="M0 0V64L64 32L0 0Z" fill="#D80027"/>
<path d="M16.6992 18.7876C10.5617 18.7876 5.57422 23.7876 5.57422 29.9126V34.0876C5.7098 36.9469 6.9411 39.6442 9.01259 41.6198C11.0841 43.5954 13.8367 44.6976 16.6992 44.6976C19.5617 44.6976 22.3144 43.5954 24.3858 41.6198C26.4573 39.6442 27.6886 36.9469 27.8242 34.0876V29.9126C27.8242 23.7876 22.8242 18.7876 16.6992 18.7876ZM23.6492 34.0876C23.6492 37.2001 21.5992 39.8376 18.7742 40.7126V36.1751L21.7367 33.2251L18.7867 30.2751V27.8251H14.6117V32.0001L11.6617 34.9501L14.6117 37.9001V40.7251C13.1988 40.2811 11.9643 39.3981 11.0876 38.2044C10.2109 37.0107 9.73772 35.5686 9.73672 34.0876V29.9126C9.81278 28.1187 10.5789 26.4235 11.8751 25.1811C13.1714 23.9387 14.8975 23.245 16.693 23.245C18.4885 23.245 20.2146 23.9387 21.5108 25.1811C22.807 26.4235 23.5732 28.1187 23.6492 29.9126V34.0876Z" fill="#FFDA44"/>
</g>
</g>
<defs>
<clipPath id="clip0_233_19">
<rect width="64" height="64" fill="white"/>
</clipPath>
</defs>
</svg>
