<svg width="64" height="64" viewBox="0 0 64 64" fill="none" xmlns="http://www.w3.org/2000/svg">
<g clip-path="url(#clip0_240_531)">
<mask id="mask0_240_531" style="mask-type:luminance" maskUnits="userSpaceOnUse" x="0" y="0" width="64" height="64">
<path d="M32 64C49.6731 64 64 49.6731 64 32C64 14.3269 49.6731 0 32 0C14.3269 0 0 14.3269 0 32C0 49.6731 14.3269 64 32 64Z" fill="white"/>
</mask>
<g mask="url(#mask0_240_531)">
<path d="M0 16L32 12L64 16V48L32 52L0 48V16Z" fill="#FFDA44"/>
<path d="M0 0H64V16H0V0ZM0 48H64V64H0V48Z" fill="#D80027"/>
<path d="M18 38H16V28H18V38ZM34 38H36V28H34V38Z" fill="#EEEEEE"/>
<path d="M26 41C29.3137 41 32 39.2091 32 37C32 34.7909 29.3137 33 26 33C22.6863 33 20 34.7909 20 37C20 39.2091 22.6863 41 26 41Z" fill="#EEEEEE"/>
<path d="M18 25C18 24.4477 17.5523 24 17 24C16.4477 24 16 24.4477 16 25V26C16 26.5523 16.4477 27 17 27C17.5523 27 18 26.5523 18 26V25Z" fill="#D80027"/>
<path d="M36 25C36 24.4477 35.5523 24 35 24C34.4477 24 34 24.4477 34 25V26C34 26.5523 34.4477 27 35 27C35.5523 27 36 26.5523 36 26V25Z" fill="#D80027"/>
<path d="M26 34V37C26 37.7956 26.3161 38.5587 26.8787 39.1213C27.4413 39.6839 28.2044 40 29 40C29.7956 40 30.5587 39.6839 31.1213 39.1213C31.6839 38.5587 32 37.7956 32 37V34H29H26Z" fill="#D80027"/>
<path d="M18 26H16C15.4477 26 15 26.4477 15 27C15 27.5523 15.4477 28 16 28H18C18.5523 28 19 27.5523 19 27C19 26.4477 18.5523 26 18 26Z" fill="#FF9811"/>
<path d="M36 26H34C33.4477 26 33 26.4477 33 27C33 27.5523 33.4477 28 34 28H36C36.5523 28 37 27.5523 37 27C37 26.4477 36.5523 26 36 26Z" fill="#FF9811"/>
<path d="M18 38H16C15.4477 38 15 38.4477 15 39C15 39.5523 15.4477 40 16 40H18C18.5523 40 19 39.5523 19 39C19 38.4477 18.5523 38 18 38Z" fill="#FF9811"/>
<path d="M36 38H34C33.4477 38 33 38.4477 33 39C33 39.5523 33.4477 40 34 40H36C36.5523 40 37 39.5523 37 39C37 38.4477 36.5523 38 36 38Z" fill="#FF9811"/>
<path d="M20 34V37C20 38 20.5 38.75 21.125 39.375L21.75 38.625L22.375 39.875C22.7856 39.9757 23.2144 39.9757 23.625 39.875L24.25 38.625L24.875 39.375C25.625 38.75 26 38 26 37V34H24.875L24.25 35L23.625 34H22.375L21.75 35L21.125 34H20Z" fill="#FF9811"/>
<path d="M15.25 31.5H36.75ZM15.25 34.5H18.75ZM33.25 34.5H36.75Z" fill="black"/>
<path d="M15.25 31C15.1174 31 14.9902 31.0527 14.8964 31.1464C14.8027 31.2402 14.75 31.3674 14.75 31.5C14.75 31.6326 14.8027 31.7598 14.8964 31.8536C14.9902 31.9473 15.1174 32 15.25 32H36.75C36.8826 32 37.0098 31.9473 37.1036 31.8536C37.1973 31.7598 37.25 31.6326 37.25 31.5C37.25 31.3674 37.1973 31.2402 37.1036 31.1464C37.0098 31.0527 36.8826 31 36.75 31H15.25ZM15.25 34C15.1174 34 14.9902 34.0527 14.8964 34.1464C14.8027 34.2402 14.75 34.3674 14.75 34.5C14.75 34.6326 14.8027 34.7598 14.8964 34.8536C14.9902 34.9473 15.1174 35 15.25 35H18.75C18.8826 35 19.0098 34.9473 19.1036 34.8536C19.1973 34.7598 19.25 34.6326 19.25 34.5C19.25 34.3674 19.1973 34.2402 19.1036 34.1464C19.0098 34.0527 18.8826 34 18.75 34H15.25ZM33.25 34C33.1174 34 32.9902 34.0527 32.8964 34.1464C32.8027 34.2402 32.75 34.3674 32.75 34.5C32.75 34.6326 32.8027 34.7598 32.8964 34.8536C32.9902 34.9473 33.1174 35 33.25 35H36.75C36.8826 35 37.0098 34.9473 37.1036 34.8536C37.1973 34.7598 37.25 34.6326 37.25 34.5C37.25 34.3674 37.1973 34.2402 37.1036 34.1464C37.0098 34.0527 36.8826 34 36.75 34H33.25Z" fill="#D80027"/>
<path d="M24.5 21C23.625 21 22.875 21.625 22.625 22.375L22 22.25C20.875 22.25 20 23.125 20 24.25C20 25.375 20.875 26.25 22 26.25C22.875 26.25 23.625 25.75 23.875 24.875C24.2396 25.0065 24.6345 25.0293 25.0117 24.9405C25.389 24.8517 25.7323 24.6553 26 24.375C26.2677 24.6553 26.611 24.8517 26.9883 24.9405C27.3655 25.0293 27.7604 25.0065 28.125 24.875C28.2463 25.2536 28.4777 25.5875 28.7896 25.834C29.1015 26.0805 29.4798 26.2284 29.8762 26.2589C30.2726 26.2894 30.6691 26.2011 31.015 26.0052C31.361 25.8094 31.6407 25.5148 31.8185 25.1593C31.9963 24.8037 32.0641 24.4032 32.0132 24.0089C31.9623 23.6146 31.7951 23.2444 31.5329 22.9456C31.2706 22.6468 30.9253 22.4329 30.5409 22.3313C30.1566 22.2296 29.7507 22.2449 29.375 22.375C29.2544 22.0509 29.0519 21.7636 28.7872 21.5412C28.5225 21.3187 28.2047 21.1687 27.8647 21.1057C27.5247 21.0428 27.1742 21.069 26.8474 21.182C26.5206 21.2949 26.2286 21.4906 26 21.75C25.625 21.25 25.125 21 24.5 21ZM24.5 22C25.125 22 25.5 22.5 25.5 23C25.5 23.625 25.125 24 24.5 24C24 24 23.5 23.625 23.5 23C23.5 22.5 24 22 24.5 22ZM27.5 22C28.125 22 28.5 22.5 28.5 23C28.5 23.625 28.125 24 27.5 24C27 24 26.5 23.625 26.5 23C26.5 22.5 27 22 27.5 22ZM22 23.25L22.5 23.375L23 24.375C23 24.875 22.5 25.25 22 25.25C21.5 25.25 21 24.875 21 24.25C21 23.75 21.5 23.25 22 23.25ZM30 23.25C30.625 23.25 31 23.75 31 24.25C31 24.875 30.625 25.25 30 25.25C29.5 25.25 29 24.875 29 24.375L29.5 23.375L30 23.25Z" fill="#EEEEEE"/>
<path d="M25 20H27V24H25V20Z" fill="#FF9811"/>
<path d="M26 28H32V34H26V28Z" fill="#EEEEEE"/>
<path d="M31 26L30 27H22L21 26C21 24.375 23.25 23 26 23C28.75 23 31 24.375 31 26ZM20 28H26V34H20V28Z" fill="#D80027"/>
<path d="M30.25 30.25C30.25 29.5596 29.6904 29 29 29C28.3096 29 27.75 29.5596 27.75 30.25V31.75C27.75 32.4404 28.3096 33 29 33C29.6904 33 30.25 32.4404 30.25 31.75V30.25Z" fill="#D80027"/>
<path d="M21 29V30H22V32H21V33H25V32H24V30H25V29H21ZM22 27H30V28H22V27Z" fill="#FF9811"/>
<path d="M23.25 26C23.6642 26 24 25.6642 24 25.25C24 24.8358 23.6642 24.5 23.25 24.5C22.8358 24.5 22.5 24.8358 22.5 25.25C22.5 25.6642 22.8358 26 23.25 26Z" fill="#FFDA44"/>
<path d="M26 26C26.4142 26 26.75 25.6642 26.75 25.25C26.75 24.8358 26.4142 24.5 26 24.5C25.5858 24.5 25.25 24.8358 25.25 25.25C25.25 25.6642 25.5858 26 26 26Z" fill="#FFDA44"/>
<path d="M28.75 26C29.1642 26 29.5 25.6642 29.5 25.25C29.5 24.8358 29.1642 24.5 28.75 24.5C28.3358 24.5 28 24.8358 28 25.25C28 25.6642 28.3358 26 28.75 26Z" fill="#FFDA44"/>
<path d="M21.125 34V39.375C21.4984 39.6342 21.9258 39.8052 22.375 39.875V34H21.125ZM23.625 34V39.875C24.0742 39.8052 24.5016 39.6342 24.875 39.375V34H23.625Z" fill="#D80027"/>
<path d="M26 36C27.1046 36 28 35.1046 28 34C28 32.8954 27.1046 32 26 32C24.8954 32 24 32.8954 24 34C24 35.1046 24.8954 36 26 36Z" fill="#338AF3"/>
<path d="M36 40H34C33.4477 40 33 40.4477 33 41C33 41.5523 33.4477 42 34 42H36C36.5523 42 37 41.5523 37 41C37 40.4477 36.5523 40 36 40Z" fill="#338AF3"/>
<path d="M18 40H16C15.4477 40 15 40.4477 15 41C15 41.5523 15.4477 42 16 42H18C18.5523 42 19 41.5523 19 41C19 40.4477 18.5523 40 18 40Z" fill="#338AF3"/>
</g>
</g>
<defs>
<clipPath id="clip0_240_531">
<rect width="64" height="64" fill="white"/>
</clipPath>
</defs>
</svg>
