<svg width="64" height="64" viewBox="0 0 64 64" fill="none" xmlns="http://www.w3.org/2000/svg">
<g clip-path="url(#clip0_233_54)">
<mask id="mask0_233_54" style="mask-type:luminance" maskUnits="userSpaceOnUse" x="0" y="0" width="64" height="64">
<path d="M32 64C49.6731 64 64 49.6731 64 32C64 14.3269 49.6731 0 32 0C14.3269 0 0 14.3269 0 32C0 49.6731 14.3269 64 32 64Z" fill="white"/>
</mask>
<g mask="url(#mask0_233_54)">
<path d="M32 0H64V64H0V32L32 0Z" fill="#0052B4"/>
<path d="M0 0V4L4 8L0 12V32H4L8 28L12 32H16V21.625L26.375 32H32L31 30L32 28.125V26.375L21.625 16H32V12L28 8L32 4V0H12L8 4L4 0H0Z" fill="#EEEEEE"/>
<path d="M4 0V4H0V12H4V32H12V12H32V4H12V0H4ZM16 16L32 32V28.125L19.875 16H16Z" fill="#D80027"/>
<path d="M51.4758 37.5625V38.9625H40.3508V37.5625H36.1758V43.125H38.9633V44.525H52.8758V43.125H55.6508V37.5625H51.4758Z" fill="#FFDA44"/>
<path d="M36.1766 16.7002V32.0002C36.1766 39.4502 45.9141 41.7502 45.9141 41.7502C45.9141 41.7502 55.6641 39.4502 55.6641 32.0002V16.7002H36.1641H36.1766Z" fill="#338AF3"/>
<path d="M45.9141 28.1125C43.4766 28.1125 43.4766 30.3375 41.0391 30.3375C38.6016 30.3375 38.6141 28.1125 36.1641 28.1125V32C38.6141 32 38.6141 34.225 41.0391 34.225C43.4641 34.225 43.4766 32 45.9141 32C48.3516 32 48.3516 34.225 50.7891 34.225C53.2266 34.225 53.2141 32 55.6641 32V28.1C53.2141 28.1 53.2141 30.325 50.7891 30.325C48.3516 30.325 48.3516 28.1 45.9141 28.1V28.1125ZM45.9141 20.3125C43.4766 20.3125 43.4766 22.5375 41.0391 22.5375C38.6016 22.5375 38.6141 20.3125 36.1641 20.3125V24.2125C38.6141 24.2125 38.6141 26.4375 41.0391 26.4375C43.4641 26.4375 43.4766 24.2125 45.9141 24.2125C48.3516 24.2125 48.3516 26.4375 50.7891 26.4375C53.2266 26.4375 53.2141 24.2125 55.6641 24.2125V20.3125C53.2141 20.3125 53.2141 22.5375 50.7891 22.5375C48.3516 22.5375 48.3516 20.3125 45.9141 20.3125Z" fill="#EEEEEE"/>
</g>
</g>
<defs>
<clipPath id="clip0_233_54">
<rect width="64" height="64" fill="white"/>
</clipPath>
</defs>
</svg>
