<svg width="64" height="64" viewBox="0 0 64 64" fill="none" xmlns="http://www.w3.org/2000/svg">
<g clip-path="url(#clip0_233_98)">
<mask id="mask0_233_98" style="mask-type:luminance" maskUnits="userSpaceOnUse" x="0" y="0" width="64" height="64">
<path d="M32 64C49.6731 64 64 49.6731 64 32C64 14.3269 49.6731 0 32 0C14.3269 0 0 14.3269 0 32C0 49.6731 14.3269 64 32 64Z" fill="white"/>
</mask>
<g mask="url(#mask0_233_98)">
<path d="M0 0H18.0875L31.6375 5.15L45.9125 0H64V64H45.9125L32.1375 58.825L18.0875 64H0V0Z" fill="#338AF3"/>
<path d="M18.0859 0H45.9109V64H18.0859V0Z" fill="#EEEEEE"/>
<path d="M40.3609 37.4124L34.9484 31.9999L40.0984 26.8499L39.8734 24.1249L38.4109 22.6499L32.0109 29.0499L25.6109 22.6499L24.1484 24.1249L23.8984 26.8499L29.0609 31.9999L23.6484 37.4124L26.5984 40.3624L32.0109 34.9499L37.4234 40.3624L40.3609 37.4124Z" fill="#ACABB1"/>
<path d="M39.875 24.125L36.925 27.075C37.9075 28.0447 38.5784 29.2854 38.8518 30.6384C39.1253 31.9915 38.9889 33.3953 38.46 34.6704C37.9312 35.9455 37.034 37.0339 35.8832 37.7962C34.7324 38.5586 33.3804 38.9603 32 38.95C30.625 38.9482 29.2813 38.5394 28.1384 37.775C26.9954 37.0106 26.1044 35.9249 25.5776 34.6548C25.0509 33.3847 24.912 31.9871 25.1784 30.6381C25.4449 29.2892 26.1049 28.0494 27.075 27.075L24.125 24.125C22.5715 25.6818 21.5144 27.6641 21.087 29.8215C20.6597 31.9789 20.8814 34.2145 21.7241 36.246C22.5669 38.2774 23.9928 40.0135 25.8218 41.2349C27.6507 42.4562 29.8007 43.1081 32 43.1081C34.1993 43.1081 36.3493 42.4562 38.1782 41.2349C40.0072 40.0135 41.4332 38.2774 42.2759 36.246C43.1186 34.2145 43.3403 31.9789 42.913 29.8215C42.4857 27.6641 41.4285 25.6818 39.875 24.125Z" fill="#6DA544"/>
</g>
</g>
<defs>
<clipPath id="clip0_233_98">
<rect width="64" height="64" fill="white"/>
</clipPath>
</defs>
</svg>
