<svg width="64" height="64" viewBox="0 0 64 64" fill="none" xmlns="http://www.w3.org/2000/svg">
<g clip-path="url(#clip0_233_155)">
<mask id="mask0_233_155" style="mask-type:luminance" maskUnits="userSpaceOnUse" x="0" y="0" width="64" height="64">
<path d="M32 64C49.6731 64 64 49.6731 64 32C64 14.3269 49.6731 0 32 0C14.3269 0 0 14.3269 0 32C0 49.6731 14.3269 64 32 64Z" fill="white"/>
</mask>
<g mask="url(#mask0_233_155)">
<path d="M0 0H64V64H0V0Z" fill="#D80027"/>
<path d="M47.6516 31.9998L41.2516 34.9998L44.6641 41.1998L37.7141 39.8748L36.8391 46.8873L32.0016 41.7248L27.1641 46.8873L26.2891 39.8748L19.3391 41.1998L22.7516 35.0123L16.3516 31.9998L22.7516 28.9998L19.3391 22.7998L26.2891 24.1248L27.1641 17.1123L32.0016 22.2748L36.8391 17.1123L37.7141 24.1248L44.6641 22.7998L41.2516 28.9873L47.6516 31.9998Z" fill="#FFDA44"/>
<path d="M31.9992 41.7377C37.3771 41.7377 41.7367 37.3781 41.7367 32.0002C41.7367 26.6223 37.3771 22.2627 31.9992 22.2627C26.6213 22.2627 22.2617 26.6223 22.2617 32.0002C22.2617 37.3781 26.6213 41.7377 31.9992 41.7377Z" fill="#D80027"/>
<path d="M27.125 32.0002C26.9 32.0002 26.6625 32.0127 26.4375 32.0377C26.4439 33.3325 26.9039 34.5843 27.7375 35.5752C28.1619 34.4293 28.798 33.3735 29.6125 32.4627C28.8188 32.157 27.9755 32.0003 27.125 32.0002ZM30.125 37.2502C31.3371 37.6852 32.6629 37.6852 33.875 37.2502C33.55 36.0002 32.9 34.8752 32 34.0002C31.1 34.8752 30.45 36.0002 30.125 37.2502ZM36.825 29.2127C36.3378 28.3634 35.6352 27.6578 34.788 27.1671C33.9408 26.6764 32.9791 26.418 32 26.418C31.0209 26.418 30.0592 26.6764 29.212 27.1671C28.3648 27.6578 27.6622 28.3634 27.175 29.2127C28.8706 29.2198 30.5345 29.6724 32 30.5252C33.4655 29.6724 35.1294 29.2198 36.825 29.2127ZM34.375 32.4627C35.1953 33.3762 35.8357 34.4364 36.2625 35.5877C37.0989 34.5935 37.559 33.3369 37.5625 32.0377C37.3341 32.0138 37.1046 32.0013 36.875 32.0002C36.0202 31.9984 35.1726 32.1552 34.375 32.4627Z" fill="#FFDA44"/>
</g>
</g>
<defs>
<clipPath id="clip0_233_155">
<rect width="64" height="64" fill="white"/>
</clipPath>
</defs>
</svg>
