<svg width="64" height="64" viewBox="0 0 64 64" fill="none" xmlns="http://www.w3.org/2000/svg">
<g clip-path="url(#clip0_240_179)">
<mask id="mask0_240_179" style="mask-type:luminance" maskUnits="userSpaceOnUse" x="0" y="0" width="64" height="64">
<path d="M32 64C49.6731 64 64 49.6731 64 32C64 14.3269 49.6731 0 32 0C14.3269 0 0 14.3269 0 32C0 49.6731 14.3269 64 32 64Z" fill="white"/>
</mask>
<g mask="url(#mask0_240_179)">
<path d="M0 0H64V18.1L58.275 32.225L64 45.925V64H0V45.925L5.7875 32.0375L0 18.1V0Z" fill="#D80027"/>
<path d="M0 18.0996H64V45.9246H0V18.0996Z" fill="#EEEEEE"/>
<path d="M40.3484 37.5627L31.9984 22.2627L23.6484 37.5627H29.9109V41.7502H34.0859V37.5752L40.3484 37.5627Z" fill="#6DA544"/>
</g>
</g>
<defs>
<clipPath id="clip0_240_179">
<rect width="64" height="64" fill="white"/>
</clipPath>
</defs>
</svg>
