<svg width="64" height="64" viewBox="0 0 64 64" fill="none" xmlns="http://www.w3.org/2000/svg">
<g clip-path="url(#clip0_240_55)">
<mask id="mask0_240_55" style="mask-type:luminance" maskUnits="userSpaceOnUse" x="0" y="0" width="64" height="64">
<path d="M32 64C49.6731 64 64 49.6731 64 32C64 14.3269 49.6731 0 32 0C14.3269 0 0 14.3269 0 32C0 49.6731 14.3269 64 32 64Z" fill="white"/>
</mask>
<g mask="url(#mask0_240_55)">
<path d="M0 0H64V64H0V0Z" fill="#338AF3"/>
<path d="M20.1758 43.1248H43.8258L32.0008 15.2998L20.1758 43.1248Z" fill="#EEEEEE"/>
<path d="M24.2891 40.3498L32.0016 22.7998L39.7141 40.3498H24.2891Z" fill="#333333"/>
<path d="M20.1758 43.125H43.8258L32.0008 32L20.1758 43.125Z" fill="#FFDA44"/>
</g>
</g>
<defs>
<clipPath id="clip0_240_55">
<rect width="64" height="64" fill="white"/>
</clipPath>
</defs>
</svg>
