<svg width="64" height="64" viewBox="0 0 64 64" fill="none" xmlns="http://www.w3.org/2000/svg">
<g clip-path="url(#clip0_240_187)">
<mask id="mask0_240_187" style="mask-type:luminance" maskUnits="userSpaceOnUse" x="0" y="0" width="64" height="64">
<path d="M32 64C49.6731 64 64 49.6731 64 32C64 14.3269 49.6731 0 32 0C14.3269 0 0 14.3269 0 32C0 49.6731 14.3269 64 32 64Z" fill="white"/>
</mask>
<g mask="url(#mask0_240_187)">
<path d="M0 18.0871L32.125 15.2871L64 18.0871V45.9121L32.1375 49.7871L0 45.9121V18.0871Z" fill="#333333"/>
<path d="M0 0H64V18.0875H0V0Z" fill="#D80027"/>
<path d="M0 45.9121H64V63.9996H0V45.9121Z" fill="#496E2D"/>
<path d="M39.4492 26.1621L42.0742 29.7871L46.3242 28.4121L43.6992 32.0371L46.3242 35.6371L42.0742 34.2621L39.4492 37.8871V33.3871L35.1992 32.0121L39.4492 30.6371V26.1621Z" fill="#EEEEEE"/>
<path d="M32.2883 41.0496C30.9149 41.0458 29.5605 40.729 28.3279 40.1233C27.0952 39.5177 26.0169 38.639 25.1747 37.5542C24.3325 36.4693 23.7486 35.2068 23.4674 33.8625C23.1862 32.5182 23.2151 31.1275 23.5519 29.796C23.8887 28.4645 24.5245 27.2273 25.411 26.1784C26.2976 25.1295 27.4115 24.2964 28.6682 23.7424C29.925 23.1885 31.2914 22.9282 32.6638 22.9814C34.0361 23.0347 35.3783 23.4 36.5883 24.0496C35.0225 22.5193 33.0399 21.485 30.889 21.0764C28.738 20.6677 26.5142 20.9028 24.4963 21.7523C22.4783 22.6017 20.7559 24.0277 19.5447 25.8517C18.3335 27.6756 17.6875 29.8164 17.6875 32.0059C17.6875 34.1953 18.3335 36.3361 19.5447 38.16C20.7559 39.984 22.4783 41.41 24.4963 42.2594C26.5142 43.1089 28.738 43.344 30.889 42.9354C33.0399 42.5267 35.0225 41.4924 36.5883 39.9621C35.2682 40.6777 33.79 41.0515 32.2883 41.0496Z" fill="#EEEEEE"/>
</g>
</g>
<defs>
<clipPath id="clip0_240_187">
<rect width="64" height="64" fill="white"/>
</clipPath>
</defs>
</svg>
