<svg width="64" height="64" viewBox="0 0 64 64" fill="none" xmlns="http://www.w3.org/2000/svg">
<g clip-path="url(#clip0_240_219)">
<mask id="mask0_240_219" style="mask-type:luminance" maskUnits="userSpaceOnUse" x="0" y="0" width="64" height="64">
<path d="M32 64C49.6731 64 64 49.6731 64 32C64 14.3269 49.6731 0 32 0C14.3269 0 0 14.3269 0 32C0 49.6731 14.3269 64 32 64Z" fill="white"/>
</mask>
<g mask="url(#mask0_240_219)">
<path d="M0 20.8754L31.725 18.4629L64 20.8754V43.1254L32.1375 47.1629L0 43.1254V20.8754Z" fill="#6DA544"/>
<path d="M0 0H64V20.875H0V0Z" fill="#FFDA44"/>
<path d="M0 43.125H64V64H0V43.125Z" fill="#D80027"/>
<path d="M53.9367 27.0625H37.1867L31.9992 11.125L26.8242 27.075H10.0742L23.6117 36.925L18.4367 52.875L31.9992 43.125L45.5617 52.875L40.3867 36.925L53.9367 27.0625Z" fill="#EEEEEE"/>
</g>
</g>
<defs>
<clipPath id="clip0_240_219">
<rect width="64" height="64" fill="white"/>
</clipPath>
</defs>
</svg>
