<svg width="64" height="64" viewBox="0 0 64 64" fill="none" xmlns="http://www.w3.org/2000/svg">
<g clip-path="url(#clip0_233_290)">
<mask id="mask0_233_290" style="mask-type:luminance" maskUnits="userSpaceOnUse" x="0" y="0" width="64" height="64">
<path d="M32 64C49.6731 64 64 49.6731 64 32C64 14.3269 49.6731 0 32 0C14.3269 0 0 14.3269 0 32C0 49.6731 14.3269 64 32 64Z" fill="white"/>
</mask>
<g mask="url(#mask0_233_290)">
<path d="M28.5508 0H64.0008V64H60.5758L19.9258 32.3125L28.5508 0Z" fill="#EEEEEE"/>
<path d="M63.8141 35.475L28.5641 0H23.6516L14.7891 31.725L55.6516 64H60.5766L32.0516 35.475H63.8016H63.8141Z" fill="#0052B4"/>
<path d="M55.65 32L23.65 0H0V64H55.65L23.65 32H55.65Z" fill="#D80027"/>
<path d="M30.4383 47.25L26.5258 45.4125L28.6258 41.625L24.3758 42.4375L23.8383 38.15L20.8883 41.3L17.9258 38.15L17.3883 42.4375L13.1383 41.625L15.2258 45.4125L11.3008 47.25L15.2133 49.0875L13.1383 52.875L17.3883 52.0625L17.9133 56.35L20.8758 53.2L23.8258 56.35L24.3633 52.0625L28.6133 52.875L26.5258 49.0875L30.4383 47.25ZM18.7258 11.125L18.3258 14.25L15.2383 13.6625L16.7508 16.4125L13.9133 17.75H12.5258C12.6093 19.907 13.5249 21.9479 15.0805 23.4444C16.6361 24.941 18.7109 25.777 20.8695 25.777C23.0282 25.777 25.1029 24.941 26.6585 23.4444C28.2142 21.9479 29.1298 19.907 29.2133 17.75H27.8258L25.0008 16.4125L26.5008 13.6625L23.4258 14.25L23.0383 11.125L20.8883 13.425L18.7258 11.125Z" fill="#EEEEEE"/>
</g>
</g>
<defs>
<clipPath id="clip0_233_290">
<rect width="64" height="64" fill="white"/>
</clipPath>
</defs>
</svg>
