<svg width="64" height="64" viewBox="0 0 64 64" fill="none" xmlns="http://www.w3.org/2000/svg">
<g clip-path="url(#clip0_240_821)">
<mask id="mask0_240_821" style="mask-type:luminance" maskUnits="userSpaceOnUse" x="0" y="0" width="64" height="64">
<path d="M32 64C49.6731 64 64 49.6731 64 32C64 14.3269 49.6731 0 32 0C14.3269 0 0 14.3269 0 32C0 49.6731 14.3269 64 32 64Z" fill="white"/>
</mask>
<g mask="url(#mask0_240_821)">
<path d="M64 64L37.6625 28.325L0 0V64H64Z" fill="#333333"/>
<path d="M0 0L64 64V0H0Z" fill="#A2001D"/>
<path d="M24.3766 43.2496L24.9016 44.8621H26.6016L25.2266 45.8621L25.7516 47.4621L24.3766 46.4746L23.0016 47.4621L23.5266 45.8496L22.1516 44.8496H23.8516L24.3766 43.2496ZM20.0516 27.7871L20.9266 30.4746H23.7391L21.4641 32.1246L22.3391 34.8121L20.0516 33.1496L17.7766 34.8121L18.6391 32.1246L16.3641 30.4746H19.1766L20.0516 27.7871ZM20.0516 47.4621L20.9266 50.1496H23.7391L21.4641 51.7996L22.3391 54.4996L20.0516 52.8246L17.7766 54.4996L18.6391 51.7996L16.3641 50.1496H19.1766L20.0516 47.4621ZM28.3016 34.8121L29.1766 37.4996H32.0016L29.7266 39.1621L30.5891 41.8371L28.3141 40.1871L26.0266 41.8371L26.9016 39.1621L24.6141 37.4996H27.4266L28.3016 34.8121ZM11.8016 34.8121L12.6766 37.4996H15.4891L13.2141 39.1621L14.0891 41.8371L11.8016 40.1871L9.51406 41.8371L10.3891 39.1621L8.10156 37.4996H10.9141L11.8016 34.8121Z" fill="#EEEEEE"/>
<path d="M53.7875 23.625C52.3675 22.189 50.4763 21.3144 48.4625 21.1625L54.4875 16.4625C53.3438 15.3191 51.9663 14.4366 50.4495 13.8757C48.9327 13.3147 47.3125 13.0884 45.7 13.2125C45.3203 11.8111 44.5839 10.532 43.5625 9.5L41.1625 14.275C41.0008 13.9854 40.7988 13.7202 40.5625 13.4875C40.2367 13.1617 39.8498 12.9032 39.4241 12.7268C38.9984 12.5505 38.5421 12.4597 38.0812 12.4597C37.6204 12.4597 37.1641 12.5505 36.7384 12.7268C36.3127 12.9032 35.9258 13.1617 35.6 13.4875C35.2742 13.8133 35.0157 14.2002 34.8393 14.6259C34.663 15.0516 34.5722 15.5079 34.5722 15.9688C34.5722 16.4296 34.663 16.8859 34.8393 17.3116C35.0157 17.7373 35.2742 18.1242 35.6 18.45C35.8327 18.6863 36.0979 18.8883 36.3875 19.05L31.625 21.4375C32.652 22.4616 33.9267 23.2023 35.325 23.5875C35.2028 25.1979 35.4299 26.8157 35.9908 28.3302C36.5518 29.8448 37.4333 31.2202 38.575 32.3625L43.85 25.5875C44.0455 25.3927 44.2775 25.2383 44.5328 25.1332C44.788 25.0281 45.0615 24.9743 45.3375 24.975C45.8875 24.975 46.425 25.1875 46.8375 25.6C47.2264 25.9969 47.4422 26.5318 47.4375 27.0875C47.4375 27.65 47.225 28.1875 46.825 28.5875L48.8125 30.575C49.6553 29.7421 50.1669 28.6314 50.252 27.4495C50.3371 26.2676 49.9899 25.095 49.275 24.15C50.23 24.4017 51.1013 24.902 51.8 25.6C52.8534 26.6547 53.445 28.0844 53.445 29.575C53.445 31.0656 52.8534 32.4953 51.8 33.55L53.7875 35.5375C54.5774 34.7584 55.2046 33.8301 55.6327 32.8065C56.0608 31.7829 56.2812 30.6845 56.2812 29.575C56.2812 28.4655 56.0608 27.3671 55.6327 26.3435C55.2046 25.3199 54.5774 24.3916 53.7875 23.6125V23.625Z" fill="#FFDA44"/>
</g>
</g>
<defs>
<clipPath id="clip0_240_821">
<rect width="64" height="64" fill="white"/>
</clipPath>
</defs>
</svg>
