<svg width="64" height="64" viewBox="0 0 64 64" fill="none" xmlns="http://www.w3.org/2000/svg">
<g clip-path="url(#clip0_240_97)">
<mask id="mask0_240_97" style="mask-type:luminance" maskUnits="userSpaceOnUse" x="0" y="0" width="64" height="64">
<path d="M32 64C49.6731 64 64 49.6731 64 32C64 14.3269 49.6731 0 32 0C14.3269 0 0 14.3269 0 32C0 49.6731 14.3269 64 32 64Z" fill="white"/>
</mask>
<g mask="url(#mask0_240_97)">
<path d="M0 47.3123L31.7625 44.5498L64 47.3123V63.9998H0V47.3123Z" fill="#496E2D"/>
<path d="M0 32.0121L31.875 28.2246L64 32.0121V47.3121H0V32.0121Z" fill="#FFDA44"/>
<path d="M0 0H64V32H0V0Z" fill="#338AF3"/>
<path d="M36.1758 18.7504L40.0883 20.5754L38.0008 24.3754L42.2508 23.5629L42.7883 27.8504L45.7383 24.7004L48.7008 27.8504L49.2383 23.5629L53.4883 24.3754L51.4008 20.5879L55.3008 18.7504L51.4008 16.9129L53.4758 13.1254L49.2258 13.9379L48.7008 9.65039L45.7383 12.8129L42.7883 9.65039L42.2508 13.9379L38.0008 13.1254L40.0883 16.9129L36.1758 18.7504Z" fill="#FFDA44"/>
</g>
</g>
<defs>
<clipPath id="clip0_240_97">
<rect width="64" height="64" fill="white"/>
</clipPath>
</defs>
</svg>
