<svg width="64" height="64" viewBox="0 0 64 64" fill="none" xmlns="http://www.w3.org/2000/svg">
<g clip-path="url(#clip0_240_106)">
<mask id="mask0_240_106" style="mask-type:luminance" maskUnits="userSpaceOnUse" x="0" y="0" width="64" height="64">
<path d="M32 64C49.6731 64 64 49.6731 64 32C64 14.3269 49.6731 0 32 0C14.3269 0 0 14.3269 0 32C0 49.6731 14.3269 64 32 64Z" fill="white"/>
</mask>
<g mask="url(#mask0_240_106)">
<path d="M0 0H64V64H0V0Z" fill="#496E2D"/>
<path d="M18.0875 38.2504C18.0875 40.5629 19.9625 42.4379 22.2625 42.4379H34.7875C34.7875 43.3595 35.1536 44.2434 35.8053 44.8951C36.457 45.5468 37.3409 45.9129 38.2625 45.9129H42.4375C43.3591 45.9129 44.243 45.5468 44.8947 44.8951C45.5464 44.2434 45.9125 43.3595 45.9125 42.4379V38.2504H18.0875ZM46.2625 18.0879V27.8379C46.2625 29.3629 45.0125 30.6129 43.475 30.6129V34.7879C47.3125 34.7879 50.4375 31.6629 50.4375 27.8254V18.0879H46.25H46.2625ZM16.35 27.8379C16.35 29.3629 15.1 30.6129 13.5625 30.6129V34.7879C17.4 34.7879 20.525 31.6629 20.525 27.8254V18.0879H16.35V27.8379Z" fill="#EEEEEE"/>
<path d="M40.0008 18.0879H44.1758V27.8379H40.0008V18.0879ZM33.7508 23.6504C33.7508 23.836 33.677 24.0141 33.5458 24.1454C33.4145 24.2766 33.2364 24.3504 33.0508 24.3504C32.8651 24.3504 32.6871 24.2766 32.5558 24.1454C32.4245 24.0141 32.3508 23.836 32.3508 23.6504V18.0879H28.1758V23.6504C28.1532 23.8184 28.0704 23.9724 27.9428 24.084C27.8152 24.1956 27.6515 24.2571 27.482 24.2571C27.3125 24.2571 27.1488 24.1956 27.0212 24.084C26.8937 23.9724 26.8109 23.8184 26.7883 23.6504V18.0879H22.6133V23.6504C22.6133 24.9433 23.1269 26.1833 24.0411 27.0975C24.9554 28.0118 26.1954 28.5254 27.4883 28.5254C28.4812 28.5254 29.45 28.2199 30.2633 27.6504C31.0766 28.2199 32.0454 28.5254 33.0383 28.5254C33.2508 28.5254 33.4633 28.5129 33.6633 28.4879C33.5153 29.0928 33.169 29.6307 32.6796 30.0159C32.1903 30.401 31.586 30.6112 30.9633 30.6129V34.7879C34.7883 34.7879 37.9133 31.6629 37.9133 27.8254V18.0879H33.7508V23.6504Z" fill="#EEEEEE"/>
<path d="M22.6133 30.6133H28.8633V34.7883H22.6133V30.6133Z" fill="#EEEEEE"/>
</g>
</g>
<defs>
<clipPath id="clip0_240_106">
<rect width="64" height="64" fill="white"/>
</clipPath>
</defs>
</svg>
