<svg width="64" height="64" viewBox="0 0 64 64" fill="none" xmlns="http://www.w3.org/2000/svg">
<g clip-path="url(#clip0_218_539)">
<mask id="mask0_218_539" style="mask-type:luminance" maskUnits="userSpaceOnUse" x="0" y="0" width="64" height="64">
<path d="M32 64C49.6731 64 64 49.6731 64 32C64 14.3269 49.6731 0 32 0C14.3269 0 0 14.3269 0 32C0 49.6731 14.3269 64 32 64Z" fill="white"/>
</mask>
<g mask="url(#mask0_218_539)">
<path d="M0 0V41.5L18.8625 24.1875L28.15 0H0Z" fill="#0052B4"/>
<path d="M34.1375 31.6625L64 0H28.15L0 41.5V51.525L34.1375 31.6625Z" fill="#FFDA44"/>
<path d="M64 0L0 51.525V57.825L34.7375 48.75L64 32V0Z" fill="#D80027"/>
<path d="M0 57.825L64 32V48.6875L36.0125 58.5375L0 61.05V57.825Z" fill="#EEEEEE"/>
<path d="M64 48.6875L0 61.0625V64H64V48.6875Z" fill="#6DA544"/>
</g>
</g>
<defs>
<clipPath id="clip0_218_539">
<rect width="64" height="64" fill="white"/>
</clipPath>
</defs>
</svg>
