<svg width="64" height="64" viewBox="0 0 64 64" fill="none" xmlns="http://www.w3.org/2000/svg">
<g clip-path="url(#clip0_240_902)">
<path d="M32 64C49.6731 64 64 49.6731 64 32C64 14.3269 49.6731 0 32 0C14.3269 0 0 14.3269 0 32C0 49.6731 14.3269 64 32 64Z" fill="#F0F0F0"/>
<path d="M1.10156 40.3479C2.95306 47.2177 7.03369 53.172 12.5209 57.3881V40.3479H1.10156ZM29.2166 63.8783C30.1419 63.9587 31.0703 63.9993 31.9992 64C46.7841 64 59.2248 53.9724 62.8968 40.3479H29.2166V63.8783ZM62.8968 23.6521C59.2248 10.0276 46.7841 0 31.9992 0C31.0614 0 30.1338 0.04275 29.2166 0.12175V23.6521H62.8968ZM12.5209 6.61188C7.03369 10.8281 2.95306 16.7822 1.10156 23.6521H12.5209V6.61188Z" fill="#D80027"/>
<path d="M63.7291 27.8262H25.0435V0.760742C22.1276 1.40675 19.3174 2.46053 16.6956 3.89099V27.8261H0.270875C0.09275 29.1925 0 30.5855 0 32.0001C0 33.4147 0.09275 34.8077 0.270875 36.174H16.6956V60.1091C19.3174 61.5396 22.1276 62.5934 25.0435 63.2394V36.1741H63.7291C63.907 34.8077 64 33.4147 64 32.0001C64 30.5855 63.907 29.1925 63.7291 27.8262Z" fill="#0052B4"/>
</g>
<defs>
<clipPath id="clip0_240_902">
<rect width="64" height="64" fill="white"/>
</clipPath>
</defs>
</svg>
