<svg width="64" height="64" viewBox="0 0 64 64" fill="none" xmlns="http://www.w3.org/2000/svg">
<g clip-path="url(#clip0_240_294)">
<mask id="mask0_240_294" style="mask-type:luminance" maskUnits="userSpaceOnUse" x="0" y="0" width="64" height="64">
<path d="M32 64C49.6731 64 64 49.6731 64 32C64 14.3269 49.6731 0 32 0C14.3269 0 0 14.3269 0 32C0 49.6731 14.3269 64 32 64Z" fill="white"/>
</mask>
<g mask="url(#mask0_240_294)">
<path d="M0 32L32 0H64V64H0V32Z" fill="#338AF3"/>
<path d="M0 0H4.175L8.175 2.1125L12.5375 0H32V4.175L30.15 8.3625L32 12.525V16.7L30.8375 20.9125L32 26.1V28.0625L31.225 29.5125L32 32H26.1L21.1875 31.125L16.7 32.0125L12.525 32L8.45 29.925L4.175 32H0V12.525L1.775 8.05L0 4.175V0Z" fill="#EEEEEE"/>
<path d="M31.9992 28.0625L20.6242 16.6875H16.6992L31.9992 32V28.0625Z" fill="#D80027"/>
<path d="M4.175 0V4.175H0V12.525H4.175V32H12.525V12.525H32V4.175H12.525V0H4.175Z" fill="#D80027"/>
<path d="M34.925 52.8754L35.6125 55.0004H37.8625L36.0375 56.3129L36.7375 58.4379L34.925 57.1254L33.1125 58.4379L33.8125 56.3129L32 55.0004H34.2375L34.925 52.8754ZM52.725 38.9629L53.4125 41.0879H55.6625L53.85 42.4004L54.5375 44.5254L52.725 43.2129L50.9125 44.5254L51.6125 42.4004L49.8 41.0879H52.0375L52.725 38.9629ZM57.1875 18.0879L57.875 20.2129H60.125L58.3125 21.5254L59.0125 23.6504L57.2 22.3379L55.3875 23.6504L56.0875 21.5254L54.275 20.2129H56.5L57.1875 18.0879ZM58.2875 33.3879L58.9875 35.5129H61.2125L59.4125 36.8254L60.1 38.9504L58.2875 37.6379L56.4875 38.9629L57.175 36.8379L55.3625 35.5129H57.6125L58.2875 33.3879ZM38.125 47.8754L40.125 48.8754L41.7 47.3004L41.35 49.5129L43.35 50.5254L41.125 50.8754L40.775 53.0879L39.7625 51.0879L37.55 51.4379L39.1375 49.8629L38.125 47.8754ZM38.125 39.5254L40.125 40.5379L41.7 38.9629L41.35 41.1629L43.35 42.1754L41.1375 42.5254L40.7875 44.7379L39.775 42.7379L37.5625 43.1004L39.15 41.5129L38.125 39.5254ZM45.0875 44.8754L47.0875 45.8879L48.6625 44.3129L48.3125 46.5129L50.3125 47.5254L48.0875 47.8754L47.75 50.0879L46.725 48.0879L44.525 48.4504L46.1 46.8629L45.0875 44.8754ZM45.0875 27.0004L47.0875 28.0129L48.6625 26.4379L48.3125 28.6379L50.3125 29.6629L48.0875 30.0129L47.75 32.2129L46.725 30.2129L44.525 30.5754L46.1 28.9879L45.0875 27.0004ZM51.8375 26.7879L53.825 27.8004L55.4 26.2254L55.05 28.4254L57.05 29.4379L54.8375 29.7879L54.4875 32.0004L53.475 30.0004L51.25 30.3754L52.8375 28.7879L51.8375 26.7879Z" fill="#FFDA44"/>
<path d="M22.5992 16.7002H31.9992V26.1002L22.5992 16.7002ZM16.6992 22.6002V32.0127L26.0992 32.0002L16.6992 22.6002Z" fill="#0052B4"/>
</g>
</g>
<defs>
<clipPath id="clip0_240_294">
<rect width="64" height="64" fill="white"/>
</clipPath>
</defs>
</svg>
