<svg width="64" height="64" viewBox="0 0 64 64" fill="none" xmlns="http://www.w3.org/2000/svg">
<g clip-path="url(#clip0_240_484)">
<mask id="mask0_240_484" style="mask-type:luminance" maskUnits="userSpaceOnUse" x="0" y="0" width="64" height="64">
<path d="M32 64C49.6731 64 64 49.6731 64 32C64 14.3269 49.6731 0 32 0C14.3269 0 0 14.3269 0 32C0 49.6731 14.3269 64 32 64Z" fill="white"/>
</mask>
<g mask="url(#mask0_240_484)">
<path d="M0 32L32 0H64V6.9625L61.4125 11.275L64 15.3V23.65L61.35 27.7375L64 32V40.35L61 44.3125L64 48.7V57.0375L31.6125 60.575L0 57.0375V48.7L3.3875 44.5375L0 40.35V32Z" fill="#338AF3"/>
<path d="M32 32.0004H64V23.6504H29.6125L32 32.0004ZM29.6125 15.3004H64V6.96289H29.6125V15.3004ZM64 64.0004V57.0379H0V64.0004H64ZM0 48.7004H64V40.3504H0V48.7004Z" fill="#EEEEEE"/>
<path d="M0 0H32V32H0V0Z" fill="#EEEEEE"/>
<path d="M27.8242 18.725L23.9117 20.5625L25.9992 24.35L21.7492 23.5375L21.2117 27.825L18.2617 24.675L15.2992 27.825L14.7617 23.5375L10.5242 24.35L12.5992 20.5625L8.69922 18.725L12.5992 16.8875L10.5242 13.1L14.7742 13.9125L15.2992 9.625L18.2617 12.7875L21.2117 9.625L21.7492 13.9125L25.9992 13.1L23.9117 16.8875L27.8242 18.725Z" fill="#FFDA44"/>
</g>
</g>
<defs>
<clipPath id="clip0_240_484">
<rect width="64" height="64" fill="white"/>
</clipPath>
</defs>
</svg>
