<svg width="64" height="64" viewBox="0 0 64 64" fill="none" xmlns="http://www.w3.org/2000/svg">
<g clip-path="url(#clip0_218_570)">
<mask id="mask0_218_570" style="mask-type:luminance" maskUnits="userSpaceOnUse" x="0" y="0" width="64" height="64">
<path d="M32 64C49.6731 64 64 49.6731 64 32C64 14.3269 49.6731 0 32 0C14.3269 0 0 14.3269 0 32C0 49.6731 14.3269 64 32 64Z" fill="white"/>
</mask>
<g mask="url(#mask0_218_570)">
<path d="M47.3125 0H16.7125L13.925 32L16.7125 64H47.3125L50.1 32L47.3125 0Z" fill="#FFDA44"/>
<path d="M16.7125 64V0H0V64H16.7125Z" fill="#338AF3"/>
<path d="M64 0H47.3125V64H64V0ZM25.05 40.35L19.5 32L25.0625 23.65L30.65 32L25.05 40.35ZM38.975 40.35L33.3875 32L38.9625 23.65L44.525 32L38.975 40.35ZM32.0125 51.475L26.45 43.125L32.0125 34.7875L37.575 43.125L32.0125 51.475Z" fill="#6DA544"/>
</g>
</g>
<defs>
<clipPath id="clip0_218_570">
<rect width="64" height="64" fill="white"/>
</clipPath>
</defs>
</svg>
