<svg width="64" height="64" viewBox="0 0 64 64" fill="none" xmlns="http://www.w3.org/2000/svg">
<g clip-path="url(#clip0_240_493)">
<mask id="mask0_240_493" style="mask-type:luminance" maskUnits="userSpaceOnUse" x="0" y="0" width="64" height="64">
<path d="M32 64C49.6731 64 64 49.6731 64 32C64 14.3269 49.6731 0 32 0C14.3269 0 0 14.3269 0 32C0 49.6731 14.3269 64 32 64Z" fill="white"/>
</mask>
<g mask="url(#mask0_240_493)">
<path d="M0 18.0879L31.9125 13.5254L64 18.0879V45.9129L31.3125 50.8754L0 45.9129V18.0879Z" fill="#0052B4"/>
<path d="M0 0H64V18.0875H0V0Z" fill="#FFDA44"/>
<path d="M0 45.9121H64V63.9996H0V45.9121Z" fill="#D80027"/>
<path d="M55.4242 38.3004L53.7242 39.6254L54.4742 41.6379L52.6867 40.4379L50.9992 41.7754L51.5867 39.7129L49.8117 38.5129L51.9492 38.4379L52.5367 36.3754L53.2867 38.3879L55.4242 38.3004ZM51.0867 30.8004L49.9617 32.6129L51.3367 34.2629L49.2492 33.7504L48.1242 35.5754L47.9617 33.4504L45.8867 32.9129L47.8742 32.1129L47.7242 29.9879L49.0992 31.6129L51.0867 30.8004ZM44.4617 25.2379L44.0117 27.3379L45.8742 28.3879L43.7492 28.6129L43.2992 30.7129L42.4242 28.7504L40.2992 28.9754L41.8867 27.5379L41.0117 25.5879L42.8617 26.6629L44.4617 25.2379ZM36.3367 22.2754L36.6242 24.4004L38.7492 24.7754L36.8117 25.7129L37.1117 27.8379L35.6117 26.2879L33.6867 27.2379L34.6867 25.3379L33.2117 23.8004L35.3242 24.1754L36.3367 22.2754ZM27.6742 22.2754L28.6742 24.1629L30.7992 23.7879L29.2992 25.3379L30.2992 27.2379L28.3742 26.2879L26.8867 27.8379L27.1867 25.7129L25.2617 24.7754L27.3742 24.4004L27.6742 22.2754ZM19.5492 25.2379L21.1367 26.6754L22.9867 25.6004L22.1117 27.5629L23.7117 28.9879L21.5867 28.7629L20.7117 30.7254L20.2492 28.6379L18.1242 28.4129L19.9742 27.3504L19.5492 25.2379ZM12.9117 30.8004L14.8992 31.6004L16.2742 29.9754L16.1242 32.1004L18.1242 32.9004L16.0367 33.4254L15.8867 35.5504L14.7492 33.7504L12.6617 34.2754L14.0367 32.6254L12.9117 30.8004ZM8.57422 38.3004L10.7242 38.3629L11.4617 36.3629L12.0492 38.4129L14.1867 38.4879L12.4117 39.6879L12.9992 41.7629L11.3117 40.4379L9.53672 41.6379L10.2742 39.6379L8.57422 38.3004Z" fill="#EEEEEE"/>
</g>
</g>
<defs>
<clipPath id="clip0_240_493">
<rect width="64" height="64" fill="white"/>
</clipPath>
</defs>
</svg>
