<svg width="64" height="64" viewBox="0 0 64 64" fill="none" xmlns="http://www.w3.org/2000/svg">
<g clip-path="url(#clip0_233_381)">
<mask id="mask0_233_381" style="mask-type:luminance" maskUnits="userSpaceOnUse" x="0" y="0" width="64" height="64">
<path d="M32 64C49.6731 64 64 49.6731 64 32C64 14.3269 49.6731 0 32 0C14.3269 0 0 14.3269 0 32C0 49.6731 14.3269 64 32 64Z" fill="white"/>
</mask>
<g mask="url(#mask0_233_381)">
<path d="M32 0H64V64H0V32L32 0Z" fill="#D80027"/>
<path d="M0 0H32V32H0V0Z" fill="#EEEEEE"/>
<path d="M0 0H9.375V28H0V0Z" fill="#0052B4"/>
<path d="M18.625 0H28V28H18.625V0Z" fill="#D80027"/>
<path d="M48 29L39 20H57L48 29ZM45 32L36 23V41L45 32ZM48 35L39 44H57L48 35ZM51 32L60 23V41L51 32Z" fill="#EEEEEE"/>
</g>
</g>
<defs>
<clipPath id="clip0_233_381">
<rect width="64" height="64" fill="white"/>
</clipPath>
</defs>
</svg>
