<svg width="64" height="64" viewBox="0 0 64 64" fill="none" xmlns="http://www.w3.org/2000/svg">
<g clip-path="url(#clip0_240_513)">
<mask id="mask0_240_513" style="mask-type:luminance" maskUnits="userSpaceOnUse" x="0" y="0" width="64" height="64">
<path d="M32 64C49.6731 64 64 49.6731 64 32C64 14.3269 49.6731 0 32 0C14.3269 0 0 14.3269 0 32C0 49.6731 14.3269 64 32 64Z" fill="white"/>
</mask>
<g mask="url(#mask0_240_513)">
<path d="M0 0H64V32L32 64H0V0Z" fill="#496E2D"/>
<path d="M59.125 20.8754H50.7875C50.7875 20.1361 50.4938 19.4271 49.9711 18.9043C49.4483 18.3816 48.7393 18.0879 48 18.0879C47.2607 18.0879 46.5517 18.3816 46.0289 18.9043C45.5062 19.4271 45.2125 20.1361 45.2125 20.8754H36.875C36.9009 21.6204 37.2152 22.3263 37.7516 22.844C38.288 23.3617 39.0045 23.6508 39.75 23.6504H39.65C39.65 25.1879 40.9 26.4379 42.4375 26.4379C42.4375 27.9754 43.6875 29.2129 45.2125 29.2129H50.7875C52.325 29.2129 53.5625 27.9629 53.5625 26.4379C55.1 26.4379 56.35 25.1879 56.35 23.6504H56.25C56.9955 23.6508 57.712 23.3617 58.2484 22.844C58.7848 22.3263 59.0991 21.6204 59.125 20.8754Z" fill="#FF9811"/>
<path d="M42.6641 32H53.3391L55.9766 47.7875L53.3391 64H42.6641L39.7266 48L42.6641 32Z" fill="#333333"/>
<path d="M32 32H42.6625V64H32V32Z" fill="#D80027"/>
<path d="M53.3359 32H63.9984V64H53.3359V32Z" fill="#FF9811"/>
</g>
</g>
<defs>
<clipPath id="clip0_240_513">
<rect width="64" height="64" fill="white"/>
</clipPath>
</defs>
</svg>
