<svg width="60" height="60" viewBox="0 0 60 60" fill="none" xmlns="http://www.w3.org/2000/svg">
<rect width="60" height="60" rx="30" fill="#4285F4"/>
<g clip-path="url(#clip0_783_52)">
<path d="M13.8333 21.6667C13.8333 19.5891 14.6586 17.5967 16.1276 16.1277C17.5967 14.6586 19.5891 13.8333 21.6666 13.8333H37.3333C39.4108 13.8333 41.4033 14.6586 42.8723 16.1277C44.3414 17.5967 45.1666 19.5891 45.1666 21.6667V37.3333C45.1666 39.4109 44.3414 41.4033 42.8723 42.8723C41.4033 44.3414 39.4108 45.1667 37.3333 45.1667H21.6666C19.5891 45.1667 17.5967 44.3414 16.1276 42.8723C14.6586 41.4033 13.8333 39.4109 13.8333 37.3333V21.6667Z" stroke="white" stroke-width="2" stroke-linecap="round" stroke-linejoin="round"/>
<path d="M23.625 29.5C23.625 31.0581 24.244 32.5525 25.3457 33.6543C26.4475 34.756 27.9419 35.375 29.5 35.375C31.0581 35.375 32.5525 34.756 33.6543 33.6543C34.756 32.5525 35.375 31.0581 35.375 29.5C35.375 27.9419 34.756 26.4475 33.6543 25.3457C32.5525 24.244 31.0581 23.625 29.5 23.625C27.9419 23.625 26.4475 24.244 25.3457 25.3457C24.244 26.4475 23.625 27.9419 23.625 29.5Z" stroke="white" stroke-width="2" stroke-linecap="round" stroke-linejoin="round"/>
<path d="M38.3125 20.6875V20.7071" stroke="white" stroke-width="2" stroke-linecap="round" stroke-linejoin="round"/>
</g>
<defs>
<clipPath id="clip0_783_52">
<rect width="47" height="47" fill="white" transform="translate(6 6)"/>
</clipPath>
</defs>
</svg>
