<svg xmlns="http://www.w3.org/2000/svg" width="45" height="45" viewBox="0 0 45 45">
  <g id="Group_603" data-name="Group 603" transform="translate(242)">
    <circle id="Ellipse_13" data-name="Ellipse 13" cx="22.5" cy="22.5" r="22.5" transform="translate(-242)" fill="#fff"/>
    <path id="btc" d="M22.5,45A22.5,22.5,0,1,1,45,22.5,22.5,22.5,0,0,1,22.5,45ZM32.61,19.716c.442-2.948-1.8-4.532-4.873-5.59l1-3.994-2.43-.6-.97,3.888c-.638-.16-1.294-.309-1.948-.458l.977-3.914-2.43-.606-1,3.992c-.529-.121-1.049-.239-1.552-.366l0-.013-3.353-.837-.647,2.6s1.8.413,1.766.439a1.294,1.294,0,0,1,1.132,1.415l-1.133,4.549a2.162,2.162,0,0,1,.253.08l-.257-.063L15.559,26.6a.886.886,0,0,1-1.115.577c.025.035-1.766-.44-1.766-.44l-1.207,2.782,3.164.789c.588.148,1.164.3,1.731.447L15.36,34.8l2.429.6,1-3.994c.664.179,1.308.345,1.938.5l-.993,3.977,2.43.6,1.005-4.03c4.146.785,7.262.468,8.574-3.281,1.058-3.018-.052-4.76-2.233-5.895a3.875,3.875,0,0,0,3.1-3.569ZM27.055,27.5c-.75,3.019-5.833,1.387-7.481.977L20.91,23.13C22.558,23.542,27.841,24.356,27.055,27.5Zm.752-7.831c-.685,2.746-4.915,1.35-6.286,1.008l1.209-4.852c1.371.342,5.791.979,5.077,3.843Z" transform="translate(-242)" fill="#4285f4" fill-rule="evenodd"/>
  </g>
</svg>
