<svg width="64" height="64" viewBox="0 0 64 64" fill="none" xmlns="http://www.w3.org/2000/svg">
<g clip-path="url(#clip0_40_30143)">
<path d="M32 64C49.6731 64 64 49.6731 64 32C64 14.3269 49.6731 0 32 0C14.3269 0 0 14.3269 0 32C0 49.6731 14.3269 64 32 64Z" fill="#F5F5F5"/>
<path d="M31.996 7.57202L31.668 8.68502V40.985L31.996 41.312L46.996 32.448L31.996 7.57202Z" fill="#343434"/>
<path d="M32 7.57202L17 32.453L32 41.317V7.57202Z" fill="#8C8C8C"/>
<path d="M31.996 44.1561L31.811 44.3811V55.8891L31.996 56.4281L46.996 35.2971L31.996 44.1561Z" fill="#3C3C3B"/>
<path d="M32 56.4281V44.1561L17 35.2971L32 56.4281Z" fill="#8C8C8C"/>
<path d="M31.996 41.317L46.996 32.453L31.996 25.637V41.317Z" fill="#141414"/>
<path d="M17 32.453L32 41.317V25.637L17 32.453Z" fill="#393939"/>
</g>
<defs>
<clipPath id="clip0_40_30143">
<rect width="64" height="64" fill="white"/>
</clipPath>
</defs>
</svg>
