<svg width="64" height="64" viewBox="0 0 64 64" fill="none" xmlns="http://www.w3.org/2000/svg">
<g clip-path="url(#clip0_40_31916)">
<path d="M32 64C49.6731 64 64 49.6731 64 32C64 14.3269 49.6731 0 32 0C14.3269 0 0 14.3269 0 32C0 49.6731 14.3269 64 32 64Z" fill="#F0080D"/>
<path d="M45.43 33.0441C45.2379 33.3453 44.9851 33.6031 44.6879 33.8012C43.2097 34.7395 41.5546 35.3641 39.825 35.6362C39.0011 35.8374 38.1437 35.8609 37.31 35.7051C37.096 35.5981 37.0649 35.5141 37.1419 35.2391C37.4346 34.4986 37.9573 33.8715 38.633 33.4501C39.046 33.1501 40.7199 32.1352 41.4999 31.7072C42.4365 31.1384 43.4592 30.7254 44.528 30.4841C44.7174 30.4486 44.9117 30.4486 45.101 30.4841C45.239 30.5381 45.3909 30.9431 45.4529 31.4321C45.48 31.9694 45.4724 32.5079 45.43 33.0441Z" fill="black"/>
<path d="M27.4169 35.5751C27.272 35.7134 27.0821 35.7947 26.882 35.8041C26.3799 35.8352 25.876 35.8226 25.376 35.7662C23.7845 35.5609 22.2333 35.1148 20.7759 34.4432C20.1932 34.1787 19.6582 33.8195 19.1929 33.3801L18.9789 33.1581L18.956 32.8672C18.9139 32.3398 18.9243 31.8095 18.987 31.2842C19.0265 31.0478 19.1066 30.8201 19.2239 30.6111C19.2849 30.5351 19.285 30.5352 19.56 30.5352C19.9279 30.5415 20.2923 30.6091 20.638 30.7352C22.0548 31.2607 23.4109 31.9373 24.6829 32.7532C25.5836 33.1862 26.3815 33.8068 27.023 34.5732C27.2715 34.8484 27.4114 35.2044 27.4169 35.5751Z" fill="black"/>
<path d="M38.2429 46.2171C38.2429 46.2401 38.1509 46.6071 38.0369 47.0431C37.9229 47.4791 37.8309 47.8311 37.8309 47.8431C37.7497 47.8534 37.6677 47.856 37.5859 47.8511H37.3409L37.0049 48.6511C36.8219 49.0871 36.6529 49.4921 36.6299 49.5511L36.5839 49.6581L36.4229 49.3981L36.2629 49.1381V47.0201L36.2019 47.0351C36.0719 47.0661 35.1469 47.1881 34.7419 47.2261C33.0694 47.3931 31.3828 47.3572 29.7189 47.1191C29.4509 47.0811 29.2189 47.0501 29.2189 47.0581C29.2189 47.0661 29.2189 47.5581 29.2339 48.1581L29.2568 49.2441L29.1268 49.4441C29.0578 49.5511 28.9899 49.6441 28.9899 49.6501C28.9669 49.6731 28.8898 49.5501 28.7148 49.1991C28.526 48.8303 28.3823 48.4402 28.2869 48.0371L28.2329 47.8151L27.9959 47.8301L27.7589 47.8531L27.6979 47.57C27.6669 47.417 27.6289 47.1801 27.6139 47.0501L27.5909 46.8051L27.3909 46.6291C27.2759 46.5291 27.1619 46.4291 27.1389 46.4151C27.1212 46.3986 27.1072 46.3784 27.098 46.3559C27.0889 46.3335 27.0848 46.3093 27.0859 46.2851V46.1931L28.0419 46.2011L28.9979 46.2091L29.0289 46.3091L29.0599 46.4091L29.3889 46.4241C29.5729 46.4321 30.1538 46.4471 30.6738 46.4621L31.6299 46.4851L31.8749 46.1031L32.1268 45.721H32.4479L32.4399 44.9211L32.4329 44.1211L32.0118 43.9381C31.4832 43.7716 30.9938 43.4997 30.5732 43.1387C30.1527 42.7778 29.8097 42.3353 29.5649 41.8381C29.4832 41.5135 29.4574 41.1773 29.4889 40.8441C29.4495 40.5125 29.4651 40.1766 29.5349 39.8501C29.5865 39.6625 29.6864 39.4917 29.8247 39.3548C29.963 39.218 30.1348 39.1198 30.3229 39.07C31.0807 39.0099 31.8414 38.9973 32.6008 39.0321L34.7269 39.0401L34.9639 39.1551C35.1932 39.2491 35.3916 39.4053 35.5369 39.6061C35.7275 39.865 35.8124 40.1869 35.7739 40.5061C35.7893 40.9981 35.7508 41.4904 35.6589 41.9741C35.5579 42.2884 35.4084 42.5849 35.2159 42.8531C34.7591 43.3953 34.1686 43.809 33.5029 44.0531L33.3198 44.1221L33.3279 44.9221L33.3359 45.7221L33.5039 45.7371L33.6719 45.7521L33.9009 46.096L34.1229 46.4401H35.1478C35.7138 46.4401 36.2108 46.4481 36.2568 46.4551C36.3338 46.4701 36.3489 46.463 36.4249 46.333L36.5168 46.195H37.3959C37.6777 46.1589 37.9634 46.1663 38.2429 46.2171Z" fill="black"/>
<path d="M34.2059 48.4122C34.0609 48.4962 33.9609 48.5342 33.9389 48.5192C33.9169 48.5042 33.8089 48.4192 33.6939 48.3352L33.488 48.1672L33.2739 48.3962C32.8079 48.8962 32.792 48.9242 32.655 48.9312C32.441 48.9542 32.3949 48.9162 32.1349 48.5262C31.9969 48.3262 31.89 48.1592 31.89 48.1592C31.89 48.1592 31.79 48.1442 31.676 48.1362L31.462 48.1132L31.3619 48.3192L31.2619 48.5252L31.0859 48.4712C30.9478 48.4255 30.8127 48.3717 30.681 48.3102L30.452 48.1952V47.7622L32.4859 47.7702L34.52 47.7782L34.5279 47.9842C34.5349 48.2292 34.5429 48.2212 34.2059 48.4122Z" fill="black"/>
<path d="M53.3208 39.0841C53.3128 39.0531 53.3128 39.0001 53.3058 38.9161C51.1712 38.7143 49.0178 38.9368 46.9695 39.5706C44.9212 40.2044 43.0185 41.237 41.3709 42.6091C41.3709 42.6091 39.8028 35.4221 32.4628 35.4221C25.1228 35.4221 22.4008 42.6091 22.4008 42.6091C20.9161 41.0861 19.0858 39.944 17.0652 39.2798C15.0446 38.6157 12.8936 38.449 10.7949 38.7941C10.7949 38.8401 10.7869 38.8941 10.7869 38.9391C10.7 39.7194 10.7518 40.5089 10.9398 41.2711C11.5128 43.4501 13.2798 45.8511 16.0468 48.2061C20.5808 52.0591 26.7279 54.8421 31.3839 55.1641C36.2389 55.4931 43.4028 52.6561 48.1738 48.5121C48.9204 47.8506 49.6251 47.1432 50.2838 46.3941C50.6983 45.9252 51.0742 45.4236 51.4078 44.8941C51.3928 44.8941 51.4079 44.8791 51.4389 44.8631C51.4699 44.8471 51.4849 44.8251 51.4699 44.8091C51.4549 44.7931 51.4779 44.7781 51.4999 44.7711C51.5219 44.7641 51.5379 44.7481 51.5309 44.7331C51.5239 44.7181 51.5309 44.7021 51.5619 44.6951C51.5666 44.6939 51.571 44.6917 51.5748 44.6887C51.5786 44.6856 51.5817 44.6817 51.5839 44.6774C51.5861 44.673 51.5872 44.6682 51.5874 44.6633C51.5876 44.6585 51.5867 44.6536 51.5848 44.6491C51.5768 44.6341 51.5849 44.6181 51.5999 44.6181C51.6149 44.6181 51.6309 44.5951 51.6309 44.5801C51.6309 44.5651 51.6459 44.5421 51.6619 44.5421C51.6699 44.5416 51.6775 44.5382 51.6832 44.5325C51.6889 44.5268 51.6924 44.5192 51.6929 44.5111C51.7185 44.4484 51.7521 44.3892 51.7929 44.3351C51.9079 44.1591 52.3659 43.3411 52.4279 43.2031C52.832 42.3307 53.1149 41.4072 53.2688 40.4581C53.32 40.002 53.3374 39.5428 53.3208 39.0841ZM34.2069 48.4121C34.0619 48.4961 33.9618 48.5341 33.9388 48.5191C33.9158 48.5041 33.8089 48.4191 33.6939 48.3351L33.4879 48.1671L33.2739 48.3961C32.8069 48.8961 32.7919 48.9241 32.6549 48.9311C32.4409 48.9541 32.3948 48.9161 32.1348 48.5261C31.9968 48.3261 31.8898 48.1591 31.8898 48.1591C31.8898 48.1591 31.7898 48.1441 31.6758 48.1361L31.4619 48.1131L31.3618 48.3191L31.2618 48.5251L31.0858 48.4721C30.9478 48.4263 30.8126 48.3726 30.6809 48.3111L30.4518 48.1961V47.7601L32.4858 47.7681L34.5198 47.7761L34.5278 47.9821C34.5328 48.2291 34.5428 48.2221 34.2058 48.4121H34.2069ZM38.0299 47.0361C37.9149 47.4721 37.8239 47.8241 37.8239 47.8361C37.7426 47.8465 37.6606 47.8491 37.5789 47.8441H37.3339L37.0048 48.6441C36.8218 49.0801 36.6528 49.4851 36.6298 49.5441L36.5839 49.6511L36.4229 49.3911L36.2628 49.1311V47.0221L36.2018 47.0371C36.0718 47.0681 35.1468 47.1901 34.7418 47.2281C33.0693 47.3951 31.3827 47.3592 29.7188 47.1211C29.4508 47.0831 29.2188 47.0521 29.2188 47.0601C29.2188 47.0681 29.2188 47.5601 29.2338 48.1601L29.2568 49.2461L29.1268 49.4461C29.0578 49.5531 28.9888 49.6461 28.9888 49.6521C28.9658 49.6751 28.8889 49.5521 28.7139 49.2011C28.5251 48.8324 28.3813 48.4422 28.2858 48.0391L28.2318 47.8171L27.9948 47.8321L27.7578 47.8551L27.6968 47.5721C27.6668 47.4191 27.6279 47.1821 27.6129 47.0521L27.5898 46.8071L27.3898 46.6311C27.2748 46.5311 27.1608 46.4311 27.1378 46.4171C27.12 46.4006 27.1059 46.3805 27.0966 46.358C27.0872 46.3356 27.0829 46.3114 27.0839 46.2871V46.1951L28.0399 46.2031L28.9959 46.2111L29.0269 46.3111L29.0568 46.4111L29.3859 46.4261C29.5689 46.4341 30.1508 46.4491 30.6708 46.4641L31.6268 46.4871L31.8718 46.1051L32.1238 45.7231H32.4448L32.4368 44.9231L32.4288 44.1231L32.0089 43.9401C31.4802 43.7737 30.9908 43.5018 30.5702 43.1408C30.1496 42.7799 29.8066 42.3374 29.5618 41.8401C29.4795 41.5157 29.4534 41.1794 29.4849 40.8461C29.4453 40.5145 29.4608 40.1786 29.5308 39.8521C29.5823 39.6646 29.682 39.4939 29.8201 39.357C29.9582 39.2201 30.1299 39.1219 30.3178 39.0721C31.0756 39.012 31.8364 38.9993 32.5958 39.0341L34.7219 39.0421L34.9589 39.1571C35.1882 39.2511 35.3866 39.4073 35.5319 39.6081C35.7225 39.867 35.8073 40.1889 35.7689 40.5081C35.7843 41.0002 35.7457 41.4925 35.6538 41.9761C35.5525 42.2905 35.4027 42.587 35.2098 42.8551C34.753 43.3974 34.1625 43.811 33.4968 44.0551L33.3138 44.1241L33.3218 44.9241L33.3298 45.7241L33.4979 45.7391L33.6658 45.7541L33.8948 46.0981L34.1168 46.4421H35.1419C35.7079 46.4421 36.2049 46.4501 36.2509 46.4571C36.3269 46.4721 36.3428 46.4651 36.4188 46.3351L36.5109 46.1971H37.3898C37.683 46.1726 37.9781 46.183 38.2689 46.2281C38.1688 46.4908 38.0899 46.7609 38.0328 47.0361H38.0299Z" fill="white"/>
<path d="M53.2599 38.3042C53.2449 37.9602 53.2139 37.4782 53.1909 37.2412C52.9189 33.962 51.9288 30.7829 50.2909 27.9292C50.2276 27.8262 50.1715 27.7189 50.1229 27.6082C50.1109 27.5887 50.1006 27.5683 50.0919 27.5472C50.3289 26.8362 51.2999 23.8622 52.0719 20.4592C53.1189 15.8412 53.7849 10.4432 51.7509 8.82218C51.7509 8.82218 48.2339 8.56216 43.5239 13.1802C42.2458 14.4567 41.0796 15.8404 40.038 17.3162L39.7089 17.2092C37.8168 16.5897 35.8545 16.2094 33.8679 16.0772C33.2679 16.0312 31.0469 16.0312 30.3199 16.0772C28.346 16.1777 26.3967 16.5612 24.5319 17.2162C24.4549 17.2472 24.3869 17.2702 24.3179 17.2922C23.2406 15.8207 22.0359 14.4467 20.7179 13.1862C15.8179 8.54518 12.1699 8.81318 12.1699 8.81318C10.0139 10.4872 10.7479 16.1302 11.8639 20.9012C12.5979 24.0592 13.4999 26.8342 13.8369 27.8362C13.812 27.8937 13.784 27.9498 13.7529 28.0042C12.0388 31.361 11.0272 35.0321 10.7799 38.7932C12.8799 38.446 15.0327 38.6115 17.0549 39.2758C19.0771 39.9401 20.9089 41.0833 22.3939 42.6082C22.3939 42.6082 25.1159 35.4212 32.4559 35.4212C39.7959 35.4212 41.3629 42.6082 41.3629 42.6082C43.0117 41.238 44.9145 40.2065 46.9625 39.5728C49.0105 38.9391 51.1634 38.7156 53.2979 38.9152C53.2899 38.7632 53.2749 38.5332 53.2599 38.3042ZM15.2799 24.9552C15.2799 24.9552 12.4209 17.8062 13.1539 13.7232C13.2453 13.0904 13.4894 12.4895 13.8649 11.9722C13.8649 11.9722 17.1069 12.2932 22.3359 18.1042C21.5163 18.5332 20.7383 19.0373 20.0119 19.6102C20.0079 19.6144 20.0026 19.6172 19.9969 19.6182C18.0916 21.0726 16.4892 22.8856 15.2799 24.9552ZM27.4139 35.5752C27.269 35.7136 27.079 35.7949 26.8789 35.8042C26.3768 35.8353 25.8729 35.8226 25.3729 35.7662C23.7814 35.5609 22.2303 35.1148 20.7729 34.4432C20.1901 34.1788 19.6552 33.8196 19.1899 33.3802L18.9759 33.1582L18.9529 32.8672C18.9108 32.3398 18.9212 31.8095 18.9839 31.2842C19.0235 31.0479 19.1037 30.8202 19.2209 30.6112C19.2819 30.5352 19.2819 30.5352 19.5569 30.5352C19.9248 30.5414 20.2892 30.609 20.6349 30.7352C22.0517 31.2607 23.4079 31.9373 24.6799 32.7532C25.5807 33.1862 26.3785 33.8067 27.0199 34.5732C27.2694 34.8476 27.4105 35.2034 27.4169 35.5742L27.4139 35.5752ZM45.4279 33.0442C45.2357 33.3453 44.9831 33.603 44.6859 33.8012C43.2077 34.7394 41.5524 35.364 39.8229 35.6362C38.9986 35.8374 38.1409 35.8609 37.3069 35.7052C37.0929 35.5982 37.0619 35.5142 37.1389 35.2392C37.4316 34.4986 37.9542 33.8715 38.6299 33.4502C39.0429 33.1502 40.7169 32.1352 41.4969 31.7072C42.4335 31.1385 43.4561 30.7254 44.5249 30.4842C44.7143 30.4487 44.9085 30.4487 45.0979 30.4842C45.2359 30.5382 45.389 30.9432 45.45 31.4322C45.4783 31.9693 45.4719 32.5078 45.4309 33.0442H45.4279ZM44.1589 19.6102L44.1439 19.6022C43.4439 19.0302 42.6912 18.5259 41.8959 18.0962C46.9499 12.2852 50.0769 11.9642 50.0769 11.9642C50.4373 12.4875 50.6727 13.0865 50.7649 13.7152C51.4759 17.7982 48.7159 24.9542 48.7159 24.9542C47.5581 22.894 46.0103 21.079 44.1589 19.6102Z" fill="#FFA409"/>
<path d="M50.7748 13.7162C50.1748 13.6402 47.3568 13.6242 44.1608 19.6112L44.1459 19.6032C43.446 19.0312 42.6932 18.5269 41.8979 18.0972C46.9519 12.2862 50.0789 11.9652 50.0789 11.9652C50.4452 12.4861 50.6835 13.086 50.7748 13.7162Z" fill="#FF9300"/>
<path d="M48.726 24.9553C47.5676 22.8934 46.0171 21.078 44.1619 19.6113C47.3619 13.6243 50.1719 13.6403 50.7759 13.7163C51.4859 17.8063 48.726 24.9553 48.726 24.9553Z" fill="#FF8300"/>
<path d="M22.3398 18.0972C21.5202 18.5262 20.7422 19.0304 20.0159 19.6032C20.0119 19.6074 20.0066 19.6102 20.0009 19.6112C16.6899 13.6172 13.7769 13.6402 13.1499 13.7162C13.2413 13.0835 13.4854 12.4825 13.861 11.9652C13.869 11.9652 17.1108 12.2862 22.3398 18.0972Z" fill="#FF9300"/>
<path d="M20.013 19.6103C18.1031 21.0649 16.4977 22.8806 15.288 24.9543C15.288 24.9543 12.429 17.8052 13.163 13.7152C13.777 13.6392 16.698 13.6243 20.013 19.6103Z" fill="#FF8300"/>
<path d="M40.9879 28.9232C40.9879 28.9232 38.5409 29.0762 38.8469 27.1642C38.9599 26.5361 39.3064 25.974 39.817 25.5911C40.3276 25.2081 40.9642 25.0328 41.5989 25.1002C42.1339 25.1762 44.2749 25.9412 43.8929 27.5472C43.5109 29.1532 42.9749 28.8472 42.6689 28.9232C42.1093 28.9621 41.5476 28.9621 40.9879 28.9232Z" fill="white"/>
<path d="M22.9439 28.9231C22.9439 28.9231 20.4969 29.0761 20.8029 27.1641C20.9161 26.5361 21.2627 25.9742 21.7732 25.5913C22.2838 25.2084 22.9203 25.0329 23.5549 25.1001C24.0899 25.1761 26.2309 25.9411 25.8489 27.5471C25.4669 29.1531 24.9319 28.8471 24.6259 28.9231C24.0659 28.9621 23.5039 28.9621 22.9439 28.9231Z" fill="white"/>
</g>
<defs>
<clipPath id="clip0_40_31916">
<rect width="64" height="64" fill="white"/>
</clipPath>
</defs>
</svg>
