<svg width="64" height="64" viewBox="0 0 64 64" fill="none" xmlns="http://www.w3.org/2000/svg">
<g clip-path="url(#clip0_40_32823)">
<path d="M32 64C49.6731 64 64 49.6731 64 32C64 14.3269 49.6731 0 32 0C14.3269 0 0 14.3269 0 32C0 49.6731 14.3269 64 32 64Z" fill="#23292F"/>
<path d="M43.313 18.75H47.938L38.313 28.28C36.6301 29.9378 34.3627 30.867 32.0005 30.867C29.6382 30.867 27.3708 29.9378 25.688 28.28L16.059 18.75H20.688L28.001 25.989C29.0663 27.039 30.5021 27.6277 31.998 27.6277C33.4938 27.6277 34.9296 27.039 35.995 25.989L43.313 18.75Z" fill="white"/>
<path d="M20.628 45.25H16L25.688 35.661C27.3708 34.0032 29.6383 33.074 32.0005 33.074C34.3627 33.074 36.6302 34.0032 38.313 35.661L48 45.25H43.375L36 37.952C34.9346 36.9019 33.4989 36.3133 32.003 36.3133C30.5071 36.3133 29.0714 36.9019 28.006 37.952L20.628 45.25Z" fill="white"/>
</g>
<defs>
<clipPath id="clip0_40_32823">
<rect width="64" height="64" fill="white"/>
</clipPath>
</defs>
</svg>
