<svg width="64" height="64" viewBox="0 0 64 64" fill="none" xmlns="http://www.w3.org/2000/svg">
<g clip-path="url(#clip0_224_1073)">
<mask id="mask0_224_1073" style="mask-type:luminance" maskUnits="userSpaceOnUse" x="0" y="0" width="64" height="64">
<path d="M32 64C49.6731 64 64 49.6731 64 32C64 14.3269 49.6731 0 32 0C14.3269 0 0 14.3269 0 32C0 49.6731 14.3269 64 32 64Z" fill="white"/>
</mask>
<g mask="url(#mask0_224_1073)">
<path d="M0 0H20.875L27.4125 31.5L20.875 64H0V0Z" fill="#A2001D"/>
<path d="M20.875 20.8748L42.225 15.2998L64 20.8748V43.1248L42.35 47.7373L20.875 43.1248V20.8748Z" fill="#EEEEEE"/>
<path d="M20.875 0H64V20.875H20.875V0Z" fill="#6DA544"/>
<path d="M20.875 43.125H64V64H20.875V43.125Z" fill="#333333"/>
</g>
</g>
<defs>
<clipPath id="clip0_224_1073">
<rect width="64" height="64" fill="white"/>
</clipPath>
</defs>
</svg>
