<svg width="64" height="64" viewBox="0 0 64 64" fill="none" xmlns="http://www.w3.org/2000/svg">
<mask id="mask0_218_194" style="mask-type:luminance" maskUnits="userSpaceOnUse" x="0" y="0" width="64" height="64">
<path d="M32 64C49.6731 64 64 49.6731 64 32C64 14.3269 49.6731 0 32 0C14.3269 0 0 14.3269 0 32C0 49.6731 14.3269 64 32 64Z" fill="white"/>
</mask>
<g mask="url(#mask0_218_194)">
<path d="M18.0875 0H45.9125L50.5375 32.2125L45.9125 64H18.0875L12.7875 32.1L18.0875 0Z" fill="#D80027"/>
<path d="M45.9125 0H64V64H45.9125V0Z" fill="#496E2D"/>
<path d="M0 0H18.0875V64H0V0Z" fill="#333333"/>
<path d="M32 20.875C29.0495 20.875 26.2198 22.0471 24.1334 24.1334C22.0471 26.2198 20.875 29.0495 20.875 32C20.875 34.9505 22.0471 37.7802 24.1334 39.8666C26.2198 41.9529 29.0495 43.125 32 43.125C34.9505 43.125 37.7802 41.9529 39.8666 39.8666C41.9529 37.7802 43.125 34.9505 43.125 32C43.125 29.0495 41.9529 26.2198 39.8666 24.1334C37.7802 22.0471 34.9505 20.875 32 20.875ZM32 38.9625C30.1534 38.9625 28.3825 38.229 27.0768 36.9232C25.771 35.6175 25.0375 33.8466 25.0375 32C25.0375 30.1534 25.771 28.3825 27.0768 27.0768C28.3825 25.771 30.1534 25.0375 32 25.0375C33.8466 25.0375 35.6175 25.771 36.9232 27.0768C38.229 28.3825 38.9625 30.1534 38.9625 32C38.9625 33.8466 38.229 35.6175 36.9232 36.9232C35.6175 38.229 33.8466 38.9625 32 38.9625Z" fill="#FFDA44"/>
<path d="M32 27.825C30.4625 27.825 29.2125 29.075 29.2125 30.6125V34.7875H34.7875V30.6125C34.7875 29.075 33.5375 27.825 32 27.825Z" fill="#FFDA44"/>
</g>
</svg>
