<svg width="64" height="64" viewBox="0 0 64 64" fill="none" xmlns="http://www.w3.org/2000/svg">
<g clip-path="url(#clip0_218_246)">
<mask id="mask0_218_246" style="mask-type:luminance" maskUnits="userSpaceOnUse" x="0" y="0" width="64" height="64">
<path d="M32 64C49.6731 64 64 49.6731 64 32C64 14.3269 49.6731 0 32 0C14.3269 0 0 14.3269 0 32C0 49.6731 14.3269 64 32 64Z" fill="white"/>
</mask>
<g mask="url(#mask0_218_246)">
<path d="M32 0H64V64H0V32L32 0Z" fill="#0052B4"/>
<path d="M0 0V4L4 8L0 12V32H4L8 28L12 32H16V21.625L26.375 32H32L31 30L32 28.125V26.375L21.625 16H32V12L28 8L32 4V0H12L8 4L4 0H0Z" fill="#EEEEEE"/>
<path d="M4 0V4H0V12H4V32H12V12H32V4H12V0H4ZM16 16L32 32V28.125L19.875 16H16Z" fill="#D80027"/>
<path d="M54.125 36.7C55.1267 35.3434 55.6617 33.6988 55.65 32.0125V18.1C54.4462 19.004 52.9805 19.4911 51.475 19.4875C50.396 19.4885 49.3317 19.2382 48.3662 18.7566C47.4007 18.2749 46.5607 17.5751 45.9125 16.7125C45.2644 17.5751 44.4243 18.2749 43.4588 18.7566C42.4933 19.2382 41.429 19.4885 40.35 19.4875C38.8445 19.4911 37.3789 19.004 36.175 18.1V32.0125C36.175 33.8875 36.8 35.425 37.7125 36.7H54.1125H54.125Z" fill="#EEEEEE"/>
<path d="M51.225 29.4375C51.6659 28.3356 51.9316 27.1715 52.0125 25.9875C52.0125 24.725 50.3625 23.7 50.3625 23.7C50.3625 23.7 48.7125 24.725 48.7125 25.9875C48.7934 27.1715 49.0591 28.3356 49.5 29.4375L48.55 31.575C49.7116 32.0501 51.0134 32.0501 52.175 31.575L51.225 29.4375ZM44.7875 22.4875C43.6153 22.6556 42.4766 23.0056 41.4125 23.525C40.3125 24.15 40.25 26.0875 40.25 26.0875C40.25 26.0875 41.9625 27.0125 43.05 26.375C43.7375 25.9875 44.925 24.9 45.65 23.975L47.975 23.725C47.8942 23.1091 47.6947 22.5148 47.3875 21.975C47.0767 21.4385 46.665 20.9674 46.175 20.5875L44.7875 22.4875ZM41.9875 31.5125C42.7189 32.4467 43.592 33.2607 44.575 33.925C45.675 34.55 47.3875 33.6375 47.3875 33.6375C47.3875 33.6375 47.3125 31.7 46.225 31.075C45.1616 30.5513 44.0228 30.197 42.85 30.025L41.4625 28.1375C40.9737 28.5137 40.5621 28.9805 40.25 29.5125C39.9384 30.0514 39.7346 30.6458 39.65 31.2625L41.9875 31.5125Z" fill="#FF9811"/>
<path d="M37.375 36.1875C39.9625 40.35 45.9125 41.75 45.9125 41.75C45.9125 41.75 51.8625 40.35 54.4625 36.1875H37.3625H37.375Z" fill="#338AF3"/>
</g>
</g>
<defs>
<clipPath id="clip0_218_246">
<rect width="64" height="64" fill="white"/>
</clipPath>
</defs>
</svg>
