<svg width="64" height="64" viewBox="0 0 64 64" fill="none" xmlns="http://www.w3.org/2000/svg">
<g clip-path="url(#clip0_218_219)">
<mask id="mask0_218_219" style="mask-type:luminance" maskUnits="userSpaceOnUse" x="0" y="0" width="64" height="64">
<path d="M32 64C49.6731 64 64 49.6731 64 32C64 14.3269 49.6731 0 32 0C14.3269 0 0 14.3269 0 32C0 49.6731 14.3269 64 32 64Z" fill="white"/>
</mask>
<g mask="url(#mask0_218_219)">
<path d="M0 0H64V64H0V0Z" fill="#D80027"/>
<path d="M50.0875 23.75H38.5C39.0681 23.1602 39.4496 22.4159 39.5967 21.6103C39.7439 20.8047 39.6501 19.9736 39.3272 19.2211C39.0043 18.4685 38.4666 17.8279 37.7814 17.3795C37.0962 16.9311 36.2939 16.6947 35.475 16.7C34.787 16.6991 34.1094 16.8687 33.503 17.1937C32.8966 17.5188 32.3802 17.989 32 18.5625C31.6805 18.0786 31.2636 17.6666 30.776 17.3527C30.2884 17.0388 29.7408 16.83 29.1681 16.7394C28.5953 16.6489 28.01 16.6786 27.4493 16.8268C26.8887 16.975 26.3651 17.2383 25.9118 17.6C25.4586 17.9617 25.0857 18.4139 24.8169 18.9277C24.548 19.4415 24.3892 20.0056 24.3505 20.5842C24.3117 21.1628 24.3939 21.7431 24.5918 22.2882C24.7898 22.8332 25.099 23.3311 25.5 23.75H13.9125C13.9549 25.2444 14.5802 26.6628 15.6547 27.7023C16.7291 28.7417 18.1676 29.3196 19.6625 29.3125H19.475C19.475 32.3875 21.975 34.8875 25.0375 34.8875C25.0375 35.8875 25.3 36.8125 25.7625 37.6125L21.1375 42.2375L24.6875 45.775L29.7125 40.75C29.9114 40.8253 30.1163 40.8839 30.325 40.925L27.2875 47.775L32 52.875L36.7125 47.775L33.675 40.925C33.8837 40.8839 34.0886 40.8254 34.2875 40.75L39.3125 45.775L42.85 42.2375L38.225 37.6125C38.7027 36.7834 38.9568 35.8444 38.9625 34.8875C42.025 34.8875 44.525 32.3875 44.525 29.3125H44.3375C47.4125 29.3125 50.0875 26.825 50.0875 23.75Z" fill="#333333"/>
</g>
</g>
<defs>
<clipPath id="clip0_218_219">
<rect width="64" height="64" fill="white"/>
</clipPath>
</defs>
</svg>
