<svg width="64" height="64" viewBox="0 0 64 64" fill="none" xmlns="http://www.w3.org/2000/svg">
<g clip-path="url(#clip0_218_476)">
<mask id="mask0_218_476" style="mask-type:luminance" maskUnits="userSpaceOnUse" x="0" y="0" width="64" height="64">
<path d="M32 64C49.6731 64 64 49.6731 64 32C64 14.3269 49.6731 0 32 0C14.3269 0 0 14.3269 0 32C0 49.6731 14.3269 64 32 64Z" fill="white"/>
</mask>
<g mask="url(#mask0_218_476)">
<path d="M0 0H64V18.0875L61 32L64 45.9125V64H0V45.9125L3.25 32L0 18.0875V0Z" fill="#338AF3"/>
<path d="M0 18.0875H64V45.9125H0V18.0875Z" fill="#EEEEEE"/>
<path d="M41.55 32L37.65 33.8375L39.7375 37.625L35.4875 36.8125L34.9625 41.1L32 37.95L29.05 41.1L28.5125 36.8125L24.2625 37.625L26.3375 33.8375L22.4375 32L26.35 30.1625L24.25 26.375L28.5 27.1875L29.0375 22.9L31.9875 26.05L34.9375 22.9L35.4875 27.1875L39.7375 26.375L37.65 30.1625L41.55 32Z" fill="#FFDA44"/>
</g>
</g>
<defs>
<clipPath id="clip0_218_476">
<rect width="64" height="64" fill="white"/>
</clipPath>
</defs>
</svg>
