<svg width="64" height="64" viewBox="0 0 64 64" fill="none" xmlns="http://www.w3.org/2000/svg">
<g clip-path="url(#clip0_218_458)">
<mask id="mask0_218_458" style="mask-type:luminance" maskUnits="userSpaceOnUse" x="0" y="0" width="64" height="64">
<path d="M32 64C49.6731 64 64 49.6731 64 32C64 14.3269 49.6731 0 32 0C14.3269 0 0 14.3269 0 32C0 49.6731 14.3269 64 32 64Z" fill="white"/>
</mask>
<g mask="url(#mask0_218_458)">
<path d="M64 2.54999V61.25L2.97501 31.975L64 2.54999Z" fill="#EEEEEE"/>
<path d="M55.65 30.8125H51.8375C52.8375 29.6125 52.775 27.85 51.65 26.725C52.2164 26.1578 52.5345 25.3891 52.5345 24.5875C52.5345 23.786 52.2164 23.0172 51.65 22.45L51.5875 22.5125C52.1611 21.9377 52.4883 21.1621 52.5 20.3502C52.5117 19.5382 52.2068 18.7536 51.65 18.1625L34.525 35.2875C34.8029 35.5687 35.1338 35.7919 35.4985 35.9443C35.8633 36.0967 36.2547 36.1751 36.65 36.1751C37.0453 36.1751 37.4367 36.0967 37.8015 35.9443C38.1662 35.7919 38.4971 35.5687 38.775 35.2875L39.1 34.975L47.3 34.225V37.7625H50.0875V33.9875L54.2625 33.6125L55.65 30.8125Z" fill="#A2001D"/>
<path d="M34.7875 38.9625L32 37.5625L34.7875 36.175H52.875V38.9625H34.7875Z" fill="#FFDA44"/>
<path d="M0 0V64H64L3.5875 32.025L64 0H0Z" fill="#0052B4"/>
<path d="M64 0L0 32L64 64V61.25L5.475 32L64 2.55V0Z" fill="#D80027"/>
</g>
</g>
<defs>
<clipPath id="clip0_218_458">
<rect width="64" height="64" fill="white"/>
</clipPath>
</defs>
</svg>
