<svg width="64" height="64" viewBox="0 0 64 64" fill="none" xmlns="http://www.w3.org/2000/svg">
<g clip-path="url(#clip0_218_4)">
<mask id="mask0_218_4" style="mask-type:luminance" maskUnits="userSpaceOnUse" x="0" y="0" width="64" height="64">
<path d="M64 0H0V64H64V0Z" fill="white"/>
</mask>
<g mask="url(#mask0_218_4)">
<mask id="mask1_218_4" style="mask-type:luminance" maskUnits="userSpaceOnUse" x="0" y="0" width="64" height="64">
<path d="M32 64C49.6731 64 64 49.6731 64 32C64 14.3269 49.6731 0 32 0C14.3269 0 0 14.3269 0 32C0 49.6731 14.3269 64 32 64Z" fill="white"/>
</mask>
<g mask="url(#mask1_218_4)">
<path d="M0 0H64V64H0V0Z" fill="#0052B4"/>
<path d="M19.25 37.5L21 41.25L25 40.25L23.25 44L26.375 46.5L22.375 47.375L22.5 51.5L19.25 48.875L16 51.5L16.125 47.375L12 46.5L15.25 44L13.5 40.25L17.5 41.25L19.25 37.5ZM47 34.125H52.875L48.125 37.5L50 32L51.75 37.5L47 34.125ZM47.875 13.875L48.75 15.75L50.75 15.25L49.875 17.125L51.375 18.375L49.5 18.75V20.875L47.875 19.5L46.25 20.875V18.75L44.375 18.375L45.875 17.125L45 15.25L47 15.75L47.875 13.875ZM55 22.25L55.875 24.125L57.875 23.625L57 25.5L58.5 26.75L56.625 27.125V29.125L55 27.875L53.375 29.25V27.125L51.5 26.75L53 25.5L52.125 23.625L54.125 24.125L55 22.25ZM39.75 25L40.625 26.875L42.625 26.375L41.75 28.25L43.25 29.5L41.375 29.875V31.875L39.75 30.625L38.125 32V29.875L36.25 29.5L37.75 28.25L36.875 26.375L38.875 26.875L39.75 25ZM47.875 44.5L48.75 46.375L50.75 45.875L49.875 47.75L51.375 49L49.5 49.375V51.5L47.875 50.125L46.25 51.5V49.375L44.375 49L45.875 47.75L45 45.875L47 46.375L47.875 44.5ZM0 0V4L4 8L0 12V32H4L8 28L12 32H16V21.625L26.375 32H32L31 30L32 28.125V26.375L21.625 16H32V12L28 8L32 4V0H12L8 4L4 0H0Z" fill="#EEEEEE"/>
<path d="M4 0V4H0V12H4V32H12V12H32V4H12V0H4ZM16 16L32 32V28.125L19.875 16H16Z" fill="#D80027"/>
</g>
</g>
</g>
<defs>
<clipPath id="clip0_218_4">
<rect width="64" height="64" fill="white"/>
</clipPath>
</defs>
</svg>
