<svg width="64" height="64" viewBox="0 0 64 64" fill="none" xmlns="http://www.w3.org/2000/svg">
<g clip-path="url(#clip0_218_154)">
<mask id="mask0_218_154" style="mask-type:luminance" maskUnits="userSpaceOnUse" x="0" y="0" width="64" height="64">
<path d="M32 64C49.6731 64 64 49.6731 64 32C64 14.3269 49.6731 0 32 0C14.3269 0 0 14.3269 0 32C0 49.6731 14.3269 64 32 64Z" fill="white"/>
</mask>
<g mask="url(#mask0_218_154)">
<path d="M0 0H12.525L21.0625 5.0875L29.2125 0H64V23.65L58.3125 31.9L64 40.475V64H29.2125L20.9875 59.1L12.525 64H0V40.35L5.7 31.9125L0 23.65V0Z" fill="#0052B4"/>
<path d="M12.525 0V23.65H0V27.825L2.875 32.075L0 36.175V40.35H12.525V64H16.7L20.9375 61.175L25.0375 64H29.2125V40.475H64V36.175L60.975 32.15L64 27.825V23.65H29.2125V0H25.0375L20.9625 2.5L16.7 0H12.525Z" fill="#FFDA44"/>
<path d="M16.7 0V27.825H0V36.175H16.7V64H25.0375V36.175H64V27.825H25.0375V0H16.7Z" fill="#D80027"/>
</g>
</g>
<defs>
<clipPath id="clip0_218_154">
<rect width="64" height="64" fill="white"/>
</clipPath>
</defs>
</svg>
