<svg width="64" height="64" viewBox="0 0 64 64" fill="none" xmlns="http://www.w3.org/2000/svg">
<g clip-path="url(#clip0_224_800)">
<mask id="mask0_224_800" style="mask-type:luminance" maskUnits="userSpaceOnUse" x="0" y="0" width="64" height="64">
<path d="M32 64C49.6731 64 64 49.6731 64 32C64 14.3269 49.6731 0 32 0C14.3269 0 0 14.3269 0 32C0 49.6731 14.3269 64 32 64Z" fill="white"/>
</mask>
<g mask="url(#mask0_224_800)">
<path d="M0 0H55.6625L59.9 31.875L55.6625 64L15.2 47.2125L0 8.35V0Z" fill="#FFDA44"/>
<path d="M0 8.3501V64.0001H55.675L0 8.3501Z" fill="#0052B4"/>
<path d="M55.6625 0H64V64H55.6625V0Z" fill="#0052B4"/>
<path d="M44.325 57.0001L43.2875 60.2001H39.9375L42.65 62.1751L41.6125 65.3626L44.325 63.3876L47.0375 65.3626L46 62.1751L48.7125 60.2001H45.3625L44.325 57.0001ZM37.45 50.0751L36.4125 53.2626H33.0625L35.775 55.2376L34.7375 58.4251L37.45 56.4501L40.1625 58.4251L39.125 55.2376L41.8375 53.2626H38.4875L37.45 50.0751ZM30.55 43.1251L29.5125 46.3126H26.1625L28.875 48.2876L27.8375 51.4751L30.55 49.5001L33.2625 51.4751L32.225 48.2876L34.9375 46.3126H31.5875L30.55 43.1251ZM23.6625 36.1626L22.625 39.3501H19.275L21.9875 41.3251L20.95 44.5126L23.6625 42.5376L26.375 44.5001L25.3375 41.3126L28.05 39.3376H24.7L23.6625 36.1626ZM16.7375 29.2001L15.7 32.3876H12.35L15.0625 34.3626L14.025 37.5501L16.7375 35.5751L19.45 37.5501L18.4125 34.3626L21.125 32.3751H17.775L16.7375 29.2001ZM9.8375 22.2501L8.8 25.4376H5.45L8.1625 27.4126L7.125 30.6001L9.8375 28.6251L12.55 30.6001L11.5125 27.4126L14.225 25.4376H10.875L9.8375 22.2501ZM2.9375 15.2876L1.9 18.4751H-1.45L1.2625 20.4501L0.225003 23.6251L2.9375 21.6501L5.65 23.6251L4.6125 20.4376L7.325 18.4626H3.975L2.9375 15.2876Z" fill="#EEEEEE"/>
</g>
</g>
<defs>
<clipPath id="clip0_224_800">
<rect width="64" height="64" fill="white"/>
</clipPath>
</defs>
</svg>
