<svg width="64" height="64" viewBox="0 0 64 64" fill="none" xmlns="http://www.w3.org/2000/svg">
<g clip-path="url(#clip0_224_23)">
<mask id="mask0_224_23" style="mask-type:luminance" maskUnits="userSpaceOnUse" x="0" y="0" width="64" height="64">
<path d="M32 64C49.6731 64 64 49.6731 64 32C64 14.3269 49.6731 0 32 0C14.3269 0 0 14.3269 0 32C0 49.6731 14.3269 64 32 64Z" fill="white"/>
</mask>
<g mask="url(#mask0_224_23)">
<path d="M0 0H18.1L32.2125 4.5875L45.925 0H64V64H45.925L32.3125 59.2375L18.1 64H0V0Z" fill="#0052B4"/>
<path d="M18.1 0H45.925V64H18.1V0Z" fill="#FFDA44"/>
<path d="M41.7625 19.475L43.6125 20.4125L41.75 19.475L39.875 18.55C39.775 18.775 37.3375 23.725 36.9375 31.3H34.1V19.475L32.0125 16.7L29.925 19.475V31.3H27.0875C26.9196 26.9017 25.9186 22.5751 24.1375 18.55L20.4125 20.4125C20.4375 20.4625 22.975 25.625 22.975 33.3875V35.475H29.925V47.3H34.1V35.475H41.05V33.3875C41.05 29.3875 41.75 26.0625 42.3375 24C42.9625 21.75 43.6125 20.425 43.625 20.4125L41.75 19.475H41.7625Z" fill="#333333"/>
</g>
</g>
<defs>
<clipPath id="clip0_224_23">
<rect width="64" height="64" fill="white"/>
</clipPath>
</defs>
</svg>
