<svg width="64" height="64" viewBox="0 0 64 64" fill="none" xmlns="http://www.w3.org/2000/svg">
<g clip-path="url(#clip0_218_291)">
<mask id="mask0_218_291" style="mask-type:luminance" maskUnits="userSpaceOnUse" x="0" y="0" width="64" height="64">
<path d="M32 64C49.6731 64 64 49.6731 64 32C64 14.3269 49.6731 0 32 0C14.3269 0 0 14.3269 0 32C0 49.6731 14.3269 64 32 64Z" fill="white"/>
</mask>
<g mask="url(#mask0_218_291)">
<path d="M0 0H64V32L32.1 38L0 32V0Z" fill="#D80027"/>
<path d="M0 32H64V64H0V32Z" fill="#6DA544"/>
<path d="M32 20.875L34.4125 28.3125H42.25L35.925 32.9125L38.3375 40.35L32 35.75L25.675 40.35L28.0875 32.9125L21.7625 28.3125H29.5875L32 20.875Z" fill="#FFDA44"/>
</g>
</g>
<defs>
<clipPath id="clip0_218_291">
<rect width="64" height="64" fill="white"/>
</clipPath>
</defs>
</svg>
