<svg width="64" height="64" viewBox="0 0 64 64" fill="none" xmlns="http://www.w3.org/2000/svg">
<g clip-path="url(#clip0_224_31)">
<mask id="mask0_224_31" style="mask-type:luminance" maskUnits="userSpaceOnUse" x="0" y="0" width="64" height="64">
<path d="M32 64C49.6731 64 64 49.6731 64 32C64 14.3269 49.6731 0 32 0C14.3269 0 0 14.3269 0 32C0 49.6731 14.3269 64 32 64Z" fill="white"/>
</mask>
<g mask="url(#mask0_224_31)">
<path d="M0 0H5.9L31.8375 3.75L58.1 0H64V5.9L59.675 32L64 58.1V64H58.1L31.9625 59.525L5.9 64H0V58.1L4.1 32.7625L0 5.9V0Z" fill="#EEEEEE"/>
<path d="M5.90002 0L32 26.1L58.1 0H5.90002ZM32 37.9L5.90002 64H58.1L32 37.9Z" fill="#D80027"/>
<path d="M0 5.90002V58.1L26.1 32L0 5.90002ZM64 5.90002L37.9 32L64 58.1V5.90002Z" fill="#6DA544"/>
<path d="M32 45.9125C39.6837 45.9125 45.9125 39.6837 45.9125 32C45.9125 24.3164 39.6837 18.0875 32 18.0875C24.3164 18.0875 18.0875 24.3164 18.0875 32C18.0875 39.6837 24.3164 45.9125 32 45.9125Z" fill="#EEEEEE"/>
<path d="M32 22.25L33.2 24.35H35.625L34.425 26.4375L35.625 28.525H33.2125L32.0125 30.6125L30.8125 28.525H28.375L29.575 26.4375L28.375 24.35H30.7875L32 22.25ZM25.875 32L27.075 34.0875H29.5L28.3 36.175L29.5 38.2625H27.0875L25.8875 40.35L24.6875 38.2625H22.25L23.45 36.175L22.25 34.0875H24.6625L25.875 32ZM38.125 32L39.325 34.0875H41.75L40.55 36.175L41.75 38.2625H39.3375L38.1375 40.35L36.9375 38.2625H34.5L35.7 36.175L34.5 34.0875H36.9125L38.125 32Z" fill="#D80027"/>
</g>
</g>
<defs>
<clipPath id="clip0_224_31">
<rect width="64" height="64" fill="white"/>
</clipPath>
</defs>
</svg>
