<svg width="64" height="64" viewBox="0 0 64 64" fill="none" xmlns="http://www.w3.org/2000/svg">
<g clip-path="url(#clip0_240_692)">
<mask id="mask0_240_692" style="mask-type:luminance" maskUnits="userSpaceOnUse" x="0" y="0" width="64" height="64">
<path d="M32 64C49.6731 64 64 49.6731 64 32C64 14.3269 49.6731 0 32 0C14.3269 0 0 14.3269 0 32C0 49.6731 14.3269 64 32 64Z" fill="white"/>
</mask>
<g mask="url(#mask0_240_692)">
<path d="M32 0H64V64H0V32L32 0Z" fill="#D80027"/>
<path d="M0 0H4.175L8.15 2.05L12.525 0H32V16.7L30.8375 20.9125L32 26.1V32H26.1L21.1875 31.125L16.7 32.0125L0 32V12.525L1.925 8.2125L0 4.175V0Z" fill="#EEEEEE"/>
<path d="M33.3742 29.4375L20.6242 16.6875H16.6992L33.3742 33.375V29.4375Z" fill="#D80027"/>
<path d="M4.175 0V4.175H0V12.525H4.175V33.85H12.525V12.525H33.8V4.175H12.525V0H4.175Z" fill="#D80027"/>
<path d="M22.5992 16.7002H31.9992V26.1002L22.5992 16.7002ZM16.6992 22.6002V32.0127L26.0992 32.0002L16.6992 22.6002Z" fill="#0052B4"/>
<path d="M36.1758 16.7002V32.0002C36.1758 39.4502 55.6508 39.4502 55.6508 32.0002V16.7002H36.1758Z" fill="#EEEEEE"/>
<path d="M36.1766 32C36.1766 39.45 45.9141 41.75 45.9141 41.75C45.9141 41.75 55.6641 39.45 55.6641 32H36.1641H36.1766Z" fill="#6DA544"/>
<path d="M45.9117 25.875L41.3867 27.825V32L45.9117 34.7875L50.4367 32V27.825L45.9117 25.875Z" fill="#A2001D"/>
<path d="M41.3875 23.6504H50.4375V27.8254H41.375L41.3875 23.6504Z" fill="#338AF3"/>
</g>
</g>
<defs>
<clipPath id="clip0_240_692">
<rect width="64" height="64" fill="white"/>
</clipPath>
</defs>
</svg>
