<svg width="64" height="64" viewBox="0 0 64 64" fill="none" xmlns="http://www.w3.org/2000/svg">
<g clip-path="url(#clip0_224_57)">
<mask id="mask0_224_57" style="mask-type:luminance" maskUnits="userSpaceOnUse" x="0" y="0" width="64" height="64">
<path d="M32 64C49.6731 64 64 49.6731 64 32C64 14.3269 49.6731 0 32 0C14.3269 0 0 14.3269 0 32C0 49.6731 14.3269 64 32 64Z" fill="white"/>
</mask>
<g mask="url(#mask0_224_57)">
<path d="M0 0H64V64H0V0Z" fill="#6DA544"/>
<path d="M32 12.525L58.4375 32L32 51.475L5.5625 32L32 12.525Z" fill="#FFDA44"/>
<path d="M21.775 27.625C21.1531 29.0555 20.8462 30.603 20.875 32.1625L41.125 38.3875C42.0172 37.1132 42.6305 35.665 42.925 34.1375C37.85 25.975 27.9625 24.1 21.7875 27.6375L21.775 27.625Z" fill="#EEEEEE"/>
<path d="M31.9625 20.875C30.1343 20.8796 28.3354 21.3347 26.725 22.2C24.5085 23.3959 22.7634 25.3085 21.775 27.625C25.5623 26.8208 29.4923 26.9981 33.1918 28.1401C36.8913 29.2821 40.2375 31.3509 42.9125 34.15C43.4094 31.6194 43.0118 28.9948 41.7875 26.725C40.8326 24.9519 39.4144 23.4713 37.6841 22.4411C35.9538 21.4108 33.9763 20.8695 31.9625 20.875ZM26.5 31.3125C24.5925 31.3061 22.6954 31.5928 20.875 32.1625C20.896 33.9473 21.3462 35.7008 22.1875 37.275C22.8798 38.5624 23.819 39.7007 24.9514 40.6249C26.0838 41.5492 27.3873 42.2412 28.7873 42.6614C30.1873 43.0816 31.6564 43.2219 33.1106 43.074C34.5648 42.9262 35.9757 42.4933 37.2625 41.8C38.7903 40.9773 40.1045 39.8087 41.1 38.3875C39.3455 36.1969 37.1246 34.4252 34.5989 33.2013C32.0733 31.9774 29.3065 31.3321 26.5 31.3125Z" fill="#0052B4"/>
</g>
</g>
<defs>
<clipPath id="clip0_224_57">
<rect width="64" height="64" fill="white"/>
</clipPath>
</defs>
</svg>
