<svg width="64" height="64" viewBox="0 0 64 64" fill="none" xmlns="http://www.w3.org/2000/svg">
<g clip-path="url(#clip0_224_66)">
<mask id="mask0_224_66" style="mask-type:luminance" maskUnits="userSpaceOnUse" x="0" y="0" width="64" height="64">
<path d="M32 64C49.6731 64 64 49.6731 64 32C64 14.3269 49.6731 0 32 0C14.3269 0 0 14.3269 0 32C0 49.6731 14.3269 64 32 64Z" fill="white"/>
</mask>
<g mask="url(#mask0_224_66)">
<path d="M0 0H64V20.875L59.325 32L64 43.125V64H0L6.2 32.5L0 0Z" fill="#338AF3"/>
<path d="M13.5375 20.875H64V43.125H13.5375V20.875Z" fill="#FFDA44"/>
<path d="M0 0V64L32 32L0 0Z" fill="#333333"/>
</g>
</g>
<defs>
<clipPath id="clip0_224_66">
<rect width="64" height="64" fill="white"/>
</clipPath>
</defs>
</svg>
