<svg width="64" height="64" viewBox="0 0 64 64" fill="none" xmlns="http://www.w3.org/2000/svg">
<g clip-path="url(#clip0_218_299)">
<mask id="mask0_218_299" style="mask-type:luminance" maskUnits="userSpaceOnUse" x="0" y="0" width="64" height="64">
<path d="M32 64C49.6731 64 64 49.6731 64 32C64 14.3269 49.6731 0 32 0C14.3269 0 0 14.3269 0 32C0 49.6731 14.3269 64 32 64Z" fill="white"/>
</mask>
<g mask="url(#mask0_218_299)">
<path d="M0 0H19.475L23.85 31.825L19.475 64H0V0Z" fill="#EEEEEE"/>
<path d="M19.475 0H64V43.1375L41.125 47.8125L19.475 43.1375V0Z" fill="#A2001D"/>
<path d="M19.475 43.1375H64V64H19.475V43.1375Z" fill="#6DA544"/>
<path d="M6.25 0.0249939L2.7875 6.24999L6.2625 12.55L9.7375 6.24999L6.25 0.0249939ZM13.225 0.0249939L9.75 6.24999L13.2125 12.55L16.7125 6.24999L13.225 0.0249939ZM6.25 17.1875L2.7875 23.3875L6.2625 29.7L9.725 23.3875L6.25 17.1875ZM13.225 17.1875L9.75 23.3875L13.2125 29.7L16.7125 23.3875L13.225 17.1875ZM6.25 34.3375L2.7875 40.55L6.2625 46.85L9.7375 40.55L6.25 34.3375ZM13.225 34.3375L9.75 40.55L13.2125 46.85L16.7125 40.55L13.225 34.3375ZM6.25 51.5L2.7875 57.7L6.2625 64.0125L9.725 57.7L6.25 51.5ZM13.225 51.5L9.75 57.7L13.2125 64.0125L16.7125 57.7L13.225 51.5Z" fill="#A2001D"/>
</g>
</g>
<defs>
<clipPath id="clip0_218_299">
<rect width="64" height="64" fill="white"/>
</clipPath>
</defs>
</svg>
