<svg width="64" height="64" viewBox="0 0 64 64" fill="none" xmlns="http://www.w3.org/2000/svg">
<g clip-path="url(#clip0_224_82)">
<mask id="mask0_224_82" style="mask-type:luminance" maskUnits="userSpaceOnUse" x="0" y="0" width="64" height="64">
<path d="M32 64C49.6731 64 64 49.6731 64 32C64 14.3269 49.6731 0 32 0C14.3269 0 0 14.3269 0 32C0 49.6731 14.3269 64 32 64Z" fill="white"/>
</mask>
<g mask="url(#mask0_224_82)">
<path d="M0 5.56248L32.225 2.59998L64 5.56248V58.4375L32.4375 61.6875L0 58.4375V5.56248Z" fill="#0052B4"/>
<path d="M32 47.3C40.4499 47.3 47.2999 40.45 47.2999 32C47.2999 23.5501 40.4499 16.7 32 16.7C23.55 16.7 16.7 23.5501 16.7 32C16.7 40.45 23.55 47.3 32 47.3Z" fill="#EEEEEE"/>
<path d="M32 44.525C38.9173 44.525 44.525 38.9173 44.525 32C44.525 25.0826 38.9173 19.475 32 19.475C25.0826 19.475 19.475 25.0826 19.475 32C19.475 38.9173 25.0826 44.525 32 44.525Z" fill="#6DA544"/>
<path d="M32 40.35C36.6116 40.35 40.35 36.6116 40.35 32C40.35 27.3884 36.6116 23.65 32 23.65C27.3884 23.65 23.65 27.3884 23.65 32C23.65 36.6116 27.3884 40.35 32 40.35Z" fill="#EEEEEE"/>
<path d="M32 29.9125L27.475 32V35.475L32 38.2625L36.525 35.475V32L32 29.9125Z" fill="#0052B4"/>
<path d="M27.475 27.825H36.525V32H27.475V27.825Z" fill="#FFDA44"/>
<path d="M0 0H64V5.5625H0V0ZM0 58.4375H64V64H0V58.4375Z" fill="#A2001D"/>
</g>
</g>
<defs>
<clipPath id="clip0_224_82">
<rect width="64" height="64" fill="white"/>
</clipPath>
</defs>
</svg>
