<svg width="64" height="64" viewBox="0 0 64 64" fill="none" xmlns="http://www.w3.org/2000/svg">
<g clip-path="url(#clip0_218_316)">
<mask id="mask0_218_316" style="mask-type:luminance" maskUnits="userSpaceOnUse" x="0" y="0" width="64" height="64">
<path d="M32 64C49.6731 64 64 49.6731 64 32C64 14.3269 49.6731 0 32 0C14.3269 0 0 14.3269 0 32C0 49.6731 14.3269 64 32 64Z" fill="white"/>
</mask>
<g mask="url(#mask0_218_316)">
<path d="M0 0H64V32L44.85 36.4625L26.25 32L0 0Z" fill="#338AF3"/>
<path d="M26.25 32H64V64H0L26.25 32Z" fill="#6DA544"/>
<path d="M0 0V64L32 32L0 0Z" fill="#EEEEEE"/>
<path d="M12.95 23.65L15.025 30.025H21.725L16.3 33.975L18.375 40.35L12.95 36.4125L7.525 40.35L9.6 33.975L4.175 30.025H10.875L12.95 23.65Z" fill="#D80027"/>
</g>
</g>
<defs>
<clipPath id="clip0_218_316">
<rect width="64" height="64" fill="white"/>
</clipPath>
</defs>
</svg>
