<svg width="64" height="64" viewBox="0 0 64 64" fill="none" xmlns="http://www.w3.org/2000/svg">
<g clip-path="url(#clip0_224_872)">
<mask id="mask0_224_872" style="mask-type:luminance" maskUnits="userSpaceOnUse" x="0" y="0" width="64" height="64">
<path d="M32 64C49.6731 64 64 49.6731 64 32C64 14.3269 49.6731 0 32 0C14.3269 0 0 14.3269 0 32C0 49.6731 14.3269 64 32 64Z" fill="white"/>
</mask>
<g mask="url(#mask0_224_872)">
<path d="M4.4375 32H59.9375L64 23.65V0H40.35L32 3.975V59.55L23.65 64H0V40.35L4.4375 32Z" fill="#D80027"/>
<path d="M59.9375 32H4.4375L0 23.65V0H23.65L32 3.975V59.55L40.35 64H64V40.35L59.9375 32Z" fill="#0052B4"/>
<path d="M23.65 0H40.35V23.65H64V40.35H40.35V64H23.65V40.35H0V23.65H23.65V0Z" fill="#EEEEEE"/>
<path d="M40.35 31.9999C40.35 33.0964 40.134 34.1822 39.7144 35.1953C39.2948 36.2084 38.6797 37.1289 37.9043 37.9042C37.129 38.6796 36.2085 39.2947 35.1954 39.7143C34.1823 40.1339 33.0965 40.3499 32 40.3499C30.9035 40.3499 29.8177 40.1339 28.8046 39.7143C27.7915 39.2947 26.871 38.6796 26.0957 37.9042C25.3203 37.1289 24.7052 36.2084 24.2856 35.1953C23.866 34.1822 23.65 33.0964 23.65 31.9999C23.65 27.3874 32 23.6499 32 23.6499C32 23.6499 40.35 27.3999 40.35 31.9999Z" fill="#496E2D"/>
<path d="M23.65 31.9999C23.65 30.9034 23.866 29.8176 24.2856 28.8045C24.7052 27.7914 25.3203 26.8709 26.0957 26.0956C26.871 25.3202 27.7915 24.7051 28.8046 24.2855C29.8177 23.8659 30.9035 23.6499 32 23.6499C33.0965 23.6499 34.1823 23.8659 35.1954 24.2855C36.2085 24.7051 37.129 25.3202 37.9043 26.0956C38.6797 26.8709 39.2948 27.7914 39.7144 28.8045C40.134 29.8176 40.35 30.9034 40.35 31.9999" fill="#0052B4"/>
<path d="M27.3 27.825V33.0374C27.3 34.284 27.7952 35.4794 28.6766 36.3609C29.558 37.2423 30.7535 37.7374 32 37.7374C33.2465 37.7374 34.442 37.2423 35.3234 36.3609C36.2048 35.4794 36.7 34.284 36.7 33.0374V27.825H27.3Z" fill="#D80027"/>
</g>
</g>
<defs>
<clipPath id="clip0_224_872">
<rect width="64" height="64" fill="white"/>
</clipPath>
</defs>
</svg>
