<svg width="64" height="64" viewBox="0 0 64 64" fill="none" xmlns="http://www.w3.org/2000/svg">
<g clip-path="url(#clip0_218_226)">
<mask id="mask0_218_226" style="mask-type:luminance" maskUnits="userSpaceOnUse" x="0" y="0" width="64" height="64">
<path d="M32 64C49.6731 64 64 49.6731 64 32C64 14.3269 49.6731 0 32 0C14.3269 0 0 14.3269 0 32C0 49.6731 14.3269 64 32 64Z" fill="white"/>
</mask>
<g mask="url(#mask0_218_226)">
<path d="M0 0H32L37.6625 31.475L32 64H0V0Z" fill="#496E2D"/>
<path d="M32 0H64V64H32V0Z" fill="#EEEEEE"/>
<path d="M38.875 25.8625L36.25 29.4875L32 28.1125L34.625 31.7125L32 35.3375L36.25 33.95L38.875 37.575V33.1L43.125 31.7125L38.875 30.3375V25.8625Z" fill="#D80027"/>
<path d="M34.65 41.0375C33.2772 41.0318 31.9237 40.7133 30.6922 40.1064C29.4608 39.4995 28.3839 38.62 27.5431 37.5346C26.7024 36.4493 26.12 35.1867 25.8401 33.8427C25.5602 32.4987 25.5901 31.1086 25.9277 29.7779C26.2653 28.4472 26.9016 27.2108 27.7883 26.1628C28.675 25.1147 29.7889 24.2824 31.0453 23.7291C32.3017 23.1758 33.6677 22.916 35.0395 22.9694C36.4113 23.0229 37.7529 23.3881 38.9625 24.0375C37.3967 22.5072 35.4141 21.4729 33.2631 21.0643C31.1121 20.6556 28.8884 20.8907 26.8704 21.7402C24.8525 22.5896 23.1301 24.0156 21.9189 25.8396C20.7077 27.6635 20.0617 29.8043 20.0617 31.9937C20.0617 34.1832 20.7077 36.324 21.9189 38.1479C23.1301 39.9719 24.8525 41.3979 26.8704 42.2473C28.8884 43.0968 31.1121 43.3319 33.2631 42.9232C35.4141 42.5146 37.3967 41.4803 38.9625 39.95C37.6386 40.6676 36.1558 41.0415 34.65 41.0375Z" fill="#D80027"/>
</g>
</g>
<defs>
<clipPath id="clip0_218_226">
<rect width="64" height="64" fill="white"/>
</clipPath>
</defs>
</svg>
