<svg width="64" height="64" viewBox="0 0 64 64" fill="none" xmlns="http://www.w3.org/2000/svg">
<g clip-path="url(#clip0_224_134)">
<mask id="mask0_224_134" style="mask-type:luminance" maskUnits="userSpaceOnUse" x="0" y="0" width="64" height="64">
<path d="M32 64C49.6731 64 64 49.6731 64 32C64 14.3269 49.6731 0 32 0C14.3269 0 0 14.3269 0 32C0 49.6731 14.3269 64 32 64Z" fill="white"/>
</mask>
<g mask="url(#mask0_224_134)">
<path d="M0 18L32 14L64 18V46L32 50L0 46V18Z" fill="#EEEEEE"/>
<path d="M0 0H64V18H0V0Z" fill="#D80027"/>
<path d="M0 46H64V64H0V46Z" fill="#333333"/>
<path d="M31.25 23.875C30.25 23.875 29.125 24.375 28.5 25.625C29.125 25.25 30.5 25.5 30.5 27.25C30.5 27.75 30.25 28.25 29.875 28.5C28.875 28.5 28.125 26.75 26.25 26.75C25 26.75 23.875 27.625 23.875 28.875V37.5L29.625 36.625L27.875 40H36.125L34.375 36.625L40.125 37.5V28.875C40.125 27.625 39 26.75 37.75 26.75C35.875 26.75 35.125 28.5 34.125 28.5C35.125 25.625 33.25 23.875 31.25 23.875Z" fill="#FF9811"/>
</g>
</g>
<defs>
<clipPath id="clip0_224_134">
<rect width="64" height="64" fill="white"/>
</clipPath>
</defs>
</svg>
