<svg width="64" height="64" viewBox="0 0 64 64" fill="none" xmlns="http://www.w3.org/2000/svg">
<g clip-path="url(#clip0_218_363)">
<mask id="mask0_218_363" style="mask-type:luminance" maskUnits="userSpaceOnUse" x="0" y="0" width="64" height="64">
<path d="M32 64C49.6731 64 64 49.6731 64 32C64 14.3269 49.6731 0 32 0C14.3269 0 0 14.3269 0 32C0 49.6731 14.3269 64 32 64Z" fill="white"/>
</mask>
<g mask="url(#mask0_218_363)">
<path d="M0 0H27.825L31.7 2.925L36.175 0H64V27.825L61.3125 31.7L64 36.175V64H36.175L31.9 61.4375L27.825 64H0V36.175L2.8375 32.1L0 27.825V0Z" fill="#EEEEEE"/>
<path d="M27.825 0V27.825H0V36.175H27.825V64H36.175V36.175H64V27.825H36.175V0H27.825Z" fill="#D80027"/>
<path d="M41.0375 33.375L43.125 34.7875V29.2L41.0375 30.625H33.3875V22.975L34.7875 20.875H29.2125L30.6125 22.975V30.6125H22.9625L20.875 29.2V34.7875L22.9625 33.375H30.6125V41.0375L29.2125 43.1125H34.7875L33.375 41.0375V33.375H41.0375Z" fill="#FFDA44"/>
</g>
</g>
<defs>
<clipPath id="clip0_218_363">
<rect width="64" height="64" fill="white"/>
</clipPath>
</defs>
</svg>
