<svg width="64" height="64" viewBox="0 0 64 64" fill="none" xmlns="http://www.w3.org/2000/svg">
<g clip-path="url(#clip0_224_1082)">
<mask id="mask0_224_1082" style="mask-type:luminance" maskUnits="userSpaceOnUse" x="0" y="0" width="64" height="64">
<path d="M32 64C49.6731 64 64 49.6731 64 32C64 14.3269 49.6731 0 32 0C14.3269 0 0 14.3269 0 32C0 49.6731 14.3269 64 32 64Z" fill="white"/>
</mask>
<g mask="url(#mask0_224_1082)">
<path d="M0 20.8752L32.1625 16.8877L64 20.8752V43.1252L31.9625 46.7502L0 43.1252V20.8752Z" fill="#FFDA44"/>
<path d="M0 0H64V20.875H0V0Z" fill="#D80027"/>
<path d="M0 43.125H64V64H0V43.125Z" fill="#496E2D"/>
<path d="M31.9998 20.875L34.7623 29.375H43.6998L36.4748 34.625L39.2248 43.125L31.9998 37.875L24.7623 43.125L27.5248 34.625L20.2998 29.375H29.2373L31.9998 20.875Z" fill="#333333"/>
</g>
</g>
<defs>
<clipPath id="clip0_224_1082">
<rect width="64" height="64" fill="white"/>
</clipPath>
</defs>
</svg>
