<svg width="64" height="64" viewBox="0 0 64 64" fill="none" xmlns="http://www.w3.org/2000/svg">
<g clip-path="url(#clip0_240_729)">
<mask id="mask0_240_729" style="mask-type:luminance" maskUnits="userSpaceOnUse" x="0" y="0" width="64" height="64">
<path d="M32 64C49.6731 64 64 49.6731 64 32C64 14.3269 49.6731 0 32 0C14.3269 0 0 14.3269 0 32C0 49.6731 14.3269 64 32 64Z" fill="white"/>
</mask>
<g mask="url(#mask0_240_729)">
<path d="M5.16406 15.2373L64.0016 20.8748V43.1248L5.47656 48.9123L5.16406 15.2373Z" fill="#EEEEEE"/>
<path d="M0 0H64V20.875H13.875L0 0Z" fill="#6DA544"/>
<path d="M13.875 43.125H64V64H0L13.875 43.125Z" fill="#D80027"/>
<path d="M0 0V64L32 32L0 0Z" fill="#0052B4"/>
<path d="M41.7508 32.1377H44.5258V36.1752H41.7383L41.7508 32.1377Z" fill="#FF9811"/>
<path d="M45.9136 30.6254C45.9391 30.2445 45.8862 29.8624 45.758 29.5028C45.6298 29.1432 45.429 28.8138 45.1683 28.5349C44.9075 28.2561 44.5923 28.0338 44.242 27.8818C43.8918 27.7298 43.5141 27.6514 43.1323 27.6514C42.7506 27.6514 42.3728 27.7298 42.0226 27.8818C41.6724 28.0338 41.3571 28.2561 41.0964 28.5349C40.8356 28.8138 40.6349 29.1432 40.5067 29.5028C40.3785 29.8624 40.3255 30.2445 40.3511 30.6254C40.1586 30.6071 39.9645 30.6292 39.7811 30.6903C39.5977 30.7513 39.4291 30.8501 39.2861 30.9801C39.1431 31.1102 39.0288 31.2686 38.9506 31.4454C38.8724 31.6222 38.832 31.8134 38.832 32.0067C38.832 32.2 38.8724 32.3911 38.9506 32.5679C39.0288 32.7447 39.1431 32.9032 39.2861 33.0332C39.4291 33.1633 39.5977 33.262 39.7811 33.3231C39.9645 33.3842 40.1586 33.4063 40.3511 33.3879H45.9136C46.2816 33.3879 46.6345 33.2417 46.8947 32.9815C47.1549 32.7213 47.3011 32.3684 47.3011 32.0004C47.3011 31.6324 47.1549 31.2795 46.8947 31.0193C46.6345 30.7591 46.2816 30.6129 45.9136 30.6129V30.6254Z" fill="#6DA544"/>
</g>
</g>
<defs>
<clipPath id="clip0_240_729">
<rect width="64" height="64" fill="white"/>
</clipPath>
</defs>
</svg>
