<svg width="64" height="64" viewBox="0 0 64 64" fill="none" xmlns="http://www.w3.org/2000/svg">
<g clip-path="url(#clip0_218_182)">
<mask id="mask0_218_182" style="mask-type:luminance" maskUnits="userSpaceOnUse" x="0" y="0" width="64" height="64">
<path d="M32 64C49.6731 64 64 49.6731 64 32C64 14.3269 49.6731 0 32 0C14.3269 0 0 14.3269 0 32C0 49.6731 14.3269 64 32 64Z" fill="white"/>
</mask>
<g mask="url(#mask0_218_182)">
<path d="M0 0H4L8 4L12 0H32L33.5 1L35.125 0H39.625L42.625 1L45.75 0H50.25L53.375 1L56.375 0H60.875L64 2.75V7L63 9.125L64 11.25V15.625L63 17.75L64 19.875V24.125L63 26.25L64 28.375V32.75L63 34.875L64 37V41.25L63 43.375L64 45.625V49.875L63 52L64 54.125V58.5L63 60.625L64 62.75V64H61.25L58.625 63L56.125 64H50.625L48 63L45.375 64H39.875L37.375 63L34.75 64H29.25L26.625 63L24.125 64H18.625L16 63L13.375 64H8L5.375 63L2.75 64H0V62.75L1 60.625L0 58.5V54.125L1 52L0 49.875V45.625L1 43.375L0 41.25V37L1 34.875L0 32.75V12L4 8L0 4V0Z" fill="#EEEEEE"/>
<path d="M4 0V4H0V12H4V32H12V12H32V4H12V0H4ZM16 16L32 32V28.125L19.875 16H16Z" fill="#D80027"/>
<path d="M32 0V2.75C34.625 2.75 34.625 5.125 37.375 5.125C40 5.125 40 2.75 42.625 2.75C45.375 2.75 45.375 5.125 48 5.125C50.625 5.125 50.625 2.75 53.375 2.75C56 2.75 56 5.125 58.625 5.125C61.375 5.125 61.375 2.75 64 2.75V0H60.875C60.375 0.5 59.75 0.875 58.625 0.875C57.625 0.875 57 0.5 56.375 0H50.25C49.75 0.5 49.125 0.875 48 0.875C47 0.875 46.25 0.5 45.75 0H39.625C39 0.5 38.375 0.875 37.375 0.875C36.25 0.875 35.625 0.5 35.125 0H32ZM32 7V11.25C34.625 11.25 34.625 13.75 37.375 13.75C40 13.75 40 11.25 42.625 11.25C45.375 11.25 45.375 13.75 48 13.75C50.625 13.75 50.625 11.25 53.375 11.25C56 11.25 56 13.75 58.625 13.75C61.375 13.75 61.375 11.25 64 11.25V7C61.375 7 61.375 9.375 58.625 9.375C56 9.375 56 7 53.375 7C50.625 7 50.625 9.375 48 9.375C45.375 9.375 45.375 7 42.625 7C40 7 40 9.375 37.375 9.375C34.625 9.375 34.625 7 32 7ZM32 15.625V16H21.625L32 26.375V28.375C34.625 28.375 34.625 30.875 37.375 30.875C40 30.875 40 28.375 42.625 28.375C45.375 28.375 45.375 30.875 48 30.875C50.625 30.875 50.625 28.375 53.375 28.375C56 28.375 56 30.875 58.625 30.875C61.375 30.875 61.375 28.375 64 28.375V24.125C61.375 24.125 61.375 26.625 58.625 26.625C56 26.625 56 24.125 53.375 24.125C50.625 24.125 50.625 26.625 48 26.625C45.375 26.625 45.375 24.125 42.625 24.125C40 24.125 40 26.625 37.375 26.625C34.625 26.625 34.625 24.125 32 24.125V19.875C34.625 19.875 34.625 22.25 37.375 22.25C40 22.25 40 19.875 42.625 19.875C45.375 19.875 45.375 22.25 48 22.25C50.625 22.25 50.625 19.875 53.375 19.875C56 19.875 56 22.25 58.625 22.25C61.375 22.25 61.375 19.875 64 19.875V15.625C61.375 15.625 61.375 18 58.625 18C56 18 56 15.625 53.375 15.625C50.625 15.625 50.625 18 48 18C45.375 18 45.375 15.625 42.625 15.625C40 15.625 40 18 37.375 18C34.625 18 34.625 15.625 32 15.625ZM16 21.625V32H26.375L16 21.625ZM0 32.75V37C2.625 37 2.625 39.5 5.375 39.5C8 39.5 8 37 10.625 37C13.375 37 13.375 39.5 16 39.5C18.625 39.5 18.625 37 21.375 37C24 37 24 39.5 26.625 39.5C29.375 39.5 29.375 37 32 37C34.625 37 34.625 39.5 37.375 39.5C40 39.5 40 37 42.625 37C45.375 37 45.375 39.5 48 39.5C50.625 39.5 50.625 37 53.375 37C56 37 56 39.5 58.625 39.5C61.375 39.5 61.375 37 64 37V32.75C61.375 32.75 61.375 35.125 58.625 35.125C56 35.125 56 32.75 53.375 32.75C50.625 32.75 50.625 35.125 48 35.125C45.375 35.125 45.375 32.75 42.625 32.75C40 32.75 40 35.125 37.375 35.125C34.625 35.125 34.625 32.75 32 32.75C29.375 32.75 29.375 35.125 26.625 35.125C24 35.125 24 32.75 21.375 32.75C18.625 32.75 18.625 35.125 16 35.125C13.375 35.125 13.375 32.75 10.625 32.75C8 32.75 8 35.125 5.375 35.125C2.625 35.125 2.625 32.75 0 32.75ZM0 41.25V45.625C2.625 45.625 2.625 48 5.375 48C8 48 8 45.625 10.625 45.625C13.375 45.625 13.375 48 16 48C18.625 48 18.625 45.625 21.375 45.625C24 45.625 24 48 26.625 48C29.375 48 29.375 45.625 32 45.625C34.625 45.625 34.625 48 37.375 48C40 48 40 45.625 42.625 45.625C45.375 45.625 45.375 48 48 48C50.625 48 50.625 45.625 53.375 45.625C56 45.625 56 48 58.625 48C61.375 48 61.375 45.625 64 45.625V41.25C61.375 41.25 61.375 43.75 58.625 43.75C56 43.75 56 41.25 53.375 41.25C50.625 41.25 50.625 43.75 48 43.75C45.375 43.75 45.375 41.25 42.625 41.25C40 41.25 40 43.75 37.375 43.75C34.625 43.75 34.625 41.25 32 41.25C29.375 41.25 29.375 43.75 26.625 43.75C24 43.75 24 41.25 21.375 41.25C18.625 41.25 18.625 43.75 16 43.75C13.375 43.75 13.375 41.25 10.625 41.25C8 41.25 8 43.75 5.375 43.75C2.625 43.75 2.625 41.25 0 41.25ZM0 49.875V54.125C2.625 54.125 2.625 56.625 5.375 56.625C8 56.625 8 54.125 10.625 54.125C13.375 54.125 13.375 56.625 16 56.625C18.625 56.625 18.625 54.125 21.375 54.125C24 54.125 24 56.625 26.625 56.625C29.375 56.625 29.375 54.125 32 54.125C34.625 54.125 34.625 56.625 37.375 56.625C40 56.625 40 54.125 42.625 54.125C45.375 54.125 45.375 56.625 48 56.625C50.625 56.625 50.625 54.125 53.375 54.125C56 54.125 56 56.625 58.625 56.625C61.375 56.625 61.375 54.125 64 54.125V49.875C61.375 49.875 61.375 52.25 58.625 52.25C56 52.25 56 49.875 53.375 49.875C50.625 49.875 50.625 52.25 48 52.25C45.375 52.25 45.375 49.875 42.625 49.875C40 49.875 40 52.25 37.375 52.25C34.625 52.25 34.625 49.875 32 49.875C29.375 49.875 29.375 52.25 26.625 52.25C24 52.25 24 49.875 21.375 49.875C18.625 49.875 18.625 52.25 16 52.25C13.375 52.25 13.375 49.875 10.625 49.875C8 49.875 8 52.25 5.375 52.25C2.625 52.25 2.625 49.875 0 49.875ZM0 58.5V62.75C1.375 62.75 2 63.375 2.75 64H8C8.625 63.375 9.25 62.75 10.625 62.75C12 62.75 12.75 63.375 13.375 64H18.625C19.25 63.375 20 62.75 21.375 62.75C22.75 62.75 23.375 63.375 24.125 64H29.25C30 63.375 30.625 62.75 32 62.75C33.375 62.75 34 63.375 34.75 64H40C40.625 63.375 41.25 62.75 42.625 62.75C44 62.75 44.75 63.375 45.375 64H50.625C51.25 63.375 52 62.75 53.375 62.75C54.75 62.75 55.375 63.375 56.125 64H61.25C62 63.375 62.625 62.75 64 62.75V58.5C61.375 58.5 61.375 60.875 58.625 60.875C56 60.875 56 58.5 53.375 58.5C50.625 58.5 50.625 60.875 48 60.875C45.375 60.875 45.375 58.5 42.625 58.5C40 58.5 40 60.875 37.375 60.875C34.625 60.875 34.625 58.5 32 58.5C29.375 58.5 29.375 60.875 26.625 60.875C24 60.875 24 58.5 21.375 58.5C18.625 58.5 18.625 60.875 16 60.875C13.375 60.875 13.375 58.5 10.625 58.5C8 58.5 8 60.875 5.375 60.875C2.625 60.875 2.625 58.5 0 58.5Z" fill="#0052B4"/>
<path d="M41.75 16.75H54.25L48 23L41.75 16.75Z" fill="#6DA544"/>
<path d="M46.625 21.625H49.375V27.875L48 28.875L46.625 27.875V21.625ZM46.625 41.75H49.375V49.375H46.625V41.75Z" fill="#A2001D"/>
<path d="M56.375 37.625C56.3535 36.8238 56.1059 36.045 55.6607 35.3785C55.2155 34.712 54.5909 34.185 53.859 33.8582C53.1272 33.5315 52.3178 33.4184 51.5244 33.5319C50.731 33.6455 49.9859 33.9811 49.375 34.5V32H50.75V29.25H49.375V27.875H46.625V29.25H45.25V32H46.625V34.5C45.7867 33.792 44.7071 33.4357 43.6121 33.5056C42.517 33.5755 41.4915 34.0662 40.75 34.875C40.0342 35.677 39.6598 36.7268 39.7065 37.8008C39.7532 38.8748 40.2173 39.8881 41 40.625V43.125H55V40.625C55.875 39.875 56.375 38.875 56.375 37.625Z" fill="#FFDA44"/>
<path d="M43.875 36.125C43.5 36.125 43.125 36.375 42.875 36.625C42.375 37.125 42.375 38.125 42.875 38.625L43.875 39.375V40.375H52V39.375L53 38.625C53.5 38.125 53.5 37.125 53 36.625C52.5 36.125 51.75 36 51.125 36.5L49.25 38.25H46.625L44.75 36.5C44.5123 36.2748 44.202 36.1418 43.875 36.125Z" fill="#D80027"/>
</g>
</g>
<defs>
<clipPath id="clip0_218_182">
<rect width="64" height="64" fill="white"/>
</clipPath>
</defs>
</svg>
