<svg width="64" height="64" viewBox="0 0 64 64" fill="none" xmlns="http://www.w3.org/2000/svg">
<g clip-path="url(#clip0_224_927)">
<mask id="mask0_224_927" style="mask-type:luminance" maskUnits="userSpaceOnUse" x="0" y="0" width="64" height="64">
<path d="M32 64C49.6731 64 64 49.6731 64 32C64 14.3269 49.6731 0 32 0C14.3269 0 0 14.3269 0 32C0 49.6731 14.3269 64 32 64Z" fill="white"/>
</mask>
<g mask="url(#mask0_224_927)">
<path d="M2.9125 61.0751L0 58.125V5.88755L2.925 2.92505L60.925 60.925L64 58.1V5.88755L60.9375 3.05005L2.9125 61.0751Z" fill="#333333"/>
<path d="M2.91251 2.9125L5.88751 0H58.1L61.075 2.925L3.07501 60.925L5.87501 64H58.125L60.95 60.9375L2.91251 2.9125Z" fill="#6DA544"/>
<path d="M0 0V5.8875L26.1 32L0 58.1125V64H5.8875L32 37.9L58.1125 64H64V58.125L37.8875 32L64 5.9V0H58.1L32 26.1125L5.875 0H0Z" fill="#FFDA44"/>
</g>
</g>
<defs>
<clipPath id="clip0_224_927">
<rect width="64" height="64" fill="white"/>
</clipPath>
</defs>
</svg>
