<svg width="64" height="64" viewBox="0 0 64 64" fill="none" xmlns="http://www.w3.org/2000/svg">
<g clip-path="url(#clip0_224_232)">
<mask id="mask0_224_232" style="mask-type:luminance" maskUnits="userSpaceOnUse" x="0" y="0" width="64" height="64">
<path d="M32 64C49.6731 64 64 49.6731 64 32C64 14.3269 49.6731 0 32 0C14.3269 0 0 14.3269 0 32C0 49.6731 14.3269 64 32 64Z" fill="white"/>
</mask>
<g mask="url(#mask0_224_232)">
<path d="M0 0H64V16.7125L59.125 31.9125L64 47.3125V64H0V47.3125L4.275 31.875L0 16.7125V0Z" fill="#0052B4"/>
<path d="M0 16.7125H64V47.3125H0V16.7125Z" fill="#D80027"/>
<path d="M43.125 38.2625V34.1H40.35V28.5375L37.5625 25.75L34.7875 28.5375V22.975L32 20.1875L29.2125 22.975V28.5375L26.4375 25.75L23.65 28.5375V34.1H20.875V38.275H18.0875V42.45H45.9125V38.2625H43.125Z" fill="#EEEEEE"/>
</g>
</g>
<defs>
<clipPath id="clip0_224_232">
<rect width="64" height="64" fill="white"/>
</clipPath>
</defs>
</svg>
