<svg width="64" height="64" viewBox="0 0 64 64" fill="none" xmlns="http://www.w3.org/2000/svg">
<g clip-path="url(#clip0_514_38)">
<path d="M32 64C49.6731 64 64 49.6731 64 32C64 14.3269 49.6731 0 32 0C14.3269 0 0 14.3269 0 32C0 49.6731 14.3269 64 32 64Z" fill="#338AF3"/>
<path d="M50.0871 32.3479H13.9131C13.9131 34.8453 16.0882 36.8697 18.5853 36.8697H18.4348C18.4348 39.367 20.4592 41.3914 22.9566 41.3914C22.9566 43.8888 24.981 45.9132 27.4783 45.9132H36.5218C39.0192 45.9132 41.0436 43.8888 41.0436 41.3914C43.541 41.3914 45.5653 39.367 45.5653 36.8697H45.4148C47.9117 36.8697 50.0871 34.8453 50.0871 32.3479Z" fill="#FFDA44"/>
<path d="M44.522 26.4348C44.522 33.3503 38.9158 38.9566 32.0003 38.9566C25.0846 38.9566 19.4785 33.3503 19.4785 26.4348" fill="#338AF3"/>
<path d="M41.5643 26.4348L37.6562 28.2732L39.7373 32.0582L35.4935 31.2463L34.9558 35.5333L31.9999 32.3802L29.0439 35.5333L28.5063 31.2463L24.2625 32.0579L26.3435 28.2731L22.4355 26.4348L26.3437 24.5966L24.2625 20.8117L28.5062 21.6234L29.044 17.3364L31.9999 20.4896L34.9559 17.3364L35.4935 21.6234L39.7374 20.8117L37.6563 24.5967L41.5643 26.4348Z" fill="#FFDA44"/>
</g>
<defs>
<clipPath id="clip0_514_38">
<rect width="64" height="64" fill="white"/>
</clipPath>
</defs>
</svg>
