<svg width="64" height="64" viewBox="0 0 64 64" fill="none" xmlns="http://www.w3.org/2000/svg">
<g clip-path="url(#clip0_218_349)">
<mask id="mask0_218_349" style="mask-type:luminance" maskUnits="userSpaceOnUse" x="0" y="0" width="64" height="64">
<path d="M32 64C49.6731 64 64 49.6731 64 32C64 14.3269 49.6731 0 32 0C14.3269 0 0 14.3269 0 32C0 49.6731 14.3269 64 32 64Z" fill="white"/>
</mask>
<g mask="url(#mask0_218_349)">
<path d="M15.55 18.7125L64 16.6V0H0L15.55 18.7125Z" fill="#FFDA44"/>
<path d="M14.0625 16.6H64V31.9L27.225 33.975L14.0625 16.6Z" fill="#EEEEEE"/>
<path d="M64 31.9125H29.3125L12.3125 49.3875L64 47.2125V32V31.9125Z" fill="#D80027"/>
<path d="M13.525 47.2125L0 63.9L64 64V47.2125H13.525Z" fill="#0052B4"/>
<path d="M0.1 0L0 63.9L32 31.9L0.1 0Z" fill="#6DA544"/>
<path d="M8.43749 31.9125C8.44231 29.6951 9.20281 27.5456 10.5935 25.8185C11.9843 24.0915 13.9221 22.8901 16.0875 22.4125C15.4027 22.2544 14.7028 22.1705 14 22.1625C12.6223 22.1478 11.2571 22.4253 9.99437 22.9767C8.73169 23.5281 7.60021 24.3408 6.67452 25.3613C5.74882 26.3819 5.04993 27.587 4.62391 28.8973C4.1979 30.2076 4.05444 31.5933 4.20298 32.9631C4.35152 34.3329 4.78869 35.6556 5.48568 36.8441C6.18268 38.0327 7.12365 39.06 8.24659 39.8583C9.36953 40.6567 10.6489 41.208 12.0005 41.4759C13.352 41.7438 14.7449 41.7222 16.0875 41.4125C13.9221 40.9349 11.9843 39.7335 10.5935 38.0064C9.20281 36.2794 8.44231 34.1299 8.43749 31.9125Z" fill="#EEEEEE"/>
<path d="M15.9875 23.5625L16.5 25.15H18.175L16.825 26.15L17.3375 27.7375L15.9875 26.7375L14.625 27.7375L15.15 26.1375L13.7875 25.15H15.4625L15.9875 23.5625ZM15.9875 27.7375L16.5 29.325H18.175L16.825 30.325L17.3375 31.9125L15.9875 30.9125L14.625 31.9125L15.15 30.3125L13.7875 29.325H15.4625L15.9875 27.7375ZM15.9875 31.9125L16.5 33.5H18.175L16.825 34.5L17.3375 36.075L15.9875 35.1L14.625 36.075L15.15 34.4875L13.7875 33.5H15.4625L15.9875 31.9125ZM15.9875 36.075L16.5 37.675H18.175L16.825 38.675L17.3375 40.25L15.9875 39.275L14.625 40.25L15.15 38.6625L13.7875 37.675H15.4625L15.9875 36.075Z" fill="#EEEEEE"/>
</g>
</g>
<defs>
<clipPath id="clip0_218_349">
<rect width="64" height="64" fill="white"/>
</clipPath>
</defs>
</svg>
