<svg width="64" height="64" viewBox="0 0 64 64" fill="none" xmlns="http://www.w3.org/2000/svg">
<g clip-path="url(#clip0_224_1201)">
<mask id="mask0_224_1201" style="mask-type:luminance" maskUnits="userSpaceOnUse" x="0" y="0" width="64" height="64">
<path d="M32 64C49.6731 64 64 49.6731 64 32C64 14.3269 49.6731 0 32 0C14.3269 0 0 14.3269 0 32C0 49.6731 14.3269 64 32 64Z" fill="white"/>
</mask>
<g mask="url(#mask0_224_1201)">
<path d="M0 0H64V64H0V0Z" fill="#EEEEEE"/>
<path d="M43.125 32C43.125 34.7875 38.15 41.75 32 41.75C25.85 41.75 20.875 34.7875 20.875 32C20.875 29.0495 22.0471 26.2198 24.1334 24.1334C26.2198 22.0471 29.0495 20.875 32 20.875C34.9505 20.875 37.7802 22.0471 39.8666 24.1334C41.9529 26.2198 43.125 29.0495 43.125 32Z" fill="#D80027"/>
<path d="M43.125 32C43.125 34.9505 41.9529 37.7802 39.8666 39.8666C37.7802 41.9529 34.9505 43.125 32 43.125C29.0495 43.125 26.2198 41.9529 24.1334 39.8666C22.0471 37.7802 20.875 34.9505 20.875 32" fill="#0052B4"/>
<path d="M43.7998 41.8373L46.7623 38.8873L48.7248 40.8498L45.7748 43.7998L43.7998 41.8373ZM38.8873 46.7623L41.8373 43.7998L43.7998 45.7748L40.8498 48.7248L38.8873 46.7623ZM49.7123 47.7373L52.6623 44.7873L54.6248 46.7498L51.6748 49.7123L49.7123 47.7373ZM44.7873 52.6623L47.7373 49.7123L49.7123 51.6748L46.7498 54.6248L44.7873 52.6623ZM46.7623 44.7873L49.7123 41.8373L51.6748 43.7998L48.7248 46.7623L46.7623 44.7873ZM41.8373 49.7123L44.7873 46.7623L46.7623 48.7248L43.7998 51.6748L41.8373 49.7123ZM49.7123 22.1623L41.8373 14.2873L43.8123 12.3248L51.6873 20.1998L49.7123 22.1623ZM41.8373 20.1998L38.8873 17.2373L40.8498 15.2748L43.8123 18.2248L41.8373 20.1998ZM46.7623 25.1123L43.7998 22.1623L45.7748 20.1998L48.7248 23.1498L46.7623 25.1123ZM47.7373 14.2873L44.7873 11.3373L46.7498 9.3748L49.7123 12.3248L47.7373 14.2873ZM52.6623 19.2123L49.7123 16.2498L51.6748 14.2748L54.6248 17.2498L52.6623 19.2123ZM11.3373 44.7873L19.2123 52.6623L17.2373 54.6248L9.3623 46.7498L11.3373 44.7873ZM19.2123 46.7498L22.1623 49.7123L20.1998 51.6748L17.2373 48.7248L19.2123 46.7498ZM14.2873 41.8373L17.2373 44.7873L15.2748 46.7623L12.3248 43.7998L14.2873 41.8373ZM17.2373 38.8873L25.1123 46.7623L23.1498 48.7248L15.2748 40.8498L17.2373 38.8873ZM19.2123 11.3373L11.3373 19.2123L9.3748 17.2373L17.2498 9.3623L19.2123 11.3373ZM22.1623 14.2873L14.2873 22.1623L12.3248 20.1873L20.1998 12.3123L22.1623 14.2873ZM25.1123 17.2373L17.2373 25.1123L15.2748 23.1498L23.1498 15.2748L25.1123 17.2373Z" fill="#333333"/>
</g>
</g>
<defs>
<clipPath id="clip0_224_1201">
<rect width="64" height="64" fill="white"/>
</clipPath>
</defs>
</svg>
