<svg width="64" height="64" viewBox="0 0 64 64" fill="none" xmlns="http://www.w3.org/2000/svg">
<g clip-path="url(#clip0_224_253)">
<mask id="mask0_224_253" style="mask-type:luminance" maskUnits="userSpaceOnUse" x="0" y="0" width="64" height="64">
<path d="M32 64C49.6731 64 64 49.6731 64 32C64 14.3269 49.6731 0 32 0C14.3269 0 0 14.3269 0 32C0 49.6731 14.3269 64 32 64Z" fill="white"/>
</mask>
<g mask="url(#mask0_224_253)">
<path d="M17.3 18.375L64 20.875V43.125L17.3 45.625V18.375Z" fill="#EEEEEE"/>
<path d="M0 0L17.3 20.875H64V0H0Z" fill="#6DA544"/>
<path d="M0 64L17.3 43.125H64V64H0Z" fill="#D80027"/>
<path d="M20.875 20.875L0 0V64L20.875 43.125V20.875Z" fill="#333333"/>
</g>
</g>
<defs>
<clipPath id="clip0_224_253">
<rect width="64" height="64" fill="white"/>
</clipPath>
</defs>
</svg>
