<svg width="64" height="64" viewBox="0 0 64 64" fill="none" xmlns="http://www.w3.org/2000/svg">
<g clip-path="url(#clip0_240_756)">
<mask id="mask0_240_756" style="mask-type:luminance" maskUnits="userSpaceOnUse" x="0" y="0" width="64" height="64">
<path d="M32 64C49.6731 64 64 49.6731 64 32C64 14.3269 49.6731 0 32 0C14.3269 0 0 14.3269 0 32C0 49.6731 14.3269 64 32 64Z" fill="white"/>
</mask>
<g mask="url(#mask0_240_756)">
<path d="M0 0H49.7L64 14.275V64H0V0Z" fill="#0052B4"/>
<path d="M64 0H49.7L0 64L61.675 6.7125L64 0Z" fill="#EEEEEE"/>
<path d="M0 64L64 14.275V0L0 64Z" fill="#FF9811"/>
<path d="M27.7766 18.7621L23.8766 20.5996L25.9641 24.3871L21.7141 23.5746L21.1766 27.8621L18.2266 24.7121L15.2641 27.8621L14.7266 23.5746L10.4891 24.3871L12.5641 20.5996L8.66406 18.7621L12.5641 16.9246L10.5016 13.1371L14.7516 13.9496L15.2766 9.66211L18.2391 12.8246L21.1891 9.66211L21.7266 13.9496L25.9766 13.1371L23.8891 16.9246L27.7766 18.7621Z" fill="#EEEEEE"/>
</g>
</g>
<defs>
<clipPath id="clip0_240_756">
<rect width="64" height="64" fill="white"/>
</clipPath>
</defs>
</svg>
