<svg width="64" height="64" viewBox="0 0 64 64" fill="none" xmlns="http://www.w3.org/2000/svg">
<g clip-path="url(#clip0_233_299)">
<mask id="mask0_233_299" style="mask-type:luminance" maskUnits="userSpaceOnUse" x="0" y="0" width="64" height="64">
<path d="M32 64C49.6731 64 64 49.6731 64 32C64 14.3269 49.6731 0 32 0C14.3269 0 0 14.3269 0 32C0 49.6731 14.3269 64 32 64Z" fill="white"/>
</mask>
<g mask="url(#mask0_233_299)">
<path d="M0 0H32L64 32V64H32L0 32V0Z" fill="#EEEEEE"/>
<path d="M0 32V64H32V32H0Z" fill="#0052B4"/>
<path d="M32 0H64V32H32V0Z" fill="#D80027"/>
<path d="M19.0484 11.125L21.1234 17.5H27.8234L22.3984 21.45L24.4734 27.825L19.0484 23.8875L13.6234 27.825L15.6984 21.45L10.2734 17.5H16.9734L19.0484 11.125Z" fill="#0052B4"/>
<path d="M44.9508 36.1748L47.0258 42.5498H53.7258L48.3008 46.4998L50.3758 52.8748L44.9508 48.9373L39.5258 52.8873L41.6008 46.5123L36.1758 42.5623H42.8758L44.9508 36.1748Z" fill="#D80027"/>
</g>
</g>
<defs>
<clipPath id="clip0_233_299">
<rect width="64" height="64" fill="white"/>
</clipPath>
</defs>
</svg>
