<svg width="64" height="64" viewBox="0 0 64 64" fill="none" xmlns="http://www.w3.org/2000/svg">
<g clip-path="url(#clip0_240_870)">
<mask id="mask0_240_870" style="mask-type:luminance" maskUnits="userSpaceOnUse" x="0" y="0" width="64" height="64">
<path d="M32 64C49.6731 64 64 49.6731 64 32C64 14.3269 49.6731 0 32 0C14.3269 0 0 14.3269 0 32C0 49.6731 14.3269 64 32 64Z" fill="white"/>
</mask>
<g mask="url(#mask0_240_870)">
<path d="M0 0H16.7L22.975 31.5625L16.7 64H0V0Z" fill="#EEEEEE"/>
<path d="M16.6992 0H63.9992V64H16.6992V0Z" fill="#496E2D"/>
<path d="M45.6864 37.2875C44.5717 38.0921 43.2881 38.6317 41.9333 38.8654C40.5785 39.099 39.1882 39.0205 37.8684 38.6358C36.5485 38.2511 35.3338 37.5704 34.3167 36.6454C33.2997 35.7204 32.507 34.5755 31.9991 33.298C31.4912 32.0205 31.2815 30.6439 31.3859 29.2731C31.4903 27.9023 31.9061 26.5733 32.6016 25.3874C33.297 24.2015 34.2539 23.1899 35.3993 22.4296C36.5448 21.6694 37.8485 21.1804 39.2114 21C37.0461 20.6778 34.8339 21.0017 32.8518 21.9309C30.8696 22.8602 29.2057 24.3536 28.0684 26.2242C26.9311 28.0947 26.3709 30.2592 26.458 32.4466C26.5452 34.634 27.2757 36.7471 28.5582 38.5213C29.8407 40.2954 31.6181 41.6518 33.6678 42.4205C35.7176 43.1892 37.9486 43.336 40.0814 42.8427C42.2142 42.3493 44.1541 41.2377 45.6581 39.6469C47.1621 38.0562 48.1633 36.0571 48.5364 33.9C47.885 35.2534 46.9053 36.4222 45.6864 37.3V37.2875ZM45.4989 20.875L47.7739 23.325L50.8114 21.9125L49.1864 24.85L51.4614 27.3L48.1739 26.6625L46.5489 29.5875L46.1364 26.25L42.8739 25.625L45.9239 24.2125L45.4989 20.875Z" fill="#EEEEEE"/>
</g>
</g>
<defs>
<clipPath id="clip0_240_870">
<rect width="64" height="64" fill="white"/>
</clipPath>
</defs>
</svg>
