<svg width="64" height="64" viewBox="0 0 64 64" fill="none" xmlns="http://www.w3.org/2000/svg">
<g clip-path="url(#clip0_240_238)">
<mask id="mask0_240_238" style="mask-type:luminance" maskUnits="userSpaceOnUse" x="0" y="0" width="64" height="64">
<path d="M32 64C49.6731 64 64 49.6731 64 32C64 14.3269 49.6731 0 32 0C14.3269 0 0 14.3269 0 32C0 49.6731 14.3269 64 32 64Z" fill="white"/>
</mask>
<g mask="url(#mask0_240_238)">
<path d="M20 0H64V64H20L16 32L20 0Z" fill="#338AF3"/>
<path d="M0 20L10 16L20 20V44L10 48L0 44V20Z" fill="#EEEEEE"/>
<path d="M20 0H0V20H20V0Z" fill="#D80027"/>
<path d="M20 2.625V0H17.5L0 17.375V20H2.5L20 2.625Z" fill="#6DA544"/>
<path d="M0 2.625V0H2.5L20 17.375V20H17.5L0 2.625Z" fill="#6DA544"/>
<path d="M0 8H20V12H0V8Z" fill="#EEEEEE"/>
<path d="M8 0H12V20H8V0Z" fill="#EEEEEE"/>
<path d="M0 64H20V44H0V64Z" fill="#D80027"/>
<path d="M42.5 18.25V38H37.5C34.5 38 34.5 34 34.5 34H22.5V38H25L43.375 42L61.5 38V35H51.5C51.5 35 51.5 38 48.5 38H44.5V18.25H42.5Z" fill="#FFDA44"/>
<path d="M44.5 17.2498V21.2498C40.625 19.8748 36.875 22.2498 34.5 17.2498C38.625 20.1248 40.875 15.9998 44.5 17.2498ZM35.5 22.9998C35.5 22.9998 32.5 25.9998 33.5 31.9998H24.5C24.5 31.9998 28.5 24.9998 35.5 22.9998ZM37.5 35.9998H49.375C45.5 29.9998 49.375 22.9998 49.375 22.9998H37.5C37.5 22.9998 32.5 29.9998 37.5 35.9998ZM50.125 32.9998C49.3698 30.3546 49.5463 27.5303 50.625 24.9998H58.5C58.5 24.9998 56.5 28.9998 58.375 32.9998H50.125ZM37.5 37.9998H61.5C61.5 37.9998 60.5 37.9998 59.5 40.9998C58.5 43.9998 57.5 46.9998 52.5 46.9998H34.5C29.625 46.9998 28 40.7498 25 37.9998H37.5Z" fill="#FFDA44"/>
<path d="M14 48H6C4.89543 48 4 48.8954 4 50C4 51.1046 4.89543 52 6 52H14C15.1046 52 16 51.1046 16 50C16 48.8954 15.1046 48 14 48Z" fill="#FFDA44"/>
<path d="M14 56H6C4.89543 56 4 56.8954 4 58C4 59.1046 4.89543 60 6 60H14C15.1046 60 16 59.1046 16 58C16 56.8954 15.1046 56 14 56Z" fill="#FFDA44"/>
</g>
</g>
<defs>
<clipPath id="clip0_240_238">
<rect width="64" height="64" fill="white"/>
</clipPath>
</defs>
</svg>
