<svg width="64" height="64" viewBox="0 0 64 64" fill="none" xmlns="http://www.w3.org/2000/svg">
<g clip-path="url(#clip0_233_334)">
<mask id="mask0_233_334" style="mask-type:luminance" maskUnits="userSpaceOnUse" x="0" y="0" width="64" height="64">
<path d="M32 64C49.6731 64 64 49.6731 64 32C64 14.3269 49.6731 0 32 0C14.3269 0 0 14.3269 0 32C0 49.6731 14.3269 64 32 64Z" fill="white"/>
</mask>
<g mask="url(#mask0_233_334)">
<path d="M0 64H20.875L25.6125 31.4625L20.875 0H0V64Z" fill="#6DA544"/>
<path d="M64 0H20.875V64H64V0Z" fill="#D80027"/>
<path d="M20.875 43.125C27.0192 43.125 32 38.1442 32 32C32 25.8558 27.0192 20.875 20.875 20.875C14.7308 20.875 9.75 25.8558 9.75 32C9.75 38.1442 14.7308 43.125 20.875 43.125Z" fill="#FFDA44"/>
<path d="M14.6133 26.4373V33.3748C14.6133 35.0341 15.2724 36.6254 16.4457 37.7986C17.619 38.9719 19.2103 39.6311 20.8695 39.6311C22.5288 39.6311 24.1201 38.9719 25.2934 37.7986C26.4666 36.6254 27.1258 35.0341 27.1258 33.3748V26.4248H14.6258L14.6133 26.4373Z" fill="#D80027"/>
<path d="M20.8766 35.475C19.7266 35.475 18.7891 34.5375 18.7891 33.3875V30.625H22.9641V33.375C22.9641 34.525 22.0266 35.4625 20.8766 35.4625V35.475Z" fill="#EEEEEE"/>
</g>
</g>
<defs>
<clipPath id="clip0_233_334">
<rect width="64" height="64" fill="white"/>
</clipPath>
</defs>
</svg>
