<svg width="64" height="64" viewBox="0 0 64 64" fill="none" xmlns="http://www.w3.org/2000/svg">
<g clip-path="url(#clip0_233_362)">
<mask id="mask0_233_362" style="mask-type:luminance" maskUnits="userSpaceOnUse" x="0" y="0" width="64" height="64">
<path d="M32 64C49.6731 64 64 49.6731 64 32C64 14.3269 49.6731 0 32 0C14.3269 0 0 14.3269 0 32C0 49.6731 14.3269 64 32 64Z" fill="white"/>
</mask>
<g mask="url(#mask0_233_362)">
<path d="M0 32L32.2125 25.625L64 32V64H0V32Z" fill="#EEEEEE"/>
<path d="M0 0H64V32H0V0Z" fill="#D80027"/>
<path d="M19.4749 16.7C19.4769 14.4804 20.2361 12.328 21.6271 10.5984C23.018 8.86878 24.9575 7.66552 27.1249 7.18747C26.4392 7.03774 25.7393 6.9623 25.0374 6.96247C23.6597 6.94779 22.2945 7.22529 21.0318 7.77667C19.7691 8.32804 18.6377 9.14078 17.712 10.1613C16.7863 11.1818 16.0874 12.387 15.6614 13.6973C15.2353 15.0076 15.0919 16.3933 15.2404 17.7631C15.389 19.1328 15.8261 20.4556 16.5231 21.6441C17.2201 22.8326 18.1611 23.8599 19.284 24.6583C20.407 25.4567 21.6864 26.008 23.0379 26.2758C24.3894 26.5437 25.7824 26.5221 27.1249 26.2125C24.9575 25.7344 23.018 24.5312 21.6271 22.8015C20.2361 21.0719 19.4769 18.9195 19.4749 16.7ZM31.9999 7.64997L32.6874 9.77497H34.9374L33.1124 11.0875L33.8124 13.2125L31.9999 11.9L30.1874 13.2125L30.8874 11.0875L29.0749 9.77497H31.3124L31.9999 7.64997Z" fill="#EEEEEE"/>
<path d="M26.5734 11.8252L27.2734 13.9502H29.4984L27.6984 15.2627L28.3859 17.3877L26.5734 16.0752L24.7734 17.3877L25.4609 15.2627L23.6484 13.9502H25.8859L26.5734 11.8252ZM37.4234 11.8252L38.1109 13.9502H40.3484L38.5359 15.2627L39.2234 17.3877L37.4234 16.0752L35.6109 17.3877L36.2984 15.2627L34.4984 13.9502H36.7234L37.4234 11.8252ZM35.3359 18.0877L36.0234 20.2127H38.2609L36.4484 21.5252L37.1359 23.6502L35.3359 22.3377L33.5234 23.6502L34.2109 21.5252L32.4109 20.2127H34.6484L35.3359 18.0877ZM28.6609 18.0877L29.3484 20.2127H31.5984L29.7859 21.5252L30.4734 23.6502L28.6609 22.3377L26.8609 23.6502L27.5484 21.5252L25.7359 20.2127H27.9734L28.6609 18.0877Z" fill="#EEEEEE"/>
</g>
</g>
<defs>
<clipPath id="clip0_233_362">
<rect width="64" height="64" fill="white"/>
</clipPath>
</defs>
</svg>
