<svg width="64" height="64" viewBox="0 0 64 64" fill="none" xmlns="http://www.w3.org/2000/svg">
<g clip-path="url(#clip0_224_1162)">
<mask id="mask0_224_1162" style="mask-type:luminance" maskUnits="userSpaceOnUse" x="0" y="0" width="64" height="64">
<path d="M32 64C49.6731 64 64 49.6731 64 32C64 14.3269 49.6731 0 32 0C14.3269 0 0 14.3269 0 32C0 49.6731 14.3269 64 32 64Z" fill="white"/>
</mask>
<g mask="url(#mask0_224_1162)">
<path d="M0 0H64V64H0V0Z" fill="#338AF3"/>
<path d="M32 16.7002L35.45 27.3252H46.625L37.5875 33.8752L41.0375 44.5002L32 37.9377L22.9625 44.5127L26.4125 33.8877L17.375 27.3127H28.55L32 16.7002Z" fill="#EEEEEE"/>
</g>
</g>
<defs>
<clipPath id="clip0_224_1162">
<rect width="64" height="64" fill="white"/>
</clipPath>
</defs>
</svg>
