<svg width="64" height="64" viewBox="0 0 64 64" fill="none" xmlns="http://www.w3.org/2000/svg">
<g clip-path="url(#clip0_224_1169)">
<mask id="mask0_224_1169" style="mask-type:luminance" maskUnits="userSpaceOnUse" x="0" y="0" width="64" height="64">
<path d="M32 64C49.6731 64 64 49.6731 64 32C64 14.3269 49.6731 0 32 0C14.3269 0 0 14.3269 0 32C0 49.6731 14.3269 64 32 64Z" fill="white"/>
</mask>
<g mask="url(#mask0_224_1169)">
<path d="M32 0H64V64H0V32L32 0Z" fill="#0052B4"/>
<path d="M0 0V4L4 8L0 12V32H4L8 28L12 32H16V21.625L26.375 32H32L31 30L32 28.125V26.375L21.625 16H32V12L28 8L32 4V0H12L8 4L4 0H0Z" fill="#EEEEEE"/>
<path d="M4 0V4H0V12H4V32H12V12H32V4H12V0H4ZM16 16L32 32V28.125L19.875 16H16Z" fill="#D80027"/>
<path d="M36.1746 16.7002V32.0002C36.1746 39.4502 45.9121 41.7502 45.9121 41.7502C45.9121 41.7502 55.6621 39.4502 55.6621 32.0002V16.7002H36.1621H36.1746Z" fill="#FFDA44"/>
<path d="M44.5254 22.2501C44.5254 23.8001 43.2754 27.8251 41.7379 27.8251C40.2004 27.8251 38.9629 23.8001 38.9629 22.2626C38.9629 20.7251 41.7379 19.4751 41.7379 19.4751C41.7379 19.4751 44.5254 20.7251 44.5254 22.2626V22.2501Z" fill="#FF9811"/>
<path d="M51.9002 25.2876C52.3481 24.1699 52.618 22.9889 52.7002 21.7876C52.7002 20.5126 51.0377 19.4751 51.0377 19.4751C51.0377 19.4751 49.3627 20.5126 49.3627 21.8001C49.3627 22.6001 49.7127 24.2001 50.1627 25.3001L49.2002 27.4626C49.7826 27.7056 50.4067 27.833 51.0377 27.8376C51.6687 27.833 52.2928 27.7056 52.8752 27.4626L51.9002 25.2876Z" fill="#A2001D"/>
<path d="M43.825 31.9998C43.825 31.9998 42.4375 34.7873 42.4375 37.5623H49.375C49.375 34.7873 47.9875 31.9998 47.9875 31.9998L45.9 30.6123L43.8125 31.9998H43.825Z" fill="#6DA544"/>
<path d="M48.0002 31.9999V31.2999C48.0002 30.7463 47.7803 30.2153 47.3888 29.8238C46.9973 29.4323 46.4663 29.2124 45.9127 29.2124C45.3591 29.2124 44.8281 29.4323 44.4366 29.8238C44.0451 30.2153 43.8252 30.7463 43.8252 31.2999V31.9999H48.0002Z" fill="#D80027"/>
</g>
</g>
<defs>
<clipPath id="clip0_224_1169">
<rect width="64" height="64" fill="white"/>
</clipPath>
</defs>
</svg>
