<svg width="64" height="64" viewBox="0 0 64 64" fill="none" xmlns="http://www.w3.org/2000/svg">
<g clip-path="url(#clip0_240_660)">
<mask id="mask0_240_660" style="mask-type:luminance" maskUnits="userSpaceOnUse" x="0" y="0" width="64" height="64">
<path d="M32 64C49.6731 64 64 49.6731 64 32C64 14.3269 49.6731 0 32 0C14.3269 0 0 14.3269 0 32C0 49.6731 14.3269 64 32 64Z" fill="white"/>
</mask>
<g mask="url(#mask0_240_660)">
<path d="M0 0H8.35L16.825 4.0375L25.0375 0H64V64H25.0375L16.2625 59.7375L8.35 64H0V0Z" fill="#496E2D"/>
<path d="M8.35156 0H25.0391V64H8.35156V0Z" fill="#D80027"/>
<path d="M46.8008 24.1377C47.5486 22.0479 47.5611 19.7655 46.836 17.6677C46.111 15.5699 44.6919 13.7822 42.8133 12.6002C43.5084 12.6933 44.1915 12.8609 44.8508 13.1002C46.1229 13.477 47.3048 14.1095 48.324 14.9589C49.3432 15.8084 50.1783 16.8569 50.7782 18.0403C51.3781 19.2237 51.7302 20.5171 51.8128 21.8413C51.8955 23.1655 51.707 24.4927 51.2589 25.7415C50.8108 26.9903 50.1126 28.1345 49.2069 29.1041C48.3013 30.0737 47.2072 30.8483 45.9918 31.3804C44.7764 31.9124 43.4652 32.1909 42.1384 32.1986C40.8117 32.2063 39.4973 31.9431 38.2758 31.4252C37.6157 31.1897 36.9829 30.8837 36.3883 30.5127C38.5903 30.7943 40.8226 30.3159 42.7159 29.1567C44.6092 27.9976 46.0503 26.227 46.8008 24.1377ZM38.0758 11.3877L36.7008 13.1627L34.6008 12.4127L35.8508 14.2627L34.4883 16.0127L36.6383 15.3877L37.8883 17.2502L37.9633 15.0002L40.1133 14.3752L38.0008 13.6252L38.0758 11.3877Z" fill="#EEEEEE"/>
<path d="M41.7617 17.1625L40.3867 18.9125L38.2867 18.1625L39.5492 20.0125L38.1742 21.7875L40.3242 21.1625L41.5867 23L41.6492 20.775L43.7992 20.15L41.6992 19.4L41.7617 17.1625ZM31.5617 13.5L30.1867 15.2625L28.0867 14.5125L29.3367 16.35L27.9742 18.125L30.1242 17.5L31.3742 19.3375L31.4492 17.1125L33.5867 16.4875L31.4867 15.7375L31.5617 13.5ZM31.4117 20.0875L30.0367 21.8625L27.9367 21.1125L29.1867 22.95L27.8242 24.725L29.9742 24.1L31.2242 25.9375L31.2992 23.7125L33.4367 23.0875L31.3367 22.3375L31.4117 20.0875ZM37.6867 22.3375L36.3117 24.1125L34.2117 23.3625L35.4617 25.2L34.0992 26.975L36.2492 26.35L37.4992 28.1875L37.5742 25.9625L39.7242 25.3375L37.6117 24.5875L37.6867 22.3375Z" fill="#EEEEEE"/>
<path d="M14.7258 16.8498L11.9258 14.7498V13.2498L16.7008 9.7498L18.6758 9.7373L21.4633 11.8248V13.2623L16.7008 16.8498H14.7258Z" fill="#EEEEEE"/>
<path d="M16.7008 9.75H14.7258L11.9258 11.8125V13.25H16.7008V9.75ZM16.7008 16.85H18.6758L21.4633 14.7625V13.2625H16.7008V16.85Z" fill="#FF9811"/>
<path d="M14.7242 35.5502L11.9242 33.4752V30.5252L14.7242 28.4502H18.6742L21.4617 30.5252V33.4752L18.6742 35.5502H14.7242ZM21.5617 40.1377H20.3492V38.9127H18.2117L16.6992 37.4127L15.1867 38.9127H13.0367V40.1377H11.8242V42.5752H13.0367V43.7877H15.1867L16.6867 45.3002L18.2117 43.7877H20.3367V42.5752H21.5617V40.1377ZM21.5617 21.4252H20.3492V20.2127H18.2117L16.6992 18.7002L15.1867 20.2002H13.0367V21.4252H11.8242V23.8752H13.0367V25.1002H15.1867L16.6867 26.6002L18.2117 25.1002H20.3367V23.8752H21.5617V21.4252Z" fill="#496E2D"/>
<path d="M15.3008 30.6123H18.0883V33.3748H15.3008V30.6123Z" fill="#D80027"/>
<path d="M16.7 24.0377C17.4663 24.0377 18.0875 23.4165 18.0875 22.6502C18.0875 21.8839 17.4663 21.2627 16.7 21.2627C15.9337 21.2627 15.3125 21.8839 15.3125 22.6502C15.3125 23.4165 15.9337 24.0377 16.7 24.0377Z" fill="#D80027"/>
<path d="M16.7 42.7379C17.4663 42.7379 18.0875 42.1167 18.0875 41.3504C18.0875 40.5841 17.4663 39.9629 16.7 39.9629C15.9337 39.9629 15.3125 40.5841 15.3125 41.3504C15.3125 42.1167 15.9337 42.7379 16.7 42.7379Z" fill="#D80027"/>
<path d="M14.7258 54.2502L11.9258 52.1502V50.6502L16.7008 47.1502L18.6758 47.1377L21.4633 49.2252V50.6627L16.7008 54.2502H14.7258Z" fill="#EEEEEE"/>
<path d="M16.7008 47.1504H14.7258L11.9258 49.2129V50.6504H16.7008V47.1504ZM16.7008 54.2504H18.6758L21.4633 52.1629V50.6629H16.7008V54.2504Z" fill="#FF9811"/>
</g>
</g>
<defs>
<clipPath id="clip0_240_660">
<rect width="64" height="64" fill="white"/>
</clipPath>
</defs>
</svg>
