<svg width="64" height="64" viewBox="0 0 64 64" fill="none" xmlns="http://www.w3.org/2000/svg">
<g clip-path="url(#clip0_218_98)">
<mask id="mask0_218_98" style="mask-type:luminance" maskUnits="userSpaceOnUse" x="0" y="0" width="64" height="64">
<path d="M64 0H0V64H64V0Z" fill="white"/>
</mask>
<g mask="url(#mask0_218_98)">
<path d="M32 64C49.6731 64 64 49.6731 64 32C64 14.3269 49.6731 0 32 0C14.3269 0 0 14.3269 0 32C0 49.6731 14.3269 64 32 64Z" fill="#D80027"/>
<path d="M40.7582 25.126L43.8462 29.39L48.8462 27.758L45.7582 32.026L48.8462 36.276L43.8462 34.644L40.7582 38.908V33.626L35.7582 31.994L40.7582 30.377V25.126ZM32.3322 42.638C30.7176 42.6322 29.1255 42.2587 27.6768 41.5457C26.228 40.8328 24.9608 39.7992 23.9711 38.5234C22.9815 37.2476 22.2955 35.7631 21.9652 34.1826C21.6349 32.6021 21.6689 30.9671 22.0648 29.4018C22.4607 27.8364 23.208 26.3818 24.2499 25.1484C25.2919 23.9149 26.6011 22.935 28.0783 22.2831C29.5555 21.6312 31.1617 21.3243 32.7752 21.3858C34.3887 21.4473 35.9669 21.8755 37.3902 22.638C34.9082 20.286 31.6043 18.9986 28.1853 19.0511C24.7663 19.1036 21.5035 20.4919 19.0949 22.9191C16.6863 25.3463 15.3231 28.6195 15.2968 32.0389C15.2705 35.4582 16.5832 38.7521 18.9542 41.216C21.3872 43.6665 24.69 45.0563 28.1432 45.0828C31.5963 45.1092 34.92 43.77 37.3902 41.357C35.8374 42.1992 34.0986 42.6395 32.3322 42.638Z" fill="#EEEEEE"/>
</g>
</g>
<defs>
<clipPath id="clip0_218_98">
<rect width="64" height="64" fill="white"/>
</clipPath>
</defs>
</svg>
