<svg width="64" height="64" viewBox="0 0 64 64" fill="none" xmlns="http://www.w3.org/2000/svg">
<g clip-path="url(#clip0_240_305)">
<mask id="mask0_240_305" style="mask-type:luminance" maskUnits="userSpaceOnUse" x="0" y="0" width="64" height="64">
<path d="M32 64C49.6731 64 64 49.6731 64 32C64 14.3269 49.6731 0 32 0C14.3269 0 0 14.3269 0 32C0 49.6731 14.3269 64 32 64Z" fill="white"/>
</mask>
<g mask="url(#mask0_240_305)">
<path d="M0 10.625V53.375L32 57.25L64 53.375V10.625L32 6.625L0 10.625Z" fill="#FFDA44"/>
<path d="M0 0H64V10.625H0V0Z" fill="#333333"/>
<path d="M0 21.375H64V32L32 35.875L0 32V21.375Z" fill="#D80027"/>
<path d="M0 32H64V42.625H0V32Z" fill="#333333"/>
<path d="M0 53.375H64V64H0V53.375Z" fill="#D80027"/>
<path d="M31.9984 42.6629C37.8872 42.6629 42.6609 37.8891 42.6609 32.0004C42.6609 26.1117 37.8872 21.3379 31.9984 21.3379C26.1097 21.3379 21.3359 26.1117 21.3359 32.0004C21.3359 37.8891 26.1097 42.6629 31.9984 42.6629Z" fill="#EEEEEE"/>
<path d="M35.875 32.5004L32 30.8754L33 27.6254C33.0775 27.2664 33.0607 26.8935 32.9512 26.543C32.8416 26.1925 32.6431 25.8763 32.375 25.6254L33.375 24.6254C32.7393 24.0021 31.89 23.6445 31 23.6254C30.5379 23.6187 30.0791 23.7037 29.65 23.8753C29.2209 24.047 28.8301 24.3019 28.5 24.6254L29.5 25.6254C29.1012 26.0228 28.8764 26.5623 28.875 27.1254L29 27.7504L27.5 29.2504H30.125C30.125 29.2504 29 30.8754 28.375 32.2504C27.875 33.6254 28.375 35.3754 29.875 36.0004L30.625 36.2504L32 37.5004V39.0004L30.625 40.3754H33.375V37.5004L34.625 36.2504H37.25C37.4164 35.9156 37.5128 35.5505 37.5333 35.1772C37.5539 34.804 37.4981 34.4305 37.3694 34.0795C37.2407 33.7285 37.0418 33.4075 36.7849 33.136C36.5279 32.8645 36.2183 32.6482 35.875 32.5004Z" fill="#333333"/>
</g>
</g>
<defs>
<clipPath id="clip0_240_305">
<rect width="64" height="64" fill="white"/>
</clipPath>
</defs>
</svg>
