<svg width="64" height="64" viewBox="0 0 64 64" fill="none" xmlns="http://www.w3.org/2000/svg">
<g clip-path="url(#clip0_240_155)">
<mask id="mask0_240_155" style="mask-type:luminance" maskUnits="userSpaceOnUse" x="0" y="0" width="64" height="64">
<path d="M32 64C49.6731 64 64 49.6731 64 32C64 14.3269 49.6731 0 32 0C14.3269 0 0 14.3269 0 32C0 49.6731 14.3269 64 32 64Z" fill="white"/>
</mask>
<g mask="url(#mask0_240_155)">
<path d="M0 0H32L38.4625 31.8375L32 64H0V0Z" fill="#FFDA44"/>
<path d="M32 0H64V64H32V0Z" fill="#EEEEEE"/>
<path d="M44.2492 27.8496L50.2617 35.7996C49.7166 36.6192 49.4787 37.6051 49.5899 38.5831C49.7011 39.5612 50.1542 40.4685 50.8694 41.1448C51.5845 41.8212 52.5157 42.2231 53.4984 42.2797C54.4811 42.3362 55.4522 42.0437 56.2402 41.4538C57.0282 40.8639 57.5824 40.0145 57.805 39.0557C58.0276 38.0969 57.9043 37.0902 57.4568 36.2135C57.0093 35.3368 56.2664 34.6464 55.3593 34.2641C54.4522 33.8819 53.4392 33.8325 52.4992 34.1246L43.1242 21.7246L40.9117 23.3996L37.5742 25.9246L40.9367 30.3621L44.2617 27.8496H44.2492ZM52.9117 36.9871C53.0578 36.8771 53.2241 36.797 53.4012 36.7513C53.5783 36.7056 53.7626 36.6952 53.9437 36.7208C54.1247 36.7463 54.299 36.8072 54.4565 36.9001C54.6141 36.993 54.7517 37.116 54.8617 37.2621C54.9717 37.4082 55.0518 37.5745 55.0975 37.7516C55.1432 37.9287 55.1536 38.113 55.1281 38.2941C55.1025 38.4751 55.0416 38.6494 54.9487 38.8069C54.8558 38.9644 54.7328 39.1021 54.5867 39.2121C54.2917 39.4342 53.9205 39.53 53.5548 39.4785C53.1891 39.4269 52.8588 39.2322 52.6367 38.9371C52.4146 38.6421 52.3188 38.2708 52.3704 37.9052C52.4219 37.5395 52.6167 37.2092 52.9117 36.9871Z" fill="#ACABB1"/>
<path d="M54.575 30.3621L57.925 25.9246L54.6 23.3996L52.375 21.7246L43 34.1246C42.0608 33.8287 41.0471 33.8742 40.1382 34.2533C39.2293 34.6324 38.4837 35.3206 38.033 36.1962C37.5824 37.0719 37.4558 38.0786 37.6757 39.0385C37.8955 39.9985 38.4476 40.8498 39.2343 41.4421C40.0211 42.0344 40.9919 42.3295 41.9752 42.2753C42.9585 42.2211 43.891 41.821 44.6078 41.1458C45.3247 40.4706 45.7798 39.5637 45.8928 38.5854C46.0057 37.6071 45.7692 36.6204 45.225 35.7996L51.225 27.8496L54.575 30.3496V30.3621ZM42.85 38.9371C42.74 39.0832 42.6024 39.2062 42.4448 39.2991C42.2873 39.392 42.1131 39.4529 41.932 39.4785C41.7509 39.504 41.5666 39.4936 41.3895 39.4479C41.2124 39.4022 41.0461 39.3221 40.9 39.2121C40.7539 39.1021 40.6309 38.9644 40.538 38.8069C40.4452 38.6494 40.3842 38.4751 40.3587 38.2941C40.3331 38.113 40.3435 37.9287 40.3892 37.7516C40.4349 37.5745 40.515 37.4082 40.625 37.2621C40.8471 36.9671 41.1774 36.7723 41.5431 36.7208C41.9088 36.6692 42.28 36.765 42.575 36.9871C42.8701 37.2092 43.0648 37.5395 43.1164 37.9052C43.168 38.2708 43.0721 38.6421 42.85 38.9371Z" fill="#FFDA44"/>
</g>
</g>
<defs>
<clipPath id="clip0_240_155">
<rect width="64" height="64" fill="white"/>
</clipPath>
</defs>
</svg>
