<svg width="64" height="64" viewBox="0 0 64 64" fill="none" xmlns="http://www.w3.org/2000/svg">
<g clip-path="url(#clip0_240_340)">
<mask id="mask0_240_340" style="mask-type:luminance" maskUnits="userSpaceOnUse" x="0" y="0" width="64" height="64">
<path d="M32 64C49.6731 64 64 49.6731 64 32C64 14.3269 49.6731 0 32 0C14.3269 0 0 14.3269 0 32C0 49.6731 14.3269 64 32 64Z" fill="white"/>
</mask>
<g mask="url(#mask0_240_340)">
<path d="M64 27.825V0H0L26.95 29.925L64 27.825Z" fill="#D80027"/>
<path d="M64 36.175V64H0L27.0625 34L64 36.175Z" fill="#6DA544"/>
<path d="M0 0L27.825 27.825H64V30.6L62.6375 32.075L64 33.375V36.175H27.825L0 64V60.0625L1 57.1875L0 56.1125V7.875L1.1875 6.575L0 3.95V0Z" fill="#333333"/>
<path d="M64 30.6004H26.65L0 3.96289V7.87539L24.1 32.0004L0 56.1254V60.0629L26.65 33.3754H64V30.6004Z" fill="#FFDA44"/>
<path d="M7.77578 38.8258V36.1258C9.06208 36.1258 10.2957 35.6148 11.2052 34.7052C12.1148 33.7957 12.6258 32.5621 12.6258 31.2758C12.6159 30.3706 12.2494 29.5059 11.6058 28.8693C10.9622 28.2327 10.0935 27.8757 9.18828 27.8758C8.56834 27.8758 7.97379 28.1221 7.53542 28.5604C7.09705 28.9988 6.85078 29.5933 6.85078 30.2133C6.85078 30.6111 7.00882 30.9926 7.29012 31.2739C7.57143 31.5552 7.95296 31.7133 8.35078 31.7133C8.81328 31.7133 9.20078 31.3383 9.20078 30.8633H11.8758C11.8725 31.796 11.4996 32.6894 10.8389 33.3478C10.1782 34.0061 9.28351 34.3758 8.35078 34.3758C6.05078 34.3758 4.17578 32.5008 4.17578 30.2008C4.17578 27.4258 6.42578 25.1758 9.17578 25.1758C10.8002 25.1758 12.3581 25.8211 13.5068 26.9698C14.6555 28.1184 15.3008 29.6763 15.3008 31.3008C15.3008 35.4383 11.9258 38.8258 7.77578 38.8258Z" fill="#FFDA44"/>
</g>
</g>
<defs>
<clipPath id="clip0_240_340">
<rect width="64" height="64" fill="white"/>
</clipPath>
</defs>
</svg>
