<svg width="64" height="64" viewBox="0 0 64 64" fill="none" xmlns="http://www.w3.org/2000/svg">
<g clip-path="url(#clip0_40_23436)">
<path d="M32 64C49.6731 64 64 49.6731 64 32C64 14.3269 49.6731 0 32 0C14.3269 0 0 14.3269 0 32C0 49.6731 14.3269 64 32 64Z" fill="#0033AD"/>
<path d="M22.157 31.8539C22.1144 32.6306 22.3818 33.3924 22.9004 33.9721C23.419 34.5518 24.1464 34.902 24.923 34.9459H25.097C25.6704 34.9441 26.2307 34.7744 26.7087 34.4577C27.1868 34.141 27.5616 33.6913 27.7868 33.1639C28.0121 32.6366 28.078 32.0549 27.9763 31.4906C27.8746 30.9262 27.6099 30.4041 27.2148 29.9885C26.8197 29.573 26.3115 29.2823 25.753 29.1523C25.1945 29.0223 24.6102 29.0588 24.0722 29.2572C23.5342 29.4557 23.0661 29.8073 22.7258 30.2688C22.3854 30.7303 22.1877 31.2813 22.157 31.8539Z" fill="white"/>
<path d="M11.208 31.0989C11.0206 31.0885 10.8343 31.1339 10.6727 31.2294C10.5111 31.3249 10.3814 31.4661 10.3001 31.6353C10.2188 31.8044 10.1895 31.9939 10.2158 32.1798C10.2422 32.3656 10.3231 32.5395 10.4483 32.6793C10.5735 32.8192 10.7373 32.9188 10.9191 32.9655C11.1009 33.0123 11.2924 33.004 11.4695 32.9419C11.6467 32.8798 11.8014 32.7665 11.9141 32.6165C12.0269 32.4664 12.0926 32.2863 12.103 32.0989C12.1109 31.9742 12.094 31.8492 12.0532 31.7312C12.0123 31.6131 11.9484 31.5044 11.8651 31.4113C11.7818 31.3182 11.6808 31.2426 11.5679 31.189C11.4551 31.1354 11.3328 31.1047 11.208 31.0989Z" fill="white"/>
<path d="M21.97 14.816C22.0816 14.7595 22.181 14.6816 22.2625 14.5867C22.344 14.4919 22.4061 14.3818 22.4451 14.263C22.4841 14.1441 22.4993 14.0188 22.4898 13.894C22.4804 13.7693 22.4464 13.6476 22.39 13.536C22.3335 13.4244 22.2556 13.325 22.1607 13.2435C22.0658 13.1619 21.9558 13.0999 21.837 13.0609C21.5969 12.9821 21.3354 13.002 21.11 13.116C20.8845 13.23 20.7136 13.429 20.6349 13.669C20.5561 13.9091 20.5759 14.1706 20.69 14.396C20.804 14.6214 21.0029 14.7923 21.243 14.8711C21.483 14.9499 21.7445 14.93 21.97 14.816Z" fill="white"/>
<path d="M24.946 20.0109C25.2045 19.8811 25.4188 19.6774 25.5617 19.4258C25.7045 19.1742 25.7696 18.8859 25.7486 18.5973C25.7276 18.3087 25.6215 18.0328 25.4437 17.8045C25.2659 17.5763 25.0244 17.4058 24.7497 17.3148C24.4751 17.2237 24.1796 17.2162 23.9006 17.2931C23.6217 17.37 23.3718 17.5278 23.1826 17.7468C22.9934 17.9657 22.8733 18.2358 22.8376 18.5229C22.8019 18.81 22.8521 19.1013 22.9819 19.3599C23.1566 19.7061 23.4614 19.969 23.8295 20.091C24.1976 20.213 24.599 20.1842 24.946 20.0109Z" fill="white"/>
<path d="M14.9269 23.5789C15.127 23.7098 15.3613 23.7786 15.6004 23.7763C15.8395 23.7741 16.0726 23.7011 16.2702 23.5664C16.4677 23.4317 16.6209 23.2415 16.7104 23.0197C16.7999 22.798 16.8216 22.5547 16.7728 22.3207C16.724 22.0866 16.6069 21.8722 16.4362 21.7047C16.2656 21.5372 16.0492 21.424 15.8142 21.3795C15.5793 21.335 15.3365 21.3612 15.1164 21.4547C14.8964 21.5482 14.709 21.7049 14.5779 21.9049C14.4897 22.0373 14.4287 22.186 14.3985 22.3422C14.3683 22.4984 14.3695 22.6591 14.402 22.8149C14.4344 22.9707 14.4976 23.1185 14.5877 23.2496C14.6778 23.3808 14.7931 23.4927 14.9269 23.5789Z" fill="white"/>
<path d="M16.706 30.5748C16.4163 30.5586 16.1283 30.6287 15.8784 30.7763C15.6285 30.9238 15.428 31.1421 15.3022 31.4036C15.1764 31.6651 15.131 31.958 15.1717 32.2453C15.2124 32.5326 15.3374 32.8013 15.5309 33.0176C15.7243 33.2339 15.9776 33.3879 16.2586 33.4602C16.5396 33.5325 16.8357 33.5199 17.1096 33.4239C17.3834 33.3279 17.6226 33.1529 17.7969 32.9209C17.9713 32.689 18.0729 32.4105 18.089 32.1208C18.1105 31.7324 17.9769 31.3513 17.7176 31.0614C17.4582 30.7715 17.0944 30.5965 16.706 30.5748Z" fill="white"/>
<path d="M15.091 40.4199C14.8772 40.5279 14.7003 40.6968 14.5825 40.9054C14.4647 41.114 14.4115 41.3527 14.4294 41.5916C14.4474 41.8304 14.5358 42.0586 14.6834 42.2472C14.831 42.4358 15.0312 42.5764 15.2587 42.6512C15.4863 42.726 15.7309 42.7317 15.9616 42.6675C16.1924 42.6033 16.3989 42.4721 16.5551 42.2906C16.7113 42.109 16.8101 41.8852 16.8391 41.6474C16.8681 41.4097 16.826 41.1687 16.718 40.9549C16.5722 40.6691 16.3194 40.4526 16.0147 40.3524C15.7099 40.2521 15.3779 40.2764 15.091 40.4199Z" fill="white"/>
<path d="M20.785 27.5419C21.07 27.7279 21.4038 27.8252 21.7441 27.8215C22.0844 27.8179 22.4159 27.7134 22.6969 27.5213C22.9778 27.3292 23.1955 27.0582 23.3224 26.7424C23.4493 26.4266 23.4797 26.0803 23.4098 25.7472C23.3399 25.4142 23.1729 25.1093 22.9297 24.8712C22.6866 24.633 22.3784 24.4723 22.0439 24.4094C21.7095 24.3464 21.3639 24.384 21.0508 24.5174C20.7377 24.6508 20.4712 24.8741 20.285 25.1589C20.16 25.3478 20.0736 25.5596 20.0311 25.7821C19.9885 26.0045 19.9906 26.2332 20.0371 26.4549C20.0836 26.6766 20.1736 26.8868 20.302 27.0734C20.4304 27.26 20.5946 27.4193 20.785 27.5419Z" fill="white"/>
<path d="M38.858 19.8948C39.1004 20.0545 39.3848 20.1388 39.6751 20.1369C39.9654 20.135 40.2487 20.0471 40.489 19.8842C40.7293 19.7214 40.916 19.491 41.0254 19.222C41.1348 18.9531 41.162 18.6578 41.1035 18.3734C41.0451 18.089 40.9036 17.8284 40.6971 17.6244C40.4905 17.4204 40.2281 17.2822 39.943 17.2274C39.6579 17.1725 39.363 17.2034 39.0954 17.3162C38.8279 17.4289 38.5998 17.6185 38.44 17.8608C38.3317 18.0211 38.2566 18.2015 38.219 18.3912C38.1814 18.581 38.1821 18.7763 38.221 18.9658C38.26 19.1553 38.3364 19.3351 38.4457 19.4946C38.5551 19.6541 38.6953 19.7902 38.858 19.8948Z" fill="white"/>
<path d="M41.8569 14.7209C42.0144 14.8217 42.1982 14.8736 42.3851 14.8703C42.5721 14.8669 42.7539 14.8084 42.9077 14.7021C43.0615 14.5958 43.1805 14.4465 43.2497 14.2728C43.319 14.0991 43.3353 13.9088 43.2968 13.7259C43.2583 13.5429 43.1666 13.3754 43.0332 13.2444C42.8998 13.1134 42.7307 13.0247 42.5471 12.9894C42.3635 12.9542 42.1735 12.974 42.0011 13.0463C41.8287 13.1186 41.6815 13.2402 41.5779 13.3959C41.4448 13.6102 41.3995 13.8676 41.4514 14.1144C41.5034 14.3613 41.6487 14.5786 41.8569 14.7209Z" fill="white"/>
<path d="M39.0789 29.0528C38.3021 29.0098 37.54 29.277 36.9602 29.7958C36.3804 30.3146 36.0305 31.0425 35.9874 31.8193C35.9443 32.5962 36.2116 33.3583 36.7304 33.9381C37.2492 34.5178 37.9771 34.8677 38.7539 34.9108H38.9169C39.6819 34.9135 40.4177 34.617 40.967 34.0846C41.5164 33.5522 41.8358 32.8261 41.8571 32.0614C41.8783 31.2967 41.5998 30.5539 41.0809 29.9918C40.562 29.4297 39.8429 29.0927 39.0789 29.0528Z" fill="white"/>
<path d="M25.9099 27.333C26.1724 27.8507 26.5825 28.2791 27.0882 28.5639C27.594 28.8488 28.1729 28.9774 28.7517 28.9335C29.3305 28.8895 29.8833 28.6751 30.3403 28.3172C30.7973 27.9593 31.138 27.474 31.3194 26.9226C31.5008 26.3712 31.5147 25.7784 31.3594 25.2191C31.2041 24.6598 30.8866 24.159 30.4469 23.7801C30.0071 23.4011 29.465 23.161 28.8889 23.0899C28.3128 23.0189 27.7285 23.1202 27.2099 23.381C26.865 23.555 26.5578 23.7954 26.3057 24.0882C26.0537 24.381 25.8619 24.7206 25.7411 25.0876C25.6204 25.4547 25.5732 25.8418 25.6021 26.2271C25.6311 26.6124 25.7357 26.9882 25.9099 27.333Z" fill="white"/>
<path d="M48.9119 23.579C49.1235 23.4693 49.2979 23.2996 49.4133 23.0911C49.5286 22.8827 49.5798 22.6448 49.5605 22.4073C49.5411 22.1699 49.452 21.9434 49.3044 21.7564C49.1567 21.5694 48.9571 21.4302 48.7306 21.3563C48.5041 21.2824 48.2609 21.277 48.0313 21.3409C47.8018 21.4048 47.5963 21.535 47.4405 21.7153C47.2848 21.8957 47.1858 22.118 47.156 22.3543C47.1262 22.5907 47.1668 22.8306 47.2729 23.044C47.4213 23.3304 47.6763 23.547 47.9829 23.6471C48.2895 23.7472 48.6232 23.7227 48.9119 23.579Z" fill="white"/>
<path d="M41.473 24.509C41.1685 24.6619 40.9161 24.9016 40.7478 25.198C40.5796 25.4943 40.5029 25.8338 40.5276 26.1737C40.5523 26.5136 40.6772 26.8385 40.8866 27.1074C41.0959 27.3762 41.3803 27.577 41.7038 27.6843C42.0272 27.7915 42.3752 27.8005 42.7037 27.7099C43.0322 27.6194 43.3266 27.4335 43.5495 27.1758C43.7723 26.918 43.9138 26.5999 43.9559 26.2618C43.998 25.9236 43.9389 25.5806 43.786 25.276C43.5808 24.8677 43.222 24.5576 42.7883 24.4138C42.3545 24.27 41.8815 24.3042 41.473 24.509Z" fill="white"/>
<path d="M31.884 14.2769C32.2022 14.2905 32.5133 14.1796 32.7511 13.9677C32.9889 13.7558 33.1349 13.4596 33.158 13.1419C33.1729 12.8243 33.0623 12.5136 32.8501 12.2768C32.638 12.04 32.3412 11.8962 32.0238 11.8764C31.7065 11.8566 31.3941 11.9623 31.1541 12.1708C30.9141 12.3794 30.7657 12.6739 30.741 12.9909C30.7239 13.3123 30.8337 13.6275 31.0467 13.8688C31.2597 14.11 31.559 14.258 31.88 14.2809L31.884 14.2769Z" fill="white"/>
<path d="M31.873 21.871C32.2133 21.8894 32.5514 21.8066 32.8446 21.6329C33.1379 21.4592 33.373 21.2024 33.5203 20.8951C33.6676 20.5877 33.7204 20.2436 33.6721 19.9062C33.6237 19.5688 33.4764 19.2534 33.2488 18.9997C33.0212 18.746 32.7234 18.5656 32.3932 18.4812C32.063 18.3968 31.7152 18.4122 31.3938 18.5254C31.0723 18.6387 30.7917 18.8448 30.5874 19.1176C30.3831 19.3904 30.2643 19.7176 30.246 20.058C30.2322 20.2842 30.2635 20.5109 30.3381 20.7249C30.4127 20.9389 30.529 21.136 30.6804 21.3046C30.8317 21.4733 31.0151 21.6102 31.2198 21.7074C31.4246 21.8047 31.6466 21.8602 31.873 21.871Z" fill="white"/>
<path d="M22.529 39.4899C22.8336 39.337 23.0859 39.0973 23.2542 38.8009C23.4225 38.5046 23.4991 38.1651 23.4744 37.8252C23.4497 37.4853 23.3248 37.1604 23.1155 36.8915C22.9061 36.6227 22.6217 36.4219 22.2983 36.3146C21.9748 36.2074 21.6268 36.1984 21.2983 36.2889C20.9698 36.3795 20.6755 36.5653 20.4526 36.8231C20.2297 37.0809 20.0883 37.399 20.0462 37.7371C20.0041 38.0753 20.0632 38.4183 20.216 38.7229C20.4212 39.1312 20.7801 39.4413 21.2138 39.5851C21.6475 39.7289 22.1205 39.6947 22.529 39.4899Z" fill="white"/>
<path d="M32.989 24.3929C32.6308 24.939 32.4651 25.589 32.5181 26.2399C32.5711 26.8908 32.8397 27.5055 33.2815 27.9865C33.7232 28.4675 34.3128 28.7873 34.9569 28.8954C35.601 29.0035 36.2627 28.8936 36.8373 28.5831C37.4118 28.2726 37.8664 27.7793 38.1289 27.1814C38.3914 26.5834 38.447 25.9149 38.2867 25.2818C38.1264 24.6487 37.7595 24.0872 37.244 23.6861C36.7286 23.2851 36.094 23.0675 35.441 23.0679C34.9543 23.0674 34.4752 23.1883 34.0471 23.4197C33.6189 23.651 33.2552 23.9855 32.989 24.3929Z" fill="white"/>
<path d="M38.091 36.6708C37.8299 36.1525 37.421 35.7233 36.916 35.4374C36.411 35.1515 35.8326 35.0218 35.2538 35.0647C34.6751 35.1075 34.1221 35.3211 33.6647 35.6783C33.2074 36.0354 32.8662 36.5202 32.6844 37.0713C32.5025 37.6224 32.4882 38.2151 32.6432 38.7743C32.7982 39.3335 33.1156 39.8342 33.5551 40.2131C33.9947 40.5919 34.5368 40.8319 35.1127 40.9027C35.6887 40.9735 36.2728 40.8719 36.791 40.6108C37.1345 40.4399 37.441 40.203 37.6929 39.9137C37.9448 39.6243 38.1372 39.2881 38.2592 38.9244C38.3811 38.5606 38.4302 38.1764 38.4035 37.7936C38.3769 37.4109 38.2751 37.0371 38.104 36.6938C38.103 36.6778 38.103 36.6778 38.091 36.6708Z" fill="white"/>
<path d="M43.2159 36.457C42.9309 36.271 42.5972 36.1737 42.2569 36.1773C41.9166 36.181 41.585 36.2855 41.3041 36.4776C41.0231 36.6697 40.8055 36.9407 40.6786 37.2565C40.5517 37.5723 40.5212 37.9186 40.5911 38.2517C40.661 38.5847 40.8281 38.8896 41.0712 39.1277C41.3143 39.3659 41.6226 39.5266 41.957 39.5895C42.2915 39.6525 42.6371 39.6149 42.9502 39.4815C43.2632 39.3481 43.5297 39.1248 43.7159 38.84C43.841 38.6511 43.9273 38.4393 43.9698 38.2168C44.0124 37.9944 44.0104 37.7657 43.9639 37.544C43.9173 37.3223 43.8273 37.1121 43.6989 36.9255C43.5705 36.7389 43.4063 36.5796 43.2159 36.457Z" fill="white"/>
<path d="M48.842 32.0519C48.8581 31.7622 48.7881 31.4742 48.6405 31.2243C48.493 30.9745 48.2747 30.774 48.0132 30.6482C47.7517 30.5224 47.4588 30.477 47.1715 30.5177C46.8842 30.5584 46.6155 30.6834 46.3992 30.8768C46.1829 31.0703 46.0289 31.3235 45.9566 31.6045C45.8843 31.8856 45.8969 32.1817 45.9929 32.4555C46.0889 32.7293 46.2639 32.9686 46.4959 33.1429C46.7278 33.3172 47.0063 33.4188 47.296 33.4349C47.6839 33.4543 48.0637 33.32 48.3532 33.0611C48.6426 32.8022 48.8182 32.4396 48.842 32.0519Z" fill="white"/>
<path d="M52.898 31.0059C52.7106 30.9955 52.5243 31.0409 52.3627 31.1363C52.2011 31.2318 52.0715 31.3731 51.9902 31.5423C51.9089 31.7114 51.8795 31.9009 51.9059 32.0867C51.9323 32.2726 52.0132 32.4464 52.1384 32.5863C52.2635 32.7261 52.4274 32.8257 52.6091 32.8725C52.7909 32.9192 52.9825 32.911 53.1596 32.8489C53.3367 32.7868 53.4915 32.6735 53.6042 32.5234C53.7169 32.3734 53.7827 32.1933 53.793 32.0059C53.8051 31.755 53.718 31.5095 53.5505 31.3224C53.383 31.1353 53.1486 31.0216 52.898 31.0059Z" fill="white"/>
<path d="M49.0739 40.42C48.8739 40.289 48.6395 40.2202 48.4004 40.2225C48.1613 40.2247 47.9283 40.2978 47.7307 40.4324C47.5331 40.5671 47.3799 40.7573 47.2905 40.9791C47.201 41.2008 47.1793 41.4441 47.2281 41.6782C47.2769 41.9122 47.394 42.1266 47.5646 42.2941C47.7352 42.4616 47.9517 42.5748 48.1866 42.6193C48.4215 42.6638 48.6644 42.6376 48.8845 42.5441C49.1045 42.4506 49.2919 42.294 49.4229 42.094C49.5111 41.9615 49.5721 41.8128 49.6023 41.6566C49.6326 41.5004 49.6314 41.3397 49.5989 41.1839C49.5664 41.0281 49.5033 40.8803 49.4132 40.7492C49.323 40.618 49.2077 40.5061 49.0739 40.42Z" fill="white"/>
<path d="M22.134 49.276C21.9777 49.1724 21.7942 49.1175 21.6066 49.1182C21.4191 49.1189 21.2359 49.1752 21.0804 49.28C20.9249 49.3848 20.804 49.5334 20.7329 49.707C20.6618 49.8805 20.6439 50.0713 20.6812 50.2551C20.7186 50.4389 20.8097 50.6074 20.9429 50.7394C21.0761 50.8715 21.2454 50.961 21.4295 50.9968C21.6136 51.0325 21.8042 51.0129 21.9771 50.9403C22.1501 50.8677 22.2976 50.7454 22.401 50.589C22.4716 50.4859 22.5208 50.3696 22.5456 50.2471C22.5704 50.1247 22.5704 49.9984 22.5455 49.876C22.5206 49.7535 22.4713 49.6373 22.4006 49.5342C22.33 49.4312 22.2393 49.3434 22.134 49.276Z" fill="white"/>
<path d="M42.031 49.1809C41.8056 49.295 41.6347 49.4939 41.5559 49.734C41.4771 49.974 41.497 50.2355 41.611 50.4609C41.7251 50.6864 41.924 50.8573 42.164 50.936C42.4041 51.0148 42.6656 50.995 42.891 50.8809C43.1164 50.7669 43.2873 50.568 43.3661 50.3279C43.4449 50.0879 43.425 49.8264 43.311 49.601C43.1969 49.3755 42.998 49.2046 42.758 49.1259C42.5179 49.0471 42.2564 49.0669 42.031 49.1809Z" fill="white"/>
<path d="M31.013 39.6059C31.3313 39.1198 31.4983 38.5502 31.4929 37.9692C31.4876 37.3881 31.31 36.8218 30.9828 36.3416C30.6555 35.8615 30.1932 35.4892 29.6544 35.2718C29.1155 35.0544 28.5243 35.0016 27.9555 35.1202C27.3867 35.2388 26.8658 35.5233 26.4587 35.9379C26.0516 36.3525 25.7766 36.8785 25.6684 37.4494C25.5603 38.0203 25.6238 38.6105 25.851 39.1453C26.0782 39.6801 26.4589 40.1355 26.945 40.4539C27.5976 40.8783 28.3916 41.0274 29.1538 40.8685C29.9159 40.7096 30.5843 40.2557 31.013 39.6059Z" fill="white"/>
<path d="M25.143 44.1039C24.9006 43.9442 24.6162 43.86 24.3259 43.8618C24.0356 43.8637 23.7524 43.9517 23.512 44.1145C23.2717 44.2773 23.085 44.5078 22.9756 44.7767C22.8662 45.0456 22.839 45.341 22.8975 45.6253C22.9559 45.9097 23.0974 46.1704 23.3039 46.3744C23.5105 46.5784 23.7729 46.7165 24.058 46.7714C24.3431 46.8262 24.6381 46.7953 24.9056 46.6826C25.1731 46.5698 25.4012 46.3803 25.561 46.1379C25.669 45.9775 25.7439 45.7972 25.7814 45.6075C25.8188 45.4178 25.8181 45.2225 25.7792 45.0331C25.7402 44.8437 25.6639 44.664 25.5547 44.5044C25.4455 44.3449 25.3055 44.2087 25.143 44.1039Z" fill="white"/>
<path d="M31.99 49.7178C31.7514 49.7041 31.5141 49.7614 31.3079 49.8823C31.1018 50.0033 30.936 50.1825 30.8315 50.3975C30.7271 50.6125 30.6885 50.8535 30.7208 51.0904C30.7531 51.3272 30.8547 51.5492 31.0129 51.7283C31.1711 51.9075 31.3788 52.0359 31.6098 52.0972C31.8408 52.1586 32.0848 52.1502 32.3111 52.0732C32.5373 51.9961 32.7357 51.8539 32.8813 51.6643C33.0268 51.4747 33.113 51.2463 33.129 51.0078C33.1469 50.6862 33.0373 50.3706 32.8242 50.1291C32.611 49.8877 32.3113 49.7399 31.99 49.7178Z" fill="white"/>
<path d="M32 42.1278C31.6597 42.1093 31.3215 42.1921 31.0283 42.3659C30.7351 42.5396 30.4999 42.7963 30.3527 43.1037C30.2054 43.411 30.1526 43.7552 30.2009 44.0925C30.2492 44.4299 30.3965 44.7454 30.6241 44.999C30.8518 45.2527 31.1495 45.4331 31.4797 45.5176C31.8099 45.602 32.1577 45.5866 32.4792 45.4733C32.8006 45.36 33.0812 45.1539 33.2855 44.8811C33.4899 44.6084 33.6087 44.2811 33.627 43.9408C33.6408 43.7146 33.6094 43.4879 33.5349 43.2738C33.4603 43.0598 33.3439 42.8628 33.1926 42.6941C33.0412 42.5254 32.8578 42.3885 32.6531 42.2913C32.4484 42.1941 32.2264 42.1385 32 42.1278Z" fill="white"/>
<path d="M39.056 43.9879C38.7987 44.1205 38.5864 44.3262 38.4457 44.5792C38.305 44.8321 38.2422 45.121 38.2653 45.4096C38.2883 45.6981 38.3961 45.9734 38.5752 46.2008C38.7542 46.4282 38.9965 46.5976 39.2716 46.6877C39.5466 46.7779 39.8422 46.7846 40.1211 46.7073C40.4 46.6299 40.6498 46.4718 40.8391 46.2528C41.0284 46.0339 41.1488 45.7638 41.185 45.4767C41.2213 45.1895 41.1719 44.898 41.043 44.6389C40.9563 44.4647 40.8359 44.3095 40.6887 44.1822C40.5416 44.055 40.3706 43.9582 40.1857 43.8977C40.0008 43.8371 39.8057 43.8139 39.6118 43.8294C39.4178 43.8449 39.2289 43.8987 39.056 43.9879Z" fill="white"/>
</g>
<defs>
<clipPath id="clip0_40_23436">
<rect width="64" height="64" fill="white"/>
</clipPath>
</defs>
</svg>
