<svg width="64" height="64" viewBox="0 0 64 64" fill="none" xmlns="http://www.w3.org/2000/svg">
<g clip-path="url(#clip0_40_26529)">
<path d="M32 64C49.6731 64 64 49.6731 64 32C64 14.3269 49.6731 0 32 0C14.3269 0 0 14.3269 0 32C0 49.6731 14.3269 64 32 64Z" fill="#F6C923"/>
<mask id="mask0_40_26529" style="mask-type:luminance" maskUnits="userSpaceOnUse" x="13" y="11" width="38" height="42">
<path d="M50.041 11.1431H13.958V52.8571H50.041V11.1431Z" fill="white"/>
</mask>
<g mask="url(#mask0_40_26529)">
<path d="M25.012 19.9031L21.049 17.6091L32.103 11.1431L43.157 17.6091L39.194 19.9031L32.103 15.9401L25.012 19.9031ZM46.078 23.8661V28.6661L50.041 26.3721V21.5721L46.078 19.2781L42.115 21.5721L46.078 23.8661ZM28.141 21.5721L32.104 23.8661L36.067 21.5721L32.104 19.2781L28.141 21.5721ZM43.158 25.5351L39.195 23.2411L32.104 27.2041L25.013 23.2411L21.05 25.5351V30.3351L28.141 34.2981V42.4321L32.104 44.7261L36.067 42.4321V34.2981L43.158 30.3351V25.5351ZM46.078 40.1351L39.195 44.0981V48.8981L50.249 42.4321V29.7091L46.078 32.0031V40.1351ZM39.195 40.7611L43.158 38.4671V33.6671L39.195 35.9611V40.7611ZM28.141 45.7671V50.5671L32.104 52.8611L36.067 50.5671V45.7671L32.104 48.0611L28.141 45.7671ZM13.958 26.3671L17.921 28.6611V23.8611L22.092 21.5671L18.129 19.2731L13.958 21.5671V26.3671ZM18.129 31.9981L14.166 29.7041V42.4271L25.22 48.8931V44.0931L18.129 40.1301V31.9981ZM25.012 35.9611L21.049 33.6671V38.4671L25.012 40.7611V35.9611Z" fill="url(#paint0_linear_40_26529)"/>
</g>
</g>
<defs>
<linearGradient id="paint0_linear_40_26529" x1="32.1035" y1="11.1431" x2="34.8342" y2="52.8177" gradientUnits="userSpaceOnUse">
<stop stop-color="white"/>
<stop offset="1" stop-color="white"/>
</linearGradient>
<clipPath id="clip0_40_26529">
<rect width="64" height="64" fill="white"/>
</clipPath>
</defs>
</svg>
