<svg width="64" height="64" viewBox="0 0 64 64" fill="none" xmlns="http://www.w3.org/2000/svg">
<g clip-path="url(#clip0_40_32689)">
<path d="M32 64C49.6731 64 64 49.6731 64 32C64 14.3269 49.6731 0 32 0C14.3269 0 0 14.3269 0 32C0 49.6731 14.3269 64 32 64Z" fill="#FF090F"/>
<path d="M51.141 25.7709C49.2 23.9789 46.515 21.2419 44.328 19.2979L44.199 19.2069C43.9837 19.0344 43.741 18.8992 43.481 18.8069C38.208 17.8259 13.673 13.2389 13.19 13.2979C13.056 13.3167 12.9278 13.3652 12.815 13.4399L12.692 13.5399C12.5409 13.6936 12.426 13.8791 12.356 14.0829L12.323 14.1649V14.6979C15.086 22.3879 25.993 47.5869 28.141 53.4979C28.27 53.8979 28.516 54.6629 28.976 54.6979H29.076C29.322 54.6979 30.37 53.3129 30.37 53.3129C30.37 53.3129 49.109 30.5979 51.005 28.1779C51.2504 27.8797 51.467 27.559 51.652 27.2199C51.6992 26.9548 51.6769 26.682 51.5874 26.4281C51.4978 26.1742 51.3441 25.9478 51.141 25.7709ZM35.18 28.4169L43.18 21.7859L47.87 26.1079L35.18 28.4169ZM32.073 27.9839L18.307 16.6979L40.582 20.8089L32.073 27.9839ZM33.315 30.9409L47.406 28.6699L31.298 48.0779L33.315 30.9409ZM16.438 17.8259L30.923 30.1189L28.823 48.0919L16.438 17.8259Z" fill="white"/>
</g>
<defs>
<clipPath id="clip0_40_32689">
<rect width="64" height="64" fill="white"/>
</clipPath>
</defs>
</svg>
