<svg width="64" height="64" viewBox="0 0 64 64" fill="none" xmlns="http://www.w3.org/2000/svg">
<g clip-path="url(#clip0_40_32723)">
<path d="M32 64C49.6731 64 64 49.6731 64 32C64 14.3269 49.6731 0 32 0C14.3269 0 0 14.3269 0 32C0 49.6731 14.3269 64 32 64Z" fill="#F5F5F5"/>
<path d="M27.725 19.5681C27.231 19.4971 27.207 19.4741 27.443 19.4501C28.1852 19.4065 28.9298 19.4698 29.654 19.6381C31.5695 20.1856 33.2647 21.3211 34.5 22.8841L34.923 23.3781L35.535 23.2841C38.0822 22.8494 40.7011 23.1768 43.063 24.2251C43.6594 24.4967 44.227 24.8277 44.757 25.2131C44.8447 25.4233 44.9003 25.6454 44.922 25.8721C45.1217 26.7319 45.0306 27.6336 44.663 28.4361C44.5789 28.541 44.5274 28.6682 44.5147 28.802C44.5021 28.9358 44.529 29.0704 44.592 29.1891C44.6497 29.3086 44.7399 29.4094 44.8521 29.4802C44.9644 29.5509 45.0943 29.5886 45.227 29.5891C45.792 29.5891 46.38 28.6951 46.662 27.4481L46.78 26.9541L46.992 27.1891C48.1571 28.4538 48.9473 30.0178 49.274 31.7061L49.321 32.0591L49.113 31.7531C48.8247 31.2786 48.4401 30.8698 47.984 30.5531C47.184 30.0121 46.337 29.8471 44.103 29.7301C42.6462 29.7085 41.1994 29.4867 39.803 29.0711C37.874 28.4361 36.886 27.6131 34.603 24.5781C33.914 23.6232 33.1481 22.7263 32.313 21.8961C31.0826 20.6349 29.4694 19.8163 27.725 19.5681Z" fill="#FF007A"/>
<path d="M45.251 22.5551C45.2521 21.8589 45.396 21.1704 45.674 20.5321C45.7256 20.3895 45.7969 20.2548 45.886 20.1321C45.91 20.1321 45.862 20.2971 45.792 20.4851C45.5998 21.1583 45.5676 21.8672 45.698 22.5551C45.863 23.6141 45.933 23.7551 47.062 24.9071C47.58 25.4481 48.191 26.1301 48.426 26.4131L48.826 26.9311L48.426 26.5551C47.8411 26.0094 47.2116 25.5137 46.544 25.0731C46.379 24.9791 46.356 24.9791 46.238 25.0971C46.144 25.1911 46.12 25.3321 46.12 26.0141C46.1478 26.8445 45.9698 27.669 45.602 28.4141C45.414 28.7671 45.39 28.6961 45.555 28.2961C45.7065 27.8259 45.7546 27.3286 45.696 26.8381C45.696 24.7911 45.461 24.2971 44.026 23.4741C43.673 23.2621 43.062 22.9561 42.709 22.7921C42.4906 22.7045 42.2785 22.6023 42.074 22.4861C42.7503 22.6169 43.4122 22.8138 44.05 23.0741C44.873 23.4031 45.014 23.4271 45.109 23.4031C45.18 23.3321 45.228 23.1431 45.251 22.5551Z" fill="#FF007A"/>
<path d="M28.69 26.0601C27.6604 24.5795 27.1402 22.8042 27.208 21.0021L27.255 20.5081L27.49 20.5551C28.0169 20.6688 28.5243 20.8592 28.996 21.1201C29.937 21.6851 30.36 22.4611 30.76 24.3901C30.878 24.9551 31.042 25.6131 31.113 25.8251C31.361 26.4238 31.6767 26.9921 32.054 27.5191C32.313 27.8951 32.148 28.0841 31.56 28.0371C30.3903 27.7591 29.3666 27.0539 28.69 26.0601Z" fill="#FF007A"/>
<path d="M44.0471 36.2931C39.3891 34.4111 37.7471 32.7881 37.7471 30.0361C37.7471 29.6361 37.7711 29.3071 37.7711 29.3071C37.9101 29.4014 38.0437 29.5036 38.1711 29.6131C39.1121 30.3661 40.1711 30.6951 43.1111 31.1191C44.3312 31.2617 45.5361 31.5137 46.7111 31.8721C47.9879 32.2059 49.1415 32.9003 50.0342 33.8722C50.9269 34.8442 51.5209 36.0526 51.7451 37.3531C51.851 38.3348 51.8034 39.327 51.6041 40.2941C51.4439 40.8949 51.1898 41.4667 50.8511 41.9881C50.8271 41.9881 50.7801 41.8701 50.7801 41.6821C50.7425 41.1703 50.6024 40.6712 50.3681 40.2146C50.1338 39.7579 49.81 39.3531 49.4161 39.0241C48.4271 38.1751 47.1571 37.5391 44.0471 36.2931Z" fill="#FF007A"/>
<path d="M40.758 37.0691C40.7099 36.7333 40.6313 36.4026 40.523 36.0811L40.405 35.7281L40.617 35.9871C40.9521 36.3901 41.2076 36.8529 41.37 37.3511C41.5248 37.7718 41.5813 38.2223 41.535 38.6681C41.5721 39.0984 41.5158 39.5316 41.37 39.9381C41.1609 40.5299 40.8235 41.0681 40.382 41.5141C39.4236 42.4287 38.1748 42.9783 36.853 43.0671C36.571 43.0911 35.771 43.1611 35.065 43.2081C33.7065 43.2297 32.3587 43.4518 31.065 43.8671C30.924 43.9141 30.783 43.9611 30.759 43.9381C31.1454 43.6294 31.5728 43.376 32.029 43.1852C33.1543 42.7044 34.3428 42.3875 35.558 42.2441C36.2646 42.1496 36.9642 42.0083 37.652 41.8211C38.6871 41.5904 39.5911 40.9644 40.1713 40.0767C40.7515 39.189 40.9621 38.1098 40.758 37.0691Z" fill="#FF007A"/>
<path d="M42.898 40.8561C42.3035 39.6779 42.1534 38.3249 42.475 37.0451C42.522 36.9271 42.569 36.8101 42.616 36.8101C42.7348 36.8445 42.8463 36.9004 42.945 36.9751C43.227 37.1631 43.815 37.4931 45.321 38.3161C46.7347 38.9815 48.0051 39.9163 49.061 41.0681C49.727 41.8861 50.158 42.8699 50.308 43.9141C50.4098 44.848 50.3701 45.792 50.19 46.7141C49.9711 47.6645 49.5541 48.5581 48.9664 49.3364C48.3786 50.1148 47.6333 50.7604 46.779 51.2311C46.6212 51.323 46.4559 51.4017 46.285 51.4661C46.3293 51.2837 46.4008 51.1091 46.497 50.9481C46.7755 50.3858 46.9379 49.7731 46.9743 49.1466C47.0107 48.5202 46.9205 47.8928 46.709 47.3021C46.2309 46.0963 45.5983 44.9578 44.827 43.9151C44.1024 42.9492 43.4573 41.9262 42.898 40.8561Z" fill="#FF007A"/>
<path d="M25.373 48.0552C27.0498 46.6251 29.0677 45.6527 31.231 45.2322C32.2418 45.0936 33.269 45.1335 34.266 45.3502C35.4443 45.6239 36.4915 46.297 37.23 47.2552C37.8455 48.218 38.217 49.3164 38.312 50.4552C38.406 51.0902 38.524 51.7492 38.547 51.8902C38.6667 52.6106 39.0325 53.2672 39.582 53.7482C40.0773 54.0186 40.6296 54.168 41.1937 54.1844C41.7578 54.2007 42.3178 54.0835 42.828 53.8422C42.9555 53.7853 43.09 53.7456 43.228 53.7242C42.9319 54.0074 42.5896 54.238 42.216 54.4062C41.6967 54.6873 41.1121 54.8253 40.522 54.8062C39.9316 54.7868 39.3564 54.6139 38.8531 54.3046C38.3499 53.9953 37.9359 53.5602 37.652 53.0422C37.3608 52.5436 37.1026 52.0265 36.879 51.4942C36.056 49.5892 35.632 49.0242 34.668 48.3892C34.2671 48.1204 33.8054 47.9559 33.3248 47.9107C32.8443 47.8655 32.36 47.9409 31.916 48.1302C31.6681 48.2443 31.4499 48.4142 31.2785 48.6265C31.107 48.8389 30.987 49.088 30.9278 49.3545C30.8685 49.6209 30.8716 49.8974 30.9369 50.1624C31.0022 50.4274 31.1278 50.6737 31.304 50.8822C31.663 51.2562 32.1335 51.5039 32.645 51.5882C32.8486 51.6151 33.0556 51.598 33.252 51.538C33.4484 51.4781 33.6297 51.3766 33.7836 51.2406C33.9374 51.1046 34.0603 50.9371 34.1439 50.7495C34.2274 50.5619 34.2698 50.3585 34.268 50.1532C34.2863 49.9019 34.2198 49.6517 34.0791 49.4427C33.9384 49.2336 33.7317 49.0778 33.492 49.0002C32.739 48.6712 31.916 49.0472 31.939 49.7762C31.9347 49.9161 31.976 50.0537 32.0566 50.1682C32.1372 50.2827 32.2528 50.368 32.386 50.4112C32.574 50.5052 32.574 50.5052 32.433 50.4822C32.2769 50.4395 32.1357 50.3542 32.0253 50.2359C31.9149 50.1176 31.8396 49.9708 31.8079 49.8122C31.7761 49.6535 31.7891 49.4891 31.8455 49.3374C31.9019 49.1857 31.9993 49.0526 32.127 48.9532C32.3215 48.8047 32.5458 48.7001 32.7846 48.6467C33.0234 48.5932 33.2709 48.5922 33.5102 48.6436C33.7494 48.695 33.9746 48.7977 34.1704 48.9445C34.3661 49.0914 34.5277 49.2789 34.644 49.4942C34.8372 50.0074 34.8537 50.5705 34.691 51.0942C34.4831 51.6024 34.0926 52.0144 33.5963 52.2494C33.1001 52.4844 32.5339 52.5254 32.009 52.3642C31.1922 52.1401 30.4724 51.6521 29.962 50.9762C29.4058 50.2703 28.7039 49.6927 27.9042 49.2826C27.1045 48.8726 26.2258 48.6398 25.328 48.6002L24.881 48.5292L25.373 48.0552Z" fill="#FF007A"/>
<path fill-rule="evenodd" clip-rule="evenodd" d="M13.003 10.2051C18.484 16.8621 26.929 27.2131 27.353 27.7781C27.706 28.2481 27.565 28.6951 26.977 29.0251C26.5588 29.2365 26.1032 29.3643 25.636 29.4011C25.2112 29.3834 24.8083 29.2072 24.507 28.9071C24.295 28.6951 23.378 27.3541 21.307 24.1321C19.731 21.6621 18.39 19.6151 18.366 19.5921C18.272 19.5451 18.272 19.5451 21.142 24.6731C22.0336 26.1287 22.8338 27.6382 23.538 29.1931C23.538 29.4991 23.444 29.6631 23.068 30.0871C22.3518 30.9924 21.9549 32.1089 21.939 33.2631C21.704 35.1211 21.069 36.4391 19.257 38.6741C18.6723 39.3033 18.174 40.0075 17.775 40.7681C17.4655 41.3471 17.304 41.9936 17.305 42.6501C17.2527 43.4312 17.3568 44.2148 17.611 44.9551C17.8678 45.7473 18.2489 46.4936 18.74 47.1661C19.1292 47.6826 19.4237 48.2639 19.61 48.8831C19.61 49.0711 19.657 49.0711 20.504 48.8831C22.2224 48.5778 23.8202 47.7953 25.115 46.6251C25.3648 46.4034 25.5588 46.126 25.6814 45.8154C25.8041 45.5048 25.8519 45.1696 25.821 44.8371C25.8545 44.499 25.7976 44.158 25.656 43.8491C25.2654 43.1739 24.6953 42.62 24.009 42.2491C23.5173 42.0005 23.087 41.6457 22.7493 41.2104C22.4115 40.7751 22.1747 40.2702 22.056 39.7321C21.938 38.9321 22.08 38.3911 22.785 36.9091C23.4125 35.7667 23.7667 34.4944 23.82 33.1921C23.891 32.2041 24.008 31.8041 24.29 31.4981C24.4569 31.3238 24.6579 31.1857 24.8806 31.0926C25.1033 30.9996 25.3427 30.9534 25.584 30.9571C26.541 30.9 27.4516 30.5256 28.172 29.8931C28.4242 29.6841 28.6269 29.4216 28.7652 29.1246C28.9036 28.8277 28.9742 28.5037 28.972 28.1761L28.996 27.6351L28.69 27.3061C27.584 26.0361 12.27 9.19312 12.203 9.19312C12.176 9.19312 12.552 9.64012 13.003 10.2051ZM20.221 43.6561C20.3442 43.442 20.3811 43.1889 20.3243 42.9485C20.2674 42.7081 20.1211 42.4984 19.915 42.3621C19.515 42.1031 18.903 42.2211 18.903 42.5741C18.9029 42.6289 18.9214 42.682 18.9556 42.7247C18.9898 42.7675 19.0376 42.7973 19.091 42.8091C19.303 42.9271 19.326 43.0441 19.162 43.3031C18.998 43.5621 18.997 43.7971 19.209 43.9621C19.2925 44.0204 19.388 44.059 19.4885 44.075C19.589 44.0911 19.6918 44.0841 19.7893 44.0546C19.8867 44.0252 19.9761 43.974 20.0509 43.905C20.1257 43.836 20.1839 43.7509 20.221 43.6561Z" fill="#FF007A"/>
<path fill-rule="evenodd" clip-rule="evenodd" d="M29.7481 31.2821C29.4426 31.3979 29.1685 31.5838 28.9479 31.8249C28.7273 32.066 28.5664 32.3555 28.4781 32.6701C28.3797 33.0951 28.4211 33.5404 28.5961 33.9401C28.8551 34.2691 29.0901 34.3631 29.7491 34.3631C31.0431 34.3631 32.1491 33.798 32.2661 33.116C32.2741 32.7612 32.1781 32.4117 31.99 32.1107C31.8018 31.8096 31.5297 31.5703 31.2071 31.422C30.7474 31.2238 30.2371 31.1748 29.7481 31.2821ZM31.2541 32.4581C31.3009 32.3927 31.3323 32.3176 31.3457 32.2384C31.3592 32.1591 31.3544 32.0778 31.3317 32.0007C31.3091 31.9236 31.2691 31.8527 31.215 31.7933C31.1608 31.7339 31.0938 31.6877 31.0191 31.658C30.3841 31.258 29.4191 31.5871 29.4191 32.1991C29.4191 32.5051 29.9131 32.8341 30.3831 32.8341C30.7104 32.8229 31.0215 32.6886 31.2541 32.4581Z" fill="#FF007A"/>
</g>
<defs>
<clipPath id="clip0_40_32723">
<rect width="64" height="64" fill="white"/>
</clipPath>
</defs>
</svg>
