<svg width="48" height="48" viewBox="0 0 48 48" fill="none" xmlns="http://www.w3.org/2000/svg">
<path opacity="0.2" d="M47.8698 24.0004C47.8698 37.1855 37.1814 47.8741 23.9965 47.8741C10.8115 47.8741 0.122986 37.1855 0.122986 24.0004C0.122986 10.8155 10.8115 0.127014 23.9965 0.127014C37.1813 0.127014 47.8698 10.8155 47.8698 24.0004Z" fill="#3CC8C8"/>
<path fill-rule="evenodd" clip-rule="evenodd" d="M25.603 12.1821C25.9237 11.573 25.1869 10.8355 24.5833 11.1534C24.0924 11.351 23.9677 12.0689 24.3499 12.4321C24.7106 12.8106 25.4167 12.6786 25.603 12.1821ZM18.8849 12.4507C18.9223 12.0471 18.4582 11.7078 18.0916 11.8602C17.5812 11.9976 17.5246 12.8095 18.0197 13.0032C18.3934 13.2114 18.9238 12.8889 18.8849 12.4507ZM31.3875 13.0155C30.8145 12.9456 30.7239 12.0356 31.2755 11.8524C31.7033 11.6416 32.0959 12.0369 32.1585 12.4465C32.0687 12.7963 31.7788 13.1166 31.3875 13.0155ZM20.962 15.5619C21.0563 14.8428 20.1816 14.2595 19.5687 14.6512C18.9946 14.9477 18.9157 15.8323 19.4366 16.2179C19.9753 16.7088 20.9302 16.2881 20.962 15.5619ZM28.9261 15.0667C29.1995 14.3548 30.3076 14.3332 30.6189 15.0263C30.9266 15.5656 30.5481 16.2334 30 16.4167C29.2739 16.5537 28.5842 15.7608 28.9261 15.0667ZM24.9231 15.2668C24.3474 15.3085 23.7956 15.7644 23.8016 16.3763C23.7688 16.8763 24.1224 17.2847 24.5424 17.493C24.5846 17.4955 24.6274 17.499 24.6705 17.5024L24.6705 17.5024L24.6705 17.5024L24.6706 17.5024L24.6706 17.5024L24.6706 17.5024C24.9078 17.5215 25.1541 17.5412 25.3676 17.4204C25.9192 17.174 26.1903 16.4347 25.885 15.8977C25.7212 15.5085 25.305 15.3442 24.9231 15.2668ZM14.1473 17.2679C14.7073 16.9202 15.4627 17.5548 15.2507 18.1692C15.134 18.7007 14.4267 18.9169 14.0224 18.5776C13.5908 18.2597 13.6592 17.4954 14.1473 17.2679ZM36.0809 17.9275C36.1376 17.3216 35.3536 16.8942 34.8785 17.2668C34.391 17.5692 34.4441 18.3763 34.9634 18.6121C35.435 18.8966 36.1128 18.48 36.0809 17.9275ZM26.5165 18.3668C27.3005 18.0823 28.2317 18.4228 28.6785 19.1288C29.2679 19.9919 28.9543 21.3063 28.0396 21.8015C27.0919 22.3872 25.7079 21.8907 25.3579 20.8216C24.9605 19.8646 25.5394 18.6668 26.5165 18.3668ZM24.3747 19.292C23.955 18.3942 22.7857 18.0467 21.9168 18.4609C20.9908 18.8787 20.5648 20.111 21.0445 21.0183C21.4724 21.9565 22.7196 22.3409 23.6037 21.8338C24.4867 21.3826 24.8686 20.1658 24.3747 19.292ZM17.3112 20.0514C17.3772 19.486 17.9053 19.118 18.4381 19.08C19.0122 19.1499 19.4708 19.6002 19.5332 20.1871C19.4956 20.7681 19.0511 21.3359 18.4416 21.3324C17.771 21.3907 17.1831 20.7169 17.3112 20.0514ZM32.5286 20.1863C32.5592 19.3874 31.6032 18.7981 30.9148 19.2029C30.1757 19.5549 30.1202 20.7193 30.8323 21.1327C31.5178 21.6292 32.5758 21.0327 32.5286 20.1863ZM20.045 22.1861C20.8501 21.9623 21.7708 22.3457 22.1657 23.0933C22.5982 23.8457 22.4214 24.891 21.7496 25.4429C20.8879 26.2524 19.2988 25.9274 18.8402 24.8226C18.3132 23.8099 18.9533 22.4527 20.045 22.1861ZM30.8924 22.9808C30.4716 22.2605 29.552 21.9558 28.7693 22.1819C27.6695 22.4861 27.0872 23.8956 27.6659 24.893C28.1433 25.8572 29.4872 26.181 30.3549 25.5643C31.1831 25.0333 31.4487 23.8046 30.8924 22.9808ZM14.8664 23.1218C15.5619 22.8561 16.3328 23.6313 16.051 24.3278C15.8789 24.9623 14.9936 25.1969 14.5363 24.7291C14.0011 24.2898 14.1992 23.3123 14.8664 23.1218ZM34.7105 23.0028C34.1195 23.0349 33.6979 23.5505 33.718 24.1326C33.8334 24.404 33.9737 24.6874 34.2472 24.8278C34.8306 25.1528 35.6559 24.6826 35.6123 23.9909C35.6499 23.4671 35.1868 23.079 34.7105 23.0028ZM11.4466 23.4635C11.8651 23.279 12.3826 23.6453 12.2871 24.1147C12.2647 24.6461 11.4879 24.8505 11.2025 24.4064C10.9504 24.098 11.1013 23.6225 11.4466 23.4635ZM38.7137 23.741C38.5969 23.3933 38.1242 23.2409 37.8296 23.4528C37.3393 23.717 37.5315 24.6314 38.1255 24.5768C38.5486 24.641 38.9117 24.1207 38.7137 23.741ZM22.3177 26.004C23.4187 25.7148 24.6023 26.6422 24.6092 27.7874C24.6811 28.9446 23.5154 29.9707 22.3883 29.7035C21.5171 29.5618 20.8335 28.7141 20.8618 27.8249C20.8594 26.9744 21.4948 26.1839 22.3177 26.004ZM28.9968 27.8018C29.0145 26.6302 27.7957 25.6861 26.6781 26.0017C26.0156 26.1679 25.4545 26.7196 25.3082 27.3979C25.0183 28.4158 25.7845 29.5682 26.823 29.7039C27.9265 29.9292 29.0558 28.9376 28.9968 27.8018ZM18.2709 26.7065C19.0442 26.5733 19.7692 27.4447 19.4555 28.1864C19.2268 28.9768 18.0881 29.1912 17.5846 28.5456C16.9941 27.9256 17.435 26.7921 18.2709 26.7065ZM32.5414 27.8081C32.5945 27.0521 31.7481 26.4496 31.0585 26.7414C30.2251 27.0089 30.0861 28.2923 30.8499 28.7284C31.5242 29.2141 32.5691 28.6403 32.5414 27.8081ZM34.6328 30.3626C34.3628 29.8542 34.8532 29.1804 35.412 29.2745C35.6748 29.27 35.863 29.4674 36.0331 29.6458L36.0628 29.6769L36.0692 29.7284C36.1053 30.0183 36.1467 30.3507 35.9131 30.5698C35.5769 30.9996 34.8154 30.8769 34.6328 30.3626ZM15.3014 30.2054C15.4188 29.5886 14.6672 29.0649 14.145 29.4161C13.6475 29.6721 13.6298 30.4721 14.1106 30.7531C14.5587 31.0626 15.239 30.7509 15.3014 30.2054ZM24.4632 30.5579C25.1469 30.2531 26.0179 30.8544 25.9531 31.6151C26.0038 32.4556 24.9265 33.0377 24.258 32.533C23.5154 32.0996 23.6392 30.8245 24.4632 30.5579ZM20.995 32.5674C21.048 31.9091 20.2665 31.3745 19.6841 31.684C19.2739 31.8389 19.1066 32.2961 19.0994 32.7066C19.2397 33.0832 19.5249 33.4793 19.9623 33.4888C20.4904 33.5686 21.0127 33.108 20.995 32.5674ZM29.3646 31.6935C29.9634 31.3197 30.8145 31.8566 30.7579 32.5607C30.7733 33.2965 29.8114 33.7678 29.2538 33.2845C28.7139 32.9056 28.7798 31.9948 29.3646 31.6935ZM31.5278 34.9068C31.0952 34.9997 30.7816 35.4902 31.048 35.8973C31.3215 36.37 32.1196 36.201 32.1702 35.6498C32.2433 35.2425 31.8756 34.9783 31.5278 34.9068ZM17.6849 35.5438C17.791 35.2211 18.0479 34.9004 18.424 34.9843C18.9722 35.0236 19.1349 35.8582 18.6551 36.1154C18.2236 36.4092 17.7231 36.0068 17.6849 35.5438ZM25.2517 35.458C24.8485 35.2045 24.2368 35.4366 24.1318 35.914C23.94 36.3962 24.4006 36.9791 24.9111 36.9187C25.1858 36.9259 25.3979 36.7282 25.563 36.5306C25.5951 36.3973 25.6278 36.2639 25.6643 36.1306L25.6621 36.1221C25.5942 35.8681 25.5152 35.5723 25.2517 35.458Z" fill="#3CC8C8"/>
</svg>
