<svg width="48" height="48" viewBox="0 0 48 48" fill="none" xmlns="http://www.w3.org/2000/svg">
<path opacity="0.2" d="M24 48C37.2548 48 48 37.2548 48 24C48 10.7452 37.2548 0 24 0C10.7452 0 0 10.7452 0 24C0 37.2548 10.7452 48 24 48Z" fill="#008ECC"/>
<path fill-rule="evenodd" clip-rule="evenodd" d="M19.0331 9.37038C19.5188 9.30124 19.9931 9.31468 20.4559 9.41071C20.8531 9.6844 21.2702 10.0128 21.3454 10.5227C21.4273 12.6853 21.3693 14.8537 21.3778 17.0182C20.2759 17.0201 19.174 17.0355 18.0721 17.0086C18.0464 16.9817 17.9941 16.9289 17.9674 16.9029C17.9407 14.9891 17.9569 13.0762 17.9588 11.1623C17.9407 10.4238 18.294 9.61045 19.0331 9.37038Z" fill="#008ECC"/>
<path fill-rule="evenodd" clip-rule="evenodd" d="M22.9141 11.0936C26.5161 10.591 30.3079 11.5451 33.1993 13.7874C36.9987 16.6623 39.1861 21.6206 38.5708 26.398C38.2264 29.6117 36.7354 32.6888 34.4126 34.9167C31.7197 37.5008 27.9584 39.0201 24.2315 38.7351C19.3932 38.633 14.802 35.6253 12.6013 31.2985C11.8047 29.787 11.3574 28.1252 11.0769 26.4451V24.301C11.4661 23.4403 12.4944 22.8232 13.4016 23.2641C14.1314 23.4798 14.5721 24.2981 14.511 25.0385C14.5148 27.9779 15.8684 30.8961 18.1082 32.7716C19.8663 34.3592 22.1977 35.1737 24.5262 35.3374C25.5212 35.321 26.5132 35.167 27.4853 34.9542C30.9795 34.0598 33.9099 31.1637 34.8247 27.639C35.9322 23.9313 34.633 19.6893 31.797 17.1244C29.3263 14.8532 25.7491 13.8953 22.4925 14.6982C22.2292 14.8484 22.1014 14.2804 22.2387 14.161C22.2349 13.205 22.2244 12.2479 22.2464 11.2929C22.4162 11.109 22.688 11.1475 22.9141 11.0936Z" fill="#008ECC"/>
<path fill-rule="evenodd" clip-rule="evenodd" d="M16.9232 13.5026C16.9631 13.493 17.0431 13.4739 17.0831 13.4643C17.0888 14.6115 17.105 15.7596 17.0764 16.9067C17.0507 16.9316 16.9984 16.9824 16.9717 17.0074C15.835 17.0351 14.6964 17.0217 13.5597 17.016C13.8177 16.2886 14.4574 15.7346 14.9706 15.1759C15.5523 14.5434 16.2053 13.9703 16.9232 13.5026Z" fill="#008ECC"/>
<path fill-rule="evenodd" clip-rule="evenodd" d="M14.6199 17.8115C17.9894 17.7836 21.3598 17.7951 24.7284 17.8048C25.6037 17.9397 26.524 17.9493 27.3411 18.3308C29.7569 19.2258 31.5506 21.6083 31.7493 24.1882C32.0456 26.5158 30.9781 28.9223 29.1529 30.351C27.7988 31.4522 26.0309 31.9406 24.3118 31.825C22.0106 31.6256 19.8299 30.2191 18.7615 28.142C18.5045 27.8424 18.4968 27.4223 18.2722 27.1073C17.8298 25.5225 17.9531 23.8597 17.9473 22.2325C19.0912 22.2248 20.236 22.2239 21.3809 22.2325C21.4564 23.7335 21.0951 25.4088 21.9781 26.7364C22.9137 28.2788 25.1231 28.7557 26.6377 27.8144C27.752 27.2248 28.2537 25.9368 28.3426 24.7422C28.2088 24.2923 28.1772 23.8125 27.9756 23.3847C27.3955 22.1988 26.136 21.3886 24.8249 21.3655C21.9323 21.3462 19.0396 21.3819 16.1479 21.3501C15.7771 20.3828 15.2362 19.4907 14.8072 18.5485C14.7508 18.326 14.3198 18.0042 14.6199 17.8115Z" fill="#008ECC"/>
</svg>
