<svg width="65" height="64" viewBox="0 0 65 64" fill="none" xmlns="http://www.w3.org/2000/svg">
<path opacity="0.2" d="M32.75 64C50.4231 64 64.75 49.6731 64.75 32C64.75 14.3269 50.4231 0 32.75 0C15.0769 0 0.75 14.3269 0.75 32C0.75 49.6731 15.0769 64 32.75 64Z" fill="#F3BA2F"/>
<path fill-rule="evenodd" clip-rule="evenodd" d="M26.06 29.2496L32.7533 22.5592L39.4493 29.255L43.3417 25.36L32.7533 14.7692L22.1649 25.3573L26.06 29.2496ZM15.5192 32.0006L19.4129 28.107L23.3066 32.0006L19.4129 35.8941L15.5192 32.0006ZM32.7533 41.4435L26.06 34.7504L22.1595 38.64L22.1649 38.6454L32.7533 49.2308L43.3417 38.64L43.3444 38.6373L39.4493 34.7477L32.7533 41.4435ZM42.1934 32.0015L46.0871 28.108L49.9808 32.0015L46.0871 35.8951L42.1934 32.0015ZM32.7533 28.0465L36.7028 31.9986H36.7056L36.7028 32.0014L32.7533 35.9535L28.8037 32.0068L28.7983 31.9986L28.8037 31.9932L29.4951 31.3018L29.8326 30.967L32.7533 28.0465Z" fill="#F3BA2F"/>
</svg>
