<svg width="48" height="48" viewBox="0 0 48 48" fill="none" xmlns="http://www.w3.org/2000/svg">
<path opacity="0.2" d="M24 48C37.2548 48 48 37.2548 48 24C48 10.7452 37.2548 0 24 0C10.7452 0 0 10.7452 0 24C0 37.2548 10.7452 48 24 48Z" fill="#00CBA0"/>
<path fill-rule="evenodd" clip-rule="evenodd" d="M23.9891 47.9345C37.2138 47.9345 47.9345 37.2138 47.9345 23.9891C47.9345 10.7644 37.2138 0.0436401 23.9891 0.0436401C10.7644 0.0436401 0.0436401 10.7644 0.0436401 23.9891C0.0436401 37.2138 10.7644 47.9345 23.9891 47.9345Z" fill="#002352"/>
<path fill-rule="evenodd" clip-rule="evenodd" d="M14.2484 19.5414H26.5649C26.5649 19.5414 30.816 19.502 27.876 24.941C27.876 24.941 25.7305 29.1976 20.4066 29.1188L23.2791 21.8518C23.3486 21.6757 23.3268 21.4771 23.2209 21.32C23.1149 21.1628 22.9381 21.067 22.7476 21.0635L18.9763 20.9997L14.2087 32.5083C14.2087 32.5083 15.7979 32.666 16.672 32.5871L16.1952 33.7695H18.4479C18.5745 33.7694 18.6878 33.6915 18.7324 33.574L19.1353 32.5083L20.0888 32.4295L19.5326 33.7695H21.7257C21.8889 33.7694 22.0354 33.6703 22.0952 33.5196L22.7118 31.9565C22.7118 31.9565 29.3865 30.853 32.406 25.4928C32.406 25.4928 36.4585 19.2655 31.6909 17.0584C30.7617 16.6358 29.7681 16.3695 28.7508 16.2701L29.3118 14.9096C29.3463 14.8259 29.3364 14.7307 29.2855 14.6557C29.2346 14.5807 29.1495 14.5358 29.0583 14.536H27.0019L26.3662 16.1913H25.4921L25.9856 14.9056C26.0178 14.8217 26.0062 14.7275 25.9548 14.6537C25.9034 14.5798 25.8186 14.5358 25.7281 14.536H23.6621L23.0265 16.1913H16.6068C16.2546 16.1903 15.9309 16.383 15.7661 16.6918L14.2484 19.5414Z" fill="white"/>
</svg>
