<svg width="65" height="64" viewBox="0 0 65 64" fill="none" xmlns="http://www.w3.org/2000/svg">
<path opacity="0.2" d="M64.3264 32.0006C64.3264 49.5807 50.0753 63.8322 32.4954 63.8322C14.9153 63.8322 0.663971 49.5807 0.663971 32.0006C0.663971 14.4207 14.9153 0.169373 32.4954 0.169373C50.0751 0.169373 64.3264 14.4207 64.3264 32.0006Z" fill="#505050"/>
<g opacity="0.8">
<path d="M32.3936 17.2308L32.1969 17.899V37.2906L32.3936 37.4868L41.3949 32.1662L32.3936 17.2308Z" fill="white"/>
<path d="M32.3936 17.2308L23.3923 32.1662L32.3936 37.4869V28.0748V17.2308Z" fill="white"/>
<path d="M32.3936 40.4154L32.2828 40.5505V47.4582L32.3936 47.7818L41.4003 35.0974L32.3936 40.4154Z" fill="white"/>
<path d="M32.3936 47.7818V40.4154L23.3923 35.0974L32.3936 47.7818Z" fill="white"/>
<path d="M32.3936 37.4868L41.3947 32.1662L32.3936 28.0749V37.4868Z" fill="white"/>
<path d="M23.3923 32.1662L32.3935 37.4868V28.0748L23.3923 32.1662Z" fill="white"/>
</g>
</svg>
