<svg width="512" height="512" viewBox="0 0 512 512" fill="none" xmlns="http://www.w3.org/2000/svg">
<mask id="mask0_218_491" style="mask-type:luminance" maskUnits="userSpaceOnUse" x="0" y="0" width="64" height="64">
<path d="M32 64C49.6731 64 64 49.6731 64 32C64 14.3269 49.6731 0 32 0C14.3269 0 0 14.3269 0 32C0 49.6731 14.3269 64 32 64Z" fill="white"/>
</mask>
<g mask="url(#mask0_218_491)">
<path d="M0 40.35L31.7 38.05L64 40.35V44.525L31.75 46.4375L0 44.525V40.35ZM0 48.7L32.15 46.975L64 48.7V52.875L32.375 54.9875L0 52.875V48.7Z" fill="#FFDA44"/>
<path d="M0 0H64V40.35H0V0ZM0 44.525H64V48.7H0V44.525ZM0 52.875H64V64H0V52.875Z" fill="#338AF3"/>
<path d="M14.6625 20.1875L8.41251 17.425L14.6625 14.675L17.4125 8.41251L20.1875 14.6625L26.4375 17.4125L20.1875 20.1875L17.425 26.4375L14.6625 20.1875Z" fill="#EEEEEE"/>
<path d="M17.425 11.8625L19.125 15.725L23 17.425L19.125 19.125L17.425 23L15.725 19.125L11.85 17.425L15.725 15.725L17.425 11.8625Z" fill="#D80027"/>
</g>
</svg>
