<svg width="64" height="64" viewBox="0 0 64 64" fill="none" xmlns="http://www.w3.org/2000/svg">
<g clip-path="url(#clip0_224_809)">
<mask id="mask0_224_809" style="mask-type:luminance" maskUnits="userSpaceOnUse" x="0" y="0" width="64" height="64">
<path d="M32 64C49.6731 64 64 49.6731 64 32C64 14.3269 49.6731 0 32 0C14.3269 0 0 14.3269 0 32C0 49.6731 14.3269 64 32 64Z" fill="white"/>
</mask>
<g mask="url(#mask0_224_809)">
<path d="M0 0H64V40.8375L61.5875 50.4L64 60.1125V64H0V23.15L2.675 13.5875L0 3.875V0Z" fill="#FFDA44"/>
<path d="M0 3.875V18.525L64 55.4875V40.8375L0 3.875Z" fill="#EEEEEE"/>
<path d="M0 13.5249V23.1499L64 60.1249V50.4999L0 13.5249Z" fill="#333333"/>
<path d="M41.0375 28.5249C41.0337 29.8982 40.7169 31.2527 40.1112 32.4853C39.5055 33.7179 38.6269 34.7963 37.542 35.6385C36.4572 36.4807 35.1946 37.0646 33.8503 37.3458C32.506 37.627 31.1153 37.5981 29.7839 37.2613C28.4524 36.9245 27.2152 36.2887 26.1663 35.4022C25.1173 34.5156 24.2843 33.4017 23.7303 32.145C23.1763 30.8882 22.9161 29.5218 22.9693 28.1494C23.0226 26.7771 23.3879 25.4349 24.0375 24.2249C22.5072 25.7907 21.4729 27.7733 21.0643 29.9242C20.6556 32.0752 20.8907 34.299 21.7402 36.3169C22.5896 38.3349 24.0156 40.0573 25.8396 41.2685C27.6635 42.4796 29.8043 43.1257 31.9937 43.1257C34.1832 43.1257 36.324 42.4796 38.1479 41.2685C39.9719 40.0573 41.3979 38.3349 42.2473 36.3169C43.0968 34.299 43.3319 32.0752 42.9232 29.9242C42.5146 27.7733 41.4803 25.7907 39.95 24.2249C40.6655 25.545 41.0394 27.0232 41.0375 28.5249Z" fill="#D80027"/>
<path d="M29.9125 18.0874H34.0875V38.9624H29.9125V18.0874Z" fill="#D80027"/>
<path d="M38.95 22.25H25.05C25.05 23.225 25.875 24 26.8375 24H26.7875C26.7875 24.462 26.9702 24.9052 27.2956 25.233C27.6211 25.5609 28.0631 25.7467 28.525 25.75C28.5315 26.2076 28.7171 26.6445 29.0419 26.9669C29.3667 27.2894 29.8049 27.4718 30.2625 27.475H33.7375C34.1995 27.475 34.6427 27.2924 34.9706 26.9669C35.2984 26.6414 35.4842 26.1995 35.4875 25.7375C35.9451 25.731 36.382 25.5454 36.7045 25.2206C37.0269 24.8959 37.2093 24.4577 37.2125 24H37.1625C38.1125 24 38.95 23.225 38.95 22.2625V22.25ZM22.2625 40.3625H41.7375V44.5375H22.2625V40.3625Z" fill="#D80027"/>
<path d="M36.175 41.7373H44.525V45.9123H36.175V41.7373ZM19.475 41.7373H27.825V45.9123H19.475V41.7373Z" fill="#D80027"/>
</g>
</g>
<defs>
<clipPath id="clip0_224_809">
<rect width="64" height="64" fill="white"/>
</clipPath>
</defs>
</svg>
