<svg width="64" height="64" viewBox="0 0 64 64" fill="none" xmlns="http://www.w3.org/2000/svg">
<g clip-path="url(#clip0_210_34)">
<mask id="mask0_210_34" style="mask-type:luminance" maskUnits="userSpaceOnUse" x="0" y="0" width="64" height="64">
<path d="M32 64C49.6731 64 64 49.6731 64 32C64 14.3269 49.6731 0 32 0C14.3269 0 0 14.3269 0 32C0 49.6731 14.3269 64 32 64Z" fill="white"/>
</mask>
<g mask="url(#mask0_210_34)">
<path d="M0 0V64H18L32 56L46 64H64V0H46L32 8L18 0H0Z" fill="#D80027"/>
<path d="M18 0H46V64H18V0Z" fill="#EEEEEE"/>
<path d="M37.625 36.125L43.125 33.375L40.375 32V29.25L34.75 32L37.625 26.5H34.75L32 22.25L29.25 26.375H26.375L29.25 32L23.625 29.25V32L20.875 33.375L26.5 36.125L25 39H30.625V43.125H33.375V39H39L37.625 36.125Z" fill="#D80027"/>
</g>
</g>
<defs>
<clipPath id="clip0_210_34">
<rect width="64" height="64" fill="white"/>
</clipPath>
</defs>
</svg>
