<svg width="64" height="64" viewBox="0 0 64 64" fill="none" xmlns="http://www.w3.org/2000/svg">
<g clip-path="url(#clip0_262_12)">
<path d="M32 64C49.6731 64 64 49.6731 64 32C64 14.3269 49.6731 0 32 0C14.3269 0 0 14.3269 0 32C0 49.6731 14.3269 64 32 64Z" fill="#FFDA44"/>
<path d="M32 64C42.5 64 51.8186 58.9427 57.6536 51.1314H6.34637C12.1814 58.9427 21.5 64 32 64ZM64 32C64 14.327 49.673 0 32 0C14.327 0 0 14.327 0 32C0 35.7841 0.658625 39.414 1.8645 42.7836H62.1354C63.3414 39.414 64 35.7841 64 32Z" fill="#0052B4"/>
<path d="M21.9028 20.5228L23.6294 25.8368H29.2174L24.6968 29.1215L26.4234 34.4358L21.9028 31.1513L17.3821 34.4358L19.109 29.1215L14.5884 25.8368H20.1761L21.9028 20.5228ZM12.3068 14.9575L13.3428 18.146H16.6956L13.9833 20.1168L15.0193 23.3054L12.3068 21.3346L9.5944 23.3054L10.6305 20.1168L7.91827 18.146H11.271L12.3068 14.9575Z" fill="#F0F0F0"/>
</g>
<defs>
<clipPath id="clip0_262_12">
<rect width="64" height="64" fill="white"/>
</clipPath>
</defs>
</svg>
