<svg width="64" height="64" viewBox="0 0 64 64" fill="none" xmlns="http://www.w3.org/2000/svg">
<g clip-path="url(#clip0_218_130)">
<mask id="mask0_218_130" style="mask-type:luminance" maskUnits="userSpaceOnUse" x="0" y="0" width="64" height="64">
<path d="M32 64C49.6731 64 64 49.6731 64 32C64 14.3269 49.6731 0 32 0C14.3269 0 0 14.3269 0 32C0 49.6731 14.3269 64 32 64Z" fill="white"/>
</mask>
<g mask="url(#mask0_218_130)">
<path d="M0 0H64V64H0V0Z" fill="#EEEEEE"/>
<path d="M50.0875 27.825H45.9125C45.9125 31.5148 44.4467 35.0535 41.8376 37.6626C39.2285 40.2717 35.6898 41.7375 32 41.7375C28.3102 41.7375 24.7715 40.2717 22.1624 37.6626C19.5533 35.0535 18.0875 31.5148 18.0875 27.825H13.9125C13.9125 36.1 19.475 43.075 27.0625 45.225C26.6402 46.0242 26.4613 46.9296 26.5479 47.8293C26.6346 48.729 26.9829 49.5836 27.55 50.2875L32.0875 46.6375L36.6375 50.2875C37.2083 49.5775 37.5567 48.7147 37.639 47.8074C37.7213 46.9001 37.5338 45.9886 37.1 45.1875C40.8491 44.0836 44.1403 41.7958 46.4813 38.6662C48.8223 35.5366 50.0874 31.7333 50.0875 27.825Z" fill="#6DA544"/>
<path d="M20.875 26.4375C20.875 26.4375 20.875 33.3875 27.825 33.3875L29.2125 34.7875H32C32 34.7875 33.3875 30.6125 36.175 30.6125C36.175 30.6125 36.175 27.825 38.9625 27.825H43.125C43.125 27.825 41.75 22.2625 48.7 18.0875L45.9125 16.7C45.9125 16.7 36.1625 23.65 29.2125 22.2625V25.0375H26.4375L25.0375 23.6625L20.875 26.4375Z" fill="#FFDA44"/>
</g>
</g>
<defs>
<clipPath id="clip0_218_130">
<rect width="64" height="64" fill="white"/>
</clipPath>
</defs>
</svg>
