<svg width="64" height="64" viewBox="0 0 64 64" fill="none" xmlns="http://www.w3.org/2000/svg">
<g clip-path="url(#clip0_224_115)">
<mask id="mask0_224_115" style="mask-type:luminance" maskUnits="userSpaceOnUse" x="0" y="0" width="64" height="64">
<path d="M32 64C49.6731 64 64 49.6731 64 32C64 14.3269 49.6731 0 32 0C14.3269 0 0 14.3269 0 32C0 49.6731 14.3269 64 32 64Z" fill="white"/>
</mask>
<g mask="url(#mask0_224_115)">
<path d="M0 48L31.8375 43.9125L64 47.9875V64H0V48Z" fill="#D80027"/>
<path d="M0 32L31.875 28.625L64 32V48H0V32Z" fill="#0052B4"/>
<path d="M0 0H64V32H0V0Z" fill="#FFDA44"/>
<path d="M32 43.125C38.1442 43.125 43.125 38.1442 43.125 32C43.125 25.8558 38.1442 20.875 32 20.875C25.8558 20.875 20.875 25.8558 20.875 32C20.875 38.1442 25.8558 43.125 32 43.125Z" fill="#FFDA44"/>
<path d="M32 38.95C28.1625 38.95 25.0375 35.825 25.0375 32V27.825C25.0375 25.9784 25.771 24.2075 27.0767 22.9018C28.3825 21.596 30.1534 20.8625 32 20.8625C33.8465 20.8625 35.6175 21.596 36.9232 22.9018C38.2289 24.2075 38.9625 25.9784 38.9625 27.825V32C38.9625 35.825 35.8375 38.95 32 38.95Z" fill="#338AF3"/>
<path d="M43.125 15.3H34.7875C34.7875 14.5607 34.4938 13.8517 33.9711 13.329C33.4483 12.8062 32.7393 12.5125 32 12.5125C31.2607 12.5125 30.5517 12.8062 30.0289 13.329C29.5062 13.8517 29.2125 14.5607 29.2125 15.3H20.875C20.8978 16.0472 21.2107 16.7562 21.7474 17.2766C22.2841 17.797 23.0024 18.0879 23.75 18.0875H23.65C23.65 19.625 24.9 20.875 26.4375 20.875C26.4375 22.4125 27.6875 23.65 29.2125 23.65H34.7875C36.325 23.65 37.5625 22.4 37.5625 20.875C39.1 20.875 40.35 19.625 40.35 18.0875H40.25C40.9976 18.0879 41.7159 17.797 42.2526 17.2766C42.7893 16.7562 43.1022 16.0472 43.125 15.3Z" fill="#333333"/>
</g>
</g>
<defs>
<clipPath id="clip0_224_115">
<rect width="64" height="64" fill="white"/>
</clipPath>
</defs>
</svg>
