<svg width="64" height="64" viewBox="0 0 64 64" fill="none" xmlns="http://www.w3.org/2000/svg">
<g clip-path="url(#clip0_233_44)">
<mask id="mask0_233_44" style="mask-type:luminance" maskUnits="userSpaceOnUse" x="0" y="0" width="64" height="64">
<path d="M32 64C49.6731 64 64 49.6731 64 32C64 14.3269 49.6731 0 32 0C14.3269 0 0 14.3269 0 32C0 49.6731 14.3269 64 32 64Z" fill="white"/>
</mask>
<g mask="url(#mask0_233_44)">
<path d="M32 0H64V64H0V32L32 0Z" fill="#338AF3"/>
<path d="M0 0V4L4 8L0 12V32H4L8 28L12 32H16L21.25 30L26.375 32H32L31 30L32 28.125V26.375L30 21.125L32 16V12L28 8L32 4V0H12L8 4L4 0H0Z" fill="#EEEEEE"/>
<path d="M16 32V21.625L26.375 32H16ZM32 26.375L21.625 16H32V26.375Z" fill="#0052B4"/>
<path d="M45.9141 18.0874L36.1641 20.8749H36.1766V29.2124L37.3266 30.5874L36.1766 31.9999C36.1766 37.6874 41.8391 40.3749 44.5266 41.3249L45.9641 40.2249L47.3016 41.3249C49.9891 40.3624 55.6516 37.6874 55.6516 31.9999L54.6516 30.6249L55.6516 29.2124V20.8749L45.9141 18.0874Z" fill="#EEEEEE"/>
<path d="M4 0V4H0V12H4V32H12V12H32V4H12V0H4ZM16 16L32 32V28.125L19.875 16H16ZM55.65 20.875V16.7H36.175V20.875H44.525V29.2125H36.175V32H44.525V41.325C44.9798 41.4908 45.4429 41.6326 45.9125 41.75C45.9125 41.75 46.4625 41.625 47.3 41.325V32H55.65V29.2125H47.3V20.875H55.65Z" fill="#D80027"/>
</g>
</g>
<defs>
<clipPath id="clip0_233_44">
<rect width="64" height="64" fill="white"/>
</clipPath>
</defs>
</svg>
