<svg width="64" height="64" viewBox="0 0 64 64" fill="none" xmlns="http://www.w3.org/2000/svg">
<g clip-path="url(#clip0_210_65)">
<mask id="mask0_210_65" style="mask-type:luminance" maskUnits="userSpaceOnUse" x="0" y="0" width="64" height="64">
<path d="M32 64C49.6731 64 64 49.6731 64 32C64 14.3269 49.6731 0 32 0C14.3269 0 0 14.3269 0 32C0 49.6731 14.3269 64 32 64Z" fill="white"/>
</mask>
<g mask="url(#mask0_210_65)">
<path d="M0 0L1 2.75L0 5.625V8.5L4 15.25L0 22V26L4 32L0 38V42L4 48.75L0 55.5V64L2.75 63L5.625 64H8.5L15.25 60L22 64H26L32 60L38 64H42L48.75 60L55.5 64H64L63 61.25L64 58.375V55.5L60 48.75L64 42V38L60 32L64 26V22L60 15.25L64 8.5V0L61.25 1L58.375 0H55.5L48.75 4L42 0H38L32 4L26 0H22L15.25 4L8.5 0H0Z" fill="#EEEEEE"/>
<path d="M42 0V13.5L55.5 0H42ZM64 8.5L50.5 22H64V8.5ZM0 22H13.5L0 8.5V22ZM8.5 0L22 13.5V0H8.5ZM22 64V50.5L8.5 64H22ZM0 55.5L13.5 42H0V55.5ZM64 42H50.5L64 55.5V42ZM55.5 64L42 50.5V64H55.5Z" fill="#0052B4"/>
<path d="M0 0V5.625L16.375 22H22L0 0ZM26 0V26H0V38H26V64H38V38H64V26H38V0H26ZM58.375 0L42 16.375V22L64 0H58.375ZM22 42L0 64H5.625L22 47.625V42ZM42 42L64 64V58.375L47.625 42H42Z" fill="#D80027"/>
</g>
</g>
<defs>
<clipPath id="clip0_210_65">
<rect width="64" height="64" fill="white"/>
</clipPath>
</defs>
</svg>
