<svg width="64" height="64" viewBox="0 0 64 64" fill="none" xmlns="http://www.w3.org/2000/svg">
<g clip-path="url(#clip0_224_163)">
<mask id="mask0_224_163" style="mask-type:luminance" maskUnits="userSpaceOnUse" x="0" y="0" width="64" height="64">
<path d="M32 64C49.6731 64 64 49.6731 64 32C64 14.3269 49.6731 0 32 0C14.3269 0 0 14.3269 0 32C0 49.6731 14.3269 64 32 64Z" fill="white"/>
</mask>
<g mask="url(#mask0_224_163)">
<path d="M0 32L32.375 26.3375L64 32V64H0V32Z" fill="#D80027"/>
<path d="M0 0H64V32H0V0Z" fill="#EEEEEE"/>
<path d="M6.96252 32C6.96252 36.0578 8.57448 39.9494 11.4438 42.8187C14.3131 45.688 18.2047 47.3 22.2625 47.3C26.3203 47.3 30.212 45.688 33.0813 42.8187C35.9506 39.9494 37.5625 36.0578 37.5625 32L22.1875 29L6.96252 32Z" fill="#EEEEEE"/>
<path d="M6.96252 32C6.96252 27.9422 8.57448 24.0506 11.4438 21.1813C14.3131 18.312 18.2047 16.7 22.2625 16.7C26.3203 16.7 30.212 18.312 33.0813 21.1813C35.9506 24.0506 37.5625 27.9422 37.5625 32H6.96252Z" fill="#D80027"/>
</g>
</g>
<defs>
<clipPath id="clip0_224_163">
<rect width="64" height="64" fill="white"/>
</clipPath>
</defs>
</svg>
