<svg width="64" height="64" viewBox="0 0 64 64" fill="none" xmlns="http://www.w3.org/2000/svg">
<g clip-path="url(#clip0_240_358)">
<mask id="mask0_240_358" style="mask-type:luminance" maskUnits="userSpaceOnUse" x="0" y="0" width="64" height="64">
<path d="M32 64C49.6731 64 64 49.6731 64 32C64 14.3269 49.6731 0 32 0C14.3269 0 0 14.3269 0 32C0 49.6731 14.3269 64 32 64Z" fill="white"/>
</mask>
<g mask="url(#mask0_240_358)">
<path d="M32 0H64V64H0V32L32 0Z" fill="#0052B4"/>
<path d="M0 0V4L4 8L0 12V32H4L8 28L12 32H16V21.625L26.375 32H32L31 30L32 28.125V26.375L21.625 16H32V12L28 8L32 4V0H12L8 4L4 0H0Z" fill="#EEEEEE"/>
<path d="M4 0V4H0V12H4V32H12V12H32V4H12V0H4ZM16 16L32 32V28.125L19.875 16H16Z" fill="#D80027"/>
<path d="M48 32H44C42.8954 32 42 32.8954 42 34C42 35.1046 42.8954 36 44 36H48C49.1046 36 50 35.1046 50 34C50 32.8954 49.1046 32 48 32Z" fill="#6DA544"/>
<path d="M46 16C48.2091 16 50 14.2091 50 12C50 9.79086 48.2091 8 46 8C43.7909 8 42 9.79086 42 12C42 14.2091 43.7909 16 46 16Z" fill="#FF9811"/>
<path d="M46 24C49.3137 24 52 21.3137 52 18C52 14.6863 49.3137 12 46 12C42.6863 12 40 14.6863 40 18C40 21.3137 42.6863 24 46 24Z" fill="#ACABB1"/>
<path d="M40 18V27.625C40 32.125 46 33.625 46 33.625C46 33.625 52 32.125 52 27.625V18H40Z" fill="#338AF3"/>
<path d="M40 18C40 16.8954 39.1046 16 38 16C36.8954 16 36 16.8954 36 18V30C36 31.1046 36.8954 32 38 32C39.1046 32 40 31.1046 40 30V18Z" fill="#333333"/>
<path d="M56 18C56 16.8954 55.1046 16 54 16C52.8954 16 52 16.8954 52 18V30C52 31.1046 52.8954 32 54 32C55.1046 32 56 31.1046 56 30V18Z" fill="#333333"/>
<path d="M40 18L46 32L52 18H40Z" fill="#6DA544"/>
<path d="M36 36V40H40V41H52V40H56V36H52V37H40V36H36Z" fill="#FFDA44"/>
</g>
</g>
<defs>
<clipPath id="clip0_240_358">
<rect width="64" height="64" fill="white"/>
</clipPath>
</defs>
</svg>
