<svg width="64" height="64" viewBox="0 0 64 64" fill="none" xmlns="http://www.w3.org/2000/svg">
<g clip-path="url(#clip0_224_1102)">
<mask id="mask0_224_1102" style="mask-type:luminance" maskUnits="userSpaceOnUse" x="0" y="0" width="64" height="64">
<path d="M32 64C49.6731 64 64 49.6731 64 32C64 14.3269 49.6731 0 32 0C14.3269 0 0 14.3269 0 32C0 49.6731 14.3269 64 32 64Z" fill="white"/>
</mask>
<g mask="url(#mask0_224_1102)">
<path d="M0 0H64V64H0V0Z" fill="#D80027"/>
<path d="M43.8498 21.4499L41.5873 29.5249L34.7998 28.2749L30.4248 19.2749L18.6248 23.4499L17.6998 20.8249L14.6123 20.4499L16.9373 27.0124L25.0623 24.9249L27.3623 31.4249L21.7498 39.7124L31.2873 47.8374L29.4748 49.9624L30.6873 52.8249L35.1998 47.5374L29.3498 41.5374L33.8248 36.2874L43.7998 37.0124L46.0748 24.6874L48.8248 25.1874L50.6998 22.7124L43.8498 21.4624V21.4499Z" fill="#EEEEEE"/>
</g>
</g>
<defs>
<clipPath id="clip0_224_1102">
<rect width="64" height="64" fill="white"/>
</clipPath>
</defs>
</svg>
