<svg width="64" height="64" viewBox="0 0 64 64" fill="none" xmlns="http://www.w3.org/2000/svg">
<g clip-path="url(#clip0_240_35)">
<mask id="mask0_240_35" style="mask-type:luminance" maskUnits="userSpaceOnUse" x="0" y="0" width="64" height="64">
<path d="M32 64C49.6731 64 64 49.6731 64 32C64 14.3269 49.6731 0 32 0C14.3269 0 0 14.3269 0 32C0 49.6731 14.3269 64 32 64Z" fill="white"/>
</mask>
<g mask="url(#mask0_240_35)">
<path d="M0 20L32 16L64 20V44L32 48L0 44V20Z" fill="#EEEEEE"/>
<path d="M0 0H64V20H0V0Z" fill="#FF9811"/>
<path d="M0 44H64V64H0V44Z" fill="#6DA544"/>
<path d="M32 41C36.9706 41 41 36.9706 41 32C41 27.0294 36.9706 23 32 23C27.0294 23 23 27.0294 23 32C23 36.9706 27.0294 41 32 41Z" fill="#0052B4"/>
<path d="M32 38C35.3137 38 38 35.3137 38 32C38 28.6863 35.3137 26 32 26C28.6863 26 26 28.6863 26 32C26 35.3137 28.6863 38 32 38Z" fill="#EEEEEE"/>
<path d="M32 35C33.6569 35 35 33.6569 35 32C35 30.3431 33.6569 29 32 29C30.3431 29 29 30.3431 29 32C29 33.6569 30.3431 35 32 35Z" fill="#0052B4"/>
</g>
</g>
<defs>
<clipPath id="clip0_240_35">
<rect width="64" height="64" fill="white"/>
</clipPath>
</defs>
</svg>
