<svg width="64" height="64" viewBox="0 0 64 64" fill="none" xmlns="http://www.w3.org/2000/svg">
<g clip-path="url(#clip0_218_87)">
<mask id="mask0_218_87" style="mask-type:luminance" maskUnits="userSpaceOnUse" x="0" y="0" width="64" height="64">
<path d="M64 0H0V64H64V0Z" fill="white"/>
</mask>
<g mask="url(#mask0_218_87)">
<mask id="mask1_218_87" style="mask-type:luminance" maskUnits="userSpaceOnUse" x="0" y="0" width="64" height="64">
<path d="M32 64C49.6731 64 64 49.6731 64 32C64 14.3269 49.6731 0 32 0C14.3269 0 0 14.3269 0 32C0 49.6731 14.3269 64 32 64Z" fill="white"/>
</mask>
<g mask="url(#mask1_218_87)">
<path d="M0 0H64V64H0V0Z" fill="#EEEEEE"/>
<path d="M31.9999 45.9125C39.6836 45.9125 45.9124 39.6837 45.9124 32C45.9124 24.3163 39.6836 18.0875 31.9999 18.0875C24.3162 18.0875 18.0874 24.3163 18.0874 32C18.0874 39.6837 24.3162 45.9125 31.9999 45.9125Z" fill="#D80027"/>
</g>
</g>
</g>
<defs>
<clipPath id="clip0_218_87">
<rect width="64" height="64" fill="white"/>
</clipPath>
</defs>
</svg>
