<svg width="64" height="64" viewBox="0 0 64 64" fill="none" xmlns="http://www.w3.org/2000/svg">
<g clip-path="url(#clip0_233_145)">
<mask id="mask0_233_145" style="mask-type:luminance" maskUnits="userSpaceOnUse" x="0" y="0" width="64" height="64">
<path d="M32 64C49.6731 64 64 49.6731 64 32C64 14.3269 49.6731 0 32 0C14.3269 0 0 14.3269 0 32C0 49.6731 14.3269 64 32 64Z" fill="white"/>
</mask>
<g mask="url(#mask0_233_145)">
<path d="M0 0H64V11.125L56.35 31.825L64 52.875V64H0V52.875L7.8125 31.05L0 11.125V0Z" fill="#0052B4"/>
<path d="M0 11.125H64V15.3L60.4875 31.55L64 48.7125V52.875H0V48.7L3.75 31.875L0 15.3V11.125Z" fill="#EEEEEE"/>
<path d="M0 15.2998H64V48.6998H0V15.2998Z" fill="#D80027"/>
<path d="M19.6875 44.3125C26.4875 44.3125 32 38.8 32 32C32 25.2 26.4875 19.6875 19.6875 19.6875C12.8875 19.6875 7.375 25.2 7.375 32C7.375 38.8 12.8875 44.3125 19.6875 44.3125Z" fill="#EEEEEE"/>
<path d="M19.6891 19.6875L22.4516 28.1875H31.4016L24.1516 33.4375L26.9391 41.975L19.6891 36.6875L12.4391 41.9625L15.2141 33.45L7.97656 28.2H16.9266L19.6891 19.6875Z" fill="#D80027"/>
</g>
</g>
<defs>
<clipPath id="clip0_233_145">
<rect width="64" height="64" fill="white"/>
</clipPath>
</defs>
</svg>
