<svg width="64" height="64" viewBox="0 0 64 64" fill="none" xmlns="http://www.w3.org/2000/svg">
<g clip-path="url(#clip0_233_177)">
<mask id="mask0_233_177" style="mask-type:luminance" maskUnits="userSpaceOnUse" x="0" y="0" width="64" height="64">
<path d="M32 64C49.6731 64 64 49.6731 64 32C64 14.3269 49.6731 0 32 0C14.3269 0 0 14.3269 0 32C0 49.6731 14.3269 64 32 64Z" fill="white"/>
</mask>
<g mask="url(#mask0_233_177)">
<path d="M0 31.9998L31.9 27.0498L64 31.9998V63.9998H0V31.9998Z" fill="#D80027"/>
<path d="M0 0H64V32H0V0Z" fill="#0052B4"/>
<path d="M23.6482 22.2499C23.6445 21.4465 23.4091 20.6613 22.9702 19.9884C22.5314 19.3155 21.9077 18.7835 21.174 18.4563C20.4403 18.129 19.6277 18.0204 18.8339 18.1434C18.04 18.2664 17.2984 18.6159 16.6982 19.1499V16.6999H18.0857V13.9124H16.6982V12.5249H13.9107V13.9124H12.5232V16.6999H13.9107V19.1499C13.0813 18.4394 12.0064 18.0821 10.9167 18.1548C9.82695 18.2275 8.80908 18.7243 8.08135 19.5387C7.35363 20.3531 6.97401 21.4202 7.02389 22.5113C7.07378 23.6023 7.5492 24.6303 8.34821 25.3749V27.8249H22.2482V25.3749C23.0982 24.6124 23.6357 23.4999 23.6357 22.2499H23.6482Z" fill="#FFDA44"/>
</g>
</g>
<defs>
<clipPath id="clip0_233_177">
<rect width="64" height="64" fill="white"/>
</clipPath>
</defs>
</svg>
