<svg width="64" height="64" viewBox="0 0 64 64" fill="none" xmlns="http://www.w3.org/2000/svg">
<g clip-path="url(#clip0_224_1119)">
<mask id="mask0_224_1119" style="mask-type:luminance" maskUnits="userSpaceOnUse" x="0" y="0" width="64" height="64">
<path d="M32 64C49.6731 64 64 49.6731 64 32C64 14.3269 49.6731 0 32 0C14.3269 0 0 14.3269 0 32C0 49.6731 14.3269 64 32 64Z" fill="white"/>
</mask>
<g mask="url(#mask0_224_1119)">
<path d="M10.1748 3.3999H27.0748V60.4624H10.1748V3.3999Z" fill="#FF9811"/>
<path d="M0 5.5625L12.525 2.8125V60.6875L0 58.4375V5.5625Z" fill="#6DA544"/>
<path d="M27.3252 3.3125L64.0002 5.5625V17.2125L61.6752 30.4875L64.0002 42.6625V58.4375L27.3252 60.6875V3.3125Z" fill="#A2001D"/>
<path d="M0 0V5.5625H25.0375V58.4375H0V64H64V58.4375H29.2125V5.5625H64V0H0Z" fill="#FFDA44"/>
<path d="M37.5628 11.8252C35.2628 11.8252 33.3878 13.7002 33.3878 16.0002V34.0752C33.3838 34.666 33.5067 35.2507 33.7482 35.7898C33.9897 36.329 34.3443 36.8099 34.7878 37.2002V43.8252H37.5628V40.3502H50.0878V45.9127H47.3003V48.7002H52.8753V43.1252L55.4253 40.3502H61.4503C62.1457 41.276 63.0111 42.0609 64.0003 42.6627V17.2127C62.9634 17.5664 62.0073 18.123 61.1878 18.8502C59.789 20.1412 58.8655 21.8655 58.5662 23.7454C58.2669 25.6252 58.6091 27.5511 59.5378 29.2127C56.8753 29.2002 54.4128 29.2377 52.8753 29.2127V20.8752C52.8753 19.4752 50.7878 18.0877 50.7878 18.0877C50.7878 18.0877 48.7003 19.4752 48.7003 20.8752H40.3503V29.2127H44.5253V33.3877C44.5253 34.2752 44.7003 35.1502 45.0378 35.9752L43.1253 37.5752H37.5628V11.8252Z" fill="#FFDA44"/>
</g>
</g>
<defs>
<clipPath id="clip0_224_1119">
<rect width="64" height="64" fill="white"/>
</clipPath>
</defs>
</svg>
