<svg width="64" height="64" viewBox="0 0 64 64" fill="none" xmlns="http://www.w3.org/2000/svg">
<g clip-path="url(#clip0_240_209)">
<mask id="mask0_240_209" style="mask-type:luminance" maskUnits="userSpaceOnUse" x="0" y="0" width="64" height="64">
<path d="M32 64C49.6731 64 64 49.6731 64 32C64 14.3269 49.6731 0 32 0C14.3269 0 0 14.3269 0 32C0 49.6731 14.3269 64 32 64Z" fill="white"/>
</mask>
<g mask="url(#mask0_240_209)">
<path d="M0 16V0H64V16L37.375 64H26.625L0 16Z" fill="#EEEEEE"/>
<path d="M32 33.75C35.935 33.75 39.125 30.56 39.125 26.625C39.125 22.69 35.935 19.5 32 19.5C28.065 19.5 24.875 22.69 24.875 26.625C24.875 30.56 28.065 33.75 32 33.75Z" fill="#FFDA44"/>
<path d="M23.125 26.625H40.875L32 42.625L23.125 26.625Z" fill="#EEEEEE"/>
<path d="M32 42.625L17.75 29.375H46.25L32 42.625Z" fill="#D80027"/>
<path d="M0 16L26.625 42.625V64H0V16ZM64 16L37.375 42.625V64H64V16Z" fill="#0052B4"/>
</g>
</g>
<defs>
<clipPath id="clip0_240_209">
<rect width="64" height="64" fill="white"/>
</clipPath>
</defs>
</svg>
