<svg width="64" height="64" viewBox="0 0 64 64" fill="none" xmlns="http://www.w3.org/2000/svg">
<g clip-path="url(#clip0_240_587)">
<mask id="mask0_240_587" style="mask-type:luminance" maskUnits="userSpaceOnUse" x="0" y="0" width="64" height="64">
<path d="M32 64C49.6731 64 64 49.6731 64 32C64 14.3269 49.6731 0 32 0C14.3269 0 0 14.3269 0 32C0 49.6731 14.3269 64 32 64Z" fill="white"/>
</mask>
<g mask="url(#mask0_240_587)">
<path d="M0 0H64V64H0V0Z" fill="#338AF3"/>
<path d="M30.9987 52.15C30.585 52.1326 30.1859 51.9926 29.852 51.7477C29.5181 51.5029 29.2646 51.1643 29.1237 50.775C28.8743 51.0972 28.5362 51.3394 28.1509 51.4717C27.7656 51.604 27.35 51.6207 26.9553 51.5197C26.5606 51.4188 26.2041 51.2045 25.9298 50.9033C25.6554 50.6022 25.4751 50.2274 25.4112 49.825C25.1016 50.0927 24.7202 50.2634 24.3144 50.3161C23.9086 50.3687 23.4962 50.3009 23.1286 50.1211C22.761 49.9413 22.4544 49.6574 22.2468 49.3048C22.0393 48.9521 21.9399 48.5462 21.9612 48.1375C21.6029 48.3386 21.1932 48.4295 20.7835 48.3988C20.3738 48.368 19.9823 48.2171 19.658 47.9649C19.3336 47.7126 19.091 47.3703 18.9604 46.9807C18.8297 46.5912 18.817 46.1718 18.9237 45.775C18.5325 45.9015 18.1126 45.9097 17.7168 45.7985C17.321 45.6873 16.9668 45.4617 16.6987 45.15C16.4314 44.8391 16.2616 44.4564 16.2105 44.0496C16.1594 43.6428 16.2292 43.2299 16.4112 42.8625C16.0046 42.9059 15.5942 42.829 15.231 42.6412C14.8678 42.4535 14.5677 42.1632 14.368 41.8064C14.1683 41.4496 14.0778 41.042 14.1077 40.6342C14.1376 40.2264 14.2866 39.8364 14.5362 39.5125C14.1265 39.4741 13.7374 39.3155 13.4176 39.0567C13.0978 38.7978 12.8616 38.4502 12.7387 38.0576C12.6159 37.6649 12.6118 37.2447 12.727 36.8497C12.8421 36.4547 13.0715 36.1026 13.3862 35.8375C12.9978 35.7145 12.6539 35.4805 12.3969 35.1644C12.1399 34.8483 11.981 34.4639 11.9398 34.0586C11.8986 33.6533 11.9769 33.2448 12.1651 32.8834C12.3532 32.5221 12.643 32.2237 12.9987 32.025C12.6388 31.8289 12.3447 31.5312 12.1529 31.169C11.9611 30.8069 11.8801 30.3963 11.9201 29.9884C11.9601 29.5805 12.1193 29.1935 12.3777 28.8755C12.6362 28.5574 12.9826 28.3225 13.3737 28.2C13.059 27.935 12.8296 27.5828 12.7145 27.1879C12.5993 26.7929 12.6034 26.3727 12.7262 25.98C12.8491 25.5873 13.0853 25.2397 13.4051 24.9809C13.7249 24.722 14.114 24.5634 14.5237 24.525C14.2699 24.2014 14.1174 23.81 14.0853 23.4C14.0533 22.99 14.143 22.5796 14.3433 22.2204C14.5436 21.8612 14.8455 21.5692 15.2112 21.381C15.5768 21.1928 15.99 21.1168 16.3987 21.1625C16.215 20.7963 16.1431 20.3842 16.192 19.9774C16.2409 19.5706 16.4084 19.1873 16.6737 18.875C17.2362 18.225 18.1112 18 18.8862 18.25C18.7817 17.8521 18.7971 17.4321 18.9306 17.0429C19.064 16.6537 19.3095 16.3127 19.6362 16.0625C19.9587 15.8132 20.3472 15.6637 20.7537 15.6326C21.1602 15.6015 21.5669 15.6901 21.9237 15.8875C21.8998 15.4778 21.9972 15.0701 22.2037 14.7155C22.4103 14.3608 22.7168 14.0749 23.0849 13.8935C23.4531 13.7121 23.8666 13.6432 24.2736 13.6955C24.6807 13.7478 25.0633 13.9189 25.3737 14.1875C25.4357 13.7842 25.6145 13.4079 25.8881 13.1051C26.1617 12.8024 26.518 12.5864 26.913 12.484C27.308 12.3816 27.7244 12.3972 28.1106 12.5289C28.4969 12.6606 28.836 12.9026 29.0862 13.225C29.2265 12.8401 29.477 12.505 29.8064 12.2615C30.1358 12.0179 30.5296 11.8767 30.9387 11.8554C31.3479 11.834 31.7542 11.9336 32.1072 12.1416C32.4601 12.3496 32.7441 12.6568 32.9237 13.025C33.1384 12.676 33.4511 12.3979 33.8228 12.2253C34.1945 12.0528 34.6088 11.9935 35.014 12.0548C35.4192 12.1161 35.7973 12.2953 36.1014 12.5701C36.4054 12.8449 36.6218 13.2031 36.7237 13.6C37.0037 13.2995 37.3662 13.0882 37.7657 12.9927C38.1653 12.8972 38.5841 12.9218 38.9698 13.0632C39.3555 13.2047 39.6908 13.4568 39.9339 13.788C40.1769 14.1191 40.3169 14.5147 40.3362 14.925C40.671 14.6901 41.0675 14.5586 41.4764 14.5471C41.8853 14.5356 42.2886 14.6444 42.6361 14.8602C42.9837 15.0759 43.2602 15.389 43.4313 15.7605C43.6024 16.132 43.6606 16.5457 43.5987 16.95C44.3487 16.625 45.2487 16.7625 45.8737 17.35C46.1708 17.6331 46.3779 17.9976 46.4691 18.3978C46.5602 18.798 46.5314 19.2161 46.3862 19.6C46.7861 19.5146 47.2022 19.5486 47.583 19.6976C47.9638 19.8467 48.2924 20.1043 48.528 20.4385C48.7637 20.7727 48.896 21.1687 48.9086 21.5774C48.9211 21.9861 48.8134 22.3895 48.5987 22.7375C49.008 22.7361 49.4087 22.855 49.7509 23.0794C50.0932 23.3039 50.3619 23.624 50.5237 24C50.6883 24.3765 50.7382 24.7932 50.667 25.1979C50.5959 25.6026 50.4068 25.9773 50.1237 26.275C50.5218 26.3582 50.887 26.556 51.1743 26.8439C51.4616 27.1319 51.6586 27.4975 51.7409 27.8959C51.8232 28.2942 51.7874 28.708 51.6377 29.0862C51.4881 29.4645 51.2312 29.7908 50.8987 30.025C51.6487 30.35 52.1737 31.0875 52.1737 31.95V32C52.1737 32.8625 51.6487 33.6 50.8987 33.925C51.2312 34.1584 51.4884 34.4837 51.6387 34.8611C51.7891 35.2385 51.8261 35.6516 51.7451 36.0497C51.6642 36.4478 51.4688 36.8136 51.183 37.1023C50.8972 37.391 50.5334 37.59 50.1362 37.675C50.4222 37.9712 50.6143 38.3454 50.6882 38.7505C50.7621 39.1555 50.7145 39.5734 50.5515 39.9515C50.3885 40.3297 50.1173 40.6511 49.7721 40.8755C49.4268 41.0999 49.0229 41.2171 48.6112 41.2125C48.8317 41.56 48.9446 41.9649 48.9357 42.3763C48.9268 42.7878 48.7965 43.1874 48.5612 43.525C48.3273 43.8605 48.0001 44.1199 47.6201 44.271C47.2401 44.4221 46.824 44.4583 46.4237 44.375C46.5674 44.7601 46.5942 45.179 46.5008 45.5793C46.4074 45.9795 46.198 46.3433 45.8987 46.625C45.2737 47.2125 44.3737 47.3375 43.6362 47.025C43.6988 47.4284 43.6419 47.8413 43.4723 48.2126C43.3028 48.5839 43.0281 48.8974 42.6822 49.1142C42.3364 49.331 41.9346 49.4417 41.5265 49.4325C41.1184 49.4233 40.7219 49.2947 40.3862 49.0625C40.3668 49.4712 40.2277 49.8653 39.9863 50.1956C39.7448 50.526 39.4116 50.778 39.028 50.9205C38.6445 51.0631 38.2275 51.0897 37.8289 50.9971C37.4303 50.9046 37.0677 50.697 36.7862 50.4C36.6865 50.8003 36.4705 51.1621 36.1654 51.4397C35.8603 51.7174 35.4797 51.8984 35.0718 51.9599C34.6639 52.0214 34.2469 51.9607 33.8735 51.7854C33.5001 51.6101 33.187 51.3281 32.9737 50.975C32.7947 51.3447 32.5107 51.6533 32.1572 51.8623C31.8036 52.0713 31.3963 52.1714 30.9862 52.15H30.9987Z" fill="#EEEEEE"/>
<path d="M31.9984 45.9129C39.6821 45.9129 45.9109 39.6841 45.9109 32.0004C45.9109 24.3167 39.6821 18.0879 31.9984 18.0879C24.3148 18.0879 18.0859 24.3167 18.0859 32.0004C18.0859 39.6841 24.3148 45.9129 31.9984 45.9129Z" fill="#338AF3"/>
<path d="M35.05 27.275C35.725 26.775 36.175 25.9625 36.175 25.0375V23.6625C36.175 22.1125 34.925 20.875 33.3875 20.875H30.625C29.0875 20.875 27.8375 22.125 27.8375 23.65V25.0375C27.8375 25.9625 28.2875 26.775 28.9625 27.2875L26.4375 52.875C26.4375 52.875 27.825 54.25 32 54.25C36.175 54.25 37.5625 52.875 37.5625 52.875L35.05 27.275Z" fill="#ACABB1"/>
<path d="M31.9992 20.875L34.4117 28.3125H42.2492L35.9242 32.9125L38.3367 40.35L31.9992 35.75L25.6742 40.35L28.0867 32.9125L21.7617 28.3125H29.5867L31.9992 20.875Z" fill="#EEEEEE"/>
</g>
</g>
<defs>
<clipPath id="clip0_240_587">
<rect width="64" height="64" fill="white"/>
</clipPath>
</defs>
</svg>
