<svg width="64" height="64" viewBox="0 0 64 64" fill="none" xmlns="http://www.w3.org/2000/svg">
<g clip-path="url(#clip0_240_64)">
<mask id="mask0_240_64" style="mask-type:luminance" maskUnits="userSpaceOnUse" x="0" y="0" width="64" height="64">
<path d="M32 64C49.6731 64 64 49.6731 64 32C64 14.3269 49.6731 0 32 0C14.3269 0 0 14.3269 0 32C0 49.6731 14.3269 64 32 64Z" fill="white"/>
</mask>
<g mask="url(#mask0_240_64)">
<path d="M0 0H64V64H0V0Z" fill="#496E2D"/>
<path d="M37.5641 30.6627C36.7766 30.6627 36.0391 30.8252 35.3391 31.0752C35.7141 30.2252 35.9766 29.2877 35.9766 28.2752C35.9766 24.3002 32.0016 21.3252 32.0016 21.3252C32.0016 21.3252 28.0266 24.3002 28.0266 28.2752C28.0266 29.2752 28.2766 30.2252 28.6516 31.0752C27.9641 30.8252 27.2266 30.6627 26.4391 30.6627C22.4641 30.6627 19.4766 34.6377 19.4766 34.6377C19.4766 34.6377 22.4641 38.6127 26.4391 38.6127C28.7516 38.6252 30.7516 37.2502 32.0016 36.1252C33.2516 37.2627 35.2391 38.6252 37.5641 38.6252C41.5391 38.6252 44.5266 34.6502 44.5266 34.6502C44.5266 34.6502 41.5391 30.6752 37.5641 30.6752V30.6627Z" fill="#EEEEEE"/>
<path d="M32 12.5254L32.825 15.0504H35.475L33.325 16.6129L34.15 19.1379L32 17.5754L29.85 19.1379L30.675 16.6129L28.525 15.0504H31.175L32 12.5254ZM21.9 16.9379L23.475 18.3629L25.3125 17.3004L24.45 19.2379L26.0375 20.6629L23.9125 20.4379L23.05 22.3879L22.6125 20.3004L20.4875 20.0879L22.3375 19.0254L21.9 16.9379ZM14.5 24.3379L16.575 24.7754L17.6375 22.9379L17.8625 25.0629L19.9375 25.5004L18 26.3629L18.225 28.4754L16.8 26.9004L14.8625 27.7629L15.925 25.9129L14.5 24.3379ZM42.1 16.9379L40.525 18.3754L38.6875 17.3129L39.55 19.2504L37.9625 20.6754L40.0875 20.4504L40.95 22.4004L41.3875 20.3129L43.5125 20.1004L41.6625 19.0379L42.1 16.9379ZM49.5 24.3379L47.425 24.7754L46.3625 22.9379L46.1375 25.0629L44.0625 25.5004L46 26.3629L45.775 28.4754L47.2 26.9004L49.1375 27.7629L48.075 25.9129L49.5 24.3379Z" fill="#FFDA44"/>
<path d="M32 49.7504C35.1625 49.7504 38.0625 48.6879 40.4 46.9254H23.6C25.9375 48.6879 28.85 49.7504 32 49.7504ZM19.25 41.4004C19.687 42.4037 20.2408 43.3519 20.9 44.2254H43.1C43.7592 43.3519 44.313 42.4037 44.75 41.4004H19.25Z" fill="#EEEEEE"/>
</g>
</g>
<defs>
<clipPath id="clip0_240_64">
<rect width="64" height="64" fill="white"/>
</clipPath>
</defs>
</svg>
