<svg width="64" height="64" viewBox="0 0 64 64" fill="none" xmlns="http://www.w3.org/2000/svg">
<g clip-path="url(#clip0_240_775)">
<mask id="mask0_240_775" style="mask-type:luminance" maskUnits="userSpaceOnUse" x="0" y="0" width="64" height="64">
<path d="M32 64C49.6731 64 64 49.6731 64 32C64 14.3269 49.6731 0 32 0C14.3269 0 0 14.3269 0 32C0 49.6731 14.3269 64 32 64Z" fill="white"/>
</mask>
<g mask="url(#mask0_240_775)">
<path d="M0 0H64V64H0V0Z" fill="#496E2D"/>
<path d="M32 36.9746C29.461 36.9761 26.9978 36.109 25.0196 34.5173C23.0413 32.9256 21.6671 30.7051 21.125 28.2246C20.9571 29.0051 20.8733 29.8013 20.875 30.5996C20.875 33.5501 22.0471 36.3798 24.1335 38.4662C26.2198 40.5525 29.0495 41.7246 32 41.7246C34.9506 41.7246 37.7802 40.5525 39.8666 38.4662C41.9529 36.3798 43.125 33.5501 43.125 30.5996C43.1268 29.8013 43.043 29.0051 42.875 28.2246C42.333 30.7051 40.9587 32.9256 38.9805 34.5173C37.0023 36.109 34.5391 36.9761 32 36.9746Z" fill="#FFDA44"/>
<path d="M32.0008 22.25L33.0383 25.45H36.3758L33.6633 27.425L34.7008 30.6125L32.0008 28.625L29.2883 30.6L30.3258 27.4125L27.6133 25.4375H30.9633L32.0008 22.25Z" fill="#FFDA44"/>
</g>
</g>
<defs>
<clipPath id="clip0_240_775">
<rect width="64" height="64" fill="white"/>
</clipPath>
</defs>
</svg>
