<svg width="64" height="64" viewBox="0 0 64 64" fill="none" xmlns="http://www.w3.org/2000/svg">
<g clip-path="url(#clip0_233_257)">
<mask id="mask0_233_257" style="mask-type:luminance" maskUnits="userSpaceOnUse" x="0" y="0" width="64" height="64">
<path d="M32 64C49.6731 64 64 49.6731 64 32C64 14.3269 49.6731 0 32 0C14.3269 0 0 14.3269 0 32C0 49.6731 14.3269 64 32 64Z" fill="white"/>
</mask>
<g mask="url(#mask0_233_257)">
<path d="M12.375 17.1001L64 19.6001V23.5376L59.5125 31.8001L64.0375 40.3501L64 44.4001L12.375 47.1501V17.1001Z" fill="#EEEEEE"/>
<path d="M64 19.6V0H0L15.25 19.6H64Z" fill="#496E2D"/>
<path d="M20.875 23.5376V40.3501H64.0375L64 23.5376H20.875Z" fill="#333333"/>
<path d="M64 44.3999V63.9999H0L15.25 44.3999H64Z" fill="#FFDA44"/>
<path d="M0 0V64L32 32L0 0Z" fill="#A2001D"/>
<path d="M12.9508 23.6499L15.0258 30.0249H21.7258L16.3008 33.9749L18.3758 40.3499L12.9508 36.4124L7.52578 40.3499L9.60078 33.9749L4.17578 30.0249H10.8758L12.9508 23.6499Z" fill="#FFDA44"/>
<path d="M6.88672 32H19.0117V37.5625H6.88672V32Z" fill="#EEEEEE"/>
<path d="M21.3109 25.6249L19.3484 23.6499L12.9484 30.0499L6.56094 23.6499L4.58594 25.6249L10.9984 31.9999L4.59844 38.4124L6.57344 40.3499L12.9609 33.9749L19.3609 40.3499L21.3234 38.4124L14.9234 32.0124L21.3109 25.6249Z" fill="#333333"/>
</g>
</g>
<defs>
<clipPath id="clip0_233_257">
<rect width="64" height="64" fill="white"/>
</clipPath>
</defs>
</svg>
