<svg width="64" height="64" viewBox="0 0 64 64" fill="none" xmlns="http://www.w3.org/2000/svg">
<g clip-path="url(#clip0_233_270)">
<mask id="mask0_233_270" style="mask-type:luminance" maskUnits="userSpaceOnUse" x="0" y="0" width="64" height="64">
<path d="M32 64C49.6731 64 64 49.6731 64 32C64 14.3269 49.6731 0 32 0C14.3269 0 0 14.3269 0 32C0 49.6731 14.3269 64 32 64Z" fill="white"/>
</mask>
<g mask="url(#mask0_233_270)">
<path d="M0 50.2375L20.075 20.6L50.2375 0H56.125L64 7.875V13.7875L43.7875 42.4L13.7875 64H7.875L0 56.125V50.2375Z" fill="#EEEEEE"/>
<path d="M0 64H7.875L64 7.875V0H56.125L0 56.125V64Z" fill="#A2001D"/>
<path d="M0 0V50.2375L50.2375 0H0Z" fill="#0052B4"/>
<path d="M64.0016 64.0001V13.7876L13.7891 64.0001H64.0016Z" fill="#496E2D"/>
<path d="M26.4375 18.0873L22.85 19.7748L24.75 23.2498L20.85 22.4998L20.35 26.4373L17.65 23.5373L14.9375 26.4373L14.4375 22.4998L10.5625 23.2498L12.4625 19.7748L8.875 18.0873L12.4625 16.3998L10.55 12.9248L14.4375 13.6748L14.9375 9.7373L17.65 12.6373L20.375 9.7498L20.875 13.6873L24.75 12.9373L22.85 16.4123L26.4375 18.0873Z" fill="#FFDA44"/>
</g>
</g>
<defs>
<clipPath id="clip0_233_270">
<rect width="64" height="64" fill="white"/>
</clipPath>
</defs>
</svg>
