<svg width="64" height="64" viewBox="0 0 64 64" fill="none" xmlns="http://www.w3.org/2000/svg">
<g clip-path="url(#clip0_233_280)">
<mask id="mask0_233_280" style="mask-type:luminance" maskUnits="userSpaceOnUse" x="0" y="0" width="64" height="64">
<path d="M32 64C49.6731 64 64 49.6731 64 32C64 14.3269 49.6731 0 32 0C14.3269 0 0 14.3269 0 32C0 49.6731 14.3269 64 32 64Z" fill="white"/>
</mask>
<g mask="url(#mask0_233_280)">
<path d="M0 44H64V64H0V44Z" fill="#496E2D"/>
<path d="M0 20H64V44H0V20Z" fill="#D80027"/>
<path d="M0 0H64V20H0V0Z" fill="#0052B4"/>
<path d="M49.75 32C49.75 37.5695 47.5375 42.911 43.5992 46.8492C39.661 50.7875 34.3195 53 28.75 53C23.1805 53 17.839 50.7875 13.9008 46.8492C9.96249 42.911 7.75 37.5695 7.75 32C7.75 26.4305 9.96249 21.089 13.9008 17.1508C17.839 13.2125 23.1805 11 28.75 11C34.3195 11 39.661 13.2125 43.5992 17.1508C47.5375 21.089 49.75 26.4305 49.75 32Z" fill="#FFDA44"/>
<path d="M28.75 10C22.9152 10 17.3195 12.3179 13.1937 16.4437C9.06785 20.5695 6.75 26.1652 6.75 32C6.75 37.8348 9.06785 43.4306 13.1937 47.5564C17.3195 51.6822 22.9152 54 28.75 54C34.5848 54 40.1806 51.6822 44.3064 47.5564C48.4322 43.4306 50.75 37.8348 50.75 32C50.75 26.1652 48.4322 20.5695 44.3064 16.4437C40.1806 12.3179 34.5848 10 28.75 10ZM27.75 12V16.25C26.75 16.75 26 17.25 25.875 18.25L25.75 20.25L26.5 19.875L27.75 19.375V20.375C27.1575 20.5844 26.6458 20.9745 26.2869 21.4904C25.9281 22.0062 25.7403 22.6217 25.75 23.25C25.7659 23.8569 25.9657 24.4447 26.3228 24.9357C26.6799 25.4267 27.1775 25.7978 27.75 26V27H25.25V29H27.75V30C27.1775 30.2022 26.6799 30.5733 26.3228 31.0643C25.9657 31.5553 25.7659 32.1431 25.75 32.75C25.7403 33.3783 25.9281 33.9938 26.2869 34.5096C26.6458 35.0255 27.1575 35.4156 27.75 35.625V36.5H25.25V38.625H27.75V39.5C27.1575 39.7094 26.6458 40.0995 26.2869 40.6154C25.9281 41.1312 25.7403 41.7467 25.75 42.375C25.7659 42.9819 25.9657 43.5697 26.3228 44.0607C26.6799 44.5517 27.1775 44.9228 27.75 45.125V46.125C26.5 46.125 25.5 46.5 24.875 47C24 47.625 22.125 49.5 21.125 50.5C16.9042 48.78 13.3974 45.67 11.1855 41.6849C8.97355 37.6999 8.18909 33.0788 8.96202 28.587C9.73496 24.0952 12.0189 20.0022 15.4357 16.9857C18.8525 13.9692 23.197 12.2102 27.75 12ZM29.75 12C34.3369 12.1985 38.7158 13.9691 42.1516 17.0144C45.5873 20.0598 47.8707 24.1945 48.6184 28.7244C49.366 33.2543 48.5324 37.9035 46.2575 41.8914C43.9825 45.8793 40.4048 48.9631 36.125 50.625L32.375 47C31.75 46.5 30.875 46.25 29.75 46.125V45.125C30.3225 44.9228 30.8201 44.5517 31.1772 44.0607C31.5343 43.5697 31.7341 42.9819 31.75 42.375C31.7597 41.7467 31.5719 41.1312 31.2131 40.6154C30.8542 40.0995 30.3425 39.7094 29.75 39.5V38.625H32.375V36.625H29.75V35.625C30.3425 35.4156 30.8542 35.0255 31.2131 34.5096C31.5719 33.9938 31.7597 33.3783 31.75 32.75C31.7341 32.1431 31.5343 31.5553 31.1772 31.0643C30.8201 30.5733 30.3225 30.2022 29.75 30V29H32.375V27H29.75V26.125C30.3425 25.9156 30.8542 25.5255 31.2131 25.0096C31.5719 24.4938 31.7597 23.8783 31.75 23.25C31.7597 22.6217 31.5719 22.0062 31.2131 21.4904C30.8542 20.9745 30.3425 20.5844 29.75 20.375V17.875C30.5 17.25 31.125 16.25 31.875 15C32.375 14 32.125 13.625 32.125 13.625L31.875 14L29.75 15.375V12Z" fill="#333333"/>
</g>
</g>
<defs>
<clipPath id="clip0_233_280">
<rect width="64" height="64" fill="white"/>
</clipPath>
</defs>
</svg>
