<svg width="64" height="64" viewBox="0 0 64 64" fill="none" xmlns="http://www.w3.org/2000/svg">
<g clip-path="url(#clip0_240_411)">
<mask id="mask0_240_411" style="mask-type:luminance" maskUnits="userSpaceOnUse" x="0" y="0" width="64" height="64">
<path d="M32 64C49.6731 64 64 49.6731 64 32C64 14.3269 49.6731 0 32 0C14.3269 0 0 14.3269 0 32C0 49.6731 14.3269 64 32 64Z" fill="white"/>
</mask>
<g mask="url(#mask0_240_411)">
<path d="M0 0H64V18.0875L58.825 32.05L64 45.9125V64H0V45.9125L5.1875 32.425L0 18.0875V0Z" fill="#338AF3"/>
<path d="M0 18.0879H64V45.9129H0V18.0879Z" fill="#EEEEEE"/>
<path d="M32 22.25C29.4141 22.25 26.9342 23.2772 25.1057 25.1057C23.2772 26.9342 22.25 29.4141 22.25 32C22.25 34.5859 23.2772 37.0658 25.1057 38.8943C26.9342 40.7228 29.4141 41.75 32 41.75C34.5859 41.75 37.0658 40.7228 38.8943 38.8943C40.7228 37.0658 41.75 34.5859 41.75 32C41.75 29.4141 40.7228 26.9342 38.8943 25.1057C37.0658 23.2772 34.5859 22.25 32 22.25ZM32 37.5625C30.5247 37.5625 29.1099 36.9765 28.0667 35.9333C27.0235 34.8901 26.4375 33.4753 26.4375 32C26.4375 30.5247 27.0235 29.1099 28.0667 28.0667C29.1099 27.0235 30.5247 26.4375 32 26.4375C33.4753 26.4375 34.8901 27.0235 35.9333 28.0667C36.9765 29.1099 37.5625 30.5247 37.5625 32C37.5625 33.4753 36.9765 34.8901 35.9333 35.9333C34.8901 36.9765 33.4753 37.5625 32 37.5625Z" fill="#FFDA44"/>
<path d="M36.8242 33.3875L31.9992 32L27.1742 33.3875L25.5742 36.175H38.4242L36.8242 33.3875Z" fill="#0052B4"/>
<path d="M32.0016 25.0371L28.7891 30.6246L32.0016 31.9996L35.2141 30.6121L32.0016 25.0371Z" fill="#338AF3"/>
<path d="M27.1758 33.3875H36.8258L35.2133 30.625H28.7883L27.1758 33.3875Z" fill="#6DA544"/>
</g>
</g>
<defs>
<clipPath id="clip0_240_411">
<rect width="64" height="64" fill="white"/>
</clipPath>
</defs>
</svg>
