<svg width="64" height="64" viewBox="0 0 64 64" fill="none" xmlns="http://www.w3.org/2000/svg">
<g clip-path="url(#clip0_233_318)">
<mask id="mask0_233_318" style="mask-type:luminance" maskUnits="userSpaceOnUse" x="0" y="0" width="64" height="64">
<path d="M32 64C49.6731 64 64 49.6731 64 32C64 14.3269 49.6731 0 32 0C14.3269 0 0 14.3269 0 32C0 49.6731 14.3269 64 32 64Z" fill="white"/>
</mask>
<g mask="url(#mask0_233_318)">
<path d="M5.16406 15.2373L64.0016 20.8748V43.1248L5.47656 48.9123L5.16406 15.2373Z" fill="#EEEEEE"/>
<path d="M0 0H64V20.875H13.875L0 0Z" fill="#333333"/>
<path d="M13.875 43.125H64V64H0L13.875 43.125Z" fill="#6DA544"/>
<path d="M0 0V64L32 32L0 0Z" fill="#D80027"/>
</g>
</g>
<defs>
<clipPath id="clip0_233_318">
<rect width="64" height="64" fill="white"/>
</clipPath>
</defs>
</svg>
