<svg width="64" height="64" viewBox="0 0 64 64" fill="none" xmlns="http://www.w3.org/2000/svg">
<g clip-path="url(#clip0_218_524)">
<mask id="mask0_218_524" style="mask-type:luminance" maskUnits="userSpaceOnUse" x="0" y="0" width="64" height="64">
<path d="M32 64C49.6731 64 64 49.6731 64 32C64 14.3269 49.6731 0 32 0C14.3269 0 0 14.3269 0 32C0 49.6731 14.3269 64 32 64Z" fill="white"/>
</mask>
<g mask="url(#mask0_218_524)">
<path d="M0 0H21.625L29.25 31.975L21.675 64H0V0Z" fill="#EEEEEE"/>
<path d="M21.625 0L12.5375 3.85L22 7.875L12.5375 11.9L22 15.9125L12.5375 19.9375L22 23.95L12.5375 27.9625L22 31.9875L12.5375 36.0125L22 40.025L12.5375 44.05L22 48.0625L12.5375 52.0875L22 56.1L12.5375 60.125L21.675 64H64V0H21.625Z" fill="#751A46"/>
</g>
</g>
<defs>
<clipPath id="clip0_218_524">
<rect width="64" height="64" fill="white"/>
</clipPath>
</defs>
</svg>
