<svg width="64" height="64" viewBox="0 0 64 64" fill="none" xmlns="http://www.w3.org/2000/svg">
<g clip-path="url(#clip0_240_88)">
<mask id="mask0_240_88" style="mask-type:luminance" maskUnits="userSpaceOnUse" x="0" y="0" width="64" height="64">
<path d="M32 64C49.6731 64 64 49.6731 64 32C64 14.3269 49.6731 0 32 0C14.3269 0 0 14.3269 0 32C0 49.6731 14.3269 64 32 64Z" fill="white"/>
</mask>
<g mask="url(#mask0_240_88)">
<path d="M8 0L0 8V28L4 32L0 36V64L32 60L64 64V36L60 32L64 28V8L56 0H36L32 4L28 0H8Z" fill="#0052B4"/>
<path d="M32 32L0 64H64L32 32Z" fill="#D80027"/>
<path d="M0 28V36L64 28V36L0 28Z" fill="#FFDA44"/>
<path d="M32 32L0 8V0H8L32 32ZM32 32L56 0H64V8L32 32ZM32 32L28 0H36L32 32Z" fill="#FFDA44"/>
</g>
</g>
<defs>
<clipPath id="clip0_240_88">
<rect width="64" height="64" fill="white"/>
</clipPath>
</defs>
</svg>
