<svg width="64" height="64" viewBox="0 0 64 64" fill="none" xmlns="http://www.w3.org/2000/svg">
<g clip-path="url(#clip0_240_624)">
<mask id="mask0_240_624" style="mask-type:luminance" maskUnits="userSpaceOnUse" x="0" y="0" width="64" height="64">
<path d="M32 64C49.6731 64 64 49.6731 64 32C64 14.3269 49.6731 0 32 0C14.3269 0 0 14.3269 0 32C0 49.6731 14.3269 64 32 64Z" fill="white"/>
</mask>
<g mask="url(#mask0_240_624)">
<path d="M0 20.8754L31.725 18.4629L64 20.8754V43.1254L32.1375 47.1629L0 43.1254V20.8754Z" fill="#0052B4"/>
<path d="M0 0H64V20.875H0V0Z" fill="#D80027"/>
<path d="M0 43.125H64V64H0V43.125Z" fill="#EEEEEE"/>
<path d="M8.27344 18.0879V34.0504C8.27344 43.1254 20.1359 45.9254 20.1359 45.9254C20.1359 45.9254 31.9984 43.1254 31.9984 34.0504V18.0879H8.27344Z" fill="#D80027"/>
<path d="M13.175 20.8754H27.1V15.3004L24.3125 16.7004L20.1375 12.5254L15.9625 16.7004L13.175 15.3004V20.8754ZM29.2125 36.2754L20.175 27.2254L11.125 36.2754L14.0875 39.2254L20.175 33.1379L26.2625 39.2254L29.2125 36.2754Z" fill="#FFDA44"/>
<path d="M29.2125 27.8248H25C25.2452 27.4035 25.3746 26.9248 25.375 26.4373C25.3764 25.8146 25.1692 25.2093 24.7866 24.7181C24.4039 24.2268 23.8677 23.8778 23.2636 23.7268C22.6594 23.5758 22.0221 23.6314 21.4533 23.8847C20.8844 24.1381 20.4168 24.5747 20.125 25.1248C19.83 24.5812 19.3626 24.1511 18.7964 23.9023C18.2302 23.6535 17.5973 23.6 16.9974 23.7504C16.3974 23.9007 15.8645 24.2463 15.4826 24.7328C15.1006 25.2192 14.8913 25.8189 14.8875 26.4373C14.8879 26.9248 15.0173 27.4035 15.2625 27.8248H11.125C11.1478 28.5721 11.4607 29.281 11.9974 29.8014C12.5341 30.3218 13.2524 30.6127 14 30.6123H13.9125C13.9125 32.1498 15.1625 33.3873 16.7 33.3873C16.7 34.7623 17.675 35.8873 18.9625 36.1248L16.775 41.0748C17.8548 41.5134 19.0095 41.7384 20.175 41.7373C21.3405 41.7384 22.4952 41.5134 23.575 41.0748L21.3875 36.1248C22.675 35.8748 23.65 34.7498 23.65 33.3873C25.1875 33.3873 26.4375 32.1373 26.4375 30.6123H26.3375C27.0851 30.6127 27.8034 30.3218 28.3401 29.8014C28.8768 29.281 29.1897 28.5721 29.2125 27.8248Z" fill="#EEEEEE"/>
</g>
</g>
<defs>
<clipPath id="clip0_240_624">
<rect width="64" height="64" fill="white"/>
</clipPath>
</defs>
</svg>
