<svg width="64" height="64" viewBox="0 0 64 64" fill="none" xmlns="http://www.w3.org/2000/svg">
<g clip-path="url(#clip0_240_116)">
<mask id="mask0_240_116" style="mask-type:luminance" maskUnits="userSpaceOnUse" x="0" y="0" width="64" height="64">
<path d="M32 64C49.6731 64 64 49.6731 64 32C64 14.3269 49.6731 0 32 0C14.3269 0 0 14.3269 0 32C0 49.6731 14.3269 64 32 64Z" fill="white"/>
</mask>
<g mask="url(#mask0_240_116)">
<path d="M63.9992 64.0002V2.9502L31.9992 31.9877L2.94922 64.0002H63.9992Z" fill="#496E2D"/>
<path d="M0 0H61.05L32 32L0 61.05V0Z" fill="#0052B4"/>
<path d="M61.05 0L0 61.05V64H2.95L64 2.95V0H61.05Z" fill="#FFDA44"/>
<path d="M13.4758 11.125L14.1633 13.25H16.4133L14.5883 14.5625L15.2758 16.6875L13.5008 15.375L11.6883 16.7L12.3758 14.575L10.5508 13.25H12.7758L13.4758 11.125ZM24.8883 11.125L25.5758 13.25H27.8258L26.0008 14.55L26.7008 16.675L24.8758 15.375L23.0633 16.7L23.7633 14.575L21.9508 13.25H24.2008L24.8883 11.125ZM13.4758 22.25L14.1633 24.375H16.4133L14.5883 25.6875L15.2758 27.8125L13.4758 26.5L11.6633 27.8125L12.3508 25.6875L10.5508 24.375H12.7758L13.4758 22.25ZM24.8883 22.25L25.5758 24.375H27.8258L26.0008 25.6875L26.7008 27.8125L24.8883 26.5L23.0758 27.8125L23.7758 25.6875L21.9633 24.375H24.2133L24.8883 22.25ZM19.1758 16.6875L19.8758 18.8125H22.1008L20.3008 20.125L20.9883 22.25L19.1758 20.9375L17.3758 22.25L18.0633 20.125L16.2508 18.8125H18.5008L19.1758 16.6875Z" fill="#EEEEEE"/>
</g>
</g>
<defs>
<clipPath id="clip0_240_116">
<rect width="64" height="64" fill="white"/>
</clipPath>
</defs>
</svg>
