<svg width="64" height="64" viewBox="0 0 64 64" fill="none" xmlns="http://www.w3.org/2000/svg">
<g clip-path="url(#clip0_240_125)">
<mask id="mask0_240_125" style="mask-type:luminance" maskUnits="userSpaceOnUse" x="0" y="0" width="64" height="64">
<path d="M32 64C49.6731 64 64 49.6731 64 32C64 14.3269 49.6731 0 32 0C14.3269 0 0 14.3269 0 32C0 49.6731 14.3269 64 32 64Z" fill="white"/>
</mask>
<g mask="url(#mask0_240_125)">
<path d="M0 0H16.7L21.1125 2.0875L25.0375 0H64V27.825L61.175 31.7875L64 36.175V64H25.0375L21.0375 61.525L16.7 64H0V36.175L2.7625 32.0125L0 27.825V0Z" fill="#0052B4"/>
<path d="M16.7 0V27.825H0V36.175H16.7V64H25.0375V36.175H64V27.825H25.0375V0H16.7Z" fill="#FFDA44"/>
</g>
</g>
<defs>
<clipPath id="clip0_240_125">
<rect width="64" height="64" fill="white"/>
</clipPath>
</defs>
</svg>
