<svg width="64" height="64" viewBox="0 0 64 64" fill="none" xmlns="http://www.w3.org/2000/svg">
<g clip-path="url(#clip0_240_858)">
<path d="M64 32C64 49.6733 49.6733 64 32 64C14.3267 64 0 49.6733 0 32C0 32.0073 32 0.00333333 32 0C49.6733 0 64 14.3267 64 32Z" fill="#0052B4"/>
<path d="M32 16.6953V0H31.9947C14.324 0.00266667 0 14.3287 0 32H16.6953V22.5987L26.0967 32H31.9147L32 31.9147V26.0973L22.5987 16.6953H32Z" fill="#F0F0F0"/>
<path d="M16.1911 4.17449C11.181 7.02964 7.03093 11.1797 4.17578 16.1898V32.0005H12.5231V12.5225H32.0018V4.17383L16.1911 4.17449Z" fill="#D80027"/>
<path d="M32.0026 28.0646L20.6339 16.6953H16.6992L32.0026 32V28.0646Z" fill="#D80027"/>
<path d="M37.332 24V36.74C37.332 43.3187 45.9987 45.3333 45.9987 45.3333C45.9987 45.3333 54.6654 43.318 54.6654 36.74V24H37.332Z" fill="#338AF3"/>
<path d="M45.9987 45.3326C45.9987 45.3326 37.332 43.3166 37.332 36.7393H54.6654C54.6654 43.3166 45.9987 45.3326 45.9987 45.3326Z" fill="#6DA544"/>
<path d="M37.332 24H54.6654V30H37.332V24Z" fill="#FFBB00"/>
<path d="M37.332 29.9998L41.9987 36.6665H37.332V29.9998ZM47.4127 28.4138C47.2282 28.6049 47.0075 28.7572 46.7635 28.862C46.5195 28.9669 46.2571 29.022 45.9915 29.0243C45.7259 29.0266 45.4626 28.976 45.2168 28.8755C44.971 28.7749 44.7477 28.6264 44.5599 28.4386C44.3721 28.2508 44.2236 28.0275 44.1231 27.7817C44.0225 27.536 43.9719 27.2726 43.9742 27.007C43.9765 26.7415 44.0317 26.479 44.1365 26.235C44.2413 25.991 44.3937 25.7703 44.5847 25.5858C44.9619 25.2215 45.4671 25.0199 45.9915 25.0245C46.5159 25.029 47.0175 25.2394 47.3883 25.6102C47.7592 25.981 47.9695 26.4826 47.974 27.007C47.9786 27.5314 47.777 28.0366 47.4127 28.4138Z" fill="#923F00"/>
<path d="M44.5849 28.4142C44.96 28.7892 45.4686 28.9998 45.9989 28.9998C46.5292 28.9998 47.0379 28.7892 47.4129 28.4142L44.5856 25.5869C44.2106 25.962 44 26.4706 44 27.0009C44 27.5312 44.2106 28.0399 44.5856 28.4149L44.5849 28.4142Z" fill="#F0F0F0"/>
<path d="M44.668 35.333H52.0013V37.9997H44.668V35.333Z" fill="#923F00"/>
<path d="M50.6654 31.333H51.9987V33.9997H50.6654V31.333ZM47.9987 31.333H49.332V33.9997H47.9987V31.333ZM45.332 31.333H46.6654V33.9997H45.332V31.333Z" fill="#F0F0F0"/>
</g>
<defs>
<clipPath id="clip0_240_858">
<rect width="64" height="64" fill="white"/>
</clipPath>
</defs>
</svg>
