<svg width="64" height="64" viewBox="0 0 64 64" fill="none" xmlns="http://www.w3.org/2000/svg">
<g clip-path="url(#clip0_224_1230)">
<mask id="mask0_224_1230" style="mask-type:luminance" maskUnits="userSpaceOnUse" x="0" y="0" width="64" height="64">
<path d="M32 64C49.6731 64 64 49.6731 64 32C64 14.3269 49.6731 0 32 0C14.3269 0 0 14.3269 0 32C0 49.6731 14.3269 64 32 64Z" fill="white"/>
</mask>
<g mask="url(#mask0_224_1230)">
<path d="M0 20.8749L31.725 18.4624L64 20.8749V43.1249L32.1375 47.1624L0 43.1249V20.8749Z" fill="#0052B4"/>
<path d="M0 0H64V20.875H0V0Z" fill="#EEEEEE"/>
<path d="M0 43.125H64V64H0V43.125Z" fill="#D80027"/>
<path d="M27.8375 20.8749V12.5249H11.125V20.8749L19.5 31.1999L27.8375 20.8749Z" fill="#0052B4"/>
<path d="M11.125 20.8751V23.6501C11.125 30.0376 19.475 32.0001 19.475 32.0001C19.475 32.0001 27.825 30.0376 27.825 23.6501V20.8751L25.0375 23.6501L19.475 19.4751L13.9125 23.6501L11.125 20.8751Z" fill="#EEEEEE"/>
</g>
</g>
<defs>
<clipPath id="clip0_224_1230">
<rect width="64" height="64" fill="white"/>
</clipPath>
</defs>
</svg>
