<svg width="64" height="64" viewBox="0 0 64 64" fill="none" xmlns="http://www.w3.org/2000/svg">
<g clip-path="url(#clip0_240_839)">
<mask id="mask0_240_839" style="mask-type:luminance" maskUnits="userSpaceOnUse" x="0" y="0" width="64" height="64">
<path d="M32 64C49.6731 64 64 49.6731 64 32C64 14.3269 49.6731 0 32 0C14.3269 0 0 14.3269 0 32C0 49.6731 14.3269 64 32 64Z" fill="white"/>
</mask>
<g mask="url(#mask0_240_839)">
<path d="M0 18.0879L32 15.5254L64 18.0879V22.2504L59.325 32.1254L64 41.7504V45.9129L32 48.9254L0 45.9129V41.7504L4.7125 32.0879L0 22.2504V18.0879Z" fill="#FFDA44"/>
<path d="M0 0H64V18.0875H0V0Z" fill="#333333"/>
<path d="M0 45.9121H64V63.9996H0V45.9121Z" fill="#0052B4"/>
<path d="M0 22.25H64V41.75H0V22.25Z" fill="#A2001D"/>
<path d="M11.1484 30.6121H52.8984V33.3746H11.1484V30.6121ZM16.7234 25.0371H47.3234V27.8246H16.7234V25.0371Z" fill="#FFDA44"/>
<path d="M32.0234 23.6504L29.7734 31.8004L32.0234 40.3504C40.3734 40.3504 47.5234 32.0004 47.5234 32.0004C47.5234 32.0004 40.3734 23.6504 32.0234 23.6504Z" fill="#EEEEEE"/>
<path d="M32.0234 40.3504C23.6734 40.3504 16.5234 32.0004 16.5234 32.0004C16.5234 32.0004 23.6734 23.6504 32.0234 23.6504" fill="#333333"/>
<path d="M26.4609 29.2129H29.2359V34.7879H26.4609V29.2129Z" fill="#EEEEEE"/>
<path d="M34.8125 29.2129H37.5875V34.7879H34.8125V29.2129Z" fill="#333333"/>
<path d="M11.1508 34.7879C12.6903 34.7879 13.9383 33.5399 13.9383 32.0004C13.9383 30.4609 12.6903 29.2129 11.1508 29.2129C9.61129 29.2129 8.36328 30.4609 8.36328 32.0004C8.36328 33.5399 9.61129 34.7879 11.1508 34.7879Z" fill="#0052B4"/>
<path d="M52.9008 34.7879C54.4403 34.7879 55.6883 33.5399 55.6883 32.0004C55.6883 30.4609 54.4403 29.2129 52.9008 29.2129C51.3613 29.2129 50.1133 30.4609 50.1133 32.0004C50.1133 33.5399 51.3613 34.7879 52.9008 34.7879Z" fill="#0052B4"/>
</g>
</g>
<defs>
<clipPath id="clip0_240_839">
<rect width="64" height="64" fill="white"/>
</clipPath>
</defs>
</svg>
