<svg width="64" height="64" viewBox="0 0 64 64" fill="none" xmlns="http://www.w3.org/2000/svg">
<g clip-path="url(#clip0_240_449)">
<mask id="mask0_240_449" style="mask-type:luminance" maskUnits="userSpaceOnUse" x="0" y="0" width="64" height="64">
<path d="M32 64C49.6731 64 64 49.6731 64 32C64 14.3269 49.6731 0 32 0C14.3269 0 0 14.3269 0 32C0 49.6731 14.3269 64 32 64Z" fill="white"/>
</mask>
<g mask="url(#mask0_240_449)">
<path d="M0 0H64V64H0V0Z" fill="#0052B4"/>
<path d="M23.5 16.7L24.2 18.825H26.4375L24.625 20.125L25.3125 22.25L23.5125 20.9375L21.7 22.25L22.3875 20.125L20.5875 18.8125H22.8125L23.5 16.7ZM14.4375 32L15.3125 34.6625H18.1L15.85 36.2875L16.7 38.9625L14.45 37.3125L12.1875 38.9625L13.05 36.3L10.7875 34.6625H13.575L14.4375 32ZM14.4375 9.75L15.3125 12.4H18.1L15.85 14.0375L16.7 16.7L14.45 15.05L12.1875 16.7L13.05 14.0375L10.7875 12.4H13.575L14.4375 9.75ZM7.475 22.25L8.3375 24.9125H11.125L8.875 26.5625L9.7375 29.2125L7.475 27.575L5.2125 29.2125L6.0875 26.5625L3.8125 24.9125H6.625L7.475 22.25Z" fill="#EEEEEE"/>
<path d="M23.5 16.7L24.2 18.825H26.4375L24.625 20.125L25.3125 22.25L23.5125 20.9375L21.7 22.25L22.3875 20.125L20.5875 18.8125H22.8125L23.5 16.7ZM14.4375 32L15.3125 34.6625H18.1L15.85 36.2875L16.7 38.9625L14.45 37.3125L12.1875 38.9625L13.05 36.3L10.7875 34.6625H13.575L14.4375 32ZM14.4375 9.75L15.3125 12.4H18.1L15.85 14.0375L16.7 16.7L14.45 15.05L12.1875 16.7L13.05 14.0375L10.7875 12.4H13.575L14.4375 9.75ZM7.475 22.25L8.3375 24.9125H11.125L8.875 26.5625L9.7375 29.2125L7.475 27.575L5.2125 29.2125L6.0875 26.5625L3.8125 24.9125H6.625L7.475 22.25Z" fill="#EEEEEE"/>
<path d="M51.4734 15.2998L18.0859 43.1248H63.2984V38.6498C59.648 36.9839 56.5536 34.3036 54.3839 30.9282C52.2142 27.5529 51.0607 23.6249 51.0609 19.6123C51.0609 18.1498 51.1859 16.6748 51.4734 15.2998ZM63.2984 45.9123H18.0859V50.0873H63.2984V45.9123Z" fill="#FFDA44"/>
</g>
</g>
<defs>
<clipPath id="clip0_240_449">
<rect width="64" height="64" fill="white"/>
</clipPath>
</defs>
</svg>
