<svg width="64" height="64" viewBox="0 0 64 64" fill="none" xmlns="http://www.w3.org/2000/svg">
<g clip-path="url(#clip0_233_372)">
<mask id="mask0_233_372" style="mask-type:luminance" maskUnits="userSpaceOnUse" x="0" y="0" width="64" height="64">
<path d="M32 64C49.6731 64 64 49.6731 64 32C64 14.3269 49.6731 0 32 0C14.3269 0 0 14.3269 0 32C0 49.6731 14.3269 64 32 64Z" fill="white"/>
</mask>
<g mask="url(#mask0_233_372)">
<path d="M50.225 0H56.125L64 7.875V13.775L43.4625 42.0375L13.775 64H7.875L0 56.125V50.225L20.8875 20.4L50.225 0Z" fill="#FFDA44"/>
<path d="M0 64V56.125L56.125 0H64V7.875L7.875 64H0Z" fill="#333333"/>
<path d="M13.7734 63.9999L63.9984 13.7749V63.9999H13.7734Z" fill="#338AF3"/>
<path d="M0 50.225L50.225 0H0V50.225Z" fill="#6DA544"/>
</g>
</g>
<defs>
<clipPath id="clip0_233_372">
<rect width="64" height="64" fill="white"/>
</clipPath>
</defs>
</svg>
