<svg width="64" height="64" viewBox="0 0 64 64" fill="none" xmlns="http://www.w3.org/2000/svg">
<g clip-path="url(#clip0_218_105)">
<mask id="mask0_218_105" style="mask-type:luminance" maskUnits="userSpaceOnUse" x="0" y="0" width="64" height="64">
<path d="M64 0H0V64H64V0Z" fill="white"/>
</mask>
<g mask="url(#mask0_218_105)">
<mask id="mask1_218_105" style="mask-type:luminance" maskUnits="userSpaceOnUse" x="0" y="0" width="64" height="64">
<path d="M32 64C49.6731 64 64 49.6731 64 32C64 14.3269 49.6731 0 32 0C14.3269 0 0 14.3269 0 32C0 49.6731 14.3269 64 32 64Z" fill="white"/>
</mask>
<g mask="url(#mask1_218_105)">
<path d="M32 0H64V8L60 12L64 16V24L60 28L64 32V40L60 44L64 48V56L32 60L0 56V48L4 44L0 40V32L32 0Z" fill="#EEEEEE"/>
<path d="M28 8H64V16H28V8ZM28 24H64V32H32L28 24ZM0 40H64V48H0V40ZM0 56H64V64H0V56Z" fill="#D80027"/>
<path d="M0 0H32V32H0V0Z" fill="#0052B4"/>
<path d="M23.375 30.375L30.5 25.25H21.75L28.875 30.375L26.125 22L23.375 30.375ZM13.25 30.375L20.375 25.25H11.625L18.75 30.375L16 22L13.25 30.375ZM3.125 30.375L10.25 25.25H1.5L8.625 30.375L5.875 22L3.125 30.375ZM23.375 20.25L30.5 15.125H21.75L28.875 20.25L26.125 11.875L23.375 20.25ZM13.25 20.25L20.375 15.125H11.625L18.75 20.25L16 11.875L13.25 20.25ZM3.125 20.25L10.25 15.125H1.5L8.625 20.25L5.875 11.875L3.125 20.25ZM23.375 10L30.5 4.875H21.75L28.875 10L26.125 1.625L23.375 10ZM13.25 10L20.375 4.875H11.625L18.75 10L16 1.625L13.25 10ZM3.125 10L10.25 4.875H1.5L8.625 10L5.875 1.625L3.125 10Z" fill="#EEEEEE"/>
</g>
</g>
</g>
<defs>
<clipPath id="clip0_218_105">
<rect width="64" height="64" fill="white"/>
</clipPath>
</defs>
</svg>
