<svg width="64" height="64" viewBox="0 0 64 64" fill="none" xmlns="http://www.w3.org/2000/svg">
<g clip-path="url(#clip0_218_585)">
<mask id="mask0_218_585" style="mask-type:luminance" maskUnits="userSpaceOnUse" x="0" y="0" width="64" height="64">
<path d="M32 64C49.6731 64 64 49.6731 64 32C64 14.3269 49.6731 0 32 0C14.3269 0 0 14.3269 0 32C0 49.6731 14.3269 64 32 64Z" fill="white"/>
</mask>
<g mask="url(#mask0_218_585)">
<path d="M64 27.825V0H0L26.95 29.925L64 27.825Z" fill="#D80027"/>
<path d="M64 36.175V64H0L27.0625 34L64 36.175Z" fill="#6DA544"/>
<path d="M0 0L27.825 27.825H64V30.6L62.6375 32.075L64 33.375V36.175H27.825L0 64V60.0625L1 57.1875L0 56.1125V7.875L1.1875 6.575L0 3.95V0Z" fill="#333333"/>
<path d="M64 30.6H26.65L0 3.96249V7.87499L24.1 32L0 56.125V60.0625L26.65 33.375H64V30.6Z" fill="#FFDA44"/>
<path d="M7.77499 38.825V36.125C9.06129 36.125 10.2949 35.614 11.2045 34.7045C12.114 33.7949 12.625 32.5613 12.625 31.275C12.6151 30.3698 12.2486 29.5051 11.605 28.8685C10.9614 28.2319 10.0927 27.8749 9.18749 27.875C8.56754 27.875 7.97299 28.1213 7.53463 28.5596C7.09626 28.998 6.84999 29.5925 6.84999 30.2125C6.84999 30.6103 7.00802 30.9918 7.28933 31.2731C7.57063 31.5545 7.95216 31.7125 8.34999 31.7125C8.81249 31.7125 9.19999 31.3375 9.19999 30.8625H11.875C11.8717 31.7952 11.4988 32.6886 10.8381 33.347C10.1774 34.0053 9.28271 34.375 8.34999 34.375C6.04999 34.375 4.17499 32.5 4.17499 30.2C4.17499 27.425 6.42499 25.175 9.17499 25.175C10.7994 25.175 12.3574 25.8203 13.506 26.969C14.6547 28.1176 15.3 29.6755 15.3 31.3C15.3 35.4375 11.925 38.825 7.77499 38.825Z" fill="#FFDA44"/>
</g>
</g>
<defs>
<clipPath id="clip0_218_585">
<rect width="64" height="64" fill="white"/>
</clipPath>
</defs>
</svg>
