<svg width="64" height="64" viewBox="0 0 64 64" fill="none" xmlns="http://www.w3.org/2000/svg">
<g clip-path="url(#clip0_516_2)">
<path d="M32 64C49.6731 64 64 49.6731 64 32C64 14.3269 49.6731 0 32 0C14.3269 0 0 14.3269 0 32C0 49.6731 14.3269 64 32 64Z" fill="#F0F0F0"/>
<path d="M32 23.6521H62.8976C62.1051 20.7118 60.8947 17.9005 59.3032 15.3042H32V23.6521ZM12.0804 57.0435H51.9195C54.8477 54.7118 57.3465 51.8867 59.3031 48.6956H4.69675C6.65352 51.8866 9.15222 54.7117 12.0804 57.0435ZM11.1304 7.74237C8.60728 9.91477 6.43688 12.4658 4.69675 15.3044H11.1304V7.74237Z" fill="#338AF3"/>
<path d="M32 32V23.6521H19.4783V32H11.1304V23.6521H1.10238C0.385 26.3139 0 29.1116 0 32C0 34.8884 0.385 37.6861 1.10238 40.3479H62.8978C63.615 37.6861 64 34.8884 64 32H32ZM32 0C27.5564 0 23.3245 0.906625 19.4783 2.5435V15.3044H32V6.9565H51.9196C46.4532 2.603 39.5311 0 32 0Z" fill="#338AF3"/>
</g>
<defs>
<clipPath id="clip0_516_2">
<rect width="64" height="64" fill="white"/>
</clipPath>
</defs>
</svg>
