<svg width="64" height="64" viewBox="0 0 64 64" fill="none" xmlns="http://www.w3.org/2000/svg">
<g clip-path="url(#clip0_235_68)">
<path d="M32 64C49.6731 64 64 49.6731 64 32C64 14.3269 49.6731 0 32 0C14.3269 0 0 14.3269 0 32C0 49.6731 14.3269 64 32 64Z" fill="#F0F0F0"/>
<path d="M6.61419 12.5179C4.10056 15.7883 2.20519 19.5576 1.10156 23.6525H17.7488L6.61419 12.5179ZM62.8968 23.6525C61.7932 19.5578 59.8977 15.7884 57.3842 12.518L46.2498 23.6525H62.8968ZM1.10156 40.3481C2.20531 44.4429 4.10069 48.2123 6.61419 51.4825L17.7485 40.3481H1.10156ZM51.4815 6.61529C48.2111 4.10166 44.4418 2.20629 40.347 1.10254V17.7496L51.4815 6.61529ZM12.517 57.385C15.7873 59.8986 19.5567 61.794 23.6515 62.8978V46.2508L12.517 57.385ZM23.6513 1.10254C19.5566 2.20629 15.7872 4.10166 12.517 6.61516L23.6513 17.7495V1.10254ZM40.3471 62.8978C44.4418 61.794 48.2112 59.8986 51.4815 57.3851L40.3471 46.2508V62.8978ZM46.2498 40.3481L57.3842 51.4826C59.8977 48.2124 61.7932 44.4429 62.8968 40.3481H46.2498Z" fill="#0052B4"/>
<path d="M63.7291 27.8261H36.1741L36.174 0.270875C34.8076 0.093 33.4146 0 32 0C30.6043 6.58223e-05 29.2101 0.090547 27.8261 0.270875V27.8259L0.270875 27.826C0.093 29.1924 0 30.5854 0 32C6.58223e-05 33.3957 0.090547 34.7899 0.270875 36.1739H27.8259L27.826 63.7291C29.1924 63.907 30.5851 64 32 64C33.3957 64 34.7899 63.9095 36.1739 63.7291V36.1741L63.7291 36.174C63.907 34.8076 64 33.4149 64 32C63.9999 30.6043 63.9095 29.2101 63.7291 27.8261ZM40.3479 40.348L54.6274 54.6275C55.2841 53.971 55.9106 53.2846 56.5084 52.5731L44.2831 40.3479L40.3479 40.348ZM23.6521 40.348L9.3725 54.6274C10.029 55.2841 10.7154 55.9106 11.4269 56.5084L23.6521 44.2829V40.348ZM23.6521 23.6524L9.37263 9.3725C8.71588 10.029 8.08937 10.7154 7.49162 11.4269L19.717 23.6523L23.6521 23.6524ZM40.3479 23.6524L54.6275 9.37263C53.971 8.71588 53.2846 8.08937 52.5731 7.49175L40.3479 19.7171V23.6524Z" fill="#D80027"/>
</g>
<defs>
<clipPath id="clip0_235_68">
<rect width="64" height="64" fill="white"/>
</clipPath>
</defs>
</svg>
