<svg width="64" height="64" viewBox="0 0 64 64" fill="none" xmlns="http://www.w3.org/2000/svg">
<g clip-path="url(#clip0_516_11)">
<path d="M32 64C49.6731 64 64 49.6731 64 32C64 14.3269 49.6731 0 32 0C14.3269 0 0 14.3269 0 32C0 49.6731 14.3269 64 32 64Z" fill="#D80027"/>
<path d="M17.5125 19.475L20.275 27.975H29.2125L21.9875 33.2375L24.75 41.7375L17.5125 36.4875L10.275 41.7375L13.05 33.2375L5.8125 27.975H14.75L17.5125 19.475ZM37.9375 49.5625L35.825 46.9625L32.7 48.175L34.5125 45.3625L32.4 42.75L35.6375 43.6125L37.4625 40.8L37.6375 44.15L40.8875 45.0125L37.75 46.2125L37.9375 49.5625ZM42.1375 41.9375L43.1375 38.7375L40.4 36.8L43.75 36.75L44.7375 33.55L45.825 36.725L49.175 36.6875L46.4875 38.6875L47.5625 41.8625L44.825 39.925L42.1375 41.9375ZM47.8 23.4875L46.325 26.5L48.725 28.8375L45.4125 28.3625L43.9375 31.3625L43.3625 28.0625L40.0375 27.5875L43.0125 26.025L42.4375 22.7125L44.8375 25.05L47.8 23.4875ZM38.025 14.3625L37.775 17.7L40.8875 18.9625L37.625 19.7625L37.3875 23.1125L35.625 20.2625L32.3625 21.0625L34.525 18.5L32.75 15.6625L35.8625 16.925L38.025 14.3625Z" fill="#FFDA44"/>
</g>
<defs>
<clipPath id="clip0_516_11">
<rect width="64" height="64" fill="white"/>
</clipPath>
</defs>
</svg>
